M48
;DRILL file {KiCad 4.0.7-e2-6376~61~ubuntu18.04.1} date Sat Jul 21 19:55:15 2018
;FORMAT={-:-/ absolute / metric / decimal}
FMAT,2
METRIC,TZ
T1C0.762
T2C0.800
T3C1.000
T4C3.100
%
G90
G05
M71
T1
X-13.Y-8.11
X-13.Y-10.63
X-13.Y-13.15
X-13.Y-23.11
X-13.Y-25.63
X-13.Y-28.15
X-13.Y-38.11
X-13.Y-40.63
X-13.Y-43.15
X-13.Y-53.11
X-13.Y-55.63
X-13.Y-58.15
X-10.5Y-6.85
X-10.5Y-9.37
X-10.5Y-11.889
X-10.5Y-21.85
X-10.5Y-24.37
X-10.5Y-26.889
X-10.5Y-36.85
X-10.5Y-39.37
X-10.5Y-41.889
X-10.5Y-51.85
X-10.5Y-54.37
X-10.5Y-56.889
T2
X-22.86Y-17.78
X-22.86Y-31.75
T3
X-33.29Y-3.24
X-33.29Y-5.78
X-33.29Y-8.32
X-33.29Y-10.86
X-33.29Y-13.4
X-33.29Y-15.94
X-33.29Y-18.48
X-33.29Y-21.02
X-33.29Y-23.56
X-33.29Y-26.1
X-33.29Y-28.64
X-33.29Y-31.18
X-33.29Y-33.72
X-33.29Y-36.26
X-33.29Y-38.8
X-33.29Y-41.34
X-33.29Y-43.88
X-33.29Y-46.42
X-33.29Y-48.96
X-33.29Y-51.5
X-30.75Y-3.24
X-30.75Y-5.78
X-30.75Y-8.32
X-30.75Y-10.86
X-30.75Y-13.4
X-30.75Y-15.94
X-30.75Y-18.48
X-30.75Y-21.02
X-30.75Y-23.56
X-30.75Y-26.1
X-30.75Y-28.64
X-30.75Y-31.18
X-30.75Y-33.72
X-30.75Y-36.26
X-30.75Y-38.8
X-30.75Y-41.34
X-30.75Y-43.88
X-30.75Y-46.42
X-30.75Y-48.96
X-30.75Y-51.5
T4
X-4.Y-5.
X-4.Y-15.
X-4.Y-20.
X-4.Y-30.
X-4.Y-35.
X-4.Y-45.
X-4.Y-50.
X-4.Y-60.
T0
M30
