G04 #@! TF.FileFunction,Copper,L2,Bot,Signal*
%FSLAX46Y46*%
G04 Gerber Fmt 4.6, Leading zero omitted, Abs format (unit mm)*
G04 Created by KiCad (PCBNEW 4.0.7-e2-6376~60~ubuntu17.10.1) date Thu Jun 21 22:02:11 2018*
%MOMM*%
%LPD*%
G01*
G04 APERTURE LIST*
%ADD10C,0.100000*%
%ADD11R,1.700000X1.700000*%
%ADD12O,1.700000X1.700000*%
%ADD13C,1.524000*%
%ADD14C,3.500000*%
%ADD15C,0.600000*%
%ADD16C,0.500000*%
G04 APERTURE END LIST*
D10*
D11*
X135000000Y-123000000D03*
D12*
X132460000Y-123000000D03*
X135000000Y-120460000D03*
X132460000Y-120460000D03*
X135000000Y-117920000D03*
X132460000Y-117920000D03*
X135000000Y-115380000D03*
X132460000Y-115380000D03*
X135000000Y-112840000D03*
X132460000Y-112840000D03*
X135000000Y-110300000D03*
X132460000Y-110300000D03*
X135000000Y-107760000D03*
X132460000Y-107760000D03*
X135000000Y-105220000D03*
X132460000Y-105220000D03*
X135000000Y-102680000D03*
X132460000Y-102680000D03*
X135000000Y-100140000D03*
X132460000Y-100140000D03*
X135000000Y-97600000D03*
X132460000Y-97600000D03*
X135000000Y-95060000D03*
X132460000Y-95060000D03*
X135000000Y-92520000D03*
X132460000Y-92520000D03*
X135000000Y-89980000D03*
X132460000Y-89980000D03*
X135000000Y-87440000D03*
X132460000Y-87440000D03*
X135000000Y-84900000D03*
X132460000Y-84900000D03*
X135000000Y-82360000D03*
X132460000Y-82360000D03*
X135000000Y-79820000D03*
X132460000Y-79820000D03*
X135000000Y-77280000D03*
X132460000Y-77280000D03*
X135000000Y-74740000D03*
X132460000Y-74740000D03*
D13*
X143500000Y-76850000D03*
X141000000Y-78110000D03*
X143500000Y-79370000D03*
X141000000Y-80630000D03*
X143500000Y-81889000D03*
X141000000Y-83150000D03*
D14*
X150000000Y-75000000D03*
X150000000Y-85000000D03*
D13*
X143500000Y-91850000D03*
X141000000Y-93110000D03*
X143500000Y-94370000D03*
X141000000Y-95630000D03*
X143500000Y-96889000D03*
X141000000Y-98150000D03*
D14*
X150000000Y-90000000D03*
X150000000Y-100000000D03*
D13*
X143500000Y-106850000D03*
X141000000Y-108110000D03*
X143500000Y-109370000D03*
X141000000Y-110630000D03*
X143500000Y-111889000D03*
X141000000Y-113150000D03*
D14*
X150000000Y-105000000D03*
X150000000Y-115000000D03*
D13*
X143500000Y-121850000D03*
X141000000Y-123110000D03*
X143500000Y-124370000D03*
X141000000Y-125630000D03*
X143500000Y-126889000D03*
X141000000Y-128150000D03*
D14*
X150000000Y-120000000D03*
X150000000Y-130000000D03*
D15*
X137500000Y-110750000D03*
X137500000Y-115500000D03*
X138000000Y-95750000D03*
X138000000Y-91500000D03*
D16*
X137500000Y-116250000D02*
X137500000Y-115500000D01*
X139360000Y-108890000D02*
X139360000Y-108110000D01*
X137500000Y-110750000D02*
X139360000Y-108890000D01*
X135000000Y-117920000D02*
X135000000Y-117750000D01*
X135000000Y-117750000D02*
X136500000Y-116250000D01*
X136500000Y-116250000D02*
X137500000Y-116250000D01*
X137500000Y-116250000D02*
X138500000Y-116250000D01*
X138500000Y-116250000D02*
X140000000Y-117750000D01*
X140000000Y-117750000D02*
X140000000Y-122110000D01*
X140000000Y-122110000D02*
X141000000Y-123110000D01*
X138000000Y-91500000D02*
X138000000Y-91250000D01*
X138000000Y-91250000D02*
X138500000Y-90750000D01*
X138500000Y-90750000D02*
X141000000Y-90750000D01*
X138000000Y-106750000D02*
X139360000Y-108110000D01*
X138000000Y-104750000D02*
X138000000Y-106750000D01*
X138000000Y-95750000D02*
X138000000Y-104750000D01*
X141000000Y-108110000D02*
X139360000Y-108110000D01*
X141000000Y-93110000D02*
X141000000Y-90750000D01*
X141000000Y-90750000D02*
X141000000Y-85250000D01*
X141000000Y-85250000D02*
X142500000Y-83750000D01*
X142500000Y-83750000D02*
X142500000Y-83000000D01*
X142500000Y-83000000D02*
X142500000Y-82750000D01*
X142500000Y-82750000D02*
X142000000Y-82250000D01*
X142000000Y-82250000D02*
X142000000Y-81750000D01*
X142000000Y-81750000D02*
X142250000Y-81500000D01*
X142250000Y-81500000D02*
X142250000Y-81250000D01*
X142250000Y-81250000D02*
X142500000Y-81000000D01*
X142500000Y-81000000D02*
X142500000Y-80250000D01*
X142500000Y-80250000D02*
X142000000Y-79750000D01*
X142000000Y-79750000D02*
X142000000Y-79000000D01*
X142000000Y-79000000D02*
X141110000Y-78110000D01*
X141110000Y-78110000D02*
X141000000Y-78110000D01*
X143500000Y-124370000D02*
X143500000Y-124750000D01*
X143500000Y-124750000D02*
X142250000Y-126000000D01*
X147000000Y-112870000D02*
X143500000Y-109370000D01*
X147000000Y-126000000D02*
X147000000Y-112870000D01*
X144250000Y-128750000D02*
X147000000Y-126000000D01*
X143000000Y-128750000D02*
X144250000Y-128750000D01*
X142500000Y-128250000D02*
X143000000Y-128750000D01*
X142500000Y-127750000D02*
X142500000Y-128250000D01*
X142000000Y-127250000D02*
X142500000Y-127750000D01*
X142000000Y-126750000D02*
X142000000Y-127250000D01*
X142250000Y-126500000D02*
X142000000Y-126750000D01*
X142250000Y-126000000D02*
X142250000Y-126500000D01*
X143500000Y-124370000D02*
X143500000Y-124000000D01*
X143500000Y-124000000D02*
X142250000Y-122750000D01*
X136380000Y-114000000D02*
X135000000Y-115380000D01*
X138000000Y-114000000D02*
X136380000Y-114000000D01*
X141750000Y-117750000D02*
X138000000Y-114000000D01*
X141750000Y-121750000D02*
X141750000Y-117750000D01*
X142250000Y-122250000D02*
X141750000Y-121750000D01*
X142250000Y-122750000D02*
X142250000Y-122250000D01*
X143500000Y-94370000D02*
X144120000Y-94370000D01*
X144120000Y-94370000D02*
X145500000Y-95750000D01*
X145500000Y-107370000D02*
X143500000Y-109370000D01*
X145500000Y-95750000D02*
X145500000Y-107370000D01*
X143500000Y-79370000D02*
X144370000Y-79370000D01*
X145500000Y-92370000D02*
X143500000Y-94370000D01*
X145500000Y-80500000D02*
X145500000Y-92370000D01*
X144370000Y-79370000D02*
X145500000Y-80500000D01*
X143500000Y-96889000D02*
X143500000Y-96500000D01*
X143500000Y-96500000D02*
X142250000Y-95250000D01*
X143500000Y-89250000D02*
X143500000Y-81889000D01*
X142000000Y-90750000D02*
X143500000Y-89250000D01*
X142000000Y-92250000D02*
X142000000Y-90750000D01*
X142500000Y-92750000D02*
X142000000Y-92250000D01*
X142500000Y-93500000D02*
X142500000Y-92750000D01*
X142000000Y-94000000D02*
X142500000Y-93500000D01*
X142000000Y-94500000D02*
X142000000Y-94000000D01*
X142250000Y-94750000D02*
X142000000Y-94500000D01*
X142250000Y-95250000D02*
X142250000Y-94750000D01*
X143500000Y-111889000D02*
X143500000Y-111500000D01*
X143500000Y-111500000D02*
X142250000Y-110250000D01*
X141750000Y-107000000D02*
X141750000Y-99750000D01*
X142500000Y-107750000D02*
X141750000Y-107000000D01*
X142500000Y-108250000D02*
X142500000Y-107750000D01*
X142250000Y-108500000D02*
X142500000Y-108250000D01*
X142250000Y-109000000D02*
X142250000Y-108500000D01*
X142000000Y-109250000D02*
X142250000Y-109000000D01*
X142000000Y-109500000D02*
X142000000Y-109250000D01*
X142250000Y-109750000D02*
X142000000Y-109500000D01*
X142250000Y-110250000D02*
X142250000Y-109750000D01*
X143500000Y-126889000D02*
X143500000Y-126750000D01*
X143500000Y-126750000D02*
X145250000Y-125000000D01*
X145250000Y-115250000D02*
X143500000Y-113500000D01*
X145250000Y-125000000D02*
X145250000Y-115250000D01*
X135285000Y-112875000D02*
X138875000Y-112875000D01*
X143500000Y-113500000D02*
X143500000Y-111889000D01*
X142000000Y-115000000D02*
X143500000Y-113500000D01*
X140250000Y-115000000D02*
X142000000Y-115000000D01*
X139500000Y-114000000D02*
X140250000Y-115000000D01*
X139500000Y-113500000D02*
X139500000Y-114000000D01*
X138875000Y-112875000D02*
X139500000Y-113500000D01*
X135000000Y-92520000D02*
X135770000Y-92520000D01*
X135770000Y-92520000D02*
X138000000Y-94750000D01*
X143500000Y-98000000D02*
X143500000Y-96889000D01*
X141750000Y-99750000D02*
X143500000Y-98000000D01*
X140250000Y-99750000D02*
X141750000Y-99750000D01*
X139250000Y-98750000D02*
X140250000Y-99750000D01*
X139250000Y-95500000D02*
X139250000Y-98750000D01*
X138500000Y-94750000D02*
X139250000Y-95500000D01*
X138000000Y-94750000D02*
X138500000Y-94750000D01*
X135000000Y-110300000D02*
X135050000Y-110300000D01*
X135050000Y-110300000D02*
X136500000Y-111750000D01*
X136500000Y-111750000D02*
X139880000Y-111750000D01*
X139880000Y-111750000D02*
X141000000Y-110630000D01*
X135000000Y-120460000D02*
X135830000Y-120460000D01*
X135830000Y-120460000D02*
X141000000Y-125630000D01*
X135000000Y-89980000D02*
X135230000Y-89980000D01*
X135230000Y-89980000D02*
X136750000Y-91500000D01*
X139370000Y-94000000D02*
X141000000Y-95630000D01*
X138750000Y-94000000D02*
X139370000Y-94000000D01*
X136750000Y-92000000D02*
X138750000Y-94000000D01*
X136750000Y-91500000D02*
X136750000Y-92000000D01*
X135000000Y-89980000D02*
X135000000Y-90000000D01*
X140630000Y-95630000D02*
X141000000Y-95630000D01*
X135000000Y-87440000D02*
X136810000Y-87440000D01*
X139870000Y-80630000D02*
X141000000Y-80630000D01*
X139250000Y-81250000D02*
X139870000Y-80630000D01*
X139250000Y-85000000D02*
X139250000Y-81250000D01*
X136810000Y-87440000D02*
X139250000Y-85000000D01*
M02*
