G04 #@! TF.FileFunction,Copper,L2,Bot,Signal*
%FSLAX46Y46*%
G04 Gerber Fmt 4.6, Leading zero omitted, Abs format (unit mm)*
G04 Created by KiCad (PCBNEW 4.0.7-e2-6376~61~ubuntu18.04.1) date Sat Jul 21 19:55:46 2018*
%MOMM*%
%LPD*%
G01*
G04 APERTURE LIST*
%ADD10C,0.100000*%
%ADD11C,1.524000*%
%ADD12C,3.500000*%
%ADD13R,1.700000X1.700000*%
%ADD14O,1.700000X1.700000*%
%ADD15R,0.750000X1.200000*%
%ADD16R,1.200000X0.750000*%
%ADD17R,2.000000X1.800000*%
%ADD18R,2.000000X1.700000*%
%ADD19C,1.000000*%
%ADD20C,0.400000*%
%ADD21C,0.500000*%
G04 APERTURE END LIST*
D10*
D11*
X-10500000Y-6850000D03*
X-13000000Y-8110000D03*
X-10500000Y-9370000D03*
X-13000000Y-10630000D03*
X-10500000Y-11889000D03*
X-13000000Y-13150000D03*
D12*
X-4000000Y-5000000D03*
X-4000000Y-15000000D03*
D13*
X-30750000Y-51500000D03*
D14*
X-33290000Y-51500000D03*
X-30750000Y-48960000D03*
X-33290000Y-48960000D03*
X-30750000Y-46420000D03*
X-33290000Y-46420000D03*
X-30750000Y-43880000D03*
X-33290000Y-43880000D03*
X-30750000Y-41340000D03*
X-33290000Y-41340000D03*
X-30750000Y-38800000D03*
X-33290000Y-38800000D03*
X-30750000Y-36260000D03*
X-33290000Y-36260000D03*
X-30750000Y-33720000D03*
X-33290000Y-33720000D03*
X-30750000Y-31180000D03*
X-33290000Y-31180000D03*
X-30750000Y-28640000D03*
X-33290000Y-28640000D03*
X-30750000Y-26100000D03*
X-33290000Y-26100000D03*
X-30750000Y-23560000D03*
X-33290000Y-23560000D03*
X-30750000Y-21020000D03*
X-33290000Y-21020000D03*
X-30750000Y-18480000D03*
X-33290000Y-18480000D03*
X-30750000Y-15940000D03*
X-33290000Y-15940000D03*
X-30750000Y-13400000D03*
X-33290000Y-13400000D03*
X-30750000Y-10860000D03*
X-33290000Y-10860000D03*
X-30750000Y-8320000D03*
X-33290000Y-8320000D03*
X-30750000Y-5780000D03*
X-33290000Y-5780000D03*
X-30750000Y-3240000D03*
X-33290000Y-3240000D03*
D11*
X-10500000Y-21850000D03*
X-13000000Y-23110000D03*
X-10500000Y-24370000D03*
X-13000000Y-25630000D03*
X-10500000Y-26889000D03*
X-13000000Y-28150000D03*
D12*
X-4000000Y-20000000D03*
X-4000000Y-30000000D03*
D11*
X-10500000Y-36850000D03*
X-13000000Y-38110000D03*
X-10500000Y-39370000D03*
X-13000000Y-40630000D03*
X-10500000Y-41889000D03*
X-13000000Y-43150000D03*
D12*
X-4000000Y-35000000D03*
X-4000000Y-45000000D03*
D11*
X-10500000Y-51850000D03*
X-13000000Y-53110000D03*
X-10500000Y-54370000D03*
X-13000000Y-55630000D03*
X-10500000Y-56889000D03*
X-13000000Y-58150000D03*
D12*
X-4000000Y-50000000D03*
X-4000000Y-60000000D03*
D15*
X-8000000Y-9800000D03*
X-8000000Y-11700000D03*
X-7696000Y-24422000D03*
X-7696000Y-22522000D03*
X-7620000Y-39690000D03*
X-7620000Y-41590000D03*
X-7500000Y-53550000D03*
X-7500000Y-55450000D03*
D16*
X-13700000Y-4000000D03*
X-11800000Y-4000000D03*
X-10200000Y-19250000D03*
X-8300000Y-19250000D03*
X-12634000Y-34544000D03*
X-10734000Y-34544000D03*
X-10200000Y-49250000D03*
X-8300000Y-49250000D03*
D17*
X-24400000Y-6000000D03*
X-27600000Y-6000000D03*
X-24400000Y-21000000D03*
X-27600000Y-21000000D03*
X-24400000Y-36000000D03*
X-27600000Y-36000000D03*
X-24400000Y-51000000D03*
X-27600000Y-51000000D03*
X-24400000Y-14000000D03*
X-27600000Y-14000000D03*
X-24400000Y-29000000D03*
X-27600000Y-29000000D03*
X-24400000Y-44000000D03*
X-27600000Y-44000000D03*
X-24400000Y-59000000D03*
X-27600000Y-59000000D03*
X-24400000Y-10000000D03*
X-27600000Y-10000000D03*
X-24400000Y-25000000D03*
X-27600000Y-25000000D03*
X-24400000Y-40000000D03*
X-27600000Y-40000000D03*
X-24400000Y-55000000D03*
X-27600000Y-55000000D03*
D18*
X-17000000Y-10000000D03*
X-21000000Y-10000000D03*
X-17000000Y-25000000D03*
X-21000000Y-25000000D03*
X-17000000Y-40000000D03*
X-21000000Y-40000000D03*
X-17000000Y-55000000D03*
X-21000000Y-55000000D03*
X-17000000Y-14000000D03*
X-21000000Y-14000000D03*
X-17000000Y-29000000D03*
X-21000000Y-29000000D03*
X-17000000Y-44000000D03*
X-21000000Y-44000000D03*
X-17000000Y-59000000D03*
X-21000000Y-59000000D03*
X-17000000Y-6000000D03*
X-21000000Y-6000000D03*
X-17000000Y-21000000D03*
X-21000000Y-21000000D03*
X-17000000Y-36000000D03*
X-21000000Y-36000000D03*
X-17000000Y-51000000D03*
X-21000000Y-51000000D03*
D19*
X-22860000Y-31750000D03*
X-22860000Y-17780000D03*
D20*
X-30750000Y-43880000D02*
X-30370000Y-43880000D01*
X-21000000Y-51000000D02*
X-21000000Y-49866000D01*
X-24446000Y-46420000D02*
X-27116000Y-46420000D01*
X-21000000Y-49866000D02*
X-24446000Y-46420000D01*
X-21000000Y-51000000D02*
X-21000000Y-52152000D01*
X-22758000Y-56642000D02*
X-24400000Y-55000000D01*
X-20066000Y-56642000D02*
X-22758000Y-56642000D01*
X-19304000Y-55880000D02*
X-20066000Y-56642000D01*
X-19304000Y-53848000D02*
X-19304000Y-55880000D01*
X-21000000Y-52152000D02*
X-19304000Y-53848000D01*
X-30750000Y-46420000D02*
X-27116000Y-46420000D01*
X-25908000Y-41508000D02*
X-24400000Y-40000000D01*
X-27116000Y-46420000D02*
X-25908000Y-45212000D01*
X-25908000Y-45212000D02*
X-25908000Y-41508000D01*
X-21000000Y-36000000D02*
X-21000000Y-37166000D01*
X-23114000Y-41910000D02*
X-24400000Y-40624000D01*
X-20066000Y-41910000D02*
X-23114000Y-41910000D01*
X-19304000Y-41148000D02*
X-20066000Y-41910000D01*
X-19304000Y-38862000D02*
X-19304000Y-41148000D01*
X-21000000Y-37166000D02*
X-19304000Y-38862000D01*
X-24400000Y-40624000D02*
X-24400000Y-40000000D01*
X-24400000Y-25000000D02*
X-24400000Y-25416000D01*
X-24400000Y-25416000D02*
X-25908000Y-26924000D01*
X-23622000Y-33378000D02*
X-21000000Y-36000000D01*
X-23622000Y-33020000D02*
X-23622000Y-33378000D01*
X-25908000Y-30734000D02*
X-23622000Y-33020000D01*
X-25908000Y-26924000D02*
X-25908000Y-30734000D01*
X-21000000Y-21000000D02*
X-21000000Y-21164000D01*
X-21000000Y-21164000D02*
X-19050000Y-23114000D01*
X-22476000Y-26924000D02*
X-24400000Y-25000000D01*
X-19812000Y-26924000D02*
X-22476000Y-26924000D01*
X-19050000Y-26162000D02*
X-19812000Y-26924000D01*
X-19050000Y-23114000D02*
X-19050000Y-26162000D01*
X-21000000Y-36000000D02*
X-21000000Y-36404000D01*
X-21000000Y-6000000D02*
X-20162000Y-6000000D01*
X-20162000Y-6000000D02*
X-19050000Y-7112000D01*
X-19050000Y-19050000D02*
X-21000000Y-21000000D01*
X-19050000Y-7112000D02*
X-19050000Y-19050000D01*
X-21000000Y-6000000D02*
X-20924000Y-6000000D01*
X-21000000Y-6000000D02*
X-21000000Y-5924000D01*
X-21000000Y-5924000D02*
X-22860000Y-4064000D01*
X-22860000Y-4064000D02*
X-25654000Y-4064000D01*
X-25654000Y-4064000D02*
X-25908000Y-4318000D01*
X-25908000Y-4318000D02*
X-25908000Y-8492000D01*
X-25908000Y-8492000D02*
X-24400000Y-10000000D01*
X-23900000Y-54250000D02*
X-23900000Y-54350000D01*
X-20000000Y-35750000D02*
X-20000000Y-36000000D01*
D21*
X-30750000Y-46420000D02*
X-30750000Y-46250000D01*
D20*
X-21000000Y-14000000D02*
X-21000000Y-15920000D01*
X-21000000Y-29890000D02*
X-21000000Y-29000000D01*
X-22860000Y-31750000D02*
X-21000000Y-29890000D01*
X-21000000Y-15920000D02*
X-22860000Y-17780000D01*
X-24400000Y-59000000D02*
X-24400000Y-59452000D01*
X-24400000Y-59452000D02*
X-25654000Y-60706000D01*
X-35814000Y-46404000D02*
X-33290000Y-43880000D01*
X-35814000Y-53848000D02*
X-35814000Y-46404000D01*
X-28956000Y-60706000D02*
X-35814000Y-53848000D01*
X-25654000Y-60706000D02*
X-28956000Y-60706000D01*
X-24400000Y-44000000D02*
X-23818000Y-44000000D01*
X-23818000Y-44000000D02*
X-18542000Y-49276000D01*
X-19630000Y-59000000D02*
X-21000000Y-59000000D01*
X-18542000Y-57912000D02*
X-19630000Y-59000000D01*
X-18542000Y-49276000D02*
X-18542000Y-57912000D01*
X-24400000Y-59000000D02*
X-21000000Y-59000000D01*
X-21000000Y-29000000D02*
X-21000000Y-31324000D01*
X-21000000Y-31324000D02*
X-18542000Y-33782000D01*
X-18542000Y-33782000D02*
X-18542000Y-42418000D01*
X-18542000Y-42418000D02*
X-20124000Y-44000000D01*
X-20124000Y-44000000D02*
X-21000000Y-44000000D01*
X-24400000Y-44000000D02*
X-21000000Y-44000000D01*
X-24400000Y-29000000D02*
X-21000000Y-29000000D01*
X-24400000Y-14000000D02*
X-21000000Y-14000000D01*
X-23900000Y-44900000D02*
X-23900000Y-43750000D01*
X-23650000Y-29500000D02*
X-23650000Y-28700000D01*
X-10500000Y-26889000D02*
X-10500000Y-34310000D01*
X-10500000Y-34310000D02*
X-10734000Y-34544000D01*
X-27600000Y-59000000D02*
X-27600000Y-55000000D01*
X-27600000Y-55000000D02*
X-27600000Y-51000000D01*
X-33290000Y-46420000D02*
X-33974000Y-46420000D01*
X-33974000Y-46420000D02*
X-35052000Y-47498000D01*
X-35052000Y-52324000D02*
X-28376000Y-59000000D01*
X-35052000Y-47498000D02*
X-35052000Y-52324000D01*
X-28376000Y-59000000D02*
X-27600000Y-59000000D01*
X-7620000Y-41590000D02*
X-6538000Y-41590000D01*
X-9398000Y-34544000D02*
X-10734000Y-34544000D01*
X-6096000Y-37846000D02*
X-9398000Y-34544000D01*
X-6096000Y-41148000D02*
X-6096000Y-37846000D01*
X-6538000Y-41590000D02*
X-6096000Y-41148000D01*
X-10500000Y-41889000D02*
X-7919000Y-41889000D01*
X-7919000Y-41889000D02*
X-7620000Y-41590000D01*
X-30750000Y-41340000D02*
X-28940000Y-41340000D01*
X-28940000Y-41340000D02*
X-27600000Y-40000000D01*
X-27600000Y-36000000D02*
X-27600000Y-40000000D01*
X-27600000Y-40000000D02*
X-27600000Y-44000000D01*
X-27600000Y-25000000D02*
X-27600000Y-21000000D01*
X-27600000Y-25000000D02*
X-27600000Y-29000000D01*
X-27600000Y-21000000D02*
X-30730000Y-21000000D01*
X-30730000Y-21000000D02*
X-30750000Y-21020000D01*
X-27600000Y-6000000D02*
X-27600000Y-1000000D01*
X-27432000Y-1016000D02*
X-27432000Y-1000000D01*
X-27584000Y-1016000D02*
X-27432000Y-1016000D01*
X-27600000Y-1000000D02*
X-27584000Y-1016000D01*
X-27600000Y-10000000D02*
X-27600000Y-14000000D01*
X-27600000Y-6000000D02*
X-27600000Y-10000000D01*
X-33290000Y-46420000D02*
X-33420000Y-46420000D01*
X-25250000Y-1000000D02*
X-27432000Y-1000000D01*
X-25250000Y-1000000D02*
X-13250000Y-1000000D01*
X-13250000Y-1000000D02*
X-11800000Y-2450000D01*
X-11800000Y-2450000D02*
X-11800000Y-4000000D01*
X-27432000Y-1000000D02*
X-34750000Y-1000000D01*
X-34750000Y-1000000D02*
X-35500000Y-2500000D01*
X-35500000Y-2500000D02*
X-35500000Y-9500000D01*
X-35500000Y-9500000D02*
X-34890000Y-10860000D01*
X-34890000Y-10860000D02*
X-33290000Y-10860000D01*
X-7500000Y-55450000D02*
X-6200000Y-55450000D01*
X-8300000Y-49700000D02*
X-8300000Y-49250000D01*
X-5750000Y-52250000D02*
X-8300000Y-49700000D01*
X-5750000Y-55000000D02*
X-5750000Y-52250000D01*
X-6200000Y-55450000D02*
X-5750000Y-55000000D01*
X-10500000Y-56889000D02*
X-8939000Y-56889000D01*
X-8939000Y-56889000D02*
X-7500000Y-55450000D01*
X-10500000Y-41889000D02*
X-10500000Y-42000000D01*
X-10500000Y-42000000D02*
X-8300000Y-44200000D01*
X-8300000Y-44200000D02*
X-8300000Y-49250000D01*
X-26850000Y-35500000D02*
X-27100000Y-35750000D01*
X-10500000Y-26889000D02*
X-7139000Y-26889000D01*
X-6478000Y-22522000D02*
X-7696000Y-22522000D01*
X-6000000Y-23000000D02*
X-6478000Y-22522000D01*
X-6000000Y-25750000D02*
X-6000000Y-23000000D01*
X-7139000Y-26889000D02*
X-6000000Y-25750000D01*
X-8300000Y-19250000D02*
X-8300000Y-21918000D01*
X-8300000Y-21918000D02*
X-7696000Y-22522000D01*
X-8000000Y-11700000D02*
X-8000000Y-18950000D01*
X-8000000Y-18950000D02*
X-8300000Y-19250000D01*
X-8000000Y-11700000D02*
X-10311000Y-11700000D01*
X-10311000Y-11700000D02*
X-10500000Y-11889000D01*
X-8000000Y-11700000D02*
X-6700000Y-11700000D01*
X-6700000Y-11700000D02*
X-6000000Y-11000000D01*
X-6000000Y-11000000D02*
X-6000000Y-7500000D01*
X-6000000Y-7500000D02*
X-9500000Y-4000000D01*
X-9500000Y-4000000D02*
X-11800000Y-4000000D01*
X-10500000Y-11889000D02*
X-10500000Y-11750000D01*
D21*
X-10500000Y-11889000D02*
X-10500000Y-11270000D01*
X-10500000Y-26889000D02*
X-10500000Y-26500000D01*
X-10500000Y-41889000D02*
X-10500000Y-41500000D01*
X-10500000Y-56889000D02*
X-10500000Y-56750000D01*
X-30750000Y-21020000D02*
X-29980000Y-21020000D01*
D20*
X-17000000Y-14000000D02*
X-14956000Y-14000000D01*
X-11684000Y-10554000D02*
X-10500000Y-9370000D01*
X-11684000Y-11430000D02*
X-11684000Y-10554000D01*
X-11938000Y-11684000D02*
X-11684000Y-11430000D01*
X-11938000Y-12446000D02*
X-11938000Y-11684000D01*
X-11430000Y-12954000D02*
X-11938000Y-12446000D01*
X-11430000Y-13970000D02*
X-11430000Y-12954000D01*
X-12446000Y-14986000D02*
X-11430000Y-13970000D01*
X-13970000Y-14986000D02*
X-12446000Y-14986000D01*
X-14956000Y-14000000D02*
X-13970000Y-14986000D01*
X-16250000Y-12750000D02*
X-16250000Y-13250000D01*
X-8000000Y-9800000D02*
X-10070000Y-9800000D01*
X-10070000Y-9800000D02*
X-10500000Y-9370000D01*
X-17000000Y-29000000D02*
X-15704000Y-29000000D01*
X-11938000Y-26416000D02*
X-10500000Y-24978000D01*
X-11938000Y-27432000D02*
X-11938000Y-26416000D01*
X-11430000Y-27940000D02*
X-11938000Y-27432000D01*
X-11430000Y-29210000D02*
X-11430000Y-27940000D01*
X-12192000Y-29972000D02*
X-11430000Y-29210000D01*
X-14732000Y-29972000D02*
X-12192000Y-29972000D01*
X-15704000Y-29000000D02*
X-14732000Y-29972000D01*
X-10500000Y-24978000D02*
X-10500000Y-24370000D01*
X-7696000Y-24422000D02*
X-10448000Y-24422000D01*
X-10448000Y-24422000D02*
X-10500000Y-24370000D01*
D21*
X-10500000Y-24370000D02*
X-9880000Y-24370000D01*
D20*
X-10500000Y-39370000D02*
X-7940000Y-39370000D01*
X-7940000Y-39370000D02*
X-7620000Y-39690000D01*
X-17000000Y-44000000D02*
X-14928000Y-44000000D01*
X-11938000Y-41402000D02*
X-10500000Y-39964000D01*
X-11938000Y-42418000D02*
X-11938000Y-41402000D01*
X-11430000Y-42926000D02*
X-11938000Y-42418000D01*
X-11430000Y-43942000D02*
X-11430000Y-42926000D01*
X-12192000Y-44704000D02*
X-11430000Y-43942000D01*
X-14224000Y-44704000D02*
X-12192000Y-44704000D01*
X-14928000Y-44000000D02*
X-14224000Y-44704000D01*
X-10500000Y-39964000D02*
X-10500000Y-39370000D01*
X-10500000Y-40000000D02*
X-10500000Y-39370000D01*
X-17000000Y-59000000D02*
X-14660000Y-59000000D01*
X-11938000Y-56388000D02*
X-10500000Y-54950000D01*
X-11938000Y-57404000D02*
X-11938000Y-56388000D01*
X-11430000Y-57912000D02*
X-11938000Y-57404000D01*
X-11430000Y-58674000D02*
X-11430000Y-57912000D01*
X-12446000Y-59690000D02*
X-11430000Y-58674000D01*
X-13970000Y-59690000D02*
X-12446000Y-59690000D01*
X-14660000Y-59000000D02*
X-13970000Y-59690000D01*
X-10500000Y-54950000D02*
X-10500000Y-54370000D01*
X-7500000Y-53550000D02*
X-9680000Y-53550000D01*
X-9680000Y-53550000D02*
X-10500000Y-54370000D01*
D21*
X-10500000Y-54370000D02*
X-10500000Y-54750000D01*
X-10500000Y-54370000D02*
X-10500000Y-54000000D01*
D20*
X-13700000Y-4000000D02*
X-13700000Y-7410000D01*
X-13700000Y-7410000D02*
X-13000000Y-8110000D01*
X-17000000Y-6000000D02*
X-17000000Y-5062000D01*
X-15938000Y-4000000D02*
X-13700000Y-4000000D01*
X-17000000Y-5062000D02*
X-15938000Y-4000000D01*
X-13868000Y-4168000D02*
X-13700000Y-4000000D01*
D21*
X-12890000Y-8110000D02*
X-13000000Y-8110000D01*
D20*
X-17000000Y-21000000D02*
X-15110000Y-21000000D01*
X-15110000Y-21000000D02*
X-13000000Y-23110000D01*
X-13000000Y-23110000D02*
X-13000000Y-19750000D01*
X-12500000Y-19250000D02*
X-10200000Y-19250000D01*
X-13000000Y-19750000D02*
X-12500000Y-19250000D01*
X-17000000Y-36000000D02*
X-14090000Y-36000000D01*
X-14090000Y-36000000D02*
X-12634000Y-34544000D01*
X-17000000Y-36000000D02*
X-15110000Y-36000000D01*
X-15110000Y-36000000D02*
X-13000000Y-38110000D01*
X-16000000Y-51000000D02*
X-15110000Y-51000000D01*
X-15110000Y-51000000D02*
X-13000000Y-53110000D01*
X-10200000Y-49250000D02*
X-14250000Y-49250000D01*
X-14250000Y-49250000D02*
X-16000000Y-51000000D01*
X-21000000Y-10000000D02*
X-21000000Y-10332000D01*
X-21000000Y-10332000D02*
X-22606000Y-11938000D01*
X-26608000Y-15940000D02*
X-30750000Y-15940000D01*
X-25908000Y-15240000D02*
X-26608000Y-15940000D01*
X-25908000Y-12446000D02*
X-25908000Y-15240000D01*
X-25400000Y-11938000D02*
X-25908000Y-12446000D01*
X-22606000Y-11938000D02*
X-25400000Y-11938000D01*
X-24400000Y-6000000D02*
X-24400000Y-6600000D01*
X-24400000Y-6600000D02*
X-21000000Y-10000000D01*
X-30690000Y-16000000D02*
X-30750000Y-15940000D01*
X-24400000Y-21000000D02*
X-24400000Y-20304000D01*
X-24400000Y-20304000D02*
X-26224000Y-18480000D01*
X-26224000Y-18480000D02*
X-30750000Y-18480000D01*
X-24400000Y-21000000D02*
X-24400000Y-21600000D01*
X-24400000Y-21600000D02*
X-21000000Y-25000000D01*
D21*
X-30750000Y-18480000D02*
X-30520000Y-18480000D01*
X-30750000Y-18480000D02*
X-30750000Y-18500000D01*
D20*
X-24400000Y-36000000D02*
X-24400000Y-36600000D01*
X-24400000Y-36600000D02*
X-21000000Y-40000000D01*
X-24400000Y-36000000D02*
X-24400000Y-35290000D01*
X-24400000Y-35290000D02*
X-25654000Y-34036000D01*
X-25654000Y-34036000D02*
X-28448000Y-34036000D01*
X-28448000Y-34036000D02*
X-29210000Y-34798000D01*
X-29210000Y-34798000D02*
X-29210000Y-37260000D01*
X-29210000Y-37260000D02*
X-30750000Y-38800000D01*
X-23900000Y-35750000D02*
X-23900000Y-35850000D01*
X-30750000Y-38800000D02*
X-30050000Y-38800000D01*
D21*
X-30750000Y-38800000D02*
X-30700000Y-38800000D01*
D20*
X-24400000Y-51000000D02*
X-24400000Y-51600000D01*
X-24400000Y-51600000D02*
X-21000000Y-55000000D01*
X-23900000Y-50750000D02*
X-23900000Y-49600000D01*
X-24540000Y-48960000D02*
X-30750000Y-48960000D01*
X-23900000Y-49600000D02*
X-24540000Y-48960000D01*
X-20250000Y-54500000D02*
X-20250000Y-54400000D01*
D21*
X-30750000Y-48960000D02*
X-29920000Y-48960000D01*
D20*
X-17000000Y-10000000D02*
X-13630000Y-10000000D01*
X-13630000Y-10000000D02*
X-13000000Y-10630000D01*
X-17000000Y-25000000D02*
X-13630000Y-25000000D01*
X-13630000Y-25000000D02*
X-13000000Y-25630000D01*
X-13130000Y-25500000D02*
X-13000000Y-25630000D01*
D21*
X-13370000Y-25630000D02*
X-13000000Y-25630000D01*
D20*
X-17000000Y-40000000D02*
X-13630000Y-40000000D01*
X-13630000Y-40000000D02*
X-13000000Y-40630000D01*
X-17000000Y-55000000D02*
X-13630000Y-55000000D01*
X-13630000Y-55000000D02*
X-13000000Y-55630000D01*
M02*
