M48
;DRILL file {KiCad 4.0.7-e2-6376~60~ubuntu17.10.1} date Thu Jun 21 21:51:24 2018
;FORMAT={-:-/ absolute / metric / decimal}
FMAT,2
METRIC,TZ
T1C0.400
T2C0.762
T3C1.000
%
G90
G05
M71
T1
X137.5Y-110.75
X137.5Y-115.5
X138.Y-91.5
X138.Y-95.75
T2
X141.Y-78.11
X141.Y-80.63
X141.Y-83.15
X141.Y-93.11
X141.Y-95.63
X141.Y-98.15
X141.Y-108.11
X141.Y-110.63
X141.Y-113.15
X141.Y-123.11
X141.Y-125.63
X141.Y-128.15
X143.5Y-76.85
X143.5Y-79.37
X143.5Y-81.889
X143.5Y-91.85
X143.5Y-94.37
X143.5Y-96.889
X143.5Y-106.85
X143.5Y-109.37
X143.5Y-111.889
X143.5Y-121.85
X143.5Y-124.37
X143.5Y-126.889
T3
X132.46Y-74.74
X132.46Y-77.28
X132.46Y-79.82
X132.46Y-82.36
X132.46Y-84.9
X132.46Y-87.44
X132.46Y-89.98
X132.46Y-92.52
X132.46Y-95.06
X132.46Y-97.6
X132.46Y-100.14
X132.46Y-102.68
X132.46Y-105.22
X132.46Y-107.76
X132.46Y-110.3
X132.46Y-112.84
X132.46Y-115.38
X132.46Y-117.92
X132.46Y-120.46
X132.46Y-123.
X135.Y-74.74
X135.Y-77.28
X135.Y-79.82
X135.Y-82.36
X135.Y-84.9
X135.Y-87.44
X135.Y-89.98
X135.Y-92.52
X135.Y-95.06
X135.Y-97.6
X135.Y-100.14
X135.Y-102.68
X135.Y-105.22
X135.Y-107.76
X135.Y-110.3
X135.Y-112.84
X135.Y-115.38
X135.Y-117.92
X135.Y-120.46
X135.Y-123.
T0
M30
