M48
;DRILL file {KiCad 4.0.7-e2-6376~60~ubuntu17.10.1} date Sat Jun 23 21:47:23 2018
;FORMAT={-:-/ absolute / metric / decimal}
FMAT,2
METRIC,TZ
T1C0.400
T2C0.762
T3C0.800
T4C0.900
T5C1.000
T6C1.400
%
G90
G05
M71
T1
X56.25Y-50.75
X57.5Y-33.
X61.25Y-33.
X66.5Y-63.5
T2
X58.1Y-27.75
X59.36Y-30.25
X60.62Y-27.75
X61.88Y-30.25
X63.139Y-27.75
X64.4Y-30.25
T3
X30.5Y-79.
X30.5Y-85.
X33.Y-79.
X33.Y-85.
X35.5Y-79.
X35.5Y-85.
X44.Y-77.25
X44.Y-83.25
X46.5Y-77.25
X46.5Y-83.25
X49.Y-77.25
X49.Y-83.25
X51.22Y-54.
X51.22Y-61.62
X53.75Y-65.75
X53.76Y-54.
X53.76Y-61.62
X56.29Y-65.75
X56.3Y-54.
X56.3Y-61.62
X56.75Y-77.5
X56.75Y-83.5
X58.83Y-65.75
X58.84Y-54.
X58.84Y-61.62
X59.25Y-77.5
X59.25Y-83.5
X61.37Y-65.75
X61.38Y-54.
X61.38Y-61.62
X61.75Y-77.5
X61.75Y-83.5
X63.91Y-65.75
X63.92Y-54.
X63.92Y-61.62
X66.45Y-65.75
X66.46Y-54.
X66.46Y-61.62
X68.75Y-77.5
X68.75Y-83.5
X69.Y-54.
X69.Y-61.62
X70.5Y-66.
X71.25Y-77.5
X71.25Y-83.5
X73.75Y-77.5
X73.75Y-83.5
X74.5Y-44.71
X74.5Y-47.25
X75.5Y-66.
X94.Y-78.5
X94.Y-84.5
X96.5Y-78.5
X96.5Y-84.5
X99.Y-78.5
X99.Y-84.5
T4
X66.42Y-51.
X71.5Y-51.
T5
X44.25Y-41.25
X59.25Y-41.25
T6
X64.25Y-41.25
X74.41Y-41.25
T0
M30
