M48
;DRILL file {KiCad 4.0.7-e2-6376~61~ubuntu18.04.1} date Mon Jul 16 18:25:32 2018
;FORMAT={-:-/ absolute / metric / decimal}
FMAT,2
METRIC,TZ
T1C0.400
T2C0.762
T3C0.800
T4C1.400
T5C3.100
%
G90
G05
M71
T1
X-76.Y-32.75
X-72.25Y-7.
X-72.25Y-11.75
X-70.25Y-30.5
X-65.Y-29.
X-63.Y-30.5
T2
X-63.15Y-12.5
X-61.89Y-15.
X-60.63Y-12.5
X-59.37Y-15.
X-58.111Y-12.5
X-56.85Y-15.
T3
X-112.5Y-37.
X-112.5Y-43.
X-110.Y-37.
X-110.Y-43.
X-107.5Y-37.
X-107.5Y-43.
X-88.25Y-15.25
X-88.25Y-17.79
X-88.25Y-20.33
X-88.25Y-22.87
X-88.25Y-25.41
X-88.25Y-27.95
X-88.25Y-30.49
X-88.25Y-33.03
X-87.5Y-37.
X-87.5Y-43.
X-85.Y-37.
X-85.Y-43.
X-82.5Y-37.
X-82.5Y-43.
X-80.63Y-15.25
X-80.63Y-17.79
X-80.63Y-20.33
X-80.63Y-22.87
X-80.63Y-25.41
X-80.63Y-27.95
X-80.63Y-30.49
X-80.63Y-33.03
X-72.75Y-17.8
X-72.75Y-20.34
X-72.75Y-22.88
X-72.75Y-25.42
X-72.75Y-27.96
X-72.75Y-30.5
X-62.5Y-37.
X-62.5Y-43.
X-60.Y-37.
X-60.Y-43.
X-57.5Y-37.
X-57.5Y-43.
X-37.5Y-37.
X-37.5Y-43.
X-35.Y-37.
X-35.Y-43.
X-32.5Y-37.
X-32.5Y-43.
X-12.5Y-37.
X-12.5Y-43.
X-10.Y-37.
X-10.Y-43.
X-7.5Y-37.
X-7.5Y-43.
T4
X-60.Y-21.5
X-49.84Y-21.5
T5
X-65.Y-6.
X-55.Y-6.
T0
M30
