G04 #@! TF.FileFunction,Copper,L2,Bot,Signal*
%FSLAX46Y46*%
G04 Gerber Fmt 4.6, Leading zero omitted, Abs format (unit mm)*
G04 Created by KiCad (PCBNEW 4.0.7-e2-6376~60~ubuntu17.10.1) date Sat Jun 23 21:47:35 2018*
%MOMM*%
%LPD*%
G01*
G04 APERTURE LIST*
%ADD10C,0.100000*%
%ADD11C,1.600000*%
%ADD12R,2.000000X2.000000*%
%ADD13O,2.000000X2.000000*%
%ADD14R,1.800000X1.800000*%
%ADD15O,1.800000X1.800000*%
%ADD16C,1.524000*%
%ADD17C,3.500000*%
%ADD18O,1.600000X1.600000*%
%ADD19R,1.600000X1.600000*%
%ADD20C,1.500000*%
%ADD21R,2.800000X2.800000*%
%ADD22O,2.800000X2.800000*%
%ADD23C,0.600000*%
%ADD24C,0.400000*%
G04 APERTURE END LIST*
D10*
D11*
X75500000Y-66000000D03*
X70500000Y-66000000D03*
D12*
X44250000Y-41250000D03*
D13*
X59250000Y-41250000D03*
D14*
X71500000Y-51000000D03*
D15*
X66420000Y-51000000D03*
D16*
X58100000Y-27750000D03*
X59360000Y-30250000D03*
X60620000Y-27750000D03*
X61880000Y-30250000D03*
X63139000Y-27750000D03*
X64400000Y-30250000D03*
D17*
X56250000Y-21250000D03*
X66250000Y-21250000D03*
D11*
X74500000Y-47250000D03*
D18*
X74500000Y-44710000D03*
D19*
X53750000Y-65750000D03*
D18*
X56290000Y-65750000D03*
X58830000Y-65750000D03*
X61370000Y-65750000D03*
X63910000Y-65750000D03*
X66450000Y-65750000D03*
D20*
X35500000Y-79000000D03*
X33000000Y-79000000D03*
X30500000Y-79000000D03*
X30500000Y-85000000D03*
X33000000Y-85000000D03*
X35500000Y-85000000D03*
X49000000Y-77250000D03*
X46500000Y-77250000D03*
X44000000Y-77250000D03*
X44000000Y-83250000D03*
X46500000Y-83250000D03*
X49000000Y-83250000D03*
X61750000Y-77500000D03*
X59250000Y-77500000D03*
X56750000Y-77500000D03*
X56750000Y-83500000D03*
X59250000Y-83500000D03*
X61750000Y-83500000D03*
X73750000Y-77500000D03*
X71250000Y-77500000D03*
X68750000Y-77500000D03*
X68750000Y-83500000D03*
X71250000Y-83500000D03*
X73750000Y-83500000D03*
X99000000Y-78500000D03*
X96500000Y-78500000D03*
X94000000Y-78500000D03*
X94000000Y-84500000D03*
X96500000Y-84500000D03*
X99000000Y-84500000D03*
D19*
X69000000Y-54000000D03*
D18*
X51220000Y-61620000D03*
X66460000Y-54000000D03*
X53760000Y-61620000D03*
X63920000Y-54000000D03*
X56300000Y-61620000D03*
X61380000Y-54000000D03*
X58840000Y-61620000D03*
X58840000Y-54000000D03*
X61380000Y-61620000D03*
X56300000Y-54000000D03*
X63920000Y-61620000D03*
X53760000Y-54000000D03*
X66460000Y-61620000D03*
X51220000Y-54000000D03*
X69000000Y-61620000D03*
D21*
X64250000Y-41250000D03*
D22*
X74410000Y-41250000D03*
D23*
X57500000Y-33000000D03*
X61250000Y-33000000D03*
X66500000Y-63500000D03*
X56250000Y-50750000D03*
D24*
X63920000Y-54000000D02*
X63920000Y-56540000D01*
X63920000Y-56540000D02*
X69000000Y-61620000D01*
X71500000Y-51000000D02*
X71500000Y-50250000D01*
X71500000Y-50250000D02*
X74500000Y-47250000D01*
X71500000Y-51000000D02*
X71500000Y-59120000D01*
X71500000Y-59120000D02*
X69000000Y-61620000D01*
X75500000Y-66000000D02*
X89500000Y-66000000D01*
X39000000Y-65750000D02*
X53750000Y-65750000D01*
X25500000Y-79250000D02*
X39000000Y-65750000D01*
X25500000Y-84250000D02*
X25500000Y-79250000D01*
X30500000Y-89250000D02*
X25500000Y-84250000D01*
X99000000Y-89250000D02*
X30500000Y-89250000D01*
X102250000Y-86000000D02*
X99000000Y-89250000D01*
X102250000Y-78750000D02*
X102250000Y-86000000D01*
X89500000Y-66000000D02*
X102250000Y-78750000D01*
X53760000Y-61620000D02*
X53760000Y-61510000D01*
X53760000Y-61510000D02*
X44250000Y-52000000D01*
X44250000Y-52000000D02*
X44250000Y-41250000D01*
X53760000Y-61620000D02*
X53760000Y-61010000D01*
X53750000Y-65750000D02*
X53750000Y-61630000D01*
X53750000Y-61630000D02*
X53760000Y-61620000D01*
X71500000Y-51000000D02*
X71500000Y-51500000D01*
X71000000Y-50500000D02*
X71500000Y-51000000D01*
X69000000Y-61620000D02*
X71120000Y-61620000D01*
X71120000Y-61620000D02*
X75500000Y-66000000D01*
X58840000Y-54000000D02*
X58840000Y-41660000D01*
X58840000Y-41660000D02*
X59250000Y-41250000D01*
X66460000Y-61620000D02*
X66460000Y-60460000D01*
X61380000Y-55380000D02*
X61380000Y-54000000D01*
X66460000Y-60460000D02*
X61380000Y-55380000D01*
X51220000Y-54000000D02*
X51220000Y-53530000D01*
X61380000Y-54000000D02*
X58840000Y-54000000D01*
X59250000Y-53590000D02*
X58840000Y-54000000D01*
X61380000Y-54000000D02*
X61380000Y-54380000D01*
X51220000Y-54000000D02*
X51220000Y-51530000D01*
X59250000Y-43500000D02*
X59250000Y-41250000D01*
X51220000Y-51530000D02*
X59250000Y-43500000D01*
X33000000Y-79000000D02*
X33000000Y-80250000D01*
X43250000Y-81250000D02*
X46500000Y-78000000D01*
X34000000Y-81250000D02*
X43250000Y-81250000D01*
X33000000Y-80250000D02*
X34000000Y-81250000D01*
X46500000Y-78000000D02*
X46500000Y-77250000D01*
X59250000Y-77500000D02*
X59250000Y-79000000D01*
X59250000Y-79000000D02*
X58000000Y-80250000D01*
X46500000Y-79000000D02*
X46500000Y-77250000D01*
X47750000Y-80250000D02*
X46500000Y-79000000D01*
X58000000Y-80250000D02*
X47750000Y-80250000D01*
X68250000Y-80500000D02*
X71250000Y-77500000D01*
X60750000Y-80500000D02*
X68250000Y-80500000D01*
X59250000Y-79000000D02*
X60750000Y-80500000D01*
X96500000Y-78500000D02*
X96500000Y-80000000D01*
X74500000Y-80750000D02*
X71250000Y-77500000D01*
X95750000Y-80750000D02*
X74500000Y-80750000D01*
X96500000Y-80000000D02*
X95750000Y-80750000D01*
X96500000Y-78500000D02*
X89750000Y-71750000D01*
X76250000Y-71750000D02*
X70500000Y-66000000D01*
X89750000Y-71750000D02*
X76250000Y-71750000D01*
X51220000Y-53280000D02*
X51220000Y-54000000D01*
X70500000Y-66000000D02*
X70500000Y-65660000D01*
X70500000Y-65660000D02*
X66460000Y-61620000D01*
X59250000Y-41250000D02*
X64250000Y-41250000D01*
X63139000Y-27750000D02*
X63139000Y-27589002D01*
X63139000Y-27589002D02*
X61799998Y-26250000D01*
X59250000Y-37000000D02*
X59250000Y-41250000D01*
X55500000Y-33250000D02*
X59250000Y-37000000D01*
X55500000Y-27500000D02*
X55500000Y-33250000D01*
X56750000Y-26250000D02*
X55500000Y-27500000D01*
X61799998Y-26250000D02*
X56750000Y-26250000D01*
X74410000Y-41250000D02*
X74410000Y-44620000D01*
X74410000Y-44620000D02*
X74500000Y-44710000D01*
X59360000Y-30250000D02*
X59360000Y-33860000D01*
X67500000Y-49170000D02*
X66420000Y-51000000D01*
X67500000Y-40500000D02*
X67500000Y-49170000D01*
X66000000Y-39000000D02*
X67500000Y-40500000D01*
X64500000Y-39000000D02*
X66000000Y-39000000D01*
X59360000Y-33860000D02*
X64500000Y-39000000D01*
X66460000Y-54000000D02*
X66460000Y-51040000D01*
X66460000Y-51040000D02*
X66420000Y-51000000D01*
X69000000Y-54000000D02*
X69000000Y-39750000D01*
X58500000Y-29250000D02*
X60000000Y-27750000D01*
X58000000Y-29250000D02*
X58500000Y-29250000D01*
X57000000Y-30250000D02*
X58000000Y-29250000D01*
X57000000Y-32500000D02*
X57000000Y-30250000D01*
X57500000Y-33000000D02*
X57000000Y-32500000D01*
X62250000Y-33000000D02*
X61250000Y-33000000D01*
X69000000Y-39750000D02*
X62250000Y-33000000D01*
X60000000Y-27750000D02*
X60620000Y-27750000D01*
X51220000Y-61620000D02*
X49620000Y-61620000D01*
X64130000Y-32500000D02*
X61880000Y-30250000D01*
X65500000Y-32500000D02*
X64130000Y-32500000D01*
X66750000Y-31250000D02*
X65500000Y-32500000D01*
X66750000Y-27500000D02*
X66750000Y-31250000D01*
X64750000Y-25500000D02*
X66750000Y-27500000D01*
X53500000Y-25500000D02*
X64750000Y-25500000D01*
X41000000Y-38000000D02*
X53500000Y-25500000D01*
X41000000Y-53000000D02*
X41000000Y-38000000D01*
X49620000Y-61620000D02*
X41000000Y-53000000D01*
X30500000Y-79000000D02*
X30500000Y-77750000D01*
X56290000Y-67710000D02*
X56290000Y-65750000D01*
X55250000Y-68750000D02*
X56290000Y-67710000D01*
X39500000Y-68750000D02*
X55250000Y-68750000D01*
X30500000Y-77750000D02*
X39500000Y-68750000D01*
X56290000Y-65750000D02*
X56290000Y-61630000D01*
X56290000Y-61630000D02*
X56300000Y-61620000D01*
X44000000Y-77250000D02*
X44000000Y-76000000D01*
X58830000Y-67670000D02*
X58830000Y-65750000D01*
X56250000Y-70250000D02*
X58830000Y-67670000D01*
X49750000Y-70250000D02*
X56250000Y-70250000D01*
X44000000Y-76000000D02*
X49750000Y-70250000D01*
X58830000Y-65750000D02*
X58830000Y-61630000D01*
X58830000Y-61630000D02*
X58840000Y-61620000D01*
X56750000Y-77500000D02*
X56750000Y-72000000D01*
X61370000Y-67380000D02*
X61370000Y-65750000D01*
X56750000Y-72000000D02*
X61370000Y-67380000D01*
X61370000Y-65750000D02*
X61370000Y-61630000D01*
X61370000Y-61630000D02*
X61380000Y-61620000D01*
X68750000Y-77500000D02*
X68750000Y-72250000D01*
X63910000Y-67410000D02*
X63910000Y-65750000D01*
X68750000Y-72250000D02*
X63910000Y-67410000D01*
X63910000Y-65750000D02*
X63910000Y-61630000D01*
X63910000Y-61630000D02*
X63920000Y-61620000D01*
X56300000Y-54000000D02*
X56300000Y-50800000D01*
X66450000Y-63550000D02*
X66450000Y-65750000D01*
X66500000Y-63500000D02*
X66450000Y-63550000D01*
X56300000Y-50800000D02*
X56250000Y-50750000D01*
X66450000Y-65750000D02*
X66450000Y-67700000D01*
X90000000Y-74500000D02*
X94000000Y-78500000D01*
X73250000Y-74500000D02*
X90000000Y-74500000D01*
X66450000Y-67700000D02*
X73250000Y-74500000D01*
M02*
