M48
;DRILL file {KiCad 4.0.7-e2-6376~61~ubuntu18.04.1} date Mon Jul 16 09:24:51 2018
;FORMAT={-:-/ absolute / metric / decimal}
FMAT,2
METRIC,TZ
T1C0.400
T2C0.762
T3C0.800
T4C1.400
%
G90
G05
M71
T1
X84.Y-92.75
X87.75Y-67.
X87.75Y-71.75
X89.75Y-90.5
X95.Y-89.
X97.Y-90.5
T2
X96.85Y-72.5
X98.11Y-75.
X99.37Y-72.5
X100.63Y-75.
X101.889Y-72.5
X103.15Y-75.
T3
X47.5Y-97.
X47.5Y-103.
X50.Y-97.
X50.Y-103.
X52.5Y-97.
X52.5Y-103.
X71.75Y-75.25
X71.75Y-77.79
X71.75Y-80.33
X71.75Y-82.87
X71.75Y-85.41
X71.75Y-87.95
X71.75Y-90.49
X71.75Y-93.03
X72.5Y-97.
X72.5Y-103.
X75.Y-97.
X75.Y-103.
X77.5Y-97.
X77.5Y-103.
X79.37Y-75.25
X79.37Y-77.79
X79.37Y-80.33
X79.37Y-82.87
X79.37Y-85.41
X79.37Y-87.95
X79.37Y-90.49
X79.37Y-93.03
X87.25Y-77.8
X87.25Y-80.34
X87.25Y-82.88
X87.25Y-85.42
X87.25Y-87.96
X87.25Y-90.5
X97.5Y-97.
X97.5Y-103.
X100.Y-97.
X100.Y-103.
X102.5Y-97.
X102.5Y-103.
X122.5Y-97.
X122.5Y-103.
X125.Y-97.
X125.Y-103.
X127.5Y-97.
X127.5Y-103.
X147.5Y-97.
X147.5Y-103.
X150.Y-97.
X150.Y-103.
X152.5Y-97.
X152.5Y-103.
T4
X100.Y-81.5
X110.16Y-81.5
T0
M30
