M48
;DRILL file {KiCad (5.0.0-3-g5ebb6b6)} date Thursday, September 13, 2018 at 10:32:08 AM
;FORMAT={-:-/ absolute / inch / decimal}
FMAT,2
INCH,TZ
T1C0.0300
T2C0.0315
T3C0.0551
T4C0.1220
T5C0.1260
%
G90
G05
M72
T1
X-2.2862Y0.4921
X-2.2366Y0.5906
X-2.187Y0.4921
X-2.1374Y0.5906
X-2.0878Y0.4921
X-2.0382Y0.5906
T2
X-1.2764Y1.6929
X-1.2764Y1.4567
X-1.178Y1.6929
X-1.178Y1.4567
X-1.0795Y1.6929
X-1.0795Y1.4567
X-2.6642Y1.1988
X-2.6642Y1.0988
X-2.6642Y0.9988
X-2.6642Y0.8988
X-2.6642Y0.7988
X-2.6642Y0.6988
X-2.2606Y1.6929
X-2.2606Y1.4567
X-2.1622Y1.6929
X-2.1622Y1.4567
X-2.0638Y1.6929
X-2.0638Y1.4567
X-0.2921Y1.6929
X-0.2921Y1.4567
X-0.1937Y1.6929
X-0.1937Y1.4567
X-0.0953Y1.6929
X-0.0953Y1.4567
X-4.2291Y1.6929
X-4.2291Y1.4567
X-4.1307Y1.6929
X-4.1307Y1.4567
X-4.0323Y1.6929
X-4.0323Y1.4567
X-3.2449Y1.6929
X-3.2449Y1.4567
X-3.1465Y1.6929
X-3.1465Y1.4567
X-3.048Y1.6929
X-3.048Y1.4567
X-3.2744Y1.3004
X-3.2744Y1.2004
X-3.2744Y1.1004
X-3.2744Y1.0004
X-3.2744Y0.9004
X-3.2744Y0.8004
X-3.2744Y0.7004
X-3.2744Y0.6004
X-2.9744Y1.3004
X-2.9744Y1.2004
X-2.9744Y1.1004
X-2.9744Y1.0004
X-2.9744Y0.9004
X-2.9744Y0.8004
X-2.9744Y0.7004
X-2.9744Y0.6004
T3
X-2.1622Y0.8465
X-1.7622Y0.8465
T4
X-2.3591Y0.2362
X-1.9654Y0.2362
T5
X-0.6858Y1.1811
X-3.6386Y1.1811
T0
M30
