G04 #@! TF.GenerationSoftware,KiCad,Pcbnew,(5.0.0-3-g5ebb6b6)*
G04 #@! TF.CreationDate,2018-09-13T10:32:13-05:00*
G04 #@! TF.ProjectId,Timer,54696D65722E6B696361645F70636200,rev?*
G04 #@! TF.SameCoordinates,PX93be440PYab8df80*
G04 #@! TF.FileFunction,Copper,L2,Bot,Signal*
G04 #@! TF.FilePolarity,Positive*
%FSLAX46Y46*%
G04 Gerber Fmt 4.6, Leading zero omitted, Abs format (unit mm)*
G04 Created by KiCad (PCBNEW (5.0.0-3-g5ebb6b6)) date Thursday, September 13, 2018 at 10:32:13 AM*
%MOMM*%
%LPD*%
G01*
G04 APERTURE LIST*
G04 #@! TA.AperFunction,WasherPad*
%ADD10C,3.500000*%
G04 #@! TD*
G04 #@! TA.AperFunction,ComponentPad*
%ADD11C,1.524000*%
G04 #@! TD*
G04 #@! TA.AperFunction,ComponentPad*
%ADD12O,1.600000X1.600000*%
G04 #@! TD*
G04 #@! TA.AperFunction,ComponentPad*
%ADD13R,1.600000X1.600000*%
G04 #@! TD*
G04 #@! TA.AperFunction,ComponentPad*
%ADD14C,1.500000*%
G04 #@! TD*
G04 #@! TA.AperFunction,ComponentPad*
%ADD15O,2.800000X2.800000*%
G04 #@! TD*
G04 #@! TA.AperFunction,ComponentPad*
%ADD16R,2.800000X2.800000*%
G04 #@! TD*
G04 APERTURE END LIST*
D10*
G04 #@! TO.P,CN1,*
G04 #@! TO.N,*
X-49920000Y6000000D03*
X-59920000Y6000000D03*
D11*
G04 #@! TO.P,CN1,6*
G04 #@! TO.N,N/C*
X-51770000Y15000000D03*
G04 #@! TO.P,CN1,5*
G04 #@! TO.N,GND*
X-53031000Y12500000D03*
G04 #@! TO.P,CN1,4*
G04 #@! TO.N,Net-(C3-Pad1)*
X-54290000Y15000000D03*
G04 #@! TO.P,CN1,3*
G04 #@! TO.N,Net-(CN1-Pad3)*
X-55550000Y12500000D03*
G04 #@! TO.P,CN1,2*
G04 #@! TO.N,Net-(CN1-Pad2)*
X-56810000Y15000000D03*
G04 #@! TO.P,CN1,1*
G04 #@! TO.N,N/C*
X-58070000Y12500000D03*
G04 #@! TD*
D12*
G04 #@! TO.P,RN1,6*
G04 #@! TO.N,N/C*
X-67670000Y30450000D03*
G04 #@! TO.P,RN1,5*
G04 #@! TO.N,Net-(RN1-Pad5)*
X-67670000Y27910000D03*
G04 #@! TO.P,RN1,4*
G04 #@! TO.N,Net-(RN1-Pad4)*
X-67670000Y25370000D03*
G04 #@! TO.P,RN1,3*
G04 #@! TO.N,Net-(RN1-Pad3)*
X-67670000Y22830000D03*
G04 #@! TO.P,RN1,2*
G04 #@! TO.N,Net-(RN1-Pad2)*
X-67670000Y20290000D03*
D13*
G04 #@! TO.P,RN1,1*
G04 #@! TO.N,+3V3*
X-67670000Y17750000D03*
G04 #@! TD*
D14*
G04 #@! TO.P,S5,4*
G04 #@! TO.N,N/C*
X-102420000Y43000000D03*
G04 #@! TO.P,S5,5*
X-104920000Y43000000D03*
G04 #@! TO.P,S5,6*
X-107420000Y43000000D03*
G04 #@! TO.P,S5,1*
G04 #@! TO.N,Net-(R6-Pad2)*
X-107420000Y37000000D03*
G04 #@! TO.P,S5,2*
G04 #@! TO.N,GND*
X-104920000Y37000000D03*
G04 #@! TO.P,S5,3*
G04 #@! TO.N,N/C*
X-102420000Y37000000D03*
G04 #@! TD*
G04 #@! TO.P,S1,4*
G04 #@! TO.N,N/C*
X-77420000Y43000000D03*
G04 #@! TO.P,S1,5*
X-79920000Y43000000D03*
G04 #@! TO.P,S1,6*
X-82420000Y43000000D03*
G04 #@! TO.P,S1,1*
G04 #@! TO.N,Net-(RN1-Pad5)*
X-82420000Y37000000D03*
G04 #@! TO.P,S1,2*
G04 #@! TO.N,GND*
X-79920000Y37000000D03*
G04 #@! TO.P,S1,3*
G04 #@! TO.N,N/C*
X-77420000Y37000000D03*
G04 #@! TD*
G04 #@! TO.P,S2,4*
G04 #@! TO.N,N/C*
X-52420000Y43000000D03*
G04 #@! TO.P,S2,5*
X-54920000Y43000000D03*
G04 #@! TO.P,S2,6*
X-57420000Y43000000D03*
G04 #@! TO.P,S2,1*
G04 #@! TO.N,Net-(RN1-Pad4)*
X-57420000Y37000000D03*
G04 #@! TO.P,S2,2*
G04 #@! TO.N,GND*
X-54920000Y37000000D03*
G04 #@! TO.P,S2,3*
G04 #@! TO.N,N/C*
X-52420000Y37000000D03*
G04 #@! TD*
G04 #@! TO.P,S3,4*
G04 #@! TO.N,N/C*
X-27420000Y43000000D03*
G04 #@! TO.P,S3,5*
X-29920000Y43000000D03*
G04 #@! TO.P,S3,6*
X-32420000Y43000000D03*
G04 #@! TO.P,S3,1*
G04 #@! TO.N,Net-(RN1-Pad3)*
X-32420000Y37000000D03*
G04 #@! TO.P,S3,2*
G04 #@! TO.N,GND*
X-29920000Y37000000D03*
G04 #@! TO.P,S3,3*
G04 #@! TO.N,N/C*
X-27420000Y37000000D03*
G04 #@! TD*
G04 #@! TO.P,S4,4*
G04 #@! TO.N,N/C*
X-2420000Y43000000D03*
G04 #@! TO.P,S4,5*
X-4920000Y43000000D03*
G04 #@! TO.P,S4,6*
X-7420000Y43000000D03*
G04 #@! TO.P,S4,1*
G04 #@! TO.N,GND*
X-7420000Y37000000D03*
G04 #@! TO.P,S4,2*
G04 #@! TO.N,Net-(RN1-Pad2)*
X-4920000Y37000000D03*
G04 #@! TO.P,S4,3*
G04 #@! TO.N,N/C*
X-2420000Y37000000D03*
G04 #@! TD*
D12*
G04 #@! TO.P,U2,16*
G04 #@! TO.N,+3V3*
X-75550000Y15250000D03*
G04 #@! TO.P,U2,8*
G04 #@! TO.N,GND*
X-83170000Y33030000D03*
G04 #@! TO.P,U2,15*
X-75550000Y17790000D03*
G04 #@! TO.P,U2,7*
G04 #@! TO.N,N/C*
X-83170000Y30490000D03*
G04 #@! TO.P,U2,14*
G04 #@! TO.N,Net-(RN1-Pad2)*
X-75550000Y20330000D03*
G04 #@! TO.P,U2,6*
G04 #@! TO.N,Net-(R6-Pad2)*
X-83170000Y27950000D03*
G04 #@! TO.P,U2,13*
G04 #@! TO.N,Net-(RN1-Pad3)*
X-75550000Y22870000D03*
G04 #@! TO.P,U2,5*
G04 #@! TO.N,GND*
X-83170000Y25410000D03*
G04 #@! TO.P,U2,12*
G04 #@! TO.N,Net-(RN1-Pad4)*
X-75550000Y25410000D03*
G04 #@! TO.P,U2,4*
G04 #@! TO.N,GND*
X-83170000Y22870000D03*
G04 #@! TO.P,U2,11*
G04 #@! TO.N,Net-(RN1-Pad5)*
X-75550000Y27950000D03*
G04 #@! TO.P,U2,3*
G04 #@! TO.N,+3V3*
X-83170000Y20330000D03*
G04 #@! TO.P,U2,10*
G04 #@! TO.N,GND*
X-75550000Y30490000D03*
G04 #@! TO.P,U2,2*
G04 #@! TO.N,/CLK*
X-83170000Y17790000D03*
G04 #@! TO.P,U2,9*
G04 #@! TO.N,/Q*
X-75550000Y33030000D03*
D13*
G04 #@! TO.P,U2,1*
G04 #@! TO.N,/~LOAD~*
X-83170000Y15250000D03*
G04 #@! TD*
D15*
G04 #@! TO.P,D2,2*
G04 #@! TO.N,Net-(D2-Pad2)*
X-44760000Y21500000D03*
D16*
G04 #@! TO.P,D2,1*
G04 #@! TO.N,GND*
X-54920000Y21500000D03*
G04 #@! TD*
D10*
G04 #@! TO.P,REF\002A\002A,*
G04 #@! TO.N,*
X-92420000Y30000000D03*
G04 #@! TD*
G04 #@! TO.P,REF\002A\002A,*
G04 #@! TO.N,*
X-17420000Y30000000D03*
G04 #@! TD*
M02*
