M48
;DRILL file {KiCad (5.0.2-4-gb601aea34)} date Tuesday, January 15, 2019 at 07:18:30 AM
;FORMAT={-:-/ absolute / metric / decimal}
FMAT,2
METRIC,TZ
T1C0.760
T2C0.800
T3C1.400
T4C3.250
%
G90
G05
T1
X-55.83Y13.5
X-54.59Y10.96
X-53.32Y13.5
X-52.02Y10.96
T2
X-107.42Y41.603
X-107.42Y35.603
X-104.92Y41.603
X-104.92Y35.603
X-102.42Y41.603
X-102.42Y35.603
X-82.42Y41.603
X-82.42Y35.603
X-79.92Y41.603
X-79.92Y35.603
X-77.42Y41.603
X-77.42Y35.603
X-7.42Y41.603
X-7.42Y35.603
X-4.92Y41.603
X-4.92Y35.603
X-2.42Y41.603
X-2.42Y35.603
X-57.42Y41.603
X-57.42Y35.603
X-54.92Y41.603
X-54.92Y35.603
X-52.42Y41.603
X-52.42Y35.603
X-32.42Y41.603
X-32.42Y35.603
X-29.92Y41.603
X-29.92Y35.603
X-27.42Y41.603
X-27.42Y35.603
X-67.67Y29.053
X-67.67Y26.513
X-67.67Y23.973
X-67.67Y21.433
X-67.67Y18.893
X-67.67Y16.353
X-83.17Y31.633
X-83.17Y29.093
X-83.17Y26.553
X-83.17Y24.013
X-83.17Y21.473
X-83.17Y18.933
X-83.17Y16.393
X-83.17Y13.853
X-75.55Y31.633
X-75.55Y29.093
X-75.55Y26.553
X-75.55Y24.013
X-75.55Y21.473
X-75.55Y18.933
X-75.55Y16.393
X-75.55Y13.853
T3
X-54.92Y20.103
X-44.76Y20.103
T4
X-59.Y4.61
X-48.84Y4.61
T0
M30
