G04 #@! TF.GenerationSoftware,KiCad,Pcbnew,5.1.5-52549c5~84~ubuntu19.10.1*
G04 #@! TF.CreationDate,2020-01-22T18:49:14-06:00*
G04 #@! TF.ProjectId,Timer,54696d65-722e-46b6-9963-61645f706362,rev?*
G04 #@! TF.SameCoordinates,PX93be440PYaa38e78*
G04 #@! TF.FileFunction,Soldermask,Bot*
G04 #@! TF.FilePolarity,Negative*
%FSLAX46Y46*%
G04 Gerber Fmt 4.6, Leading zero omitted, Abs format (unit mm)*
G04 Created by KiCad (PCBNEW 5.1.5-52549c5~84~ubuntu19.10.1) date 2020-01-22 18:49:14*
%MOMM*%
%LPD*%
G04 APERTURE LIST*
%ADD10C,0.100000*%
G04 APERTURE END LIST*
D10*
G36*
X-49233960Y6399933D02*
G01*
X-49057667Y6364866D01*
X-48920096Y6307882D01*
X-48725540Y6227295D01*
X-48426631Y6027570D01*
X-48172430Y5773369D01*
X-47972705Y5474460D01*
X-47835134Y5142332D01*
X-47765000Y4789748D01*
X-47765000Y4430252D01*
X-47835134Y4077668D01*
X-47972705Y3745540D01*
X-48172430Y3446631D01*
X-48426631Y3192430D01*
X-48725540Y2992705D01*
X-48920096Y2912118D01*
X-49057667Y2855134D01*
X-49233960Y2820067D01*
X-49410252Y2785000D01*
X-49769748Y2785000D01*
X-49946040Y2820067D01*
X-50122333Y2855134D01*
X-50259904Y2912118D01*
X-50454460Y2992705D01*
X-50753369Y3192430D01*
X-51007570Y3446631D01*
X-51207295Y3745540D01*
X-51344866Y4077668D01*
X-51415000Y4430252D01*
X-51415000Y4789748D01*
X-51344866Y5142332D01*
X-51207295Y5474460D01*
X-51007570Y5773369D01*
X-50753369Y6027570D01*
X-50454460Y6227295D01*
X-50259904Y6307882D01*
X-50122333Y6364866D01*
X-49946040Y6399933D01*
X-49769748Y6435000D01*
X-49410252Y6435000D01*
X-49233960Y6399933D01*
G37*
G36*
X-59393960Y6399933D02*
G01*
X-59217667Y6364866D01*
X-59080096Y6307882D01*
X-58885540Y6227295D01*
X-58586631Y6027570D01*
X-58332430Y5773369D01*
X-58132705Y5474460D01*
X-57995134Y5142332D01*
X-57925000Y4789748D01*
X-57925000Y4430252D01*
X-57995134Y4077668D01*
X-58132705Y3745540D01*
X-58332430Y3446631D01*
X-58586631Y3192430D01*
X-58885540Y2992705D01*
X-59080096Y2912118D01*
X-59217667Y2855134D01*
X-59393960Y2820067D01*
X-59570252Y2785000D01*
X-59929748Y2785000D01*
X-60106040Y2820067D01*
X-60282333Y2855134D01*
X-60419904Y2912118D01*
X-60614460Y2992705D01*
X-60913369Y3192430D01*
X-61167570Y3446631D01*
X-61367295Y3745540D01*
X-61504866Y4077668D01*
X-61575000Y4430252D01*
X-61575000Y4789748D01*
X-61504866Y5142332D01*
X-61367295Y5474460D01*
X-61167570Y5773369D01*
X-60913369Y6027570D01*
X-60614460Y6227295D01*
X-60419904Y6307882D01*
X-60282333Y6364866D01*
X-60106040Y6399933D01*
X-59929748Y6435000D01*
X-59570252Y6435000D01*
X-59393960Y6399933D01*
G37*
G36*
X-55152713Y11901554D02*
G01*
X-55059978Y11883108D01*
X-54885269Y11810741D01*
X-54728036Y11705681D01*
X-54594319Y11571964D01*
X-54489259Y11414731D01*
X-54416892Y11240022D01*
X-54380000Y11054552D01*
X-54380000Y10865448D01*
X-54416892Y10679978D01*
X-54489259Y10505269D01*
X-54594319Y10348036D01*
X-54728036Y10214319D01*
X-54885269Y10109259D01*
X-55059978Y10036892D01*
X-55152713Y10018446D01*
X-55245447Y10000000D01*
X-55434553Y10000000D01*
X-55527287Y10018446D01*
X-55620022Y10036892D01*
X-55794731Y10109259D01*
X-55951964Y10214319D01*
X-56085681Y10348036D01*
X-56190741Y10505269D01*
X-56263108Y10679978D01*
X-56300000Y10865448D01*
X-56300000Y11054552D01*
X-56263108Y11240022D01*
X-56190741Y11414731D01*
X-56085681Y11571964D01*
X-55951964Y11705681D01*
X-55794731Y11810741D01*
X-55620022Y11883108D01*
X-55527287Y11901554D01*
X-55434553Y11920000D01*
X-55245447Y11920000D01*
X-55152713Y11901554D01*
G37*
G36*
X-51810000Y10000000D02*
G01*
X-53730000Y10000000D01*
X-53730000Y11920000D01*
X-51810000Y11920000D01*
X-51810000Y10000000D01*
G37*
G36*
X-53882713Y14441554D02*
G01*
X-53789978Y14423108D01*
X-53615269Y14350741D01*
X-53458036Y14245681D01*
X-53324319Y14111964D01*
X-53219259Y13954731D01*
X-53146892Y13780022D01*
X-53110000Y13594552D01*
X-53110000Y13405448D01*
X-53146892Y13219978D01*
X-53219259Y13045269D01*
X-53324319Y12888036D01*
X-53458036Y12754319D01*
X-53615269Y12649259D01*
X-53789978Y12576892D01*
X-53882713Y12558446D01*
X-53975447Y12540000D01*
X-54164553Y12540000D01*
X-54257287Y12558446D01*
X-54350022Y12576892D01*
X-54524731Y12649259D01*
X-54681964Y12754319D01*
X-54815681Y12888036D01*
X-54920741Y13045269D01*
X-54993108Y13219978D01*
X-55030000Y13405448D01*
X-55030000Y13594552D01*
X-54993108Y13780022D01*
X-54920741Y13954731D01*
X-54815681Y14111964D01*
X-54681964Y14245681D01*
X-54524731Y14350741D01*
X-54350022Y14423108D01*
X-54257287Y14441554D01*
X-54164553Y14460000D01*
X-53975447Y14460000D01*
X-53882713Y14441554D01*
G37*
G36*
X-56392713Y14441554D02*
G01*
X-56299978Y14423108D01*
X-56125269Y14350741D01*
X-55968036Y14245681D01*
X-55834319Y14111964D01*
X-55729259Y13954731D01*
X-55656892Y13780022D01*
X-55620000Y13594552D01*
X-55620000Y13405448D01*
X-55656892Y13219978D01*
X-55729259Y13045269D01*
X-55834319Y12888036D01*
X-55968036Y12754319D01*
X-56125269Y12649259D01*
X-56299978Y12576892D01*
X-56392713Y12558446D01*
X-56485447Y12540000D01*
X-56674553Y12540000D01*
X-56767287Y12558446D01*
X-56860022Y12576892D01*
X-57034731Y12649259D01*
X-57191964Y12754319D01*
X-57325681Y12888036D01*
X-57430741Y13045269D01*
X-57503108Y13219978D01*
X-57540000Y13405448D01*
X-57540000Y13594552D01*
X-57503108Y13780022D01*
X-57430741Y13954731D01*
X-57325681Y14111964D01*
X-57191964Y14245681D01*
X-57034731Y14350741D01*
X-56860022Y14423108D01*
X-56767287Y14441554D01*
X-56674553Y14460000D01*
X-56485447Y14460000D01*
X-56392713Y14441554D01*
G37*
G36*
X-82170000Y12853000D02*
G01*
X-84170000Y12853000D01*
X-84170000Y14853000D01*
X-82170000Y14853000D01*
X-82170000Y12853000D01*
G37*
G36*
X-75322710Y14827381D02*
G01*
X-75258311Y14814571D01*
X-75076322Y14739189D01*
X-74912537Y14629751D01*
X-74773249Y14490463D01*
X-74663811Y14326678D01*
X-74588429Y14144689D01*
X-74550000Y13951491D01*
X-74550000Y13754509D01*
X-74588429Y13561311D01*
X-74663811Y13379322D01*
X-74773249Y13215537D01*
X-74912537Y13076249D01*
X-75076322Y12966811D01*
X-75258311Y12891429D01*
X-75322710Y12878619D01*
X-75451507Y12853000D01*
X-75648493Y12853000D01*
X-75777290Y12878619D01*
X-75841689Y12891429D01*
X-76023678Y12966811D01*
X-76187463Y13076249D01*
X-76326751Y13215537D01*
X-76436189Y13379322D01*
X-76511571Y13561311D01*
X-76550000Y13754509D01*
X-76550000Y13951491D01*
X-76511571Y14144689D01*
X-76436189Y14326678D01*
X-76326751Y14490463D01*
X-76187463Y14629751D01*
X-76023678Y14739189D01*
X-75841689Y14814571D01*
X-75777290Y14827381D01*
X-75648493Y14853000D01*
X-75451507Y14853000D01*
X-75322710Y14827381D01*
G37*
G36*
X-66670000Y15353000D02*
G01*
X-68670000Y15353000D01*
X-68670000Y17353000D01*
X-66670000Y17353000D01*
X-66670000Y15353000D01*
G37*
G36*
X-82942710Y17367381D02*
G01*
X-82878311Y17354571D01*
X-82696322Y17279189D01*
X-82532537Y17169751D01*
X-82393249Y17030463D01*
X-82283811Y16866678D01*
X-82208429Y16684689D01*
X-82170000Y16491491D01*
X-82170000Y16294509D01*
X-82208429Y16101311D01*
X-82283811Y15919322D01*
X-82393249Y15755537D01*
X-82532537Y15616249D01*
X-82696322Y15506811D01*
X-82878311Y15431429D01*
X-82942710Y15418619D01*
X-83071507Y15393000D01*
X-83268493Y15393000D01*
X-83397290Y15418619D01*
X-83461689Y15431429D01*
X-83643678Y15506811D01*
X-83807463Y15616249D01*
X-83946751Y15755537D01*
X-84056189Y15919322D01*
X-84131571Y16101311D01*
X-84170000Y16294509D01*
X-84170000Y16491491D01*
X-84131571Y16684689D01*
X-84056189Y16866678D01*
X-83946751Y17030463D01*
X-83807463Y17169751D01*
X-83643678Y17279189D01*
X-83461689Y17354571D01*
X-83397290Y17367381D01*
X-83268493Y17393000D01*
X-83071507Y17393000D01*
X-82942710Y17367381D01*
G37*
G36*
X-75322710Y17367381D02*
G01*
X-75258311Y17354571D01*
X-75076322Y17279189D01*
X-74912537Y17169751D01*
X-74773249Y17030463D01*
X-74663811Y16866678D01*
X-74588429Y16684689D01*
X-74550000Y16491491D01*
X-74550000Y16294509D01*
X-74588429Y16101311D01*
X-74663811Y15919322D01*
X-74773249Y15755537D01*
X-74912537Y15616249D01*
X-75076322Y15506811D01*
X-75258311Y15431429D01*
X-75322710Y15418619D01*
X-75451507Y15393000D01*
X-75648493Y15393000D01*
X-75777290Y15418619D01*
X-75841689Y15431429D01*
X-76023678Y15506811D01*
X-76187463Y15616249D01*
X-76326751Y15755537D01*
X-76436189Y15919322D01*
X-76511571Y16101311D01*
X-76550000Y16294509D01*
X-76550000Y16491491D01*
X-76511571Y16684689D01*
X-76436189Y16866678D01*
X-76326751Y17030463D01*
X-76187463Y17169751D01*
X-76023678Y17279189D01*
X-75841689Y17354571D01*
X-75777290Y17367381D01*
X-75648493Y17393000D01*
X-75451507Y17393000D01*
X-75322710Y17367381D01*
G37*
G36*
X-67442710Y19867381D02*
G01*
X-67378311Y19854571D01*
X-67196322Y19779189D01*
X-67032537Y19669751D01*
X-66893249Y19530463D01*
X-66783811Y19366678D01*
X-66708429Y19184689D01*
X-66670000Y18991491D01*
X-66670000Y18794509D01*
X-66708429Y18601311D01*
X-66783811Y18419322D01*
X-66893249Y18255537D01*
X-67032537Y18116249D01*
X-67196322Y18006811D01*
X-67378311Y17931429D01*
X-67442710Y17918619D01*
X-67571507Y17893000D01*
X-67768493Y17893000D01*
X-67897290Y17918619D01*
X-67961689Y17931429D01*
X-68143678Y18006811D01*
X-68307463Y18116249D01*
X-68446751Y18255537D01*
X-68556189Y18419322D01*
X-68631571Y18601311D01*
X-68670000Y18794509D01*
X-68670000Y18991491D01*
X-68631571Y19184689D01*
X-68556189Y19366678D01*
X-68446751Y19530463D01*
X-68307463Y19669751D01*
X-68143678Y19779189D01*
X-67961689Y19854571D01*
X-67897290Y19867381D01*
X-67768493Y19893000D01*
X-67571507Y19893000D01*
X-67442710Y19867381D01*
G37*
G36*
X-82942710Y19907381D02*
G01*
X-82878311Y19894571D01*
X-82696322Y19819189D01*
X-82532537Y19709751D01*
X-82393249Y19570463D01*
X-82283811Y19406678D01*
X-82208429Y19224689D01*
X-82208429Y19224688D01*
X-82180257Y19083060D01*
X-82170000Y19031491D01*
X-82170000Y18834509D01*
X-82208429Y18641311D01*
X-82283811Y18459322D01*
X-82393249Y18295537D01*
X-82532537Y18156249D01*
X-82696322Y18046811D01*
X-82878311Y17971429D01*
X-82942710Y17958619D01*
X-83071507Y17933000D01*
X-83268493Y17933000D01*
X-83397290Y17958619D01*
X-83461689Y17971429D01*
X-83643678Y18046811D01*
X-83807463Y18156249D01*
X-83946751Y18295537D01*
X-84056189Y18459322D01*
X-84131571Y18641311D01*
X-84170000Y18834509D01*
X-84170000Y19031491D01*
X-84159742Y19083060D01*
X-84131571Y19224688D01*
X-84131571Y19224689D01*
X-84056189Y19406678D01*
X-83946751Y19570463D01*
X-83807463Y19709751D01*
X-83643678Y19819189D01*
X-83461689Y19894571D01*
X-83397290Y19907381D01*
X-83268493Y19933000D01*
X-83071507Y19933000D01*
X-82942710Y19907381D01*
G37*
G36*
X-75322710Y19907381D02*
G01*
X-75258311Y19894571D01*
X-75076322Y19819189D01*
X-74912537Y19709751D01*
X-74773249Y19570463D01*
X-74663811Y19406678D01*
X-74588429Y19224689D01*
X-74588429Y19224688D01*
X-74560257Y19083060D01*
X-74550000Y19031491D01*
X-74550000Y18834509D01*
X-74588429Y18641311D01*
X-74663811Y18459322D01*
X-74773249Y18295537D01*
X-74912537Y18156249D01*
X-75076322Y18046811D01*
X-75258311Y17971429D01*
X-75322710Y17958619D01*
X-75451507Y17933000D01*
X-75648493Y17933000D01*
X-75777290Y17958619D01*
X-75841689Y17971429D01*
X-76023678Y18046811D01*
X-76187463Y18156249D01*
X-76326751Y18295537D01*
X-76436189Y18459322D01*
X-76511571Y18641311D01*
X-76550000Y18834509D01*
X-76550000Y19031491D01*
X-76539742Y19083060D01*
X-76511571Y19224688D01*
X-76511571Y19224689D01*
X-76436189Y19406678D01*
X-76326751Y19570463D01*
X-76187463Y19709751D01*
X-76023678Y19819189D01*
X-75841689Y19894571D01*
X-75777290Y19907381D01*
X-75648493Y19933000D01*
X-75451507Y19933000D01*
X-75322710Y19907381D01*
G37*
G36*
X-44293297Y21641514D02*
G01*
X-44002117Y21520903D01*
X-43740060Y21345802D01*
X-43517198Y21122940D01*
X-43342097Y20860883D01*
X-43221486Y20569703D01*
X-43160000Y20260588D01*
X-43160000Y19945412D01*
X-43221486Y19636297D01*
X-43342097Y19345117D01*
X-43517198Y19083060D01*
X-43740060Y18860198D01*
X-44002117Y18685097D01*
X-44293297Y18564486D01*
X-44602412Y18503000D01*
X-44917588Y18503000D01*
X-45226703Y18564486D01*
X-45517883Y18685097D01*
X-45779940Y18860198D01*
X-46002802Y19083060D01*
X-46177903Y19345117D01*
X-46298514Y19636297D01*
X-46360000Y19945412D01*
X-46360000Y20260588D01*
X-46298514Y20569703D01*
X-46177903Y20860883D01*
X-46002802Y21122940D01*
X-45779940Y21345802D01*
X-45517883Y21520903D01*
X-45226703Y21641514D01*
X-44917588Y21703000D01*
X-44602412Y21703000D01*
X-44293297Y21641514D01*
G37*
G36*
X-53320000Y18503000D02*
G01*
X-56520000Y18503000D01*
X-56520000Y21703000D01*
X-53320000Y21703000D01*
X-53320000Y18503000D01*
G37*
G36*
X-67442710Y22407381D02*
G01*
X-67378311Y22394571D01*
X-67196322Y22319189D01*
X-67032537Y22209751D01*
X-66893249Y22070463D01*
X-66783811Y21906678D01*
X-66708429Y21724689D01*
X-66670000Y21531491D01*
X-66670000Y21334509D01*
X-66708429Y21141311D01*
X-66783811Y20959322D01*
X-66893249Y20795537D01*
X-67032537Y20656249D01*
X-67196322Y20546811D01*
X-67378311Y20471429D01*
X-67442710Y20458619D01*
X-67571507Y20433000D01*
X-67768493Y20433000D01*
X-67897290Y20458619D01*
X-67961689Y20471429D01*
X-68143678Y20546811D01*
X-68307463Y20656249D01*
X-68446751Y20795537D01*
X-68556189Y20959322D01*
X-68631571Y21141311D01*
X-68670000Y21334509D01*
X-68670000Y21531491D01*
X-68631571Y21724689D01*
X-68556189Y21906678D01*
X-68446751Y22070463D01*
X-68307463Y22209751D01*
X-68143678Y22319189D01*
X-67961689Y22394571D01*
X-67897290Y22407381D01*
X-67768493Y22433000D01*
X-67571507Y22433000D01*
X-67442710Y22407381D01*
G37*
G36*
X-75322710Y22447381D02*
G01*
X-75258311Y22434571D01*
X-75076322Y22359189D01*
X-74912537Y22249751D01*
X-74773249Y22110463D01*
X-74663811Y21946678D01*
X-74588429Y21764689D01*
X-74550000Y21571491D01*
X-74550000Y21374509D01*
X-74588429Y21181311D01*
X-74663811Y20999322D01*
X-74773249Y20835537D01*
X-74912537Y20696249D01*
X-75076322Y20586811D01*
X-75258311Y20511429D01*
X-75322710Y20498619D01*
X-75451507Y20473000D01*
X-75648493Y20473000D01*
X-75777290Y20498619D01*
X-75841689Y20511429D01*
X-76023678Y20586811D01*
X-76187463Y20696249D01*
X-76326751Y20835537D01*
X-76436189Y20999322D01*
X-76511571Y21181311D01*
X-76550000Y21374509D01*
X-76550000Y21571491D01*
X-76511571Y21764689D01*
X-76436189Y21946678D01*
X-76326751Y22110463D01*
X-76187463Y22249751D01*
X-76023678Y22359189D01*
X-75841689Y22434571D01*
X-75777290Y22447381D01*
X-75648493Y22473000D01*
X-75451507Y22473000D01*
X-75322710Y22447381D01*
G37*
G36*
X-82942710Y22447381D02*
G01*
X-82878311Y22434571D01*
X-82696322Y22359189D01*
X-82532537Y22249751D01*
X-82393249Y22110463D01*
X-82283811Y21946678D01*
X-82208429Y21764689D01*
X-82170000Y21571491D01*
X-82170000Y21374509D01*
X-82208429Y21181311D01*
X-82283811Y20999322D01*
X-82393249Y20835537D01*
X-82532537Y20696249D01*
X-82696322Y20586811D01*
X-82878311Y20511429D01*
X-82942710Y20498619D01*
X-83071507Y20473000D01*
X-83268493Y20473000D01*
X-83397290Y20498619D01*
X-83461689Y20511429D01*
X-83643678Y20586811D01*
X-83807463Y20696249D01*
X-83946751Y20835537D01*
X-84056189Y20999322D01*
X-84131571Y21181311D01*
X-84170000Y21374509D01*
X-84170000Y21571491D01*
X-84131571Y21764689D01*
X-84056189Y21946678D01*
X-83946751Y22110463D01*
X-83807463Y22249751D01*
X-83643678Y22359189D01*
X-83461689Y22434571D01*
X-83397290Y22447381D01*
X-83268493Y22473000D01*
X-83071507Y22473000D01*
X-82942710Y22447381D01*
G37*
G36*
X-67442710Y24947381D02*
G01*
X-67378311Y24934571D01*
X-67196322Y24859189D01*
X-67032537Y24749751D01*
X-66893249Y24610463D01*
X-66783811Y24446678D01*
X-66708429Y24264689D01*
X-66670000Y24071491D01*
X-66670000Y23874509D01*
X-66708429Y23681311D01*
X-66783811Y23499322D01*
X-66893249Y23335537D01*
X-67032537Y23196249D01*
X-67196322Y23086811D01*
X-67378311Y23011429D01*
X-67442710Y22998619D01*
X-67571507Y22973000D01*
X-67768493Y22973000D01*
X-67897290Y22998619D01*
X-67961689Y23011429D01*
X-68143678Y23086811D01*
X-68307463Y23196249D01*
X-68446751Y23335537D01*
X-68556189Y23499322D01*
X-68631571Y23681311D01*
X-68670000Y23874509D01*
X-68670000Y24071491D01*
X-68631571Y24264689D01*
X-68556189Y24446678D01*
X-68446751Y24610463D01*
X-68307463Y24749751D01*
X-68143678Y24859189D01*
X-67961689Y24934571D01*
X-67897290Y24947381D01*
X-67768493Y24973000D01*
X-67571507Y24973000D01*
X-67442710Y24947381D01*
G37*
G36*
X-75322710Y24987381D02*
G01*
X-75258311Y24974571D01*
X-75076322Y24899189D01*
X-74912537Y24789751D01*
X-74773249Y24650463D01*
X-74663811Y24486678D01*
X-74588429Y24304689D01*
X-74550000Y24111491D01*
X-74550000Y23914509D01*
X-74588429Y23721311D01*
X-74663811Y23539322D01*
X-74773249Y23375537D01*
X-74912537Y23236249D01*
X-75076322Y23126811D01*
X-75258311Y23051429D01*
X-75322710Y23038619D01*
X-75451507Y23013000D01*
X-75648493Y23013000D01*
X-75777290Y23038619D01*
X-75841689Y23051429D01*
X-76023678Y23126811D01*
X-76187463Y23236249D01*
X-76326751Y23375537D01*
X-76436189Y23539322D01*
X-76511571Y23721311D01*
X-76550000Y23914509D01*
X-76550000Y24111491D01*
X-76511571Y24304689D01*
X-76436189Y24486678D01*
X-76326751Y24650463D01*
X-76187463Y24789751D01*
X-76023678Y24899189D01*
X-75841689Y24974571D01*
X-75777290Y24987381D01*
X-75648493Y25013000D01*
X-75451507Y25013000D01*
X-75322710Y24987381D01*
G37*
G36*
X-82942710Y24987381D02*
G01*
X-82878311Y24974571D01*
X-82696322Y24899189D01*
X-82532537Y24789751D01*
X-82393249Y24650463D01*
X-82283811Y24486678D01*
X-82208429Y24304689D01*
X-82170000Y24111491D01*
X-82170000Y23914509D01*
X-82208429Y23721311D01*
X-82283811Y23539322D01*
X-82393249Y23375537D01*
X-82532537Y23236249D01*
X-82696322Y23126811D01*
X-82878311Y23051429D01*
X-82942710Y23038619D01*
X-83071507Y23013000D01*
X-83268493Y23013000D01*
X-83397290Y23038619D01*
X-83461689Y23051429D01*
X-83643678Y23126811D01*
X-83807463Y23236249D01*
X-83946751Y23375537D01*
X-84056189Y23539322D01*
X-84131571Y23721311D01*
X-84170000Y23914509D01*
X-84170000Y24111491D01*
X-84131571Y24304689D01*
X-84056189Y24486678D01*
X-83946751Y24650463D01*
X-83807463Y24789751D01*
X-83643678Y24899189D01*
X-83461689Y24974571D01*
X-83397290Y24987381D01*
X-83268493Y25013000D01*
X-83071507Y25013000D01*
X-82942710Y24987381D01*
G37*
G36*
X-67442710Y27487381D02*
G01*
X-67378311Y27474571D01*
X-67196322Y27399189D01*
X-67032537Y27289751D01*
X-66893249Y27150463D01*
X-66783811Y26986678D01*
X-66708429Y26804689D01*
X-66708429Y26804688D01*
X-66670000Y26611493D01*
X-66670000Y26414507D01*
X-66683854Y26344860D01*
X-66708429Y26221311D01*
X-66783811Y26039322D01*
X-66893249Y25875537D01*
X-67032537Y25736249D01*
X-67196322Y25626811D01*
X-67378311Y25551429D01*
X-67442710Y25538619D01*
X-67571507Y25513000D01*
X-67768493Y25513000D01*
X-67897290Y25538619D01*
X-67961689Y25551429D01*
X-68143678Y25626811D01*
X-68307463Y25736249D01*
X-68446751Y25875537D01*
X-68556189Y26039322D01*
X-68631571Y26221311D01*
X-68656146Y26344860D01*
X-68670000Y26414507D01*
X-68670000Y26611493D01*
X-68631571Y26804688D01*
X-68631571Y26804689D01*
X-68556189Y26986678D01*
X-68446751Y27150463D01*
X-68307463Y27289751D01*
X-68143678Y27399189D01*
X-67961689Y27474571D01*
X-67897290Y27487381D01*
X-67768493Y27513000D01*
X-67571507Y27513000D01*
X-67442710Y27487381D01*
G37*
G36*
X-82942710Y27527381D02*
G01*
X-82878311Y27514571D01*
X-82696322Y27439189D01*
X-82532537Y27329751D01*
X-82393249Y27190463D01*
X-82283811Y27026678D01*
X-82208429Y26844689D01*
X-82208429Y26844688D01*
X-82173452Y26668849D01*
X-82170000Y26651491D01*
X-82170000Y26454509D01*
X-82208429Y26261311D01*
X-82283811Y26079322D01*
X-82393249Y25915537D01*
X-82532537Y25776249D01*
X-82696322Y25666811D01*
X-82878311Y25591429D01*
X-82942710Y25578619D01*
X-83071507Y25553000D01*
X-83268493Y25553000D01*
X-83397290Y25578619D01*
X-83461689Y25591429D01*
X-83643678Y25666811D01*
X-83807463Y25776249D01*
X-83946751Y25915537D01*
X-84056189Y26079322D01*
X-84131571Y26261311D01*
X-84170000Y26454509D01*
X-84170000Y26651491D01*
X-84166547Y26668849D01*
X-84131571Y26844688D01*
X-84131571Y26844689D01*
X-84056189Y27026678D01*
X-83946751Y27190463D01*
X-83807463Y27329751D01*
X-83643678Y27439189D01*
X-83461689Y27514571D01*
X-83397290Y27527381D01*
X-83268493Y27553000D01*
X-83071507Y27553000D01*
X-82942710Y27527381D01*
G37*
G36*
X-75322710Y27527381D02*
G01*
X-75258311Y27514571D01*
X-75076322Y27439189D01*
X-74912537Y27329751D01*
X-74773249Y27190463D01*
X-74663811Y27026678D01*
X-74588429Y26844689D01*
X-74588429Y26844688D01*
X-74553452Y26668849D01*
X-74550000Y26651491D01*
X-74550000Y26454509D01*
X-74588429Y26261311D01*
X-74663811Y26079322D01*
X-74773249Y25915537D01*
X-74912537Y25776249D01*
X-75076322Y25666811D01*
X-75258311Y25591429D01*
X-75322710Y25578619D01*
X-75451507Y25553000D01*
X-75648493Y25553000D01*
X-75777290Y25578619D01*
X-75841689Y25591429D01*
X-76023678Y25666811D01*
X-76187463Y25776249D01*
X-76326751Y25915537D01*
X-76436189Y26079322D01*
X-76511571Y26261311D01*
X-76550000Y26454509D01*
X-76550000Y26651491D01*
X-76546547Y26668849D01*
X-76511571Y26844688D01*
X-76511571Y26844689D01*
X-76436189Y27026678D01*
X-76326751Y27190463D01*
X-76187463Y27329751D01*
X-76023678Y27439189D01*
X-75841689Y27514571D01*
X-75777290Y27527381D01*
X-75648493Y27553000D01*
X-75451507Y27553000D01*
X-75322710Y27527381D01*
G37*
G36*
X-17682837Y29705413D02*
G01*
X-17508959Y29670827D01*
X-17181380Y29535139D01*
X-16886567Y29338151D01*
X-16635849Y29087433D01*
X-16438861Y28792620D01*
X-16303173Y28465041D01*
X-16293326Y28415537D01*
X-16236813Y28131429D01*
X-16234000Y28117284D01*
X-16234000Y27762716D01*
X-16303173Y27414959D01*
X-16438861Y27087380D01*
X-16635849Y26792567D01*
X-16886567Y26541849D01*
X-17181380Y26344861D01*
X-17181381Y26344860D01*
X-17181382Y26344860D01*
X-17237585Y26321580D01*
X-17508959Y26209173D01*
X-17682837Y26174587D01*
X-17856714Y26140000D01*
X-18211286Y26140000D01*
X-18385163Y26174587D01*
X-18559041Y26209173D01*
X-18830415Y26321580D01*
X-18886618Y26344860D01*
X-18886619Y26344860D01*
X-18886620Y26344861D01*
X-19181433Y26541849D01*
X-19432151Y26792567D01*
X-19629139Y27087380D01*
X-19764827Y27414959D01*
X-19834000Y27762716D01*
X-19834000Y28117284D01*
X-19831186Y28131429D01*
X-19774674Y28415537D01*
X-19764827Y28465041D01*
X-19629139Y28792620D01*
X-19432151Y29087433D01*
X-19181433Y29338151D01*
X-18886620Y29535139D01*
X-18559041Y29670827D01*
X-18385163Y29705413D01*
X-18211286Y29740000D01*
X-17856714Y29740000D01*
X-17682837Y29705413D01*
G37*
G36*
X-91723837Y29832413D02*
G01*
X-91549959Y29797827D01*
X-91290760Y29690463D01*
X-91243354Y29670827D01*
X-91222380Y29662139D01*
X-90927567Y29465151D01*
X-90676849Y29214433D01*
X-90479861Y28919620D01*
X-90344173Y28592041D01*
X-90341643Y28579322D01*
X-90289314Y28316249D01*
X-90275000Y28244284D01*
X-90275000Y27889716D01*
X-90344173Y27541959D01*
X-90479861Y27214380D01*
X-90676849Y26919567D01*
X-90927567Y26668849D01*
X-91222380Y26471861D01*
X-91549959Y26336173D01*
X-91723837Y26301587D01*
X-91897714Y26267000D01*
X-92252286Y26267000D01*
X-92426163Y26301587D01*
X-92600041Y26336173D01*
X-92927620Y26471861D01*
X-93222433Y26668849D01*
X-93473151Y26919567D01*
X-93670139Y27214380D01*
X-93805827Y27541959D01*
X-93875000Y27889716D01*
X-93875000Y28244284D01*
X-93860685Y28316249D01*
X-93808357Y28579322D01*
X-93805827Y28592041D01*
X-93670139Y28919620D01*
X-93473151Y29214433D01*
X-93222433Y29465151D01*
X-92927620Y29662139D01*
X-92906645Y29670827D01*
X-92859240Y29690463D01*
X-92600041Y29797827D01*
X-92426163Y29832413D01*
X-92252286Y29867000D01*
X-91897714Y29867000D01*
X-91723837Y29832413D01*
G37*
G36*
X-67442710Y30027381D02*
G01*
X-67378311Y30014571D01*
X-67196322Y29939189D01*
X-67032537Y29829751D01*
X-66893249Y29690463D01*
X-66783811Y29526678D01*
X-66708429Y29344689D01*
X-66708429Y29344688D01*
X-66670000Y29151493D01*
X-66670000Y28954507D01*
X-66676940Y28919618D01*
X-66708429Y28761311D01*
X-66783811Y28579322D01*
X-66893249Y28415537D01*
X-67032537Y28276249D01*
X-67196322Y28166811D01*
X-67378311Y28091429D01*
X-67442710Y28078619D01*
X-67571507Y28053000D01*
X-67768493Y28053000D01*
X-67897290Y28078619D01*
X-67961689Y28091429D01*
X-68143678Y28166811D01*
X-68307463Y28276249D01*
X-68446751Y28415537D01*
X-68556189Y28579322D01*
X-68631571Y28761311D01*
X-68663060Y28919618D01*
X-68670000Y28954507D01*
X-68670000Y29151493D01*
X-68631571Y29344688D01*
X-68631571Y29344689D01*
X-68556189Y29526678D01*
X-68446751Y29690463D01*
X-68307463Y29829751D01*
X-68143678Y29939189D01*
X-67961689Y30014571D01*
X-67897290Y30027381D01*
X-67768493Y30053000D01*
X-67571507Y30053000D01*
X-67442710Y30027381D01*
G37*
G36*
X-75322710Y30067381D02*
G01*
X-75258311Y30054571D01*
X-75076322Y29979189D01*
X-74912537Y29869751D01*
X-74773249Y29730463D01*
X-74663811Y29566678D01*
X-74588429Y29384689D01*
X-74588429Y29384688D01*
X-74550000Y29191493D01*
X-74550000Y28994507D01*
X-74575619Y28865710D01*
X-74588429Y28801311D01*
X-74663811Y28619322D01*
X-74773249Y28455537D01*
X-74912537Y28316249D01*
X-75076322Y28206811D01*
X-75258311Y28131429D01*
X-75322710Y28118619D01*
X-75451507Y28093000D01*
X-75648493Y28093000D01*
X-75777290Y28118619D01*
X-75841689Y28131429D01*
X-76023678Y28206811D01*
X-76187463Y28316249D01*
X-76326751Y28455537D01*
X-76436189Y28619322D01*
X-76511571Y28801311D01*
X-76524381Y28865710D01*
X-76550000Y28994507D01*
X-76550000Y29191493D01*
X-76511571Y29384688D01*
X-76511571Y29384689D01*
X-76436189Y29566678D01*
X-76326751Y29730463D01*
X-76187463Y29869751D01*
X-76023678Y29979189D01*
X-75841689Y30054571D01*
X-75777290Y30067381D01*
X-75648493Y30093000D01*
X-75451507Y30093000D01*
X-75322710Y30067381D01*
G37*
G36*
X-82942710Y30067381D02*
G01*
X-82878311Y30054571D01*
X-82696322Y29979189D01*
X-82532537Y29869751D01*
X-82393249Y29730463D01*
X-82283811Y29566678D01*
X-82208429Y29384689D01*
X-82208429Y29384688D01*
X-82170000Y29191493D01*
X-82170000Y28994507D01*
X-82195619Y28865710D01*
X-82208429Y28801311D01*
X-82283811Y28619322D01*
X-82393249Y28455537D01*
X-82532537Y28316249D01*
X-82696322Y28206811D01*
X-82878311Y28131429D01*
X-82942710Y28118619D01*
X-83071507Y28093000D01*
X-83268493Y28093000D01*
X-83397290Y28118619D01*
X-83461689Y28131429D01*
X-83643678Y28206811D01*
X-83807463Y28316249D01*
X-83946751Y28455537D01*
X-84056189Y28619322D01*
X-84131571Y28801311D01*
X-84144381Y28865710D01*
X-84170000Y28994507D01*
X-84170000Y29191493D01*
X-84131571Y29384688D01*
X-84131571Y29384689D01*
X-84056189Y29566678D01*
X-83946751Y29730463D01*
X-83807463Y29869751D01*
X-83643678Y29979189D01*
X-83461689Y30054571D01*
X-83397290Y30067381D01*
X-83268493Y30093000D01*
X-83071507Y30093000D01*
X-82942710Y30067381D01*
G37*
G36*
X-82942710Y32607381D02*
G01*
X-82878311Y32594571D01*
X-82696322Y32519189D01*
X-82532537Y32409751D01*
X-82393249Y32270463D01*
X-82283811Y32106678D01*
X-82208429Y31924689D01*
X-82170000Y31731491D01*
X-82170000Y31534509D01*
X-82208429Y31341311D01*
X-82283811Y31159322D01*
X-82393249Y30995537D01*
X-82532537Y30856249D01*
X-82696322Y30746811D01*
X-82878311Y30671429D01*
X-82942710Y30658619D01*
X-83071507Y30633000D01*
X-83268493Y30633000D01*
X-83397290Y30658619D01*
X-83461689Y30671429D01*
X-83643678Y30746811D01*
X-83807463Y30856249D01*
X-83946751Y30995537D01*
X-84056189Y31159322D01*
X-84131571Y31341311D01*
X-84170000Y31534509D01*
X-84170000Y31731491D01*
X-84131571Y31924689D01*
X-84056189Y32106678D01*
X-83946751Y32270463D01*
X-83807463Y32409751D01*
X-83643678Y32519189D01*
X-83461689Y32594571D01*
X-83397290Y32607381D01*
X-83268493Y32633000D01*
X-83071507Y32633000D01*
X-82942710Y32607381D01*
G37*
G36*
X-75322710Y32607381D02*
G01*
X-75258311Y32594571D01*
X-75076322Y32519189D01*
X-74912537Y32409751D01*
X-74773249Y32270463D01*
X-74663811Y32106678D01*
X-74588429Y31924689D01*
X-74550000Y31731491D01*
X-74550000Y31534509D01*
X-74588429Y31341311D01*
X-74663811Y31159322D01*
X-74773249Y30995537D01*
X-74912537Y30856249D01*
X-75076322Y30746811D01*
X-75258311Y30671429D01*
X-75322710Y30658619D01*
X-75451507Y30633000D01*
X-75648493Y30633000D01*
X-75777290Y30658619D01*
X-75841689Y30671429D01*
X-76023678Y30746811D01*
X-76187463Y30856249D01*
X-76326751Y30995537D01*
X-76436189Y31159322D01*
X-76511571Y31341311D01*
X-76550000Y31534509D01*
X-76550000Y31731491D01*
X-76511571Y31924689D01*
X-76436189Y32106678D01*
X-76326751Y32270463D01*
X-76187463Y32409751D01*
X-76023678Y32519189D01*
X-75841689Y32594571D01*
X-75777290Y32607381D01*
X-75648493Y32633000D01*
X-75451507Y32633000D01*
X-75322710Y32607381D01*
G37*
G36*
X-57234664Y36534746D02*
G01*
X-57142895Y36516492D01*
X-56970006Y36444879D01*
X-56814410Y36340913D01*
X-56682087Y36208590D01*
X-56578121Y36052994D01*
X-56506508Y35880105D01*
X-56470000Y35696567D01*
X-56470000Y35509433D01*
X-56506508Y35325895D01*
X-56578121Y35153006D01*
X-56682087Y34997410D01*
X-56814410Y34865087D01*
X-56970006Y34761121D01*
X-57142895Y34689508D01*
X-57234664Y34671254D01*
X-57326432Y34653000D01*
X-57513568Y34653000D01*
X-57605336Y34671254D01*
X-57697105Y34689508D01*
X-57869994Y34761121D01*
X-58025590Y34865087D01*
X-58157913Y34997410D01*
X-58261879Y35153006D01*
X-58333492Y35325895D01*
X-58370000Y35509433D01*
X-58370000Y35696567D01*
X-58333492Y35880105D01*
X-58261879Y36052994D01*
X-58157913Y36208590D01*
X-58025590Y36340913D01*
X-57869994Y36444879D01*
X-57697105Y36516492D01*
X-57605336Y36534746D01*
X-57513568Y36553000D01*
X-57326432Y36553000D01*
X-57234664Y36534746D01*
G37*
G36*
X-77234664Y36534746D02*
G01*
X-77142895Y36516492D01*
X-76970006Y36444879D01*
X-76814410Y36340913D01*
X-76682087Y36208590D01*
X-76578121Y36052994D01*
X-76506508Y35880105D01*
X-76470000Y35696567D01*
X-76470000Y35509433D01*
X-76506508Y35325895D01*
X-76578121Y35153006D01*
X-76682087Y34997410D01*
X-76814410Y34865087D01*
X-76970006Y34761121D01*
X-77142895Y34689508D01*
X-77234664Y34671254D01*
X-77326432Y34653000D01*
X-77513568Y34653000D01*
X-77605336Y34671254D01*
X-77697105Y34689508D01*
X-77869994Y34761121D01*
X-78025590Y34865087D01*
X-78157913Y34997410D01*
X-78261879Y35153006D01*
X-78333492Y35325895D01*
X-78370000Y35509433D01*
X-78370000Y35696567D01*
X-78333492Y35880105D01*
X-78261879Y36052994D01*
X-78157913Y36208590D01*
X-78025590Y36340913D01*
X-77869994Y36444879D01*
X-77697105Y36516492D01*
X-77605336Y36534746D01*
X-77513568Y36553000D01*
X-77326432Y36553000D01*
X-77234664Y36534746D01*
G37*
G36*
X-79734664Y36534746D02*
G01*
X-79642895Y36516492D01*
X-79470006Y36444879D01*
X-79314410Y36340913D01*
X-79182087Y36208590D01*
X-79078121Y36052994D01*
X-79006508Y35880105D01*
X-78970000Y35696567D01*
X-78970000Y35509433D01*
X-79006508Y35325895D01*
X-79078121Y35153006D01*
X-79182087Y34997410D01*
X-79314410Y34865087D01*
X-79470006Y34761121D01*
X-79642895Y34689508D01*
X-79734664Y34671254D01*
X-79826432Y34653000D01*
X-80013568Y34653000D01*
X-80105336Y34671254D01*
X-80197105Y34689508D01*
X-80369994Y34761121D01*
X-80525590Y34865087D01*
X-80657913Y34997410D01*
X-80761879Y35153006D01*
X-80833492Y35325895D01*
X-80870000Y35509433D01*
X-80870000Y35696567D01*
X-80833492Y35880105D01*
X-80761879Y36052994D01*
X-80657913Y36208590D01*
X-80525590Y36340913D01*
X-80369994Y36444879D01*
X-80197105Y36516492D01*
X-80105336Y36534746D01*
X-80013568Y36553000D01*
X-79826432Y36553000D01*
X-79734664Y36534746D01*
G37*
G36*
X-82234664Y36534746D02*
G01*
X-82142895Y36516492D01*
X-81970006Y36444879D01*
X-81814410Y36340913D01*
X-81682087Y36208590D01*
X-81578121Y36052994D01*
X-81506508Y35880105D01*
X-81470000Y35696567D01*
X-81470000Y35509433D01*
X-81506508Y35325895D01*
X-81578121Y35153006D01*
X-81682087Y34997410D01*
X-81814410Y34865087D01*
X-81970006Y34761121D01*
X-82142895Y34689508D01*
X-82234664Y34671254D01*
X-82326432Y34653000D01*
X-82513568Y34653000D01*
X-82605336Y34671254D01*
X-82697105Y34689508D01*
X-82869994Y34761121D01*
X-83025590Y34865087D01*
X-83157913Y34997410D01*
X-83261879Y35153006D01*
X-83333492Y35325895D01*
X-83370000Y35509433D01*
X-83370000Y35696567D01*
X-83333492Y35880105D01*
X-83261879Y36052994D01*
X-83157913Y36208590D01*
X-83025590Y36340913D01*
X-82869994Y36444879D01*
X-82697105Y36516492D01*
X-82605336Y36534746D01*
X-82513568Y36553000D01*
X-82326432Y36553000D01*
X-82234664Y36534746D01*
G37*
G36*
X-102234664Y36534746D02*
G01*
X-102142895Y36516492D01*
X-101970006Y36444879D01*
X-101814410Y36340913D01*
X-101682087Y36208590D01*
X-101578121Y36052994D01*
X-101506508Y35880105D01*
X-101470000Y35696567D01*
X-101470000Y35509433D01*
X-101506508Y35325895D01*
X-101578121Y35153006D01*
X-101682087Y34997410D01*
X-101814410Y34865087D01*
X-101970006Y34761121D01*
X-102142895Y34689508D01*
X-102234664Y34671254D01*
X-102326432Y34653000D01*
X-102513568Y34653000D01*
X-102605336Y34671254D01*
X-102697105Y34689508D01*
X-102869994Y34761121D01*
X-103025590Y34865087D01*
X-103157913Y34997410D01*
X-103261879Y35153006D01*
X-103333492Y35325895D01*
X-103370000Y35509433D01*
X-103370000Y35696567D01*
X-103333492Y35880105D01*
X-103261879Y36052994D01*
X-103157913Y36208590D01*
X-103025590Y36340913D01*
X-102869994Y36444879D01*
X-102697105Y36516492D01*
X-102605336Y36534746D01*
X-102513568Y36553000D01*
X-102326432Y36553000D01*
X-102234664Y36534746D01*
G37*
G36*
X-104734664Y36534746D02*
G01*
X-104642895Y36516492D01*
X-104470006Y36444879D01*
X-104314410Y36340913D01*
X-104182087Y36208590D01*
X-104078121Y36052994D01*
X-104006508Y35880105D01*
X-103970000Y35696567D01*
X-103970000Y35509433D01*
X-104006508Y35325895D01*
X-104078121Y35153006D01*
X-104182087Y34997410D01*
X-104314410Y34865087D01*
X-104470006Y34761121D01*
X-104642895Y34689508D01*
X-104734664Y34671254D01*
X-104826432Y34653000D01*
X-105013568Y34653000D01*
X-105105336Y34671254D01*
X-105197105Y34689508D01*
X-105369994Y34761121D01*
X-105525590Y34865087D01*
X-105657913Y34997410D01*
X-105761879Y35153006D01*
X-105833492Y35325895D01*
X-105870000Y35509433D01*
X-105870000Y35696567D01*
X-105833492Y35880105D01*
X-105761879Y36052994D01*
X-105657913Y36208590D01*
X-105525590Y36340913D01*
X-105369994Y36444879D01*
X-105197105Y36516492D01*
X-105105336Y36534746D01*
X-105013568Y36553000D01*
X-104826432Y36553000D01*
X-104734664Y36534746D01*
G37*
G36*
X-107234664Y36534746D02*
G01*
X-107142895Y36516492D01*
X-106970006Y36444879D01*
X-106814410Y36340913D01*
X-106682087Y36208590D01*
X-106578121Y36052994D01*
X-106506508Y35880105D01*
X-106470000Y35696567D01*
X-106470000Y35509433D01*
X-106506508Y35325895D01*
X-106578121Y35153006D01*
X-106682087Y34997410D01*
X-106814410Y34865087D01*
X-106970006Y34761121D01*
X-107142895Y34689508D01*
X-107234664Y34671254D01*
X-107326432Y34653000D01*
X-107513568Y34653000D01*
X-107605336Y34671254D01*
X-107697105Y34689508D01*
X-107869994Y34761121D01*
X-108025590Y34865087D01*
X-108157913Y34997410D01*
X-108261879Y35153006D01*
X-108333492Y35325895D01*
X-108370000Y35509433D01*
X-108370000Y35696567D01*
X-108333492Y35880105D01*
X-108261879Y36052994D01*
X-108157913Y36208590D01*
X-108025590Y36340913D01*
X-107869994Y36444879D01*
X-107697105Y36516492D01*
X-107605336Y36534746D01*
X-107513568Y36553000D01*
X-107326432Y36553000D01*
X-107234664Y36534746D01*
G37*
G36*
X-2234664Y36534746D02*
G01*
X-2142895Y36516492D01*
X-1970006Y36444879D01*
X-1814410Y36340913D01*
X-1682087Y36208590D01*
X-1578121Y36052994D01*
X-1506508Y35880105D01*
X-1470000Y35696567D01*
X-1470000Y35509433D01*
X-1506508Y35325895D01*
X-1578121Y35153006D01*
X-1682087Y34997410D01*
X-1814410Y34865087D01*
X-1970006Y34761121D01*
X-2142895Y34689508D01*
X-2234664Y34671254D01*
X-2326432Y34653000D01*
X-2513568Y34653000D01*
X-2605336Y34671254D01*
X-2697105Y34689508D01*
X-2869994Y34761121D01*
X-3025590Y34865087D01*
X-3157913Y34997410D01*
X-3261879Y35153006D01*
X-3333492Y35325895D01*
X-3370000Y35509433D01*
X-3370000Y35696567D01*
X-3333492Y35880105D01*
X-3261879Y36052994D01*
X-3157913Y36208590D01*
X-3025590Y36340913D01*
X-2869994Y36444879D01*
X-2697105Y36516492D01*
X-2605336Y36534746D01*
X-2513568Y36553000D01*
X-2326432Y36553000D01*
X-2234664Y36534746D01*
G37*
G36*
X-7234664Y36534746D02*
G01*
X-7142895Y36516492D01*
X-6970006Y36444879D01*
X-6814410Y36340913D01*
X-6682087Y36208590D01*
X-6578121Y36052994D01*
X-6506508Y35880105D01*
X-6470000Y35696567D01*
X-6470000Y35509433D01*
X-6506508Y35325895D01*
X-6578121Y35153006D01*
X-6682087Y34997410D01*
X-6814410Y34865087D01*
X-6970006Y34761121D01*
X-7142895Y34689508D01*
X-7234664Y34671254D01*
X-7326432Y34653000D01*
X-7513568Y34653000D01*
X-7605336Y34671254D01*
X-7697105Y34689508D01*
X-7869994Y34761121D01*
X-8025590Y34865087D01*
X-8157913Y34997410D01*
X-8261879Y35153006D01*
X-8333492Y35325895D01*
X-8370000Y35509433D01*
X-8370000Y35696567D01*
X-8333492Y35880105D01*
X-8261879Y36052994D01*
X-8157913Y36208590D01*
X-8025590Y36340913D01*
X-7869994Y36444879D01*
X-7697105Y36516492D01*
X-7605336Y36534746D01*
X-7513568Y36553000D01*
X-7326432Y36553000D01*
X-7234664Y36534746D01*
G37*
G36*
X-27234664Y36534746D02*
G01*
X-27142895Y36516492D01*
X-26970006Y36444879D01*
X-26814410Y36340913D01*
X-26682087Y36208590D01*
X-26578121Y36052994D01*
X-26506508Y35880105D01*
X-26470000Y35696567D01*
X-26470000Y35509433D01*
X-26506508Y35325895D01*
X-26578121Y35153006D01*
X-26682087Y34997410D01*
X-26814410Y34865087D01*
X-26970006Y34761121D01*
X-27142895Y34689508D01*
X-27234664Y34671254D01*
X-27326432Y34653000D01*
X-27513568Y34653000D01*
X-27605336Y34671254D01*
X-27697105Y34689508D01*
X-27869994Y34761121D01*
X-28025590Y34865087D01*
X-28157913Y34997410D01*
X-28261879Y35153006D01*
X-28333492Y35325895D01*
X-28370000Y35509433D01*
X-28370000Y35696567D01*
X-28333492Y35880105D01*
X-28261879Y36052994D01*
X-28157913Y36208590D01*
X-28025590Y36340913D01*
X-27869994Y36444879D01*
X-27697105Y36516492D01*
X-27605336Y36534746D01*
X-27513568Y36553000D01*
X-27326432Y36553000D01*
X-27234664Y36534746D01*
G37*
G36*
X-29734664Y36534746D02*
G01*
X-29642895Y36516492D01*
X-29470006Y36444879D01*
X-29314410Y36340913D01*
X-29182087Y36208590D01*
X-29078121Y36052994D01*
X-29006508Y35880105D01*
X-28970000Y35696567D01*
X-28970000Y35509433D01*
X-29006508Y35325895D01*
X-29078121Y35153006D01*
X-29182087Y34997410D01*
X-29314410Y34865087D01*
X-29470006Y34761121D01*
X-29642895Y34689508D01*
X-29734664Y34671254D01*
X-29826432Y34653000D01*
X-30013568Y34653000D01*
X-30105336Y34671254D01*
X-30197105Y34689508D01*
X-30369994Y34761121D01*
X-30525590Y34865087D01*
X-30657913Y34997410D01*
X-30761879Y35153006D01*
X-30833492Y35325895D01*
X-30870000Y35509433D01*
X-30870000Y35696567D01*
X-30833492Y35880105D01*
X-30761879Y36052994D01*
X-30657913Y36208590D01*
X-30525590Y36340913D01*
X-30369994Y36444879D01*
X-30197105Y36516492D01*
X-30105336Y36534746D01*
X-30013568Y36553000D01*
X-29826432Y36553000D01*
X-29734664Y36534746D01*
G37*
G36*
X-32234664Y36534746D02*
G01*
X-32142895Y36516492D01*
X-31970006Y36444879D01*
X-31814410Y36340913D01*
X-31682087Y36208590D01*
X-31578121Y36052994D01*
X-31506508Y35880105D01*
X-31470000Y35696567D01*
X-31470000Y35509433D01*
X-31506508Y35325895D01*
X-31578121Y35153006D01*
X-31682087Y34997410D01*
X-31814410Y34865087D01*
X-31970006Y34761121D01*
X-32142895Y34689508D01*
X-32234664Y34671254D01*
X-32326432Y34653000D01*
X-32513568Y34653000D01*
X-32605336Y34671254D01*
X-32697105Y34689508D01*
X-32869994Y34761121D01*
X-33025590Y34865087D01*
X-33157913Y34997410D01*
X-33261879Y35153006D01*
X-33333492Y35325895D01*
X-33370000Y35509433D01*
X-33370000Y35696567D01*
X-33333492Y35880105D01*
X-33261879Y36052994D01*
X-33157913Y36208590D01*
X-33025590Y36340913D01*
X-32869994Y36444879D01*
X-32697105Y36516492D01*
X-32605336Y36534746D01*
X-32513568Y36553000D01*
X-32326432Y36553000D01*
X-32234664Y36534746D01*
G37*
G36*
X-54734664Y36534746D02*
G01*
X-54642895Y36516492D01*
X-54470006Y36444879D01*
X-54314410Y36340913D01*
X-54182087Y36208590D01*
X-54078121Y36052994D01*
X-54006508Y35880105D01*
X-53970000Y35696567D01*
X-53970000Y35509433D01*
X-54006508Y35325895D01*
X-54078121Y35153006D01*
X-54182087Y34997410D01*
X-54314410Y34865087D01*
X-54470006Y34761121D01*
X-54642895Y34689508D01*
X-54734664Y34671254D01*
X-54826432Y34653000D01*
X-55013568Y34653000D01*
X-55105336Y34671254D01*
X-55197105Y34689508D01*
X-55369994Y34761121D01*
X-55525590Y34865087D01*
X-55657913Y34997410D01*
X-55761879Y35153006D01*
X-55833492Y35325895D01*
X-55870000Y35509433D01*
X-55870000Y35696567D01*
X-55833492Y35880105D01*
X-55761879Y36052994D01*
X-55657913Y36208590D01*
X-55525590Y36340913D01*
X-55369994Y36444879D01*
X-55197105Y36516492D01*
X-55105336Y36534746D01*
X-55013568Y36553000D01*
X-54826432Y36553000D01*
X-54734664Y36534746D01*
G37*
G36*
X-52234664Y36534746D02*
G01*
X-52142895Y36516492D01*
X-51970006Y36444879D01*
X-51814410Y36340913D01*
X-51682087Y36208590D01*
X-51578121Y36052994D01*
X-51506508Y35880105D01*
X-51470000Y35696567D01*
X-51470000Y35509433D01*
X-51506508Y35325895D01*
X-51578121Y35153006D01*
X-51682087Y34997410D01*
X-51814410Y34865087D01*
X-51970006Y34761121D01*
X-52142895Y34689508D01*
X-52234664Y34671254D01*
X-52326432Y34653000D01*
X-52513568Y34653000D01*
X-52605336Y34671254D01*
X-52697105Y34689508D01*
X-52869994Y34761121D01*
X-53025590Y34865087D01*
X-53157913Y34997410D01*
X-53261879Y35153006D01*
X-53333492Y35325895D01*
X-53370000Y35509433D01*
X-53370000Y35696567D01*
X-53333492Y35880105D01*
X-53261879Y36052994D01*
X-53157913Y36208590D01*
X-53025590Y36340913D01*
X-52869994Y36444879D01*
X-52697105Y36516492D01*
X-52605336Y36534746D01*
X-52513568Y36553000D01*
X-52326432Y36553000D01*
X-52234664Y36534746D01*
G37*
G36*
X-4734664Y36534746D02*
G01*
X-4642895Y36516492D01*
X-4470006Y36444879D01*
X-4314410Y36340913D01*
X-4182087Y36208590D01*
X-4078121Y36052994D01*
X-4006508Y35880105D01*
X-3970000Y35696567D01*
X-3970000Y35509433D01*
X-4006508Y35325895D01*
X-4078121Y35153006D01*
X-4182087Y34997410D01*
X-4314410Y34865087D01*
X-4470006Y34761121D01*
X-4642895Y34689508D01*
X-4734664Y34671254D01*
X-4826432Y34653000D01*
X-5013568Y34653000D01*
X-5105336Y34671254D01*
X-5197105Y34689508D01*
X-5369994Y34761121D01*
X-5525590Y34865087D01*
X-5657913Y34997410D01*
X-5761879Y35153006D01*
X-5833492Y35325895D01*
X-5870000Y35509433D01*
X-5870000Y35696567D01*
X-5833492Y35880105D01*
X-5761879Y36052994D01*
X-5657913Y36208590D01*
X-5525590Y36340913D01*
X-5369994Y36444879D01*
X-5197105Y36516492D01*
X-5105336Y36534746D01*
X-5013568Y36553000D01*
X-4826432Y36553000D01*
X-4734664Y36534746D01*
G37*
G36*
X-2234664Y42534746D02*
G01*
X-2142895Y42516492D01*
X-1970006Y42444879D01*
X-1814410Y42340913D01*
X-1682087Y42208590D01*
X-1578121Y42052994D01*
X-1506508Y41880105D01*
X-1470000Y41696567D01*
X-1470000Y41509433D01*
X-1506508Y41325895D01*
X-1578121Y41153006D01*
X-1682087Y40997410D01*
X-1814410Y40865087D01*
X-1970006Y40761121D01*
X-2142895Y40689508D01*
X-2234664Y40671254D01*
X-2326432Y40653000D01*
X-2513568Y40653000D01*
X-2605336Y40671254D01*
X-2697105Y40689508D01*
X-2869994Y40761121D01*
X-3025590Y40865087D01*
X-3157913Y40997410D01*
X-3261879Y41153006D01*
X-3333492Y41325895D01*
X-3370000Y41509433D01*
X-3370000Y41696567D01*
X-3333492Y41880105D01*
X-3261879Y42052994D01*
X-3157913Y42208590D01*
X-3025590Y42340913D01*
X-2869994Y42444879D01*
X-2697105Y42516492D01*
X-2605336Y42534746D01*
X-2513568Y42553000D01*
X-2326432Y42553000D01*
X-2234664Y42534746D01*
G37*
G36*
X-107234664Y42534746D02*
G01*
X-107142895Y42516492D01*
X-106970006Y42444879D01*
X-106814410Y42340913D01*
X-106682087Y42208590D01*
X-106578121Y42052994D01*
X-106506508Y41880105D01*
X-106470000Y41696567D01*
X-106470000Y41509433D01*
X-106506508Y41325895D01*
X-106578121Y41153006D01*
X-106682087Y40997410D01*
X-106814410Y40865087D01*
X-106970006Y40761121D01*
X-107142895Y40689508D01*
X-107234664Y40671254D01*
X-107326432Y40653000D01*
X-107513568Y40653000D01*
X-107605336Y40671254D01*
X-107697105Y40689508D01*
X-107869994Y40761121D01*
X-108025590Y40865087D01*
X-108157913Y40997410D01*
X-108261879Y41153006D01*
X-108333492Y41325895D01*
X-108370000Y41509433D01*
X-108370000Y41696567D01*
X-108333492Y41880105D01*
X-108261879Y42052994D01*
X-108157913Y42208590D01*
X-108025590Y42340913D01*
X-107869994Y42444879D01*
X-107697105Y42516492D01*
X-107605336Y42534746D01*
X-107513568Y42553000D01*
X-107326432Y42553000D01*
X-107234664Y42534746D01*
G37*
G36*
X-82234664Y42534746D02*
G01*
X-82142895Y42516492D01*
X-81970006Y42444879D01*
X-81814410Y42340913D01*
X-81682087Y42208590D01*
X-81578121Y42052994D01*
X-81506508Y41880105D01*
X-81470000Y41696567D01*
X-81470000Y41509433D01*
X-81506508Y41325895D01*
X-81578121Y41153006D01*
X-81682087Y40997410D01*
X-81814410Y40865087D01*
X-81970006Y40761121D01*
X-82142895Y40689508D01*
X-82234664Y40671254D01*
X-82326432Y40653000D01*
X-82513568Y40653000D01*
X-82605336Y40671254D01*
X-82697105Y40689508D01*
X-82869994Y40761121D01*
X-83025590Y40865087D01*
X-83157913Y40997410D01*
X-83261879Y41153006D01*
X-83333492Y41325895D01*
X-83370000Y41509433D01*
X-83370000Y41696567D01*
X-83333492Y41880105D01*
X-83261879Y42052994D01*
X-83157913Y42208590D01*
X-83025590Y42340913D01*
X-82869994Y42444879D01*
X-82697105Y42516492D01*
X-82605336Y42534746D01*
X-82513568Y42553000D01*
X-82326432Y42553000D01*
X-82234664Y42534746D01*
G37*
G36*
X-79734664Y42534746D02*
G01*
X-79642895Y42516492D01*
X-79470006Y42444879D01*
X-79314410Y42340913D01*
X-79182087Y42208590D01*
X-79078121Y42052994D01*
X-79006508Y41880105D01*
X-78970000Y41696567D01*
X-78970000Y41509433D01*
X-79006508Y41325895D01*
X-79078121Y41153006D01*
X-79182087Y40997410D01*
X-79314410Y40865087D01*
X-79470006Y40761121D01*
X-79642895Y40689508D01*
X-79734664Y40671254D01*
X-79826432Y40653000D01*
X-80013568Y40653000D01*
X-80105336Y40671254D01*
X-80197105Y40689508D01*
X-80369994Y40761121D01*
X-80525590Y40865087D01*
X-80657913Y40997410D01*
X-80761879Y41153006D01*
X-80833492Y41325895D01*
X-80870000Y41509433D01*
X-80870000Y41696567D01*
X-80833492Y41880105D01*
X-80761879Y42052994D01*
X-80657913Y42208590D01*
X-80525590Y42340913D01*
X-80369994Y42444879D01*
X-80197105Y42516492D01*
X-80105336Y42534746D01*
X-80013568Y42553000D01*
X-79826432Y42553000D01*
X-79734664Y42534746D01*
G37*
G36*
X-77234664Y42534746D02*
G01*
X-77142895Y42516492D01*
X-76970006Y42444879D01*
X-76814410Y42340913D01*
X-76682087Y42208590D01*
X-76578121Y42052994D01*
X-76506508Y41880105D01*
X-76470000Y41696567D01*
X-76470000Y41509433D01*
X-76506508Y41325895D01*
X-76578121Y41153006D01*
X-76682087Y40997410D01*
X-76814410Y40865087D01*
X-76970006Y40761121D01*
X-77142895Y40689508D01*
X-77234664Y40671254D01*
X-77326432Y40653000D01*
X-77513568Y40653000D01*
X-77605336Y40671254D01*
X-77697105Y40689508D01*
X-77869994Y40761121D01*
X-78025590Y40865087D01*
X-78157913Y40997410D01*
X-78261879Y41153006D01*
X-78333492Y41325895D01*
X-78370000Y41509433D01*
X-78370000Y41696567D01*
X-78333492Y41880105D01*
X-78261879Y42052994D01*
X-78157913Y42208590D01*
X-78025590Y42340913D01*
X-77869994Y42444879D01*
X-77697105Y42516492D01*
X-77605336Y42534746D01*
X-77513568Y42553000D01*
X-77326432Y42553000D01*
X-77234664Y42534746D01*
G37*
G36*
X-57234664Y42534746D02*
G01*
X-57142895Y42516492D01*
X-56970006Y42444879D01*
X-56814410Y42340913D01*
X-56682087Y42208590D01*
X-56578121Y42052994D01*
X-56506508Y41880105D01*
X-56470000Y41696567D01*
X-56470000Y41509433D01*
X-56506508Y41325895D01*
X-56578121Y41153006D01*
X-56682087Y40997410D01*
X-56814410Y40865087D01*
X-56970006Y40761121D01*
X-57142895Y40689508D01*
X-57234664Y40671254D01*
X-57326432Y40653000D01*
X-57513568Y40653000D01*
X-57605336Y40671254D01*
X-57697105Y40689508D01*
X-57869994Y40761121D01*
X-58025590Y40865087D01*
X-58157913Y40997410D01*
X-58261879Y41153006D01*
X-58333492Y41325895D01*
X-58370000Y41509433D01*
X-58370000Y41696567D01*
X-58333492Y41880105D01*
X-58261879Y42052994D01*
X-58157913Y42208590D01*
X-58025590Y42340913D01*
X-57869994Y42444879D01*
X-57697105Y42516492D01*
X-57605336Y42534746D01*
X-57513568Y42553000D01*
X-57326432Y42553000D01*
X-57234664Y42534746D01*
G37*
G36*
X-4734664Y42534746D02*
G01*
X-4642895Y42516492D01*
X-4470006Y42444879D01*
X-4314410Y42340913D01*
X-4182087Y42208590D01*
X-4078121Y42052994D01*
X-4006508Y41880105D01*
X-3970000Y41696567D01*
X-3970000Y41509433D01*
X-4006508Y41325895D01*
X-4078121Y41153006D01*
X-4182087Y40997410D01*
X-4314410Y40865087D01*
X-4470006Y40761121D01*
X-4642895Y40689508D01*
X-4734664Y40671254D01*
X-4826432Y40653000D01*
X-5013568Y40653000D01*
X-5105336Y40671254D01*
X-5197105Y40689508D01*
X-5369994Y40761121D01*
X-5525590Y40865087D01*
X-5657913Y40997410D01*
X-5761879Y41153006D01*
X-5833492Y41325895D01*
X-5870000Y41509433D01*
X-5870000Y41696567D01*
X-5833492Y41880105D01*
X-5761879Y42052994D01*
X-5657913Y42208590D01*
X-5525590Y42340913D01*
X-5369994Y42444879D01*
X-5197105Y42516492D01*
X-5105336Y42534746D01*
X-5013568Y42553000D01*
X-4826432Y42553000D01*
X-4734664Y42534746D01*
G37*
G36*
X-52234664Y42534746D02*
G01*
X-52142895Y42516492D01*
X-51970006Y42444879D01*
X-51814410Y42340913D01*
X-51682087Y42208590D01*
X-51578121Y42052994D01*
X-51506508Y41880105D01*
X-51470000Y41696567D01*
X-51470000Y41509433D01*
X-51506508Y41325895D01*
X-51578121Y41153006D01*
X-51682087Y40997410D01*
X-51814410Y40865087D01*
X-51970006Y40761121D01*
X-52142895Y40689508D01*
X-52234664Y40671254D01*
X-52326432Y40653000D01*
X-52513568Y40653000D01*
X-52605336Y40671254D01*
X-52697105Y40689508D01*
X-52869994Y40761121D01*
X-53025590Y40865087D01*
X-53157913Y40997410D01*
X-53261879Y41153006D01*
X-53333492Y41325895D01*
X-53370000Y41509433D01*
X-53370000Y41696567D01*
X-53333492Y41880105D01*
X-53261879Y42052994D01*
X-53157913Y42208590D01*
X-53025590Y42340913D01*
X-52869994Y42444879D01*
X-52697105Y42516492D01*
X-52605336Y42534746D01*
X-52513568Y42553000D01*
X-52326432Y42553000D01*
X-52234664Y42534746D01*
G37*
G36*
X-32234664Y42534746D02*
G01*
X-32142895Y42516492D01*
X-31970006Y42444879D01*
X-31814410Y42340913D01*
X-31682087Y42208590D01*
X-31578121Y42052994D01*
X-31506508Y41880105D01*
X-31470000Y41696567D01*
X-31470000Y41509433D01*
X-31506508Y41325895D01*
X-31578121Y41153006D01*
X-31682087Y40997410D01*
X-31814410Y40865087D01*
X-31970006Y40761121D01*
X-32142895Y40689508D01*
X-32234664Y40671254D01*
X-32326432Y40653000D01*
X-32513568Y40653000D01*
X-32605336Y40671254D01*
X-32697105Y40689508D01*
X-32869994Y40761121D01*
X-33025590Y40865087D01*
X-33157913Y40997410D01*
X-33261879Y41153006D01*
X-33333492Y41325895D01*
X-33370000Y41509433D01*
X-33370000Y41696567D01*
X-33333492Y41880105D01*
X-33261879Y42052994D01*
X-33157913Y42208590D01*
X-33025590Y42340913D01*
X-32869994Y42444879D01*
X-32697105Y42516492D01*
X-32605336Y42534746D01*
X-32513568Y42553000D01*
X-32326432Y42553000D01*
X-32234664Y42534746D01*
G37*
G36*
X-29734664Y42534746D02*
G01*
X-29642895Y42516492D01*
X-29470006Y42444879D01*
X-29314410Y42340913D01*
X-29182087Y42208590D01*
X-29078121Y42052994D01*
X-29006508Y41880105D01*
X-28970000Y41696567D01*
X-28970000Y41509433D01*
X-29006508Y41325895D01*
X-29078121Y41153006D01*
X-29182087Y40997410D01*
X-29314410Y40865087D01*
X-29470006Y40761121D01*
X-29642895Y40689508D01*
X-29734664Y40671254D01*
X-29826432Y40653000D01*
X-30013568Y40653000D01*
X-30105336Y40671254D01*
X-30197105Y40689508D01*
X-30369994Y40761121D01*
X-30525590Y40865087D01*
X-30657913Y40997410D01*
X-30761879Y41153006D01*
X-30833492Y41325895D01*
X-30870000Y41509433D01*
X-30870000Y41696567D01*
X-30833492Y41880105D01*
X-30761879Y42052994D01*
X-30657913Y42208590D01*
X-30525590Y42340913D01*
X-30369994Y42444879D01*
X-30197105Y42516492D01*
X-30105336Y42534746D01*
X-30013568Y42553000D01*
X-29826432Y42553000D01*
X-29734664Y42534746D01*
G37*
G36*
X-27234664Y42534746D02*
G01*
X-27142895Y42516492D01*
X-26970006Y42444879D01*
X-26814410Y42340913D01*
X-26682087Y42208590D01*
X-26578121Y42052994D01*
X-26506508Y41880105D01*
X-26470000Y41696567D01*
X-26470000Y41509433D01*
X-26506508Y41325895D01*
X-26578121Y41153006D01*
X-26682087Y40997410D01*
X-26814410Y40865087D01*
X-26970006Y40761121D01*
X-27142895Y40689508D01*
X-27234664Y40671254D01*
X-27326432Y40653000D01*
X-27513568Y40653000D01*
X-27605336Y40671254D01*
X-27697105Y40689508D01*
X-27869994Y40761121D01*
X-28025590Y40865087D01*
X-28157913Y40997410D01*
X-28261879Y41153006D01*
X-28333492Y41325895D01*
X-28370000Y41509433D01*
X-28370000Y41696567D01*
X-28333492Y41880105D01*
X-28261879Y42052994D01*
X-28157913Y42208590D01*
X-28025590Y42340913D01*
X-27869994Y42444879D01*
X-27697105Y42516492D01*
X-27605336Y42534746D01*
X-27513568Y42553000D01*
X-27326432Y42553000D01*
X-27234664Y42534746D01*
G37*
G36*
X-7234664Y42534746D02*
G01*
X-7142895Y42516492D01*
X-6970006Y42444879D01*
X-6814410Y42340913D01*
X-6682087Y42208590D01*
X-6578121Y42052994D01*
X-6506508Y41880105D01*
X-6470000Y41696567D01*
X-6470000Y41509433D01*
X-6506508Y41325895D01*
X-6578121Y41153006D01*
X-6682087Y40997410D01*
X-6814410Y40865087D01*
X-6970006Y40761121D01*
X-7142895Y40689508D01*
X-7234664Y40671254D01*
X-7326432Y40653000D01*
X-7513568Y40653000D01*
X-7605336Y40671254D01*
X-7697105Y40689508D01*
X-7869994Y40761121D01*
X-8025590Y40865087D01*
X-8157913Y40997410D01*
X-8261879Y41153006D01*
X-8333492Y41325895D01*
X-8370000Y41509433D01*
X-8370000Y41696567D01*
X-8333492Y41880105D01*
X-8261879Y42052994D01*
X-8157913Y42208590D01*
X-8025590Y42340913D01*
X-7869994Y42444879D01*
X-7697105Y42516492D01*
X-7605336Y42534746D01*
X-7513568Y42553000D01*
X-7326432Y42553000D01*
X-7234664Y42534746D01*
G37*
G36*
X-102234664Y42534746D02*
G01*
X-102142895Y42516492D01*
X-101970006Y42444879D01*
X-101814410Y42340913D01*
X-101682087Y42208590D01*
X-101578121Y42052994D01*
X-101506508Y41880105D01*
X-101470000Y41696567D01*
X-101470000Y41509433D01*
X-101506508Y41325895D01*
X-101578121Y41153006D01*
X-101682087Y40997410D01*
X-101814410Y40865087D01*
X-101970006Y40761121D01*
X-102142895Y40689508D01*
X-102234664Y40671254D01*
X-102326432Y40653000D01*
X-102513568Y40653000D01*
X-102605336Y40671254D01*
X-102697105Y40689508D01*
X-102869994Y40761121D01*
X-103025590Y40865087D01*
X-103157913Y40997410D01*
X-103261879Y41153006D01*
X-103333492Y41325895D01*
X-103370000Y41509433D01*
X-103370000Y41696567D01*
X-103333492Y41880105D01*
X-103261879Y42052994D01*
X-103157913Y42208590D01*
X-103025590Y42340913D01*
X-102869994Y42444879D01*
X-102697105Y42516492D01*
X-102605336Y42534746D01*
X-102513568Y42553000D01*
X-102326432Y42553000D01*
X-102234664Y42534746D01*
G37*
G36*
X-104734664Y42534746D02*
G01*
X-104642895Y42516492D01*
X-104470006Y42444879D01*
X-104314410Y42340913D01*
X-104182087Y42208590D01*
X-104078121Y42052994D01*
X-104006508Y41880105D01*
X-103970000Y41696567D01*
X-103970000Y41509433D01*
X-104006508Y41325895D01*
X-104078121Y41153006D01*
X-104182087Y40997410D01*
X-104314410Y40865087D01*
X-104470006Y40761121D01*
X-104642895Y40689508D01*
X-104734664Y40671254D01*
X-104826432Y40653000D01*
X-105013568Y40653000D01*
X-105105336Y40671254D01*
X-105197105Y40689508D01*
X-105369994Y40761121D01*
X-105525590Y40865087D01*
X-105657913Y40997410D01*
X-105761879Y41153006D01*
X-105833492Y41325895D01*
X-105870000Y41509433D01*
X-105870000Y41696567D01*
X-105833492Y41880105D01*
X-105761879Y42052994D01*
X-105657913Y42208590D01*
X-105525590Y42340913D01*
X-105369994Y42444879D01*
X-105197105Y42516492D01*
X-105105336Y42534746D01*
X-105013568Y42553000D01*
X-104826432Y42553000D01*
X-104734664Y42534746D01*
G37*
G36*
X-54734664Y42534746D02*
G01*
X-54642895Y42516492D01*
X-54470006Y42444879D01*
X-54314410Y42340913D01*
X-54182087Y42208590D01*
X-54078121Y42052994D01*
X-54006508Y41880105D01*
X-53970000Y41696567D01*
X-53970000Y41509433D01*
X-54006508Y41325895D01*
X-54078121Y41153006D01*
X-54182087Y40997410D01*
X-54314410Y40865087D01*
X-54470006Y40761121D01*
X-54642895Y40689508D01*
X-54734664Y40671254D01*
X-54826432Y40653000D01*
X-55013568Y40653000D01*
X-55105336Y40671254D01*
X-55197105Y40689508D01*
X-55369994Y40761121D01*
X-55525590Y40865087D01*
X-55657913Y40997410D01*
X-55761879Y41153006D01*
X-55833492Y41325895D01*
X-55870000Y41509433D01*
X-55870000Y41696567D01*
X-55833492Y41880105D01*
X-55761879Y42052994D01*
X-55657913Y42208590D01*
X-55525590Y42340913D01*
X-55369994Y42444879D01*
X-55197105Y42516492D01*
X-55105336Y42534746D01*
X-55013568Y42553000D01*
X-54826432Y42553000D01*
X-54734664Y42534746D01*
G37*
M02*
