G04 #@! TF.GenerationSoftware,KiCad,Pcbnew,(5.0.0-3-g5ebb6b6)*
G04 #@! TF.CreationDate,2018-09-04T13:52:00-05:00*
G04 #@! TF.ProjectId,Timer,54696D65722E6B696361645F70636200,rev?*
G04 #@! TF.SameCoordinates,PX2adb310PY3938700*
G04 #@! TF.FileFunction,Copper,L2,Bot,Signal*
G04 #@! TF.FilePolarity,Positive*
%FSLAX46Y46*%
G04 Gerber Fmt 4.6, Leading zero omitted, Abs format (unit mm)*
G04 Created by KiCad (PCBNEW (5.0.0-3-g5ebb6b6)) date Tuesday, September 04, 2018 at 01:52:00 PM*
%MOMM*%
%LPD*%
G01*
G04 APERTURE LIST*
G04 #@! TA.AperFunction,SMDPad,CuDef*
%ADD10R,1.700000X2.000000*%
G04 #@! TD*
G04 #@! TA.AperFunction,ComponentPad*
%ADD11C,1.524000*%
G04 #@! TD*
G04 #@! TA.AperFunction,WasherPad*
%ADD12C,3.500000*%
G04 #@! TD*
G04 #@! TA.AperFunction,ComponentPad*
%ADD13R,1.600000X1.600000*%
G04 #@! TD*
G04 #@! TA.AperFunction,ComponentPad*
%ADD14O,1.600000X1.600000*%
G04 #@! TD*
G04 #@! TA.AperFunction,ComponentPad*
%ADD15C,1.500000*%
G04 #@! TD*
G04 #@! TA.AperFunction,ComponentPad*
%ADD16R,2.800000X2.800000*%
G04 #@! TD*
G04 #@! TA.AperFunction,ComponentPad*
%ADD17O,2.800000X2.800000*%
G04 #@! TD*
G04 #@! TA.AperFunction,SMDPad,CuDef*
%ADD18R,2.000000X1.700000*%
G04 #@! TD*
G04 #@! TA.AperFunction,SMDPad,CuDef*
%ADD19R,1.600000X2.000000*%
G04 #@! TD*
G04 #@! TA.AperFunction,SMDPad,CuDef*
%ADD20R,2.000000X1.600000*%
G04 #@! TD*
G04 #@! TA.AperFunction,SMDPad,CuDef*
%ADD21R,1.000000X1.000000*%
G04 #@! TD*
G04 #@! TA.AperFunction,SMDPad,CuDef*
%ADD22R,0.900000X1.200000*%
G04 #@! TD*
G04 #@! TA.AperFunction,SMDPad,CuDef*
%ADD23R,1.060000X0.650000*%
G04 #@! TD*
G04 #@! TA.AperFunction,Conductor*
%ADD24C,0.400000*%
G04 #@! TD*
G04 #@! TA.AperFunction,Conductor*
%ADD25C,1.000000*%
G04 #@! TD*
G04 APERTURE END LIST*
D10*
G04 #@! TO.P,R1,1*
G04 #@! TO.N,Net-(CN1-Pad2)*
X48006000Y-16986000D03*
G04 #@! TO.P,R1,2*
G04 #@! TO.N,Net-(D1-Pad2)*
X48006000Y-12986000D03*
G04 #@! TD*
D11*
G04 #@! TO.P,CN1,1*
G04 #@! TO.N,N/C*
X51912000Y-12500000D03*
G04 #@! TO.P,CN1,2*
G04 #@! TO.N,Net-(CN1-Pad2)*
X53172000Y-15000000D03*
G04 #@! TO.P,CN1,3*
G04 #@! TO.N,Net-(CN1-Pad3)*
X54432000Y-12500000D03*
G04 #@! TO.P,CN1,4*
G04 #@! TO.N,Net-(C3-Pad1)*
X55692000Y-15000000D03*
G04 #@! TO.P,CN1,5*
G04 #@! TO.N,GND*
X56951000Y-12500000D03*
G04 #@! TO.P,CN1,6*
G04 #@! TO.N,N/C*
X58212000Y-15000000D03*
D12*
G04 #@! TO.P,CN1,*
G04 #@! TO.N,*
X50062000Y-6000000D03*
X60062000Y-6000000D03*
G04 #@! TD*
D13*
G04 #@! TO.P,RN1,1*
G04 #@! TO.N,+3V3*
X42312000Y-17750000D03*
D14*
G04 #@! TO.P,RN1,2*
G04 #@! TO.N,Net-(RN1-Pad2)*
X42312000Y-20290000D03*
G04 #@! TO.P,RN1,3*
G04 #@! TO.N,Net-(RN1-Pad3)*
X42312000Y-22830000D03*
G04 #@! TO.P,RN1,4*
G04 #@! TO.N,Net-(RN1-Pad4)*
X42312000Y-25370000D03*
G04 #@! TO.P,RN1,5*
G04 #@! TO.N,Net-(RN1-Pad5)*
X42312000Y-27910000D03*
G04 #@! TO.P,RN1,6*
G04 #@! TO.N,N/C*
X42312000Y-30450000D03*
G04 #@! TD*
D15*
G04 #@! TO.P,S5,3*
G04 #@! TO.N,N/C*
X7562000Y-37000000D03*
G04 #@! TO.P,S5,2*
G04 #@! TO.N,GND*
X5062000Y-37000000D03*
G04 #@! TO.P,S5,1*
G04 #@! TO.N,Net-(R6-Pad2)*
X2562000Y-37000000D03*
G04 #@! TO.P,S5,6*
G04 #@! TO.N,N/C*
X2562000Y-43000000D03*
G04 #@! TO.P,S5,5*
X5062000Y-43000000D03*
G04 #@! TO.P,S5,4*
X7562000Y-43000000D03*
G04 #@! TD*
G04 #@! TO.P,S1,3*
G04 #@! TO.N,N/C*
X32562000Y-37000000D03*
G04 #@! TO.P,S1,2*
G04 #@! TO.N,GND*
X30062000Y-37000000D03*
G04 #@! TO.P,S1,1*
G04 #@! TO.N,Net-(RN1-Pad5)*
X27562000Y-37000000D03*
G04 #@! TO.P,S1,6*
G04 #@! TO.N,N/C*
X27562000Y-43000000D03*
G04 #@! TO.P,S1,5*
X30062000Y-43000000D03*
G04 #@! TO.P,S1,4*
X32562000Y-43000000D03*
G04 #@! TD*
G04 #@! TO.P,S2,3*
G04 #@! TO.N,N/C*
X57562000Y-37000000D03*
G04 #@! TO.P,S2,2*
G04 #@! TO.N,GND*
X55062000Y-37000000D03*
G04 #@! TO.P,S2,1*
G04 #@! TO.N,Net-(RN1-Pad4)*
X52562000Y-37000000D03*
G04 #@! TO.P,S2,6*
G04 #@! TO.N,N/C*
X52562000Y-43000000D03*
G04 #@! TO.P,S2,5*
X55062000Y-43000000D03*
G04 #@! TO.P,S2,4*
X57562000Y-43000000D03*
G04 #@! TD*
G04 #@! TO.P,S3,3*
G04 #@! TO.N,N/C*
X82562000Y-37000000D03*
G04 #@! TO.P,S3,2*
G04 #@! TO.N,GND*
X80062000Y-37000000D03*
G04 #@! TO.P,S3,1*
G04 #@! TO.N,Net-(RN1-Pad3)*
X77562000Y-37000000D03*
G04 #@! TO.P,S3,6*
G04 #@! TO.N,N/C*
X77562000Y-43000000D03*
G04 #@! TO.P,S3,5*
X80062000Y-43000000D03*
G04 #@! TO.P,S3,4*
X82562000Y-43000000D03*
G04 #@! TD*
G04 #@! TO.P,S4,3*
G04 #@! TO.N,N/C*
X107562000Y-37000000D03*
G04 #@! TO.P,S4,2*
G04 #@! TO.N,Net-(RN1-Pad2)*
X105062000Y-37000000D03*
G04 #@! TO.P,S4,1*
G04 #@! TO.N,GND*
X102562000Y-37000000D03*
G04 #@! TO.P,S4,6*
G04 #@! TO.N,N/C*
X102562000Y-43000000D03*
G04 #@! TO.P,S4,5*
X105062000Y-43000000D03*
G04 #@! TO.P,S4,4*
X107562000Y-43000000D03*
G04 #@! TD*
D13*
G04 #@! TO.P,U2,1*
G04 #@! TO.N,/~LOAD~*
X26812000Y-15250000D03*
D14*
G04 #@! TO.P,U2,9*
G04 #@! TO.N,/Q*
X34432000Y-33030000D03*
G04 #@! TO.P,U2,2*
G04 #@! TO.N,/CLK*
X26812000Y-17790000D03*
G04 #@! TO.P,U2,10*
G04 #@! TO.N,GND*
X34432000Y-30490000D03*
G04 #@! TO.P,U2,3*
G04 #@! TO.N,+3V3*
X26812000Y-20330000D03*
G04 #@! TO.P,U2,11*
G04 #@! TO.N,Net-(RN1-Pad5)*
X34432000Y-27950000D03*
G04 #@! TO.P,U2,4*
G04 #@! TO.N,GND*
X26812000Y-22870000D03*
G04 #@! TO.P,U2,12*
G04 #@! TO.N,Net-(RN1-Pad4)*
X34432000Y-25410000D03*
G04 #@! TO.P,U2,5*
G04 #@! TO.N,GND*
X26812000Y-25410000D03*
G04 #@! TO.P,U2,13*
G04 #@! TO.N,Net-(RN1-Pad3)*
X34432000Y-22870000D03*
G04 #@! TO.P,U2,6*
G04 #@! TO.N,Net-(R6-Pad2)*
X26812000Y-27950000D03*
G04 #@! TO.P,U2,14*
G04 #@! TO.N,Net-(RN1-Pad2)*
X34432000Y-20330000D03*
G04 #@! TO.P,U2,7*
G04 #@! TO.N,N/C*
X26812000Y-30490000D03*
G04 #@! TO.P,U2,15*
G04 #@! TO.N,GND*
X34432000Y-17790000D03*
G04 #@! TO.P,U2,8*
X26812000Y-33030000D03*
G04 #@! TO.P,U2,16*
G04 #@! TO.N,+3V3*
X34432000Y-15250000D03*
G04 #@! TD*
D16*
G04 #@! TO.P,D2,1*
G04 #@! TO.N,GND*
X55062000Y-21500000D03*
D17*
G04 #@! TO.P,D2,2*
G04 #@! TO.N,Net-(D2-Pad2)*
X65222000Y-21500000D03*
G04 #@! TD*
D10*
G04 #@! TO.P,R2,1*
G04 #@! TO.N,Net-(D2-Pad2)*
X59436000Y-23590000D03*
G04 #@! TO.P,R2,2*
G04 #@! TO.N,Net-(CN1-Pad2)*
X59436000Y-19590000D03*
G04 #@! TD*
D18*
G04 #@! TO.P,R5,1*
G04 #@! TO.N,Net-(C3-Pad1)*
X52062000Y-33000000D03*
G04 #@! TO.P,R5,2*
G04 #@! TO.N,/Q*
X48062000Y-33000000D03*
G04 #@! TD*
G04 #@! TO.P,R4,1*
G04 #@! TO.N,/~LOAD~*
X32062000Y-6000000D03*
G04 #@! TO.P,R4,2*
G04 #@! TO.N,Net-(CN1-Pad3)*
X36062000Y-6000000D03*
G04 #@! TD*
D19*
G04 #@! TO.P,C1,1*
G04 #@! TO.N,+5V*
X37312000Y-12250000D03*
G04 #@! TO.P,C1,2*
G04 #@! TO.N,GND*
X37312000Y-16250000D03*
G04 #@! TD*
D20*
G04 #@! TO.P,C3,1*
G04 #@! TO.N,Net-(C3-Pad1)*
X55658000Y-27686000D03*
G04 #@! TO.P,C3,2*
G04 #@! TO.N,GND*
X59658000Y-27686000D03*
G04 #@! TD*
D21*
G04 #@! TO.P,D3,1*
G04 #@! TO.N,+5V*
X39878000Y-13228000D03*
G04 #@! TO.P,D3,2*
G04 #@! TO.N,GND*
X39878000Y-15728000D03*
G04 #@! TD*
D22*
G04 #@! TO.P,D1,1*
G04 #@! TO.N,+5V*
X42038000Y-12954000D03*
G04 #@! TO.P,D1,2*
G04 #@! TO.N,Net-(D1-Pad2)*
X45338000Y-12954000D03*
G04 #@! TD*
D21*
G04 #@! TO.P,D4,1*
G04 #@! TO.N,+3V3*
X24130000Y-20340000D03*
G04 #@! TO.P,D4,2*
G04 #@! TO.N,GND*
X24130000Y-22840000D03*
G04 #@! TD*
D18*
G04 #@! TO.P,R3,1*
G04 #@! TO.N,/CLK*
X26062000Y-9000000D03*
G04 #@! TO.P,R3,2*
G04 #@! TO.N,Net-(CN1-Pad2)*
X30062000Y-9000000D03*
G04 #@! TD*
D23*
G04 #@! TO.P,U1,1*
G04 #@! TO.N,+5V*
X29962000Y-15450000D03*
G04 #@! TO.P,U1,2*
G04 #@! TO.N,GND*
X29962000Y-14500000D03*
G04 #@! TO.P,U1,3*
G04 #@! TO.N,+5V*
X29962000Y-13550000D03*
G04 #@! TO.P,U1,4*
G04 #@! TO.N,N/C*
X32162000Y-13550000D03*
G04 #@! TO.P,U1,5*
G04 #@! TO.N,+3V3*
X32162000Y-15450000D03*
G04 #@! TD*
D10*
G04 #@! TO.P,R6,1*
G04 #@! TO.N,+3V3*
X20312000Y-20500000D03*
G04 #@! TO.P,R6,2*
G04 #@! TO.N,Net-(R6-Pad2)*
X20312000Y-24500000D03*
G04 #@! TD*
D19*
G04 #@! TO.P,C2,1*
G04 #@! TO.N,GND*
X29312000Y-23750000D03*
G04 #@! TO.P,C2,2*
G04 #@! TO.N,+3V3*
X29312000Y-19750000D03*
G04 #@! TD*
D24*
G04 #@! TO.N,+3V3*
X31312000Y-11750000D02*
X29312000Y-11750000D01*
X41862000Y-10500000D02*
X32562000Y-10500000D01*
X32562000Y-10500000D02*
X31312000Y-11750000D01*
X42312000Y-17750000D02*
X43262000Y-16800000D01*
X43262000Y-11900000D02*
X42462000Y-11100000D01*
X43262000Y-16800000D02*
X43262000Y-11900000D01*
X42462000Y-11100000D02*
X41862000Y-10500000D01*
X28462000Y-18900000D02*
X29312000Y-19750000D01*
X28462000Y-12600000D02*
X28462000Y-18900000D01*
X29312000Y-11750000D02*
X28462000Y-12600000D01*
D25*
X32162000Y-15450000D02*
X34232000Y-15450000D01*
D24*
X34232000Y-15450000D02*
X34432000Y-15250000D01*
D25*
X29312000Y-19750000D02*
X32162000Y-16900000D01*
X32162000Y-16900000D02*
X32162000Y-15450000D01*
X24130000Y-20340000D02*
X20472000Y-20340000D01*
D24*
X20472000Y-20340000D02*
X20312000Y-20500000D01*
D25*
X24130000Y-20340000D02*
X26802000Y-20340000D01*
D24*
X24130000Y-19990000D02*
X23730000Y-19990000D01*
X23990000Y-20130000D02*
X24130000Y-19990000D01*
X29312000Y-20500000D02*
X29312000Y-19202000D01*
X29142000Y-20330000D02*
X29312000Y-20500000D01*
X26802000Y-20340000D02*
X26812000Y-20330000D01*
D25*
X26812000Y-20330000D02*
X29142000Y-20330000D01*
G04 #@! TO.N,GND*
X34432000Y-17790000D02*
X35772000Y-17790000D01*
X35772000Y-17790000D02*
X37312000Y-16250000D01*
X37312000Y-16250000D02*
X39356000Y-16250000D01*
X39356000Y-16250000D02*
X39878000Y-15728000D01*
D24*
X33737000Y-13925000D02*
X35487000Y-13925000D01*
X35487000Y-13925000D02*
X37312000Y-15750000D01*
X29962000Y-14500000D02*
X33162000Y-14500000D01*
X33162000Y-14500000D02*
X33737000Y-13925000D01*
X33737000Y-13925000D02*
X33762000Y-13900000D01*
X29312000Y-23750000D02*
X29312000Y-22910000D01*
X29312000Y-22910000D02*
X34432000Y-17790000D01*
D25*
X26812000Y-22870000D02*
X27692000Y-23750000D01*
X27692000Y-23750000D02*
X29312000Y-23750000D01*
X62542000Y-13520000D02*
X62542000Y-19520000D01*
D24*
X62542000Y-19520000D02*
X60562000Y-21500000D01*
D25*
X82022000Y-33000000D02*
X84522000Y-35500000D01*
X84522000Y-35500000D02*
X101062000Y-35500000D01*
X102562000Y-37000000D02*
X101062000Y-35500000D01*
X82022000Y-33000000D02*
X65086000Y-16064000D01*
D24*
X26812000Y-25410000D02*
X28812000Y-27410000D01*
X26812000Y-33030000D02*
X28812000Y-31030000D01*
X34432000Y-30490000D02*
X32512000Y-32410000D01*
X30062000Y-37000000D02*
X32512000Y-34550000D01*
X32512000Y-33782000D02*
X32512000Y-32410000D01*
X32512000Y-34550000D02*
X32512000Y-33782000D01*
D25*
X5062000Y-37000000D02*
X7562000Y-39500000D01*
X26812000Y-33030000D02*
X20342000Y-39500000D01*
X30062000Y-37000000D02*
X27562000Y-39500000D01*
X55062000Y-37000000D02*
X52562000Y-39500000D01*
X80062000Y-37000000D02*
X77562000Y-39500000D01*
X102562000Y-37000000D02*
X100062000Y-39500000D01*
X100062000Y-39500000D02*
X78562000Y-39500000D01*
X59658000Y-27686000D02*
X55062000Y-23090000D01*
X55062000Y-23090000D02*
X55062000Y-21500000D01*
D24*
X34442000Y-30500000D02*
X34432000Y-30490000D01*
X59658000Y-27686000D02*
X59182000Y-27686000D01*
D25*
X57767000Y-11684000D02*
X56951000Y-12500000D01*
X65086000Y-16064000D02*
X62542000Y-13520000D01*
X62542000Y-13520000D02*
X60706000Y-11684000D01*
X60706000Y-11684000D02*
X57767000Y-11684000D01*
X24130000Y-22840000D02*
X26782000Y-22840000D01*
D24*
X26782000Y-22840000D02*
X26812000Y-22870000D01*
D25*
X54102000Y-39500000D02*
X77562000Y-39500000D01*
X77562000Y-39500000D02*
X78562000Y-39500000D01*
D24*
X30062000Y-37000000D02*
X30310000Y-37000000D01*
D25*
X30734000Y-39500000D02*
X52562000Y-39500000D01*
X52562000Y-39500000D02*
X54102000Y-39500000D01*
D24*
X28812000Y-27410000D02*
X28812000Y-31030000D01*
X26812000Y-33030000D02*
X26532000Y-33030000D01*
D25*
X26812000Y-25410000D02*
X26812000Y-22870000D01*
D24*
X26532000Y-32750000D02*
X26812000Y-33030000D01*
D25*
X7562000Y-39500000D02*
X20342000Y-39500000D01*
X20342000Y-39500000D02*
X25812000Y-39500000D01*
X25812000Y-39500000D02*
X27562000Y-39500000D01*
X27562000Y-39500000D02*
X30734000Y-39500000D01*
D24*
X30734000Y-39500000D02*
X30812000Y-39500000D01*
X30812000Y-39500000D02*
X30562000Y-39500000D01*
X60562000Y-21500000D02*
X55062000Y-21500000D01*
G04 #@! TO.N,Net-(D1-Pad2)*
X45338000Y-12954000D02*
X47974000Y-12954000D01*
X47974000Y-12954000D02*
X48006000Y-12986000D01*
G04 #@! TO.N,Net-(RN1-Pad2)*
X44062000Y-19000000D02*
X44262000Y-18800000D01*
X42772000Y-20290000D02*
X44062000Y-19000000D01*
X44262000Y-11400000D02*
X43087000Y-10225000D01*
X43087000Y-10225000D02*
X43062000Y-10200000D01*
X44262000Y-18800000D02*
X44262000Y-11400000D01*
X105062000Y-36500000D02*
X105062000Y-37000000D01*
X42312000Y-20290000D02*
X42772000Y-20290000D01*
D25*
X34432000Y-20330000D02*
X42302000Y-20330000D01*
D24*
X42302000Y-20330000D02*
X42312000Y-20340000D01*
X42612000Y-9750000D02*
X43087000Y-10225000D01*
X32062000Y-9750000D02*
X42612000Y-9750000D01*
X31062000Y-10750000D02*
X32062000Y-9750000D01*
X28812000Y-10750000D02*
X31062000Y-10750000D01*
X28462000Y-10400000D02*
X28812000Y-10750000D01*
X28462000Y-8000000D02*
X28462000Y-10400000D01*
X29062000Y-7400000D02*
X28462000Y-8000000D01*
X33462000Y-7400000D02*
X29062000Y-7400000D01*
X34062000Y-6800000D02*
X33462000Y-7400000D01*
X34812000Y-4500000D02*
X34062000Y-5250000D01*
X34062000Y-5250000D02*
X34062000Y-6800000D01*
X44062000Y-4500000D02*
X34812000Y-4500000D01*
X61976000Y-9144000D02*
X48562000Y-9000000D01*
X48562000Y-9000000D02*
X44062000Y-4500000D01*
D25*
X85090000Y-32512000D02*
X62992000Y-10160000D01*
D24*
X62992000Y-10160000D02*
X61976000Y-9144000D01*
D25*
X101346000Y-32512000D02*
X85090000Y-32512000D01*
X105062000Y-37000000D02*
X101346000Y-32512000D01*
G04 #@! TO.N,Net-(RN1-Pad3)*
X62062000Y-37000000D02*
X60562000Y-35500000D01*
D24*
X51562000Y-35500000D02*
X50462000Y-34400000D01*
D25*
X60562000Y-35500000D02*
X51562000Y-35500000D01*
X48749000Y-27413000D02*
X50462000Y-29126000D01*
D24*
X50462000Y-29126000D02*
X50462000Y-34400000D01*
D25*
X77562000Y-37000000D02*
X62062000Y-37000000D01*
X34432000Y-22870000D02*
X42302000Y-22870000D01*
X44216000Y-22880000D02*
X42312000Y-22880000D01*
D24*
X48768000Y-27432000D02*
X48749000Y-27413000D01*
D25*
X48749000Y-27413000D02*
X44216000Y-22880000D01*
D24*
X42312000Y-22880000D02*
X42942000Y-22880000D01*
X42302000Y-22870000D02*
X42312000Y-22880000D01*
G04 #@! TO.N,Net-(RN1-Pad4)*
X52562000Y-37000000D02*
X51562000Y-37000000D01*
X51562000Y-37000000D02*
X49662000Y-35100000D01*
X46562000Y-28500000D02*
X49662000Y-31600000D01*
D25*
X46562000Y-28500000D02*
X43482000Y-25420000D01*
D24*
X42312000Y-25420000D02*
X43482000Y-25420000D01*
X49662000Y-31600000D02*
X49662000Y-35100000D01*
X42302000Y-25410000D02*
X42312000Y-25420000D01*
D25*
X34432000Y-25410000D02*
X42302000Y-25410000D01*
D24*
G04 #@! TO.N,Net-(RN1-Pad5)*
X34432000Y-27950000D02*
X34362000Y-27950000D01*
X34362000Y-27950000D02*
X31062000Y-31250000D01*
X42302000Y-27950000D02*
X42312000Y-27960000D01*
X27562000Y-37000000D02*
X29812000Y-34750000D01*
X31062000Y-33500000D02*
X31062000Y-31250000D01*
X29812000Y-34750000D02*
X31062000Y-33500000D01*
D25*
X34432000Y-27950000D02*
X42302000Y-27950000D01*
D24*
G04 #@! TO.N,/CLK*
X26812000Y-17790000D02*
X25852000Y-17790000D01*
X25062000Y-10000000D02*
X26062000Y-9000000D01*
X25062000Y-17000000D02*
X25062000Y-10000000D01*
X25852000Y-17790000D02*
X25062000Y-17000000D01*
G04 #@! TO.N,/Q*
X48062000Y-33000000D02*
X48032000Y-33030000D01*
D25*
X48032000Y-33030000D02*
X34432000Y-33030000D01*
D24*
G04 #@! TO.N,+5V*
X39878000Y-13228000D02*
X38900000Y-12250000D01*
X38900000Y-12250000D02*
X37312000Y-12250000D01*
X37062000Y-12500000D02*
X31012000Y-12500000D01*
X31012000Y-12500000D02*
X29962000Y-13550000D01*
X37062000Y-12500000D02*
X37312000Y-12250000D01*
X42312000Y-13228000D02*
X42038000Y-12954000D01*
X39878000Y-13228000D02*
X41764000Y-13228000D01*
X41764000Y-13228000D02*
X42038000Y-12954000D01*
G04 #@! TO.N,Net-(C3-Pad1)*
X51308000Y-19600000D02*
X51308000Y-19384000D01*
D25*
X51308000Y-19384000D02*
X55692000Y-15000000D01*
X52062000Y-33000000D02*
X55658000Y-29404000D01*
X55658000Y-29404000D02*
X55658000Y-27686000D01*
D24*
X55658000Y-27686000D02*
X55372000Y-27686000D01*
D25*
X55372000Y-27686000D02*
X51308000Y-23622000D01*
X51308000Y-23622000D02*
X51308000Y-19600000D01*
D24*
X51308000Y-19600000D02*
X51308000Y-19558000D01*
X55692000Y-15000000D02*
X55866000Y-15000000D01*
D25*
G04 #@! TO.N,Net-(CN1-Pad2)*
X50027000Y-14965000D02*
X53137000Y-14965000D01*
D24*
X53137000Y-14965000D02*
X53172000Y-15000000D01*
X30062000Y-9000000D02*
X43062000Y-9000000D01*
X50062000Y-14930000D02*
X50027000Y-14965000D01*
D25*
X50027000Y-14965000D02*
X48006000Y-16986000D01*
D24*
X50062000Y-12000000D02*
X50062000Y-14930000D01*
X49062000Y-11000000D02*
X50062000Y-12000000D01*
X45062000Y-11000000D02*
X49062000Y-11000000D01*
X43062000Y-9000000D02*
X45062000Y-11000000D01*
X53172000Y-15000000D02*
X53580000Y-15000000D01*
X53580000Y-15000000D02*
X54864000Y-13716000D01*
X61214000Y-17812000D02*
X59436000Y-19590000D01*
X61214000Y-14986000D02*
X61214000Y-17812000D01*
X59436000Y-13208000D02*
X61214000Y-14986000D01*
X58420000Y-13208000D02*
X59436000Y-13208000D01*
X57912000Y-13716000D02*
X58420000Y-13208000D01*
X57404000Y-13716000D02*
X57912000Y-13716000D01*
X57150000Y-13970000D02*
X57404000Y-13716000D01*
X56642000Y-13970000D02*
X57150000Y-13970000D01*
X56388000Y-13716000D02*
X56642000Y-13970000D01*
X56134000Y-13716000D02*
X56388000Y-13716000D01*
X55372000Y-13716000D02*
X56134000Y-13716000D01*
X54864000Y-13716000D02*
X55372000Y-13716000D01*
G04 #@! TO.N,Net-(CN1-Pad3)*
X47672000Y-10000000D02*
X43672000Y-6000000D01*
X36062000Y-6000000D02*
X43592000Y-6000000D01*
X52062000Y-10000000D02*
X54432000Y-12370000D01*
X47672000Y-10000000D02*
X52062000Y-10000000D01*
X43672000Y-6000000D02*
X43592000Y-6000000D01*
X54432000Y-12500000D02*
X54432000Y-12370000D01*
X54432000Y-12500000D02*
X54432000Y-12380000D01*
D25*
G04 #@! TO.N,Net-(D2-Pad2)*
X59436000Y-23590000D02*
X63132000Y-23590000D01*
X63132000Y-23590000D02*
X65222000Y-21500000D01*
D24*
G04 #@! TO.N,/~LOAD~*
X27662000Y-7000000D02*
X28662000Y-6000000D01*
X26812000Y-15250000D02*
X27662000Y-14000000D01*
X27662000Y-14000000D02*
X27662000Y-7000000D01*
X28662000Y-6000000D02*
X32062000Y-6000000D01*
X26812000Y-15250000D02*
X26812000Y-15186000D01*
D25*
G04 #@! TO.N,Net-(R6-Pad2)*
X2562000Y-37000000D02*
X5062000Y-34500000D01*
X23687000Y-27875000D02*
X26737000Y-27875000D01*
D24*
X26737000Y-27875000D02*
X26812000Y-27950000D01*
D25*
X23687000Y-27875000D02*
X17062000Y-34500000D01*
X20312000Y-24500000D02*
X23687000Y-27875000D01*
X5062000Y-34500000D02*
X17062000Y-34500000D01*
G04 #@! TD*
M02*
