G04 #@! TF.GenerationSoftware,KiCad,Pcbnew,5.1.5-52549c5~84~ubuntu19.10.1*
G04 #@! TF.CreationDate,2020-01-22T18:49:14-06:00*
G04 #@! TF.ProjectId,Timer,54696d65-722e-46b6-9963-61645f706362,rev?*
G04 #@! TF.SameCoordinates,PX93be440PYaa38e78*
G04 #@! TF.FileFunction,Legend,Bot*
G04 #@! TF.FilePolarity,Positive*
%FSLAX46Y46*%
G04 Gerber Fmt 4.6, Leading zero omitted, Abs format (unit mm)*
G04 Created by KiCad (PCBNEW 5.1.5-52549c5~84~ubuntu19.10.1) date 2020-01-22 18:49:14*
%MOMM*%
%LPD*%
G04 APERTURE LIST*
%ADD10C,0.120000*%
%ADD11C,0.100000*%
%ADD12C,0.150000*%
G04 APERTURE END LIST*
D10*
X-48070000Y14730000D02*
X-61270000Y14730000D01*
X-61270000Y14730000D02*
X-61270000Y5710000D01*
D11*
X-61270000Y-3150000D02*
X-61270000Y-3270000D01*
D10*
X-61270000Y-3270000D02*
X-61270000Y3510000D01*
D11*
X-61270000Y-3260000D02*
X-61270000Y-3270000D01*
D10*
X-61270000Y-3270000D02*
X-48070000Y-3270000D01*
X-48070000Y-3270000D02*
X-48070000Y3510000D01*
D11*
X-48070000Y5780000D02*
X-48070000Y5710000D01*
D10*
X-48070000Y5710000D02*
X-48070000Y14730000D01*
X-47600000Y12730000D02*
X-47600000Y14260000D01*
X-66270000Y17623000D02*
X-69070000Y17623000D01*
X-66270000Y30493000D02*
X-66270000Y14913000D01*
X-69070000Y30493000D02*
X-66270000Y30493000D01*
X-69070000Y14913000D02*
X-69070000Y30493000D01*
X-66270000Y14913000D02*
X-69070000Y14913000D01*
X-76710000Y12523000D02*
X-78360000Y12523000D01*
X-76710000Y32963000D02*
X-76710000Y12523000D01*
X-82010000Y32963000D02*
X-76710000Y32963000D01*
X-82010000Y12523000D02*
X-82010000Y32963000D01*
X-80360000Y12523000D02*
X-82010000Y12523000D01*
X-78360000Y12523000D02*
G75*
G03X-80360000Y12523000I-1000000J0D01*
G01*
X-52955000Y18193000D02*
X-52955000Y22013000D01*
X-45330000Y22013000D02*
X-45330000Y21683000D01*
X-54350000Y22013000D02*
X-45330000Y22013000D01*
X-54350000Y21683000D02*
X-54350000Y22013000D01*
X-45330000Y18193000D02*
X-45330000Y18523000D01*
X-54350000Y18193000D02*
X-45330000Y18193000D01*
X-54350000Y18523000D02*
X-54350000Y18193000D01*
D12*
X-49496667Y16207620D02*
X-49496667Y15493334D01*
X-49449048Y15350477D01*
X-49353810Y15255239D01*
X-49210953Y15207620D01*
X-49115715Y15207620D01*
X-50496667Y15207620D02*
X-49925239Y15207620D01*
X-50210953Y15207620D02*
X-50210953Y16207620D01*
X-50115715Y16064762D01*
X-50020477Y15969524D01*
X-49925239Y15921905D01*
X-64825620Y20375477D02*
X-65301810Y20708810D01*
X-64825620Y20946905D02*
X-65825620Y20946905D01*
X-65825620Y20565953D01*
X-65778000Y20470715D01*
X-65730381Y20423096D01*
X-65635143Y20375477D01*
X-65492286Y20375477D01*
X-65397048Y20423096D01*
X-65349429Y20470715D01*
X-65301810Y20565953D01*
X-65301810Y20946905D01*
X-64825620Y19946905D02*
X-65825620Y19946905D01*
X-64825620Y19375477D01*
X-65825620Y19375477D01*
X-64825620Y18375477D02*
X-64825620Y18946905D01*
X-64825620Y18661191D02*
X-65825620Y18661191D01*
X-65682762Y18756429D01*
X-65587524Y18851667D01*
X-65539905Y18946905D01*
X-104158096Y38698239D02*
X-104300953Y38650620D01*
X-104539048Y38650620D01*
X-104634286Y38698239D01*
X-104681905Y38745858D01*
X-104729524Y38841096D01*
X-104729524Y38936334D01*
X-104681905Y39031572D01*
X-104634286Y39079191D01*
X-104539048Y39126810D01*
X-104348572Y39174429D01*
X-104253334Y39222048D01*
X-104205715Y39269667D01*
X-104158096Y39364905D01*
X-104158096Y39460143D01*
X-104205715Y39555381D01*
X-104253334Y39603000D01*
X-104348572Y39650620D01*
X-104586667Y39650620D01*
X-104729524Y39603000D01*
X-105634286Y39650620D02*
X-105158096Y39650620D01*
X-105110477Y39174429D01*
X-105158096Y39222048D01*
X-105253334Y39269667D01*
X-105491429Y39269667D01*
X-105586667Y39222048D01*
X-105634286Y39174429D01*
X-105681905Y39079191D01*
X-105681905Y38841096D01*
X-105634286Y38745858D01*
X-105586667Y38698239D01*
X-105491429Y38650620D01*
X-105253334Y38650620D01*
X-105158096Y38698239D01*
X-105110477Y38745858D01*
X-79158096Y38698239D02*
X-79300953Y38650620D01*
X-79539048Y38650620D01*
X-79634286Y38698239D01*
X-79681905Y38745858D01*
X-79729524Y38841096D01*
X-79729524Y38936334D01*
X-79681905Y39031572D01*
X-79634286Y39079191D01*
X-79539048Y39126810D01*
X-79348572Y39174429D01*
X-79253334Y39222048D01*
X-79205715Y39269667D01*
X-79158096Y39364905D01*
X-79158096Y39460143D01*
X-79205715Y39555381D01*
X-79253334Y39603000D01*
X-79348572Y39650620D01*
X-79586667Y39650620D01*
X-79729524Y39603000D01*
X-80681905Y38650620D02*
X-80110477Y38650620D01*
X-80396191Y38650620D02*
X-80396191Y39650620D01*
X-80300953Y39507762D01*
X-80205715Y39412524D01*
X-80110477Y39364905D01*
X-54158096Y38698239D02*
X-54300953Y38650620D01*
X-54539048Y38650620D01*
X-54634286Y38698239D01*
X-54681905Y38745858D01*
X-54729524Y38841096D01*
X-54729524Y38936334D01*
X-54681905Y39031572D01*
X-54634286Y39079191D01*
X-54539048Y39126810D01*
X-54348572Y39174429D01*
X-54253334Y39222048D01*
X-54205715Y39269667D01*
X-54158096Y39364905D01*
X-54158096Y39460143D01*
X-54205715Y39555381D01*
X-54253334Y39603000D01*
X-54348572Y39650620D01*
X-54586667Y39650620D01*
X-54729524Y39603000D01*
X-55110477Y39555381D02*
X-55158096Y39603000D01*
X-55253334Y39650620D01*
X-55491429Y39650620D01*
X-55586667Y39603000D01*
X-55634286Y39555381D01*
X-55681905Y39460143D01*
X-55681905Y39364905D01*
X-55634286Y39222048D01*
X-55062858Y38650620D01*
X-55681905Y38650620D01*
X-29158096Y38698239D02*
X-29300953Y38650620D01*
X-29539048Y38650620D01*
X-29634286Y38698239D01*
X-29681905Y38745858D01*
X-29729524Y38841096D01*
X-29729524Y38936334D01*
X-29681905Y39031572D01*
X-29634286Y39079191D01*
X-29539048Y39126810D01*
X-29348572Y39174429D01*
X-29253334Y39222048D01*
X-29205715Y39269667D01*
X-29158096Y39364905D01*
X-29158096Y39460143D01*
X-29205715Y39555381D01*
X-29253334Y39603000D01*
X-29348572Y39650620D01*
X-29586667Y39650620D01*
X-29729524Y39603000D01*
X-30062858Y39650620D02*
X-30681905Y39650620D01*
X-30348572Y39269667D01*
X-30491429Y39269667D01*
X-30586667Y39222048D01*
X-30634286Y39174429D01*
X-30681905Y39079191D01*
X-30681905Y38841096D01*
X-30634286Y38745858D01*
X-30586667Y38698239D01*
X-30491429Y38650620D01*
X-30205715Y38650620D01*
X-30110477Y38698239D01*
X-30062858Y38745858D01*
X-4158096Y38698239D02*
X-4300953Y38650620D01*
X-4539048Y38650620D01*
X-4634286Y38698239D01*
X-4681905Y38745858D01*
X-4729524Y38841096D01*
X-4729524Y38936334D01*
X-4681905Y39031572D01*
X-4634286Y39079191D01*
X-4539048Y39126810D01*
X-4348572Y39174429D01*
X-4253334Y39222048D01*
X-4205715Y39269667D01*
X-4158096Y39364905D01*
X-4158096Y39460143D01*
X-4205715Y39555381D01*
X-4253334Y39603000D01*
X-4348572Y39650620D01*
X-4586667Y39650620D01*
X-4729524Y39603000D01*
X-5586667Y39317286D02*
X-5586667Y38650620D01*
X-5348572Y39698239D02*
X-5110477Y38983953D01*
X-5729524Y38983953D01*
X-78613096Y24931620D02*
X-78613096Y24122096D01*
X-78660715Y24026858D01*
X-78708334Y23979239D01*
X-78803572Y23931620D01*
X-78994048Y23931620D01*
X-79089286Y23979239D01*
X-79136905Y24026858D01*
X-79184524Y24122096D01*
X-79184524Y24931620D01*
X-79613096Y24836381D02*
X-79660715Y24884000D01*
X-79755953Y24931620D01*
X-79994048Y24931620D01*
X-80089286Y24884000D01*
X-80136905Y24836381D01*
X-80184524Y24741143D01*
X-80184524Y24645905D01*
X-80136905Y24503048D01*
X-79565477Y23931620D01*
X-80184524Y23931620D01*
X-48791905Y19613620D02*
X-48791905Y20613620D01*
X-49030000Y20613620D01*
X-49172858Y20566000D01*
X-49268096Y20470762D01*
X-49315715Y20375524D01*
X-49363334Y20185048D01*
X-49363334Y20042191D01*
X-49315715Y19851715D01*
X-49268096Y19756477D01*
X-49172858Y19661239D01*
X-49030000Y19613620D01*
X-48791905Y19613620D01*
X-49744286Y20518381D02*
X-49791905Y20566000D01*
X-49887143Y20613620D01*
X-50125239Y20613620D01*
X-50220477Y20566000D01*
X-50268096Y20518381D01*
X-50315715Y20423143D01*
X-50315715Y20327905D01*
X-50268096Y20185048D01*
X-49696667Y19613620D01*
X-50315715Y19613620D01*
M02*
