M48
;DRILL file {KiCad (5.0.0-3-g5ebb6b6)} date Saturday, September 15, 2018 at 09:10:13 PM
;FORMAT={-:-/ absolute / inch / decimal}
FMAT,2
INCH,TZ
T1C0.0300
T2C0.0315
T3C0.0551
T4C0.1220
T5C0.1260
%
G90
G05
M72
T1
X-2.2862Y0.4371
X-2.2366Y0.5356
X-2.187Y0.4371
X-2.1374Y0.5356
X-2.0878Y0.4371
X-2.0382Y0.5356
T2
X-0.2921Y1.6379
X-0.2921Y1.4017
X-0.1937Y1.6379
X-0.1937Y1.4017
X-0.0953Y1.6379
X-0.0953Y1.4017
X-2.6642Y1.1438
X-2.6642Y1.0438
X-2.6642Y0.9438
X-2.6642Y0.8438
X-2.6642Y0.7438
X-2.6642Y0.6438
X-3.2449Y1.6379
X-3.2449Y1.4017
X-3.1465Y1.6379
X-3.1465Y1.4017
X-3.048Y1.6379
X-3.048Y1.4017
X-1.2764Y1.6379
X-1.2764Y1.4017
X-1.178Y1.6379
X-1.178Y1.4017
X-1.0795Y1.6379
X-1.0795Y1.4017
X-2.2606Y1.6379
X-2.2606Y1.4017
X-2.1622Y1.6379
X-2.1622Y1.4017
X-2.0638Y1.6379
X-2.0638Y1.4017
X-4.2291Y1.6379
X-4.2291Y1.4017
X-4.1307Y1.6379
X-4.1307Y1.4017
X-4.0323Y1.6379
X-4.0323Y1.4017
X-3.2744Y1.2454
X-3.2744Y1.1454
X-3.2744Y1.0454
X-3.2744Y0.9454
X-3.2744Y0.8454
X-3.2744Y0.7454
X-3.2744Y0.6454
X-3.2744Y0.5454
X-2.9744Y1.2454
X-2.9744Y1.1454
X-2.9744Y1.0454
X-2.9744Y0.9454
X-2.9744Y0.8454
X-2.9744Y0.7454
X-2.9744Y0.6454
X-2.9744Y0.5454
T3
X-2.1622Y0.7915
X-1.7622Y0.7915
T4
X-2.3591Y0.1812
X-1.9654Y0.1812
T5
X-0.6858Y1.1261
X-3.6386Y1.1261
T0
M30
