G04 #@! TF.GenerationSoftware,KiCad,Pcbnew,(5.0.0-3-g5ebb6b6)*
G04 #@! TF.CreationDate,2018-09-15T21:10:08-05:00*
G04 #@! TF.ProjectId,Timer,54696D65722E6B696361645F70636200,rev?*
G04 #@! TF.SameCoordinates,PX93be440PYaa38e78*
G04 #@! TF.FileFunction,Copper,L1,Top,Signal*
G04 #@! TF.FilePolarity,Positive*
%FSLAX46Y46*%
G04 Gerber Fmt 4.6, Leading zero omitted, Abs format (unit mm)*
G04 Created by KiCad (PCBNEW (5.0.0-3-g5ebb6b6)) date Saturday, September 15, 2018 at 09:10:08 PM*
%MOMM*%
%LPD*%
G01*
G04 APERTURE LIST*
G04 #@! TA.AperFunction,NonConductor*
%ADD10C,0.300000*%
G04 #@! TD*
G04 #@! TA.AperFunction,SMDPad,CuDef*
%ADD11R,2.000000X1.700000*%
G04 #@! TD*
G04 #@! TA.AperFunction,WasherPad*
%ADD12C,3.500000*%
G04 #@! TD*
G04 #@! TA.AperFunction,ComponentPad*
%ADD13C,1.524000*%
G04 #@! TD*
G04 #@! TA.AperFunction,ComponentPad*
%ADD14O,1.600000X1.600000*%
G04 #@! TD*
G04 #@! TA.AperFunction,ComponentPad*
%ADD15R,1.600000X1.600000*%
G04 #@! TD*
G04 #@! TA.AperFunction,ComponentPad*
%ADD16C,1.500000*%
G04 #@! TD*
G04 #@! TA.AperFunction,ComponentPad*
%ADD17O,2.800000X2.800000*%
G04 #@! TD*
G04 #@! TA.AperFunction,ComponentPad*
%ADD18R,2.800000X2.800000*%
G04 #@! TD*
G04 #@! TA.AperFunction,SMDPad,CuDef*
%ADD19R,1.700000X2.000000*%
G04 #@! TD*
G04 #@! TA.AperFunction,SMDPad,CuDef*
%ADD20R,1.600000X2.000000*%
G04 #@! TD*
G04 #@! TA.AperFunction,SMDPad,CuDef*
%ADD21R,2.000000X1.600000*%
G04 #@! TD*
G04 #@! TA.AperFunction,SMDPad,CuDef*
%ADD22R,1.000000X1.000000*%
G04 #@! TD*
G04 #@! TA.AperFunction,SMDPad,CuDef*
%ADD23R,0.900000X1.200000*%
G04 #@! TD*
G04 #@! TA.AperFunction,SMDPad,CuDef*
%ADD24R,0.650000X1.060000*%
G04 #@! TD*
G04 #@! TA.AperFunction,Conductor*
%ADD25C,0.100000*%
G04 #@! TD*
G04 #@! TA.AperFunction,Conductor*
%ADD26C,0.400000*%
G04 #@! TD*
G04 #@! TA.AperFunction,Conductor*
%ADD27C,1.000000*%
G04 #@! TD*
G04 #@! TA.AperFunction,Conductor*
%ADD28C,0.500000*%
G04 #@! TD*
G04 #@! TA.AperFunction,Conductor*
%ADD29C,0.600000*%
G04 #@! TD*
G04 APERTURE END LIST*
D10*
X-72012858Y16466429D02*
X-72870000Y16466429D01*
X-72441429Y16466429D02*
X-72441429Y17966429D01*
X-72584286Y17752143D01*
X-72727143Y17609286D01*
X-72870000Y17537858D01*
X-70727143Y17466429D02*
X-70727143Y16466429D01*
X-71370000Y17466429D02*
X-71370000Y16680715D01*
X-71298572Y16537858D01*
X-71155715Y16466429D01*
X-70941429Y16466429D01*
X-70798572Y16537858D01*
X-70727143Y16609286D01*
X-69512858Y17252143D02*
X-70012858Y17252143D01*
X-70012858Y16466429D02*
X-70012858Y17966429D01*
X-69298572Y17966429D01*
X-77553429Y21840143D02*
X-77553429Y20983000D01*
X-77553429Y21411572D02*
X-79053429Y21411572D01*
X-78839143Y21268715D01*
X-78696286Y21125858D01*
X-78624858Y20983000D01*
X-78553429Y23125858D02*
X-77553429Y23125858D01*
X-78553429Y22483000D02*
X-77767715Y22483000D01*
X-77624858Y22554429D01*
X-77553429Y22697286D01*
X-77553429Y22911572D01*
X-77624858Y23054429D01*
X-77696286Y23125858D01*
X-78339143Y24340143D02*
X-78339143Y23840143D01*
X-77553429Y23840143D02*
X-79053429Y23840143D01*
X-79053429Y24554429D01*
X-64210286Y33611429D02*
X-64710286Y34325715D01*
X-65067429Y33611429D02*
X-65067429Y35111429D01*
X-64496000Y35111429D01*
X-64353143Y35040000D01*
X-64281715Y34968572D01*
X-64210286Y34825715D01*
X-64210286Y34611429D01*
X-64281715Y34468572D01*
X-64353143Y34397143D01*
X-64496000Y34325715D01*
X-65067429Y34325715D01*
X-62781715Y33611429D02*
X-63638858Y33611429D01*
X-63210286Y33611429D02*
X-63210286Y35111429D01*
X-63353143Y34897143D01*
X-63496000Y34754286D01*
X-63638858Y34682858D01*
X-61853143Y35111429D02*
X-61710286Y35111429D01*
X-61567429Y35040000D01*
X-61496000Y34968572D01*
X-61424572Y34825715D01*
X-61353143Y34540000D01*
X-61353143Y34182858D01*
X-61424572Y33897143D01*
X-61496000Y33754286D01*
X-61567429Y33682858D01*
X-61710286Y33611429D01*
X-61853143Y33611429D01*
X-61996000Y33682858D01*
X-62067429Y33754286D01*
X-62138858Y33897143D01*
X-62210286Y34182858D01*
X-62210286Y34540000D01*
X-62138858Y34825715D01*
X-62067429Y34968572D01*
X-61996000Y35040000D01*
X-61853143Y35111429D01*
X-47525572Y23197429D02*
X-48025572Y23911715D01*
X-48382715Y23197429D02*
X-48382715Y24697429D01*
X-47811286Y24697429D01*
X-47668429Y24626000D01*
X-47597000Y24554572D01*
X-47525572Y24411715D01*
X-47525572Y24197429D01*
X-47597000Y24054572D01*
X-47668429Y23983143D01*
X-47811286Y23911715D01*
X-48382715Y23911715D01*
X-46239858Y24197429D02*
X-46239858Y23197429D01*
X-46597000Y24768858D02*
X-46954143Y23697429D01*
X-46025572Y23697429D01*
X-45597000Y24697429D02*
X-44597000Y24697429D01*
X-45239858Y23197429D01*
X-43739858Y24697429D02*
X-43597000Y24697429D01*
X-43454143Y24626000D01*
X-43382715Y24554572D01*
X-43311286Y24411715D01*
X-43239858Y24126000D01*
X-43239858Y23768858D01*
X-43311286Y23483143D01*
X-43382715Y23340286D01*
X-43454143Y23268858D01*
X-43597000Y23197429D01*
X-43739858Y23197429D01*
X-43882715Y23268858D01*
X-43954143Y23340286D01*
X-44025572Y23483143D01*
X-44097000Y23768858D01*
X-44097000Y24126000D01*
X-44025572Y24411715D01*
X-43954143Y24554572D01*
X-43882715Y24626000D01*
X-43739858Y24697429D01*
X-52629286Y29277429D02*
X-52629286Y28277429D01*
X-52986429Y29848858D02*
X-53343572Y28777429D01*
X-52415000Y28777429D01*
X-51986429Y29777429D02*
X-50986429Y29777429D01*
X-51629286Y28277429D01*
X-50129286Y29777429D02*
X-49986429Y29777429D01*
X-49843572Y29706000D01*
X-49772143Y29634572D01*
X-49700715Y29491715D01*
X-49629286Y29206000D01*
X-49629286Y28848858D01*
X-49700715Y28563143D01*
X-49772143Y28420286D01*
X-49843572Y28348858D01*
X-49986429Y28277429D01*
X-50129286Y28277429D01*
X-50272143Y28348858D01*
X-50343572Y28420286D01*
X-50415000Y28563143D01*
X-50486429Y28848858D01*
X-50486429Y29206000D01*
X-50415000Y29491715D01*
X-50343572Y29634572D01*
X-50272143Y29706000D01*
X-50129286Y29777429D01*
X-48986429Y29277429D02*
X-48986429Y27777429D01*
X-48986429Y29206000D02*
X-48843572Y29277429D01*
X-48557858Y29277429D01*
X-48415000Y29206000D01*
X-48343572Y29134572D01*
X-48272143Y28991715D01*
X-48272143Y28563143D01*
X-48343572Y28420286D01*
X-48415000Y28348858D01*
X-48557858Y28277429D01*
X-48843572Y28277429D01*
X-48986429Y28348858D01*
X-47129286Y29063143D02*
X-47629286Y29063143D01*
X-47629286Y28277429D02*
X-47629286Y29777429D01*
X-46915000Y29777429D01*
X-91523429Y19530429D02*
X-92237715Y19030429D01*
X-91523429Y18673286D02*
X-93023429Y18673286D01*
X-93023429Y19244715D01*
X-92952000Y19387572D01*
X-92880572Y19459000D01*
X-92737715Y19530429D01*
X-92523429Y19530429D01*
X-92380572Y19459000D01*
X-92309143Y19387572D01*
X-92237715Y19244715D01*
X-92237715Y18673286D01*
X-92523429Y20816143D02*
X-91523429Y20816143D01*
X-93094858Y20459000D02*
X-92023429Y20101858D01*
X-92023429Y21030429D01*
X-93023429Y21459000D02*
X-93023429Y22459000D01*
X-91523429Y21816143D01*
X-93023429Y23316143D02*
X-93023429Y23459000D01*
X-92952000Y23601858D01*
X-92880572Y23673286D01*
X-92737715Y23744715D01*
X-92452000Y23816143D01*
X-92094858Y23816143D01*
X-91809143Y23744715D01*
X-91666286Y23673286D01*
X-91594858Y23601858D01*
X-91523429Y23459000D01*
X-91523429Y23316143D01*
X-91594858Y23173286D01*
X-91666286Y23101858D01*
X-91809143Y23030429D01*
X-92094858Y22959000D01*
X-92452000Y22959000D01*
X-92737715Y23030429D01*
X-92880572Y23101858D01*
X-92952000Y23173286D01*
X-93023429Y23316143D01*
X-64035572Y17228429D02*
X-64535572Y17942715D01*
X-64892715Y17228429D02*
X-64892715Y18728429D01*
X-64321286Y18728429D01*
X-64178429Y18657000D01*
X-64107000Y18585572D01*
X-64035572Y18442715D01*
X-64035572Y18228429D01*
X-64107000Y18085572D01*
X-64178429Y18014143D01*
X-64321286Y17942715D01*
X-64892715Y17942715D01*
X-62607000Y17228429D02*
X-63464143Y17228429D01*
X-63035572Y17228429D02*
X-63035572Y18728429D01*
X-63178429Y18514143D01*
X-63321286Y18371286D01*
X-63464143Y18299858D01*
X-61678429Y18728429D02*
X-61535572Y18728429D01*
X-61392715Y18657000D01*
X-61321286Y18585572D01*
X-61249858Y18442715D01*
X-61178429Y18157000D01*
X-61178429Y17799858D01*
X-61249858Y17514143D01*
X-61321286Y17371286D01*
X-61392715Y17299858D01*
X-61535572Y17228429D01*
X-61678429Y17228429D01*
X-61821286Y17299858D01*
X-61892715Y17371286D01*
X-61964143Y17514143D01*
X-62035572Y17799858D01*
X-62035572Y18157000D01*
X-61964143Y18442715D01*
X-61892715Y18585572D01*
X-61821286Y18657000D01*
X-61678429Y18728429D01*
X-60249858Y18728429D02*
X-60107000Y18728429D01*
X-59964143Y18657000D01*
X-59892715Y18585572D01*
X-59821286Y18442715D01*
X-59749858Y18157000D01*
X-59749858Y17799858D01*
X-59821286Y17514143D01*
X-59892715Y17371286D01*
X-59964143Y17299858D01*
X-60107000Y17228429D01*
X-60249858Y17228429D01*
X-60392715Y17299858D01*
X-60464143Y17371286D01*
X-60535572Y17514143D01*
X-60607000Y17799858D01*
X-60607000Y18157000D01*
X-60535572Y18442715D01*
X-60464143Y18585572D01*
X-60392715Y18657000D01*
X-60249858Y18728429D01*
X-83395429Y7338429D02*
X-84109715Y6838429D01*
X-83395429Y6481286D02*
X-84895429Y6481286D01*
X-84895429Y7052715D01*
X-84824000Y7195572D01*
X-84752572Y7267000D01*
X-84609715Y7338429D01*
X-84395429Y7338429D01*
X-84252572Y7267000D01*
X-84181143Y7195572D01*
X-84109715Y7052715D01*
X-84109715Y6481286D01*
X-84395429Y8624143D02*
X-83395429Y8624143D01*
X-84966858Y8267000D02*
X-83895429Y7909858D01*
X-83895429Y8838429D01*
X-84895429Y9267000D02*
X-84895429Y10267000D01*
X-83395429Y9624143D01*
X-84895429Y11124143D02*
X-84895429Y11267000D01*
X-84824000Y11409858D01*
X-84752572Y11481286D01*
X-84609715Y11552715D01*
X-84324000Y11624143D01*
X-83966858Y11624143D01*
X-83681143Y11552715D01*
X-83538286Y11481286D01*
X-83466858Y11409858D01*
X-83395429Y11267000D01*
X-83395429Y11124143D01*
X-83466858Y10981286D01*
X-83538286Y10909858D01*
X-83681143Y10838429D01*
X-83966858Y10767000D01*
X-84324000Y10767000D01*
X-84609715Y10838429D01*
X-84752572Y10909858D01*
X-84824000Y10981286D01*
X-84895429Y11124143D01*
X-72798572Y337429D02*
X-73298572Y1051715D01*
X-73655715Y337429D02*
X-73655715Y1837429D01*
X-73084286Y1837429D01*
X-72941429Y1766000D01*
X-72870000Y1694572D01*
X-72798572Y1551715D01*
X-72798572Y1337429D01*
X-72870000Y1194572D01*
X-72941429Y1123143D01*
X-73084286Y1051715D01*
X-73655715Y1051715D01*
X-71512858Y1337429D02*
X-71512858Y337429D01*
X-71870000Y1908858D02*
X-72227143Y837429D01*
X-71298572Y837429D01*
X-70870000Y1837429D02*
X-69870000Y1837429D01*
X-70512858Y337429D01*
X-69012858Y1837429D02*
X-68870000Y1837429D01*
X-68727143Y1766000D01*
X-68655715Y1694572D01*
X-68584286Y1551715D01*
X-68512858Y1266000D01*
X-68512858Y908858D01*
X-68584286Y623143D01*
X-68655715Y480286D01*
X-68727143Y408858D01*
X-68870000Y337429D01*
X-69012858Y337429D01*
X-69155715Y408858D01*
X-69227143Y480286D01*
X-69298572Y623143D01*
X-69370000Y908858D01*
X-69370000Y1266000D01*
X-69298572Y1551715D01*
X-69227143Y1694572D01*
X-69155715Y1766000D01*
X-69012858Y1837429D01*
D11*
G04 #@! TO.P,R1,2*
G04 #@! TO.N,Net-(D1-Pad2)*
X-63849000Y15621000D03*
G04 #@! TO.P,R1,1*
G04 #@! TO.N,Net-(CN1-Pad2)*
X-59849000Y15621000D03*
G04 #@! TD*
D12*
G04 #@! TO.P,CN1,*
G04 #@! TO.N,*
X-49920000Y4603000D03*
X-59920000Y4603000D03*
D13*
G04 #@! TO.P,CN1,6*
G04 #@! TO.N,N/C*
X-51770000Y13603000D03*
G04 #@! TO.P,CN1,5*
G04 #@! TO.N,GND*
X-53031000Y11103000D03*
G04 #@! TO.P,CN1,4*
G04 #@! TO.N,Net-(C3-Pad1)*
X-54290000Y13603000D03*
G04 #@! TO.P,CN1,3*
G04 #@! TO.N,Net-(CN1-Pad3)*
X-55550000Y11103000D03*
G04 #@! TO.P,CN1,2*
G04 #@! TO.N,Net-(CN1-Pad2)*
X-56810000Y13603000D03*
G04 #@! TO.P,CN1,1*
G04 #@! TO.N,N/C*
X-58070000Y11103000D03*
G04 #@! TD*
D14*
G04 #@! TO.P,RN1,6*
G04 #@! TO.N,N/C*
X-67670000Y29053000D03*
G04 #@! TO.P,RN1,5*
G04 #@! TO.N,Net-(RN1-Pad5)*
X-67670000Y26513000D03*
G04 #@! TO.P,RN1,4*
G04 #@! TO.N,Net-(RN1-Pad4)*
X-67670000Y23973000D03*
G04 #@! TO.P,RN1,3*
G04 #@! TO.N,Net-(RN1-Pad3)*
X-67670000Y21433000D03*
G04 #@! TO.P,RN1,2*
G04 #@! TO.N,Net-(RN1-Pad2)*
X-67670000Y18893000D03*
D15*
G04 #@! TO.P,RN1,1*
G04 #@! TO.N,+3V3*
X-67670000Y16353000D03*
G04 #@! TD*
D16*
G04 #@! TO.P,S5,4*
G04 #@! TO.N,N/C*
X-102420000Y41603000D03*
G04 #@! TO.P,S5,5*
X-104920000Y41603000D03*
G04 #@! TO.P,S5,6*
X-107420000Y41603000D03*
G04 #@! TO.P,S5,1*
G04 #@! TO.N,Net-(R6-Pad2)*
X-107420000Y35603000D03*
G04 #@! TO.P,S5,2*
G04 #@! TO.N,GND*
X-104920000Y35603000D03*
G04 #@! TO.P,S5,3*
G04 #@! TO.N,N/C*
X-102420000Y35603000D03*
G04 #@! TD*
G04 #@! TO.P,S1,4*
G04 #@! TO.N,N/C*
X-77420000Y41603000D03*
G04 #@! TO.P,S1,5*
X-79920000Y41603000D03*
G04 #@! TO.P,S1,6*
X-82420000Y41603000D03*
G04 #@! TO.P,S1,1*
G04 #@! TO.N,Net-(RN1-Pad5)*
X-82420000Y35603000D03*
G04 #@! TO.P,S1,2*
G04 #@! TO.N,GND*
X-79920000Y35603000D03*
G04 #@! TO.P,S1,3*
G04 #@! TO.N,N/C*
X-77420000Y35603000D03*
G04 #@! TD*
G04 #@! TO.P,S2,4*
G04 #@! TO.N,N/C*
X-52420000Y41603000D03*
G04 #@! TO.P,S2,5*
X-54920000Y41603000D03*
G04 #@! TO.P,S2,6*
X-57420000Y41603000D03*
G04 #@! TO.P,S2,1*
G04 #@! TO.N,Net-(RN1-Pad4)*
X-57420000Y35603000D03*
G04 #@! TO.P,S2,2*
G04 #@! TO.N,GND*
X-54920000Y35603000D03*
G04 #@! TO.P,S2,3*
G04 #@! TO.N,N/C*
X-52420000Y35603000D03*
G04 #@! TD*
G04 #@! TO.P,S3,4*
G04 #@! TO.N,N/C*
X-27420000Y41603000D03*
G04 #@! TO.P,S3,5*
X-29920000Y41603000D03*
G04 #@! TO.P,S3,6*
X-32420000Y41603000D03*
G04 #@! TO.P,S3,1*
G04 #@! TO.N,Net-(RN1-Pad3)*
X-32420000Y35603000D03*
G04 #@! TO.P,S3,2*
G04 #@! TO.N,GND*
X-29920000Y35603000D03*
G04 #@! TO.P,S3,3*
G04 #@! TO.N,N/C*
X-27420000Y35603000D03*
G04 #@! TD*
G04 #@! TO.P,S4,4*
G04 #@! TO.N,N/C*
X-2420000Y41603000D03*
G04 #@! TO.P,S4,5*
X-4920000Y41603000D03*
G04 #@! TO.P,S4,6*
X-7420000Y41603000D03*
G04 #@! TO.P,S4,1*
G04 #@! TO.N,GND*
X-7420000Y35603000D03*
G04 #@! TO.P,S4,2*
G04 #@! TO.N,Net-(RN1-Pad2)*
X-4920000Y35603000D03*
G04 #@! TO.P,S4,3*
G04 #@! TO.N,N/C*
X-2420000Y35603000D03*
G04 #@! TD*
D14*
G04 #@! TO.P,U2,16*
G04 #@! TO.N,+3V3*
X-75550000Y13853000D03*
G04 #@! TO.P,U2,8*
G04 #@! TO.N,GND*
X-83170000Y31633000D03*
G04 #@! TO.P,U2,15*
X-75550000Y16393000D03*
G04 #@! TO.P,U2,7*
G04 #@! TO.N,N/C*
X-83170000Y29093000D03*
G04 #@! TO.P,U2,14*
G04 #@! TO.N,Net-(RN1-Pad2)*
X-75550000Y18933000D03*
G04 #@! TO.P,U2,6*
G04 #@! TO.N,Net-(R6-Pad2)*
X-83170000Y26553000D03*
G04 #@! TO.P,U2,13*
G04 #@! TO.N,Net-(RN1-Pad3)*
X-75550000Y21473000D03*
G04 #@! TO.P,U2,5*
G04 #@! TO.N,GND*
X-83170000Y24013000D03*
G04 #@! TO.P,U2,12*
G04 #@! TO.N,Net-(RN1-Pad4)*
X-75550000Y24013000D03*
G04 #@! TO.P,U2,4*
G04 #@! TO.N,GND*
X-83170000Y21473000D03*
G04 #@! TO.P,U2,11*
G04 #@! TO.N,Net-(RN1-Pad5)*
X-75550000Y26553000D03*
G04 #@! TO.P,U2,3*
G04 #@! TO.N,+3V3*
X-83170000Y18933000D03*
G04 #@! TO.P,U2,10*
G04 #@! TO.N,GND*
X-75550000Y29093000D03*
G04 #@! TO.P,U2,2*
G04 #@! TO.N,/CLK*
X-83170000Y16393000D03*
G04 #@! TO.P,U2,9*
G04 #@! TO.N,/Q*
X-75550000Y31633000D03*
D15*
G04 #@! TO.P,U2,1*
G04 #@! TO.N,/~LOAD~*
X-83170000Y13853000D03*
G04 #@! TD*
D17*
G04 #@! TO.P,D2,2*
G04 #@! TO.N,Net-(D2-Pad2)*
X-44760000Y20103000D03*
D18*
G04 #@! TO.P,D2,1*
G04 #@! TO.N,GND*
X-54920000Y20103000D03*
G04 #@! TD*
D19*
G04 #@! TO.P,R2,2*
G04 #@! TO.N,Net-(CN1-Pad2)*
X-50546000Y18193000D03*
G04 #@! TO.P,R2,1*
G04 #@! TO.N,Net-(D2-Pad2)*
X-50546000Y22193000D03*
G04 #@! TD*
D11*
G04 #@! TO.P,R5,2*
G04 #@! TO.N,/Q*
X-61920000Y31603000D03*
G04 #@! TO.P,R5,1*
G04 #@! TO.N,Net-(C3-Pad1)*
X-57920000Y31603000D03*
G04 #@! TD*
G04 #@! TO.P,R4,2*
G04 #@! TO.N,Net-(CN1-Pad3)*
X-69120000Y3810000D03*
G04 #@! TO.P,R4,1*
G04 #@! TO.N,/~LOAD~*
X-73120000Y3810000D03*
G04 #@! TD*
D20*
G04 #@! TO.P,C1,2*
G04 #@! TO.N,GND*
X-72670000Y14853000D03*
G04 #@! TO.P,C1,1*
G04 #@! TO.N,+5V*
X-72670000Y10853000D03*
G04 #@! TD*
D21*
G04 #@! TO.P,C3,2*
G04 #@! TO.N,GND*
X-50324000Y26289000D03*
G04 #@! TO.P,C3,1*
G04 #@! TO.N,Net-(C3-Pad1)*
X-54324000Y26289000D03*
G04 #@! TD*
D22*
G04 #@! TO.P,D3,2*
G04 #@! TO.N,GND*
X-70104000Y13569000D03*
G04 #@! TO.P,D3,1*
G04 #@! TO.N,+5V*
X-70104000Y11069000D03*
G04 #@! TD*
D23*
G04 #@! TO.P,D1,2*
G04 #@! TO.N,Net-(D1-Pad2)*
X-64644000Y11557000D03*
G04 #@! TO.P,D1,1*
G04 #@! TO.N,+5V*
X-67944000Y11557000D03*
G04 #@! TD*
D22*
G04 #@! TO.P,D4,2*
G04 #@! TO.N,GND*
X-85852000Y21443000D03*
G04 #@! TO.P,D4,1*
G04 #@! TO.N,+3V3*
X-85852000Y18943000D03*
G04 #@! TD*
D19*
G04 #@! TO.P,R3,2*
G04 #@! TO.N,Net-(CN1-Pad2)*
X-81026000Y6636000D03*
G04 #@! TO.P,R3,1*
G04 #@! TO.N,/CLK*
X-81026000Y10636000D03*
G04 #@! TD*
D24*
G04 #@! TO.P,U1,5*
G04 #@! TO.N,+3V3*
X-74742000Y9187000D03*
G04 #@! TO.P,U1,4*
G04 #@! TO.N,N/C*
X-76642000Y9187000D03*
G04 #@! TO.P,U1,3*
G04 #@! TO.N,+5V*
X-76642000Y11387000D03*
G04 #@! TO.P,U1,2*
G04 #@! TO.N,GND*
X-75692000Y11387000D03*
G04 #@! TO.P,U1,1*
G04 #@! TO.N,+5V*
X-74742000Y11387000D03*
G04 #@! TD*
D19*
G04 #@! TO.P,R6,2*
G04 #@! TO.N,Net-(R6-Pad2)*
X-89670000Y23103000D03*
G04 #@! TO.P,R6,1*
G04 #@! TO.N,+3V3*
X-89670000Y19103000D03*
G04 #@! TD*
D20*
G04 #@! TO.P,C2,2*
G04 #@! TO.N,+3V3*
X-80670000Y18353000D03*
G04 #@! TO.P,C2,1*
G04 #@! TO.N,GND*
X-80670000Y22353000D03*
G04 #@! TD*
D12*
G04 #@! TO.P,REF\002A\002A,*
G04 #@! TO.N,*
X-92420000Y28603000D03*
G04 #@! TD*
G04 #@! TO.P,REF\002A\002A,*
G04 #@! TO.N,*
X-17420000Y28603000D03*
G04 #@! TD*
D25*
G04 #@! TO.N,Net-(C3-Pad1)*
X-85852000Y19939000D02*
X-85471000Y20447000D01*
X-86233000Y20447000D02*
X-85852000Y19939000D01*
X-70104000Y12065000D02*
X-69723000Y12573000D01*
X-70485000Y12573000D02*
X-70104000Y12065000D01*
D26*
G04 #@! TO.N,+3V3*
X-75750000Y14053000D02*
X-75550000Y13853000D01*
D27*
X-80670000Y18353000D02*
X-77820000Y15503000D01*
X-85852000Y18943000D02*
X-89510000Y18943000D01*
D26*
X-89510000Y18943000D02*
X-89670000Y19103000D01*
D27*
X-85852000Y18943000D02*
X-83180000Y18943000D01*
D26*
X-85852000Y18593000D02*
X-86252000Y18593000D01*
X-85992000Y18733000D02*
X-85852000Y18593000D01*
X-80670000Y19103000D02*
X-80670000Y17805000D01*
X-80840000Y18933000D02*
X-80670000Y19103000D01*
X-83180000Y18943000D02*
X-83170000Y18933000D01*
D27*
X-83170000Y18933000D02*
X-80840000Y18933000D01*
X-77820000Y15503000D02*
X-77820000Y14001000D01*
X-77672000Y13853000D02*
X-75550000Y13853000D01*
X-77820000Y14001000D02*
X-77672000Y13853000D01*
D26*
X-67670000Y15153000D02*
X-67670000Y16353000D01*
X-66969992Y14452992D02*
X-67670000Y15153000D01*
X-66969992Y10581006D02*
X-66969992Y14452992D01*
X-68617998Y8933000D02*
X-66969992Y10581006D01*
X-74742000Y8933000D02*
X-68617998Y8933000D01*
X-74742000Y8728000D02*
X-74742000Y8933000D01*
D27*
X-78670000Y12855000D02*
X-78670000Y10353000D01*
X-77672000Y13853000D02*
X-78670000Y12855000D01*
D26*
X-74742000Y8982000D02*
X-74742000Y9187000D01*
X-77216000Y7747000D02*
X-75692000Y7747000D01*
X-75692000Y7747000D02*
X-74742000Y8982000D01*
X-77851000Y8128000D02*
X-77216000Y7747000D01*
X-77893688Y8128000D02*
X-78343356Y8493356D01*
X-77851000Y8128000D02*
X-77893688Y8128000D01*
X-78670000Y8820000D02*
X-78670000Y10353000D01*
X-78343356Y8493356D02*
X-78670000Y8820000D01*
D27*
G04 #@! TO.N,GND*
X-75550000Y16393000D02*
X-74210000Y16393000D01*
X-74210000Y16393000D02*
X-72670000Y14853000D01*
X-72670000Y14853000D02*
X-70626000Y14853000D01*
X-70626000Y14853000D02*
X-70104000Y14331000D01*
D26*
X-80670000Y22353000D02*
X-80670000Y21513000D01*
X-80670000Y21513000D02*
X-75550000Y16393000D01*
D27*
X-83170000Y21473000D02*
X-82290000Y22353000D01*
X-82290000Y22353000D02*
X-80670000Y22353000D01*
X-47440000Y12123000D02*
X-47440000Y18123000D01*
D28*
X-47440000Y18123000D02*
X-49420000Y20103000D01*
D27*
X-27960000Y31603000D02*
X-25460000Y34103000D01*
X-25460000Y34103000D02*
X-8920000Y34103000D01*
X-7420000Y35603000D02*
X-8920000Y34103000D01*
X-27960000Y31603000D02*
X-44896000Y14667000D01*
D26*
X-83170000Y24013000D02*
X-81170000Y26013000D01*
X-83170000Y31633000D02*
X-81170000Y29633000D01*
X-75550000Y29093000D02*
X-77470000Y31013000D01*
X-79920000Y35603000D02*
X-77470000Y33153000D01*
X-77470000Y32385000D02*
X-77470000Y31013000D01*
X-77470000Y33153000D02*
X-77470000Y32385000D01*
D27*
X-104920000Y35603000D02*
X-102420000Y38103000D01*
X-83170000Y31633000D02*
X-89640000Y38103000D01*
X-79920000Y35603000D02*
X-82420000Y38103000D01*
X-54920000Y35603000D02*
X-57420000Y38103000D01*
X-29920000Y35603000D02*
X-32420000Y38103000D01*
X-7420000Y35603000D02*
X-9920000Y38103000D01*
X-9920000Y38103000D02*
X-31420000Y38103000D01*
X-50324000Y26289000D02*
X-54920000Y21693000D01*
X-54920000Y21693000D02*
X-54920000Y20103000D01*
D26*
X-75540000Y29103000D02*
X-75550000Y29093000D01*
X-50324000Y26289000D02*
X-50800000Y26289000D01*
D27*
X-52215000Y10287000D02*
X-53031000Y11103000D01*
X-44896000Y14667000D02*
X-47440000Y12123000D01*
X-47440000Y12123000D02*
X-49276000Y10287000D01*
X-49276000Y10287000D02*
X-52215000Y10287000D01*
X-85852000Y21443000D02*
X-83200000Y21443000D01*
D26*
X-83200000Y21443000D02*
X-83170000Y21473000D01*
D27*
X-55880000Y38103000D02*
X-32420000Y38103000D01*
X-32420000Y38103000D02*
X-31420000Y38103000D01*
D26*
X-79920000Y35603000D02*
X-79672000Y35603000D01*
D27*
X-79248000Y38103000D02*
X-57420000Y38103000D01*
X-57420000Y38103000D02*
X-55880000Y38103000D01*
D26*
X-81170000Y26013000D02*
X-81170000Y29633000D01*
X-83170000Y31633000D02*
X-83450000Y31633000D01*
D27*
X-83170000Y24013000D02*
X-83170000Y21473000D01*
D26*
X-83450000Y31353000D02*
X-83170000Y31633000D01*
D27*
X-102420000Y38103000D02*
X-89640000Y38103000D01*
X-89640000Y38103000D02*
X-84170000Y38103000D01*
X-84170000Y38103000D02*
X-82420000Y38103000D01*
X-82420000Y38103000D02*
X-79248000Y38103000D01*
D26*
X-79248000Y38103000D02*
X-79170000Y38103000D01*
X-79170000Y38103000D02*
X-79420000Y38103000D01*
D28*
X-49420000Y20103000D02*
X-54920000Y20103000D01*
D26*
X-75692000Y12192000D02*
X-75692000Y11387000D01*
X-75438000Y12446000D02*
X-75692000Y12192000D01*
X-74549000Y12446000D02*
X-75438000Y12446000D01*
X-72670000Y14353000D02*
X-74549000Y12446000D01*
D27*
G04 #@! TO.N,Net-(D1-Pad2)*
X-64644000Y14826000D02*
X-63849000Y15621000D01*
X-64644000Y11557000D02*
X-64644000Y14826000D01*
D26*
G04 #@! TO.N,Net-(RN1-Pad2)*
X-4920000Y35103000D02*
X-4920000Y35603000D01*
X-67670000Y18893000D02*
X-67210000Y18893000D01*
D27*
X-75550000Y18933000D02*
X-67680000Y18933000D01*
D26*
X-67680000Y18933000D02*
X-67670000Y18943000D01*
D27*
X-6858000Y32131000D02*
X-4920000Y35603000D01*
X-6858000Y24511000D02*
X-6858000Y32131000D01*
X-22606000Y8255000D02*
X-6858000Y24511000D01*
X-23258000Y7603000D02*
X-22606000Y8255000D01*
X-61468000Y7239000D02*
X-23258000Y7603000D01*
X-65532000Y2921000D02*
X-61468000Y7239000D01*
D26*
X-65993001Y2459999D02*
X-65532000Y2921000D01*
X-70520001Y2459999D02*
X-65993001Y2459999D01*
X-71120000Y3059998D02*
X-70520001Y2459999D01*
X-71120000Y4560002D02*
X-71120000Y3059998D01*
X-72082988Y5522990D02*
X-71120000Y4560002D01*
X-77216000Y5522990D02*
X-72082988Y5522990D01*
X-78166990Y4572000D02*
X-77216000Y5522990D01*
X-81712002Y4572000D02*
X-78166990Y4572000D01*
X-82804000Y5663998D02*
X-81712002Y4572000D01*
X-74577039Y7902999D02*
X-75184000Y6985000D01*
X-75184000Y6985000D02*
X-77597000Y6985000D01*
X-67670000Y18893000D02*
X-66269982Y17492982D01*
X-68658036Y7902999D02*
X-74577039Y7902999D01*
X-66269982Y10291053D02*
X-68658036Y7902999D01*
X-77597000Y6985000D02*
X-79629000Y8636000D01*
X-82804000Y7608002D02*
X-82804000Y5663998D01*
X-81776002Y8636000D02*
X-82804000Y7608002D01*
X-79629000Y8636000D02*
X-81776002Y8636000D01*
X-66269982Y17492982D02*
X-66269982Y10291053D01*
D27*
G04 #@! TO.N,Net-(RN1-Pad3)*
X-61233000Y26016000D02*
X-59520000Y27729000D01*
X-75550000Y21473000D02*
X-67680000Y21473000D01*
X-65766000Y21483000D02*
X-67670000Y21483000D01*
D26*
X-61214000Y26035000D02*
X-61233000Y26016000D01*
D27*
X-61233000Y26016000D02*
X-65766000Y21483000D01*
D26*
X-67670000Y21483000D02*
X-67040000Y21483000D01*
X-67680000Y21473000D02*
X-67670000Y21483000D01*
X-59520000Y33003000D02*
X-59520000Y27729000D01*
X-58674000Y33655000D02*
X-59520000Y33003000D01*
D27*
X-47920000Y35603000D02*
X-50038000Y33655000D01*
X-32420000Y35603000D02*
X-47920000Y35603000D01*
D26*
X-50038000Y33655000D02*
X-58674000Y33655000D01*
D29*
G04 #@! TO.N,Net-(RN1-Pad4)*
X-57420000Y35603000D02*
X-58420000Y35603000D01*
X-58420000Y35603000D02*
X-60320000Y33703000D01*
D26*
X-63420000Y27103000D02*
X-60320000Y30203000D01*
D27*
X-63420000Y27103000D02*
X-66500000Y24023000D01*
D26*
X-67670000Y24023000D02*
X-66500000Y24023000D01*
X-60320000Y30203000D02*
X-60320000Y33703000D01*
X-67680000Y24013000D02*
X-67670000Y24023000D01*
D27*
X-75550000Y24013000D02*
X-67680000Y24013000D01*
D26*
G04 #@! TO.N,Net-(RN1-Pad5)*
X-75550000Y26553000D02*
X-75620000Y26553000D01*
X-75620000Y26553000D02*
X-78920000Y29853000D01*
X-67680000Y26553000D02*
X-67670000Y26563000D01*
X-82420000Y35603000D02*
X-80170000Y33353000D01*
X-78920000Y32103000D02*
X-78920000Y29853000D01*
X-80170000Y33353000D02*
X-78920000Y32103000D01*
D27*
X-75550000Y26553000D02*
X-67680000Y26553000D01*
D26*
G04 #@! TO.N,/CLK*
X-81026000Y14249000D02*
X-81026000Y10636000D01*
X-83170000Y16393000D02*
X-81026000Y14249000D01*
G04 #@! TO.N,/Q*
X-61920000Y31603000D02*
X-61950000Y31633000D01*
D27*
X-61950000Y31633000D02*
X-75550000Y31633000D01*
D26*
G04 #@! TO.N,+5V*
X-72920000Y11103000D02*
X-72670000Y10853000D01*
X-67670000Y11831000D02*
X-67944000Y11557000D01*
X-68218000Y11831000D02*
X-67944000Y11557000D01*
X-72950000Y11133000D02*
X-72670000Y10853000D01*
X-74742000Y10457000D02*
X-74742000Y11387000D01*
X-74842001Y10356999D02*
X-74742000Y10457000D01*
X-76541999Y10356999D02*
X-74842001Y10356999D01*
X-76642000Y10457000D02*
X-76541999Y10356999D01*
X-76642000Y11387000D02*
X-76642000Y10457000D01*
X-73204000Y11387000D02*
X-72670000Y10853000D01*
X-74742000Y11387000D02*
X-73204000Y11387000D01*
X-70320000Y10853000D02*
X-70104000Y11069000D01*
X-72670000Y10853000D02*
X-70320000Y10853000D01*
X-69616000Y11557000D02*
X-70104000Y11069000D01*
X-67944000Y11557000D02*
X-69616000Y11557000D01*
G04 #@! TO.N,Net-(C3-Pad1)*
X-58674000Y18203000D02*
X-58674000Y17987000D01*
D27*
X-58674000Y17987000D02*
X-54290000Y13603000D01*
X-57920000Y31603000D02*
X-54324000Y28007000D01*
X-54324000Y28007000D02*
X-54324000Y26289000D01*
D26*
X-54324000Y26289000D02*
X-54610000Y26289000D01*
D27*
X-54610000Y26289000D02*
X-58674000Y22225000D01*
X-58674000Y22225000D02*
X-58674000Y18203000D01*
D26*
X-58674000Y18203000D02*
X-58674000Y18161000D01*
X-54290000Y13603000D02*
X-54116000Y13603000D01*
D27*
G04 #@! TO.N,Net-(CN1-Pad2)*
X-59955000Y13568000D02*
X-56845000Y13568000D01*
D26*
X-56845000Y13568000D02*
X-56810000Y13603000D01*
X-56810000Y13603000D02*
X-56402000Y13603000D01*
X-56402000Y13603000D02*
X-55118000Y12319000D01*
D29*
X-48768000Y16415000D02*
X-50546000Y18193000D01*
X-48768000Y13589000D02*
X-48768000Y16415000D01*
X-50546000Y11811000D02*
X-48768000Y13589000D01*
D26*
X-51562000Y11811000D02*
X-50546000Y11811000D01*
X-52070000Y12319000D02*
X-51562000Y11811000D01*
X-52578000Y12319000D02*
X-52070000Y12319000D01*
X-52832000Y12573000D02*
X-52578000Y12319000D01*
X-53340000Y12573000D02*
X-52832000Y12573000D01*
X-53594000Y12319000D02*
X-53340000Y12573000D01*
X-53848000Y12319000D02*
X-53594000Y12319000D01*
X-54610000Y12319000D02*
X-53848000Y12319000D01*
X-55118000Y12319000D02*
X-54610000Y12319000D01*
D29*
X-59920000Y13533000D02*
X-59920000Y10603000D01*
D27*
X-59849000Y13674000D02*
X-59849000Y15621000D01*
D26*
X-59955000Y13568000D02*
X-59849000Y13674000D01*
X-79280000Y6636000D02*
X-81026000Y6636000D01*
X-78867000Y6223000D02*
X-79280000Y6636000D01*
X-68326000Y6223000D02*
X-78867000Y6223000D01*
X-64920000Y9603000D02*
X-66920000Y7603000D01*
X-66920000Y7603000D02*
X-66946000Y7603000D01*
X-66946000Y7603000D02*
X-68326000Y6223000D01*
X-60920000Y9603000D02*
X-64920000Y9603000D01*
X-59920000Y10603000D02*
X-60920000Y9603000D01*
D27*
G04 #@! TO.N,Net-(CN1-Pad3)*
X-62310000Y8603000D02*
X-66310000Y4603000D01*
X-57920000Y8603000D02*
X-55550000Y10973000D01*
X-62310000Y8603000D02*
X-57920000Y8603000D01*
D26*
X-66310000Y4603000D02*
X-66390000Y4603000D01*
X-55550000Y11103000D02*
X-55550000Y10973000D01*
X-55550000Y11103000D02*
X-55550000Y10983000D01*
D27*
X-67103000Y3810000D02*
X-69120000Y3810000D01*
X-66310000Y4603000D02*
X-67103000Y3810000D01*
G04 #@! TO.N,Net-(D2-Pad2)*
X-50546000Y22193000D02*
X-46850000Y22193000D01*
X-46850000Y22193000D02*
X-44760000Y20103000D01*
D26*
G04 #@! TO.N,/~LOAD~*
X-83170000Y13853000D02*
X-83170000Y13789000D01*
D27*
X-73270000Y3810000D02*
X-73120000Y3810000D01*
X-75120000Y1960000D02*
X-73270000Y3810000D01*
X-83170000Y13853000D02*
X-84370000Y13853000D01*
X-84370000Y13853000D02*
X-84836000Y13387000D01*
X-84836000Y13387000D02*
X-84836000Y13335000D01*
X-84836000Y13335000D02*
X-86360000Y11811000D01*
X-86360000Y11811000D02*
X-86360000Y6096000D01*
X-82224000Y1960000D02*
X-75120000Y1960000D01*
X-86360000Y6096000D02*
X-82224000Y1960000D01*
G04 #@! TO.N,Net-(R6-Pad2)*
X-107420000Y35603000D02*
X-104920000Y33103000D01*
X-86295000Y26478000D02*
X-83245000Y26478000D01*
D26*
X-83245000Y26478000D02*
X-83170000Y26553000D01*
D27*
X-89670000Y23103000D02*
X-86295000Y26478000D01*
X-104920000Y33103000D02*
X-92920000Y33103000D01*
X-92920000Y33103000D02*
X-89872000Y33103000D01*
X-86295000Y29526000D02*
X-86295000Y26478000D01*
X-89872000Y33103000D02*
X-86295000Y29526000D01*
G04 #@! TD*
D28*
G04 #@! TO.N,GND*
G36*
X-1044999Y42773583D02*
X-1400382Y43128966D01*
X-2061958Y43403000D01*
X-2778042Y43403000D01*
X-3439618Y43128966D01*
X-3670000Y42898584D01*
X-3900382Y43128966D01*
X-4561958Y43403000D01*
X-5278042Y43403000D01*
X-5939618Y43128966D01*
X-6170000Y42898584D01*
X-6400382Y43128966D01*
X-7061958Y43403000D01*
X-7778042Y43403000D01*
X-8439618Y43128966D01*
X-8945966Y42622618D01*
X-9220000Y41961042D01*
X-9220000Y41244958D01*
X-8945966Y40583382D01*
X-8439618Y40077034D01*
X-7778042Y39803000D01*
X-7061958Y39803000D01*
X-6400382Y40077034D01*
X-6170000Y40307416D01*
X-5939618Y40077034D01*
X-5278042Y39803000D01*
X-4561958Y39803000D01*
X-3900382Y40077034D01*
X-3670000Y40307416D01*
X-3439618Y40077034D01*
X-2778042Y39803000D01*
X-2061958Y39803000D01*
X-1400382Y40077034D01*
X-1044999Y40432417D01*
X-1044999Y36773583D01*
X-1400382Y37128966D01*
X-2061958Y37403000D01*
X-2778042Y37403000D01*
X-3439618Y37128966D01*
X-3670000Y36898584D01*
X-3900382Y37128966D01*
X-4561958Y37403000D01*
X-5278042Y37403000D01*
X-5939618Y37128966D01*
X-6445966Y36622618D01*
X-6720000Y35961042D01*
X-6720000Y35558417D01*
X-8181216Y32940592D01*
X-8318067Y32735780D01*
X-8360596Y32521969D01*
X-8427671Y32314543D01*
X-8407999Y32069005D01*
X-8408000Y25138668D01*
X-23710730Y9342300D01*
X-23906135Y9146895D01*
X-55484903Y8846067D01*
X-54934184Y9396785D01*
X-54523585Y9566861D01*
X-54013861Y10076585D01*
X-53738000Y10742571D01*
X-53738000Y11069000D01*
X-53717104Y11069000D01*
X-53594000Y11044513D01*
X-53470896Y11069000D01*
X-53470891Y11069000D01*
X-53106275Y11141527D01*
X-53086000Y11155074D01*
X-53065725Y11141527D01*
X-52701109Y11069000D01*
X-52701105Y11069000D01*
X-52578001Y11044513D01*
X-52565722Y11046956D01*
X-52532936Y11014170D01*
X-52463199Y10909801D01*
X-52049725Y10633527D01*
X-51685109Y10561000D01*
X-51685105Y10561000D01*
X-51562001Y10536513D01*
X-51438897Y10561000D01*
X-51105177Y10561000D01*
X-51072743Y10539328D01*
X-50546000Y10434552D01*
X-50019257Y10539328D01*
X-49685425Y10762387D01*
X-47907425Y12540387D01*
X-47794705Y12615704D01*
X-47496328Y13062256D01*
X-47418000Y13456037D01*
X-47418000Y13456038D01*
X-47391552Y13589000D01*
X-47418000Y13721963D01*
X-47418000Y16282037D01*
X-47391552Y16415000D01*
X-47496328Y16941744D01*
X-47510576Y16963068D01*
X-47794704Y17388296D01*
X-47907427Y17463615D01*
X-48625430Y18181618D01*
X-48625430Y19193000D01*
X-48706922Y19602689D01*
X-48938993Y19950007D01*
X-49286311Y20182078D01*
X-49341220Y20193000D01*
X-49286311Y20203922D01*
X-48938993Y20435993D01*
X-48800675Y20643000D01*
X-47492030Y20643000D01*
X-47207235Y20358204D01*
X-47257998Y20103000D01*
X-47067849Y19147058D01*
X-46526351Y18336649D01*
X-45715942Y17795151D01*
X-45001302Y17653000D01*
X-44518698Y17653000D01*
X-43804058Y17795151D01*
X-42993649Y18336649D01*
X-42452151Y19147058D01*
X-42262002Y20103000D01*
X-42452151Y21058942D01*
X-42700752Y21431000D01*
X-41754143Y21431000D01*
X-41754143Y26081000D01*
X-49939857Y26081000D01*
X-49939857Y24263570D01*
X-51396000Y24263570D01*
X-51805689Y24182078D01*
X-52153007Y23950007D01*
X-52385078Y23602689D01*
X-52466570Y23193000D01*
X-52466570Y21193000D01*
X-52385078Y20783311D01*
X-52153007Y20435993D01*
X-51805689Y20203922D01*
X-51750780Y20193000D01*
X-51805689Y20182078D01*
X-52153007Y19950007D01*
X-52385078Y19602689D01*
X-52466570Y19193000D01*
X-52466570Y17193000D01*
X-52385078Y16783311D01*
X-52153007Y16435993D01*
X-51805689Y16203922D01*
X-51396000Y16122430D01*
X-50384618Y16122430D01*
X-50117999Y15855811D01*
X-50118000Y14349702D01*
X-50233861Y14629415D01*
X-50743585Y15139139D01*
X-51409571Y15415000D01*
X-52130429Y15415000D01*
X-52796415Y15139139D01*
X-53030000Y14905554D01*
X-53263585Y15139139D01*
X-53896109Y15401139D01*
X-57124000Y18629030D01*
X-57124000Y21582970D01*
X-54288539Y24418430D01*
X-53324000Y24418430D01*
X-52914311Y24499922D01*
X-52566993Y24731993D01*
X-52334922Y25079311D01*
X-52253430Y25489000D01*
X-52253430Y26511000D01*
X-45500714Y26511000D01*
X-45500714Y29159955D01*
X-20220000Y29159955D01*
X-20220000Y28046045D01*
X-19793725Y27016928D01*
X-19006072Y26229275D01*
X-17976955Y25803000D01*
X-16863045Y25803000D01*
X-15833928Y26229275D01*
X-15046275Y27016928D01*
X-14620000Y28046045D01*
X-14620000Y29159955D01*
X-15046275Y30189072D01*
X-15833928Y30976725D01*
X-16863045Y31403000D01*
X-17976955Y31403000D01*
X-19006072Y30976725D01*
X-19793725Y30189072D01*
X-20220000Y29159955D01*
X-45500714Y29159955D01*
X-45500714Y31161000D01*
X-54829285Y31161000D01*
X-54829285Y30704316D01*
X-55849430Y31724460D01*
X-55849430Y32405000D01*
X-50954518Y32405000D01*
X-50703244Y32221471D01*
X-50104017Y32076013D01*
X-49494741Y32170943D01*
X-49101088Y32410814D01*
X-47315589Y34053000D01*
X-33381595Y34053000D01*
X-32778042Y33803000D01*
X-32061958Y33803000D01*
X-31400382Y34077034D01*
X-30894034Y34583382D01*
X-30620000Y35244958D01*
X-30620000Y35961042D01*
X-29220000Y35961042D01*
X-29220000Y35244958D01*
X-28945966Y34583382D01*
X-28439618Y34077034D01*
X-27778042Y33803000D01*
X-27061958Y33803000D01*
X-26400382Y34077034D01*
X-25894034Y34583382D01*
X-25620000Y35244958D01*
X-25620000Y35961042D01*
X-25894034Y36622618D01*
X-26400382Y37128966D01*
X-27061958Y37403000D01*
X-27778042Y37403000D01*
X-28439618Y37128966D01*
X-28945966Y36622618D01*
X-29220000Y35961042D01*
X-30620000Y35961042D01*
X-30894034Y36622618D01*
X-31400382Y37128966D01*
X-32061958Y37403000D01*
X-32778042Y37403000D01*
X-33381595Y37153000D01*
X-47734569Y37153000D01*
X-47853983Y37181987D01*
X-48040027Y37153000D01*
X-48072660Y37153000D01*
X-48190619Y37129536D01*
X-48463260Y37087057D01*
X-48491893Y37069610D01*
X-48524780Y37063068D01*
X-48754215Y36909764D01*
X-48856913Y36847186D01*
X-48880931Y36825096D01*
X-49037488Y36720488D01*
X-49105759Y36618314D01*
X-50632946Y35213705D01*
X-50620000Y35244958D01*
X-50620000Y35961042D01*
X-50894034Y36622618D01*
X-51400382Y37128966D01*
X-52061958Y37403000D01*
X-52778042Y37403000D01*
X-53439618Y37128966D01*
X-53945966Y36622618D01*
X-54220000Y35961042D01*
X-54220000Y35244958D01*
X-54079185Y34905000D01*
X-55760815Y34905000D01*
X-55620000Y35244958D01*
X-55620000Y35961042D01*
X-55894034Y36622618D01*
X-56400382Y37128966D01*
X-57061958Y37403000D01*
X-57778042Y37403000D01*
X-58439618Y37128966D01*
X-58631133Y36937451D01*
X-58946744Y36874672D01*
X-59393296Y36576296D01*
X-59468615Y36463573D01*
X-59867428Y36064760D01*
X-59867428Y36495000D01*
X-66624571Y36495000D01*
X-66624571Y33183000D01*
X-74539829Y33183000D01*
X-74828166Y33375661D01*
X-75367795Y33483000D01*
X-75732205Y33483000D01*
X-76271834Y33375661D01*
X-76883775Y32966775D01*
X-77292661Y32354834D01*
X-77436243Y31633000D01*
X-77292661Y30911166D01*
X-76883775Y30299225D01*
X-76271834Y29890339D01*
X-75732205Y29783000D01*
X-75367795Y29783000D01*
X-74828166Y29890339D01*
X-74539829Y30083000D01*
X-69206751Y30083000D01*
X-69412661Y29774834D01*
X-69556243Y29053000D01*
X-69412661Y28331166D01*
X-69260205Y28103000D01*
X-74539829Y28103000D01*
X-74828166Y28295661D01*
X-75367795Y28403000D01*
X-75702233Y28403000D01*
X-77670000Y30370766D01*
X-77670000Y31979896D01*
X-77645513Y32103000D01*
X-77670000Y32226104D01*
X-77670000Y32226109D01*
X-77742527Y32590725D01*
X-78018801Y33004199D01*
X-78123167Y33073934D01*
X-79199063Y34149829D01*
X-79199065Y34149832D01*
X-80620000Y35570766D01*
X-80620000Y35961042D01*
X-79220000Y35961042D01*
X-79220000Y35244958D01*
X-78945966Y34583382D01*
X-78439618Y34077034D01*
X-77778042Y33803000D01*
X-77061958Y33803000D01*
X-76400382Y34077034D01*
X-75894034Y34583382D01*
X-75620000Y35244958D01*
X-75620000Y35961042D01*
X-75894034Y36622618D01*
X-76400382Y37128966D01*
X-77061958Y37403000D01*
X-77778042Y37403000D01*
X-78439618Y37128966D01*
X-78945966Y36622618D01*
X-79220000Y35961042D01*
X-80620000Y35961042D01*
X-80894034Y36622618D01*
X-81400382Y37128966D01*
X-82061958Y37403000D01*
X-82778042Y37403000D01*
X-83439618Y37128966D01*
X-83945966Y36622618D01*
X-84220000Y35961042D01*
X-84220000Y35244958D01*
X-83945966Y34583382D01*
X-83439618Y34077034D01*
X-82778042Y33803000D01*
X-82387766Y33803000D01*
X-80966832Y32382065D01*
X-80966829Y32382063D01*
X-80170000Y31585233D01*
X-80169999Y29976108D01*
X-80194487Y29853000D01*
X-80097472Y29365275D01*
X-79979734Y29189068D01*
X-79821198Y28951801D01*
X-79716832Y28882066D01*
X-77428200Y26593434D01*
X-77436243Y26553000D01*
X-77320021Y25968715D01*
X-80437000Y25968715D01*
X-80437000Y20433204D01*
X-80687340Y20483000D01*
X-82159829Y20483000D01*
X-82448166Y20675661D01*
X-82987795Y20783000D01*
X-83352205Y20783000D01*
X-83891834Y20675661D01*
X-84165205Y20493000D01*
X-84366860Y20493000D01*
X-84360722Y20605611D01*
X-84505935Y21018422D01*
X-84798070Y21344239D01*
X-85192653Y21533461D01*
X-85629612Y21557278D01*
X-85852000Y21479049D01*
X-86074389Y21557278D01*
X-86511347Y21533461D01*
X-86905930Y21344239D01*
X-87198065Y21018422D01*
X-87343278Y20605611D01*
X-87337140Y20493000D01*
X-87827006Y20493000D01*
X-87830922Y20512689D01*
X-88062993Y20860007D01*
X-88410311Y21092078D01*
X-88465220Y21103000D01*
X-88410311Y21113922D01*
X-88062993Y21345993D01*
X-87830922Y21693311D01*
X-87749430Y22103000D01*
X-87749430Y22831540D01*
X-85652969Y24928000D01*
X-84067926Y24928000D01*
X-83891834Y24810339D01*
X-83352205Y24703000D01*
X-82987795Y24703000D01*
X-82448166Y24810339D01*
X-81836225Y25219225D01*
X-81427339Y25831166D01*
X-81283757Y26553000D01*
X-81427339Y27274834D01*
X-81793612Y27823000D01*
X-81427339Y28371166D01*
X-81283757Y29093000D01*
X-81427339Y29814834D01*
X-81836225Y30426775D01*
X-82448166Y30835661D01*
X-82987795Y30943000D01*
X-83352205Y30943000D01*
X-83891834Y30835661D01*
X-84503775Y30426775D01*
X-84804335Y29976956D01*
X-84834932Y30130780D01*
X-84863097Y30172932D01*
X-85177512Y30643488D01*
X-85306933Y30729964D01*
X-88668033Y34091064D01*
X-88754512Y34220488D01*
X-89267220Y34563068D01*
X-89719340Y34653000D01*
X-89872000Y34683366D01*
X-90024660Y34653000D01*
X-100865197Y34653000D01*
X-100620000Y35244958D01*
X-100620000Y35961042D01*
X-100894034Y36622618D01*
X-101400382Y37128966D01*
X-102061958Y37403000D01*
X-102778042Y37403000D01*
X-103439618Y37128966D01*
X-103945966Y36622618D01*
X-104220000Y35961042D01*
X-104220000Y35244958D01*
X-103974803Y34653000D01*
X-104277969Y34653000D01*
X-105644033Y36019064D01*
X-105894034Y36622618D01*
X-106400382Y37128966D01*
X-107061958Y37403000D01*
X-107778042Y37403000D01*
X-108439618Y37128966D01*
X-108795000Y36773584D01*
X-108795000Y40432416D01*
X-108439618Y40077034D01*
X-107778042Y39803000D01*
X-107061958Y39803000D01*
X-106400382Y40077034D01*
X-106170000Y40307416D01*
X-105939618Y40077034D01*
X-105278042Y39803000D01*
X-104561958Y39803000D01*
X-103900382Y40077034D01*
X-103670000Y40307416D01*
X-103439618Y40077034D01*
X-102778042Y39803000D01*
X-102061958Y39803000D01*
X-101400382Y40077034D01*
X-100894034Y40583382D01*
X-100620000Y41244958D01*
X-100620000Y41961042D01*
X-84220000Y41961042D01*
X-84220000Y41244958D01*
X-83945966Y40583382D01*
X-83439618Y40077034D01*
X-82778042Y39803000D01*
X-82061958Y39803000D01*
X-81400382Y40077034D01*
X-81170000Y40307416D01*
X-80939618Y40077034D01*
X-80278042Y39803000D01*
X-79561958Y39803000D01*
X-78900382Y40077034D01*
X-78670000Y40307416D01*
X-78439618Y40077034D01*
X-77778042Y39803000D01*
X-77061958Y39803000D01*
X-76400382Y40077034D01*
X-75894034Y40583382D01*
X-75620000Y41244958D01*
X-75620000Y41961042D01*
X-59220000Y41961042D01*
X-59220000Y41244958D01*
X-58945966Y40583382D01*
X-58439618Y40077034D01*
X-57778042Y39803000D01*
X-57061958Y39803000D01*
X-56400382Y40077034D01*
X-56170000Y40307416D01*
X-55939618Y40077034D01*
X-55278042Y39803000D01*
X-54561958Y39803000D01*
X-53900382Y40077034D01*
X-53670000Y40307416D01*
X-53439618Y40077034D01*
X-52778042Y39803000D01*
X-52061958Y39803000D01*
X-51400382Y40077034D01*
X-50894034Y40583382D01*
X-50620000Y41244958D01*
X-50620000Y41961042D01*
X-34220000Y41961042D01*
X-34220000Y41244958D01*
X-33945966Y40583382D01*
X-33439618Y40077034D01*
X-32778042Y39803000D01*
X-32061958Y39803000D01*
X-31400382Y40077034D01*
X-31170000Y40307416D01*
X-30939618Y40077034D01*
X-30278042Y39803000D01*
X-29561958Y39803000D01*
X-28900382Y40077034D01*
X-28670000Y40307416D01*
X-28439618Y40077034D01*
X-27778042Y39803000D01*
X-27061958Y39803000D01*
X-26400382Y40077034D01*
X-25894034Y40583382D01*
X-25620000Y41244958D01*
X-25620000Y41961042D01*
X-25894034Y42622618D01*
X-26400382Y43128966D01*
X-27061958Y43403000D01*
X-27778042Y43403000D01*
X-28439618Y43128966D01*
X-28670000Y42898584D01*
X-28900382Y43128966D01*
X-29561958Y43403000D01*
X-30278042Y43403000D01*
X-30939618Y43128966D01*
X-31170000Y42898584D01*
X-31400382Y43128966D01*
X-32061958Y43403000D01*
X-32778042Y43403000D01*
X-33439618Y43128966D01*
X-33945966Y42622618D01*
X-34220000Y41961042D01*
X-50620000Y41961042D01*
X-50894034Y42622618D01*
X-51400382Y43128966D01*
X-52061958Y43403000D01*
X-52778042Y43403000D01*
X-53439618Y43128966D01*
X-53670000Y42898584D01*
X-53900382Y43128966D01*
X-54561958Y43403000D01*
X-55278042Y43403000D01*
X-55939618Y43128966D01*
X-56170000Y42898584D01*
X-56400382Y43128966D01*
X-57061958Y43403000D01*
X-57778042Y43403000D01*
X-58439618Y43128966D01*
X-58945966Y42622618D01*
X-59220000Y41961042D01*
X-75620000Y41961042D01*
X-75894034Y42622618D01*
X-76400382Y43128966D01*
X-77061958Y43403000D01*
X-77778042Y43403000D01*
X-78439618Y43128966D01*
X-78670000Y42898584D01*
X-78900382Y43128966D01*
X-79561958Y43403000D01*
X-80278042Y43403000D01*
X-80939618Y43128966D01*
X-81170000Y42898584D01*
X-81400382Y43128966D01*
X-82061958Y43403000D01*
X-82778042Y43403000D01*
X-83439618Y43128966D01*
X-83945966Y42622618D01*
X-84220000Y41961042D01*
X-100620000Y41961042D01*
X-100894034Y42622618D01*
X-101400382Y43128966D01*
X-102061958Y43403000D01*
X-102778042Y43403000D01*
X-103439618Y43128966D01*
X-103670000Y42898584D01*
X-103900382Y43128966D01*
X-104561958Y43403000D01*
X-105278042Y43403000D01*
X-105939618Y43128966D01*
X-106170000Y42898584D01*
X-106400382Y43128966D01*
X-107061958Y43403000D01*
X-107778042Y43403000D01*
X-108439618Y43128966D01*
X-108795000Y42773584D01*
X-108795000Y43478000D01*
X-1044999Y43478000D01*
X-1044999Y42773583D01*
X-1044999Y42773583D01*
G37*
X-1044999Y42773583D02*
X-1400382Y43128966D01*
X-2061958Y43403000D01*
X-2778042Y43403000D01*
X-3439618Y43128966D01*
X-3670000Y42898584D01*
X-3900382Y43128966D01*
X-4561958Y43403000D01*
X-5278042Y43403000D01*
X-5939618Y43128966D01*
X-6170000Y42898584D01*
X-6400382Y43128966D01*
X-7061958Y43403000D01*
X-7778042Y43403000D01*
X-8439618Y43128966D01*
X-8945966Y42622618D01*
X-9220000Y41961042D01*
X-9220000Y41244958D01*
X-8945966Y40583382D01*
X-8439618Y40077034D01*
X-7778042Y39803000D01*
X-7061958Y39803000D01*
X-6400382Y40077034D01*
X-6170000Y40307416D01*
X-5939618Y40077034D01*
X-5278042Y39803000D01*
X-4561958Y39803000D01*
X-3900382Y40077034D01*
X-3670000Y40307416D01*
X-3439618Y40077034D01*
X-2778042Y39803000D01*
X-2061958Y39803000D01*
X-1400382Y40077034D01*
X-1044999Y40432417D01*
X-1044999Y36773583D01*
X-1400382Y37128966D01*
X-2061958Y37403000D01*
X-2778042Y37403000D01*
X-3439618Y37128966D01*
X-3670000Y36898584D01*
X-3900382Y37128966D01*
X-4561958Y37403000D01*
X-5278042Y37403000D01*
X-5939618Y37128966D01*
X-6445966Y36622618D01*
X-6720000Y35961042D01*
X-6720000Y35558417D01*
X-8181216Y32940592D01*
X-8318067Y32735780D01*
X-8360596Y32521969D01*
X-8427671Y32314543D01*
X-8407999Y32069005D01*
X-8408000Y25138668D01*
X-23710730Y9342300D01*
X-23906135Y9146895D01*
X-55484903Y8846067D01*
X-54934184Y9396785D01*
X-54523585Y9566861D01*
X-54013861Y10076585D01*
X-53738000Y10742571D01*
X-53738000Y11069000D01*
X-53717104Y11069000D01*
X-53594000Y11044513D01*
X-53470896Y11069000D01*
X-53470891Y11069000D01*
X-53106275Y11141527D01*
X-53086000Y11155074D01*
X-53065725Y11141527D01*
X-52701109Y11069000D01*
X-52701105Y11069000D01*
X-52578001Y11044513D01*
X-52565722Y11046956D01*
X-52532936Y11014170D01*
X-52463199Y10909801D01*
X-52049725Y10633527D01*
X-51685109Y10561000D01*
X-51685105Y10561000D01*
X-51562001Y10536513D01*
X-51438897Y10561000D01*
X-51105177Y10561000D01*
X-51072743Y10539328D01*
X-50546000Y10434552D01*
X-50019257Y10539328D01*
X-49685425Y10762387D01*
X-47907425Y12540387D01*
X-47794705Y12615704D01*
X-47496328Y13062256D01*
X-47418000Y13456037D01*
X-47418000Y13456038D01*
X-47391552Y13589000D01*
X-47418000Y13721963D01*
X-47418000Y16282037D01*
X-47391552Y16415000D01*
X-47496328Y16941744D01*
X-47510576Y16963068D01*
X-47794704Y17388296D01*
X-47907427Y17463615D01*
X-48625430Y18181618D01*
X-48625430Y19193000D01*
X-48706922Y19602689D01*
X-48938993Y19950007D01*
X-49286311Y20182078D01*
X-49341220Y20193000D01*
X-49286311Y20203922D01*
X-48938993Y20435993D01*
X-48800675Y20643000D01*
X-47492030Y20643000D01*
X-47207235Y20358204D01*
X-47257998Y20103000D01*
X-47067849Y19147058D01*
X-46526351Y18336649D01*
X-45715942Y17795151D01*
X-45001302Y17653000D01*
X-44518698Y17653000D01*
X-43804058Y17795151D01*
X-42993649Y18336649D01*
X-42452151Y19147058D01*
X-42262002Y20103000D01*
X-42452151Y21058942D01*
X-42700752Y21431000D01*
X-41754143Y21431000D01*
X-41754143Y26081000D01*
X-49939857Y26081000D01*
X-49939857Y24263570D01*
X-51396000Y24263570D01*
X-51805689Y24182078D01*
X-52153007Y23950007D01*
X-52385078Y23602689D01*
X-52466570Y23193000D01*
X-52466570Y21193000D01*
X-52385078Y20783311D01*
X-52153007Y20435993D01*
X-51805689Y20203922D01*
X-51750780Y20193000D01*
X-51805689Y20182078D01*
X-52153007Y19950007D01*
X-52385078Y19602689D01*
X-52466570Y19193000D01*
X-52466570Y17193000D01*
X-52385078Y16783311D01*
X-52153007Y16435993D01*
X-51805689Y16203922D01*
X-51396000Y16122430D01*
X-50384618Y16122430D01*
X-50117999Y15855811D01*
X-50118000Y14349702D01*
X-50233861Y14629415D01*
X-50743585Y15139139D01*
X-51409571Y15415000D01*
X-52130429Y15415000D01*
X-52796415Y15139139D01*
X-53030000Y14905554D01*
X-53263585Y15139139D01*
X-53896109Y15401139D01*
X-57124000Y18629030D01*
X-57124000Y21582970D01*
X-54288539Y24418430D01*
X-53324000Y24418430D01*
X-52914311Y24499922D01*
X-52566993Y24731993D01*
X-52334922Y25079311D01*
X-52253430Y25489000D01*
X-52253430Y26511000D01*
X-45500714Y26511000D01*
X-45500714Y29159955D01*
X-20220000Y29159955D01*
X-20220000Y28046045D01*
X-19793725Y27016928D01*
X-19006072Y26229275D01*
X-17976955Y25803000D01*
X-16863045Y25803000D01*
X-15833928Y26229275D01*
X-15046275Y27016928D01*
X-14620000Y28046045D01*
X-14620000Y29159955D01*
X-15046275Y30189072D01*
X-15833928Y30976725D01*
X-16863045Y31403000D01*
X-17976955Y31403000D01*
X-19006072Y30976725D01*
X-19793725Y30189072D01*
X-20220000Y29159955D01*
X-45500714Y29159955D01*
X-45500714Y31161000D01*
X-54829285Y31161000D01*
X-54829285Y30704316D01*
X-55849430Y31724460D01*
X-55849430Y32405000D01*
X-50954518Y32405000D01*
X-50703244Y32221471D01*
X-50104017Y32076013D01*
X-49494741Y32170943D01*
X-49101088Y32410814D01*
X-47315589Y34053000D01*
X-33381595Y34053000D01*
X-32778042Y33803000D01*
X-32061958Y33803000D01*
X-31400382Y34077034D01*
X-30894034Y34583382D01*
X-30620000Y35244958D01*
X-30620000Y35961042D01*
X-29220000Y35961042D01*
X-29220000Y35244958D01*
X-28945966Y34583382D01*
X-28439618Y34077034D01*
X-27778042Y33803000D01*
X-27061958Y33803000D01*
X-26400382Y34077034D01*
X-25894034Y34583382D01*
X-25620000Y35244958D01*
X-25620000Y35961042D01*
X-25894034Y36622618D01*
X-26400382Y37128966D01*
X-27061958Y37403000D01*
X-27778042Y37403000D01*
X-28439618Y37128966D01*
X-28945966Y36622618D01*
X-29220000Y35961042D01*
X-30620000Y35961042D01*
X-30894034Y36622618D01*
X-31400382Y37128966D01*
X-32061958Y37403000D01*
X-32778042Y37403000D01*
X-33381595Y37153000D01*
X-47734569Y37153000D01*
X-47853983Y37181987D01*
X-48040027Y37153000D01*
X-48072660Y37153000D01*
X-48190619Y37129536D01*
X-48463260Y37087057D01*
X-48491893Y37069610D01*
X-48524780Y37063068D01*
X-48754215Y36909764D01*
X-48856913Y36847186D01*
X-48880931Y36825096D01*
X-49037488Y36720488D01*
X-49105759Y36618314D01*
X-50632946Y35213705D01*
X-50620000Y35244958D01*
X-50620000Y35961042D01*
X-50894034Y36622618D01*
X-51400382Y37128966D01*
X-52061958Y37403000D01*
X-52778042Y37403000D01*
X-53439618Y37128966D01*
X-53945966Y36622618D01*
X-54220000Y35961042D01*
X-54220000Y35244958D01*
X-54079185Y34905000D01*
X-55760815Y34905000D01*
X-55620000Y35244958D01*
X-55620000Y35961042D01*
X-55894034Y36622618D01*
X-56400382Y37128966D01*
X-57061958Y37403000D01*
X-57778042Y37403000D01*
X-58439618Y37128966D01*
X-58631133Y36937451D01*
X-58946744Y36874672D01*
X-59393296Y36576296D01*
X-59468615Y36463573D01*
X-59867428Y36064760D01*
X-59867428Y36495000D01*
X-66624571Y36495000D01*
X-66624571Y33183000D01*
X-74539829Y33183000D01*
X-74828166Y33375661D01*
X-75367795Y33483000D01*
X-75732205Y33483000D01*
X-76271834Y33375661D01*
X-76883775Y32966775D01*
X-77292661Y32354834D01*
X-77436243Y31633000D01*
X-77292661Y30911166D01*
X-76883775Y30299225D01*
X-76271834Y29890339D01*
X-75732205Y29783000D01*
X-75367795Y29783000D01*
X-74828166Y29890339D01*
X-74539829Y30083000D01*
X-69206751Y30083000D01*
X-69412661Y29774834D01*
X-69556243Y29053000D01*
X-69412661Y28331166D01*
X-69260205Y28103000D01*
X-74539829Y28103000D01*
X-74828166Y28295661D01*
X-75367795Y28403000D01*
X-75702233Y28403000D01*
X-77670000Y30370766D01*
X-77670000Y31979896D01*
X-77645513Y32103000D01*
X-77670000Y32226104D01*
X-77670000Y32226109D01*
X-77742527Y32590725D01*
X-78018801Y33004199D01*
X-78123167Y33073934D01*
X-79199063Y34149829D01*
X-79199065Y34149832D01*
X-80620000Y35570766D01*
X-80620000Y35961042D01*
X-79220000Y35961042D01*
X-79220000Y35244958D01*
X-78945966Y34583382D01*
X-78439618Y34077034D01*
X-77778042Y33803000D01*
X-77061958Y33803000D01*
X-76400382Y34077034D01*
X-75894034Y34583382D01*
X-75620000Y35244958D01*
X-75620000Y35961042D01*
X-75894034Y36622618D01*
X-76400382Y37128966D01*
X-77061958Y37403000D01*
X-77778042Y37403000D01*
X-78439618Y37128966D01*
X-78945966Y36622618D01*
X-79220000Y35961042D01*
X-80620000Y35961042D01*
X-80894034Y36622618D01*
X-81400382Y37128966D01*
X-82061958Y37403000D01*
X-82778042Y37403000D01*
X-83439618Y37128966D01*
X-83945966Y36622618D01*
X-84220000Y35961042D01*
X-84220000Y35244958D01*
X-83945966Y34583382D01*
X-83439618Y34077034D01*
X-82778042Y33803000D01*
X-82387766Y33803000D01*
X-80966832Y32382065D01*
X-80966829Y32382063D01*
X-80170000Y31585233D01*
X-80169999Y29976108D01*
X-80194487Y29853000D01*
X-80097472Y29365275D01*
X-79979734Y29189068D01*
X-79821198Y28951801D01*
X-79716832Y28882066D01*
X-77428200Y26593434D01*
X-77436243Y26553000D01*
X-77320021Y25968715D01*
X-80437000Y25968715D01*
X-80437000Y20433204D01*
X-80687340Y20483000D01*
X-82159829Y20483000D01*
X-82448166Y20675661D01*
X-82987795Y20783000D01*
X-83352205Y20783000D01*
X-83891834Y20675661D01*
X-84165205Y20493000D01*
X-84366860Y20493000D01*
X-84360722Y20605611D01*
X-84505935Y21018422D01*
X-84798070Y21344239D01*
X-85192653Y21533461D01*
X-85629612Y21557278D01*
X-85852000Y21479049D01*
X-86074389Y21557278D01*
X-86511347Y21533461D01*
X-86905930Y21344239D01*
X-87198065Y21018422D01*
X-87343278Y20605611D01*
X-87337140Y20493000D01*
X-87827006Y20493000D01*
X-87830922Y20512689D01*
X-88062993Y20860007D01*
X-88410311Y21092078D01*
X-88465220Y21103000D01*
X-88410311Y21113922D01*
X-88062993Y21345993D01*
X-87830922Y21693311D01*
X-87749430Y22103000D01*
X-87749430Y22831540D01*
X-85652969Y24928000D01*
X-84067926Y24928000D01*
X-83891834Y24810339D01*
X-83352205Y24703000D01*
X-82987795Y24703000D01*
X-82448166Y24810339D01*
X-81836225Y25219225D01*
X-81427339Y25831166D01*
X-81283757Y26553000D01*
X-81427339Y27274834D01*
X-81793612Y27823000D01*
X-81427339Y28371166D01*
X-81283757Y29093000D01*
X-81427339Y29814834D01*
X-81836225Y30426775D01*
X-82448166Y30835661D01*
X-82987795Y30943000D01*
X-83352205Y30943000D01*
X-83891834Y30835661D01*
X-84503775Y30426775D01*
X-84804335Y29976956D01*
X-84834932Y30130780D01*
X-84863097Y30172932D01*
X-85177512Y30643488D01*
X-85306933Y30729964D01*
X-88668033Y34091064D01*
X-88754512Y34220488D01*
X-89267220Y34563068D01*
X-89719340Y34653000D01*
X-89872000Y34683366D01*
X-90024660Y34653000D01*
X-100865197Y34653000D01*
X-100620000Y35244958D01*
X-100620000Y35961042D01*
X-100894034Y36622618D01*
X-101400382Y37128966D01*
X-102061958Y37403000D01*
X-102778042Y37403000D01*
X-103439618Y37128966D01*
X-103945966Y36622618D01*
X-104220000Y35961042D01*
X-104220000Y35244958D01*
X-103974803Y34653000D01*
X-104277969Y34653000D01*
X-105644033Y36019064D01*
X-105894034Y36622618D01*
X-106400382Y37128966D01*
X-107061958Y37403000D01*
X-107778042Y37403000D01*
X-108439618Y37128966D01*
X-108795000Y36773584D01*
X-108795000Y40432416D01*
X-108439618Y40077034D01*
X-107778042Y39803000D01*
X-107061958Y39803000D01*
X-106400382Y40077034D01*
X-106170000Y40307416D01*
X-105939618Y40077034D01*
X-105278042Y39803000D01*
X-104561958Y39803000D01*
X-103900382Y40077034D01*
X-103670000Y40307416D01*
X-103439618Y40077034D01*
X-102778042Y39803000D01*
X-102061958Y39803000D01*
X-101400382Y40077034D01*
X-100894034Y40583382D01*
X-100620000Y41244958D01*
X-100620000Y41961042D01*
X-84220000Y41961042D01*
X-84220000Y41244958D01*
X-83945966Y40583382D01*
X-83439618Y40077034D01*
X-82778042Y39803000D01*
X-82061958Y39803000D01*
X-81400382Y40077034D01*
X-81170000Y40307416D01*
X-80939618Y40077034D01*
X-80278042Y39803000D01*
X-79561958Y39803000D01*
X-78900382Y40077034D01*
X-78670000Y40307416D01*
X-78439618Y40077034D01*
X-77778042Y39803000D01*
X-77061958Y39803000D01*
X-76400382Y40077034D01*
X-75894034Y40583382D01*
X-75620000Y41244958D01*
X-75620000Y41961042D01*
X-59220000Y41961042D01*
X-59220000Y41244958D01*
X-58945966Y40583382D01*
X-58439618Y40077034D01*
X-57778042Y39803000D01*
X-57061958Y39803000D01*
X-56400382Y40077034D01*
X-56170000Y40307416D01*
X-55939618Y40077034D01*
X-55278042Y39803000D01*
X-54561958Y39803000D01*
X-53900382Y40077034D01*
X-53670000Y40307416D01*
X-53439618Y40077034D01*
X-52778042Y39803000D01*
X-52061958Y39803000D01*
X-51400382Y40077034D01*
X-50894034Y40583382D01*
X-50620000Y41244958D01*
X-50620000Y41961042D01*
X-34220000Y41961042D01*
X-34220000Y41244958D01*
X-33945966Y40583382D01*
X-33439618Y40077034D01*
X-32778042Y39803000D01*
X-32061958Y39803000D01*
X-31400382Y40077034D01*
X-31170000Y40307416D01*
X-30939618Y40077034D01*
X-30278042Y39803000D01*
X-29561958Y39803000D01*
X-28900382Y40077034D01*
X-28670000Y40307416D01*
X-28439618Y40077034D01*
X-27778042Y39803000D01*
X-27061958Y39803000D01*
X-26400382Y40077034D01*
X-25894034Y40583382D01*
X-25620000Y41244958D01*
X-25620000Y41961042D01*
X-25894034Y42622618D01*
X-26400382Y43128966D01*
X-27061958Y43403000D01*
X-27778042Y43403000D01*
X-28439618Y43128966D01*
X-28670000Y42898584D01*
X-28900382Y43128966D01*
X-29561958Y43403000D01*
X-30278042Y43403000D01*
X-30939618Y43128966D01*
X-31170000Y42898584D01*
X-31400382Y43128966D01*
X-32061958Y43403000D01*
X-32778042Y43403000D01*
X-33439618Y43128966D01*
X-33945966Y42622618D01*
X-34220000Y41961042D01*
X-50620000Y41961042D01*
X-50894034Y42622618D01*
X-51400382Y43128966D01*
X-52061958Y43403000D01*
X-52778042Y43403000D01*
X-53439618Y43128966D01*
X-53670000Y42898584D01*
X-53900382Y43128966D01*
X-54561958Y43403000D01*
X-55278042Y43403000D01*
X-55939618Y43128966D01*
X-56170000Y42898584D01*
X-56400382Y43128966D01*
X-57061958Y43403000D01*
X-57778042Y43403000D01*
X-58439618Y43128966D01*
X-58945966Y42622618D01*
X-59220000Y41961042D01*
X-75620000Y41961042D01*
X-75894034Y42622618D01*
X-76400382Y43128966D01*
X-77061958Y43403000D01*
X-77778042Y43403000D01*
X-78439618Y43128966D01*
X-78670000Y42898584D01*
X-78900382Y43128966D01*
X-79561958Y43403000D01*
X-80278042Y43403000D01*
X-80939618Y43128966D01*
X-81170000Y42898584D01*
X-81400382Y43128966D01*
X-82061958Y43403000D01*
X-82778042Y43403000D01*
X-83439618Y43128966D01*
X-83945966Y42622618D01*
X-84220000Y41961042D01*
X-100620000Y41961042D01*
X-100894034Y42622618D01*
X-101400382Y43128966D01*
X-102061958Y43403000D01*
X-102778042Y43403000D01*
X-103439618Y43128966D01*
X-103670000Y42898584D01*
X-103900382Y43128966D01*
X-104561958Y43403000D01*
X-105278042Y43403000D01*
X-105939618Y43128966D01*
X-106170000Y42898584D01*
X-106400382Y43128966D01*
X-107061958Y43403000D01*
X-107778042Y43403000D01*
X-108439618Y43128966D01*
X-108795000Y42773584D01*
X-108795000Y43478000D01*
X-1044999Y43478000D01*
X-1044999Y42773583D01*
G36*
X-68879689Y14563922D02*
X-68764432Y14540996D01*
X-68571199Y14251801D01*
X-68466830Y14182064D01*
X-68219991Y13935225D01*
X-68219991Y13227570D01*
X-68394000Y13227570D01*
X-68766120Y13153551D01*
X-69050070Y13470239D01*
X-69444653Y13659461D01*
X-69881612Y13683278D01*
X-70104000Y13605049D01*
X-70326389Y13683278D01*
X-70763347Y13659461D01*
X-71157930Y13470239D01*
X-71450065Y13144422D01*
X-71550134Y12859945D01*
X-71870000Y12923570D01*
X-73470000Y12923570D01*
X-73879689Y12842078D01*
X-73895609Y12831441D01*
X-73973039Y12883178D01*
X-73807339Y13131166D01*
X-73663757Y13853000D01*
X-73807339Y14574834D01*
X-73890972Y14700000D01*
X-69083344Y14700000D01*
X-68879689Y14563922D01*
X-68879689Y14563922D01*
G37*
X-68879689Y14563922D02*
X-68764432Y14540996D01*
X-68571199Y14251801D01*
X-68466830Y14182064D01*
X-68219991Y13935225D01*
X-68219991Y13227570D01*
X-68394000Y13227570D01*
X-68766120Y13153551D01*
X-69050070Y13470239D01*
X-69444653Y13659461D01*
X-69881612Y13683278D01*
X-70104000Y13605049D01*
X-70326389Y13683278D01*
X-70763347Y13659461D01*
X-71157930Y13470239D01*
X-71450065Y13144422D01*
X-71550134Y12859945D01*
X-71870000Y12923570D01*
X-73470000Y12923570D01*
X-73879689Y12842078D01*
X-73895609Y12831441D01*
X-73973039Y12883178D01*
X-73807339Y13131166D01*
X-73663757Y13853000D01*
X-73807339Y14574834D01*
X-73890972Y14700000D01*
X-69083344Y14700000D01*
X-68879689Y14563922D01*
G36*
X-77436243Y18933000D02*
X-77292661Y18211166D01*
X-76883775Y17599225D01*
X-76271834Y17190339D01*
X-75732205Y17083000D01*
X-75367795Y17083000D01*
X-74828166Y17190339D01*
X-74539829Y17383000D01*
X-74355714Y17383000D01*
X-74355714Y15279979D01*
X-74828166Y15595661D01*
X-75367795Y15703000D01*
X-75732205Y15703000D01*
X-76258589Y15598296D01*
X-76359932Y16107780D01*
X-76424172Y16203922D01*
X-76702512Y16620488D01*
X-76831933Y16706964D01*
X-78799430Y18674460D01*
X-78799430Y19353000D01*
X-78828130Y19497286D01*
X-77323999Y19497286D01*
X-77436243Y18933000D01*
X-77436243Y18933000D01*
G37*
X-77436243Y18933000D02*
X-77292661Y18211166D01*
X-76883775Y17599225D01*
X-76271834Y17190339D01*
X-75732205Y17083000D01*
X-75367795Y17083000D01*
X-74828166Y17190339D01*
X-74539829Y17383000D01*
X-74355714Y17383000D01*
X-74355714Y15279979D01*
X-74828166Y15595661D01*
X-75367795Y15703000D01*
X-75732205Y15703000D01*
X-76258589Y15598296D01*
X-76359932Y16107780D01*
X-76424172Y16203922D01*
X-76702512Y16620488D01*
X-76831933Y16706964D01*
X-78799430Y18674460D01*
X-78799430Y19353000D01*
X-78828130Y19497286D01*
X-77323999Y19497286D01*
X-77436243Y18933000D01*
G04 #@! TD*
M02*
