G04 #@! TF.GenerationSoftware,KiCad,Pcbnew,5.0.2-bee76a0~70~ubuntu18.10.1*
G04 #@! TF.CreationDate,2019-01-18T17:18:27-06:00*
G04 #@! TF.ProjectId,Timer,54696d65-722e-46b6-9963-61645f706362,rev?*
G04 #@! TF.SameCoordinates,PX93be440PYaa38e78*
G04 #@! TF.FileFunction,Copper,L1,Top*
G04 #@! TF.FilePolarity,Positive*
%FSLAX46Y46*%
G04 Gerber Fmt 4.6, Leading zero omitted, Abs format (unit mm)*
G04 Created by KiCad (PCBNEW 5.0.2-bee76a0~70~ubuntu18.10.1) date Fri 18 Jan 2019 05:18:27 PM CST*
%MOMM*%
%LPD*%
G01*
G04 APERTURE LIST*
G04 #@! TA.AperFunction,ComponentPad*
%ADD10R,1.520000X1.520000*%
G04 #@! TD*
G04 #@! TA.AperFunction,ComponentPad*
%ADD11C,1.520000*%
G04 #@! TD*
G04 #@! TA.AperFunction,Conductor*
%ADD12C,0.100000*%
G04 #@! TD*
G04 #@! TA.AperFunction,SMDPad,CuDef*
%ADD13C,1.425000*%
G04 #@! TD*
G04 #@! TA.AperFunction,SMDPad,CuDef*
%ADD14R,1.200000X0.900000*%
G04 #@! TD*
G04 #@! TA.AperFunction,SMDPad,CuDef*
%ADD15R,2.000000X1.700000*%
G04 #@! TD*
G04 #@! TA.AperFunction,ComponentPad*
%ADD16O,1.600000X1.600000*%
G04 #@! TD*
G04 #@! TA.AperFunction,ComponentPad*
%ADD17R,1.600000X1.600000*%
G04 #@! TD*
G04 #@! TA.AperFunction,ComponentPad*
%ADD18C,1.500000*%
G04 #@! TD*
G04 #@! TA.AperFunction,ComponentPad*
%ADD19O,2.800000X2.800000*%
G04 #@! TD*
G04 #@! TA.AperFunction,ComponentPad*
%ADD20R,2.800000X2.800000*%
G04 #@! TD*
G04 #@! TA.AperFunction,SMDPad,CuDef*
%ADD21R,1.000000X1.000000*%
G04 #@! TD*
G04 #@! TA.AperFunction,SMDPad,CuDef*
%ADD22R,0.900000X1.200000*%
G04 #@! TD*
G04 #@! TA.AperFunction,SMDPad,CuDef*
%ADD23R,1.700000X2.000000*%
G04 #@! TD*
G04 #@! TA.AperFunction,SMDPad,CuDef*
%ADD24R,0.650000X1.060000*%
G04 #@! TD*
G04 #@! TA.AperFunction,Conductor*
%ADD25C,0.050000*%
G04 #@! TD*
G04 #@! TA.AperFunction,Conductor*
%ADD26C,0.400000*%
G04 #@! TD*
G04 #@! TA.AperFunction,Conductor*
%ADD27C,1.000000*%
G04 #@! TD*
G04 #@! TA.AperFunction,Conductor*
%ADD28C,0.500000*%
G04 #@! TD*
G04 #@! TA.AperFunction,Conductor*
%ADD29C,0.600000*%
G04 #@! TD*
G04 #@! TA.AperFunction,Conductor*
%ADD30C,0.800000*%
G04 #@! TD*
G04 #@! TA.AperFunction,Conductor*
%ADD31C,0.300000*%
G04 #@! TD*
G04 APERTURE END LIST*
D10*
G04 #@! TO.P,J1,1*
G04 #@! TO.N,GND*
X-52770000Y10960000D03*
D11*
G04 #@! TO.P,J1,2*
G04 #@! TO.N,Net-(C3-Pad1)*
X-54070000Y13500000D03*
G04 #@! TO.P,J1,3*
G04 #@! TO.N,Net-(J1-Pad3)*
X-55340000Y10960000D03*
G04 #@! TO.P,J1,4*
G04 #@! TO.N,Net-(J1-Pad4)*
X-56580000Y13500000D03*
G04 #@! TD*
D12*
G04 #@! TO.N,/~LOAD~*
G04 #@! TO.C,C5*
G36*
X-88850496Y7973796D02*
X-88826227Y7970196D01*
X-88802429Y7964235D01*
X-88779329Y7955970D01*
X-88757151Y7945480D01*
X-88736107Y7932867D01*
X-88716402Y7918253D01*
X-88698223Y7901777D01*
X-88681747Y7883598D01*
X-88667133Y7863893D01*
X-88654520Y7842849D01*
X-88644030Y7820671D01*
X-88635765Y7797571D01*
X-88629804Y7773773D01*
X-88626204Y7749504D01*
X-88625000Y7725000D01*
X-88625000Y6800000D01*
X-88626204Y6775496D01*
X-88629804Y6751227D01*
X-88635765Y6727429D01*
X-88644030Y6704329D01*
X-88654520Y6682151D01*
X-88667133Y6661107D01*
X-88681747Y6641402D01*
X-88698223Y6623223D01*
X-88716402Y6606747D01*
X-88736107Y6592133D01*
X-88757151Y6579520D01*
X-88779329Y6569030D01*
X-88802429Y6560765D01*
X-88826227Y6554804D01*
X-88850496Y6551204D01*
X-88875000Y6550000D01*
X-90125000Y6550000D01*
X-90149504Y6551204D01*
X-90173773Y6554804D01*
X-90197571Y6560765D01*
X-90220671Y6569030D01*
X-90242849Y6579520D01*
X-90263893Y6592133D01*
X-90283598Y6606747D01*
X-90301777Y6623223D01*
X-90318253Y6641402D01*
X-90332867Y6661107D01*
X-90345480Y6682151D01*
X-90355970Y6704329D01*
X-90364235Y6727429D01*
X-90370196Y6751227D01*
X-90373796Y6775496D01*
X-90375000Y6800000D01*
X-90375000Y7725000D01*
X-90373796Y7749504D01*
X-90370196Y7773773D01*
X-90364235Y7797571D01*
X-90355970Y7820671D01*
X-90345480Y7842849D01*
X-90332867Y7863893D01*
X-90318253Y7883598D01*
X-90301777Y7901777D01*
X-90283598Y7918253D01*
X-90263893Y7932867D01*
X-90242849Y7945480D01*
X-90220671Y7955970D01*
X-90197571Y7964235D01*
X-90173773Y7970196D01*
X-90149504Y7973796D01*
X-90125000Y7975000D01*
X-88875000Y7975000D01*
X-88850496Y7973796D01*
X-88850496Y7973796D01*
G37*
D13*
G04 #@! TD*
G04 #@! TO.P,C5,1*
G04 #@! TO.N,/~LOAD~*
X-89500000Y7262500D03*
D12*
G04 #@! TO.N,GND*
G04 #@! TO.C,C5*
G36*
X-88850496Y10948796D02*
X-88826227Y10945196D01*
X-88802429Y10939235D01*
X-88779329Y10930970D01*
X-88757151Y10920480D01*
X-88736107Y10907867D01*
X-88716402Y10893253D01*
X-88698223Y10876777D01*
X-88681747Y10858598D01*
X-88667133Y10838893D01*
X-88654520Y10817849D01*
X-88644030Y10795671D01*
X-88635765Y10772571D01*
X-88629804Y10748773D01*
X-88626204Y10724504D01*
X-88625000Y10700000D01*
X-88625000Y9775000D01*
X-88626204Y9750496D01*
X-88629804Y9726227D01*
X-88635765Y9702429D01*
X-88644030Y9679329D01*
X-88654520Y9657151D01*
X-88667133Y9636107D01*
X-88681747Y9616402D01*
X-88698223Y9598223D01*
X-88716402Y9581747D01*
X-88736107Y9567133D01*
X-88757151Y9554520D01*
X-88779329Y9544030D01*
X-88802429Y9535765D01*
X-88826227Y9529804D01*
X-88850496Y9526204D01*
X-88875000Y9525000D01*
X-90125000Y9525000D01*
X-90149504Y9526204D01*
X-90173773Y9529804D01*
X-90197571Y9535765D01*
X-90220671Y9544030D01*
X-90242849Y9554520D01*
X-90263893Y9567133D01*
X-90283598Y9581747D01*
X-90301777Y9598223D01*
X-90318253Y9616402D01*
X-90332867Y9636107D01*
X-90345480Y9657151D01*
X-90355970Y9679329D01*
X-90364235Y9702429D01*
X-90370196Y9726227D01*
X-90373796Y9750496D01*
X-90375000Y9775000D01*
X-90375000Y10700000D01*
X-90373796Y10724504D01*
X-90370196Y10748773D01*
X-90364235Y10772571D01*
X-90355970Y10795671D01*
X-90345480Y10817849D01*
X-90332867Y10838893D01*
X-90318253Y10858598D01*
X-90301777Y10876777D01*
X-90283598Y10893253D01*
X-90263893Y10907867D01*
X-90242849Y10920480D01*
X-90220671Y10930970D01*
X-90197571Y10939235D01*
X-90173773Y10945196D01*
X-90149504Y10948796D01*
X-90125000Y10950000D01*
X-88875000Y10950000D01*
X-88850496Y10948796D01*
X-88850496Y10948796D01*
G37*
D13*
G04 #@! TD*
G04 #@! TO.P,C5,2*
G04 #@! TO.N,GND*
X-89500000Y10237500D03*
D12*
G04 #@! TO.N,GND*
G04 #@! TO.C,C4*
G36*
X-88850496Y13223796D02*
X-88826227Y13220196D01*
X-88802429Y13214235D01*
X-88779329Y13205970D01*
X-88757151Y13195480D01*
X-88736107Y13182867D01*
X-88716402Y13168253D01*
X-88698223Y13151777D01*
X-88681747Y13133598D01*
X-88667133Y13113893D01*
X-88654520Y13092849D01*
X-88644030Y13070671D01*
X-88635765Y13047571D01*
X-88629804Y13023773D01*
X-88626204Y12999504D01*
X-88625000Y12975000D01*
X-88625000Y12050000D01*
X-88626204Y12025496D01*
X-88629804Y12001227D01*
X-88635765Y11977429D01*
X-88644030Y11954329D01*
X-88654520Y11932151D01*
X-88667133Y11911107D01*
X-88681747Y11891402D01*
X-88698223Y11873223D01*
X-88716402Y11856747D01*
X-88736107Y11842133D01*
X-88757151Y11829520D01*
X-88779329Y11819030D01*
X-88802429Y11810765D01*
X-88826227Y11804804D01*
X-88850496Y11801204D01*
X-88875000Y11800000D01*
X-90125000Y11800000D01*
X-90149504Y11801204D01*
X-90173773Y11804804D01*
X-90197571Y11810765D01*
X-90220671Y11819030D01*
X-90242849Y11829520D01*
X-90263893Y11842133D01*
X-90283598Y11856747D01*
X-90301777Y11873223D01*
X-90318253Y11891402D01*
X-90332867Y11911107D01*
X-90345480Y11932151D01*
X-90355970Y11954329D01*
X-90364235Y11977429D01*
X-90370196Y12001227D01*
X-90373796Y12025496D01*
X-90375000Y12050000D01*
X-90375000Y12975000D01*
X-90373796Y12999504D01*
X-90370196Y13023773D01*
X-90364235Y13047571D01*
X-90355970Y13070671D01*
X-90345480Y13092849D01*
X-90332867Y13113893D01*
X-90318253Y13133598D01*
X-90301777Y13151777D01*
X-90283598Y13168253D01*
X-90263893Y13182867D01*
X-90242849Y13195480D01*
X-90220671Y13205970D01*
X-90197571Y13214235D01*
X-90173773Y13220196D01*
X-90149504Y13223796D01*
X-90125000Y13225000D01*
X-88875000Y13225000D01*
X-88850496Y13223796D01*
X-88850496Y13223796D01*
G37*
D13*
G04 #@! TD*
G04 #@! TO.P,C4,2*
G04 #@! TO.N,GND*
X-89500000Y12512500D03*
D12*
G04 #@! TO.N,/CLK*
G04 #@! TO.C,C4*
G36*
X-88850496Y16198796D02*
X-88826227Y16195196D01*
X-88802429Y16189235D01*
X-88779329Y16180970D01*
X-88757151Y16170480D01*
X-88736107Y16157867D01*
X-88716402Y16143253D01*
X-88698223Y16126777D01*
X-88681747Y16108598D01*
X-88667133Y16088893D01*
X-88654520Y16067849D01*
X-88644030Y16045671D01*
X-88635765Y16022571D01*
X-88629804Y15998773D01*
X-88626204Y15974504D01*
X-88625000Y15950000D01*
X-88625000Y15025000D01*
X-88626204Y15000496D01*
X-88629804Y14976227D01*
X-88635765Y14952429D01*
X-88644030Y14929329D01*
X-88654520Y14907151D01*
X-88667133Y14886107D01*
X-88681747Y14866402D01*
X-88698223Y14848223D01*
X-88716402Y14831747D01*
X-88736107Y14817133D01*
X-88757151Y14804520D01*
X-88779329Y14794030D01*
X-88802429Y14785765D01*
X-88826227Y14779804D01*
X-88850496Y14776204D01*
X-88875000Y14775000D01*
X-90125000Y14775000D01*
X-90149504Y14776204D01*
X-90173773Y14779804D01*
X-90197571Y14785765D01*
X-90220671Y14794030D01*
X-90242849Y14804520D01*
X-90263893Y14817133D01*
X-90283598Y14831747D01*
X-90301777Y14848223D01*
X-90318253Y14866402D01*
X-90332867Y14886107D01*
X-90345480Y14907151D01*
X-90355970Y14929329D01*
X-90364235Y14952429D01*
X-90370196Y14976227D01*
X-90373796Y15000496D01*
X-90375000Y15025000D01*
X-90375000Y15950000D01*
X-90373796Y15974504D01*
X-90370196Y15998773D01*
X-90364235Y16022571D01*
X-90355970Y16045671D01*
X-90345480Y16067849D01*
X-90332867Y16088893D01*
X-90318253Y16108598D01*
X-90301777Y16126777D01*
X-90283598Y16143253D01*
X-90263893Y16157867D01*
X-90242849Y16170480D01*
X-90220671Y16180970D01*
X-90197571Y16189235D01*
X-90173773Y16195196D01*
X-90149504Y16198796D01*
X-90125000Y16200000D01*
X-88875000Y16200000D01*
X-88850496Y16198796D01*
X-88850496Y16198796D01*
G37*
D13*
G04 #@! TD*
G04 #@! TO.P,C4,1*
G04 #@! TO.N,/CLK*
X-89500000Y15487500D03*
D12*
G04 #@! TO.N,Net-(C3-Pad1)*
G04 #@! TO.C,C3*
G36*
X-37350496Y28198796D02*
X-37326227Y28195196D01*
X-37302429Y28189235D01*
X-37279329Y28180970D01*
X-37257151Y28170480D01*
X-37236107Y28157867D01*
X-37216402Y28143253D01*
X-37198223Y28126777D01*
X-37181747Y28108598D01*
X-37167133Y28088893D01*
X-37154520Y28067849D01*
X-37144030Y28045671D01*
X-37135765Y28022571D01*
X-37129804Y27998773D01*
X-37126204Y27974504D01*
X-37125000Y27950000D01*
X-37125000Y27025000D01*
X-37126204Y27000496D01*
X-37129804Y26976227D01*
X-37135765Y26952429D01*
X-37144030Y26929329D01*
X-37154520Y26907151D01*
X-37167133Y26886107D01*
X-37181747Y26866402D01*
X-37198223Y26848223D01*
X-37216402Y26831747D01*
X-37236107Y26817133D01*
X-37257151Y26804520D01*
X-37279329Y26794030D01*
X-37302429Y26785765D01*
X-37326227Y26779804D01*
X-37350496Y26776204D01*
X-37375000Y26775000D01*
X-38625000Y26775000D01*
X-38649504Y26776204D01*
X-38673773Y26779804D01*
X-38697571Y26785765D01*
X-38720671Y26794030D01*
X-38742849Y26804520D01*
X-38763893Y26817133D01*
X-38783598Y26831747D01*
X-38801777Y26848223D01*
X-38818253Y26866402D01*
X-38832867Y26886107D01*
X-38845480Y26907151D01*
X-38855970Y26929329D01*
X-38864235Y26952429D01*
X-38870196Y26976227D01*
X-38873796Y27000496D01*
X-38875000Y27025000D01*
X-38875000Y27950000D01*
X-38873796Y27974504D01*
X-38870196Y27998773D01*
X-38864235Y28022571D01*
X-38855970Y28045671D01*
X-38845480Y28067849D01*
X-38832867Y28088893D01*
X-38818253Y28108598D01*
X-38801777Y28126777D01*
X-38783598Y28143253D01*
X-38763893Y28157867D01*
X-38742849Y28170480D01*
X-38720671Y28180970D01*
X-38697571Y28189235D01*
X-38673773Y28195196D01*
X-38649504Y28198796D01*
X-38625000Y28200000D01*
X-37375000Y28200000D01*
X-37350496Y28198796D01*
X-37350496Y28198796D01*
G37*
D13*
G04 #@! TD*
G04 #@! TO.P,C3,1*
G04 #@! TO.N,Net-(C3-Pad1)*
X-38000000Y27487500D03*
D12*
G04 #@! TO.N,GND*
G04 #@! TO.C,C3*
G36*
X-37350496Y25223796D02*
X-37326227Y25220196D01*
X-37302429Y25214235D01*
X-37279329Y25205970D01*
X-37257151Y25195480D01*
X-37236107Y25182867D01*
X-37216402Y25168253D01*
X-37198223Y25151777D01*
X-37181747Y25133598D01*
X-37167133Y25113893D01*
X-37154520Y25092849D01*
X-37144030Y25070671D01*
X-37135765Y25047571D01*
X-37129804Y25023773D01*
X-37126204Y24999504D01*
X-37125000Y24975000D01*
X-37125000Y24050000D01*
X-37126204Y24025496D01*
X-37129804Y24001227D01*
X-37135765Y23977429D01*
X-37144030Y23954329D01*
X-37154520Y23932151D01*
X-37167133Y23911107D01*
X-37181747Y23891402D01*
X-37198223Y23873223D01*
X-37216402Y23856747D01*
X-37236107Y23842133D01*
X-37257151Y23829520D01*
X-37279329Y23819030D01*
X-37302429Y23810765D01*
X-37326227Y23804804D01*
X-37350496Y23801204D01*
X-37375000Y23800000D01*
X-38625000Y23800000D01*
X-38649504Y23801204D01*
X-38673773Y23804804D01*
X-38697571Y23810765D01*
X-38720671Y23819030D01*
X-38742849Y23829520D01*
X-38763893Y23842133D01*
X-38783598Y23856747D01*
X-38801777Y23873223D01*
X-38818253Y23891402D01*
X-38832867Y23911107D01*
X-38845480Y23932151D01*
X-38855970Y23954329D01*
X-38864235Y23977429D01*
X-38870196Y24001227D01*
X-38873796Y24025496D01*
X-38875000Y24050000D01*
X-38875000Y24975000D01*
X-38873796Y24999504D01*
X-38870196Y25023773D01*
X-38864235Y25047571D01*
X-38855970Y25070671D01*
X-38845480Y25092849D01*
X-38832867Y25113893D01*
X-38818253Y25133598D01*
X-38801777Y25151777D01*
X-38783598Y25168253D01*
X-38763893Y25182867D01*
X-38742849Y25195480D01*
X-38720671Y25205970D01*
X-38697571Y25214235D01*
X-38673773Y25220196D01*
X-38649504Y25223796D01*
X-38625000Y25225000D01*
X-37375000Y25225000D01*
X-37350496Y25223796D01*
X-37350496Y25223796D01*
G37*
D13*
G04 #@! TD*
G04 #@! TO.P,C3,2*
G04 #@! TO.N,GND*
X-38000000Y24512500D03*
D12*
G04 #@! TO.N,+3V3*
G04 #@! TO.C,C2*
G36*
X-80020496Y19576796D02*
X-79996227Y19573196D01*
X-79972429Y19567235D01*
X-79949329Y19558970D01*
X-79927151Y19548480D01*
X-79906107Y19535867D01*
X-79886402Y19521253D01*
X-79868223Y19504777D01*
X-79851747Y19486598D01*
X-79837133Y19466893D01*
X-79824520Y19445849D01*
X-79814030Y19423671D01*
X-79805765Y19400571D01*
X-79799804Y19376773D01*
X-79796204Y19352504D01*
X-79795000Y19328000D01*
X-79795000Y18403000D01*
X-79796204Y18378496D01*
X-79799804Y18354227D01*
X-79805765Y18330429D01*
X-79814030Y18307329D01*
X-79824520Y18285151D01*
X-79837133Y18264107D01*
X-79851747Y18244402D01*
X-79868223Y18226223D01*
X-79886402Y18209747D01*
X-79906107Y18195133D01*
X-79927151Y18182520D01*
X-79949329Y18172030D01*
X-79972429Y18163765D01*
X-79996227Y18157804D01*
X-80020496Y18154204D01*
X-80045000Y18153000D01*
X-81295000Y18153000D01*
X-81319504Y18154204D01*
X-81343773Y18157804D01*
X-81367571Y18163765D01*
X-81390671Y18172030D01*
X-81412849Y18182520D01*
X-81433893Y18195133D01*
X-81453598Y18209747D01*
X-81471777Y18226223D01*
X-81488253Y18244402D01*
X-81502867Y18264107D01*
X-81515480Y18285151D01*
X-81525970Y18307329D01*
X-81534235Y18330429D01*
X-81540196Y18354227D01*
X-81543796Y18378496D01*
X-81545000Y18403000D01*
X-81545000Y19328000D01*
X-81543796Y19352504D01*
X-81540196Y19376773D01*
X-81534235Y19400571D01*
X-81525970Y19423671D01*
X-81515480Y19445849D01*
X-81502867Y19466893D01*
X-81488253Y19486598D01*
X-81471777Y19504777D01*
X-81453598Y19521253D01*
X-81433893Y19535867D01*
X-81412849Y19548480D01*
X-81390671Y19558970D01*
X-81367571Y19567235D01*
X-81343773Y19573196D01*
X-81319504Y19576796D01*
X-81295000Y19578000D01*
X-80045000Y19578000D01*
X-80020496Y19576796D01*
X-80020496Y19576796D01*
G37*
D13*
G04 #@! TD*
G04 #@! TO.P,C2,2*
G04 #@! TO.N,+3V3*
X-80670000Y18865500D03*
D12*
G04 #@! TO.N,GND*
G04 #@! TO.C,C2*
G36*
X-80020496Y22551796D02*
X-79996227Y22548196D01*
X-79972429Y22542235D01*
X-79949329Y22533970D01*
X-79927151Y22523480D01*
X-79906107Y22510867D01*
X-79886402Y22496253D01*
X-79868223Y22479777D01*
X-79851747Y22461598D01*
X-79837133Y22441893D01*
X-79824520Y22420849D01*
X-79814030Y22398671D01*
X-79805765Y22375571D01*
X-79799804Y22351773D01*
X-79796204Y22327504D01*
X-79795000Y22303000D01*
X-79795000Y21378000D01*
X-79796204Y21353496D01*
X-79799804Y21329227D01*
X-79805765Y21305429D01*
X-79814030Y21282329D01*
X-79824520Y21260151D01*
X-79837133Y21239107D01*
X-79851747Y21219402D01*
X-79868223Y21201223D01*
X-79886402Y21184747D01*
X-79906107Y21170133D01*
X-79927151Y21157520D01*
X-79949329Y21147030D01*
X-79972429Y21138765D01*
X-79996227Y21132804D01*
X-80020496Y21129204D01*
X-80045000Y21128000D01*
X-81295000Y21128000D01*
X-81319504Y21129204D01*
X-81343773Y21132804D01*
X-81367571Y21138765D01*
X-81390671Y21147030D01*
X-81412849Y21157520D01*
X-81433893Y21170133D01*
X-81453598Y21184747D01*
X-81471777Y21201223D01*
X-81488253Y21219402D01*
X-81502867Y21239107D01*
X-81515480Y21260151D01*
X-81525970Y21282329D01*
X-81534235Y21305429D01*
X-81540196Y21329227D01*
X-81543796Y21353496D01*
X-81545000Y21378000D01*
X-81545000Y22303000D01*
X-81543796Y22327504D01*
X-81540196Y22351773D01*
X-81534235Y22375571D01*
X-81525970Y22398671D01*
X-81515480Y22420849D01*
X-81502867Y22441893D01*
X-81488253Y22461598D01*
X-81471777Y22479777D01*
X-81453598Y22496253D01*
X-81433893Y22510867D01*
X-81412849Y22523480D01*
X-81390671Y22533970D01*
X-81367571Y22542235D01*
X-81343773Y22548196D01*
X-81319504Y22551796D01*
X-81295000Y22553000D01*
X-80045000Y22553000D01*
X-80020496Y22551796D01*
X-80020496Y22551796D01*
G37*
D13*
G04 #@! TD*
G04 #@! TO.P,C2,1*
G04 #@! TO.N,GND*
X-80670000Y21840500D03*
D12*
G04 #@! TO.N,+5V*
G04 #@! TO.C,C1*
G36*
X-72020496Y12076796D02*
X-71996227Y12073196D01*
X-71972429Y12067235D01*
X-71949329Y12058970D01*
X-71927151Y12048480D01*
X-71906107Y12035867D01*
X-71886402Y12021253D01*
X-71868223Y12004777D01*
X-71851747Y11986598D01*
X-71837133Y11966893D01*
X-71824520Y11945849D01*
X-71814030Y11923671D01*
X-71805765Y11900571D01*
X-71799804Y11876773D01*
X-71796204Y11852504D01*
X-71795000Y11828000D01*
X-71795000Y10903000D01*
X-71796204Y10878496D01*
X-71799804Y10854227D01*
X-71805765Y10830429D01*
X-71814030Y10807329D01*
X-71824520Y10785151D01*
X-71837133Y10764107D01*
X-71851747Y10744402D01*
X-71868223Y10726223D01*
X-71886402Y10709747D01*
X-71906107Y10695133D01*
X-71927151Y10682520D01*
X-71949329Y10672030D01*
X-71972429Y10663765D01*
X-71996227Y10657804D01*
X-72020496Y10654204D01*
X-72045000Y10653000D01*
X-73295000Y10653000D01*
X-73319504Y10654204D01*
X-73343773Y10657804D01*
X-73367571Y10663765D01*
X-73390671Y10672030D01*
X-73412849Y10682520D01*
X-73433893Y10695133D01*
X-73453598Y10709747D01*
X-73471777Y10726223D01*
X-73488253Y10744402D01*
X-73502867Y10764107D01*
X-73515480Y10785151D01*
X-73525970Y10807329D01*
X-73534235Y10830429D01*
X-73540196Y10854227D01*
X-73543796Y10878496D01*
X-73545000Y10903000D01*
X-73545000Y11828000D01*
X-73543796Y11852504D01*
X-73540196Y11876773D01*
X-73534235Y11900571D01*
X-73525970Y11923671D01*
X-73515480Y11945849D01*
X-73502867Y11966893D01*
X-73488253Y11986598D01*
X-73471777Y12004777D01*
X-73453598Y12021253D01*
X-73433893Y12035867D01*
X-73412849Y12048480D01*
X-73390671Y12058970D01*
X-73367571Y12067235D01*
X-73343773Y12073196D01*
X-73319504Y12076796D01*
X-73295000Y12078000D01*
X-72045000Y12078000D01*
X-72020496Y12076796D01*
X-72020496Y12076796D01*
G37*
D13*
G04 #@! TD*
G04 #@! TO.P,C1,1*
G04 #@! TO.N,+5V*
X-72670000Y11365500D03*
D12*
G04 #@! TO.N,GND*
G04 #@! TO.C,C1*
G36*
X-72020496Y15051796D02*
X-71996227Y15048196D01*
X-71972429Y15042235D01*
X-71949329Y15033970D01*
X-71927151Y15023480D01*
X-71906107Y15010867D01*
X-71886402Y14996253D01*
X-71868223Y14979777D01*
X-71851747Y14961598D01*
X-71837133Y14941893D01*
X-71824520Y14920849D01*
X-71814030Y14898671D01*
X-71805765Y14875571D01*
X-71799804Y14851773D01*
X-71796204Y14827504D01*
X-71795000Y14803000D01*
X-71795000Y13878000D01*
X-71796204Y13853496D01*
X-71799804Y13829227D01*
X-71805765Y13805429D01*
X-71814030Y13782329D01*
X-71824520Y13760151D01*
X-71837133Y13739107D01*
X-71851747Y13719402D01*
X-71868223Y13701223D01*
X-71886402Y13684747D01*
X-71906107Y13670133D01*
X-71927151Y13657520D01*
X-71949329Y13647030D01*
X-71972429Y13638765D01*
X-71996227Y13632804D01*
X-72020496Y13629204D01*
X-72045000Y13628000D01*
X-73295000Y13628000D01*
X-73319504Y13629204D01*
X-73343773Y13632804D01*
X-73367571Y13638765D01*
X-73390671Y13647030D01*
X-73412849Y13657520D01*
X-73433893Y13670133D01*
X-73453598Y13684747D01*
X-73471777Y13701223D01*
X-73488253Y13719402D01*
X-73502867Y13739107D01*
X-73515480Y13760151D01*
X-73525970Y13782329D01*
X-73534235Y13805429D01*
X-73540196Y13829227D01*
X-73543796Y13853496D01*
X-73545000Y13878000D01*
X-73545000Y14803000D01*
X-73543796Y14827504D01*
X-73540196Y14851773D01*
X-73534235Y14875571D01*
X-73525970Y14898671D01*
X-73515480Y14920849D01*
X-73502867Y14941893D01*
X-73488253Y14961598D01*
X-73471777Y14979777D01*
X-73453598Y14996253D01*
X-73433893Y15010867D01*
X-73412849Y15023480D01*
X-73390671Y15033970D01*
X-73367571Y15042235D01*
X-73343773Y15048196D01*
X-73319504Y15051796D01*
X-73295000Y15053000D01*
X-72045000Y15053000D01*
X-72020496Y15051796D01*
X-72020496Y15051796D01*
G37*
D13*
G04 #@! TD*
G04 #@! TO.P,C1,2*
G04 #@! TO.N,GND*
X-72670000Y14340500D03*
D14*
G04 #@! TO.P,D4,1*
G04 #@! TO.N,+3V3*
X-85852000Y18543000D03*
G04 #@! TO.P,D4,2*
G04 #@! TO.N,GND*
X-85852000Y21843000D03*
G04 #@! TD*
D15*
G04 #@! TO.P,R1,2*
G04 #@! TO.N,Net-(D1-Pad2)*
X-63849000Y15621000D03*
G04 #@! TO.P,R1,1*
G04 #@! TO.N,Net-(J1-Pad4)*
X-59849000Y15621000D03*
G04 #@! TD*
D16*
G04 #@! TO.P,RN1,6*
G04 #@! TO.N,Net-(RN1-Pad6)*
X-67670000Y29053000D03*
G04 #@! TO.P,RN1,5*
G04 #@! TO.N,Net-(RN1-Pad5)*
X-67670000Y26513000D03*
G04 #@! TO.P,RN1,4*
G04 #@! TO.N,Net-(RN1-Pad4)*
X-67670000Y23973000D03*
G04 #@! TO.P,RN1,3*
G04 #@! TO.N,Net-(RN1-Pad3)*
X-67670000Y21433000D03*
G04 #@! TO.P,RN1,2*
G04 #@! TO.N,Net-(RN1-Pad2)*
X-67670000Y18893000D03*
D17*
G04 #@! TO.P,RN1,1*
G04 #@! TO.N,+3V3*
X-67670000Y16353000D03*
G04 #@! TD*
D18*
G04 #@! TO.P,S5,4*
G04 #@! TO.N,GND*
X-102420000Y41603000D03*
G04 #@! TO.P,S5,5*
X-104920000Y41603000D03*
G04 #@! TO.P,S5,6*
X-107420000Y41603000D03*
G04 #@! TO.P,S5,1*
G04 #@! TO.N,Net-(R6-Pad2)*
X-107420000Y35603000D03*
G04 #@! TO.P,S5,2*
G04 #@! TO.N,GND*
X-104920000Y35603000D03*
G04 #@! TO.P,S5,3*
G04 #@! TO.N,Net-(S5-Pad3)*
X-102420000Y35603000D03*
G04 #@! TD*
G04 #@! TO.P,S1,4*
G04 #@! TO.N,GND*
X-77420000Y41603000D03*
G04 #@! TO.P,S1,5*
X-79920000Y41603000D03*
G04 #@! TO.P,S1,6*
X-82420000Y41603000D03*
G04 #@! TO.P,S1,1*
G04 #@! TO.N,Net-(RN1-Pad5)*
X-82420000Y35603000D03*
G04 #@! TO.P,S1,2*
G04 #@! TO.N,GND*
X-79920000Y35603000D03*
G04 #@! TO.P,S1,3*
G04 #@! TO.N,Net-(S1-Pad3)*
X-77420000Y35603000D03*
G04 #@! TD*
G04 #@! TO.P,S2,4*
G04 #@! TO.N,GND*
X-52420000Y41603000D03*
G04 #@! TO.P,S2,5*
X-54920000Y41603000D03*
G04 #@! TO.P,S2,6*
X-57420000Y41603000D03*
G04 #@! TO.P,S2,1*
G04 #@! TO.N,Net-(RN1-Pad4)*
X-57420000Y35603000D03*
G04 #@! TO.P,S2,2*
G04 #@! TO.N,GND*
X-54920000Y35603000D03*
G04 #@! TO.P,S2,3*
G04 #@! TO.N,Net-(S2-Pad3)*
X-52420000Y35603000D03*
G04 #@! TD*
G04 #@! TO.P,S3,4*
G04 #@! TO.N,GND*
X-27420000Y41603000D03*
G04 #@! TO.P,S3,5*
X-29920000Y41603000D03*
G04 #@! TO.P,S3,6*
X-32420000Y41603000D03*
G04 #@! TO.P,S3,1*
G04 #@! TO.N,Net-(RN1-Pad3)*
X-32420000Y35603000D03*
G04 #@! TO.P,S3,2*
G04 #@! TO.N,GND*
X-29920000Y35603000D03*
G04 #@! TO.P,S3,3*
G04 #@! TO.N,Net-(S3-Pad3)*
X-27420000Y35603000D03*
G04 #@! TD*
G04 #@! TO.P,S4,4*
G04 #@! TO.N,GND*
X-2420000Y41603000D03*
G04 #@! TO.P,S4,5*
X-4920000Y41603000D03*
G04 #@! TO.P,S4,6*
X-7420000Y41603000D03*
G04 #@! TO.P,S4,1*
G04 #@! TO.N,Net-(RN1-Pad2)*
X-7420000Y35603000D03*
G04 #@! TO.P,S4,2*
G04 #@! TO.N,GND*
X-4920000Y35603000D03*
G04 #@! TO.P,S4,3*
G04 #@! TO.N,Net-(S4-Pad3)*
X-2420000Y35603000D03*
G04 #@! TD*
D16*
G04 #@! TO.P,U2,16*
G04 #@! TO.N,+3V3*
X-75550000Y13853000D03*
G04 #@! TO.P,U2,8*
G04 #@! TO.N,GND*
X-83170000Y31633000D03*
G04 #@! TO.P,U2,15*
X-75550000Y16393000D03*
G04 #@! TO.P,U2,7*
G04 #@! TO.N,Net-(U2-Pad7)*
X-83170000Y29093000D03*
G04 #@! TO.P,U2,14*
G04 #@! TO.N,Net-(RN1-Pad2)*
X-75550000Y18933000D03*
G04 #@! TO.P,U2,6*
G04 #@! TO.N,Net-(R6-Pad2)*
X-83170000Y26553000D03*
G04 #@! TO.P,U2,13*
G04 #@! TO.N,Net-(RN1-Pad3)*
X-75550000Y21473000D03*
G04 #@! TO.P,U2,5*
G04 #@! TO.N,GND*
X-83170000Y24013000D03*
G04 #@! TO.P,U2,12*
G04 #@! TO.N,Net-(RN1-Pad4)*
X-75550000Y24013000D03*
G04 #@! TO.P,U2,4*
G04 #@! TO.N,GND*
X-83170000Y21473000D03*
G04 #@! TO.P,U2,11*
G04 #@! TO.N,Net-(RN1-Pad5)*
X-75550000Y26553000D03*
G04 #@! TO.P,U2,3*
G04 #@! TO.N,+3V3*
X-83170000Y18933000D03*
G04 #@! TO.P,U2,10*
G04 #@! TO.N,GND*
X-75550000Y29093000D03*
G04 #@! TO.P,U2,2*
G04 #@! TO.N,/CLK*
X-83170000Y16393000D03*
G04 #@! TO.P,U2,9*
G04 #@! TO.N,/Q*
X-75550000Y31633000D03*
D17*
G04 #@! TO.P,U2,1*
G04 #@! TO.N,/~LOAD~*
X-83170000Y13853000D03*
G04 #@! TD*
D19*
G04 #@! TO.P,D2,2*
G04 #@! TO.N,Net-(D2-Pad2)*
X-44760000Y20103000D03*
D20*
G04 #@! TO.P,D2,1*
G04 #@! TO.N,GND*
X-54920000Y20103000D03*
G04 #@! TD*
D15*
G04 #@! TO.P,R2,2*
G04 #@! TO.N,Net-(J1-Pad4)*
X-60000000Y24000000D03*
G04 #@! TO.P,R2,1*
G04 #@! TO.N,Net-(D2-Pad2)*
X-56000000Y24000000D03*
G04 #@! TD*
G04 #@! TO.P,R5,2*
G04 #@! TO.N,/Q*
X-71500000Y34500000D03*
G04 #@! TO.P,R5,1*
G04 #@! TO.N,Net-(C3-Pad1)*
X-67500000Y34500000D03*
G04 #@! TD*
G04 #@! TO.P,R4,2*
G04 #@! TO.N,Net-(J1-Pad3)*
X-68500000Y3500000D03*
G04 #@! TO.P,R4,1*
G04 #@! TO.N,/~LOAD~*
X-72500000Y3500000D03*
G04 #@! TD*
D21*
G04 #@! TO.P,D3,2*
G04 #@! TO.N,GND*
X-70104000Y13569000D03*
G04 #@! TO.P,D3,1*
G04 #@! TO.N,+5V*
X-70104000Y11069000D03*
G04 #@! TD*
D22*
G04 #@! TO.P,D1,2*
G04 #@! TO.N,Net-(D1-Pad2)*
X-64644000Y11557000D03*
G04 #@! TO.P,D1,1*
G04 #@! TO.N,+5V*
X-67944000Y11557000D03*
G04 #@! TD*
D23*
G04 #@! TO.P,R3,2*
G04 #@! TO.N,Net-(J1-Pad4)*
X-81026000Y6636000D03*
G04 #@! TO.P,R3,1*
G04 #@! TO.N,/CLK*
X-81026000Y10636000D03*
G04 #@! TD*
D24*
G04 #@! TO.P,U1,5*
G04 #@! TO.N,+3V3*
X-74742000Y9187000D03*
G04 #@! TO.P,U1,4*
G04 #@! TO.N,Net-(U1-Pad4)*
X-76642000Y9187000D03*
G04 #@! TO.P,U1,3*
G04 #@! TO.N,+5V*
X-76642000Y11387000D03*
G04 #@! TO.P,U1,2*
G04 #@! TO.N,GND*
X-75692000Y11387000D03*
G04 #@! TO.P,U1,1*
G04 #@! TO.N,+5V*
X-74742000Y11387000D03*
G04 #@! TD*
D23*
G04 #@! TO.P,R6,2*
G04 #@! TO.N,Net-(R6-Pad2)*
X-89500000Y22750000D03*
G04 #@! TO.P,R6,1*
G04 #@! TO.N,+3V3*
X-89500000Y18750000D03*
G04 #@! TD*
D25*
G04 #@! TO.N,*
X-85852000Y19812000D02*
X-85217000Y20574000D01*
X-86487000Y20574000D02*
X-85852000Y19812000D01*
X-70104000Y11938000D02*
X-69342000Y12700000D01*
X-70866000Y12700000D02*
X-70104000Y11938000D01*
D26*
G04 #@! TO.N,+3V3*
X-75750000Y14053000D02*
X-75550000Y13853000D01*
D27*
X-80670000Y18353000D02*
X-77820000Y15503000D01*
D26*
X-85852000Y18593000D02*
X-86252000Y18593000D01*
X-85992000Y18733000D02*
X-85852000Y18593000D01*
X-80670000Y19103000D02*
X-80670000Y17805000D01*
X-80840000Y18933000D02*
X-80670000Y19103000D01*
D27*
X-83180000Y18943000D02*
X-83170000Y18933000D01*
X-83170000Y18933000D02*
X-80840000Y18933000D01*
X-77820000Y15503000D02*
X-77820000Y14001000D01*
X-77672000Y13853000D02*
X-75550000Y13853000D01*
X-77820000Y14001000D02*
X-77672000Y13853000D01*
D26*
X-74742000Y8728000D02*
X-74742000Y8933000D01*
D27*
X-78670000Y12855000D02*
X-78670000Y10353000D01*
X-77672000Y13853000D02*
X-78670000Y12855000D01*
D26*
X-83560000Y18543000D02*
X-83170000Y18933000D01*
D27*
X-85852000Y18543000D02*
X-83560000Y18543000D01*
D26*
X-86059000Y18750000D02*
X-85852000Y18543000D01*
X-89500000Y18750000D02*
X-86059000Y18750000D01*
D28*
X-73917000Y9187000D02*
X-74742000Y9187000D01*
X-73906999Y9197001D02*
X-73917000Y9187000D01*
X-67552999Y9197001D02*
X-73906999Y9197001D01*
X-66250000Y13633000D02*
X-66250000Y10500000D01*
X-66250000Y10500000D02*
X-67552999Y9197001D01*
X-67670000Y15053000D02*
X-66250000Y13633000D01*
X-67670000Y16353000D02*
X-67670000Y15053000D01*
D29*
X-74742000Y8258000D02*
X-74742000Y9187000D01*
X-75250000Y7750000D02*
X-74742000Y8258000D01*
X-77500000Y7750000D02*
X-75250000Y7750000D01*
X-78670000Y10353000D02*
X-78613000Y9525000D01*
X-78613000Y8863000D02*
X-77500000Y7750000D01*
X-78613000Y9525000D02*
X-78613000Y8863000D01*
D26*
G04 #@! TO.N,GND*
X-80670000Y22353000D02*
X-80670000Y21513000D01*
X-75540000Y29103000D02*
X-75550000Y29093000D01*
X-83200000Y21443000D02*
X-83170000Y21473000D01*
X-79920000Y35603000D02*
X-79672000Y35603000D01*
X-83170000Y31633000D02*
X-83450000Y31633000D01*
X-83450000Y31353000D02*
X-83170000Y31633000D01*
D28*
X-72670000Y14653000D02*
X-72670000Y14853000D01*
X-74533499Y12477001D02*
X-73441347Y13569153D01*
X-75631999Y12477001D02*
X-74533499Y12477001D01*
X-75692000Y12417000D02*
X-75631999Y12477001D01*
X-73441347Y13569153D02*
X-72670000Y14340500D01*
X-75692000Y11387000D02*
X-75692000Y12417000D01*
D26*
X-4920000Y35103000D02*
X-4920000Y35603000D01*
X-74722500Y16393000D02*
X-72670000Y14340500D01*
X-75550000Y16393000D02*
X-74722500Y16393000D01*
X-79920000Y33463000D02*
X-75550000Y29093000D01*
X-79920000Y35603000D02*
X-79920000Y33463000D01*
D28*
X-86952000Y21843000D02*
X-85852000Y21843000D01*
X-90512500Y12512500D02*
X-91500000Y13500000D01*
X-89500000Y12512500D02*
X-90512500Y12512500D01*
X-91500000Y13500000D02*
X-91500000Y19608002D01*
X-90358002Y20750000D02*
X-88045000Y20750000D01*
X-91500000Y19608002D02*
X-90358002Y20750000D01*
X-88045000Y20750000D02*
X-86952000Y21843000D01*
D26*
X-78780020Y19623020D02*
X-76349999Y17192999D01*
X-81750000Y30213000D02*
X-81750000Y29611802D01*
X-83170000Y31633000D02*
X-81750000Y30213000D01*
X-81750000Y29611802D02*
X-81500000Y29361802D01*
X-81500000Y29361802D02*
X-81500000Y25750000D01*
X-81500000Y25750000D02*
X-78780020Y23030020D01*
X-76349999Y17192999D02*
X-75550000Y16393000D01*
X-78780020Y23030020D02*
X-78780020Y19623020D01*
D27*
G04 #@! TO.N,Net-(D1-Pad2)*
X-64644000Y14826000D02*
X-63849000Y15621000D01*
X-64644000Y11557000D02*
X-64644000Y14826000D01*
D26*
G04 #@! TO.N,Net-(RN1-Pad2)*
X-67670000Y18893000D02*
X-67210000Y18893000D01*
D27*
X-75550000Y18933000D02*
X-67680000Y18933000D01*
D26*
X-67680000Y18933000D02*
X-67670000Y18943000D01*
D28*
X-11627011Y39810011D02*
X-8169999Y36352999D01*
X-84250000Y36500000D02*
X-80939989Y39810011D01*
X-84250000Y35250000D02*
X-84250000Y36500000D01*
X-77250000Y25750000D02*
X-78250000Y26750000D01*
X-77250000Y20633000D02*
X-77250000Y25750000D01*
X-78250000Y26750000D02*
X-78250000Y29250000D01*
X-78250000Y29250000D02*
X-84250000Y35250000D01*
X-8169999Y36352999D02*
X-7420000Y35603000D01*
X-80939989Y39810011D02*
X-11627011Y39810011D01*
X-75550000Y18933000D02*
X-77250000Y20633000D01*
D27*
G04 #@! TO.N,Net-(RN1-Pad3)*
X-75550000Y21473000D02*
X-67680000Y21473000D01*
D26*
X-67670000Y21483000D02*
X-67040000Y21483000D01*
X-67680000Y21473000D02*
X-67670000Y21483000D01*
D28*
X-67000000Y21500000D02*
X-67603000Y21500000D01*
X-67603000Y21500000D02*
X-67670000Y21433000D01*
X-58500000Y30000000D02*
X-67000000Y21500000D01*
X-39083660Y30000000D02*
X-58500000Y30000000D01*
X-32420000Y35603000D02*
X-33480660Y35603000D01*
X-33480660Y35603000D02*
X-39083660Y30000000D01*
D26*
G04 #@! TO.N,Net-(RN1-Pad4)*
X-67680000Y24013000D02*
X-67670000Y24023000D01*
D27*
X-75550000Y24013000D02*
X-67680000Y24013000D01*
D28*
X-57420000Y32580000D02*
X-57420000Y35603000D01*
X-67670000Y23973000D02*
X-66027000Y23973000D01*
X-66027000Y23973000D02*
X-57420000Y32580000D01*
D26*
G04 #@! TO.N,Net-(RN1-Pad5)*
X-75550000Y26553000D02*
X-75620000Y26553000D01*
X-67680000Y26553000D02*
X-67670000Y26563000D01*
D27*
X-75550000Y26553000D02*
X-67680000Y26553000D01*
D28*
X-82420000Y35603000D02*
X-81670001Y34853001D01*
X-77250000Y29395528D02*
X-77250000Y28183000D01*
X-81670001Y33815529D02*
X-77250000Y29395528D01*
X-81670001Y34853001D02*
X-81670001Y33815529D01*
X-77250000Y28183000D02*
X-75620000Y26553000D01*
D30*
G04 #@! TO.N,/CLK*
X-82038630Y16393000D02*
X-83170000Y16393000D01*
X-81026000Y16002000D02*
X-81417000Y16393000D01*
X-81417000Y16393000D02*
X-82038630Y16393000D01*
X-81026000Y10636000D02*
X-81026000Y16002000D01*
D28*
X-84075500Y15487500D02*
X-83170000Y16393000D01*
X-89500000Y15487500D02*
X-84075500Y15487500D01*
G04 #@! TO.N,/Q*
X-75550000Y31633000D02*
X-75550000Y33450000D01*
X-74500000Y34500000D02*
X-71500000Y34500000D01*
X-75550000Y33450000D02*
X-74500000Y34500000D01*
D26*
G04 #@! TO.N,+5V*
X-67670000Y11831000D02*
X-67944000Y11557000D01*
X-68218000Y11831000D02*
X-67944000Y11557000D01*
X-68432000Y11069000D02*
X-67944000Y11557000D01*
X-70104000Y11069000D02*
X-68432000Y11069000D01*
D28*
X-72691500Y11387000D02*
X-72670000Y11365500D01*
X-74742000Y11387000D02*
X-72691500Y11387000D01*
X-70400500Y11365500D02*
X-70104000Y11069000D01*
X-72670000Y11365500D02*
X-70400500Y11365500D01*
X-74742000Y10535001D02*
X-74742000Y11387000D01*
X-75000000Y10277001D02*
X-74742000Y10535001D01*
X-76277001Y10277001D02*
X-75000000Y10277001D01*
X-76642000Y11387000D02*
X-76642000Y10642000D01*
X-76642000Y10642000D02*
X-76277001Y10277001D01*
D27*
G04 #@! TO.N,Net-(C3-Pad1)*
X-56512500Y27487500D02*
X-38000000Y27487500D01*
X-54070000Y15430000D02*
X-55840000Y17200000D01*
X-55840000Y17200000D02*
X-56950000Y17200000D01*
X-56950000Y17200000D02*
X-57987500Y18237500D01*
X-57987500Y18237500D02*
X-57987500Y26012500D01*
X-54070000Y13500000D02*
X-54070000Y15430000D01*
X-57987500Y26012500D02*
X-56512500Y27487500D01*
D28*
X-28000000Y31500000D02*
X-33987500Y31500000D01*
X-67500000Y35850000D02*
X-64350000Y39000000D01*
X-67500000Y34500000D02*
X-67500000Y35850000D01*
X-64350000Y39000000D02*
X-28000000Y39000000D01*
X-33987500Y31500000D02*
X-38000000Y27487500D01*
X-28000000Y39000000D02*
X-25000000Y36000000D01*
X-25000000Y36000000D02*
X-25000000Y34500000D01*
X-25000000Y34500000D02*
X-28000000Y31500000D01*
D26*
G04 #@! TO.N,Net-(D2-Pad2)*
X-44831000Y20032000D02*
X-44760000Y20103000D01*
D27*
X-48657000Y24000000D02*
X-44760000Y20103000D01*
X-56000000Y24000000D02*
X-48657000Y24000000D01*
D26*
G04 #@! TO.N,/~LOAD~*
X-83170000Y13853000D02*
X-83170000Y13789000D01*
D27*
X-83170000Y13853000D02*
X-84370000Y13853000D01*
X-84370000Y13853000D02*
X-84836000Y13387000D01*
X-84836000Y13387000D02*
X-84836000Y13335000D01*
X-84836000Y13335000D02*
X-86360000Y11811000D01*
X-86360000Y11811000D02*
X-86360000Y6096000D01*
D28*
X-87358500Y6096000D02*
X-86360000Y6096000D01*
X-88525000Y7262500D02*
X-87358500Y6096000D01*
X-89500000Y7262500D02*
X-88525000Y7262500D01*
D27*
X-83764000Y3500000D02*
X-72500000Y3500000D01*
X-86360000Y6096000D02*
X-83764000Y3500000D01*
D26*
G04 #@! TO.N,Net-(R6-Pad2)*
X-83245000Y26478000D02*
X-83170000Y26553000D01*
D28*
X-89500000Y22750000D02*
X-89500000Y22900000D01*
D27*
X-104920000Y33103000D02*
X-92920000Y33103000D01*
X-107420000Y35603000D02*
X-104920000Y33103000D01*
X-92920000Y33103000D02*
X-89872000Y33103000D01*
D28*
X-86295000Y26105000D02*
X-86295000Y26478000D01*
D27*
X-89500000Y22900000D02*
X-86295000Y26105000D01*
X-89872000Y33103000D02*
X-86295000Y29526000D01*
X-86295000Y29526000D02*
X-86295000Y26478000D01*
X-86295000Y26478000D02*
X-83245000Y26478000D01*
G04 #@! TO.N,Net-(J1-Pad3)*
X-55340000Y9763000D02*
X-55340000Y10960000D01*
X-56500000Y8603000D02*
X-55340000Y9763000D01*
X-61897000Y8603000D02*
X-56500000Y8603000D01*
X-68500000Y3500000D02*
X-67000000Y3500000D01*
X-67000000Y3500000D02*
X-61897000Y8603000D01*
G04 #@! TO.N,Net-(J1-Pad4)*
X-59849000Y12668000D02*
X-61849000Y10668000D01*
X-59849000Y15621000D02*
X-59849000Y12668000D01*
X-61849000Y10651000D02*
X-66250000Y6250000D01*
X-61849000Y10668000D02*
X-61849000Y10651000D01*
X-79176000Y6636000D02*
X-81026000Y6636000D01*
X-78790000Y6250000D02*
X-79176000Y6636000D01*
X-66250000Y6250000D02*
X-78790000Y6250000D01*
D28*
X-60000000Y15772000D02*
X-59849000Y15621000D01*
X-60000000Y24000000D02*
X-60000000Y15772000D01*
D27*
X-59017000Y13500000D02*
X-56580000Y13500000D01*
X-59849000Y12668000D02*
X-59017000Y13500000D01*
G04 #@! TD*
D31*
G04 #@! TO.N,GND*
G36*
X-525000Y18729537D02*
X-20205579Y525000D01*
X-89794420Y525000D01*
X-100004150Y9969000D01*
X-91033000Y9969000D01*
X-91033000Y9394116D01*
X-90932826Y9152273D01*
X-90747727Y8967175D01*
X-90505885Y8867000D01*
X-89768500Y8867000D01*
X-89604000Y9031500D01*
X-89604000Y10133500D01*
X-89396000Y10133500D01*
X-89396000Y9031500D01*
X-89231500Y8867000D01*
X-88494115Y8867000D01*
X-88252273Y8967175D01*
X-88067174Y9152273D01*
X-87967000Y9394116D01*
X-87967000Y9969000D01*
X-88131500Y10133500D01*
X-89396000Y10133500D01*
X-89604000Y10133500D01*
X-90868500Y10133500D01*
X-91033000Y9969000D01*
X-100004150Y9969000D01*
X-102463609Y12244000D01*
X-91033000Y12244000D01*
X-91033000Y11669116D01*
X-90932826Y11427273D01*
X-90880553Y11375000D01*
X-90932826Y11322727D01*
X-91033000Y11080884D01*
X-91033000Y10506000D01*
X-90868500Y10341500D01*
X-89604000Y10341500D01*
X-89604000Y12408500D01*
X-89396000Y12408500D01*
X-89396000Y10341500D01*
X-88131500Y10341500D01*
X-87967000Y10506000D01*
X-87967000Y11080884D01*
X-88067174Y11322727D01*
X-88119447Y11375000D01*
X-88067174Y11427273D01*
X-87967000Y11669116D01*
X-87967000Y12244000D01*
X-88131500Y12408500D01*
X-89396000Y12408500D01*
X-89604000Y12408500D01*
X-90868500Y12408500D01*
X-91033000Y12244000D01*
X-102463609Y12244000D01*
X-103665645Y13355884D01*
X-91033000Y13355884D01*
X-91033000Y12781000D01*
X-90868500Y12616500D01*
X-89604000Y12616500D01*
X-89604000Y13718500D01*
X-89396000Y13718500D01*
X-89396000Y12616500D01*
X-88131500Y12616500D01*
X-87967000Y12781000D01*
X-87967000Y13355884D01*
X-88067174Y13597727D01*
X-88252273Y13782825D01*
X-88494115Y13883000D01*
X-89231500Y13883000D01*
X-89396000Y13718500D01*
X-89604000Y13718500D01*
X-89768500Y13883000D01*
X-90505885Y13883000D01*
X-90747727Y13782825D01*
X-90932826Y13597727D01*
X-91033000Y13355884D01*
X-103665645Y13355884D01*
X-106470095Y15950000D01*
X-90844011Y15950000D01*
X-90844011Y15025000D01*
X-90789280Y14749846D01*
X-90633418Y14516582D01*
X-90400154Y14360720D01*
X-90125000Y14305989D01*
X-88875000Y14305989D01*
X-88599846Y14360720D01*
X-88366582Y14516582D01*
X-88210720Y14749846D01*
X-88205219Y14777500D01*
X-84643021Y14777500D01*
X-84744574Y14757300D01*
X-84840624Y14693121D01*
X-85062121Y14545121D01*
X-85115681Y14464963D01*
X-85447963Y14132681D01*
X-85528121Y14079121D01*
X-85686389Y13842256D01*
X-86971963Y12556681D01*
X-87052121Y12503121D01*
X-87264300Y12185572D01*
X-87320000Y11905548D01*
X-87320000Y11905544D01*
X-87338806Y11811000D01*
X-87320000Y11716455D01*
X-87319999Y7061590D01*
X-87973506Y7715096D01*
X-88013119Y7774381D01*
X-88189216Y7892045D01*
X-88210720Y8000154D01*
X-88366582Y8233418D01*
X-88599846Y8389280D01*
X-88875000Y8444011D01*
X-90125000Y8444011D01*
X-90400154Y8389280D01*
X-90633418Y8233418D01*
X-90789280Y8000154D01*
X-90844011Y7725000D01*
X-90844011Y6800000D01*
X-90789280Y6524846D01*
X-90633418Y6291582D01*
X-90400154Y6135720D01*
X-90125000Y6080989D01*
X-88875000Y6080989D01*
X-88599846Y6135720D01*
X-88481432Y6214842D01*
X-87909992Y5643401D01*
X-87870381Y5584119D01*
X-87635528Y5427195D01*
X-87428426Y5386000D01*
X-87428422Y5386000D01*
X-87358501Y5372092D01*
X-87288580Y5386000D01*
X-87025362Y5386000D01*
X-86971965Y5350321D01*
X-84509679Y2888034D01*
X-84456121Y2807879D01*
X-84138573Y2595700D01*
X-83858549Y2540000D01*
X-83858545Y2540000D01*
X-83764001Y2521194D01*
X-83669456Y2540000D01*
X-73947131Y2540000D01*
X-73933310Y2470517D01*
X-73831641Y2318359D01*
X-73679483Y2216690D01*
X-73500000Y2180989D01*
X-71500000Y2180989D01*
X-71320517Y2216690D01*
X-71168359Y2318359D01*
X-71066690Y2470517D01*
X-71030989Y2650000D01*
X-71030989Y4350000D01*
X-71066690Y4529483D01*
X-71168359Y4681641D01*
X-71320517Y4783310D01*
X-71500000Y4819011D01*
X-73500000Y4819011D01*
X-73679483Y4783310D01*
X-73831641Y4681641D01*
X-73933310Y4529483D01*
X-73947131Y4460000D01*
X-83366355Y4460000D01*
X-85400000Y6493644D01*
X-85400000Y11413356D01*
X-84224034Y12589321D01*
X-84164033Y12629412D01*
X-84149483Y12619690D01*
X-83970000Y12583989D01*
X-82370000Y12583989D01*
X-82190517Y12619690D01*
X-82038359Y12721359D01*
X-81936690Y12873517D01*
X-81900989Y13053000D01*
X-81900989Y14653000D01*
X-81936690Y14832483D01*
X-82038359Y14984641D01*
X-82190517Y15086310D01*
X-82370000Y15122011D01*
X-83436899Y15122011D01*
X-83404040Y15154870D01*
X-83294094Y15133000D01*
X-83045906Y15133000D01*
X-82678373Y15206107D01*
X-82261591Y15484591D01*
X-82229245Y15533000D01*
X-81885999Y15533000D01*
X-81886000Y12103022D01*
X-82055483Y12069310D01*
X-82207641Y11967641D01*
X-82309310Y11815483D01*
X-82345011Y11636000D01*
X-82345011Y9636000D01*
X-82309310Y9456517D01*
X-82207641Y9304359D01*
X-82055483Y9202690D01*
X-81876000Y9166989D01*
X-80176000Y9166989D01*
X-79996517Y9202690D01*
X-79844359Y9304359D01*
X-79742690Y9456517D01*
X-79706989Y9636000D01*
X-79706989Y11636000D01*
X-79742690Y11815483D01*
X-79844359Y11967641D01*
X-79996517Y12069310D01*
X-80166000Y12103022D01*
X-80166000Y15917299D01*
X-80149152Y16002000D01*
X-80215898Y16337556D01*
X-80296656Y16458418D01*
X-80405975Y16622025D01*
X-80477784Y16670006D01*
X-80748995Y16941217D01*
X-80796975Y17013025D01*
X-81081445Y17203102D01*
X-81332299Y17253000D01*
X-81332304Y17253000D01*
X-81417000Y17269847D01*
X-81501696Y17253000D01*
X-82229245Y17253000D01*
X-82261591Y17301409D01*
X-82678373Y17579893D01*
X-83045906Y17653000D01*
X-83164026Y17653000D01*
X-83134093Y17673000D01*
X-83045906Y17673000D01*
X-82678373Y17746107D01*
X-82338803Y17973000D01*
X-81855815Y17973000D01*
X-81803418Y17894582D01*
X-81570154Y17738720D01*
X-81374433Y17699789D01*
X-81308982Y17634338D01*
X-81291705Y17547481D01*
X-81145832Y17329167D01*
X-80927518Y17183294D01*
X-80840661Y17166017D01*
X-78780000Y15105355D01*
X-78779999Y14102645D01*
X-79281964Y13600681D01*
X-79362121Y13547121D01*
X-79574300Y13229572D01*
X-79630000Y12949548D01*
X-79630000Y12949544D01*
X-79648806Y12855000D01*
X-79630000Y12760455D01*
X-79629999Y10258451D01*
X-79574299Y9978427D01*
X-79386683Y9697640D01*
X-79373000Y9498883D01*
X-79373000Y8937847D01*
X-79387888Y8863000D01*
X-79373000Y8788153D01*
X-79373000Y8788148D01*
X-79336171Y8603000D01*
X-79328903Y8566463D01*
X-79264770Y8470482D01*
X-79160928Y8315071D01*
X-79097472Y8272671D01*
X-78090329Y7265527D01*
X-78053227Y7210000D01*
X-78392356Y7210000D01*
X-78430319Y7247963D01*
X-78483879Y7328121D01*
X-78801427Y7540300D01*
X-79081451Y7596000D01*
X-79081456Y7596000D01*
X-79176000Y7614806D01*
X-79270544Y7596000D01*
X-79706989Y7596000D01*
X-79706989Y7636000D01*
X-79742690Y7815483D01*
X-79844359Y7967641D01*
X-79996517Y8069310D01*
X-80176000Y8105011D01*
X-81876000Y8105011D01*
X-82055483Y8069310D01*
X-82207641Y7967641D01*
X-82309310Y7815483D01*
X-82345011Y7636000D01*
X-82345011Y5636000D01*
X-82309310Y5456517D01*
X-82207641Y5304359D01*
X-82055483Y5202690D01*
X-81876000Y5166989D01*
X-80176000Y5166989D01*
X-79996517Y5202690D01*
X-79844359Y5304359D01*
X-79742690Y5456517D01*
X-79706989Y5636000D01*
X-79706989Y5676000D01*
X-79573644Y5676000D01*
X-79535681Y5638037D01*
X-79482121Y5557879D01*
X-79164573Y5345700D01*
X-78884549Y5290000D01*
X-78884545Y5290000D01*
X-78790001Y5271194D01*
X-78695456Y5290000D01*
X-66567644Y5290000D01*
X-67172941Y4684703D01*
X-67320517Y4783310D01*
X-67500000Y4819011D01*
X-69500000Y4819011D01*
X-69679483Y4783310D01*
X-69831641Y4681641D01*
X-69933310Y4529483D01*
X-69969011Y4350000D01*
X-69969011Y2650000D01*
X-69933310Y2470517D01*
X-69831641Y2318359D01*
X-69679483Y2216690D01*
X-69500000Y2180989D01*
X-67500000Y2180989D01*
X-67320517Y2216690D01*
X-67168359Y2318359D01*
X-67066690Y2470517D01*
X-67054455Y2532026D01*
X-67000000Y2521194D01*
X-66905456Y2540000D01*
X-66905451Y2540000D01*
X-66625427Y2595700D01*
X-66307879Y2807879D01*
X-66254319Y2888037D01*
X-64117624Y5024732D01*
X-61835000Y5024732D01*
X-61835000Y4195268D01*
X-61517578Y3428942D01*
X-60931058Y2842422D01*
X-60164732Y2525000D01*
X-59335268Y2525000D01*
X-58568942Y2842422D01*
X-57982422Y3428942D01*
X-57665000Y4195268D01*
X-57665000Y5024732D01*
X-51675000Y5024732D01*
X-51675000Y4195268D01*
X-51357578Y3428942D01*
X-50771058Y2842422D01*
X-50004732Y2525000D01*
X-49175268Y2525000D01*
X-48408942Y2842422D01*
X-47822422Y3428942D01*
X-47505000Y4195268D01*
X-47505000Y5024732D01*
X-47822422Y5791058D01*
X-48408942Y6377578D01*
X-49175268Y6695000D01*
X-50004732Y6695000D01*
X-50771058Y6377578D01*
X-51357578Y5791058D01*
X-51675000Y5024732D01*
X-57665000Y5024732D01*
X-57982422Y5791058D01*
X-58568942Y6377578D01*
X-59335268Y6695000D01*
X-60164732Y6695000D01*
X-60931058Y6377578D01*
X-61517578Y5791058D01*
X-61835000Y5024732D01*
X-64117624Y5024732D01*
X-61499355Y7643000D01*
X-56594544Y7643000D01*
X-56500000Y7624194D01*
X-56405456Y7643000D01*
X-56405451Y7643000D01*
X-56125427Y7698700D01*
X-55807879Y7910879D01*
X-55754319Y7991036D01*
X-54728034Y9017322D01*
X-54647879Y9070879D01*
X-54435700Y9388427D01*
X-54380000Y9668451D01*
X-54380000Y9668452D01*
X-54361193Y9763000D01*
X-54380000Y9857548D01*
X-54380000Y10194660D01*
X-54305734Y10268926D01*
X-54188000Y10553161D01*
X-54188000Y10069115D01*
X-54087825Y9827273D01*
X-53902727Y9642174D01*
X-53660884Y9542000D01*
X-53038500Y9542000D01*
X-52874000Y9706500D01*
X-52874000Y10856000D01*
X-52666000Y10856000D01*
X-52666000Y9706500D01*
X-52501500Y9542000D01*
X-51879116Y9542000D01*
X-51637273Y9642174D01*
X-51452175Y9827273D01*
X-51352000Y10069115D01*
X-51352000Y10691500D01*
X-51516500Y10856000D01*
X-52666000Y10856000D01*
X-52874000Y10856000D01*
X-52894000Y10856000D01*
X-52894000Y11064000D01*
X-52874000Y11064000D01*
X-52874000Y12213500D01*
X-52666000Y12213500D01*
X-52666000Y11064000D01*
X-51516500Y11064000D01*
X-51352000Y11228500D01*
X-51352000Y11850885D01*
X-51452175Y12092727D01*
X-51637273Y12277826D01*
X-51879116Y12378000D01*
X-52501500Y12378000D01*
X-52666000Y12213500D01*
X-52874000Y12213500D01*
X-53038500Y12378000D01*
X-53590734Y12378000D01*
X-53378926Y12465734D01*
X-53035734Y12808926D01*
X-52850000Y13257327D01*
X-52850000Y13742673D01*
X-53035734Y14191074D01*
X-53110000Y14265340D01*
X-53110000Y15335456D01*
X-53091194Y15430001D01*
X-53110000Y15524545D01*
X-53110000Y15524549D01*
X-53165700Y15804573D01*
X-53377879Y16122121D01*
X-53458034Y16175679D01*
X-55094319Y17811963D01*
X-55147879Y17892121D01*
X-55376678Y18045000D01*
X-55188500Y18045000D01*
X-55024000Y18209500D01*
X-55024000Y19999000D01*
X-54816000Y19999000D01*
X-54816000Y18209500D01*
X-54651500Y18045000D01*
X-53389116Y18045000D01*
X-53147273Y18145174D01*
X-52962175Y18330273D01*
X-52862000Y18572115D01*
X-52862000Y19834500D01*
X-53026500Y19999000D01*
X-54816000Y19999000D01*
X-55024000Y19999000D01*
X-56813500Y19999000D01*
X-56978000Y19834500D01*
X-56978000Y18585644D01*
X-57027500Y18635144D01*
X-57027500Y21633885D01*
X-56978000Y21633885D01*
X-56978000Y20371500D01*
X-56813500Y20207000D01*
X-55024000Y20207000D01*
X-55024000Y21996500D01*
X-54816000Y21996500D01*
X-54816000Y20207000D01*
X-53026500Y20207000D01*
X-52862000Y20371500D01*
X-52862000Y21633885D01*
X-52962175Y21875727D01*
X-53147273Y22060826D01*
X-53389116Y22161000D01*
X-54651500Y22161000D01*
X-54816000Y21996500D01*
X-55024000Y21996500D01*
X-55188500Y22161000D01*
X-56450884Y22161000D01*
X-56692727Y22060826D01*
X-56877825Y21875727D01*
X-56978000Y21633885D01*
X-57027500Y21633885D01*
X-57027500Y22686459D01*
X-57000000Y22680989D01*
X-55000000Y22680989D01*
X-54820517Y22716690D01*
X-54668359Y22818359D01*
X-54566690Y22970517D01*
X-54552869Y23040000D01*
X-49054644Y23040000D01*
X-46567047Y20552402D01*
X-46656439Y20103000D01*
X-46512081Y19377264D01*
X-46100985Y18762015D01*
X-45485736Y18350919D01*
X-44943191Y18243000D01*
X-44576809Y18243000D01*
X-44034264Y18350919D01*
X-43419015Y18762015D01*
X-43007919Y19377264D01*
X-42863561Y20103000D01*
X-43007919Y20828736D01*
X-43419015Y21443985D01*
X-44034264Y21855081D01*
X-44576809Y21963000D01*
X-44943191Y21963000D01*
X-45209402Y21910047D01*
X-47543355Y24244000D01*
X-39533000Y24244000D01*
X-39533000Y23669116D01*
X-39432826Y23427273D01*
X-39247727Y23242175D01*
X-39005885Y23142000D01*
X-38268500Y23142000D01*
X-38104000Y23306500D01*
X-38104000Y24408500D01*
X-37896000Y24408500D01*
X-37896000Y23306500D01*
X-37731500Y23142000D01*
X-36994115Y23142000D01*
X-36752273Y23242175D01*
X-36567174Y23427273D01*
X-36467000Y23669116D01*
X-36467000Y24244000D01*
X-36631500Y24408500D01*
X-37896000Y24408500D01*
X-38104000Y24408500D01*
X-39368500Y24408500D01*
X-39533000Y24244000D01*
X-47543355Y24244000D01*
X-47911319Y24611963D01*
X-47964879Y24692121D01*
X-48282427Y24904300D01*
X-48562451Y24960000D01*
X-48562456Y24960000D01*
X-48657000Y24978806D01*
X-48751544Y24960000D01*
X-54552869Y24960000D01*
X-54566690Y25029483D01*
X-54668359Y25181641D01*
X-54820517Y25283310D01*
X-55000000Y25319011D01*
X-57000000Y25319011D01*
X-57027500Y25313541D01*
X-57027500Y25355884D01*
X-39533000Y25355884D01*
X-39533000Y24781000D01*
X-39368500Y24616500D01*
X-38104000Y24616500D01*
X-38104000Y25718500D01*
X-37896000Y25718500D01*
X-37896000Y24616500D01*
X-36631500Y24616500D01*
X-36467000Y24781000D01*
X-36467000Y25355884D01*
X-36567174Y25597727D01*
X-36752273Y25782825D01*
X-36994115Y25883000D01*
X-37731500Y25883000D01*
X-37896000Y25718500D01*
X-38104000Y25718500D01*
X-38268500Y25883000D01*
X-39005885Y25883000D01*
X-39247727Y25782825D01*
X-39432826Y25597727D01*
X-39533000Y25355884D01*
X-57027500Y25355884D01*
X-57027500Y25614856D01*
X-56114855Y26527500D01*
X-39140713Y26527500D01*
X-39133418Y26516582D01*
X-38900154Y26360720D01*
X-38625000Y26305989D01*
X-37375000Y26305989D01*
X-37099846Y26360720D01*
X-36866582Y26516582D01*
X-36710720Y26749846D01*
X-36655989Y27025000D01*
X-36655989Y27827421D01*
X-36073650Y28409760D01*
X-20060000Y28409760D01*
X-20060000Y27590240D01*
X-19746384Y26833104D01*
X-19166896Y26253616D01*
X-18409760Y25940000D01*
X-17590240Y25940000D01*
X-16833104Y26253616D01*
X-16253616Y26833104D01*
X-15940000Y27590240D01*
X-15940000Y28409760D01*
X-16253616Y29166896D01*
X-16833104Y29746384D01*
X-17590240Y30060000D01*
X-18409760Y30060000D01*
X-19166896Y29746384D01*
X-19746384Y29166896D01*
X-20060000Y28409760D01*
X-36073650Y28409760D01*
X-33693408Y30790000D01*
X-28069924Y30790000D01*
X-28000000Y30776091D01*
X-27930076Y30790000D01*
X-27930074Y30790000D01*
X-27722972Y30831195D01*
X-27488119Y30988119D01*
X-27448506Y31047404D01*
X-24547398Y33948510D01*
X-24488119Y33988119D01*
X-24418335Y34092557D01*
X-24331195Y34222972D01*
X-24299262Y34383510D01*
X-24290000Y34430074D01*
X-24290000Y34430075D01*
X-24276091Y34500000D01*
X-24290000Y34569926D01*
X-24290000Y35930074D01*
X-24276091Y36000000D01*
X-24331195Y36277028D01*
X-24448509Y36452601D01*
X-24448512Y36452604D01*
X-24488120Y36511881D01*
X-24547396Y36551488D01*
X-27095921Y39100011D01*
X-11921101Y39100011D01*
X-8630000Y35808909D01*
X-8630000Y35362316D01*
X-8445788Y34917590D01*
X-8105410Y34577212D01*
X-7660684Y34393000D01*
X-7179316Y34393000D01*
X-6734590Y34577212D01*
X-6678120Y34633682D01*
X-5742239Y34633682D01*
X-5677461Y34383510D01*
X-5153124Y34186471D01*
X-4593296Y34205085D01*
X-4162539Y34383510D01*
X-4097761Y34633682D01*
X-4920000Y35455922D01*
X-5742239Y34633682D01*
X-6678120Y34633682D01*
X-6394212Y34917590D01*
X-6281773Y35189041D01*
X-6139490Y34845539D01*
X-5889318Y34780761D01*
X-5067078Y35603000D01*
X-4772922Y35603000D01*
X-3950682Y34780761D01*
X-3700510Y34845539D01*
X-3565148Y35205749D01*
X-3445788Y34917590D01*
X-3105410Y34577212D01*
X-2660684Y34393000D01*
X-2179316Y34393000D01*
X-1734590Y34577212D01*
X-1394212Y34917590D01*
X-1210000Y35362316D01*
X-1210000Y35843684D01*
X-1394212Y36288410D01*
X-1734590Y36628788D01*
X-2179316Y36813000D01*
X-2660684Y36813000D01*
X-3105410Y36628788D01*
X-3445788Y36288410D01*
X-3558227Y36016959D01*
X-3700510Y36360461D01*
X-3950682Y36425239D01*
X-4772922Y35603000D01*
X-5067078Y35603000D01*
X-5889318Y36425239D01*
X-6139490Y36360461D01*
X-6274852Y36000251D01*
X-6394212Y36288410D01*
X-6678120Y36572318D01*
X-5742239Y36572318D01*
X-4920000Y35750078D01*
X-4097761Y36572318D01*
X-4162539Y36822490D01*
X-4686876Y37019529D01*
X-5246704Y37000915D01*
X-5677461Y36822490D01*
X-5742239Y36572318D01*
X-6678120Y36572318D01*
X-6734590Y36628788D01*
X-7179316Y36813000D01*
X-7625909Y36813000D01*
X-11075517Y40262607D01*
X-11115130Y40321892D01*
X-11349983Y40478816D01*
X-11557085Y40520011D01*
X-11557087Y40520011D01*
X-11627011Y40533920D01*
X-11696935Y40520011D01*
X-26627194Y40520011D01*
X-26597761Y40633682D01*
X-8242239Y40633682D01*
X-8177461Y40383510D01*
X-7653124Y40186471D01*
X-7093296Y40205085D01*
X-6662539Y40383510D01*
X-6597761Y40633682D01*
X-5742239Y40633682D01*
X-5677461Y40383510D01*
X-5153124Y40186471D01*
X-4593296Y40205085D01*
X-4162539Y40383510D01*
X-4097761Y40633682D01*
X-3242239Y40633682D01*
X-3177461Y40383510D01*
X-2653124Y40186471D01*
X-2093296Y40205085D01*
X-1662539Y40383510D01*
X-1597761Y40633682D01*
X-2420000Y41455922D01*
X-3242239Y40633682D01*
X-4097761Y40633682D01*
X-4920000Y41455922D01*
X-5742239Y40633682D01*
X-6597761Y40633682D01*
X-7420000Y41455922D01*
X-8242239Y40633682D01*
X-26597761Y40633682D01*
X-27420000Y41455922D01*
X-28242239Y40633682D01*
X-28212806Y40520011D01*
X-29127194Y40520011D01*
X-29097761Y40633682D01*
X-29920000Y41455922D01*
X-30742239Y40633682D01*
X-30712806Y40520011D01*
X-31627194Y40520011D01*
X-31597761Y40633682D01*
X-32420000Y41455922D01*
X-33242239Y40633682D01*
X-33212806Y40520011D01*
X-51627194Y40520011D01*
X-51597761Y40633682D01*
X-52420000Y41455922D01*
X-53242239Y40633682D01*
X-53212806Y40520011D01*
X-54127194Y40520011D01*
X-54097761Y40633682D01*
X-54920000Y41455922D01*
X-55742239Y40633682D01*
X-55712806Y40520011D01*
X-56627194Y40520011D01*
X-56597761Y40633682D01*
X-57420000Y41455922D01*
X-58242239Y40633682D01*
X-58212806Y40520011D01*
X-76627194Y40520011D01*
X-76597761Y40633682D01*
X-77420000Y41455922D01*
X-78242239Y40633682D01*
X-78212806Y40520011D01*
X-79127194Y40520011D01*
X-79097761Y40633682D01*
X-79920000Y41455922D01*
X-80742239Y40633682D01*
X-80712806Y40520011D01*
X-80870069Y40520011D01*
X-80939990Y40533919D01*
X-81009911Y40520011D01*
X-81009915Y40520011D01*
X-81217017Y40478816D01*
X-81451870Y40321892D01*
X-81491481Y40262610D01*
X-84702598Y37051492D01*
X-84761880Y37011881D01*
X-84801490Y36952600D01*
X-84918804Y36777028D01*
X-84973909Y36500000D01*
X-84959999Y36430071D01*
X-84960000Y35319925D01*
X-84973909Y35250000D01*
X-84960000Y35180076D01*
X-84960000Y35180075D01*
X-84918805Y34972973D01*
X-84761881Y34738120D01*
X-84702598Y34698508D01*
X-82977734Y32973644D01*
X-83066000Y32922794D01*
X-83066000Y31737000D01*
X-81880688Y31737000D01*
X-81829544Y31825454D01*
X-78959999Y28955908D01*
X-78960000Y26819925D01*
X-78973909Y26750000D01*
X-78960000Y26680076D01*
X-78960000Y26680075D01*
X-78918805Y26472973D01*
X-78761881Y26238120D01*
X-78702599Y26198509D01*
X-77959999Y25455908D01*
X-77960000Y20702925D01*
X-77973909Y20633000D01*
X-77960000Y20563076D01*
X-77960000Y20563075D01*
X-77918805Y20355973D01*
X-77761881Y20121120D01*
X-77702598Y20081508D01*
X-76788130Y19167040D01*
X-76834684Y18933000D01*
X-76736893Y18441373D01*
X-76458409Y18024591D01*
X-76041627Y17746107D01*
X-76032412Y17744274D01*
X-76398541Y17578650D01*
X-76787678Y17163675D01*
X-76970112Y16723220D01*
X-76839312Y16497000D01*
X-75654000Y16497000D01*
X-75654000Y16517000D01*
X-75446000Y16517000D01*
X-75446000Y16497000D01*
X-74260688Y16497000D01*
X-74129888Y16723220D01*
X-74312322Y17163675D01*
X-74701459Y17578650D01*
X-75067588Y17744274D01*
X-75058373Y17746107D01*
X-74718803Y17973000D01*
X-68561062Y17973000D01*
X-68161627Y17706107D01*
X-67794094Y17633000D01*
X-67545906Y17633000D01*
X-67178373Y17706107D01*
X-66761591Y17984591D01*
X-66483107Y18401373D01*
X-66385316Y18893000D01*
X-66483107Y19384627D01*
X-66761591Y19801409D01*
X-67178373Y20079893D01*
X-67545906Y20153000D01*
X-67794094Y20153000D01*
X-68161627Y20079893D01*
X-68441333Y19893000D01*
X-74718803Y19893000D01*
X-75058373Y20119893D01*
X-75425906Y20193000D01*
X-75674094Y20193000D01*
X-75784040Y20171130D01*
X-75863606Y20250696D01*
X-75674094Y20213000D01*
X-75425906Y20213000D01*
X-75058373Y20286107D01*
X-74718803Y20513000D01*
X-68561062Y20513000D01*
X-68161627Y20246107D01*
X-67794094Y20173000D01*
X-67545906Y20173000D01*
X-67178373Y20246107D01*
X-66761591Y20524591D01*
X-66483107Y20941373D01*
X-66467743Y21018614D01*
X-66448506Y21047404D01*
X-58205909Y29290000D01*
X-39153584Y29290000D01*
X-39083660Y29276091D01*
X-39013736Y29290000D01*
X-39013734Y29290000D01*
X-38806632Y29331195D01*
X-38571779Y29488119D01*
X-38532166Y29547404D01*
X-33303883Y34775685D01*
X-33105410Y34577212D01*
X-32660684Y34393000D01*
X-32179316Y34393000D01*
X-31734590Y34577212D01*
X-31678120Y34633682D01*
X-30742239Y34633682D01*
X-30677461Y34383510D01*
X-30153124Y34186471D01*
X-29593296Y34205085D01*
X-29162539Y34383510D01*
X-29097761Y34633682D01*
X-29920000Y35455922D01*
X-30742239Y34633682D01*
X-31678120Y34633682D01*
X-31394212Y34917590D01*
X-31281773Y35189041D01*
X-31139490Y34845539D01*
X-30889318Y34780761D01*
X-30067078Y35603000D01*
X-29772922Y35603000D01*
X-28950682Y34780761D01*
X-28700510Y34845539D01*
X-28565148Y35205749D01*
X-28445788Y34917590D01*
X-28105410Y34577212D01*
X-27660684Y34393000D01*
X-27179316Y34393000D01*
X-26734590Y34577212D01*
X-26394212Y34917590D01*
X-26210000Y35362316D01*
X-26210000Y35843684D01*
X-26394212Y36288410D01*
X-26734590Y36628788D01*
X-27179316Y36813000D01*
X-27660684Y36813000D01*
X-28105410Y36628788D01*
X-28445788Y36288410D01*
X-28558227Y36016959D01*
X-28700510Y36360461D01*
X-28950682Y36425239D01*
X-29772922Y35603000D01*
X-30067078Y35603000D01*
X-30889318Y36425239D01*
X-31139490Y36360461D01*
X-31274852Y36000251D01*
X-31394212Y36288410D01*
X-31678120Y36572318D01*
X-30742239Y36572318D01*
X-29920000Y35750078D01*
X-29097761Y36572318D01*
X-29162539Y36822490D01*
X-29686876Y37019529D01*
X-30246704Y37000915D01*
X-30677461Y36822490D01*
X-30742239Y36572318D01*
X-31678120Y36572318D01*
X-31734590Y36628788D01*
X-32179316Y36813000D01*
X-32660684Y36813000D01*
X-33105410Y36628788D01*
X-33419462Y36314736D01*
X-33480660Y36326909D01*
X-33550586Y36313000D01*
X-33757688Y36271805D01*
X-33992541Y36114881D01*
X-34032150Y36055602D01*
X-39377750Y30710000D01*
X-58285909Y30710000D01*
X-56967399Y32028510D01*
X-56908120Y32068119D01*
X-56751195Y32302972D01*
X-56710000Y32510074D01*
X-56710000Y32510078D01*
X-56696092Y32579999D01*
X-56710000Y32649920D01*
X-56710000Y34601802D01*
X-56678120Y34633682D01*
X-55742239Y34633682D01*
X-55677461Y34383510D01*
X-55153124Y34186471D01*
X-54593296Y34205085D01*
X-54162539Y34383510D01*
X-54097761Y34633682D01*
X-54920000Y35455922D01*
X-55742239Y34633682D01*
X-56678120Y34633682D01*
X-56394212Y34917590D01*
X-56281773Y35189041D01*
X-56139490Y34845539D01*
X-55889318Y34780761D01*
X-55067078Y35603000D01*
X-54772922Y35603000D01*
X-53950682Y34780761D01*
X-53700510Y34845539D01*
X-53565148Y35205749D01*
X-53445788Y34917590D01*
X-53105410Y34577212D01*
X-52660684Y34393000D01*
X-52179316Y34393000D01*
X-51734590Y34577212D01*
X-51394212Y34917590D01*
X-51210000Y35362316D01*
X-51210000Y35843684D01*
X-51394212Y36288410D01*
X-51734590Y36628788D01*
X-52179316Y36813000D01*
X-52660684Y36813000D01*
X-53105410Y36628788D01*
X-53445788Y36288410D01*
X-53558227Y36016959D01*
X-53700510Y36360461D01*
X-53950682Y36425239D01*
X-54772922Y35603000D01*
X-55067078Y35603000D01*
X-55889318Y36425239D01*
X-56139490Y36360461D01*
X-56274852Y36000251D01*
X-56394212Y36288410D01*
X-56678120Y36572318D01*
X-55742239Y36572318D01*
X-54920000Y35750078D01*
X-54097761Y36572318D01*
X-54162539Y36822490D01*
X-54686876Y37019529D01*
X-55246704Y37000915D01*
X-55677461Y36822490D01*
X-55742239Y36572318D01*
X-56678120Y36572318D01*
X-56734590Y36628788D01*
X-57179316Y36813000D01*
X-57660684Y36813000D01*
X-58105410Y36628788D01*
X-58445788Y36288410D01*
X-58630000Y35843684D01*
X-58630000Y35362316D01*
X-58445788Y34917590D01*
X-58129999Y34601801D01*
X-58130000Y32874091D01*
X-66321090Y24683000D01*
X-66629019Y24683000D01*
X-66761591Y24881409D01*
X-67178373Y25159893D01*
X-67545906Y25233000D01*
X-67794094Y25233000D01*
X-68161627Y25159893D01*
X-68441333Y24973000D01*
X-74718803Y24973000D01*
X-75058373Y25199893D01*
X-75425906Y25273000D01*
X-75674094Y25273000D01*
X-76041627Y25199893D01*
X-76458409Y24921409D01*
X-76540000Y24799299D01*
X-76540000Y25680074D01*
X-76526722Y25746829D01*
X-76458409Y25644591D01*
X-76041627Y25366107D01*
X-75674094Y25293000D01*
X-75425906Y25293000D01*
X-75058373Y25366107D01*
X-74718803Y25593000D01*
X-68561062Y25593000D01*
X-68161627Y25326107D01*
X-67794094Y25253000D01*
X-67545906Y25253000D01*
X-67178373Y25326107D01*
X-66761591Y25604591D01*
X-66483107Y26021373D01*
X-66385316Y26513000D01*
X-66483107Y27004627D01*
X-66761591Y27421409D01*
X-67178373Y27699893D01*
X-67545906Y27773000D01*
X-67794094Y27773000D01*
X-68161627Y27699893D01*
X-68441333Y27513000D01*
X-74718803Y27513000D01*
X-75058373Y27739893D01*
X-75067588Y27741726D01*
X-74701459Y27907350D01*
X-74312322Y28322325D01*
X-74129888Y28762780D01*
X-74260688Y28989000D01*
X-75446000Y28989000D01*
X-75446000Y28969000D01*
X-75654000Y28969000D01*
X-75654000Y28989000D01*
X-75674000Y28989000D01*
X-75674000Y29053000D01*
X-68954684Y29053000D01*
X-68856893Y28561373D01*
X-68578409Y28144591D01*
X-68161627Y27866107D01*
X-67794094Y27793000D01*
X-67545906Y27793000D01*
X-67178373Y27866107D01*
X-66761591Y28144591D01*
X-66483107Y28561373D01*
X-66385316Y29053000D01*
X-66483107Y29544627D01*
X-66761591Y29961409D01*
X-67178373Y30239893D01*
X-67545906Y30313000D01*
X-67794094Y30313000D01*
X-68161627Y30239893D01*
X-68578409Y29961409D01*
X-68856893Y29544627D01*
X-68954684Y29053000D01*
X-75674000Y29053000D01*
X-75674000Y29197000D01*
X-75654000Y29197000D01*
X-75654000Y29217000D01*
X-75446000Y29217000D01*
X-75446000Y29197000D01*
X-74260688Y29197000D01*
X-74129888Y29423220D01*
X-74312322Y29863675D01*
X-74701459Y30278650D01*
X-75067588Y30444274D01*
X-75058373Y30446107D01*
X-74641591Y30724591D01*
X-74363107Y31141373D01*
X-74265316Y31633000D01*
X-74363107Y32124627D01*
X-74641591Y32541409D01*
X-74840000Y32673981D01*
X-74840000Y33155910D01*
X-74205909Y33790000D01*
X-72969011Y33790000D01*
X-72969011Y33650000D01*
X-72933310Y33470517D01*
X-72831641Y33318359D01*
X-72679483Y33216690D01*
X-72500000Y33180989D01*
X-70500000Y33180989D01*
X-70320517Y33216690D01*
X-70168359Y33318359D01*
X-70066690Y33470517D01*
X-70030989Y33650000D01*
X-70030989Y35350000D01*
X-70066690Y35529483D01*
X-70168359Y35681641D01*
X-70320517Y35783310D01*
X-70500000Y35819011D01*
X-72500000Y35819011D01*
X-72679483Y35783310D01*
X-72831641Y35681641D01*
X-72933310Y35529483D01*
X-72969011Y35350000D01*
X-72969011Y35210000D01*
X-74430080Y35210000D01*
X-74500001Y35223908D01*
X-74569922Y35210000D01*
X-74569926Y35210000D01*
X-74777028Y35168805D01*
X-75011881Y35011881D01*
X-75051492Y34952599D01*
X-76002598Y34001492D01*
X-76061880Y33961881D01*
X-76101490Y33902600D01*
X-76218804Y33727028D01*
X-76273909Y33450000D01*
X-76259999Y33380071D01*
X-76259999Y32673982D01*
X-76458409Y32541409D01*
X-76736893Y32124627D01*
X-76834684Y31633000D01*
X-76736893Y31141373D01*
X-76458409Y30724591D01*
X-76041627Y30446107D01*
X-76032412Y30444274D01*
X-76398541Y30278650D01*
X-76743375Y29910920D01*
X-76797399Y29947018D01*
X-80960001Y34109619D01*
X-80960001Y34633682D01*
X-80742239Y34633682D01*
X-80677461Y34383510D01*
X-80153124Y34186471D01*
X-79593296Y34205085D01*
X-79162539Y34383510D01*
X-79097761Y34633682D01*
X-79920000Y35455922D01*
X-80742239Y34633682D01*
X-80960001Y34633682D01*
X-80960001Y34783075D01*
X-80956977Y34798280D01*
X-80889318Y34780761D01*
X-80067078Y35603000D01*
X-79772922Y35603000D01*
X-78950682Y34780761D01*
X-78700510Y34845539D01*
X-78565148Y35205749D01*
X-78445788Y34917590D01*
X-78105410Y34577212D01*
X-77660684Y34393000D01*
X-77179316Y34393000D01*
X-76734590Y34577212D01*
X-76394212Y34917590D01*
X-76210000Y35362316D01*
X-76210000Y35843684D01*
X-76394212Y36288410D01*
X-76734590Y36628788D01*
X-77179316Y36813000D01*
X-77660684Y36813000D01*
X-78105410Y36628788D01*
X-78445788Y36288410D01*
X-78558227Y36016959D01*
X-78700510Y36360461D01*
X-78950682Y36425239D01*
X-79772922Y35603000D01*
X-80067078Y35603000D01*
X-80889318Y36425239D01*
X-81139490Y36360461D01*
X-81274852Y36000251D01*
X-81394212Y36288410D01*
X-81678120Y36572318D01*
X-80742239Y36572318D01*
X-79920000Y35750078D01*
X-79097761Y36572318D01*
X-79162539Y36822490D01*
X-79686876Y37019529D01*
X-80246704Y37000915D01*
X-80677461Y36822490D01*
X-80742239Y36572318D01*
X-81678120Y36572318D01*
X-81734590Y36628788D01*
X-82179316Y36813000D01*
X-82660684Y36813000D01*
X-83105410Y36628788D01*
X-83445788Y36288410D01*
X-83540000Y36060963D01*
X-83540000Y36205910D01*
X-80645898Y39100011D01*
X-65254081Y39100011D01*
X-67952598Y36401492D01*
X-68011880Y36361881D01*
X-68104696Y36222972D01*
X-68168804Y36127028D01*
X-68223909Y35850000D01*
X-68217745Y35819011D01*
X-68500000Y35819011D01*
X-68679483Y35783310D01*
X-68831641Y35681641D01*
X-68933310Y35529483D01*
X-68969011Y35350000D01*
X-68969011Y33650000D01*
X-68933310Y33470517D01*
X-68831641Y33318359D01*
X-68679483Y33216690D01*
X-68500000Y33180989D01*
X-66500000Y33180989D01*
X-66320517Y33216690D01*
X-66168359Y33318359D01*
X-66066690Y33470517D01*
X-66030989Y33650000D01*
X-66030989Y35350000D01*
X-66066690Y35529483D01*
X-66168359Y35681641D01*
X-66320517Y35783310D01*
X-66500000Y35819011D01*
X-66526899Y35819011D01*
X-64055908Y38290000D01*
X-28294090Y38290000D01*
X-25710000Y35705908D01*
X-25709999Y34794093D01*
X-28294090Y32210000D01*
X-33917576Y32210000D01*
X-33987500Y32223909D01*
X-34057425Y32210000D01*
X-34057426Y32210000D01*
X-34264528Y32168805D01*
X-34499381Y32011881D01*
X-34538990Y31952602D01*
X-37822579Y28669011D01*
X-38625000Y28669011D01*
X-38900154Y28614280D01*
X-39133418Y28458418D01*
X-39140713Y28447500D01*
X-56417956Y28447500D01*
X-56512501Y28466306D01*
X-56607045Y28447500D01*
X-56607049Y28447500D01*
X-56887073Y28391800D01*
X-57204621Y28179621D01*
X-57258179Y28099466D01*
X-58599466Y26758179D01*
X-58679620Y26704621D01*
X-58733178Y26624466D01*
X-58891799Y26387073D01*
X-58966306Y26012500D01*
X-58947499Y25917951D01*
X-58947499Y25308568D01*
X-59000000Y25319011D01*
X-61000000Y25319011D01*
X-61179483Y25283310D01*
X-61331641Y25181641D01*
X-61433310Y25029483D01*
X-61469011Y24850000D01*
X-61469011Y23150000D01*
X-61433310Y22970517D01*
X-61331641Y22818359D01*
X-61179483Y22716690D01*
X-61000000Y22680989D01*
X-60710000Y22680989D01*
X-60709999Y16940011D01*
X-60849000Y16940011D01*
X-61028483Y16904310D01*
X-61180641Y16802641D01*
X-61282310Y16650483D01*
X-61318011Y16471000D01*
X-61318011Y14771000D01*
X-61282310Y14591517D01*
X-61180641Y14439359D01*
X-61028483Y14337690D01*
X-60849000Y14301989D01*
X-60809000Y14301989D01*
X-60808999Y13065646D01*
X-62460963Y11413681D01*
X-62541121Y11360121D01*
X-62628910Y11228734D01*
X-66647644Y7210000D01*
X-74696773Y7210000D01*
X-74659670Y7265529D01*
X-74257525Y7667673D01*
X-74194071Y7710071D01*
X-74151673Y7773524D01*
X-74151671Y7773526D01*
X-74026097Y7961462D01*
X-74026096Y7961463D01*
X-73982000Y8183148D01*
X-73982000Y8183152D01*
X-73967112Y8257999D01*
X-73982000Y8332846D01*
X-73982000Y8476020D01*
X-73917000Y8463091D01*
X-73847076Y8477000D01*
X-73847074Y8477000D01*
X-73796795Y8487001D01*
X-67622923Y8487001D01*
X-67552999Y8473092D01*
X-67483075Y8487001D01*
X-67483073Y8487001D01*
X-67275971Y8528196D01*
X-67041118Y8685120D01*
X-67001505Y8744405D01*
X-65797398Y9948510D01*
X-65738119Y9988119D01*
X-65683999Y10069115D01*
X-65581195Y10222971D01*
X-65526091Y10500000D01*
X-65540000Y10569926D01*
X-65540000Y10841315D01*
X-65527310Y10777517D01*
X-65425641Y10625359D01*
X-65273483Y10523690D01*
X-65094000Y10487989D01*
X-64194000Y10487989D01*
X-64014517Y10523690D01*
X-63862359Y10625359D01*
X-63760690Y10777517D01*
X-63724989Y10957000D01*
X-63724989Y11256385D01*
X-63684000Y11462451D01*
X-63684000Y14301989D01*
X-62849000Y14301989D01*
X-62669517Y14337690D01*
X-62517359Y14439359D01*
X-62415690Y14591517D01*
X-62379989Y14771000D01*
X-62379989Y16471000D01*
X-62415690Y16650483D01*
X-62517359Y16802641D01*
X-62669517Y16904310D01*
X-62849000Y16940011D01*
X-64849000Y16940011D01*
X-65028483Y16904310D01*
X-65180641Y16802641D01*
X-65282310Y16650483D01*
X-65318011Y16471000D01*
X-65318011Y15530221D01*
X-65336120Y15518121D01*
X-65389678Y15437966D01*
X-65548299Y15200573D01*
X-65622806Y14826000D01*
X-65603999Y14731451D01*
X-65603999Y13944157D01*
X-65738120Y14144881D01*
X-65797399Y14184490D01*
X-66725618Y15112708D01*
X-66690517Y15119690D01*
X-66538359Y15221359D01*
X-66436690Y15373517D01*
X-66400989Y15553000D01*
X-66400989Y17153000D01*
X-66436690Y17332483D01*
X-66538359Y17484641D01*
X-66690517Y17586310D01*
X-66870000Y17622011D01*
X-68470000Y17622011D01*
X-68649483Y17586310D01*
X-68801641Y17484641D01*
X-68903310Y17332483D01*
X-68939011Y17153000D01*
X-68939011Y15553000D01*
X-68903310Y15373517D01*
X-68801641Y15221359D01*
X-68649483Y15119690D01*
X-68470000Y15083989D01*
X-68387745Y15083989D01*
X-68393909Y15053000D01*
X-68339108Y14777500D01*
X-68338804Y14775972D01*
X-68181880Y14541119D01*
X-68122598Y14501508D01*
X-66960000Y13338909D01*
X-66959999Y10794093D01*
X-67847089Y9907001D01*
X-73837073Y9907001D01*
X-73906999Y9920910D01*
X-73976924Y9907001D01*
X-73976925Y9907001D01*
X-73989100Y9904579D01*
X-74085359Y10048641D01*
X-74173649Y10107634D01*
X-74073195Y10257973D01*
X-74032000Y10465075D01*
X-74032000Y10465080D01*
X-74018092Y10535000D01*
X-74032000Y10604921D01*
X-74032000Y10605216D01*
X-73984035Y10677000D01*
X-73969057Y10677000D01*
X-73959280Y10627846D01*
X-73803418Y10394582D01*
X-73570154Y10238720D01*
X-73295000Y10183989D01*
X-72045000Y10183989D01*
X-71769846Y10238720D01*
X-71536582Y10394582D01*
X-71380720Y10627846D01*
X-71375219Y10655500D01*
X-71073011Y10655500D01*
X-71073011Y10569000D01*
X-71037310Y10389517D01*
X-70935641Y10237359D01*
X-70783483Y10135690D01*
X-70604000Y10099989D01*
X-69604000Y10099989D01*
X-69424517Y10135690D01*
X-69272359Y10237359D01*
X-69170690Y10389517D01*
X-69166815Y10409000D01*
X-68496998Y10409000D01*
X-68432000Y10396071D01*
X-68367002Y10409000D01*
X-68366997Y10409000D01*
X-68174481Y10447294D01*
X-68113577Y10487989D01*
X-67494000Y10487989D01*
X-67314517Y10523690D01*
X-67162359Y10625359D01*
X-67060690Y10777517D01*
X-67024989Y10957000D01*
X-67024989Y11690645D01*
X-66997071Y11831000D01*
X-67024989Y11971355D01*
X-67024989Y12157000D01*
X-67060690Y12336483D01*
X-67162359Y12488641D01*
X-67314517Y12590310D01*
X-67494000Y12626011D01*
X-68394000Y12626011D01*
X-68573483Y12590310D01*
X-68725641Y12488641D01*
X-68827310Y12336483D01*
X-68863011Y12157000D01*
X-68863011Y11971352D01*
X-68890929Y11831000D01*
X-68870640Y11729000D01*
X-69166815Y11729000D01*
X-69170690Y11748483D01*
X-69272359Y11900641D01*
X-69382123Y11973983D01*
X-68965279Y12390827D01*
X-68885141Y12510762D01*
X-68847499Y12700000D01*
X-68885141Y12889237D01*
X-68946000Y12980319D01*
X-68946000Y13300500D01*
X-69110500Y13465000D01*
X-70000000Y13465000D01*
X-70000000Y13445000D01*
X-70208000Y13445000D01*
X-70208000Y13465000D01*
X-70228000Y13465000D01*
X-70228000Y13673000D01*
X-70208000Y13673000D01*
X-70208000Y14562500D01*
X-70000000Y14562500D01*
X-70000000Y13673000D01*
X-69110500Y13673000D01*
X-68946000Y13837500D01*
X-68946000Y14199884D01*
X-69046174Y14441727D01*
X-69231273Y14626825D01*
X-69473115Y14727000D01*
X-69835500Y14727000D01*
X-70000000Y14562500D01*
X-70208000Y14562500D01*
X-70372500Y14727000D01*
X-70734885Y14727000D01*
X-70976727Y14626825D01*
X-71159051Y14444502D01*
X-71301498Y14444502D01*
X-71137000Y14609000D01*
X-71137000Y15183884D01*
X-71237174Y15425727D01*
X-71422273Y15610825D01*
X-71664115Y15711000D01*
X-72401500Y15711000D01*
X-72566000Y15546500D01*
X-72566000Y14444500D01*
X-72546000Y14444500D01*
X-72546000Y14236500D01*
X-72566000Y14236500D01*
X-72566000Y13134500D01*
X-72401500Y12970000D01*
X-71664115Y12970000D01*
X-71422273Y13070175D01*
X-71262000Y13230447D01*
X-71262000Y12980319D01*
X-71322858Y12889237D01*
X-71360500Y12700000D01*
X-71322858Y12510763D01*
X-71242721Y12390828D01*
X-70927393Y12075500D01*
X-71375219Y12075500D01*
X-71380720Y12103154D01*
X-71536582Y12336418D01*
X-71769846Y12492280D01*
X-72045000Y12547011D01*
X-73295000Y12547011D01*
X-73570154Y12492280D01*
X-73803418Y12336418D01*
X-73959280Y12103154D01*
X-73960504Y12097000D01*
X-73984035Y12097000D01*
X-74085359Y12248641D01*
X-74237517Y12350310D01*
X-74417000Y12386011D01*
X-74905459Y12386011D01*
X-74994273Y12474825D01*
X-75236115Y12575000D01*
X-75423500Y12575000D01*
X-75588000Y12410500D01*
X-75588000Y11491000D01*
X-75568000Y11491000D01*
X-75568000Y11283000D01*
X-75588000Y11283000D01*
X-75588000Y11263000D01*
X-75796000Y11263000D01*
X-75796000Y11283000D01*
X-75816000Y11283000D01*
X-75816000Y11491000D01*
X-75796000Y11491000D01*
X-75796000Y12410500D01*
X-75960500Y12575000D01*
X-76147885Y12575000D01*
X-76389727Y12474825D01*
X-76478541Y12386011D01*
X-76967000Y12386011D01*
X-77146483Y12350310D01*
X-77298641Y12248641D01*
X-77400310Y12096483D01*
X-77436011Y11917000D01*
X-77436011Y10857000D01*
X-77400310Y10677517D01*
X-77361386Y10619264D01*
X-77352000Y10572076D01*
X-77352000Y10572074D01*
X-77310804Y10364972D01*
X-77160924Y10140661D01*
X-77298641Y10048641D01*
X-77400310Y9896483D01*
X-77436011Y9717000D01*
X-77436011Y8760813D01*
X-77853000Y9177801D01*
X-77853000Y9476444D01*
X-77849654Y9502520D01*
X-77853000Y9551125D01*
X-77853000Y9599852D01*
X-77858130Y9625641D01*
X-77871514Y9820065D01*
X-77765700Y9978427D01*
X-77710000Y10258451D01*
X-77710000Y12457356D01*
X-77274355Y12893000D01*
X-76381197Y12893000D01*
X-76041627Y12666107D01*
X-75674094Y12593000D01*
X-75425906Y12593000D01*
X-75058373Y12666107D01*
X-74641591Y12944591D01*
X-74363107Y13361373D01*
X-74265316Y13853000D01*
X-74308877Y14072000D01*
X-74203000Y14072000D01*
X-74203000Y13497116D01*
X-74102826Y13255273D01*
X-73917727Y13070175D01*
X-73675885Y12970000D01*
X-72938500Y12970000D01*
X-72774000Y13134500D01*
X-72774000Y14236500D01*
X-74038500Y14236500D01*
X-74203000Y14072000D01*
X-74308877Y14072000D01*
X-74363107Y14344627D01*
X-74641591Y14761409D01*
X-75058373Y15039893D01*
X-75067588Y15041726D01*
X-74753334Y15183884D01*
X-74203000Y15183884D01*
X-74203000Y14609000D01*
X-74038500Y14444500D01*
X-72774000Y14444500D01*
X-72774000Y15546500D01*
X-72938500Y15711000D01*
X-73675885Y15711000D01*
X-73917727Y15610825D01*
X-74102826Y15425727D01*
X-74203000Y15183884D01*
X-74753334Y15183884D01*
X-74701459Y15207350D01*
X-74312322Y15622325D01*
X-74129888Y16062780D01*
X-74260688Y16289000D01*
X-75446000Y16289000D01*
X-75446000Y16269000D01*
X-75654000Y16269000D01*
X-75654000Y16289000D01*
X-76839312Y16289000D01*
X-76970112Y16062780D01*
X-76787678Y15622325D01*
X-76398541Y15207350D01*
X-76032412Y15041726D01*
X-76041627Y15039893D01*
X-76381197Y14813000D01*
X-76860000Y14813000D01*
X-76860000Y15408451D01*
X-76841193Y15503000D01*
X-76915700Y15877574D01*
X-77035887Y16057445D01*
X-77127879Y16195121D01*
X-77208033Y16248678D01*
X-79332023Y18372667D01*
X-79325989Y18403000D01*
X-79325989Y19328000D01*
X-79380720Y19603154D01*
X-79536582Y19836418D01*
X-79769846Y19992280D01*
X-80045000Y20047011D01*
X-81295000Y20047011D01*
X-81570154Y19992280D01*
X-81718737Y19893000D01*
X-82338803Y19893000D01*
X-82678373Y20119893D01*
X-82687588Y20121726D01*
X-82321459Y20287350D01*
X-81989211Y20641659D01*
X-81917727Y20570175D01*
X-81675885Y20470000D01*
X-80938500Y20470000D01*
X-80774000Y20634500D01*
X-80774000Y21736500D01*
X-80566000Y21736500D01*
X-80566000Y20634500D01*
X-80401500Y20470000D01*
X-79664115Y20470000D01*
X-79422273Y20570175D01*
X-79237174Y20755273D01*
X-79137000Y20997116D01*
X-79137000Y21572000D01*
X-79301500Y21736500D01*
X-80566000Y21736500D01*
X-80774000Y21736500D01*
X-80794000Y21736500D01*
X-80794000Y21944500D01*
X-80774000Y21944500D01*
X-80774000Y23046500D01*
X-80566000Y23046500D01*
X-80566000Y21944500D01*
X-79301500Y21944500D01*
X-79137000Y22109000D01*
X-79137000Y22683884D01*
X-79237174Y22925727D01*
X-79422273Y23110825D01*
X-79664115Y23211000D01*
X-80401500Y23211000D01*
X-80566000Y23046500D01*
X-80774000Y23046500D01*
X-80938500Y23211000D01*
X-81675885Y23211000D01*
X-81917727Y23110825D01*
X-82102826Y22925727D01*
X-82203000Y22683884D01*
X-82203000Y22532326D01*
X-82321459Y22658650D01*
X-82507923Y22743000D01*
X-82321459Y22827350D01*
X-81932322Y23242325D01*
X-81749888Y23682780D01*
X-81880688Y23909000D01*
X-83066000Y23909000D01*
X-83066000Y21577000D01*
X-83046000Y21577000D01*
X-83046000Y21369000D01*
X-83066000Y21369000D01*
X-83066000Y21349000D01*
X-83274000Y21349000D01*
X-83274000Y21369000D01*
X-83294000Y21369000D01*
X-83294000Y21577000D01*
X-83274000Y21577000D01*
X-83274000Y23909000D01*
X-84459312Y23909000D01*
X-84590112Y23682780D01*
X-84407678Y23242325D01*
X-84018541Y22827350D01*
X-83832077Y22743000D01*
X-84018541Y22658650D01*
X-84407678Y22243675D01*
X-84590112Y21803220D01*
X-84459313Y21577002D01*
X-84596502Y21577002D01*
X-84758500Y21739000D01*
X-85748000Y21739000D01*
X-85748000Y20899500D01*
X-85654770Y20806270D01*
X-85852000Y20569594D01*
X-86049230Y20806270D01*
X-85956000Y20899500D01*
X-85956000Y21739000D01*
X-86945500Y21739000D01*
X-87110000Y21574500D01*
X-87110000Y21262116D01*
X-87009826Y21020273D01*
X-86866086Y20876533D01*
X-86924849Y20803822D01*
X-86979470Y20618770D01*
X-86959115Y20426902D01*
X-86890165Y20300204D01*
X-86226854Y19504231D01*
X-86192733Y19462011D01*
X-86452000Y19462011D01*
X-86631483Y19426310D01*
X-86655893Y19410000D01*
X-88180989Y19410000D01*
X-88180989Y19750000D01*
X-88216690Y19929483D01*
X-88318359Y20081641D01*
X-88470517Y20183310D01*
X-88650000Y20219011D01*
X-90350000Y20219011D01*
X-90529483Y20183310D01*
X-90681641Y20081641D01*
X-90783310Y19929483D01*
X-90819011Y19750000D01*
X-90819011Y17750000D01*
X-90783310Y17570517D01*
X-90681641Y17418359D01*
X-90529483Y17316690D01*
X-90350000Y17280989D01*
X-88650000Y17280989D01*
X-88470517Y17316690D01*
X-88318359Y17418359D01*
X-88216690Y17570517D01*
X-88180989Y17750000D01*
X-88180989Y18090000D01*
X-86920414Y18090000D01*
X-86885310Y17913517D01*
X-86783641Y17761359D01*
X-86631483Y17659690D01*
X-86452000Y17623989D01*
X-86152615Y17623989D01*
X-85946549Y17583000D01*
X-83646007Y17583000D01*
X-83661627Y17579893D01*
X-84078409Y17301409D01*
X-84356893Y16884627D01*
X-84454684Y16393000D01*
X-84415797Y16197500D01*
X-88205219Y16197500D01*
X-88210720Y16225154D01*
X-88366582Y16458418D01*
X-88599846Y16614280D01*
X-88875000Y16669011D01*
X-90125000Y16669011D01*
X-90400154Y16614280D01*
X-90633418Y16458418D01*
X-90789280Y16225154D01*
X-90844011Y15950000D01*
X-106470095Y15950000D01*
X-109475000Y18729536D01*
X-109475000Y28409760D01*
X-94060000Y28409760D01*
X-94060000Y27590240D01*
X-93746384Y26833104D01*
X-93166896Y26253616D01*
X-92409760Y25940000D01*
X-91590240Y25940000D01*
X-90833104Y26253616D01*
X-90253616Y26833104D01*
X-89940000Y27590240D01*
X-89940000Y28409760D01*
X-90253616Y29166896D01*
X-90833104Y29746384D01*
X-91590240Y30060000D01*
X-92409760Y30060000D01*
X-93166896Y29746384D01*
X-93746384Y29166896D01*
X-94060000Y28409760D01*
X-109475000Y28409760D01*
X-109475000Y35843684D01*
X-108630000Y35843684D01*
X-108630000Y35362316D01*
X-108445788Y34917590D01*
X-108105410Y34577212D01*
X-107660684Y34393000D01*
X-107567644Y34393000D01*
X-105665679Y32491034D01*
X-105612121Y32410879D01*
X-105294573Y32198700D01*
X-105014549Y32143000D01*
X-105014545Y32143000D01*
X-104920000Y32124194D01*
X-104825456Y32143000D01*
X-90269644Y32143000D01*
X-87255000Y29128355D01*
X-87254999Y26572554D01*
X-87272357Y26485287D01*
X-89538633Y24219011D01*
X-90350000Y24219011D01*
X-90529483Y24183310D01*
X-90681641Y24081641D01*
X-90783310Y23929483D01*
X-90819011Y23750000D01*
X-90819011Y21750000D01*
X-90783310Y21570517D01*
X-90681641Y21418359D01*
X-90529483Y21316690D01*
X-90350000Y21280989D01*
X-88650000Y21280989D01*
X-88470517Y21316690D01*
X-88318359Y21418359D01*
X-88216690Y21570517D01*
X-88180989Y21750000D01*
X-88180989Y22423884D01*
X-87110000Y22423884D01*
X-87110000Y22111500D01*
X-86945500Y21947000D01*
X-85956000Y21947000D01*
X-85956000Y22786500D01*
X-85748000Y22786500D01*
X-85748000Y21947000D01*
X-84758500Y21947000D01*
X-84594000Y22111500D01*
X-84594000Y22423884D01*
X-84694174Y22665727D01*
X-84879273Y22850825D01*
X-85121115Y22951000D01*
X-85583500Y22951000D01*
X-85748000Y22786500D01*
X-85956000Y22786500D01*
X-86120500Y22951000D01*
X-86582885Y22951000D01*
X-86824727Y22850825D01*
X-87009826Y22665727D01*
X-87110000Y22423884D01*
X-88180989Y22423884D01*
X-88180989Y22861367D01*
X-85549322Y25493033D01*
X-85532640Y25518000D01*
X-83888952Y25518000D01*
X-83661627Y25366107D01*
X-83652412Y25364274D01*
X-84018541Y25198650D01*
X-84407678Y24783675D01*
X-84590112Y24343220D01*
X-84459312Y24117000D01*
X-83274000Y24117000D01*
X-83274000Y24137000D01*
X-83066000Y24137000D01*
X-83066000Y24117000D01*
X-81880688Y24117000D01*
X-81749888Y24343220D01*
X-81932322Y24783675D01*
X-82321459Y25198650D01*
X-82687588Y25364274D01*
X-82678373Y25366107D01*
X-82261591Y25644591D01*
X-81983107Y26061373D01*
X-81885316Y26553000D01*
X-81983107Y27044627D01*
X-82261591Y27461409D01*
X-82678373Y27739893D01*
X-83045906Y27813000D01*
X-83294094Y27813000D01*
X-83661627Y27739893D01*
X-84078409Y27461409D01*
X-84094050Y27438000D01*
X-85335000Y27438000D01*
X-85335000Y29431456D01*
X-85316194Y29526000D01*
X-85335000Y29620545D01*
X-85335000Y29620549D01*
X-85390700Y29900573D01*
X-85602879Y30218121D01*
X-85683033Y30271678D01*
X-86714135Y31302780D01*
X-84590112Y31302780D01*
X-84407678Y30862325D01*
X-84018541Y30447350D01*
X-83652412Y30281726D01*
X-83661627Y30279893D01*
X-84078409Y30001409D01*
X-84356893Y29584627D01*
X-84454684Y29093000D01*
X-84356893Y28601373D01*
X-84078409Y28184591D01*
X-83661627Y27906107D01*
X-83294094Y27833000D01*
X-83045906Y27833000D01*
X-82678373Y27906107D01*
X-82261591Y28184591D01*
X-81983107Y28601373D01*
X-81885316Y29093000D01*
X-81983107Y29584627D01*
X-82261591Y30001409D01*
X-82678373Y30279893D01*
X-82687588Y30281726D01*
X-82321459Y30447350D01*
X-81932322Y30862325D01*
X-81749888Y31302780D01*
X-81880688Y31529000D01*
X-83066000Y31529000D01*
X-83066000Y31509000D01*
X-83274000Y31509000D01*
X-83274000Y31529000D01*
X-84459312Y31529000D01*
X-84590112Y31302780D01*
X-86714135Y31302780D01*
X-87374575Y31963220D01*
X-84590112Y31963220D01*
X-84459312Y31737000D01*
X-83274000Y31737000D01*
X-83274000Y32922794D01*
X-83500221Y33053120D01*
X-84018541Y32818650D01*
X-84407678Y32403675D01*
X-84590112Y31963220D01*
X-87374575Y31963220D01*
X-89126319Y33714963D01*
X-89179879Y33795121D01*
X-89497427Y34007300D01*
X-89777451Y34063000D01*
X-89777456Y34063000D01*
X-89872000Y34081806D01*
X-89966544Y34063000D01*
X-104522355Y34063000D01*
X-104662151Y34202796D01*
X-104593296Y34205085D01*
X-104162539Y34383510D01*
X-104097761Y34633682D01*
X-104920000Y35455922D01*
X-104934142Y35441779D01*
X-105081221Y35588858D01*
X-105067078Y35603000D01*
X-104772922Y35603000D01*
X-103950682Y34780761D01*
X-103700510Y34845539D01*
X-103565148Y35205749D01*
X-103445788Y34917590D01*
X-103105410Y34577212D01*
X-102660684Y34393000D01*
X-102179316Y34393000D01*
X-101734590Y34577212D01*
X-101394212Y34917590D01*
X-101210000Y35362316D01*
X-101210000Y35843684D01*
X-101394212Y36288410D01*
X-101734590Y36628788D01*
X-102179316Y36813000D01*
X-102660684Y36813000D01*
X-103105410Y36628788D01*
X-103445788Y36288410D01*
X-103558227Y36016959D01*
X-103700510Y36360461D01*
X-103950682Y36425239D01*
X-104772922Y35603000D01*
X-105067078Y35603000D01*
X-105889318Y36425239D01*
X-106139490Y36360461D01*
X-106274852Y36000251D01*
X-106394212Y36288410D01*
X-106678120Y36572318D01*
X-105742239Y36572318D01*
X-104920000Y35750078D01*
X-104097761Y36572318D01*
X-104162539Y36822490D01*
X-104686876Y37019529D01*
X-105246704Y37000915D01*
X-105677461Y36822490D01*
X-105742239Y36572318D01*
X-106678120Y36572318D01*
X-106734590Y36628788D01*
X-107179316Y36813000D01*
X-107660684Y36813000D01*
X-108105410Y36628788D01*
X-108445788Y36288410D01*
X-108630000Y35843684D01*
X-109475000Y35843684D01*
X-109475000Y40633682D01*
X-108242239Y40633682D01*
X-108177461Y40383510D01*
X-107653124Y40186471D01*
X-107093296Y40205085D01*
X-106662539Y40383510D01*
X-106597761Y40633682D01*
X-105742239Y40633682D01*
X-105677461Y40383510D01*
X-105153124Y40186471D01*
X-104593296Y40205085D01*
X-104162539Y40383510D01*
X-104097761Y40633682D01*
X-103242239Y40633682D01*
X-103177461Y40383510D01*
X-102653124Y40186471D01*
X-102093296Y40205085D01*
X-101662539Y40383510D01*
X-101597761Y40633682D01*
X-83242239Y40633682D01*
X-83177461Y40383510D01*
X-82653124Y40186471D01*
X-82093296Y40205085D01*
X-81662539Y40383510D01*
X-81597761Y40633682D01*
X-82420000Y41455922D01*
X-83242239Y40633682D01*
X-101597761Y40633682D01*
X-102420000Y41455922D01*
X-103242239Y40633682D01*
X-104097761Y40633682D01*
X-104920000Y41455922D01*
X-105742239Y40633682D01*
X-106597761Y40633682D01*
X-107420000Y41455922D01*
X-108242239Y40633682D01*
X-109475000Y40633682D01*
X-109475000Y41836124D01*
X-108836529Y41836124D01*
X-108817915Y41276296D01*
X-108639490Y40845539D01*
X-108389318Y40780761D01*
X-107567078Y41603000D01*
X-107272922Y41603000D01*
X-106450682Y40780761D01*
X-106200510Y40845539D01*
X-106171484Y40922780D01*
X-106139490Y40845539D01*
X-105889318Y40780761D01*
X-105067078Y41603000D01*
X-104772922Y41603000D01*
X-103950682Y40780761D01*
X-103700510Y40845539D01*
X-103671484Y40922780D01*
X-103639490Y40845539D01*
X-103389318Y40780761D01*
X-102567078Y41603000D01*
X-102272922Y41603000D01*
X-101450682Y40780761D01*
X-101200510Y40845539D01*
X-101003471Y41369876D01*
X-101018973Y41836124D01*
X-83836529Y41836124D01*
X-83817915Y41276296D01*
X-83639490Y40845539D01*
X-83389318Y40780761D01*
X-82567078Y41603000D01*
X-82272922Y41603000D01*
X-81450682Y40780761D01*
X-81200510Y40845539D01*
X-81171484Y40922780D01*
X-81139490Y40845539D01*
X-80889318Y40780761D01*
X-80067078Y41603000D01*
X-79772922Y41603000D01*
X-78950682Y40780761D01*
X-78700510Y40845539D01*
X-78671484Y40922780D01*
X-78639490Y40845539D01*
X-78389318Y40780761D01*
X-77567078Y41603000D01*
X-77272922Y41603000D01*
X-76450682Y40780761D01*
X-76200510Y40845539D01*
X-76003471Y41369876D01*
X-76018973Y41836124D01*
X-58836529Y41836124D01*
X-58817915Y41276296D01*
X-58639490Y40845539D01*
X-58389318Y40780761D01*
X-57567078Y41603000D01*
X-57272922Y41603000D01*
X-56450682Y40780761D01*
X-56200510Y40845539D01*
X-56171484Y40922780D01*
X-56139490Y40845539D01*
X-55889318Y40780761D01*
X-55067078Y41603000D01*
X-54772922Y41603000D01*
X-53950682Y40780761D01*
X-53700510Y40845539D01*
X-53671484Y40922780D01*
X-53639490Y40845539D01*
X-53389318Y40780761D01*
X-52567078Y41603000D01*
X-52272922Y41603000D01*
X-51450682Y40780761D01*
X-51200510Y40845539D01*
X-51003471Y41369876D01*
X-51018973Y41836124D01*
X-33836529Y41836124D01*
X-33817915Y41276296D01*
X-33639490Y40845539D01*
X-33389318Y40780761D01*
X-32567078Y41603000D01*
X-32272922Y41603000D01*
X-31450682Y40780761D01*
X-31200510Y40845539D01*
X-31171484Y40922780D01*
X-31139490Y40845539D01*
X-30889318Y40780761D01*
X-30067078Y41603000D01*
X-29772922Y41603000D01*
X-28950682Y40780761D01*
X-28700510Y40845539D01*
X-28671484Y40922780D01*
X-28639490Y40845539D01*
X-28389318Y40780761D01*
X-27567078Y41603000D01*
X-27272922Y41603000D01*
X-26450682Y40780761D01*
X-26200510Y40845539D01*
X-26003471Y41369876D01*
X-26018973Y41836124D01*
X-8836529Y41836124D01*
X-8817915Y41276296D01*
X-8639490Y40845539D01*
X-8389318Y40780761D01*
X-7567078Y41603000D01*
X-7272922Y41603000D01*
X-6450682Y40780761D01*
X-6200510Y40845539D01*
X-6171484Y40922780D01*
X-6139490Y40845539D01*
X-5889318Y40780761D01*
X-5067078Y41603000D01*
X-4772922Y41603000D01*
X-3950682Y40780761D01*
X-3700510Y40845539D01*
X-3671484Y40922780D01*
X-3639490Y40845539D01*
X-3389318Y40780761D01*
X-2567078Y41603000D01*
X-2272922Y41603000D01*
X-1450682Y40780761D01*
X-1200510Y40845539D01*
X-1003471Y41369876D01*
X-1022085Y41929704D01*
X-1200510Y42360461D01*
X-1450682Y42425239D01*
X-2272922Y41603000D01*
X-2567078Y41603000D01*
X-3389318Y42425239D01*
X-3639490Y42360461D01*
X-3668516Y42283220D01*
X-3700510Y42360461D01*
X-3950682Y42425239D01*
X-4772922Y41603000D01*
X-5067078Y41603000D01*
X-5889318Y42425239D01*
X-6139490Y42360461D01*
X-6168516Y42283220D01*
X-6200510Y42360461D01*
X-6450682Y42425239D01*
X-7272922Y41603000D01*
X-7567078Y41603000D01*
X-8389318Y42425239D01*
X-8639490Y42360461D01*
X-8836529Y41836124D01*
X-26018973Y41836124D01*
X-26022085Y41929704D01*
X-26200510Y42360461D01*
X-26450682Y42425239D01*
X-27272922Y41603000D01*
X-27567078Y41603000D01*
X-28389318Y42425239D01*
X-28639490Y42360461D01*
X-28668516Y42283220D01*
X-28700510Y42360461D01*
X-28950682Y42425239D01*
X-29772922Y41603000D01*
X-30067078Y41603000D01*
X-30889318Y42425239D01*
X-31139490Y42360461D01*
X-31168516Y42283220D01*
X-31200510Y42360461D01*
X-31450682Y42425239D01*
X-32272922Y41603000D01*
X-32567078Y41603000D01*
X-33389318Y42425239D01*
X-33639490Y42360461D01*
X-33836529Y41836124D01*
X-51018973Y41836124D01*
X-51022085Y41929704D01*
X-51200510Y42360461D01*
X-51450682Y42425239D01*
X-52272922Y41603000D01*
X-52567078Y41603000D01*
X-53389318Y42425239D01*
X-53639490Y42360461D01*
X-53668516Y42283220D01*
X-53700510Y42360461D01*
X-53950682Y42425239D01*
X-54772922Y41603000D01*
X-55067078Y41603000D01*
X-55889318Y42425239D01*
X-56139490Y42360461D01*
X-56168516Y42283220D01*
X-56200510Y42360461D01*
X-56450682Y42425239D01*
X-57272922Y41603000D01*
X-57567078Y41603000D01*
X-58389318Y42425239D01*
X-58639490Y42360461D01*
X-58836529Y41836124D01*
X-76018973Y41836124D01*
X-76022085Y41929704D01*
X-76200510Y42360461D01*
X-76450682Y42425239D01*
X-77272922Y41603000D01*
X-77567078Y41603000D01*
X-78389318Y42425239D01*
X-78639490Y42360461D01*
X-78668516Y42283220D01*
X-78700510Y42360461D01*
X-78950682Y42425239D01*
X-79772922Y41603000D01*
X-80067078Y41603000D01*
X-80889318Y42425239D01*
X-81139490Y42360461D01*
X-81168516Y42283220D01*
X-81200510Y42360461D01*
X-81450682Y42425239D01*
X-82272922Y41603000D01*
X-82567078Y41603000D01*
X-83389318Y42425239D01*
X-83639490Y42360461D01*
X-83836529Y41836124D01*
X-101018973Y41836124D01*
X-101022085Y41929704D01*
X-101200510Y42360461D01*
X-101450682Y42425239D01*
X-102272922Y41603000D01*
X-102567078Y41603000D01*
X-103389318Y42425239D01*
X-103639490Y42360461D01*
X-103668516Y42283220D01*
X-103700510Y42360461D01*
X-103950682Y42425239D01*
X-104772922Y41603000D01*
X-105067078Y41603000D01*
X-105889318Y42425239D01*
X-106139490Y42360461D01*
X-106168516Y42283220D01*
X-106200510Y42360461D01*
X-106450682Y42425239D01*
X-107272922Y41603000D01*
X-107567078Y41603000D01*
X-108389318Y42425239D01*
X-108639490Y42360461D01*
X-108836529Y41836124D01*
X-109475000Y41836124D01*
X-109475000Y42572318D01*
X-108242239Y42572318D01*
X-107420000Y41750078D01*
X-106597761Y42572318D01*
X-105742239Y42572318D01*
X-104920000Y41750078D01*
X-104097761Y42572318D01*
X-103242239Y42572318D01*
X-102420000Y41750078D01*
X-101597761Y42572318D01*
X-83242239Y42572318D01*
X-82420000Y41750078D01*
X-81597761Y42572318D01*
X-80742239Y42572318D01*
X-79920000Y41750078D01*
X-79097761Y42572318D01*
X-78242239Y42572318D01*
X-77420000Y41750078D01*
X-76597761Y42572318D01*
X-58242239Y42572318D01*
X-57420000Y41750078D01*
X-56597761Y42572318D01*
X-55742239Y42572318D01*
X-54920000Y41750078D01*
X-54097761Y42572318D01*
X-53242239Y42572318D01*
X-52420000Y41750078D01*
X-51597761Y42572318D01*
X-33242239Y42572318D01*
X-32420000Y41750078D01*
X-31597761Y42572318D01*
X-30742239Y42572318D01*
X-29920000Y41750078D01*
X-29097761Y42572318D01*
X-28242239Y42572318D01*
X-27420000Y41750078D01*
X-26597761Y42572318D01*
X-8242239Y42572318D01*
X-7420000Y41750078D01*
X-6597761Y42572318D01*
X-5742239Y42572318D01*
X-4920000Y41750078D01*
X-4097761Y42572318D01*
X-3242239Y42572318D01*
X-2420000Y41750078D01*
X-1597761Y42572318D01*
X-1662539Y42822490D01*
X-2186876Y43019529D01*
X-2746704Y43000915D01*
X-3177461Y42822490D01*
X-3242239Y42572318D01*
X-4097761Y42572318D01*
X-4162539Y42822490D01*
X-4686876Y43019529D01*
X-5246704Y43000915D01*
X-5677461Y42822490D01*
X-5742239Y42572318D01*
X-6597761Y42572318D01*
X-6662539Y42822490D01*
X-7186876Y43019529D01*
X-7746704Y43000915D01*
X-8177461Y42822490D01*
X-8242239Y42572318D01*
X-26597761Y42572318D01*
X-26662539Y42822490D01*
X-27186876Y43019529D01*
X-27746704Y43000915D01*
X-28177461Y42822490D01*
X-28242239Y42572318D01*
X-29097761Y42572318D01*
X-29162539Y42822490D01*
X-29686876Y43019529D01*
X-30246704Y43000915D01*
X-30677461Y42822490D01*
X-30742239Y42572318D01*
X-31597761Y42572318D01*
X-31662539Y42822490D01*
X-32186876Y43019529D01*
X-32746704Y43000915D01*
X-33177461Y42822490D01*
X-33242239Y42572318D01*
X-51597761Y42572318D01*
X-51662539Y42822490D01*
X-52186876Y43019529D01*
X-52746704Y43000915D01*
X-53177461Y42822490D01*
X-53242239Y42572318D01*
X-54097761Y42572318D01*
X-54162539Y42822490D01*
X-54686876Y43019529D01*
X-55246704Y43000915D01*
X-55677461Y42822490D01*
X-55742239Y42572318D01*
X-56597761Y42572318D01*
X-56662539Y42822490D01*
X-57186876Y43019529D01*
X-57746704Y43000915D01*
X-58177461Y42822490D01*
X-58242239Y42572318D01*
X-76597761Y42572318D01*
X-76662539Y42822490D01*
X-77186876Y43019529D01*
X-77746704Y43000915D01*
X-78177461Y42822490D01*
X-78242239Y42572318D01*
X-79097761Y42572318D01*
X-79162539Y42822490D01*
X-79686876Y43019529D01*
X-80246704Y43000915D01*
X-80677461Y42822490D01*
X-80742239Y42572318D01*
X-81597761Y42572318D01*
X-81662539Y42822490D01*
X-82186876Y43019529D01*
X-82746704Y43000915D01*
X-83177461Y42822490D01*
X-83242239Y42572318D01*
X-101597761Y42572318D01*
X-101662539Y42822490D01*
X-102186876Y43019529D01*
X-102746704Y43000915D01*
X-103177461Y42822490D01*
X-103242239Y42572318D01*
X-104097761Y42572318D01*
X-104162539Y42822490D01*
X-104686876Y43019529D01*
X-105246704Y43000915D01*
X-105677461Y42822490D01*
X-105742239Y42572318D01*
X-106597761Y42572318D01*
X-106662539Y42822490D01*
X-107186876Y43019529D01*
X-107746704Y43000915D01*
X-108177461Y42822490D01*
X-108242239Y42572318D01*
X-109475000Y42572318D01*
X-109475000Y43975000D01*
X-524999Y43975000D01*
X-525000Y18729537D01*
X-525000Y18729537D01*
G37*
X-525000Y18729537D02*
X-20205579Y525000D01*
X-89794420Y525000D01*
X-100004150Y9969000D01*
X-91033000Y9969000D01*
X-91033000Y9394116D01*
X-90932826Y9152273D01*
X-90747727Y8967175D01*
X-90505885Y8867000D01*
X-89768500Y8867000D01*
X-89604000Y9031500D01*
X-89604000Y10133500D01*
X-89396000Y10133500D01*
X-89396000Y9031500D01*
X-89231500Y8867000D01*
X-88494115Y8867000D01*
X-88252273Y8967175D01*
X-88067174Y9152273D01*
X-87967000Y9394116D01*
X-87967000Y9969000D01*
X-88131500Y10133500D01*
X-89396000Y10133500D01*
X-89604000Y10133500D01*
X-90868500Y10133500D01*
X-91033000Y9969000D01*
X-100004150Y9969000D01*
X-102463609Y12244000D01*
X-91033000Y12244000D01*
X-91033000Y11669116D01*
X-90932826Y11427273D01*
X-90880553Y11375000D01*
X-90932826Y11322727D01*
X-91033000Y11080884D01*
X-91033000Y10506000D01*
X-90868500Y10341500D01*
X-89604000Y10341500D01*
X-89604000Y12408500D01*
X-89396000Y12408500D01*
X-89396000Y10341500D01*
X-88131500Y10341500D01*
X-87967000Y10506000D01*
X-87967000Y11080884D01*
X-88067174Y11322727D01*
X-88119447Y11375000D01*
X-88067174Y11427273D01*
X-87967000Y11669116D01*
X-87967000Y12244000D01*
X-88131500Y12408500D01*
X-89396000Y12408500D01*
X-89604000Y12408500D01*
X-90868500Y12408500D01*
X-91033000Y12244000D01*
X-102463609Y12244000D01*
X-103665645Y13355884D01*
X-91033000Y13355884D01*
X-91033000Y12781000D01*
X-90868500Y12616500D01*
X-89604000Y12616500D01*
X-89604000Y13718500D01*
X-89396000Y13718500D01*
X-89396000Y12616500D01*
X-88131500Y12616500D01*
X-87967000Y12781000D01*
X-87967000Y13355884D01*
X-88067174Y13597727D01*
X-88252273Y13782825D01*
X-88494115Y13883000D01*
X-89231500Y13883000D01*
X-89396000Y13718500D01*
X-89604000Y13718500D01*
X-89768500Y13883000D01*
X-90505885Y13883000D01*
X-90747727Y13782825D01*
X-90932826Y13597727D01*
X-91033000Y13355884D01*
X-103665645Y13355884D01*
X-106470095Y15950000D01*
X-90844011Y15950000D01*
X-90844011Y15025000D01*
X-90789280Y14749846D01*
X-90633418Y14516582D01*
X-90400154Y14360720D01*
X-90125000Y14305989D01*
X-88875000Y14305989D01*
X-88599846Y14360720D01*
X-88366582Y14516582D01*
X-88210720Y14749846D01*
X-88205219Y14777500D01*
X-84643021Y14777500D01*
X-84744574Y14757300D01*
X-84840624Y14693121D01*
X-85062121Y14545121D01*
X-85115681Y14464963D01*
X-85447963Y14132681D01*
X-85528121Y14079121D01*
X-85686389Y13842256D01*
X-86971963Y12556681D01*
X-87052121Y12503121D01*
X-87264300Y12185572D01*
X-87320000Y11905548D01*
X-87320000Y11905544D01*
X-87338806Y11811000D01*
X-87320000Y11716455D01*
X-87319999Y7061590D01*
X-87973506Y7715096D01*
X-88013119Y7774381D01*
X-88189216Y7892045D01*
X-88210720Y8000154D01*
X-88366582Y8233418D01*
X-88599846Y8389280D01*
X-88875000Y8444011D01*
X-90125000Y8444011D01*
X-90400154Y8389280D01*
X-90633418Y8233418D01*
X-90789280Y8000154D01*
X-90844011Y7725000D01*
X-90844011Y6800000D01*
X-90789280Y6524846D01*
X-90633418Y6291582D01*
X-90400154Y6135720D01*
X-90125000Y6080989D01*
X-88875000Y6080989D01*
X-88599846Y6135720D01*
X-88481432Y6214842D01*
X-87909992Y5643401D01*
X-87870381Y5584119D01*
X-87635528Y5427195D01*
X-87428426Y5386000D01*
X-87428422Y5386000D01*
X-87358501Y5372092D01*
X-87288580Y5386000D01*
X-87025362Y5386000D01*
X-86971965Y5350321D01*
X-84509679Y2888034D01*
X-84456121Y2807879D01*
X-84138573Y2595700D01*
X-83858549Y2540000D01*
X-83858545Y2540000D01*
X-83764001Y2521194D01*
X-83669456Y2540000D01*
X-73947131Y2540000D01*
X-73933310Y2470517D01*
X-73831641Y2318359D01*
X-73679483Y2216690D01*
X-73500000Y2180989D01*
X-71500000Y2180989D01*
X-71320517Y2216690D01*
X-71168359Y2318359D01*
X-71066690Y2470517D01*
X-71030989Y2650000D01*
X-71030989Y4350000D01*
X-71066690Y4529483D01*
X-71168359Y4681641D01*
X-71320517Y4783310D01*
X-71500000Y4819011D01*
X-73500000Y4819011D01*
X-73679483Y4783310D01*
X-73831641Y4681641D01*
X-73933310Y4529483D01*
X-73947131Y4460000D01*
X-83366355Y4460000D01*
X-85400000Y6493644D01*
X-85400000Y11413356D01*
X-84224034Y12589321D01*
X-84164033Y12629412D01*
X-84149483Y12619690D01*
X-83970000Y12583989D01*
X-82370000Y12583989D01*
X-82190517Y12619690D01*
X-82038359Y12721359D01*
X-81936690Y12873517D01*
X-81900989Y13053000D01*
X-81900989Y14653000D01*
X-81936690Y14832483D01*
X-82038359Y14984641D01*
X-82190517Y15086310D01*
X-82370000Y15122011D01*
X-83436899Y15122011D01*
X-83404040Y15154870D01*
X-83294094Y15133000D01*
X-83045906Y15133000D01*
X-82678373Y15206107D01*
X-82261591Y15484591D01*
X-82229245Y15533000D01*
X-81885999Y15533000D01*
X-81886000Y12103022D01*
X-82055483Y12069310D01*
X-82207641Y11967641D01*
X-82309310Y11815483D01*
X-82345011Y11636000D01*
X-82345011Y9636000D01*
X-82309310Y9456517D01*
X-82207641Y9304359D01*
X-82055483Y9202690D01*
X-81876000Y9166989D01*
X-80176000Y9166989D01*
X-79996517Y9202690D01*
X-79844359Y9304359D01*
X-79742690Y9456517D01*
X-79706989Y9636000D01*
X-79706989Y11636000D01*
X-79742690Y11815483D01*
X-79844359Y11967641D01*
X-79996517Y12069310D01*
X-80166000Y12103022D01*
X-80166000Y15917299D01*
X-80149152Y16002000D01*
X-80215898Y16337556D01*
X-80296656Y16458418D01*
X-80405975Y16622025D01*
X-80477784Y16670006D01*
X-80748995Y16941217D01*
X-80796975Y17013025D01*
X-81081445Y17203102D01*
X-81332299Y17253000D01*
X-81332304Y17253000D01*
X-81417000Y17269847D01*
X-81501696Y17253000D01*
X-82229245Y17253000D01*
X-82261591Y17301409D01*
X-82678373Y17579893D01*
X-83045906Y17653000D01*
X-83164026Y17653000D01*
X-83134093Y17673000D01*
X-83045906Y17673000D01*
X-82678373Y17746107D01*
X-82338803Y17973000D01*
X-81855815Y17973000D01*
X-81803418Y17894582D01*
X-81570154Y17738720D01*
X-81374433Y17699789D01*
X-81308982Y17634338D01*
X-81291705Y17547481D01*
X-81145832Y17329167D01*
X-80927518Y17183294D01*
X-80840661Y17166017D01*
X-78780000Y15105355D01*
X-78779999Y14102645D01*
X-79281964Y13600681D01*
X-79362121Y13547121D01*
X-79574300Y13229572D01*
X-79630000Y12949548D01*
X-79630000Y12949544D01*
X-79648806Y12855000D01*
X-79630000Y12760455D01*
X-79629999Y10258451D01*
X-79574299Y9978427D01*
X-79386683Y9697640D01*
X-79373000Y9498883D01*
X-79373000Y8937847D01*
X-79387888Y8863000D01*
X-79373000Y8788153D01*
X-79373000Y8788148D01*
X-79336171Y8603000D01*
X-79328903Y8566463D01*
X-79264770Y8470482D01*
X-79160928Y8315071D01*
X-79097472Y8272671D01*
X-78090329Y7265527D01*
X-78053227Y7210000D01*
X-78392356Y7210000D01*
X-78430319Y7247963D01*
X-78483879Y7328121D01*
X-78801427Y7540300D01*
X-79081451Y7596000D01*
X-79081456Y7596000D01*
X-79176000Y7614806D01*
X-79270544Y7596000D01*
X-79706989Y7596000D01*
X-79706989Y7636000D01*
X-79742690Y7815483D01*
X-79844359Y7967641D01*
X-79996517Y8069310D01*
X-80176000Y8105011D01*
X-81876000Y8105011D01*
X-82055483Y8069310D01*
X-82207641Y7967641D01*
X-82309310Y7815483D01*
X-82345011Y7636000D01*
X-82345011Y5636000D01*
X-82309310Y5456517D01*
X-82207641Y5304359D01*
X-82055483Y5202690D01*
X-81876000Y5166989D01*
X-80176000Y5166989D01*
X-79996517Y5202690D01*
X-79844359Y5304359D01*
X-79742690Y5456517D01*
X-79706989Y5636000D01*
X-79706989Y5676000D01*
X-79573644Y5676000D01*
X-79535681Y5638037D01*
X-79482121Y5557879D01*
X-79164573Y5345700D01*
X-78884549Y5290000D01*
X-78884545Y5290000D01*
X-78790001Y5271194D01*
X-78695456Y5290000D01*
X-66567644Y5290000D01*
X-67172941Y4684703D01*
X-67320517Y4783310D01*
X-67500000Y4819011D01*
X-69500000Y4819011D01*
X-69679483Y4783310D01*
X-69831641Y4681641D01*
X-69933310Y4529483D01*
X-69969011Y4350000D01*
X-69969011Y2650000D01*
X-69933310Y2470517D01*
X-69831641Y2318359D01*
X-69679483Y2216690D01*
X-69500000Y2180989D01*
X-67500000Y2180989D01*
X-67320517Y2216690D01*
X-67168359Y2318359D01*
X-67066690Y2470517D01*
X-67054455Y2532026D01*
X-67000000Y2521194D01*
X-66905456Y2540000D01*
X-66905451Y2540000D01*
X-66625427Y2595700D01*
X-66307879Y2807879D01*
X-66254319Y2888037D01*
X-64117624Y5024732D01*
X-61835000Y5024732D01*
X-61835000Y4195268D01*
X-61517578Y3428942D01*
X-60931058Y2842422D01*
X-60164732Y2525000D01*
X-59335268Y2525000D01*
X-58568942Y2842422D01*
X-57982422Y3428942D01*
X-57665000Y4195268D01*
X-57665000Y5024732D01*
X-51675000Y5024732D01*
X-51675000Y4195268D01*
X-51357578Y3428942D01*
X-50771058Y2842422D01*
X-50004732Y2525000D01*
X-49175268Y2525000D01*
X-48408942Y2842422D01*
X-47822422Y3428942D01*
X-47505000Y4195268D01*
X-47505000Y5024732D01*
X-47822422Y5791058D01*
X-48408942Y6377578D01*
X-49175268Y6695000D01*
X-50004732Y6695000D01*
X-50771058Y6377578D01*
X-51357578Y5791058D01*
X-51675000Y5024732D01*
X-57665000Y5024732D01*
X-57982422Y5791058D01*
X-58568942Y6377578D01*
X-59335268Y6695000D01*
X-60164732Y6695000D01*
X-60931058Y6377578D01*
X-61517578Y5791058D01*
X-61835000Y5024732D01*
X-64117624Y5024732D01*
X-61499355Y7643000D01*
X-56594544Y7643000D01*
X-56500000Y7624194D01*
X-56405456Y7643000D01*
X-56405451Y7643000D01*
X-56125427Y7698700D01*
X-55807879Y7910879D01*
X-55754319Y7991036D01*
X-54728034Y9017322D01*
X-54647879Y9070879D01*
X-54435700Y9388427D01*
X-54380000Y9668451D01*
X-54380000Y9668452D01*
X-54361193Y9763000D01*
X-54380000Y9857548D01*
X-54380000Y10194660D01*
X-54305734Y10268926D01*
X-54188000Y10553161D01*
X-54188000Y10069115D01*
X-54087825Y9827273D01*
X-53902727Y9642174D01*
X-53660884Y9542000D01*
X-53038500Y9542000D01*
X-52874000Y9706500D01*
X-52874000Y10856000D01*
X-52666000Y10856000D01*
X-52666000Y9706500D01*
X-52501500Y9542000D01*
X-51879116Y9542000D01*
X-51637273Y9642174D01*
X-51452175Y9827273D01*
X-51352000Y10069115D01*
X-51352000Y10691500D01*
X-51516500Y10856000D01*
X-52666000Y10856000D01*
X-52874000Y10856000D01*
X-52894000Y10856000D01*
X-52894000Y11064000D01*
X-52874000Y11064000D01*
X-52874000Y12213500D01*
X-52666000Y12213500D01*
X-52666000Y11064000D01*
X-51516500Y11064000D01*
X-51352000Y11228500D01*
X-51352000Y11850885D01*
X-51452175Y12092727D01*
X-51637273Y12277826D01*
X-51879116Y12378000D01*
X-52501500Y12378000D01*
X-52666000Y12213500D01*
X-52874000Y12213500D01*
X-53038500Y12378000D01*
X-53590734Y12378000D01*
X-53378926Y12465734D01*
X-53035734Y12808926D01*
X-52850000Y13257327D01*
X-52850000Y13742673D01*
X-53035734Y14191074D01*
X-53110000Y14265340D01*
X-53110000Y15335456D01*
X-53091194Y15430001D01*
X-53110000Y15524545D01*
X-53110000Y15524549D01*
X-53165700Y15804573D01*
X-53377879Y16122121D01*
X-53458034Y16175679D01*
X-55094319Y17811963D01*
X-55147879Y17892121D01*
X-55376678Y18045000D01*
X-55188500Y18045000D01*
X-55024000Y18209500D01*
X-55024000Y19999000D01*
X-54816000Y19999000D01*
X-54816000Y18209500D01*
X-54651500Y18045000D01*
X-53389116Y18045000D01*
X-53147273Y18145174D01*
X-52962175Y18330273D01*
X-52862000Y18572115D01*
X-52862000Y19834500D01*
X-53026500Y19999000D01*
X-54816000Y19999000D01*
X-55024000Y19999000D01*
X-56813500Y19999000D01*
X-56978000Y19834500D01*
X-56978000Y18585644D01*
X-57027500Y18635144D01*
X-57027500Y21633885D01*
X-56978000Y21633885D01*
X-56978000Y20371500D01*
X-56813500Y20207000D01*
X-55024000Y20207000D01*
X-55024000Y21996500D01*
X-54816000Y21996500D01*
X-54816000Y20207000D01*
X-53026500Y20207000D01*
X-52862000Y20371500D01*
X-52862000Y21633885D01*
X-52962175Y21875727D01*
X-53147273Y22060826D01*
X-53389116Y22161000D01*
X-54651500Y22161000D01*
X-54816000Y21996500D01*
X-55024000Y21996500D01*
X-55188500Y22161000D01*
X-56450884Y22161000D01*
X-56692727Y22060826D01*
X-56877825Y21875727D01*
X-56978000Y21633885D01*
X-57027500Y21633885D01*
X-57027500Y22686459D01*
X-57000000Y22680989D01*
X-55000000Y22680989D01*
X-54820517Y22716690D01*
X-54668359Y22818359D01*
X-54566690Y22970517D01*
X-54552869Y23040000D01*
X-49054644Y23040000D01*
X-46567047Y20552402D01*
X-46656439Y20103000D01*
X-46512081Y19377264D01*
X-46100985Y18762015D01*
X-45485736Y18350919D01*
X-44943191Y18243000D01*
X-44576809Y18243000D01*
X-44034264Y18350919D01*
X-43419015Y18762015D01*
X-43007919Y19377264D01*
X-42863561Y20103000D01*
X-43007919Y20828736D01*
X-43419015Y21443985D01*
X-44034264Y21855081D01*
X-44576809Y21963000D01*
X-44943191Y21963000D01*
X-45209402Y21910047D01*
X-47543355Y24244000D01*
X-39533000Y24244000D01*
X-39533000Y23669116D01*
X-39432826Y23427273D01*
X-39247727Y23242175D01*
X-39005885Y23142000D01*
X-38268500Y23142000D01*
X-38104000Y23306500D01*
X-38104000Y24408500D01*
X-37896000Y24408500D01*
X-37896000Y23306500D01*
X-37731500Y23142000D01*
X-36994115Y23142000D01*
X-36752273Y23242175D01*
X-36567174Y23427273D01*
X-36467000Y23669116D01*
X-36467000Y24244000D01*
X-36631500Y24408500D01*
X-37896000Y24408500D01*
X-38104000Y24408500D01*
X-39368500Y24408500D01*
X-39533000Y24244000D01*
X-47543355Y24244000D01*
X-47911319Y24611963D01*
X-47964879Y24692121D01*
X-48282427Y24904300D01*
X-48562451Y24960000D01*
X-48562456Y24960000D01*
X-48657000Y24978806D01*
X-48751544Y24960000D01*
X-54552869Y24960000D01*
X-54566690Y25029483D01*
X-54668359Y25181641D01*
X-54820517Y25283310D01*
X-55000000Y25319011D01*
X-57000000Y25319011D01*
X-57027500Y25313541D01*
X-57027500Y25355884D01*
X-39533000Y25355884D01*
X-39533000Y24781000D01*
X-39368500Y24616500D01*
X-38104000Y24616500D01*
X-38104000Y25718500D01*
X-37896000Y25718500D01*
X-37896000Y24616500D01*
X-36631500Y24616500D01*
X-36467000Y24781000D01*
X-36467000Y25355884D01*
X-36567174Y25597727D01*
X-36752273Y25782825D01*
X-36994115Y25883000D01*
X-37731500Y25883000D01*
X-37896000Y25718500D01*
X-38104000Y25718500D01*
X-38268500Y25883000D01*
X-39005885Y25883000D01*
X-39247727Y25782825D01*
X-39432826Y25597727D01*
X-39533000Y25355884D01*
X-57027500Y25355884D01*
X-57027500Y25614856D01*
X-56114855Y26527500D01*
X-39140713Y26527500D01*
X-39133418Y26516582D01*
X-38900154Y26360720D01*
X-38625000Y26305989D01*
X-37375000Y26305989D01*
X-37099846Y26360720D01*
X-36866582Y26516582D01*
X-36710720Y26749846D01*
X-36655989Y27025000D01*
X-36655989Y27827421D01*
X-36073650Y28409760D01*
X-20060000Y28409760D01*
X-20060000Y27590240D01*
X-19746384Y26833104D01*
X-19166896Y26253616D01*
X-18409760Y25940000D01*
X-17590240Y25940000D01*
X-16833104Y26253616D01*
X-16253616Y26833104D01*
X-15940000Y27590240D01*
X-15940000Y28409760D01*
X-16253616Y29166896D01*
X-16833104Y29746384D01*
X-17590240Y30060000D01*
X-18409760Y30060000D01*
X-19166896Y29746384D01*
X-19746384Y29166896D01*
X-20060000Y28409760D01*
X-36073650Y28409760D01*
X-33693408Y30790000D01*
X-28069924Y30790000D01*
X-28000000Y30776091D01*
X-27930076Y30790000D01*
X-27930074Y30790000D01*
X-27722972Y30831195D01*
X-27488119Y30988119D01*
X-27448506Y31047404D01*
X-24547398Y33948510D01*
X-24488119Y33988119D01*
X-24418335Y34092557D01*
X-24331195Y34222972D01*
X-24299262Y34383510D01*
X-24290000Y34430074D01*
X-24290000Y34430075D01*
X-24276091Y34500000D01*
X-24290000Y34569926D01*
X-24290000Y35930074D01*
X-24276091Y36000000D01*
X-24331195Y36277028D01*
X-24448509Y36452601D01*
X-24448512Y36452604D01*
X-24488120Y36511881D01*
X-24547396Y36551488D01*
X-27095921Y39100011D01*
X-11921101Y39100011D01*
X-8630000Y35808909D01*
X-8630000Y35362316D01*
X-8445788Y34917590D01*
X-8105410Y34577212D01*
X-7660684Y34393000D01*
X-7179316Y34393000D01*
X-6734590Y34577212D01*
X-6678120Y34633682D01*
X-5742239Y34633682D01*
X-5677461Y34383510D01*
X-5153124Y34186471D01*
X-4593296Y34205085D01*
X-4162539Y34383510D01*
X-4097761Y34633682D01*
X-4920000Y35455922D01*
X-5742239Y34633682D01*
X-6678120Y34633682D01*
X-6394212Y34917590D01*
X-6281773Y35189041D01*
X-6139490Y34845539D01*
X-5889318Y34780761D01*
X-5067078Y35603000D01*
X-4772922Y35603000D01*
X-3950682Y34780761D01*
X-3700510Y34845539D01*
X-3565148Y35205749D01*
X-3445788Y34917590D01*
X-3105410Y34577212D01*
X-2660684Y34393000D01*
X-2179316Y34393000D01*
X-1734590Y34577212D01*
X-1394212Y34917590D01*
X-1210000Y35362316D01*
X-1210000Y35843684D01*
X-1394212Y36288410D01*
X-1734590Y36628788D01*
X-2179316Y36813000D01*
X-2660684Y36813000D01*
X-3105410Y36628788D01*
X-3445788Y36288410D01*
X-3558227Y36016959D01*
X-3700510Y36360461D01*
X-3950682Y36425239D01*
X-4772922Y35603000D01*
X-5067078Y35603000D01*
X-5889318Y36425239D01*
X-6139490Y36360461D01*
X-6274852Y36000251D01*
X-6394212Y36288410D01*
X-6678120Y36572318D01*
X-5742239Y36572318D01*
X-4920000Y35750078D01*
X-4097761Y36572318D01*
X-4162539Y36822490D01*
X-4686876Y37019529D01*
X-5246704Y37000915D01*
X-5677461Y36822490D01*
X-5742239Y36572318D01*
X-6678120Y36572318D01*
X-6734590Y36628788D01*
X-7179316Y36813000D01*
X-7625909Y36813000D01*
X-11075517Y40262607D01*
X-11115130Y40321892D01*
X-11349983Y40478816D01*
X-11557085Y40520011D01*
X-11557087Y40520011D01*
X-11627011Y40533920D01*
X-11696935Y40520011D01*
X-26627194Y40520011D01*
X-26597761Y40633682D01*
X-8242239Y40633682D01*
X-8177461Y40383510D01*
X-7653124Y40186471D01*
X-7093296Y40205085D01*
X-6662539Y40383510D01*
X-6597761Y40633682D01*
X-5742239Y40633682D01*
X-5677461Y40383510D01*
X-5153124Y40186471D01*
X-4593296Y40205085D01*
X-4162539Y40383510D01*
X-4097761Y40633682D01*
X-3242239Y40633682D01*
X-3177461Y40383510D01*
X-2653124Y40186471D01*
X-2093296Y40205085D01*
X-1662539Y40383510D01*
X-1597761Y40633682D01*
X-2420000Y41455922D01*
X-3242239Y40633682D01*
X-4097761Y40633682D01*
X-4920000Y41455922D01*
X-5742239Y40633682D01*
X-6597761Y40633682D01*
X-7420000Y41455922D01*
X-8242239Y40633682D01*
X-26597761Y40633682D01*
X-27420000Y41455922D01*
X-28242239Y40633682D01*
X-28212806Y40520011D01*
X-29127194Y40520011D01*
X-29097761Y40633682D01*
X-29920000Y41455922D01*
X-30742239Y40633682D01*
X-30712806Y40520011D01*
X-31627194Y40520011D01*
X-31597761Y40633682D01*
X-32420000Y41455922D01*
X-33242239Y40633682D01*
X-33212806Y40520011D01*
X-51627194Y40520011D01*
X-51597761Y40633682D01*
X-52420000Y41455922D01*
X-53242239Y40633682D01*
X-53212806Y40520011D01*
X-54127194Y40520011D01*
X-54097761Y40633682D01*
X-54920000Y41455922D01*
X-55742239Y40633682D01*
X-55712806Y40520011D01*
X-56627194Y40520011D01*
X-56597761Y40633682D01*
X-57420000Y41455922D01*
X-58242239Y40633682D01*
X-58212806Y40520011D01*
X-76627194Y40520011D01*
X-76597761Y40633682D01*
X-77420000Y41455922D01*
X-78242239Y40633682D01*
X-78212806Y40520011D01*
X-79127194Y40520011D01*
X-79097761Y40633682D01*
X-79920000Y41455922D01*
X-80742239Y40633682D01*
X-80712806Y40520011D01*
X-80870069Y40520011D01*
X-80939990Y40533919D01*
X-81009911Y40520011D01*
X-81009915Y40520011D01*
X-81217017Y40478816D01*
X-81451870Y40321892D01*
X-81491481Y40262610D01*
X-84702598Y37051492D01*
X-84761880Y37011881D01*
X-84801490Y36952600D01*
X-84918804Y36777028D01*
X-84973909Y36500000D01*
X-84959999Y36430071D01*
X-84960000Y35319925D01*
X-84973909Y35250000D01*
X-84960000Y35180076D01*
X-84960000Y35180075D01*
X-84918805Y34972973D01*
X-84761881Y34738120D01*
X-84702598Y34698508D01*
X-82977734Y32973644D01*
X-83066000Y32922794D01*
X-83066000Y31737000D01*
X-81880688Y31737000D01*
X-81829544Y31825454D01*
X-78959999Y28955908D01*
X-78960000Y26819925D01*
X-78973909Y26750000D01*
X-78960000Y26680076D01*
X-78960000Y26680075D01*
X-78918805Y26472973D01*
X-78761881Y26238120D01*
X-78702599Y26198509D01*
X-77959999Y25455908D01*
X-77960000Y20702925D01*
X-77973909Y20633000D01*
X-77960000Y20563076D01*
X-77960000Y20563075D01*
X-77918805Y20355973D01*
X-77761881Y20121120D01*
X-77702598Y20081508D01*
X-76788130Y19167040D01*
X-76834684Y18933000D01*
X-76736893Y18441373D01*
X-76458409Y18024591D01*
X-76041627Y17746107D01*
X-76032412Y17744274D01*
X-76398541Y17578650D01*
X-76787678Y17163675D01*
X-76970112Y16723220D01*
X-76839312Y16497000D01*
X-75654000Y16497000D01*
X-75654000Y16517000D01*
X-75446000Y16517000D01*
X-75446000Y16497000D01*
X-74260688Y16497000D01*
X-74129888Y16723220D01*
X-74312322Y17163675D01*
X-74701459Y17578650D01*
X-75067588Y17744274D01*
X-75058373Y17746107D01*
X-74718803Y17973000D01*
X-68561062Y17973000D01*
X-68161627Y17706107D01*
X-67794094Y17633000D01*
X-67545906Y17633000D01*
X-67178373Y17706107D01*
X-66761591Y17984591D01*
X-66483107Y18401373D01*
X-66385316Y18893000D01*
X-66483107Y19384627D01*
X-66761591Y19801409D01*
X-67178373Y20079893D01*
X-67545906Y20153000D01*
X-67794094Y20153000D01*
X-68161627Y20079893D01*
X-68441333Y19893000D01*
X-74718803Y19893000D01*
X-75058373Y20119893D01*
X-75425906Y20193000D01*
X-75674094Y20193000D01*
X-75784040Y20171130D01*
X-75863606Y20250696D01*
X-75674094Y20213000D01*
X-75425906Y20213000D01*
X-75058373Y20286107D01*
X-74718803Y20513000D01*
X-68561062Y20513000D01*
X-68161627Y20246107D01*
X-67794094Y20173000D01*
X-67545906Y20173000D01*
X-67178373Y20246107D01*
X-66761591Y20524591D01*
X-66483107Y20941373D01*
X-66467743Y21018614D01*
X-66448506Y21047404D01*
X-58205909Y29290000D01*
X-39153584Y29290000D01*
X-39083660Y29276091D01*
X-39013736Y29290000D01*
X-39013734Y29290000D01*
X-38806632Y29331195D01*
X-38571779Y29488119D01*
X-38532166Y29547404D01*
X-33303883Y34775685D01*
X-33105410Y34577212D01*
X-32660684Y34393000D01*
X-32179316Y34393000D01*
X-31734590Y34577212D01*
X-31678120Y34633682D01*
X-30742239Y34633682D01*
X-30677461Y34383510D01*
X-30153124Y34186471D01*
X-29593296Y34205085D01*
X-29162539Y34383510D01*
X-29097761Y34633682D01*
X-29920000Y35455922D01*
X-30742239Y34633682D01*
X-31678120Y34633682D01*
X-31394212Y34917590D01*
X-31281773Y35189041D01*
X-31139490Y34845539D01*
X-30889318Y34780761D01*
X-30067078Y35603000D01*
X-29772922Y35603000D01*
X-28950682Y34780761D01*
X-28700510Y34845539D01*
X-28565148Y35205749D01*
X-28445788Y34917590D01*
X-28105410Y34577212D01*
X-27660684Y34393000D01*
X-27179316Y34393000D01*
X-26734590Y34577212D01*
X-26394212Y34917590D01*
X-26210000Y35362316D01*
X-26210000Y35843684D01*
X-26394212Y36288410D01*
X-26734590Y36628788D01*
X-27179316Y36813000D01*
X-27660684Y36813000D01*
X-28105410Y36628788D01*
X-28445788Y36288410D01*
X-28558227Y36016959D01*
X-28700510Y36360461D01*
X-28950682Y36425239D01*
X-29772922Y35603000D01*
X-30067078Y35603000D01*
X-30889318Y36425239D01*
X-31139490Y36360461D01*
X-31274852Y36000251D01*
X-31394212Y36288410D01*
X-31678120Y36572318D01*
X-30742239Y36572318D01*
X-29920000Y35750078D01*
X-29097761Y36572318D01*
X-29162539Y36822490D01*
X-29686876Y37019529D01*
X-30246704Y37000915D01*
X-30677461Y36822490D01*
X-30742239Y36572318D01*
X-31678120Y36572318D01*
X-31734590Y36628788D01*
X-32179316Y36813000D01*
X-32660684Y36813000D01*
X-33105410Y36628788D01*
X-33419462Y36314736D01*
X-33480660Y36326909D01*
X-33550586Y36313000D01*
X-33757688Y36271805D01*
X-33992541Y36114881D01*
X-34032150Y36055602D01*
X-39377750Y30710000D01*
X-58285909Y30710000D01*
X-56967399Y32028510D01*
X-56908120Y32068119D01*
X-56751195Y32302972D01*
X-56710000Y32510074D01*
X-56710000Y32510078D01*
X-56696092Y32579999D01*
X-56710000Y32649920D01*
X-56710000Y34601802D01*
X-56678120Y34633682D01*
X-55742239Y34633682D01*
X-55677461Y34383510D01*
X-55153124Y34186471D01*
X-54593296Y34205085D01*
X-54162539Y34383510D01*
X-54097761Y34633682D01*
X-54920000Y35455922D01*
X-55742239Y34633682D01*
X-56678120Y34633682D01*
X-56394212Y34917590D01*
X-56281773Y35189041D01*
X-56139490Y34845539D01*
X-55889318Y34780761D01*
X-55067078Y35603000D01*
X-54772922Y35603000D01*
X-53950682Y34780761D01*
X-53700510Y34845539D01*
X-53565148Y35205749D01*
X-53445788Y34917590D01*
X-53105410Y34577212D01*
X-52660684Y34393000D01*
X-52179316Y34393000D01*
X-51734590Y34577212D01*
X-51394212Y34917590D01*
X-51210000Y35362316D01*
X-51210000Y35843684D01*
X-51394212Y36288410D01*
X-51734590Y36628788D01*
X-52179316Y36813000D01*
X-52660684Y36813000D01*
X-53105410Y36628788D01*
X-53445788Y36288410D01*
X-53558227Y36016959D01*
X-53700510Y36360461D01*
X-53950682Y36425239D01*
X-54772922Y35603000D01*
X-55067078Y35603000D01*
X-55889318Y36425239D01*
X-56139490Y36360461D01*
X-56274852Y36000251D01*
X-56394212Y36288410D01*
X-56678120Y36572318D01*
X-55742239Y36572318D01*
X-54920000Y35750078D01*
X-54097761Y36572318D01*
X-54162539Y36822490D01*
X-54686876Y37019529D01*
X-55246704Y37000915D01*
X-55677461Y36822490D01*
X-55742239Y36572318D01*
X-56678120Y36572318D01*
X-56734590Y36628788D01*
X-57179316Y36813000D01*
X-57660684Y36813000D01*
X-58105410Y36628788D01*
X-58445788Y36288410D01*
X-58630000Y35843684D01*
X-58630000Y35362316D01*
X-58445788Y34917590D01*
X-58129999Y34601801D01*
X-58130000Y32874091D01*
X-66321090Y24683000D01*
X-66629019Y24683000D01*
X-66761591Y24881409D01*
X-67178373Y25159893D01*
X-67545906Y25233000D01*
X-67794094Y25233000D01*
X-68161627Y25159893D01*
X-68441333Y24973000D01*
X-74718803Y24973000D01*
X-75058373Y25199893D01*
X-75425906Y25273000D01*
X-75674094Y25273000D01*
X-76041627Y25199893D01*
X-76458409Y24921409D01*
X-76540000Y24799299D01*
X-76540000Y25680074D01*
X-76526722Y25746829D01*
X-76458409Y25644591D01*
X-76041627Y25366107D01*
X-75674094Y25293000D01*
X-75425906Y25293000D01*
X-75058373Y25366107D01*
X-74718803Y25593000D01*
X-68561062Y25593000D01*
X-68161627Y25326107D01*
X-67794094Y25253000D01*
X-67545906Y25253000D01*
X-67178373Y25326107D01*
X-66761591Y25604591D01*
X-66483107Y26021373D01*
X-66385316Y26513000D01*
X-66483107Y27004627D01*
X-66761591Y27421409D01*
X-67178373Y27699893D01*
X-67545906Y27773000D01*
X-67794094Y27773000D01*
X-68161627Y27699893D01*
X-68441333Y27513000D01*
X-74718803Y27513000D01*
X-75058373Y27739893D01*
X-75067588Y27741726D01*
X-74701459Y27907350D01*
X-74312322Y28322325D01*
X-74129888Y28762780D01*
X-74260688Y28989000D01*
X-75446000Y28989000D01*
X-75446000Y28969000D01*
X-75654000Y28969000D01*
X-75654000Y28989000D01*
X-75674000Y28989000D01*
X-75674000Y29053000D01*
X-68954684Y29053000D01*
X-68856893Y28561373D01*
X-68578409Y28144591D01*
X-68161627Y27866107D01*
X-67794094Y27793000D01*
X-67545906Y27793000D01*
X-67178373Y27866107D01*
X-66761591Y28144591D01*
X-66483107Y28561373D01*
X-66385316Y29053000D01*
X-66483107Y29544627D01*
X-66761591Y29961409D01*
X-67178373Y30239893D01*
X-67545906Y30313000D01*
X-67794094Y30313000D01*
X-68161627Y30239893D01*
X-68578409Y29961409D01*
X-68856893Y29544627D01*
X-68954684Y29053000D01*
X-75674000Y29053000D01*
X-75674000Y29197000D01*
X-75654000Y29197000D01*
X-75654000Y29217000D01*
X-75446000Y29217000D01*
X-75446000Y29197000D01*
X-74260688Y29197000D01*
X-74129888Y29423220D01*
X-74312322Y29863675D01*
X-74701459Y30278650D01*
X-75067588Y30444274D01*
X-75058373Y30446107D01*
X-74641591Y30724591D01*
X-74363107Y31141373D01*
X-74265316Y31633000D01*
X-74363107Y32124627D01*
X-74641591Y32541409D01*
X-74840000Y32673981D01*
X-74840000Y33155910D01*
X-74205909Y33790000D01*
X-72969011Y33790000D01*
X-72969011Y33650000D01*
X-72933310Y33470517D01*
X-72831641Y33318359D01*
X-72679483Y33216690D01*
X-72500000Y33180989D01*
X-70500000Y33180989D01*
X-70320517Y33216690D01*
X-70168359Y33318359D01*
X-70066690Y33470517D01*
X-70030989Y33650000D01*
X-70030989Y35350000D01*
X-70066690Y35529483D01*
X-70168359Y35681641D01*
X-70320517Y35783310D01*
X-70500000Y35819011D01*
X-72500000Y35819011D01*
X-72679483Y35783310D01*
X-72831641Y35681641D01*
X-72933310Y35529483D01*
X-72969011Y35350000D01*
X-72969011Y35210000D01*
X-74430080Y35210000D01*
X-74500001Y35223908D01*
X-74569922Y35210000D01*
X-74569926Y35210000D01*
X-74777028Y35168805D01*
X-75011881Y35011881D01*
X-75051492Y34952599D01*
X-76002598Y34001492D01*
X-76061880Y33961881D01*
X-76101490Y33902600D01*
X-76218804Y33727028D01*
X-76273909Y33450000D01*
X-76259999Y33380071D01*
X-76259999Y32673982D01*
X-76458409Y32541409D01*
X-76736893Y32124627D01*
X-76834684Y31633000D01*
X-76736893Y31141373D01*
X-76458409Y30724591D01*
X-76041627Y30446107D01*
X-76032412Y30444274D01*
X-76398541Y30278650D01*
X-76743375Y29910920D01*
X-76797399Y29947018D01*
X-80960001Y34109619D01*
X-80960001Y34633682D01*
X-80742239Y34633682D01*
X-80677461Y34383510D01*
X-80153124Y34186471D01*
X-79593296Y34205085D01*
X-79162539Y34383510D01*
X-79097761Y34633682D01*
X-79920000Y35455922D01*
X-80742239Y34633682D01*
X-80960001Y34633682D01*
X-80960001Y34783075D01*
X-80956977Y34798280D01*
X-80889318Y34780761D01*
X-80067078Y35603000D01*
X-79772922Y35603000D01*
X-78950682Y34780761D01*
X-78700510Y34845539D01*
X-78565148Y35205749D01*
X-78445788Y34917590D01*
X-78105410Y34577212D01*
X-77660684Y34393000D01*
X-77179316Y34393000D01*
X-76734590Y34577212D01*
X-76394212Y34917590D01*
X-76210000Y35362316D01*
X-76210000Y35843684D01*
X-76394212Y36288410D01*
X-76734590Y36628788D01*
X-77179316Y36813000D01*
X-77660684Y36813000D01*
X-78105410Y36628788D01*
X-78445788Y36288410D01*
X-78558227Y36016959D01*
X-78700510Y36360461D01*
X-78950682Y36425239D01*
X-79772922Y35603000D01*
X-80067078Y35603000D01*
X-80889318Y36425239D01*
X-81139490Y36360461D01*
X-81274852Y36000251D01*
X-81394212Y36288410D01*
X-81678120Y36572318D01*
X-80742239Y36572318D01*
X-79920000Y35750078D01*
X-79097761Y36572318D01*
X-79162539Y36822490D01*
X-79686876Y37019529D01*
X-80246704Y37000915D01*
X-80677461Y36822490D01*
X-80742239Y36572318D01*
X-81678120Y36572318D01*
X-81734590Y36628788D01*
X-82179316Y36813000D01*
X-82660684Y36813000D01*
X-83105410Y36628788D01*
X-83445788Y36288410D01*
X-83540000Y36060963D01*
X-83540000Y36205910D01*
X-80645898Y39100011D01*
X-65254081Y39100011D01*
X-67952598Y36401492D01*
X-68011880Y36361881D01*
X-68104696Y36222972D01*
X-68168804Y36127028D01*
X-68223909Y35850000D01*
X-68217745Y35819011D01*
X-68500000Y35819011D01*
X-68679483Y35783310D01*
X-68831641Y35681641D01*
X-68933310Y35529483D01*
X-68969011Y35350000D01*
X-68969011Y33650000D01*
X-68933310Y33470517D01*
X-68831641Y33318359D01*
X-68679483Y33216690D01*
X-68500000Y33180989D01*
X-66500000Y33180989D01*
X-66320517Y33216690D01*
X-66168359Y33318359D01*
X-66066690Y33470517D01*
X-66030989Y33650000D01*
X-66030989Y35350000D01*
X-66066690Y35529483D01*
X-66168359Y35681641D01*
X-66320517Y35783310D01*
X-66500000Y35819011D01*
X-66526899Y35819011D01*
X-64055908Y38290000D01*
X-28294090Y38290000D01*
X-25710000Y35705908D01*
X-25709999Y34794093D01*
X-28294090Y32210000D01*
X-33917576Y32210000D01*
X-33987500Y32223909D01*
X-34057425Y32210000D01*
X-34057426Y32210000D01*
X-34264528Y32168805D01*
X-34499381Y32011881D01*
X-34538990Y31952602D01*
X-37822579Y28669011D01*
X-38625000Y28669011D01*
X-38900154Y28614280D01*
X-39133418Y28458418D01*
X-39140713Y28447500D01*
X-56417956Y28447500D01*
X-56512501Y28466306D01*
X-56607045Y28447500D01*
X-56607049Y28447500D01*
X-56887073Y28391800D01*
X-57204621Y28179621D01*
X-57258179Y28099466D01*
X-58599466Y26758179D01*
X-58679620Y26704621D01*
X-58733178Y26624466D01*
X-58891799Y26387073D01*
X-58966306Y26012500D01*
X-58947499Y25917951D01*
X-58947499Y25308568D01*
X-59000000Y25319011D01*
X-61000000Y25319011D01*
X-61179483Y25283310D01*
X-61331641Y25181641D01*
X-61433310Y25029483D01*
X-61469011Y24850000D01*
X-61469011Y23150000D01*
X-61433310Y22970517D01*
X-61331641Y22818359D01*
X-61179483Y22716690D01*
X-61000000Y22680989D01*
X-60710000Y22680989D01*
X-60709999Y16940011D01*
X-60849000Y16940011D01*
X-61028483Y16904310D01*
X-61180641Y16802641D01*
X-61282310Y16650483D01*
X-61318011Y16471000D01*
X-61318011Y14771000D01*
X-61282310Y14591517D01*
X-61180641Y14439359D01*
X-61028483Y14337690D01*
X-60849000Y14301989D01*
X-60809000Y14301989D01*
X-60808999Y13065646D01*
X-62460963Y11413681D01*
X-62541121Y11360121D01*
X-62628910Y11228734D01*
X-66647644Y7210000D01*
X-74696773Y7210000D01*
X-74659670Y7265529D01*
X-74257525Y7667673D01*
X-74194071Y7710071D01*
X-74151673Y7773524D01*
X-74151671Y7773526D01*
X-74026097Y7961462D01*
X-74026096Y7961463D01*
X-73982000Y8183148D01*
X-73982000Y8183152D01*
X-73967112Y8257999D01*
X-73982000Y8332846D01*
X-73982000Y8476020D01*
X-73917000Y8463091D01*
X-73847076Y8477000D01*
X-73847074Y8477000D01*
X-73796795Y8487001D01*
X-67622923Y8487001D01*
X-67552999Y8473092D01*
X-67483075Y8487001D01*
X-67483073Y8487001D01*
X-67275971Y8528196D01*
X-67041118Y8685120D01*
X-67001505Y8744405D01*
X-65797398Y9948510D01*
X-65738119Y9988119D01*
X-65683999Y10069115D01*
X-65581195Y10222971D01*
X-65526091Y10500000D01*
X-65540000Y10569926D01*
X-65540000Y10841315D01*
X-65527310Y10777517D01*
X-65425641Y10625359D01*
X-65273483Y10523690D01*
X-65094000Y10487989D01*
X-64194000Y10487989D01*
X-64014517Y10523690D01*
X-63862359Y10625359D01*
X-63760690Y10777517D01*
X-63724989Y10957000D01*
X-63724989Y11256385D01*
X-63684000Y11462451D01*
X-63684000Y14301989D01*
X-62849000Y14301989D01*
X-62669517Y14337690D01*
X-62517359Y14439359D01*
X-62415690Y14591517D01*
X-62379989Y14771000D01*
X-62379989Y16471000D01*
X-62415690Y16650483D01*
X-62517359Y16802641D01*
X-62669517Y16904310D01*
X-62849000Y16940011D01*
X-64849000Y16940011D01*
X-65028483Y16904310D01*
X-65180641Y16802641D01*
X-65282310Y16650483D01*
X-65318011Y16471000D01*
X-65318011Y15530221D01*
X-65336120Y15518121D01*
X-65389678Y15437966D01*
X-65548299Y15200573D01*
X-65622806Y14826000D01*
X-65603999Y14731451D01*
X-65603999Y13944157D01*
X-65738120Y14144881D01*
X-65797399Y14184490D01*
X-66725618Y15112708D01*
X-66690517Y15119690D01*
X-66538359Y15221359D01*
X-66436690Y15373517D01*
X-66400989Y15553000D01*
X-66400989Y17153000D01*
X-66436690Y17332483D01*
X-66538359Y17484641D01*
X-66690517Y17586310D01*
X-66870000Y17622011D01*
X-68470000Y17622011D01*
X-68649483Y17586310D01*
X-68801641Y17484641D01*
X-68903310Y17332483D01*
X-68939011Y17153000D01*
X-68939011Y15553000D01*
X-68903310Y15373517D01*
X-68801641Y15221359D01*
X-68649483Y15119690D01*
X-68470000Y15083989D01*
X-68387745Y15083989D01*
X-68393909Y15053000D01*
X-68339108Y14777500D01*
X-68338804Y14775972D01*
X-68181880Y14541119D01*
X-68122598Y14501508D01*
X-66960000Y13338909D01*
X-66959999Y10794093D01*
X-67847089Y9907001D01*
X-73837073Y9907001D01*
X-73906999Y9920910D01*
X-73976924Y9907001D01*
X-73976925Y9907001D01*
X-73989100Y9904579D01*
X-74085359Y10048641D01*
X-74173649Y10107634D01*
X-74073195Y10257973D01*
X-74032000Y10465075D01*
X-74032000Y10465080D01*
X-74018092Y10535000D01*
X-74032000Y10604921D01*
X-74032000Y10605216D01*
X-73984035Y10677000D01*
X-73969057Y10677000D01*
X-73959280Y10627846D01*
X-73803418Y10394582D01*
X-73570154Y10238720D01*
X-73295000Y10183989D01*
X-72045000Y10183989D01*
X-71769846Y10238720D01*
X-71536582Y10394582D01*
X-71380720Y10627846D01*
X-71375219Y10655500D01*
X-71073011Y10655500D01*
X-71073011Y10569000D01*
X-71037310Y10389517D01*
X-70935641Y10237359D01*
X-70783483Y10135690D01*
X-70604000Y10099989D01*
X-69604000Y10099989D01*
X-69424517Y10135690D01*
X-69272359Y10237359D01*
X-69170690Y10389517D01*
X-69166815Y10409000D01*
X-68496998Y10409000D01*
X-68432000Y10396071D01*
X-68367002Y10409000D01*
X-68366997Y10409000D01*
X-68174481Y10447294D01*
X-68113577Y10487989D01*
X-67494000Y10487989D01*
X-67314517Y10523690D01*
X-67162359Y10625359D01*
X-67060690Y10777517D01*
X-67024989Y10957000D01*
X-67024989Y11690645D01*
X-66997071Y11831000D01*
X-67024989Y11971355D01*
X-67024989Y12157000D01*
X-67060690Y12336483D01*
X-67162359Y12488641D01*
X-67314517Y12590310D01*
X-67494000Y12626011D01*
X-68394000Y12626011D01*
X-68573483Y12590310D01*
X-68725641Y12488641D01*
X-68827310Y12336483D01*
X-68863011Y12157000D01*
X-68863011Y11971352D01*
X-68890929Y11831000D01*
X-68870640Y11729000D01*
X-69166815Y11729000D01*
X-69170690Y11748483D01*
X-69272359Y11900641D01*
X-69382123Y11973983D01*
X-68965279Y12390827D01*
X-68885141Y12510762D01*
X-68847499Y12700000D01*
X-68885141Y12889237D01*
X-68946000Y12980319D01*
X-68946000Y13300500D01*
X-69110500Y13465000D01*
X-70000000Y13465000D01*
X-70000000Y13445000D01*
X-70208000Y13445000D01*
X-70208000Y13465000D01*
X-70228000Y13465000D01*
X-70228000Y13673000D01*
X-70208000Y13673000D01*
X-70208000Y14562500D01*
X-70000000Y14562500D01*
X-70000000Y13673000D01*
X-69110500Y13673000D01*
X-68946000Y13837500D01*
X-68946000Y14199884D01*
X-69046174Y14441727D01*
X-69231273Y14626825D01*
X-69473115Y14727000D01*
X-69835500Y14727000D01*
X-70000000Y14562500D01*
X-70208000Y14562500D01*
X-70372500Y14727000D01*
X-70734885Y14727000D01*
X-70976727Y14626825D01*
X-71159051Y14444502D01*
X-71301498Y14444502D01*
X-71137000Y14609000D01*
X-71137000Y15183884D01*
X-71237174Y15425727D01*
X-71422273Y15610825D01*
X-71664115Y15711000D01*
X-72401500Y15711000D01*
X-72566000Y15546500D01*
X-72566000Y14444500D01*
X-72546000Y14444500D01*
X-72546000Y14236500D01*
X-72566000Y14236500D01*
X-72566000Y13134500D01*
X-72401500Y12970000D01*
X-71664115Y12970000D01*
X-71422273Y13070175D01*
X-71262000Y13230447D01*
X-71262000Y12980319D01*
X-71322858Y12889237D01*
X-71360500Y12700000D01*
X-71322858Y12510763D01*
X-71242721Y12390828D01*
X-70927393Y12075500D01*
X-71375219Y12075500D01*
X-71380720Y12103154D01*
X-71536582Y12336418D01*
X-71769846Y12492280D01*
X-72045000Y12547011D01*
X-73295000Y12547011D01*
X-73570154Y12492280D01*
X-73803418Y12336418D01*
X-73959280Y12103154D01*
X-73960504Y12097000D01*
X-73984035Y12097000D01*
X-74085359Y12248641D01*
X-74237517Y12350310D01*
X-74417000Y12386011D01*
X-74905459Y12386011D01*
X-74994273Y12474825D01*
X-75236115Y12575000D01*
X-75423500Y12575000D01*
X-75588000Y12410500D01*
X-75588000Y11491000D01*
X-75568000Y11491000D01*
X-75568000Y11283000D01*
X-75588000Y11283000D01*
X-75588000Y11263000D01*
X-75796000Y11263000D01*
X-75796000Y11283000D01*
X-75816000Y11283000D01*
X-75816000Y11491000D01*
X-75796000Y11491000D01*
X-75796000Y12410500D01*
X-75960500Y12575000D01*
X-76147885Y12575000D01*
X-76389727Y12474825D01*
X-76478541Y12386011D01*
X-76967000Y12386011D01*
X-77146483Y12350310D01*
X-77298641Y12248641D01*
X-77400310Y12096483D01*
X-77436011Y11917000D01*
X-77436011Y10857000D01*
X-77400310Y10677517D01*
X-77361386Y10619264D01*
X-77352000Y10572076D01*
X-77352000Y10572074D01*
X-77310804Y10364972D01*
X-77160924Y10140661D01*
X-77298641Y10048641D01*
X-77400310Y9896483D01*
X-77436011Y9717000D01*
X-77436011Y8760813D01*
X-77853000Y9177801D01*
X-77853000Y9476444D01*
X-77849654Y9502520D01*
X-77853000Y9551125D01*
X-77853000Y9599852D01*
X-77858130Y9625641D01*
X-77871514Y9820065D01*
X-77765700Y9978427D01*
X-77710000Y10258451D01*
X-77710000Y12457356D01*
X-77274355Y12893000D01*
X-76381197Y12893000D01*
X-76041627Y12666107D01*
X-75674094Y12593000D01*
X-75425906Y12593000D01*
X-75058373Y12666107D01*
X-74641591Y12944591D01*
X-74363107Y13361373D01*
X-74265316Y13853000D01*
X-74308877Y14072000D01*
X-74203000Y14072000D01*
X-74203000Y13497116D01*
X-74102826Y13255273D01*
X-73917727Y13070175D01*
X-73675885Y12970000D01*
X-72938500Y12970000D01*
X-72774000Y13134500D01*
X-72774000Y14236500D01*
X-74038500Y14236500D01*
X-74203000Y14072000D01*
X-74308877Y14072000D01*
X-74363107Y14344627D01*
X-74641591Y14761409D01*
X-75058373Y15039893D01*
X-75067588Y15041726D01*
X-74753334Y15183884D01*
X-74203000Y15183884D01*
X-74203000Y14609000D01*
X-74038500Y14444500D01*
X-72774000Y14444500D01*
X-72774000Y15546500D01*
X-72938500Y15711000D01*
X-73675885Y15711000D01*
X-73917727Y15610825D01*
X-74102826Y15425727D01*
X-74203000Y15183884D01*
X-74753334Y15183884D01*
X-74701459Y15207350D01*
X-74312322Y15622325D01*
X-74129888Y16062780D01*
X-74260688Y16289000D01*
X-75446000Y16289000D01*
X-75446000Y16269000D01*
X-75654000Y16269000D01*
X-75654000Y16289000D01*
X-76839312Y16289000D01*
X-76970112Y16062780D01*
X-76787678Y15622325D01*
X-76398541Y15207350D01*
X-76032412Y15041726D01*
X-76041627Y15039893D01*
X-76381197Y14813000D01*
X-76860000Y14813000D01*
X-76860000Y15408451D01*
X-76841193Y15503000D01*
X-76915700Y15877574D01*
X-77035887Y16057445D01*
X-77127879Y16195121D01*
X-77208033Y16248678D01*
X-79332023Y18372667D01*
X-79325989Y18403000D01*
X-79325989Y19328000D01*
X-79380720Y19603154D01*
X-79536582Y19836418D01*
X-79769846Y19992280D01*
X-80045000Y20047011D01*
X-81295000Y20047011D01*
X-81570154Y19992280D01*
X-81718737Y19893000D01*
X-82338803Y19893000D01*
X-82678373Y20119893D01*
X-82687588Y20121726D01*
X-82321459Y20287350D01*
X-81989211Y20641659D01*
X-81917727Y20570175D01*
X-81675885Y20470000D01*
X-80938500Y20470000D01*
X-80774000Y20634500D01*
X-80774000Y21736500D01*
X-80566000Y21736500D01*
X-80566000Y20634500D01*
X-80401500Y20470000D01*
X-79664115Y20470000D01*
X-79422273Y20570175D01*
X-79237174Y20755273D01*
X-79137000Y20997116D01*
X-79137000Y21572000D01*
X-79301500Y21736500D01*
X-80566000Y21736500D01*
X-80774000Y21736500D01*
X-80794000Y21736500D01*
X-80794000Y21944500D01*
X-80774000Y21944500D01*
X-80774000Y23046500D01*
X-80566000Y23046500D01*
X-80566000Y21944500D01*
X-79301500Y21944500D01*
X-79137000Y22109000D01*
X-79137000Y22683884D01*
X-79237174Y22925727D01*
X-79422273Y23110825D01*
X-79664115Y23211000D01*
X-80401500Y23211000D01*
X-80566000Y23046500D01*
X-80774000Y23046500D01*
X-80938500Y23211000D01*
X-81675885Y23211000D01*
X-81917727Y23110825D01*
X-82102826Y22925727D01*
X-82203000Y22683884D01*
X-82203000Y22532326D01*
X-82321459Y22658650D01*
X-82507923Y22743000D01*
X-82321459Y22827350D01*
X-81932322Y23242325D01*
X-81749888Y23682780D01*
X-81880688Y23909000D01*
X-83066000Y23909000D01*
X-83066000Y21577000D01*
X-83046000Y21577000D01*
X-83046000Y21369000D01*
X-83066000Y21369000D01*
X-83066000Y21349000D01*
X-83274000Y21349000D01*
X-83274000Y21369000D01*
X-83294000Y21369000D01*
X-83294000Y21577000D01*
X-83274000Y21577000D01*
X-83274000Y23909000D01*
X-84459312Y23909000D01*
X-84590112Y23682780D01*
X-84407678Y23242325D01*
X-84018541Y22827350D01*
X-83832077Y22743000D01*
X-84018541Y22658650D01*
X-84407678Y22243675D01*
X-84590112Y21803220D01*
X-84459313Y21577002D01*
X-84596502Y21577002D01*
X-84758500Y21739000D01*
X-85748000Y21739000D01*
X-85748000Y20899500D01*
X-85654770Y20806270D01*
X-85852000Y20569594D01*
X-86049230Y20806270D01*
X-85956000Y20899500D01*
X-85956000Y21739000D01*
X-86945500Y21739000D01*
X-87110000Y21574500D01*
X-87110000Y21262116D01*
X-87009826Y21020273D01*
X-86866086Y20876533D01*
X-86924849Y20803822D01*
X-86979470Y20618770D01*
X-86959115Y20426902D01*
X-86890165Y20300204D01*
X-86226854Y19504231D01*
X-86192733Y19462011D01*
X-86452000Y19462011D01*
X-86631483Y19426310D01*
X-86655893Y19410000D01*
X-88180989Y19410000D01*
X-88180989Y19750000D01*
X-88216690Y19929483D01*
X-88318359Y20081641D01*
X-88470517Y20183310D01*
X-88650000Y20219011D01*
X-90350000Y20219011D01*
X-90529483Y20183310D01*
X-90681641Y20081641D01*
X-90783310Y19929483D01*
X-90819011Y19750000D01*
X-90819011Y17750000D01*
X-90783310Y17570517D01*
X-90681641Y17418359D01*
X-90529483Y17316690D01*
X-90350000Y17280989D01*
X-88650000Y17280989D01*
X-88470517Y17316690D01*
X-88318359Y17418359D01*
X-88216690Y17570517D01*
X-88180989Y17750000D01*
X-88180989Y18090000D01*
X-86920414Y18090000D01*
X-86885310Y17913517D01*
X-86783641Y17761359D01*
X-86631483Y17659690D01*
X-86452000Y17623989D01*
X-86152615Y17623989D01*
X-85946549Y17583000D01*
X-83646007Y17583000D01*
X-83661627Y17579893D01*
X-84078409Y17301409D01*
X-84356893Y16884627D01*
X-84454684Y16393000D01*
X-84415797Y16197500D01*
X-88205219Y16197500D01*
X-88210720Y16225154D01*
X-88366582Y16458418D01*
X-88599846Y16614280D01*
X-88875000Y16669011D01*
X-90125000Y16669011D01*
X-90400154Y16614280D01*
X-90633418Y16458418D01*
X-90789280Y16225154D01*
X-90844011Y15950000D01*
X-106470095Y15950000D01*
X-109475000Y18729536D01*
X-109475000Y28409760D01*
X-94060000Y28409760D01*
X-94060000Y27590240D01*
X-93746384Y26833104D01*
X-93166896Y26253616D01*
X-92409760Y25940000D01*
X-91590240Y25940000D01*
X-90833104Y26253616D01*
X-90253616Y26833104D01*
X-89940000Y27590240D01*
X-89940000Y28409760D01*
X-90253616Y29166896D01*
X-90833104Y29746384D01*
X-91590240Y30060000D01*
X-92409760Y30060000D01*
X-93166896Y29746384D01*
X-93746384Y29166896D01*
X-94060000Y28409760D01*
X-109475000Y28409760D01*
X-109475000Y35843684D01*
X-108630000Y35843684D01*
X-108630000Y35362316D01*
X-108445788Y34917590D01*
X-108105410Y34577212D01*
X-107660684Y34393000D01*
X-107567644Y34393000D01*
X-105665679Y32491034D01*
X-105612121Y32410879D01*
X-105294573Y32198700D01*
X-105014549Y32143000D01*
X-105014545Y32143000D01*
X-104920000Y32124194D01*
X-104825456Y32143000D01*
X-90269644Y32143000D01*
X-87255000Y29128355D01*
X-87254999Y26572554D01*
X-87272357Y26485287D01*
X-89538633Y24219011D01*
X-90350000Y24219011D01*
X-90529483Y24183310D01*
X-90681641Y24081641D01*
X-90783310Y23929483D01*
X-90819011Y23750000D01*
X-90819011Y21750000D01*
X-90783310Y21570517D01*
X-90681641Y21418359D01*
X-90529483Y21316690D01*
X-90350000Y21280989D01*
X-88650000Y21280989D01*
X-88470517Y21316690D01*
X-88318359Y21418359D01*
X-88216690Y21570517D01*
X-88180989Y21750000D01*
X-88180989Y22423884D01*
X-87110000Y22423884D01*
X-87110000Y22111500D01*
X-86945500Y21947000D01*
X-85956000Y21947000D01*
X-85956000Y22786500D01*
X-85748000Y22786500D01*
X-85748000Y21947000D01*
X-84758500Y21947000D01*
X-84594000Y22111500D01*
X-84594000Y22423884D01*
X-84694174Y22665727D01*
X-84879273Y22850825D01*
X-85121115Y22951000D01*
X-85583500Y22951000D01*
X-85748000Y22786500D01*
X-85956000Y22786500D01*
X-86120500Y22951000D01*
X-86582885Y22951000D01*
X-86824727Y22850825D01*
X-87009826Y22665727D01*
X-87110000Y22423884D01*
X-88180989Y22423884D01*
X-88180989Y22861367D01*
X-85549322Y25493033D01*
X-85532640Y25518000D01*
X-83888952Y25518000D01*
X-83661627Y25366107D01*
X-83652412Y25364274D01*
X-84018541Y25198650D01*
X-84407678Y24783675D01*
X-84590112Y24343220D01*
X-84459312Y24117000D01*
X-83274000Y24117000D01*
X-83274000Y24137000D01*
X-83066000Y24137000D01*
X-83066000Y24117000D01*
X-81880688Y24117000D01*
X-81749888Y24343220D01*
X-81932322Y24783675D01*
X-82321459Y25198650D01*
X-82687588Y25364274D01*
X-82678373Y25366107D01*
X-82261591Y25644591D01*
X-81983107Y26061373D01*
X-81885316Y26553000D01*
X-81983107Y27044627D01*
X-82261591Y27461409D01*
X-82678373Y27739893D01*
X-83045906Y27813000D01*
X-83294094Y27813000D01*
X-83661627Y27739893D01*
X-84078409Y27461409D01*
X-84094050Y27438000D01*
X-85335000Y27438000D01*
X-85335000Y29431456D01*
X-85316194Y29526000D01*
X-85335000Y29620545D01*
X-85335000Y29620549D01*
X-85390700Y29900573D01*
X-85602879Y30218121D01*
X-85683033Y30271678D01*
X-86714135Y31302780D01*
X-84590112Y31302780D01*
X-84407678Y30862325D01*
X-84018541Y30447350D01*
X-83652412Y30281726D01*
X-83661627Y30279893D01*
X-84078409Y30001409D01*
X-84356893Y29584627D01*
X-84454684Y29093000D01*
X-84356893Y28601373D01*
X-84078409Y28184591D01*
X-83661627Y27906107D01*
X-83294094Y27833000D01*
X-83045906Y27833000D01*
X-82678373Y27906107D01*
X-82261591Y28184591D01*
X-81983107Y28601373D01*
X-81885316Y29093000D01*
X-81983107Y29584627D01*
X-82261591Y30001409D01*
X-82678373Y30279893D01*
X-82687588Y30281726D01*
X-82321459Y30447350D01*
X-81932322Y30862325D01*
X-81749888Y31302780D01*
X-81880688Y31529000D01*
X-83066000Y31529000D01*
X-83066000Y31509000D01*
X-83274000Y31509000D01*
X-83274000Y31529000D01*
X-84459312Y31529000D01*
X-84590112Y31302780D01*
X-86714135Y31302780D01*
X-87374575Y31963220D01*
X-84590112Y31963220D01*
X-84459312Y31737000D01*
X-83274000Y31737000D01*
X-83274000Y32922794D01*
X-83500221Y33053120D01*
X-84018541Y32818650D01*
X-84407678Y32403675D01*
X-84590112Y31963220D01*
X-87374575Y31963220D01*
X-89126319Y33714963D01*
X-89179879Y33795121D01*
X-89497427Y34007300D01*
X-89777451Y34063000D01*
X-89777456Y34063000D01*
X-89872000Y34081806D01*
X-89966544Y34063000D01*
X-104522355Y34063000D01*
X-104662151Y34202796D01*
X-104593296Y34205085D01*
X-104162539Y34383510D01*
X-104097761Y34633682D01*
X-104920000Y35455922D01*
X-104934142Y35441779D01*
X-105081221Y35588858D01*
X-105067078Y35603000D01*
X-104772922Y35603000D01*
X-103950682Y34780761D01*
X-103700510Y34845539D01*
X-103565148Y35205749D01*
X-103445788Y34917590D01*
X-103105410Y34577212D01*
X-102660684Y34393000D01*
X-102179316Y34393000D01*
X-101734590Y34577212D01*
X-101394212Y34917590D01*
X-101210000Y35362316D01*
X-101210000Y35843684D01*
X-101394212Y36288410D01*
X-101734590Y36628788D01*
X-102179316Y36813000D01*
X-102660684Y36813000D01*
X-103105410Y36628788D01*
X-103445788Y36288410D01*
X-103558227Y36016959D01*
X-103700510Y36360461D01*
X-103950682Y36425239D01*
X-104772922Y35603000D01*
X-105067078Y35603000D01*
X-105889318Y36425239D01*
X-106139490Y36360461D01*
X-106274852Y36000251D01*
X-106394212Y36288410D01*
X-106678120Y36572318D01*
X-105742239Y36572318D01*
X-104920000Y35750078D01*
X-104097761Y36572318D01*
X-104162539Y36822490D01*
X-104686876Y37019529D01*
X-105246704Y37000915D01*
X-105677461Y36822490D01*
X-105742239Y36572318D01*
X-106678120Y36572318D01*
X-106734590Y36628788D01*
X-107179316Y36813000D01*
X-107660684Y36813000D01*
X-108105410Y36628788D01*
X-108445788Y36288410D01*
X-108630000Y35843684D01*
X-109475000Y35843684D01*
X-109475000Y40633682D01*
X-108242239Y40633682D01*
X-108177461Y40383510D01*
X-107653124Y40186471D01*
X-107093296Y40205085D01*
X-106662539Y40383510D01*
X-106597761Y40633682D01*
X-105742239Y40633682D01*
X-105677461Y40383510D01*
X-105153124Y40186471D01*
X-104593296Y40205085D01*
X-104162539Y40383510D01*
X-104097761Y40633682D01*
X-103242239Y40633682D01*
X-103177461Y40383510D01*
X-102653124Y40186471D01*
X-102093296Y40205085D01*
X-101662539Y40383510D01*
X-101597761Y40633682D01*
X-83242239Y40633682D01*
X-83177461Y40383510D01*
X-82653124Y40186471D01*
X-82093296Y40205085D01*
X-81662539Y40383510D01*
X-81597761Y40633682D01*
X-82420000Y41455922D01*
X-83242239Y40633682D01*
X-101597761Y40633682D01*
X-102420000Y41455922D01*
X-103242239Y40633682D01*
X-104097761Y40633682D01*
X-104920000Y41455922D01*
X-105742239Y40633682D01*
X-106597761Y40633682D01*
X-107420000Y41455922D01*
X-108242239Y40633682D01*
X-109475000Y40633682D01*
X-109475000Y41836124D01*
X-108836529Y41836124D01*
X-108817915Y41276296D01*
X-108639490Y40845539D01*
X-108389318Y40780761D01*
X-107567078Y41603000D01*
X-107272922Y41603000D01*
X-106450682Y40780761D01*
X-106200510Y40845539D01*
X-106171484Y40922780D01*
X-106139490Y40845539D01*
X-105889318Y40780761D01*
X-105067078Y41603000D01*
X-104772922Y41603000D01*
X-103950682Y40780761D01*
X-103700510Y40845539D01*
X-103671484Y40922780D01*
X-103639490Y40845539D01*
X-103389318Y40780761D01*
X-102567078Y41603000D01*
X-102272922Y41603000D01*
X-101450682Y40780761D01*
X-101200510Y40845539D01*
X-101003471Y41369876D01*
X-101018973Y41836124D01*
X-83836529Y41836124D01*
X-83817915Y41276296D01*
X-83639490Y40845539D01*
X-83389318Y40780761D01*
X-82567078Y41603000D01*
X-82272922Y41603000D01*
X-81450682Y40780761D01*
X-81200510Y40845539D01*
X-81171484Y40922780D01*
X-81139490Y40845539D01*
X-80889318Y40780761D01*
X-80067078Y41603000D01*
X-79772922Y41603000D01*
X-78950682Y40780761D01*
X-78700510Y40845539D01*
X-78671484Y40922780D01*
X-78639490Y40845539D01*
X-78389318Y40780761D01*
X-77567078Y41603000D01*
X-77272922Y41603000D01*
X-76450682Y40780761D01*
X-76200510Y40845539D01*
X-76003471Y41369876D01*
X-76018973Y41836124D01*
X-58836529Y41836124D01*
X-58817915Y41276296D01*
X-58639490Y40845539D01*
X-58389318Y40780761D01*
X-57567078Y41603000D01*
X-57272922Y41603000D01*
X-56450682Y40780761D01*
X-56200510Y40845539D01*
X-56171484Y40922780D01*
X-56139490Y40845539D01*
X-55889318Y40780761D01*
X-55067078Y41603000D01*
X-54772922Y41603000D01*
X-53950682Y40780761D01*
X-53700510Y40845539D01*
X-53671484Y40922780D01*
X-53639490Y40845539D01*
X-53389318Y40780761D01*
X-52567078Y41603000D01*
X-52272922Y41603000D01*
X-51450682Y40780761D01*
X-51200510Y40845539D01*
X-51003471Y41369876D01*
X-51018973Y41836124D01*
X-33836529Y41836124D01*
X-33817915Y41276296D01*
X-33639490Y40845539D01*
X-33389318Y40780761D01*
X-32567078Y41603000D01*
X-32272922Y41603000D01*
X-31450682Y40780761D01*
X-31200510Y40845539D01*
X-31171484Y40922780D01*
X-31139490Y40845539D01*
X-30889318Y40780761D01*
X-30067078Y41603000D01*
X-29772922Y41603000D01*
X-28950682Y40780761D01*
X-28700510Y40845539D01*
X-28671484Y40922780D01*
X-28639490Y40845539D01*
X-28389318Y40780761D01*
X-27567078Y41603000D01*
X-27272922Y41603000D01*
X-26450682Y40780761D01*
X-26200510Y40845539D01*
X-26003471Y41369876D01*
X-26018973Y41836124D01*
X-8836529Y41836124D01*
X-8817915Y41276296D01*
X-8639490Y40845539D01*
X-8389318Y40780761D01*
X-7567078Y41603000D01*
X-7272922Y41603000D01*
X-6450682Y40780761D01*
X-6200510Y40845539D01*
X-6171484Y40922780D01*
X-6139490Y40845539D01*
X-5889318Y40780761D01*
X-5067078Y41603000D01*
X-4772922Y41603000D01*
X-3950682Y40780761D01*
X-3700510Y40845539D01*
X-3671484Y40922780D01*
X-3639490Y40845539D01*
X-3389318Y40780761D01*
X-2567078Y41603000D01*
X-2272922Y41603000D01*
X-1450682Y40780761D01*
X-1200510Y40845539D01*
X-1003471Y41369876D01*
X-1022085Y41929704D01*
X-1200510Y42360461D01*
X-1450682Y42425239D01*
X-2272922Y41603000D01*
X-2567078Y41603000D01*
X-3389318Y42425239D01*
X-3639490Y42360461D01*
X-3668516Y42283220D01*
X-3700510Y42360461D01*
X-3950682Y42425239D01*
X-4772922Y41603000D01*
X-5067078Y41603000D01*
X-5889318Y42425239D01*
X-6139490Y42360461D01*
X-6168516Y42283220D01*
X-6200510Y42360461D01*
X-6450682Y42425239D01*
X-7272922Y41603000D01*
X-7567078Y41603000D01*
X-8389318Y42425239D01*
X-8639490Y42360461D01*
X-8836529Y41836124D01*
X-26018973Y41836124D01*
X-26022085Y41929704D01*
X-26200510Y42360461D01*
X-26450682Y42425239D01*
X-27272922Y41603000D01*
X-27567078Y41603000D01*
X-28389318Y42425239D01*
X-28639490Y42360461D01*
X-28668516Y42283220D01*
X-28700510Y42360461D01*
X-28950682Y42425239D01*
X-29772922Y41603000D01*
X-30067078Y41603000D01*
X-30889318Y42425239D01*
X-31139490Y42360461D01*
X-31168516Y42283220D01*
X-31200510Y42360461D01*
X-31450682Y42425239D01*
X-32272922Y41603000D01*
X-32567078Y41603000D01*
X-33389318Y42425239D01*
X-33639490Y42360461D01*
X-33836529Y41836124D01*
X-51018973Y41836124D01*
X-51022085Y41929704D01*
X-51200510Y42360461D01*
X-51450682Y42425239D01*
X-52272922Y41603000D01*
X-52567078Y41603000D01*
X-53389318Y42425239D01*
X-53639490Y42360461D01*
X-53668516Y42283220D01*
X-53700510Y42360461D01*
X-53950682Y42425239D01*
X-54772922Y41603000D01*
X-55067078Y41603000D01*
X-55889318Y42425239D01*
X-56139490Y42360461D01*
X-56168516Y42283220D01*
X-56200510Y42360461D01*
X-56450682Y42425239D01*
X-57272922Y41603000D01*
X-57567078Y41603000D01*
X-58389318Y42425239D01*
X-58639490Y42360461D01*
X-58836529Y41836124D01*
X-76018973Y41836124D01*
X-76022085Y41929704D01*
X-76200510Y42360461D01*
X-76450682Y42425239D01*
X-77272922Y41603000D01*
X-77567078Y41603000D01*
X-78389318Y42425239D01*
X-78639490Y42360461D01*
X-78668516Y42283220D01*
X-78700510Y42360461D01*
X-78950682Y42425239D01*
X-79772922Y41603000D01*
X-80067078Y41603000D01*
X-80889318Y42425239D01*
X-81139490Y42360461D01*
X-81168516Y42283220D01*
X-81200510Y42360461D01*
X-81450682Y42425239D01*
X-82272922Y41603000D01*
X-82567078Y41603000D01*
X-83389318Y42425239D01*
X-83639490Y42360461D01*
X-83836529Y41836124D01*
X-101018973Y41836124D01*
X-101022085Y41929704D01*
X-101200510Y42360461D01*
X-101450682Y42425239D01*
X-102272922Y41603000D01*
X-102567078Y41603000D01*
X-103389318Y42425239D01*
X-103639490Y42360461D01*
X-103668516Y42283220D01*
X-103700510Y42360461D01*
X-103950682Y42425239D01*
X-104772922Y41603000D01*
X-105067078Y41603000D01*
X-105889318Y42425239D01*
X-106139490Y42360461D01*
X-106168516Y42283220D01*
X-106200510Y42360461D01*
X-106450682Y42425239D01*
X-107272922Y41603000D01*
X-107567078Y41603000D01*
X-108389318Y42425239D01*
X-108639490Y42360461D01*
X-108836529Y41836124D01*
X-109475000Y41836124D01*
X-109475000Y42572318D01*
X-108242239Y42572318D01*
X-107420000Y41750078D01*
X-106597761Y42572318D01*
X-105742239Y42572318D01*
X-104920000Y41750078D01*
X-104097761Y42572318D01*
X-103242239Y42572318D01*
X-102420000Y41750078D01*
X-101597761Y42572318D01*
X-83242239Y42572318D01*
X-82420000Y41750078D01*
X-81597761Y42572318D01*
X-80742239Y42572318D01*
X-79920000Y41750078D01*
X-79097761Y42572318D01*
X-78242239Y42572318D01*
X-77420000Y41750078D01*
X-76597761Y42572318D01*
X-58242239Y42572318D01*
X-57420000Y41750078D01*
X-56597761Y42572318D01*
X-55742239Y42572318D01*
X-54920000Y41750078D01*
X-54097761Y42572318D01*
X-53242239Y42572318D01*
X-52420000Y41750078D01*
X-51597761Y42572318D01*
X-33242239Y42572318D01*
X-32420000Y41750078D01*
X-31597761Y42572318D01*
X-30742239Y42572318D01*
X-29920000Y41750078D01*
X-29097761Y42572318D01*
X-28242239Y42572318D01*
X-27420000Y41750078D01*
X-26597761Y42572318D01*
X-8242239Y42572318D01*
X-7420000Y41750078D01*
X-6597761Y42572318D01*
X-5742239Y42572318D01*
X-4920000Y41750078D01*
X-4097761Y42572318D01*
X-3242239Y42572318D01*
X-2420000Y41750078D01*
X-1597761Y42572318D01*
X-1662539Y42822490D01*
X-2186876Y43019529D01*
X-2746704Y43000915D01*
X-3177461Y42822490D01*
X-3242239Y42572318D01*
X-4097761Y42572318D01*
X-4162539Y42822490D01*
X-4686876Y43019529D01*
X-5246704Y43000915D01*
X-5677461Y42822490D01*
X-5742239Y42572318D01*
X-6597761Y42572318D01*
X-6662539Y42822490D01*
X-7186876Y43019529D01*
X-7746704Y43000915D01*
X-8177461Y42822490D01*
X-8242239Y42572318D01*
X-26597761Y42572318D01*
X-26662539Y42822490D01*
X-27186876Y43019529D01*
X-27746704Y43000915D01*
X-28177461Y42822490D01*
X-28242239Y42572318D01*
X-29097761Y42572318D01*
X-29162539Y42822490D01*
X-29686876Y43019529D01*
X-30246704Y43000915D01*
X-30677461Y42822490D01*
X-30742239Y42572318D01*
X-31597761Y42572318D01*
X-31662539Y42822490D01*
X-32186876Y43019529D01*
X-32746704Y43000915D01*
X-33177461Y42822490D01*
X-33242239Y42572318D01*
X-51597761Y42572318D01*
X-51662539Y42822490D01*
X-52186876Y43019529D01*
X-52746704Y43000915D01*
X-53177461Y42822490D01*
X-53242239Y42572318D01*
X-54097761Y42572318D01*
X-54162539Y42822490D01*
X-54686876Y43019529D01*
X-55246704Y43000915D01*
X-55677461Y42822490D01*
X-55742239Y42572318D01*
X-56597761Y42572318D01*
X-56662539Y42822490D01*
X-57186876Y43019529D01*
X-57746704Y43000915D01*
X-58177461Y42822490D01*
X-58242239Y42572318D01*
X-76597761Y42572318D01*
X-76662539Y42822490D01*
X-77186876Y43019529D01*
X-77746704Y43000915D01*
X-78177461Y42822490D01*
X-78242239Y42572318D01*
X-79097761Y42572318D01*
X-79162539Y42822490D01*
X-79686876Y43019529D01*
X-80246704Y43000915D01*
X-80677461Y42822490D01*
X-80742239Y42572318D01*
X-81597761Y42572318D01*
X-81662539Y42822490D01*
X-82186876Y43019529D01*
X-82746704Y43000915D01*
X-83177461Y42822490D01*
X-83242239Y42572318D01*
X-101597761Y42572318D01*
X-101662539Y42822490D01*
X-102186876Y43019529D01*
X-102746704Y43000915D01*
X-103177461Y42822490D01*
X-103242239Y42572318D01*
X-104097761Y42572318D01*
X-104162539Y42822490D01*
X-104686876Y43019529D01*
X-105246704Y43000915D01*
X-105677461Y42822490D01*
X-105742239Y42572318D01*
X-106597761Y42572318D01*
X-106662539Y42822490D01*
X-107186876Y43019529D01*
X-107746704Y43000915D01*
X-108177461Y42822490D01*
X-108242239Y42572318D01*
X-109475000Y42572318D01*
X-109475000Y43975000D01*
X-524999Y43975000D01*
X-525000Y18729537D01*
G04 #@! TD*
M02*
