M48
;DRILL file {KiCad (5.0.0-3-g5ebb6b6)} date Wednesday, September 12, 2018 at 06:26:36 PM
;FORMAT={-:-/ absolute / inch / decimal}
FMAT,2
INCH,TZ
T1C0.0300
T2C0.0315
T3C0.0551
T4C0.1220
T5C0.1260
%
G90
G05
M72
T1
X-2.2894Y1.3189
X-2.2398Y1.2205
X-2.1902Y1.3189
X-2.1406Y1.2205
X-2.091Y1.3189
X-2.0413Y1.2205
T2
X-0.2953Y0.3543
X-0.2953Y0.1181
X-0.1969Y0.3543
X-0.1969Y0.1181
X-0.0984Y0.3543
X-0.0984Y0.1181
X-2.6673Y1.1122
X-2.6673Y1.0122
X-2.6673Y0.9122
X-2.6673Y0.8122
X-2.6673Y0.7122
X-2.6673Y0.6122
X-3.248Y0.3543
X-3.248Y0.1181
X-3.1496Y0.3543
X-3.1496Y0.1181
X-3.0512Y0.3543
X-3.0512Y0.1181
X-1.2795Y0.3543
X-1.2795Y0.1181
X-1.1811Y0.3543
X-1.1811Y0.1181
X-1.0827Y0.3543
X-1.0827Y0.1181
X-2.2638Y0.3543
X-2.2638Y0.1181
X-2.1654Y0.3543
X-2.1654Y0.1181
X-2.0669Y0.3543
X-2.0669Y0.1181
X-4.2323Y0.3543
X-4.2323Y0.1181
X-4.1339Y0.3543
X-4.1339Y0.1181
X-4.0354Y0.3543
X-4.0354Y0.1181
X-3.2776Y1.2106
X-3.2776Y1.1106
X-3.2776Y1.0106
X-3.2776Y0.9106
X-3.2776Y0.8106
X-3.2776Y0.7106
X-3.2776Y0.6106
X-3.2776Y0.5106
X-2.9776Y1.2106
X-2.9776Y1.1106
X-2.9776Y1.0106
X-2.9776Y0.9106
X-2.9776Y0.8106
X-2.9776Y0.7106
X-2.9776Y0.6106
X-2.9776Y0.5106
T3
X-2.1654Y0.9646
X-1.7654Y0.9646
T4
X-2.3622Y1.5748
X-1.9685Y1.5748
T5
X-0.689Y0.6299
X-3.6417Y0.6299
T0
M30
