M48
;DRILL file {KiCad (5.0.0-3-g5ebb6b6)} date Tuesday, September 04, 2018 at 01:51:29 PM
;FORMAT={-:-/ absolute / inch / decimal}
FMAT,2
INCH,TZ
T1C0.0300
T2C0.0315
T3C0.0551
T4C0.1220
%
G90
G05
M72
T1
X2.0438Y-0.4921
X2.0934Y-0.5906
X2.143Y-0.4921
X2.1926Y-0.5906
X2.2422Y-0.4921
X2.2918Y-0.5906
T2
X4.0379Y-1.4567
X4.0379Y-1.6929
X4.1363Y-1.4567
X4.1363Y-1.6929
X4.2347Y-1.4567
X4.2347Y-1.6929
X1.6658Y-0.6988
X1.6658Y-0.7988
X1.6658Y-0.8988
X1.6658Y-0.9988
X1.6658Y-1.0988
X1.6658Y-1.1988
X1.0851Y-1.4567
X1.0851Y-1.6929
X1.1835Y-1.4567
X1.1835Y-1.6929
X1.282Y-1.4567
X1.282Y-1.6929
X3.0536Y-1.4567
X3.0536Y-1.6929
X3.152Y-1.4567
X3.152Y-1.6929
X3.2505Y-1.4567
X3.2505Y-1.6929
X2.0694Y-1.4567
X2.0694Y-1.6929
X2.1678Y-1.4567
X2.1678Y-1.6929
X2.2662Y-1.4567
X2.2662Y-1.6929
X0.1009Y-1.4567
X0.1009Y-1.6929
X0.1993Y-1.4567
X0.1993Y-1.6929
X0.2977Y-1.4567
X0.2977Y-1.6929
X1.0556Y-0.6004
X1.0556Y-0.7004
X1.0556Y-0.8004
X1.0556Y-0.9004
X1.0556Y-1.0004
X1.0556Y-1.1004
X1.0556Y-1.2004
X1.0556Y-1.3004
X1.3556Y-0.6004
X1.3556Y-0.7004
X1.3556Y-0.8004
X1.3556Y-0.9004
X1.3556Y-1.0004
X1.3556Y-1.1004
X1.3556Y-1.2004
X1.3556Y-1.3004
T3
X2.1678Y-0.8465
X2.5678Y-0.8465
T4
X1.9709Y-0.2362
X2.3646Y-0.2362
T0
M30
