G04 #@! TF.GenerationSoftware,KiCad,Pcbnew,5.1.5-52549c5~84~ubuntu19.10.1*
G04 #@! TF.CreationDate,2020-01-22T18:32:37-06:00*
G04 #@! TF.ProjectId,JudgeBoard,4a756467-6542-46f6-9172-642e6b696361,rev?*
G04 #@! TF.SameCoordinates,PXc9538d0PY6d58ad0*
G04 #@! TF.FileFunction,Soldermask,Top*
G04 #@! TF.FilePolarity,Negative*
%FSLAX46Y46*%
G04 Gerber Fmt 4.6, Leading zero omitted, Abs format (unit mm)*
G04 Created by KiCad (PCBNEW 5.1.5-52549c5~84~ubuntu19.10.1) date 2020-01-22 18:32:37*
%MOMM*%
%LPD*%
G04 APERTURE LIST*
%ADD10C,0.100000*%
G04 APERTURE END LIST*
D10*
G36*
X-30923396Y3711032D02*
G01*
X-30835858Y3674772D01*
X-30748322Y3638514D01*
X-30748321Y3638513D01*
X-30590763Y3533237D01*
X-30456763Y3399237D01*
X-30368993Y3267879D01*
X-30351486Y3241678D01*
X-30278968Y3066604D01*
X-30242000Y2880750D01*
X-30242000Y2691250D01*
X-30278968Y2505396D01*
X-30351486Y2330322D01*
X-30351487Y2330321D01*
X-30456763Y2172763D01*
X-30590763Y2038763D01*
X-30722121Y1950993D01*
X-30748322Y1933486D01*
X-30835858Y1897228D01*
X-30923396Y1860968D01*
X-31109250Y1824000D01*
X-31298750Y1824000D01*
X-31484604Y1860968D01*
X-31572142Y1897228D01*
X-31659678Y1933486D01*
X-31685879Y1950993D01*
X-31817237Y2038763D01*
X-31951237Y2172763D01*
X-32056513Y2330321D01*
X-32056514Y2330322D01*
X-32129032Y2505396D01*
X-32166000Y2691250D01*
X-32166000Y2880750D01*
X-32129032Y3066604D01*
X-32056514Y3241678D01*
X-32039007Y3267879D01*
X-31951237Y3399237D01*
X-31817237Y3533237D01*
X-31659679Y3638513D01*
X-31659678Y3638514D01*
X-31572142Y3674772D01*
X-31484604Y3711032D01*
X-31298750Y3748000D01*
X-31109250Y3748000D01*
X-30923396Y3711032D01*
G37*
G36*
X-94423396Y3711032D02*
G01*
X-94335858Y3674772D01*
X-94248322Y3638514D01*
X-94248321Y3638513D01*
X-94090763Y3533237D01*
X-93956763Y3399237D01*
X-93868993Y3267879D01*
X-93851486Y3241678D01*
X-93815228Y3154142D01*
X-93778968Y3066604D01*
X-93742000Y2880750D01*
X-93742000Y2691250D01*
X-93778968Y2505396D01*
X-93851486Y2330322D01*
X-93851487Y2330321D01*
X-93956763Y2172763D01*
X-94090763Y2038763D01*
X-94222121Y1950993D01*
X-94248322Y1933486D01*
X-94335858Y1897228D01*
X-94423396Y1860968D01*
X-94609250Y1824000D01*
X-94798750Y1824000D01*
X-94984604Y1860968D01*
X-95072142Y1897228D01*
X-95159678Y1933486D01*
X-95185879Y1950993D01*
X-95317237Y2038763D01*
X-95451237Y2172763D01*
X-95556513Y2330321D01*
X-95556514Y2330322D01*
X-95629032Y2505396D01*
X-95666000Y2691250D01*
X-95666000Y2880750D01*
X-95629032Y3066604D01*
X-95556514Y3241678D01*
X-95539007Y3267879D01*
X-95451237Y3399237D01*
X-95317237Y3533237D01*
X-95159679Y3638513D01*
X-95159678Y3638514D01*
X-95072142Y3674772D01*
X-94984604Y3711032D01*
X-94798750Y3748000D01*
X-94609250Y3748000D01*
X-94423396Y3711032D01*
G37*
G36*
X-93223396Y6911032D02*
G01*
X-93048322Y6838514D01*
X-93048321Y6838513D01*
X-92890763Y6733237D01*
X-92756763Y6599237D01*
X-92668993Y6467879D01*
X-92651486Y6441678D01*
X-92578968Y6266604D01*
X-92542000Y6080750D01*
X-92542000Y5891250D01*
X-92578968Y5705396D01*
X-92584339Y5692430D01*
X-92651486Y5530322D01*
X-92651487Y5530321D01*
X-92756763Y5372763D01*
X-92890763Y5238763D01*
X-93022121Y5150993D01*
X-93048322Y5133486D01*
X-93223396Y5060968D01*
X-93409250Y5024000D01*
X-93598750Y5024000D01*
X-93784604Y5060968D01*
X-93872142Y5097228D01*
X-93959678Y5133486D01*
X-93985879Y5150993D01*
X-94117237Y5238763D01*
X-94251237Y5372763D01*
X-94356513Y5530321D01*
X-94356514Y5530322D01*
X-94423661Y5692430D01*
X-94429032Y5705396D01*
X-94466000Y5891250D01*
X-94466000Y6080750D01*
X-94429032Y6266604D01*
X-94392772Y6354142D01*
X-94356514Y6441678D01*
X-94339007Y6467879D01*
X-94251237Y6599237D01*
X-94117237Y6733237D01*
X-93959679Y6838513D01*
X-93959678Y6838514D01*
X-93872142Y6874772D01*
X-93784604Y6911032D01*
X-93598750Y6948000D01*
X-93409250Y6948000D01*
X-93223396Y6911032D01*
G37*
G36*
X-29723396Y6911032D02*
G01*
X-29548322Y6838514D01*
X-29548321Y6838513D01*
X-29390763Y6733237D01*
X-29256763Y6599237D01*
X-29168993Y6467879D01*
X-29151486Y6441678D01*
X-29115228Y6354142D01*
X-29078968Y6266604D01*
X-29042000Y6080750D01*
X-29042000Y5891250D01*
X-29078968Y5705396D01*
X-29084339Y5692430D01*
X-29151486Y5530322D01*
X-29151487Y5530321D01*
X-29256763Y5372763D01*
X-29390763Y5238763D01*
X-29522121Y5150993D01*
X-29548322Y5133486D01*
X-29723396Y5060968D01*
X-29909250Y5024000D01*
X-30098750Y5024000D01*
X-30284604Y5060968D01*
X-30372142Y5097228D01*
X-30459678Y5133486D01*
X-30485879Y5150993D01*
X-30617237Y5238763D01*
X-30751237Y5372763D01*
X-30856513Y5530321D01*
X-30856514Y5530322D01*
X-30923661Y5692430D01*
X-30929032Y5705396D01*
X-30966000Y5891250D01*
X-30966000Y6080750D01*
X-30929032Y6266604D01*
X-30892772Y6354142D01*
X-30856514Y6441678D01*
X-30839007Y6467879D01*
X-30751237Y6599237D01*
X-30617237Y6733237D01*
X-30459679Y6838513D01*
X-30459678Y6838514D01*
X-30372142Y6874772D01*
X-30284604Y6911032D01*
X-30098750Y6948000D01*
X-29909250Y6948000D01*
X-29723396Y6911032D01*
G37*
G36*
X-63893960Y8899933D02*
G01*
X-63717667Y8864866D01*
X-63580096Y8807882D01*
X-63385540Y8727295D01*
X-63086631Y8527570D01*
X-62832430Y8273369D01*
X-62632705Y7974460D01*
X-62590581Y7872763D01*
X-62495134Y7642333D01*
X-62471596Y7524000D01*
X-62425000Y7289748D01*
X-62425000Y6930252D01*
X-62443248Y6838514D01*
X-62490843Y6599237D01*
X-62495134Y6577668D01*
X-62632705Y6245540D01*
X-62832430Y5946631D01*
X-63086631Y5692430D01*
X-63385540Y5492705D01*
X-63580096Y5412118D01*
X-63717667Y5355134D01*
X-63893960Y5320067D01*
X-64070252Y5285000D01*
X-64429748Y5285000D01*
X-64606040Y5320067D01*
X-64782333Y5355134D01*
X-64919904Y5412118D01*
X-65114460Y5492705D01*
X-65413369Y5692430D01*
X-65667570Y5946631D01*
X-65867295Y6245540D01*
X-66004866Y6577668D01*
X-66009156Y6599237D01*
X-66056752Y6838514D01*
X-66075000Y6930252D01*
X-66075000Y7289748D01*
X-66028404Y7524000D01*
X-66004866Y7642333D01*
X-65909419Y7872763D01*
X-65867295Y7974460D01*
X-65667570Y8273369D01*
X-65413369Y8527570D01*
X-65114460Y8727295D01*
X-64919904Y8807882D01*
X-64782333Y8864866D01*
X-64606040Y8899933D01*
X-64429748Y8935000D01*
X-64070252Y8935000D01*
X-63893960Y8899933D01*
G37*
G36*
X-53733960Y8899933D02*
G01*
X-53557667Y8864866D01*
X-53420096Y8807882D01*
X-53225540Y8727295D01*
X-52926631Y8527570D01*
X-52672430Y8273369D01*
X-52472705Y7974460D01*
X-52430581Y7872763D01*
X-52335134Y7642333D01*
X-52311596Y7524000D01*
X-52265000Y7289748D01*
X-52265000Y6930252D01*
X-52283248Y6838514D01*
X-52330843Y6599237D01*
X-52335134Y6577668D01*
X-52472705Y6245540D01*
X-52672430Y5946631D01*
X-52926631Y5692430D01*
X-53225540Y5492705D01*
X-53420096Y5412118D01*
X-53557667Y5355134D01*
X-53733960Y5320067D01*
X-53910252Y5285000D01*
X-54269748Y5285000D01*
X-54446040Y5320067D01*
X-54622333Y5355134D01*
X-54759904Y5412118D01*
X-54954460Y5492705D01*
X-55253369Y5692430D01*
X-55507570Y5946631D01*
X-55707295Y6245540D01*
X-55844866Y6577668D01*
X-55849156Y6599237D01*
X-55896752Y6838514D01*
X-55915000Y6930252D01*
X-55915000Y7289748D01*
X-55868404Y7524000D01*
X-55844866Y7642333D01*
X-55749419Y7872763D01*
X-55707295Y7974460D01*
X-55507570Y8273369D01*
X-55253369Y8527570D01*
X-54954460Y8727295D01*
X-54759904Y8807882D01*
X-54622333Y8864866D01*
X-54446040Y8899933D01*
X-54269748Y8935000D01*
X-53910252Y8935000D01*
X-53733960Y8899933D01*
G37*
G36*
X-29723396Y9411032D02*
G01*
X-29548322Y9338514D01*
X-29548321Y9338513D01*
X-29390763Y9233237D01*
X-29256763Y9099237D01*
X-29168993Y8967879D01*
X-29151486Y8941678D01*
X-29148720Y8935000D01*
X-29078968Y8766604D01*
X-29042000Y8580750D01*
X-29042000Y8391250D01*
X-29078968Y8205396D01*
X-29151486Y8030322D01*
X-29151487Y8030321D01*
X-29256763Y7872763D01*
X-29390763Y7738763D01*
X-29522121Y7650993D01*
X-29548322Y7633486D01*
X-29635858Y7597228D01*
X-29723396Y7560968D01*
X-29909250Y7524000D01*
X-30098750Y7524000D01*
X-30284604Y7560968D01*
X-30459678Y7633486D01*
X-30485879Y7650993D01*
X-30617237Y7738763D01*
X-30751237Y7872763D01*
X-30856513Y8030321D01*
X-30856514Y8030322D01*
X-30929032Y8205396D01*
X-30966000Y8391250D01*
X-30966000Y8580750D01*
X-30929032Y8766604D01*
X-30859280Y8935000D01*
X-30856514Y8941678D01*
X-30839007Y8967879D01*
X-30751237Y9099237D01*
X-30617237Y9233237D01*
X-30459679Y9338513D01*
X-30459678Y9338514D01*
X-30284604Y9411032D01*
X-30098750Y9448000D01*
X-29909250Y9448000D01*
X-29723396Y9411032D01*
G37*
G36*
X-93223396Y9411032D02*
G01*
X-93048322Y9338514D01*
X-93048321Y9338513D01*
X-92890763Y9233237D01*
X-92756763Y9099237D01*
X-92668993Y8967879D01*
X-92651486Y8941678D01*
X-92648720Y8935000D01*
X-92578968Y8766604D01*
X-92542000Y8580750D01*
X-92542000Y8391250D01*
X-92578968Y8205396D01*
X-92651486Y8030322D01*
X-92651487Y8030321D01*
X-92756763Y7872763D01*
X-92890763Y7738763D01*
X-93022121Y7650993D01*
X-93048322Y7633486D01*
X-93135858Y7597228D01*
X-93223396Y7560968D01*
X-93409250Y7524000D01*
X-93598750Y7524000D01*
X-93784604Y7560968D01*
X-93959678Y7633486D01*
X-93985879Y7650993D01*
X-94117237Y7738763D01*
X-94251237Y7872763D01*
X-94356513Y8030321D01*
X-94356514Y8030322D01*
X-94392772Y8117858D01*
X-94429032Y8205396D01*
X-94466000Y8391250D01*
X-94466000Y8580750D01*
X-94429032Y8766604D01*
X-94359280Y8935000D01*
X-94356514Y8941678D01*
X-94339007Y8967879D01*
X-94251237Y9099237D01*
X-94117237Y9233237D01*
X-93959679Y9338513D01*
X-93959678Y9338514D01*
X-93784604Y9411032D01*
X-93598750Y9448000D01*
X-93409250Y9448000D01*
X-93223396Y9411032D01*
G37*
G36*
X-93223396Y11911032D02*
G01*
X-93135858Y11874772D01*
X-93048322Y11838514D01*
X-93048321Y11838513D01*
X-92890763Y11733237D01*
X-92756763Y11599237D01*
X-92668993Y11467879D01*
X-92651486Y11441678D01*
X-92615228Y11354142D01*
X-92578968Y11266604D01*
X-92542000Y11080750D01*
X-92542000Y10891250D01*
X-92578968Y10705396D01*
X-92651486Y10530322D01*
X-92651487Y10530321D01*
X-92756763Y10372763D01*
X-92890763Y10238763D01*
X-93022121Y10150993D01*
X-93048322Y10133486D01*
X-93135858Y10097228D01*
X-93223396Y10060968D01*
X-93409250Y10024000D01*
X-93598750Y10024000D01*
X-93784604Y10060968D01*
X-93872142Y10097228D01*
X-93959678Y10133486D01*
X-93985879Y10150993D01*
X-94117237Y10238763D01*
X-94251237Y10372763D01*
X-94356513Y10530321D01*
X-94356514Y10530322D01*
X-94429032Y10705396D01*
X-94466000Y10891250D01*
X-94466000Y11080750D01*
X-94429032Y11266604D01*
X-94392772Y11354142D01*
X-94356514Y11441678D01*
X-94339007Y11467879D01*
X-94251237Y11599237D01*
X-94117237Y11733237D01*
X-93959679Y11838513D01*
X-93959678Y11838514D01*
X-93872142Y11874772D01*
X-93784604Y11911032D01*
X-93598750Y11948000D01*
X-93409250Y11948000D01*
X-93223396Y11911032D01*
G37*
G36*
X-29723396Y11911032D02*
G01*
X-29635858Y11874772D01*
X-29548322Y11838514D01*
X-29548321Y11838513D01*
X-29390763Y11733237D01*
X-29256763Y11599237D01*
X-29168993Y11467879D01*
X-29151486Y11441678D01*
X-29115228Y11354142D01*
X-29078968Y11266604D01*
X-29042000Y11080750D01*
X-29042000Y10891250D01*
X-29078968Y10705396D01*
X-29151486Y10530322D01*
X-29151487Y10530321D01*
X-29256763Y10372763D01*
X-29390763Y10238763D01*
X-29522121Y10150993D01*
X-29548322Y10133486D01*
X-29635858Y10097228D01*
X-29723396Y10060968D01*
X-29909250Y10024000D01*
X-30098750Y10024000D01*
X-30284604Y10060968D01*
X-30372142Y10097228D01*
X-30459678Y10133486D01*
X-30485879Y10150993D01*
X-30617237Y10238763D01*
X-30751237Y10372763D01*
X-30856513Y10530321D01*
X-30856514Y10530322D01*
X-30929032Y10705396D01*
X-30966000Y10891250D01*
X-30966000Y11080750D01*
X-30929032Y11266604D01*
X-30892772Y11354142D01*
X-30856514Y11441678D01*
X-30839007Y11467879D01*
X-30751237Y11599237D01*
X-30617237Y11733237D01*
X-30459679Y11838513D01*
X-30459678Y11838514D01*
X-30372142Y11874772D01*
X-30284604Y11911032D01*
X-30098750Y11948000D01*
X-29909250Y11948000D01*
X-29723396Y11911032D01*
G37*
G36*
X-59652713Y14401554D02*
G01*
X-59559978Y14383108D01*
X-59385269Y14310741D01*
X-59228036Y14205681D01*
X-59094319Y14071964D01*
X-58989259Y13914731D01*
X-58916892Y13740022D01*
X-58880000Y13554552D01*
X-58880000Y13365448D01*
X-58916892Y13179978D01*
X-58989259Y13005269D01*
X-59094319Y12848036D01*
X-59228036Y12714319D01*
X-59385269Y12609259D01*
X-59559978Y12536892D01*
X-59652713Y12518446D01*
X-59745447Y12500000D01*
X-59934553Y12500000D01*
X-60027287Y12518446D01*
X-60120022Y12536892D01*
X-60294731Y12609259D01*
X-60451964Y12714319D01*
X-60585681Y12848036D01*
X-60690741Y13005269D01*
X-60763108Y13179978D01*
X-60800000Y13365448D01*
X-60800000Y13554552D01*
X-60763108Y13740022D01*
X-60690741Y13914731D01*
X-60585681Y14071964D01*
X-60451964Y14205681D01*
X-60294731Y14310741D01*
X-60120022Y14383108D01*
X-60027287Y14401554D01*
X-59934553Y14420000D01*
X-59745447Y14420000D01*
X-59652713Y14401554D01*
G37*
G36*
X-56310000Y12500000D02*
G01*
X-58230000Y12500000D01*
X-58230000Y14420000D01*
X-56310000Y14420000D01*
X-56310000Y12500000D01*
G37*
G36*
X-26973396Y14911032D02*
G01*
X-26798322Y14838514D01*
X-26798321Y14838513D01*
X-26640763Y14733237D01*
X-26506763Y14599237D01*
X-26418993Y14467879D01*
X-26401486Y14441678D01*
X-26392580Y14420176D01*
X-26328968Y14266604D01*
X-26292000Y14080750D01*
X-26292000Y13891250D01*
X-26328968Y13705396D01*
X-26401486Y13530322D01*
X-26401487Y13530321D01*
X-26506763Y13372763D01*
X-26640763Y13238763D01*
X-26772121Y13150993D01*
X-26798322Y13133486D01*
X-26885858Y13097228D01*
X-26973396Y13060968D01*
X-27159250Y13024000D01*
X-27348750Y13024000D01*
X-27534604Y13060968D01*
X-27622142Y13097228D01*
X-27709678Y13133486D01*
X-27735879Y13150993D01*
X-27867237Y13238763D01*
X-28001237Y13372763D01*
X-28106513Y13530321D01*
X-28106514Y13530322D01*
X-28179032Y13705396D01*
X-28216000Y13891250D01*
X-28216000Y14080750D01*
X-28179032Y14266604D01*
X-28115420Y14420176D01*
X-28106514Y14441678D01*
X-28089007Y14467879D01*
X-28001237Y14599237D01*
X-27867237Y14733237D01*
X-27709679Y14838513D01*
X-27709678Y14838514D01*
X-27534604Y14911032D01*
X-27348750Y14948000D01*
X-27159250Y14948000D01*
X-26973396Y14911032D01*
G37*
G36*
X-90473396Y14911032D02*
G01*
X-90298322Y14838514D01*
X-90298321Y14838513D01*
X-90140763Y14733237D01*
X-90006763Y14599237D01*
X-89918993Y14467879D01*
X-89901486Y14441678D01*
X-89892580Y14420176D01*
X-89828968Y14266604D01*
X-89792000Y14080750D01*
X-89792000Y13891250D01*
X-89828968Y13705396D01*
X-89901486Y13530322D01*
X-89901487Y13530321D01*
X-90006763Y13372763D01*
X-90140763Y13238763D01*
X-90272121Y13150993D01*
X-90298322Y13133486D01*
X-90385858Y13097228D01*
X-90473396Y13060968D01*
X-90659250Y13024000D01*
X-90848750Y13024000D01*
X-91034604Y13060968D01*
X-91122142Y13097228D01*
X-91209678Y13133486D01*
X-91235879Y13150993D01*
X-91367237Y13238763D01*
X-91501237Y13372763D01*
X-91606513Y13530321D01*
X-91606514Y13530322D01*
X-91642772Y13617858D01*
X-91679032Y13705396D01*
X-91716000Y13891250D01*
X-91716000Y14080750D01*
X-91679032Y14266604D01*
X-91615420Y14420176D01*
X-91606514Y14441678D01*
X-91589007Y14467879D01*
X-91501237Y14599237D01*
X-91367237Y14733237D01*
X-91209679Y14838513D01*
X-91209678Y14838514D01*
X-91034604Y14911032D01*
X-90848750Y14948000D01*
X-90659250Y14948000D01*
X-90473396Y14911032D01*
G37*
G36*
X-73900000Y13700000D02*
G01*
X-76100000Y13700000D01*
X-76100000Y16100000D01*
X-73900000Y16100000D01*
X-73900000Y13700000D01*
G37*
G36*
X-78117519Y15919814D02*
G01*
X-78072795Y15906246D01*
X-78031570Y15884211D01*
X-77995439Y15854561D01*
X-77965789Y15818430D01*
X-77943754Y15777205D01*
X-77930186Y15732481D01*
X-77925000Y15679824D01*
X-77925000Y14345176D01*
X-77930186Y14292519D01*
X-77943754Y14247795D01*
X-77965789Y14206570D01*
X-77995439Y14170439D01*
X-78031570Y14140789D01*
X-78072795Y14118754D01*
X-78117519Y14105186D01*
X-78170176Y14100000D01*
X-79829824Y14100000D01*
X-79882481Y14105186D01*
X-79927205Y14118754D01*
X-79968430Y14140789D01*
X-80004561Y14170439D01*
X-80034211Y14206570D01*
X-80056246Y14247795D01*
X-80069814Y14292519D01*
X-80075000Y14345176D01*
X-80075000Y15679824D01*
X-80069814Y15732481D01*
X-80056246Y15777205D01*
X-80034211Y15818430D01*
X-80004561Y15854561D01*
X-79968430Y15884211D01*
X-79927205Y15906246D01*
X-79882481Y15919814D01*
X-79829824Y15925000D01*
X-78170176Y15925000D01*
X-78117519Y15919814D01*
G37*
G36*
X-60892713Y16941554D02*
G01*
X-60799978Y16923108D01*
X-60625269Y16850741D01*
X-60468036Y16745681D01*
X-60334319Y16611964D01*
X-60229258Y16454729D01*
X-60156892Y16280021D01*
X-60121083Y16100000D01*
X-60120000Y16094552D01*
X-60120000Y15905448D01*
X-60156892Y15719978D01*
X-60229259Y15545269D01*
X-60334319Y15388036D01*
X-60468036Y15254319D01*
X-60625269Y15149259D01*
X-60799978Y15076892D01*
X-60892713Y15058446D01*
X-60985447Y15040000D01*
X-61174553Y15040000D01*
X-61267287Y15058446D01*
X-61360022Y15076892D01*
X-61534731Y15149259D01*
X-61691964Y15254319D01*
X-61825681Y15388036D01*
X-61930741Y15545269D01*
X-62003108Y15719978D01*
X-62040000Y15905448D01*
X-62040000Y16094552D01*
X-62038916Y16100000D01*
X-62003108Y16280021D01*
X-61930742Y16454729D01*
X-61825681Y16611964D01*
X-61691964Y16745681D01*
X-61534731Y16850741D01*
X-61360022Y16923108D01*
X-61267287Y16941554D01*
X-61174553Y16960000D01*
X-60985447Y16960000D01*
X-60892713Y16941554D01*
G37*
G36*
X-58382713Y16941554D02*
G01*
X-58289978Y16923108D01*
X-58115269Y16850741D01*
X-57958036Y16745681D01*
X-57824319Y16611964D01*
X-57719258Y16454729D01*
X-57646892Y16280021D01*
X-57611083Y16100000D01*
X-57610000Y16094552D01*
X-57610000Y15905448D01*
X-57646892Y15719978D01*
X-57719259Y15545269D01*
X-57824319Y15388036D01*
X-57958036Y15254319D01*
X-58115269Y15149259D01*
X-58289978Y15076892D01*
X-58382713Y15058446D01*
X-58475447Y15040000D01*
X-58664553Y15040000D01*
X-58757287Y15058446D01*
X-58850022Y15076892D01*
X-59024731Y15149259D01*
X-59181964Y15254319D01*
X-59315681Y15388036D01*
X-59420741Y15545269D01*
X-59493108Y15719978D01*
X-59530000Y15905448D01*
X-59530000Y16094552D01*
X-59528916Y16100000D01*
X-59493108Y16280021D01*
X-59420742Y16454729D01*
X-59315681Y16611964D01*
X-59181964Y16745681D01*
X-59024731Y16850741D01*
X-58850022Y16923108D01*
X-58757287Y16941554D01*
X-58664553Y16960000D01*
X-58475447Y16960000D01*
X-58382713Y16941554D01*
G37*
G36*
X-73900000Y16900000D02*
G01*
X-76100000Y16900000D01*
X-76100000Y19300000D01*
X-73900000Y19300000D01*
X-73900000Y16900000D01*
G37*
G36*
X-78117519Y18894814D02*
G01*
X-78072795Y18881246D01*
X-78031570Y18859211D01*
X-77995439Y18829561D01*
X-77965789Y18793430D01*
X-77943754Y18752205D01*
X-77930186Y18707481D01*
X-77925000Y18654824D01*
X-77925000Y17320176D01*
X-77930186Y17267519D01*
X-77943754Y17222795D01*
X-77965789Y17181570D01*
X-77995439Y17145439D01*
X-78031570Y17115789D01*
X-78072795Y17093754D01*
X-78117519Y17080186D01*
X-78170176Y17075000D01*
X-79829824Y17075000D01*
X-79882481Y17080186D01*
X-79927205Y17093754D01*
X-79968430Y17115789D01*
X-80004561Y17145439D01*
X-80034211Y17181570D01*
X-80056246Y17222795D01*
X-80069814Y17267519D01*
X-80075000Y17320176D01*
X-80075000Y18654824D01*
X-80069814Y18707481D01*
X-80056246Y18752205D01*
X-80034211Y18793430D01*
X-80004561Y18829561D01*
X-79968430Y18859211D01*
X-79927205Y18881246D01*
X-79882481Y18894814D01*
X-79829824Y18900000D01*
X-78170176Y18900000D01*
X-78117519Y18894814D01*
G37*
G36*
X-97658664Y19757746D02*
G01*
X-97566895Y19739492D01*
X-97394006Y19667879D01*
X-97238410Y19563913D01*
X-97106087Y19431590D01*
X-97002121Y19275994D01*
X-96930508Y19103105D01*
X-96894000Y18919567D01*
X-96894000Y18732433D01*
X-96930508Y18548895D01*
X-97002121Y18376006D01*
X-97106087Y18220410D01*
X-97238410Y18088087D01*
X-97394006Y17984121D01*
X-97566895Y17912508D01*
X-97658664Y17894254D01*
X-97750432Y17876000D01*
X-97937568Y17876000D01*
X-98029336Y17894254D01*
X-98121105Y17912508D01*
X-98293994Y17984121D01*
X-98449590Y18088087D01*
X-98581913Y18220410D01*
X-98685879Y18376006D01*
X-98757492Y18548895D01*
X-98794000Y18732433D01*
X-98794000Y18919567D01*
X-98757492Y19103105D01*
X-98685879Y19275994D01*
X-98581913Y19431590D01*
X-98449590Y19563913D01*
X-98293994Y19667879D01*
X-98121105Y19739492D01*
X-98029336Y19757746D01*
X-97937568Y19776000D01*
X-97750432Y19776000D01*
X-97658664Y19757746D01*
G37*
G36*
X-100158664Y19757746D02*
G01*
X-100066895Y19739492D01*
X-99894006Y19667879D01*
X-99738410Y19563913D01*
X-99606087Y19431590D01*
X-99502121Y19275994D01*
X-99430508Y19103105D01*
X-99394000Y18919567D01*
X-99394000Y18732433D01*
X-99430508Y18548895D01*
X-99502121Y18376006D01*
X-99606087Y18220410D01*
X-99738410Y18088087D01*
X-99894006Y17984121D01*
X-100066895Y17912508D01*
X-100158664Y17894254D01*
X-100250432Y17876000D01*
X-100437568Y17876000D01*
X-100529336Y17894254D01*
X-100621105Y17912508D01*
X-100793994Y17984121D01*
X-100949590Y18088087D01*
X-101081913Y18220410D01*
X-101185879Y18376006D01*
X-101257492Y18548895D01*
X-101294000Y18732433D01*
X-101294000Y18919567D01*
X-101257492Y19103105D01*
X-101185879Y19275994D01*
X-101081913Y19431590D01*
X-100949590Y19563913D01*
X-100793994Y19667879D01*
X-100621105Y19739492D01*
X-100529336Y19757746D01*
X-100437568Y19776000D01*
X-100250432Y19776000D01*
X-100158664Y19757746D01*
G37*
G36*
X-102658664Y19757746D02*
G01*
X-102566895Y19739492D01*
X-102394006Y19667879D01*
X-102238410Y19563913D01*
X-102106087Y19431590D01*
X-102002121Y19275994D01*
X-101930508Y19103105D01*
X-101894000Y18919567D01*
X-101894000Y18732433D01*
X-101930508Y18548895D01*
X-102002121Y18376006D01*
X-102106087Y18220410D01*
X-102238410Y18088087D01*
X-102394006Y17984121D01*
X-102566895Y17912508D01*
X-102658664Y17894254D01*
X-102750432Y17876000D01*
X-102937568Y17876000D01*
X-103029336Y17894254D01*
X-103121105Y17912508D01*
X-103293994Y17984121D01*
X-103449590Y18088087D01*
X-103581913Y18220410D01*
X-103685879Y18376006D01*
X-103757492Y18548895D01*
X-103794000Y18732433D01*
X-103794000Y18919567D01*
X-103757492Y19103105D01*
X-103685879Y19275994D01*
X-103581913Y19431590D01*
X-103449590Y19563913D01*
X-103293994Y19667879D01*
X-103121105Y19739492D01*
X-103029336Y19757746D01*
X-102937568Y19776000D01*
X-102750432Y19776000D01*
X-102658664Y19757746D01*
G37*
G36*
X-22658664Y19757746D02*
G01*
X-22566895Y19739492D01*
X-22394006Y19667879D01*
X-22238410Y19563913D01*
X-22106087Y19431590D01*
X-22002121Y19275994D01*
X-21930508Y19103105D01*
X-21894000Y18919567D01*
X-21894000Y18732433D01*
X-21930508Y18548895D01*
X-22002121Y18376006D01*
X-22106087Y18220410D01*
X-22238410Y18088087D01*
X-22394006Y17984121D01*
X-22566895Y17912508D01*
X-22658664Y17894254D01*
X-22750432Y17876000D01*
X-22937568Y17876000D01*
X-23029336Y17894254D01*
X-23121105Y17912508D01*
X-23293994Y17984121D01*
X-23449590Y18088087D01*
X-23581913Y18220410D01*
X-23685879Y18376006D01*
X-23757492Y18548895D01*
X-23794000Y18732433D01*
X-23794000Y18919567D01*
X-23757492Y19103105D01*
X-23685879Y19275994D01*
X-23581913Y19431590D01*
X-23449590Y19563913D01*
X-23293994Y19667879D01*
X-23121105Y19739492D01*
X-23029336Y19757746D01*
X-22937568Y19776000D01*
X-22750432Y19776000D01*
X-22658664Y19757746D01*
G37*
G36*
X-20158664Y19757746D02*
G01*
X-20066895Y19739492D01*
X-19894006Y19667879D01*
X-19738410Y19563913D01*
X-19606087Y19431590D01*
X-19502121Y19275994D01*
X-19430508Y19103105D01*
X-19394000Y18919567D01*
X-19394000Y18732433D01*
X-19430508Y18548895D01*
X-19502121Y18376006D01*
X-19606087Y18220410D01*
X-19738410Y18088087D01*
X-19894006Y17984121D01*
X-20066895Y17912508D01*
X-20158664Y17894254D01*
X-20250432Y17876000D01*
X-20437568Y17876000D01*
X-20529336Y17894254D01*
X-20621105Y17912508D01*
X-20793994Y17984121D01*
X-20949590Y18088087D01*
X-21081913Y18220410D01*
X-21185879Y18376006D01*
X-21257492Y18548895D01*
X-21294000Y18732433D01*
X-21294000Y18919567D01*
X-21257492Y19103105D01*
X-21185879Y19275994D01*
X-21081913Y19431590D01*
X-20949590Y19563913D01*
X-20793994Y19667879D01*
X-20621105Y19739492D01*
X-20529336Y19757746D01*
X-20437568Y19776000D01*
X-20250432Y19776000D01*
X-20158664Y19757746D01*
G37*
G36*
X-17658664Y19757746D02*
G01*
X-17566895Y19739492D01*
X-17394006Y19667879D01*
X-17238410Y19563913D01*
X-17106087Y19431590D01*
X-17002121Y19275994D01*
X-16930508Y19103105D01*
X-16894000Y18919567D01*
X-16894000Y18732433D01*
X-16930508Y18548895D01*
X-17002121Y18376006D01*
X-17106087Y18220410D01*
X-17238410Y18088087D01*
X-17394006Y17984121D01*
X-17566895Y17912508D01*
X-17658664Y17894254D01*
X-17750432Y17876000D01*
X-17937568Y17876000D01*
X-18029336Y17894254D01*
X-18121105Y17912508D01*
X-18293994Y17984121D01*
X-18449590Y18088087D01*
X-18581913Y18220410D01*
X-18685879Y18376006D01*
X-18757492Y18548895D01*
X-18794000Y18732433D01*
X-18794000Y18919567D01*
X-18757492Y19103105D01*
X-18685879Y19275994D01*
X-18581913Y19431590D01*
X-18449590Y19563913D01*
X-18293994Y19667879D01*
X-18121105Y19739492D01*
X-18029336Y19757746D01*
X-17937568Y19776000D01*
X-17750432Y19776000D01*
X-17658664Y19757746D01*
G37*
G36*
X-66117519Y20919814D02*
G01*
X-66072795Y20906246D01*
X-66031570Y20884211D01*
X-65995439Y20854561D01*
X-65965789Y20818430D01*
X-65943754Y20777205D01*
X-65930186Y20732481D01*
X-65925000Y20679824D01*
X-65925000Y19345176D01*
X-65930186Y19292519D01*
X-65943754Y19247795D01*
X-65965789Y19206570D01*
X-65995439Y19170439D01*
X-66031570Y19140789D01*
X-66072795Y19118754D01*
X-66117519Y19105186D01*
X-66170176Y19100000D01*
X-67829824Y19100000D01*
X-67882481Y19105186D01*
X-67927205Y19118754D01*
X-67968430Y19140789D01*
X-68004561Y19170439D01*
X-68034211Y19206570D01*
X-68056246Y19247795D01*
X-68069814Y19292519D01*
X-68075000Y19345176D01*
X-68075000Y20679824D01*
X-68069814Y20732481D01*
X-68056246Y20777205D01*
X-68034211Y20818430D01*
X-68004561Y20854561D01*
X-67968430Y20884211D01*
X-67927205Y20906246D01*
X-67882481Y20919814D01*
X-67829824Y20925000D01*
X-66170176Y20925000D01*
X-66117519Y20919814D01*
G37*
G36*
X-63117519Y20919814D02*
G01*
X-63072795Y20906246D01*
X-63031570Y20884211D01*
X-62995439Y20854561D01*
X-62965789Y20818430D01*
X-62943754Y20777205D01*
X-62930186Y20732481D01*
X-62925000Y20679824D01*
X-62925000Y19345176D01*
X-62930186Y19292519D01*
X-62943754Y19247795D01*
X-62965789Y19206570D01*
X-62995439Y19170439D01*
X-63031570Y19140789D01*
X-63072795Y19118754D01*
X-63117519Y19105186D01*
X-63170176Y19100000D01*
X-64829824Y19100000D01*
X-64882481Y19105186D01*
X-64927205Y19118754D01*
X-64968430Y19140789D01*
X-65004561Y19170439D01*
X-65034211Y19206570D01*
X-65056246Y19247795D01*
X-65069814Y19292519D01*
X-65075000Y19345176D01*
X-65075000Y20679824D01*
X-65069814Y20732481D01*
X-65056246Y20777205D01*
X-65034211Y20818430D01*
X-65004561Y20854561D01*
X-64968430Y20884211D01*
X-64927205Y20906246D01*
X-64882481Y20919814D01*
X-64829824Y20925000D01*
X-63170176Y20925000D01*
X-63117519Y20919814D01*
G37*
G36*
X-69117519Y20919814D02*
G01*
X-69072795Y20906246D01*
X-69031570Y20884211D01*
X-68995439Y20854561D01*
X-68965789Y20818430D01*
X-68943754Y20777205D01*
X-68930186Y20732481D01*
X-68925000Y20679824D01*
X-68925000Y19345176D01*
X-68930186Y19292519D01*
X-68943754Y19247795D01*
X-68965789Y19206570D01*
X-68995439Y19170439D01*
X-69031570Y19140789D01*
X-69072795Y19118754D01*
X-69117519Y19105186D01*
X-69170176Y19100000D01*
X-70829824Y19100000D01*
X-70882481Y19105186D01*
X-70927205Y19118754D01*
X-70968430Y19140789D01*
X-71004561Y19170439D01*
X-71034211Y19206570D01*
X-71056246Y19247795D01*
X-71069814Y19292519D01*
X-71075000Y19345176D01*
X-71075000Y20679824D01*
X-71069814Y20732481D01*
X-71056246Y20777205D01*
X-71034211Y20818430D01*
X-71004561Y20854561D01*
X-70968430Y20884211D01*
X-70927205Y20906246D01*
X-70882481Y20919814D01*
X-70829824Y20925000D01*
X-69170176Y20925000D01*
X-69117519Y20919814D01*
G37*
G36*
X-45508819Y22319814D02*
G01*
X-45464095Y22306246D01*
X-45422870Y22284211D01*
X-45386739Y22254561D01*
X-45357089Y22218430D01*
X-45335054Y22177205D01*
X-45321486Y22132481D01*
X-45316300Y22079824D01*
X-45316300Y20420176D01*
X-45321486Y20367519D01*
X-45335054Y20322795D01*
X-45357089Y20281570D01*
X-45386739Y20245439D01*
X-45422870Y20215789D01*
X-45464095Y20193754D01*
X-45508819Y20180186D01*
X-45561476Y20175000D01*
X-46896124Y20175000D01*
X-46948781Y20180186D01*
X-46993505Y20193754D01*
X-47034730Y20215789D01*
X-47070861Y20245439D01*
X-47100511Y20281570D01*
X-47122546Y20322795D01*
X-47136114Y20367519D01*
X-47141300Y20420176D01*
X-47141300Y22079824D01*
X-47136114Y22132481D01*
X-47122546Y22177205D01*
X-47100511Y22218430D01*
X-47070861Y22254561D01*
X-47034730Y22284211D01*
X-46993505Y22306246D01*
X-46948781Y22319814D01*
X-46896124Y22325000D01*
X-45561476Y22325000D01*
X-45508819Y22319814D01*
G37*
G36*
X-40111319Y22319814D02*
G01*
X-40066595Y22306246D01*
X-40025370Y22284211D01*
X-39989239Y22254561D01*
X-39959589Y22218430D01*
X-39937554Y22177205D01*
X-39923986Y22132481D01*
X-39918800Y22079824D01*
X-39918800Y20420176D01*
X-39923986Y20367519D01*
X-39937554Y20322795D01*
X-39959589Y20281570D01*
X-39989239Y20245439D01*
X-40025370Y20215789D01*
X-40066595Y20193754D01*
X-40111319Y20180186D01*
X-40163976Y20175000D01*
X-41498624Y20175000D01*
X-41551281Y20180186D01*
X-41596005Y20193754D01*
X-41637230Y20215789D01*
X-41673361Y20245439D01*
X-41703011Y20281570D01*
X-41725046Y20322795D01*
X-41738614Y20367519D01*
X-41743800Y20420176D01*
X-41743800Y22079824D01*
X-41738614Y22132481D01*
X-41725046Y22177205D01*
X-41703011Y22218430D01*
X-41673361Y22254561D01*
X-41637230Y22284211D01*
X-41596005Y22306246D01*
X-41551281Y22319814D01*
X-41498624Y22325000D01*
X-40163976Y22325000D01*
X-40111319Y22319814D01*
G37*
G36*
X-43086319Y22319814D02*
G01*
X-43041595Y22306246D01*
X-43000370Y22284211D01*
X-42964239Y22254561D01*
X-42934589Y22218430D01*
X-42912554Y22177205D01*
X-42898986Y22132481D01*
X-42893800Y22079824D01*
X-42893800Y20420176D01*
X-42898986Y20367519D01*
X-42912554Y20322795D01*
X-42934589Y20281570D01*
X-42964239Y20245439D01*
X-43000370Y20215789D01*
X-43041595Y20193754D01*
X-43086319Y20180186D01*
X-43138976Y20175000D01*
X-44473624Y20175000D01*
X-44526281Y20180186D01*
X-44571005Y20193754D01*
X-44612230Y20215789D01*
X-44648361Y20245439D01*
X-44678011Y20281570D01*
X-44700046Y20322795D01*
X-44713614Y20367519D01*
X-44718800Y20420176D01*
X-44718800Y22079824D01*
X-44713614Y22132481D01*
X-44700046Y22177205D01*
X-44678011Y22218430D01*
X-44648361Y22254561D01*
X-44612230Y22284211D01*
X-44571005Y22306246D01*
X-44526281Y22319814D01*
X-44473624Y22325000D01*
X-43138976Y22325000D01*
X-43086319Y22319814D01*
G37*
G36*
X-48483819Y22319814D02*
G01*
X-48439095Y22306246D01*
X-48397870Y22284211D01*
X-48361739Y22254561D01*
X-48332089Y22218430D01*
X-48310054Y22177205D01*
X-48296486Y22132481D01*
X-48291300Y22079824D01*
X-48291300Y20420176D01*
X-48296486Y20367519D01*
X-48310054Y20322795D01*
X-48332089Y20281570D01*
X-48361739Y20245439D01*
X-48397870Y20215789D01*
X-48439095Y20193754D01*
X-48483819Y20180186D01*
X-48536476Y20175000D01*
X-49871124Y20175000D01*
X-49923781Y20180186D01*
X-49968505Y20193754D01*
X-50009730Y20215789D01*
X-50045861Y20245439D01*
X-50075511Y20281570D01*
X-50097546Y20322795D01*
X-50111114Y20367519D01*
X-50116300Y20420176D01*
X-50116300Y22079824D01*
X-50111114Y22132481D01*
X-50097546Y22177205D01*
X-50075511Y22218430D01*
X-50045861Y22254561D01*
X-50009730Y22284211D01*
X-49968505Y22306246D01*
X-49923781Y22319814D01*
X-49871124Y22325000D01*
X-48536476Y22325000D01*
X-48483819Y22319814D01*
G37*
G36*
X-72050000Y20400000D02*
G01*
X-75950000Y20400000D01*
X-75950000Y22600000D01*
X-72050000Y22600000D01*
X-72050000Y20400000D01*
G37*
G36*
X-77050000Y20400000D02*
G01*
X-80950000Y20400000D01*
X-80950000Y22600000D01*
X-77050000Y22600000D01*
X-77050000Y20400000D01*
G37*
G36*
X-56450000Y21900000D02*
G01*
X-58650000Y21900000D01*
X-58650000Y24100000D01*
X-56450000Y24100000D01*
X-56450000Y21900000D01*
G37*
G36*
X-60469143Y24057728D02*
G01*
X-60311177Y23992296D01*
X-60268955Y23974807D01*
X-60187588Y23920439D01*
X-60088792Y23854426D01*
X-59935574Y23701208D01*
X-59815192Y23521043D01*
X-59732272Y23320857D01*
X-59690000Y23108342D01*
X-59690000Y22891658D01*
X-59732272Y22679143D01*
X-59815192Y22478957D01*
X-59935574Y22298792D01*
X-60088792Y22145574D01*
X-60166346Y22093754D01*
X-60268955Y22025193D01*
X-60268956Y22025192D01*
X-60268957Y22025192D01*
X-60469143Y21942272D01*
X-60681658Y21900000D01*
X-60898342Y21900000D01*
X-61110857Y21942272D01*
X-61311043Y22025192D01*
X-61311044Y22025192D01*
X-61311045Y22025193D01*
X-61413654Y22093754D01*
X-61491208Y22145574D01*
X-61644426Y22298792D01*
X-61764808Y22478957D01*
X-61847728Y22679143D01*
X-61890000Y22891658D01*
X-61890000Y23108342D01*
X-61847728Y23320857D01*
X-61764808Y23521043D01*
X-61644426Y23701208D01*
X-61491208Y23854426D01*
X-61392412Y23920439D01*
X-61311045Y23974807D01*
X-61268823Y23992296D01*
X-61110857Y24057728D01*
X-60898342Y24100000D01*
X-60681658Y24100000D01*
X-60469143Y24057728D01*
G37*
G36*
X-63117519Y23894814D02*
G01*
X-63072795Y23881246D01*
X-63031570Y23859211D01*
X-62995439Y23829561D01*
X-62965789Y23793430D01*
X-62943754Y23752205D01*
X-62930186Y23707481D01*
X-62925000Y23654824D01*
X-62925000Y22320176D01*
X-62930186Y22267519D01*
X-62943754Y22222795D01*
X-62965789Y22181570D01*
X-62995439Y22145439D01*
X-63031570Y22115789D01*
X-63072795Y22093754D01*
X-63117519Y22080186D01*
X-63170176Y22075000D01*
X-64829824Y22075000D01*
X-64882481Y22080186D01*
X-64927205Y22093754D01*
X-64968430Y22115789D01*
X-65004561Y22145439D01*
X-65034211Y22181570D01*
X-65056246Y22222795D01*
X-65069814Y22267519D01*
X-65075000Y22320176D01*
X-65075000Y23654824D01*
X-65069814Y23707481D01*
X-65056246Y23752205D01*
X-65034211Y23793430D01*
X-65004561Y23829561D01*
X-64968430Y23859211D01*
X-64927205Y23881246D01*
X-64882481Y23894814D01*
X-64829824Y23900000D01*
X-63170176Y23900000D01*
X-63117519Y23894814D01*
G37*
G36*
X-66117519Y23894814D02*
G01*
X-66072795Y23881246D01*
X-66031570Y23859211D01*
X-65995439Y23829561D01*
X-65965789Y23793430D01*
X-65943754Y23752205D01*
X-65930186Y23707481D01*
X-65925000Y23654824D01*
X-65925000Y22320176D01*
X-65930186Y22267519D01*
X-65943754Y22222795D01*
X-65965789Y22181570D01*
X-65995439Y22145439D01*
X-66031570Y22115789D01*
X-66072795Y22093754D01*
X-66117519Y22080186D01*
X-66170176Y22075000D01*
X-67829824Y22075000D01*
X-67882481Y22080186D01*
X-67927205Y22093754D01*
X-67968430Y22115789D01*
X-68004561Y22145439D01*
X-68034211Y22181570D01*
X-68056246Y22222795D01*
X-68069814Y22267519D01*
X-68075000Y22320176D01*
X-68075000Y23654824D01*
X-68069814Y23707481D01*
X-68056246Y23752205D01*
X-68034211Y23793430D01*
X-68004561Y23829561D01*
X-67968430Y23859211D01*
X-67927205Y23881246D01*
X-67882481Y23894814D01*
X-67829824Y23900000D01*
X-66170176Y23900000D01*
X-66117519Y23894814D01*
G37*
G36*
X-69117519Y23894814D02*
G01*
X-69072795Y23881246D01*
X-69031570Y23859211D01*
X-68995439Y23829561D01*
X-68965789Y23793430D01*
X-68943754Y23752205D01*
X-68930186Y23707481D01*
X-68925000Y23654824D01*
X-68925000Y22320176D01*
X-68930186Y22267519D01*
X-68943754Y22222795D01*
X-68965789Y22181570D01*
X-68995439Y22145439D01*
X-69031570Y22115789D01*
X-69072795Y22093754D01*
X-69117519Y22080186D01*
X-69170176Y22075000D01*
X-70829824Y22075000D01*
X-70882481Y22080186D01*
X-70927205Y22093754D01*
X-70968430Y22115789D01*
X-71004561Y22145439D01*
X-71034211Y22181570D01*
X-71056246Y22222795D01*
X-71069814Y22267519D01*
X-71075000Y22320176D01*
X-71075000Y23654824D01*
X-71069814Y23707481D01*
X-71056246Y23752205D01*
X-71034211Y23793430D01*
X-71004561Y23829561D01*
X-70968430Y23859211D01*
X-70927205Y23881246D01*
X-70882481Y23894814D01*
X-70829824Y23900000D01*
X-69170176Y23900000D01*
X-69117519Y23894814D01*
G37*
G36*
X-51867519Y24669814D02*
G01*
X-51822795Y24656246D01*
X-51781570Y24634211D01*
X-51745439Y24604561D01*
X-51715789Y24568430D01*
X-51693754Y24527205D01*
X-51680186Y24482481D01*
X-51675000Y24429824D01*
X-51675000Y23095176D01*
X-51680186Y23042519D01*
X-51693754Y22997795D01*
X-51715789Y22956570D01*
X-51745439Y22920439D01*
X-51781570Y22890789D01*
X-51822795Y22868754D01*
X-51867519Y22855186D01*
X-51920176Y22850000D01*
X-53579824Y22850000D01*
X-53632481Y22855186D01*
X-53677205Y22868754D01*
X-53718430Y22890789D01*
X-53754561Y22920439D01*
X-53784211Y22956570D01*
X-53806246Y22997795D01*
X-53819814Y23042519D01*
X-53825000Y23095176D01*
X-53825000Y24429824D01*
X-53819814Y24482481D01*
X-53806246Y24527205D01*
X-53784211Y24568430D01*
X-53754561Y24604561D01*
X-53718430Y24634211D01*
X-53677205Y24656246D01*
X-53632481Y24669814D01*
X-53579824Y24675000D01*
X-51920176Y24675000D01*
X-51867519Y24669814D01*
G37*
G36*
X-47867519Y25669814D02*
G01*
X-47822795Y25656246D01*
X-47781570Y25634211D01*
X-47745439Y25604561D01*
X-47715789Y25568430D01*
X-47693754Y25527205D01*
X-47680186Y25482481D01*
X-47675000Y25429824D01*
X-47675000Y24095176D01*
X-47680186Y24042519D01*
X-47693754Y23997795D01*
X-47715789Y23956570D01*
X-47745439Y23920439D01*
X-47781570Y23890789D01*
X-47822795Y23868754D01*
X-47867519Y23855186D01*
X-47920176Y23850000D01*
X-49579824Y23850000D01*
X-49632481Y23855186D01*
X-49677205Y23868754D01*
X-49718430Y23890789D01*
X-49754561Y23920439D01*
X-49784211Y23956570D01*
X-49806246Y23997795D01*
X-49819814Y24042519D01*
X-49825000Y24095176D01*
X-49825000Y25429824D01*
X-49819814Y25482481D01*
X-49806246Y25527205D01*
X-49784211Y25568430D01*
X-49754561Y25604561D01*
X-49718430Y25634211D01*
X-49677205Y25656246D01*
X-49632481Y25669814D01*
X-49579824Y25675000D01*
X-47920176Y25675000D01*
X-47867519Y25669814D01*
G37*
G36*
X-97658664Y25757746D02*
G01*
X-97566895Y25739492D01*
X-97394006Y25667879D01*
X-97238410Y25563913D01*
X-97106087Y25431590D01*
X-97002121Y25275994D01*
X-96930508Y25103105D01*
X-96894000Y24919567D01*
X-96894000Y24732433D01*
X-96930508Y24548895D01*
X-97002121Y24376006D01*
X-97106087Y24220410D01*
X-97238410Y24088087D01*
X-97394006Y23984121D01*
X-97566895Y23912508D01*
X-97609874Y23903959D01*
X-97750432Y23876000D01*
X-97937568Y23876000D01*
X-98078126Y23903959D01*
X-98121105Y23912508D01*
X-98293994Y23984121D01*
X-98449590Y24088087D01*
X-98581913Y24220410D01*
X-98685879Y24376006D01*
X-98757492Y24548895D01*
X-98794000Y24732433D01*
X-98794000Y24919567D01*
X-98757492Y25103105D01*
X-98685879Y25275994D01*
X-98581913Y25431590D01*
X-98449590Y25563913D01*
X-98293994Y25667879D01*
X-98121105Y25739492D01*
X-98029336Y25757746D01*
X-97937568Y25776000D01*
X-97750432Y25776000D01*
X-97658664Y25757746D01*
G37*
G36*
X-17658664Y25757746D02*
G01*
X-17566895Y25739492D01*
X-17394006Y25667879D01*
X-17238410Y25563913D01*
X-17106087Y25431590D01*
X-17002121Y25275994D01*
X-16930508Y25103105D01*
X-16894000Y24919567D01*
X-16894000Y24732433D01*
X-16930508Y24548895D01*
X-17002121Y24376006D01*
X-17106087Y24220410D01*
X-17238410Y24088087D01*
X-17394006Y23984121D01*
X-17566895Y23912508D01*
X-17609874Y23903959D01*
X-17750432Y23876000D01*
X-17937568Y23876000D01*
X-18078126Y23903959D01*
X-18121105Y23912508D01*
X-18293994Y23984121D01*
X-18449590Y24088087D01*
X-18581913Y24220410D01*
X-18685879Y24376006D01*
X-18757492Y24548895D01*
X-18794000Y24732433D01*
X-18794000Y24919567D01*
X-18757492Y25103105D01*
X-18685879Y25275994D01*
X-18581913Y25431590D01*
X-18449590Y25563913D01*
X-18293994Y25667879D01*
X-18121105Y25739492D01*
X-18029336Y25757746D01*
X-17937568Y25776000D01*
X-17750432Y25776000D01*
X-17658664Y25757746D01*
G37*
G36*
X-102658664Y25757746D02*
G01*
X-102566895Y25739492D01*
X-102394006Y25667879D01*
X-102238410Y25563913D01*
X-102106087Y25431590D01*
X-102002121Y25275994D01*
X-101930508Y25103105D01*
X-101894000Y24919567D01*
X-101894000Y24732433D01*
X-101930508Y24548895D01*
X-102002121Y24376006D01*
X-102106087Y24220410D01*
X-102238410Y24088087D01*
X-102394006Y23984121D01*
X-102566895Y23912508D01*
X-102609874Y23903959D01*
X-102750432Y23876000D01*
X-102937568Y23876000D01*
X-103078126Y23903959D01*
X-103121105Y23912508D01*
X-103293994Y23984121D01*
X-103449590Y24088087D01*
X-103581913Y24220410D01*
X-103685879Y24376006D01*
X-103757492Y24548895D01*
X-103794000Y24732433D01*
X-103794000Y24919567D01*
X-103757492Y25103105D01*
X-103685879Y25275994D01*
X-103581913Y25431590D01*
X-103449590Y25563913D01*
X-103293994Y25667879D01*
X-103121105Y25739492D01*
X-103029336Y25757746D01*
X-102937568Y25776000D01*
X-102750432Y25776000D01*
X-102658664Y25757746D01*
G37*
G36*
X-20158664Y25757746D02*
G01*
X-20066895Y25739492D01*
X-19894006Y25667879D01*
X-19738410Y25563913D01*
X-19606087Y25431590D01*
X-19502121Y25275994D01*
X-19430508Y25103105D01*
X-19394000Y24919567D01*
X-19394000Y24732433D01*
X-19430508Y24548895D01*
X-19502121Y24376006D01*
X-19606087Y24220410D01*
X-19738410Y24088087D01*
X-19894006Y23984121D01*
X-20066895Y23912508D01*
X-20109874Y23903959D01*
X-20250432Y23876000D01*
X-20437568Y23876000D01*
X-20578126Y23903959D01*
X-20621105Y23912508D01*
X-20793994Y23984121D01*
X-20949590Y24088087D01*
X-21081913Y24220410D01*
X-21185879Y24376006D01*
X-21257492Y24548895D01*
X-21294000Y24732433D01*
X-21294000Y24919567D01*
X-21257492Y25103105D01*
X-21185879Y25275994D01*
X-21081913Y25431590D01*
X-20949590Y25563913D01*
X-20793994Y25667879D01*
X-20621105Y25739492D01*
X-20529336Y25757746D01*
X-20437568Y25776000D01*
X-20250432Y25776000D01*
X-20158664Y25757746D01*
G37*
G36*
X-22658664Y25757746D02*
G01*
X-22566895Y25739492D01*
X-22394006Y25667879D01*
X-22238410Y25563913D01*
X-22106087Y25431590D01*
X-22002121Y25275994D01*
X-21930508Y25103105D01*
X-21894000Y24919567D01*
X-21894000Y24732433D01*
X-21930508Y24548895D01*
X-22002121Y24376006D01*
X-22106087Y24220410D01*
X-22238410Y24088087D01*
X-22394006Y23984121D01*
X-22566895Y23912508D01*
X-22609874Y23903959D01*
X-22750432Y23876000D01*
X-22937568Y23876000D01*
X-23078126Y23903959D01*
X-23121105Y23912508D01*
X-23293994Y23984121D01*
X-23449590Y24088087D01*
X-23581913Y24220410D01*
X-23685879Y24376006D01*
X-23757492Y24548895D01*
X-23794000Y24732433D01*
X-23794000Y24919567D01*
X-23757492Y25103105D01*
X-23685879Y25275994D01*
X-23581913Y25431590D01*
X-23449590Y25563913D01*
X-23293994Y25667879D01*
X-23121105Y25739492D01*
X-23029336Y25757746D01*
X-22937568Y25776000D01*
X-22750432Y25776000D01*
X-22658664Y25757746D01*
G37*
G36*
X-100158664Y25757746D02*
G01*
X-100066895Y25739492D01*
X-99894006Y25667879D01*
X-99738410Y25563913D01*
X-99606087Y25431590D01*
X-99502121Y25275994D01*
X-99430508Y25103105D01*
X-99394000Y24919567D01*
X-99394000Y24732433D01*
X-99430508Y24548895D01*
X-99502121Y24376006D01*
X-99606087Y24220410D01*
X-99738410Y24088087D01*
X-99894006Y23984121D01*
X-100066895Y23912508D01*
X-100109874Y23903959D01*
X-100250432Y23876000D01*
X-100437568Y23876000D01*
X-100578126Y23903959D01*
X-100621105Y23912508D01*
X-100793994Y23984121D01*
X-100949590Y24088087D01*
X-101081913Y24220410D01*
X-101185879Y24376006D01*
X-101257492Y24548895D01*
X-101294000Y24732433D01*
X-101294000Y24919567D01*
X-101257492Y25103105D01*
X-101185879Y25275994D01*
X-101081913Y25431590D01*
X-100949590Y25563913D01*
X-100793994Y25667879D01*
X-100621105Y25739492D01*
X-100529336Y25757746D01*
X-100437568Y25776000D01*
X-100250432Y25776000D01*
X-100158664Y25757746D01*
G37*
G36*
X-78025000Y24170000D02*
G01*
X-80975000Y24170000D01*
X-80975000Y25630000D01*
X-78025000Y25630000D01*
X-78025000Y24170000D01*
G37*
G36*
X-51867519Y27644814D02*
G01*
X-51822795Y27631246D01*
X-51781570Y27609211D01*
X-51745439Y27579561D01*
X-51715789Y27543430D01*
X-51693754Y27502205D01*
X-51680186Y27457481D01*
X-51675000Y27404824D01*
X-51675000Y26070176D01*
X-51680186Y26017519D01*
X-51693754Y25972795D01*
X-51715789Y25931570D01*
X-51745439Y25895439D01*
X-51781570Y25865789D01*
X-51822795Y25843754D01*
X-51867519Y25830186D01*
X-51920176Y25825000D01*
X-53579824Y25825000D01*
X-53632481Y25830186D01*
X-53677205Y25843754D01*
X-53718430Y25865789D01*
X-53754561Y25895439D01*
X-53784211Y25931570D01*
X-53806246Y25972795D01*
X-53819814Y26017519D01*
X-53825000Y26070176D01*
X-53825000Y27404824D01*
X-53819814Y27457481D01*
X-53806246Y27502205D01*
X-53784211Y27543430D01*
X-53754561Y27579561D01*
X-53718430Y27609211D01*
X-53677205Y27631246D01*
X-53632481Y27644814D01*
X-53579824Y27650000D01*
X-51920176Y27650000D01*
X-51867519Y27644814D01*
G37*
G36*
X-79925000Y26370000D02*
G01*
X-80975000Y26370000D01*
X-80975000Y27830000D01*
X-79925000Y27830000D01*
X-79925000Y26370000D01*
G37*
G36*
X-78025000Y26370000D02*
G01*
X-79075000Y26370000D01*
X-79075000Y27830000D01*
X-78025000Y27830000D01*
X-78025000Y26370000D01*
G37*
G36*
X-47867519Y28644814D02*
G01*
X-47822795Y28631246D01*
X-47781570Y28609211D01*
X-47745439Y28579561D01*
X-47715789Y28543430D01*
X-47693754Y28502205D01*
X-47680186Y28457481D01*
X-47675000Y28404824D01*
X-47675000Y27070176D01*
X-47680186Y27017519D01*
X-47693754Y26972795D01*
X-47715789Y26931570D01*
X-47745439Y26895439D01*
X-47781570Y26865789D01*
X-47822795Y26843754D01*
X-47867519Y26830186D01*
X-47920176Y26825000D01*
X-49579824Y26825000D01*
X-49632481Y26830186D01*
X-49677205Y26843754D01*
X-49718430Y26865789D01*
X-49754561Y26895439D01*
X-49784211Y26931570D01*
X-49806246Y26972795D01*
X-49819814Y27017519D01*
X-49825000Y27070176D01*
X-49825000Y28404824D01*
X-49819814Y28457481D01*
X-49806246Y28502205D01*
X-49784211Y28543430D01*
X-49754561Y28579561D01*
X-49718430Y28609211D01*
X-49677205Y28631246D01*
X-49632481Y28644814D01*
X-49579824Y28650000D01*
X-47920176Y28650000D01*
X-47867519Y28644814D01*
G37*
G36*
X-76956319Y31069814D02*
G01*
X-76911595Y31056246D01*
X-76870370Y31034211D01*
X-76834239Y31004561D01*
X-76804589Y30968430D01*
X-76782554Y30927205D01*
X-76768986Y30882481D01*
X-76763800Y30829824D01*
X-76763800Y29170176D01*
X-76768986Y29117519D01*
X-76782554Y29072795D01*
X-76804589Y29031570D01*
X-76834239Y28995439D01*
X-76870370Y28965789D01*
X-76911595Y28943754D01*
X-76956319Y28930186D01*
X-77008976Y28925000D01*
X-78343624Y28925000D01*
X-78396281Y28930186D01*
X-78441005Y28943754D01*
X-78482230Y28965789D01*
X-78518361Y28995439D01*
X-78548011Y29031570D01*
X-78570046Y29072795D01*
X-78583614Y29117519D01*
X-78588800Y29170176D01*
X-78588800Y30829824D01*
X-78583614Y30882481D01*
X-78570046Y30927205D01*
X-78548011Y30968430D01*
X-78518361Y31004561D01*
X-78482230Y31034211D01*
X-78441005Y31056246D01*
X-78396281Y31069814D01*
X-78343624Y31075000D01*
X-77008976Y31075000D01*
X-76956319Y31069814D01*
G37*
G36*
X-79931319Y31069814D02*
G01*
X-79886595Y31056246D01*
X-79845370Y31034211D01*
X-79809239Y31004561D01*
X-79779589Y30968430D01*
X-79757554Y30927205D01*
X-79743986Y30882481D01*
X-79738800Y30829824D01*
X-79738800Y29170176D01*
X-79743986Y29117519D01*
X-79757554Y29072795D01*
X-79779589Y29031570D01*
X-79809239Y28995439D01*
X-79845370Y28965789D01*
X-79886595Y28943754D01*
X-79931319Y28930186D01*
X-79983976Y28925000D01*
X-81318624Y28925000D01*
X-81371281Y28930186D01*
X-81416005Y28943754D01*
X-81457230Y28965789D01*
X-81493361Y28995439D01*
X-81523011Y29031570D01*
X-81545046Y29072795D01*
X-81558614Y29117519D01*
X-81563800Y29170176D01*
X-81563800Y30829824D01*
X-81558614Y30882481D01*
X-81545046Y30927205D01*
X-81523011Y30968430D01*
X-81493361Y31004561D01*
X-81457230Y31034211D01*
X-81416005Y31056246D01*
X-81371281Y31069814D01*
X-81318624Y31075000D01*
X-79983976Y31075000D01*
X-79931319Y31069814D01*
G37*
G36*
X-41617519Y31419814D02*
G01*
X-41572795Y31406246D01*
X-41531570Y31384211D01*
X-41495439Y31354561D01*
X-41465789Y31318430D01*
X-41443754Y31277205D01*
X-41430186Y31232481D01*
X-41425000Y31179824D01*
X-41425000Y29845176D01*
X-41430186Y29792519D01*
X-41443754Y29747795D01*
X-41465789Y29706570D01*
X-41495439Y29670439D01*
X-41531570Y29640789D01*
X-41572795Y29618754D01*
X-41617519Y29605186D01*
X-41670176Y29600000D01*
X-43329824Y29600000D01*
X-43382481Y29605186D01*
X-43427205Y29618754D01*
X-43468430Y29640789D01*
X-43504561Y29670439D01*
X-43534211Y29706570D01*
X-43556246Y29747795D01*
X-43569814Y29792519D01*
X-43575000Y29845176D01*
X-43575000Y31179824D01*
X-43569814Y31232481D01*
X-43556246Y31277205D01*
X-43534211Y31318430D01*
X-43504561Y31354561D01*
X-43468430Y31384211D01*
X-43427205Y31406246D01*
X-43382481Y31419814D01*
X-43329824Y31425000D01*
X-41670176Y31425000D01*
X-41617519Y31419814D01*
G37*
G36*
X-52453968Y31901531D02*
G01*
X-52359716Y31872940D01*
X-52265465Y31844349D01*
X-52265463Y31844348D01*
X-52091742Y31751493D01*
X-51939472Y31626528D01*
X-51814507Y31474258D01*
X-51721652Y31300537D01*
X-51664469Y31112032D01*
X-51645162Y30916000D01*
X-51664469Y30719968D01*
X-51721652Y30531463D01*
X-51814507Y30357742D01*
X-51939472Y30205472D01*
X-52091742Y30080507D01*
X-52265463Y29987652D01*
X-52265465Y29987651D01*
X-52359715Y29959061D01*
X-52453968Y29930469D01*
X-52600876Y29916000D01*
X-53399124Y29916000D01*
X-53546032Y29930469D01*
X-53640285Y29959061D01*
X-53734535Y29987651D01*
X-53734537Y29987652D01*
X-53908258Y30080507D01*
X-54060528Y30205472D01*
X-54185493Y30357742D01*
X-54278348Y30531463D01*
X-54335531Y30719968D01*
X-54354838Y30916000D01*
X-54335531Y31112032D01*
X-54278348Y31300537D01*
X-54185493Y31474258D01*
X-54060528Y31626528D01*
X-53908258Y31751493D01*
X-53734537Y31844348D01*
X-53734535Y31844349D01*
X-53640284Y31872940D01*
X-53546032Y31901531D01*
X-53399124Y31916000D01*
X-52600876Y31916000D01*
X-52453968Y31901531D01*
G37*
G36*
X-44833968Y31901531D02*
G01*
X-44739716Y31872940D01*
X-44645465Y31844349D01*
X-44645463Y31844348D01*
X-44471742Y31751493D01*
X-44319472Y31626528D01*
X-44194507Y31474258D01*
X-44101652Y31300537D01*
X-44044469Y31112032D01*
X-44025162Y30916000D01*
X-44044469Y30719968D01*
X-44101652Y30531463D01*
X-44194507Y30357742D01*
X-44319472Y30205472D01*
X-44471742Y30080507D01*
X-44645463Y29987652D01*
X-44645465Y29987651D01*
X-44739715Y29959061D01*
X-44833968Y29930469D01*
X-44980876Y29916000D01*
X-45779124Y29916000D01*
X-45926032Y29930469D01*
X-46020285Y29959061D01*
X-46114535Y29987651D01*
X-46114537Y29987652D01*
X-46288258Y30080507D01*
X-46440528Y30205472D01*
X-46565493Y30357742D01*
X-46658348Y30531463D01*
X-46715531Y30719968D01*
X-46734838Y30916000D01*
X-46715531Y31112032D01*
X-46658348Y31300537D01*
X-46565493Y31474258D01*
X-46440528Y31626528D01*
X-46288258Y31751493D01*
X-46114537Y31844348D01*
X-46114535Y31844349D01*
X-46020284Y31872940D01*
X-45926032Y31901531D01*
X-45779124Y31916000D01*
X-44980876Y31916000D01*
X-44833968Y31901531D01*
G37*
G36*
X-65993968Y32021531D02*
G01*
X-65899716Y31992940D01*
X-65805465Y31964349D01*
X-65805463Y31964348D01*
X-65631742Y31871493D01*
X-65479472Y31746528D01*
X-65354507Y31594258D01*
X-65264038Y31425000D01*
X-65261651Y31420535D01*
X-65246637Y31371041D01*
X-65204469Y31232032D01*
X-65185162Y31036000D01*
X-65204469Y30839968D01*
X-65261652Y30651463D01*
X-65354507Y30477742D01*
X-65479472Y30325472D01*
X-65631742Y30200507D01*
X-65805463Y30107652D01*
X-65805465Y30107651D01*
X-65894944Y30080508D01*
X-65993968Y30050469D01*
X-66140876Y30036000D01*
X-66939124Y30036000D01*
X-67086032Y30050469D01*
X-67185056Y30080508D01*
X-67274535Y30107651D01*
X-67274537Y30107652D01*
X-67448258Y30200507D01*
X-67600528Y30325472D01*
X-67725493Y30477742D01*
X-67818348Y30651463D01*
X-67875531Y30839968D01*
X-67894838Y31036000D01*
X-67875531Y31232032D01*
X-67833363Y31371041D01*
X-67818349Y31420535D01*
X-67815962Y31425000D01*
X-67725493Y31594258D01*
X-67600528Y31746528D01*
X-67448258Y31871493D01*
X-67274537Y31964348D01*
X-67274535Y31964349D01*
X-67180284Y31992940D01*
X-67086032Y32021531D01*
X-66939124Y32036000D01*
X-66140876Y32036000D01*
X-65993968Y32021531D01*
G37*
G36*
X-73613968Y32021531D02*
G01*
X-73519716Y31992940D01*
X-73425465Y31964349D01*
X-73425463Y31964348D01*
X-73251742Y31871493D01*
X-73099472Y31746528D01*
X-72974507Y31594258D01*
X-72884038Y31425000D01*
X-72881651Y31420535D01*
X-72866637Y31371041D01*
X-72824469Y31232032D01*
X-72805162Y31036000D01*
X-72824469Y30839968D01*
X-72881652Y30651463D01*
X-72974507Y30477742D01*
X-73099472Y30325472D01*
X-73251742Y30200507D01*
X-73425463Y30107652D01*
X-73425465Y30107651D01*
X-73514944Y30080508D01*
X-73613968Y30050469D01*
X-73760876Y30036000D01*
X-74559124Y30036000D01*
X-74706032Y30050469D01*
X-74805056Y30080508D01*
X-74894535Y30107651D01*
X-74894537Y30107652D01*
X-75068258Y30200507D01*
X-75220528Y30325472D01*
X-75345493Y30477742D01*
X-75438348Y30651463D01*
X-75495531Y30839968D01*
X-75514838Y31036000D01*
X-75495531Y31232032D01*
X-75453363Y31371041D01*
X-75438349Y31420535D01*
X-75435962Y31425000D01*
X-75345493Y31594258D01*
X-75220528Y31746528D01*
X-75068258Y31871493D01*
X-74894537Y31964348D01*
X-74894535Y31964349D01*
X-74800284Y31992940D01*
X-74706032Y32021531D01*
X-74559124Y32036000D01*
X-73760876Y32036000D01*
X-73613968Y32021531D01*
G37*
G36*
X-89733591Y32772650D02*
G01*
X-89566895Y32739492D01*
X-89394006Y32667879D01*
X-89238410Y32563913D01*
X-89106087Y32431590D01*
X-89002121Y32275994D01*
X-88930508Y32103105D01*
X-88930508Y32103104D01*
X-88902907Y31964348D01*
X-88894000Y31919567D01*
X-88894000Y31732433D01*
X-88930508Y31548895D01*
X-89002121Y31376006D01*
X-89106087Y31220410D01*
X-89238410Y31088087D01*
X-89394006Y30984121D01*
X-89566895Y30912508D01*
X-89658664Y30894254D01*
X-89750432Y30876000D01*
X-89937568Y30876000D01*
X-90029336Y30894254D01*
X-90121105Y30912508D01*
X-90293994Y30984121D01*
X-90449590Y31088087D01*
X-90581913Y31220410D01*
X-90685879Y31376006D01*
X-90757492Y31548895D01*
X-90794000Y31732433D01*
X-90794000Y31919567D01*
X-90785092Y31964348D01*
X-90757492Y32103104D01*
X-90757492Y32103105D01*
X-90685879Y32275994D01*
X-90581913Y32431590D01*
X-90449590Y32563913D01*
X-90293994Y32667879D01*
X-90121105Y32739492D01*
X-89954409Y32772650D01*
X-89937568Y32776000D01*
X-89750432Y32776000D01*
X-89733591Y32772650D01*
G37*
G36*
X-115733591Y32772650D02*
G01*
X-115566895Y32739492D01*
X-115394006Y32667879D01*
X-115238410Y32563913D01*
X-115106087Y32431590D01*
X-115002121Y32275994D01*
X-114930508Y32103105D01*
X-114930508Y32103104D01*
X-114902907Y31964348D01*
X-114894000Y31919567D01*
X-114894000Y31732433D01*
X-114930508Y31548895D01*
X-115002121Y31376006D01*
X-115106087Y31220410D01*
X-115238410Y31088087D01*
X-115394006Y30984121D01*
X-115566895Y30912508D01*
X-115658664Y30894254D01*
X-115750432Y30876000D01*
X-115937568Y30876000D01*
X-116029336Y30894254D01*
X-116121105Y30912508D01*
X-116293994Y30984121D01*
X-116449590Y31088087D01*
X-116581913Y31220410D01*
X-116685879Y31376006D01*
X-116757492Y31548895D01*
X-116794000Y31732433D01*
X-116794000Y31919567D01*
X-116785092Y31964348D01*
X-116757492Y32103104D01*
X-116757492Y32103105D01*
X-116685879Y32275994D01*
X-116581913Y32431590D01*
X-116449590Y32563913D01*
X-116293994Y32667879D01*
X-116121105Y32739492D01*
X-115954409Y32772650D01*
X-115937568Y32776000D01*
X-115750432Y32776000D01*
X-115733591Y32772650D01*
G37*
G36*
X-7733591Y32772650D02*
G01*
X-7566895Y32739492D01*
X-7394006Y32667879D01*
X-7238410Y32563913D01*
X-7106087Y32431590D01*
X-7002121Y32275994D01*
X-6930508Y32103105D01*
X-6930508Y32103104D01*
X-6902907Y31964348D01*
X-6894000Y31919567D01*
X-6894000Y31732433D01*
X-6930508Y31548895D01*
X-7002121Y31376006D01*
X-7106087Y31220410D01*
X-7238410Y31088087D01*
X-7394006Y30984121D01*
X-7566895Y30912508D01*
X-7658664Y30894254D01*
X-7750432Y30876000D01*
X-7937568Y30876000D01*
X-8029336Y30894254D01*
X-8121105Y30912508D01*
X-8293994Y30984121D01*
X-8449590Y31088087D01*
X-8581913Y31220410D01*
X-8685879Y31376006D01*
X-8757492Y31548895D01*
X-8794000Y31732433D01*
X-8794000Y31919567D01*
X-8785092Y31964348D01*
X-8757492Y32103104D01*
X-8757492Y32103105D01*
X-8685879Y32275994D01*
X-8581913Y32431590D01*
X-8449590Y32563913D01*
X-8293994Y32667879D01*
X-8121105Y32739492D01*
X-7954409Y32772650D01*
X-7937568Y32776000D01*
X-7750432Y32776000D01*
X-7733591Y32772650D01*
G37*
G36*
X-33233591Y32772650D02*
G01*
X-33066895Y32739492D01*
X-32894006Y32667879D01*
X-32738410Y32563913D01*
X-32606087Y32431590D01*
X-32502121Y32275994D01*
X-32430508Y32103105D01*
X-32430508Y32103104D01*
X-32402907Y31964348D01*
X-32394000Y31919567D01*
X-32394000Y31732433D01*
X-32430508Y31548895D01*
X-32502121Y31376006D01*
X-32606087Y31220410D01*
X-32738410Y31088087D01*
X-32894006Y30984121D01*
X-33066895Y30912508D01*
X-33158664Y30894254D01*
X-33250432Y30876000D01*
X-33437568Y30876000D01*
X-33529336Y30894254D01*
X-33621105Y30912508D01*
X-33793994Y30984121D01*
X-33949590Y31088087D01*
X-34081913Y31220410D01*
X-34185879Y31376006D01*
X-34257492Y31548895D01*
X-34294000Y31732433D01*
X-34294000Y31919567D01*
X-34285092Y31964348D01*
X-34257492Y32103104D01*
X-34257492Y32103105D01*
X-34185879Y32275994D01*
X-34081913Y32431590D01*
X-33949590Y32563913D01*
X-33793994Y32667879D01*
X-33621105Y32739492D01*
X-33454409Y32772650D01*
X-33437568Y32776000D01*
X-33250432Y32776000D01*
X-33233591Y32772650D01*
G37*
G36*
X-113233591Y32772650D02*
G01*
X-113066895Y32739492D01*
X-112894006Y32667879D01*
X-112738410Y32563913D01*
X-112606087Y32431590D01*
X-112502121Y32275994D01*
X-112430508Y32103105D01*
X-112430508Y32103104D01*
X-112402907Y31964348D01*
X-112394000Y31919567D01*
X-112394000Y31732433D01*
X-112430508Y31548895D01*
X-112502121Y31376006D01*
X-112606087Y31220410D01*
X-112738410Y31088087D01*
X-112894006Y30984121D01*
X-113066895Y30912508D01*
X-113158664Y30894254D01*
X-113250432Y30876000D01*
X-113437568Y30876000D01*
X-113529336Y30894254D01*
X-113621105Y30912508D01*
X-113793994Y30984121D01*
X-113949590Y31088087D01*
X-114081913Y31220410D01*
X-114185879Y31376006D01*
X-114257492Y31548895D01*
X-114294000Y31732433D01*
X-114294000Y31919567D01*
X-114285092Y31964348D01*
X-114257492Y32103104D01*
X-114257492Y32103105D01*
X-114185879Y32275994D01*
X-114081913Y32431590D01*
X-113949590Y32563913D01*
X-113793994Y32667879D01*
X-113621105Y32739492D01*
X-113454409Y32772650D01*
X-113437568Y32776000D01*
X-113250432Y32776000D01*
X-113233591Y32772650D01*
G37*
G36*
X-110733591Y32772650D02*
G01*
X-110566895Y32739492D01*
X-110394006Y32667879D01*
X-110238410Y32563913D01*
X-110106087Y32431590D01*
X-110002121Y32275994D01*
X-109930508Y32103105D01*
X-109930508Y32103104D01*
X-109902907Y31964348D01*
X-109894000Y31919567D01*
X-109894000Y31732433D01*
X-109930508Y31548895D01*
X-110002121Y31376006D01*
X-110106087Y31220410D01*
X-110238410Y31088087D01*
X-110394006Y30984121D01*
X-110566895Y30912508D01*
X-110658664Y30894254D01*
X-110750432Y30876000D01*
X-110937568Y30876000D01*
X-111029336Y30894254D01*
X-111121105Y30912508D01*
X-111293994Y30984121D01*
X-111449590Y31088087D01*
X-111581913Y31220410D01*
X-111685879Y31376006D01*
X-111757492Y31548895D01*
X-111794000Y31732433D01*
X-111794000Y31919567D01*
X-111785092Y31964348D01*
X-111757492Y32103104D01*
X-111757492Y32103105D01*
X-111685879Y32275994D01*
X-111581913Y32431590D01*
X-111449590Y32563913D01*
X-111293994Y32667879D01*
X-111121105Y32739492D01*
X-110954409Y32772650D01*
X-110937568Y32776000D01*
X-110750432Y32776000D01*
X-110733591Y32772650D01*
G37*
G36*
X-84733591Y32772650D02*
G01*
X-84566895Y32739492D01*
X-84394006Y32667879D01*
X-84238410Y32563913D01*
X-84106087Y32431590D01*
X-84002121Y32275994D01*
X-83930508Y32103105D01*
X-83930508Y32103104D01*
X-83902907Y31964348D01*
X-83894000Y31919567D01*
X-83894000Y31732433D01*
X-83930508Y31548895D01*
X-84002121Y31376006D01*
X-84106087Y31220410D01*
X-84238410Y31088087D01*
X-84394006Y30984121D01*
X-84566895Y30912508D01*
X-84658664Y30894254D01*
X-84750432Y30876000D01*
X-84937568Y30876000D01*
X-85029336Y30894254D01*
X-85121105Y30912508D01*
X-85293994Y30984121D01*
X-85449590Y31088087D01*
X-85581913Y31220410D01*
X-85685879Y31376006D01*
X-85757492Y31548895D01*
X-85794000Y31732433D01*
X-85794000Y31919567D01*
X-85785092Y31964348D01*
X-85757492Y32103104D01*
X-85757492Y32103105D01*
X-85685879Y32275994D01*
X-85581913Y32431590D01*
X-85449590Y32563913D01*
X-85293994Y32667879D01*
X-85121105Y32739492D01*
X-84954409Y32772650D01*
X-84937568Y32776000D01*
X-84750432Y32776000D01*
X-84733591Y32772650D01*
G37*
G36*
X-35733591Y32772650D02*
G01*
X-35566895Y32739492D01*
X-35394006Y32667879D01*
X-35238410Y32563913D01*
X-35106087Y32431590D01*
X-35002121Y32275994D01*
X-34930508Y32103105D01*
X-34930508Y32103104D01*
X-34902907Y31964348D01*
X-34894000Y31919567D01*
X-34894000Y31732433D01*
X-34930508Y31548895D01*
X-35002121Y31376006D01*
X-35106087Y31220410D01*
X-35238410Y31088087D01*
X-35394006Y30984121D01*
X-35566895Y30912508D01*
X-35658664Y30894254D01*
X-35750432Y30876000D01*
X-35937568Y30876000D01*
X-36029336Y30894254D01*
X-36121105Y30912508D01*
X-36293994Y30984121D01*
X-36449590Y31088087D01*
X-36581913Y31220410D01*
X-36685879Y31376006D01*
X-36757492Y31548895D01*
X-36794000Y31732433D01*
X-36794000Y31919567D01*
X-36785092Y31964348D01*
X-36757492Y32103104D01*
X-36757492Y32103105D01*
X-36685879Y32275994D01*
X-36581913Y32431590D01*
X-36449590Y32563913D01*
X-36293994Y32667879D01*
X-36121105Y32739492D01*
X-35954409Y32772650D01*
X-35937568Y32776000D01*
X-35750432Y32776000D01*
X-35733591Y32772650D01*
G37*
G36*
X-30733591Y32772650D02*
G01*
X-30566895Y32739492D01*
X-30394006Y32667879D01*
X-30238410Y32563913D01*
X-30106087Y32431590D01*
X-30002121Y32275994D01*
X-29930508Y32103105D01*
X-29930508Y32103104D01*
X-29902907Y31964348D01*
X-29894000Y31919567D01*
X-29894000Y31732433D01*
X-29930508Y31548895D01*
X-30002121Y31376006D01*
X-30106087Y31220410D01*
X-30238410Y31088087D01*
X-30394006Y30984121D01*
X-30566895Y30912508D01*
X-30658664Y30894254D01*
X-30750432Y30876000D01*
X-30937568Y30876000D01*
X-31029336Y30894254D01*
X-31121105Y30912508D01*
X-31293994Y30984121D01*
X-31449590Y31088087D01*
X-31581913Y31220410D01*
X-31685879Y31376006D01*
X-31757492Y31548895D01*
X-31794000Y31732433D01*
X-31794000Y31919567D01*
X-31785092Y31964348D01*
X-31757492Y32103104D01*
X-31757492Y32103105D01*
X-31685879Y32275994D01*
X-31581913Y32431590D01*
X-31449590Y32563913D01*
X-31293994Y32667879D01*
X-31121105Y32739492D01*
X-30954409Y32772650D01*
X-30937568Y32776000D01*
X-30750432Y32776000D01*
X-30733591Y32772650D01*
G37*
G36*
X-2733591Y32772650D02*
G01*
X-2566895Y32739492D01*
X-2394006Y32667879D01*
X-2238410Y32563913D01*
X-2106087Y32431590D01*
X-2002121Y32275994D01*
X-1930508Y32103105D01*
X-1930508Y32103104D01*
X-1902907Y31964348D01*
X-1894000Y31919567D01*
X-1894000Y31732433D01*
X-1930508Y31548895D01*
X-2002121Y31376006D01*
X-2106087Y31220410D01*
X-2238410Y31088087D01*
X-2394006Y30984121D01*
X-2566895Y30912508D01*
X-2658664Y30894254D01*
X-2750432Y30876000D01*
X-2937568Y30876000D01*
X-3029336Y30894254D01*
X-3121105Y30912508D01*
X-3293994Y30984121D01*
X-3449590Y31088087D01*
X-3581913Y31220410D01*
X-3685879Y31376006D01*
X-3757492Y31548895D01*
X-3794000Y31732433D01*
X-3794000Y31919567D01*
X-3785092Y31964348D01*
X-3757492Y32103104D01*
X-3757492Y32103105D01*
X-3685879Y32275994D01*
X-3581913Y32431590D01*
X-3449590Y32563913D01*
X-3293994Y32667879D01*
X-3121105Y32739492D01*
X-2954409Y32772650D01*
X-2937568Y32776000D01*
X-2750432Y32776000D01*
X-2733591Y32772650D01*
G37*
G36*
X-87233591Y32772650D02*
G01*
X-87066895Y32739492D01*
X-86894006Y32667879D01*
X-86738410Y32563913D01*
X-86606087Y32431590D01*
X-86502121Y32275994D01*
X-86430508Y32103105D01*
X-86430508Y32103104D01*
X-86402907Y31964348D01*
X-86394000Y31919567D01*
X-86394000Y31732433D01*
X-86430508Y31548895D01*
X-86502121Y31376006D01*
X-86606087Y31220410D01*
X-86738410Y31088087D01*
X-86894006Y30984121D01*
X-87066895Y30912508D01*
X-87158664Y30894254D01*
X-87250432Y30876000D01*
X-87437568Y30876000D01*
X-87529336Y30894254D01*
X-87621105Y30912508D01*
X-87793994Y30984121D01*
X-87949590Y31088087D01*
X-88081913Y31220410D01*
X-88185879Y31376006D01*
X-88257492Y31548895D01*
X-88294000Y31732433D01*
X-88294000Y31919567D01*
X-88285092Y31964348D01*
X-88257492Y32103104D01*
X-88257492Y32103105D01*
X-88185879Y32275994D01*
X-88081913Y32431590D01*
X-87949590Y32563913D01*
X-87793994Y32667879D01*
X-87621105Y32739492D01*
X-87454409Y32772650D01*
X-87437568Y32776000D01*
X-87250432Y32776000D01*
X-87233591Y32772650D01*
G37*
G36*
X-5233591Y32772650D02*
G01*
X-5066895Y32739492D01*
X-4894006Y32667879D01*
X-4738410Y32563913D01*
X-4606087Y32431590D01*
X-4502121Y32275994D01*
X-4430508Y32103105D01*
X-4430508Y32103104D01*
X-4402907Y31964348D01*
X-4394000Y31919567D01*
X-4394000Y31732433D01*
X-4430508Y31548895D01*
X-4502121Y31376006D01*
X-4606087Y31220410D01*
X-4738410Y31088087D01*
X-4894006Y30984121D01*
X-5066895Y30912508D01*
X-5158664Y30894254D01*
X-5250432Y30876000D01*
X-5437568Y30876000D01*
X-5529336Y30894254D01*
X-5621105Y30912508D01*
X-5793994Y30984121D01*
X-5949590Y31088087D01*
X-6081913Y31220410D01*
X-6185879Y31376006D01*
X-6257492Y31548895D01*
X-6294000Y31732433D01*
X-6294000Y31919567D01*
X-6285092Y31964348D01*
X-6257492Y32103104D01*
X-6257492Y32103105D01*
X-6185879Y32275994D01*
X-6081913Y32431590D01*
X-5949590Y32563913D01*
X-5793994Y32667879D01*
X-5621105Y32739492D01*
X-5454409Y32772650D01*
X-5437568Y32776000D01*
X-5250432Y32776000D01*
X-5233591Y32772650D01*
G37*
G36*
X-44833968Y34441531D02*
G01*
X-44739716Y34412940D01*
X-44645465Y34384349D01*
X-44645463Y34384348D01*
X-44471742Y34291493D01*
X-44319472Y34166528D01*
X-44194507Y34014258D01*
X-44101652Y33840537D01*
X-44044469Y33652032D01*
X-44025162Y33456000D01*
X-44044469Y33259968D01*
X-44101652Y33071463D01*
X-44194507Y32897742D01*
X-44319472Y32745472D01*
X-44471742Y32620507D01*
X-44645463Y32527652D01*
X-44645465Y32527651D01*
X-44736618Y32500000D01*
X-44833968Y32470469D01*
X-44980876Y32456000D01*
X-45779124Y32456000D01*
X-45926032Y32470469D01*
X-46023382Y32500000D01*
X-46114535Y32527651D01*
X-46114537Y32527652D01*
X-46288258Y32620507D01*
X-46440528Y32745472D01*
X-46565493Y32897742D01*
X-46658348Y33071463D01*
X-46715531Y33259968D01*
X-46734838Y33456000D01*
X-46715531Y33652032D01*
X-46658348Y33840537D01*
X-46565493Y34014258D01*
X-46440528Y34166528D01*
X-46288258Y34291493D01*
X-46114537Y34384348D01*
X-46114535Y34384349D01*
X-46020284Y34412940D01*
X-45926032Y34441531D01*
X-45779124Y34456000D01*
X-44980876Y34456000D01*
X-44833968Y34441531D01*
G37*
G36*
X-52453968Y34441531D02*
G01*
X-52359716Y34412940D01*
X-52265465Y34384349D01*
X-52265463Y34384348D01*
X-52091742Y34291493D01*
X-51939472Y34166528D01*
X-51814507Y34014258D01*
X-51721652Y33840537D01*
X-51664469Y33652032D01*
X-51645162Y33456000D01*
X-51664469Y33259968D01*
X-51721652Y33071463D01*
X-51814507Y32897742D01*
X-51939472Y32745472D01*
X-52091742Y32620507D01*
X-52265463Y32527652D01*
X-52265465Y32527651D01*
X-52356618Y32500000D01*
X-52453968Y32470469D01*
X-52600876Y32456000D01*
X-53399124Y32456000D01*
X-53546032Y32470469D01*
X-53643382Y32500000D01*
X-53734535Y32527651D01*
X-53734537Y32527652D01*
X-53908258Y32620507D01*
X-54060528Y32745472D01*
X-54185493Y32897742D01*
X-54278348Y33071463D01*
X-54335531Y33259968D01*
X-54354838Y33456000D01*
X-54335531Y33652032D01*
X-54278348Y33840537D01*
X-54185493Y34014258D01*
X-54060528Y34166528D01*
X-53908258Y34291493D01*
X-53734537Y34384348D01*
X-53734535Y34384349D01*
X-53640284Y34412940D01*
X-53546032Y34441531D01*
X-53399124Y34456000D01*
X-52600876Y34456000D01*
X-52453968Y34441531D01*
G37*
G36*
X-38500000Y32500000D02*
G01*
X-40500000Y32500000D01*
X-40500000Y34500000D01*
X-38500000Y34500000D01*
X-38500000Y32500000D01*
G37*
G36*
X-41617519Y34394814D02*
G01*
X-41572795Y34381246D01*
X-41531570Y34359211D01*
X-41495439Y34329561D01*
X-41465789Y34293430D01*
X-41443754Y34252205D01*
X-41430186Y34207481D01*
X-41425000Y34154824D01*
X-41425000Y32820176D01*
X-41430186Y32767519D01*
X-41443754Y32722795D01*
X-41465789Y32681570D01*
X-41495439Y32645439D01*
X-41531570Y32615789D01*
X-41572795Y32593754D01*
X-41617519Y32580186D01*
X-41670176Y32575000D01*
X-43329824Y32575000D01*
X-43382481Y32580186D01*
X-43427205Y32593754D01*
X-43468430Y32615789D01*
X-43504561Y32645439D01*
X-43534211Y32681570D01*
X-43556246Y32722795D01*
X-43569814Y32767519D01*
X-43575000Y32820176D01*
X-43575000Y34154824D01*
X-43569814Y34207481D01*
X-43556246Y34252205D01*
X-43534211Y34293430D01*
X-43504561Y34329561D01*
X-43468430Y34359211D01*
X-43427205Y34381246D01*
X-43382481Y34394814D01*
X-43329824Y34400000D01*
X-41670176Y34400000D01*
X-41617519Y34394814D01*
G37*
G36*
X-65993968Y34561531D02*
G01*
X-65899715Y34532939D01*
X-65805465Y34504349D01*
X-65805463Y34504348D01*
X-65631742Y34411493D01*
X-65479472Y34286528D01*
X-65354507Y34134258D01*
X-65261652Y33960537D01*
X-65261651Y33960535D01*
X-65257054Y33945380D01*
X-65204469Y33772032D01*
X-65185162Y33576000D01*
X-65204469Y33379968D01*
X-65204470Y33379966D01*
X-65258194Y33202860D01*
X-65261652Y33191463D01*
X-65354507Y33017742D01*
X-65479472Y32865472D01*
X-65631742Y32740507D01*
X-65765941Y32668777D01*
X-65805465Y32647651D01*
X-65894944Y32620508D01*
X-65993968Y32590469D01*
X-66140876Y32576000D01*
X-66939124Y32576000D01*
X-67086032Y32590469D01*
X-67185056Y32620508D01*
X-67274535Y32647651D01*
X-67314059Y32668777D01*
X-67448258Y32740507D01*
X-67600528Y32865472D01*
X-67725493Y33017742D01*
X-67818348Y33191463D01*
X-67821805Y33202860D01*
X-67875530Y33379966D01*
X-67875531Y33379968D01*
X-67894838Y33576000D01*
X-67875531Y33772032D01*
X-67822946Y33945380D01*
X-67818349Y33960535D01*
X-67818348Y33960537D01*
X-67725493Y34134258D01*
X-67600528Y34286528D01*
X-67448258Y34411493D01*
X-67274537Y34504348D01*
X-67274535Y34504349D01*
X-67180285Y34532939D01*
X-67086032Y34561531D01*
X-66939124Y34576000D01*
X-66140876Y34576000D01*
X-65993968Y34561531D01*
G37*
G36*
X-73613968Y34561531D02*
G01*
X-73519715Y34532939D01*
X-73425465Y34504349D01*
X-73425463Y34504348D01*
X-73251742Y34411493D01*
X-73099472Y34286528D01*
X-72974507Y34134258D01*
X-72881652Y33960537D01*
X-72881651Y33960535D01*
X-72877054Y33945380D01*
X-72824469Y33772032D01*
X-72805162Y33576000D01*
X-72824469Y33379968D01*
X-72824470Y33379966D01*
X-72878194Y33202860D01*
X-72881652Y33191463D01*
X-72974507Y33017742D01*
X-73099472Y32865472D01*
X-73251742Y32740507D01*
X-73385941Y32668777D01*
X-73425465Y32647651D01*
X-73514944Y32620508D01*
X-73613968Y32590469D01*
X-73760876Y32576000D01*
X-74559124Y32576000D01*
X-74706032Y32590469D01*
X-74805056Y32620508D01*
X-74894535Y32647651D01*
X-74934059Y32668777D01*
X-75068258Y32740507D01*
X-75220528Y32865472D01*
X-75345493Y33017742D01*
X-75438348Y33191463D01*
X-75441805Y33202860D01*
X-75495530Y33379966D01*
X-75495531Y33379968D01*
X-75514838Y33576000D01*
X-75495531Y33772032D01*
X-75442946Y33945380D01*
X-75438349Y33960535D01*
X-75438348Y33960537D01*
X-75345493Y34134258D01*
X-75220528Y34286528D01*
X-75068258Y34411493D01*
X-74894537Y34504348D01*
X-74894535Y34504349D01*
X-74800285Y34532939D01*
X-74706032Y34561531D01*
X-74559124Y34576000D01*
X-73760876Y34576000D01*
X-73613968Y34561531D01*
G37*
G36*
X-78000000Y32576000D02*
G01*
X-80000000Y32576000D01*
X-80000000Y34576000D01*
X-78000000Y34576000D01*
X-78000000Y32576000D01*
G37*
G36*
X-99978838Y36563414D02*
G01*
X-99804959Y36528827D01*
X-99477380Y36393139D01*
X-99182567Y36196151D01*
X-98931849Y35945433D01*
X-98734861Y35650620D01*
X-98599173Y35323041D01*
X-98572243Y35187652D01*
X-98530000Y34975286D01*
X-98530000Y34620714D01*
X-98541773Y34561530D01*
X-98599173Y34272959D01*
X-98706331Y34014258D01*
X-98728583Y33960535D01*
X-98734861Y33945380D01*
X-98931849Y33650567D01*
X-99182567Y33399849D01*
X-99477380Y33202861D01*
X-99804959Y33067173D01*
X-99978837Y33032587D01*
X-100152714Y32998000D01*
X-100507286Y32998000D01*
X-100681163Y33032587D01*
X-100855041Y33067173D01*
X-101182620Y33202861D01*
X-101477433Y33399849D01*
X-101728151Y33650567D01*
X-101925139Y33945380D01*
X-101931416Y33960535D01*
X-101953669Y34014258D01*
X-102060827Y34272959D01*
X-102118227Y34561530D01*
X-102130000Y34620714D01*
X-102130000Y34975286D01*
X-102087757Y35187652D01*
X-102060827Y35323041D01*
X-101925139Y35650620D01*
X-101728151Y35945433D01*
X-101477433Y36196151D01*
X-101182620Y36393139D01*
X-100855041Y36528827D01*
X-100681162Y36563414D01*
X-100507286Y36598000D01*
X-100152714Y36598000D01*
X-99978838Y36563414D01*
G37*
G36*
X-20095838Y36563414D02*
G01*
X-19921959Y36528827D01*
X-19594380Y36393139D01*
X-19299567Y36196151D01*
X-19048849Y35945433D01*
X-18851861Y35650620D01*
X-18716173Y35323041D01*
X-18689243Y35187652D01*
X-18647000Y34975286D01*
X-18647000Y34620714D01*
X-18658773Y34561530D01*
X-18716173Y34272959D01*
X-18823331Y34014258D01*
X-18845583Y33960535D01*
X-18851861Y33945380D01*
X-19048849Y33650567D01*
X-19299567Y33399849D01*
X-19594380Y33202861D01*
X-19921959Y33067173D01*
X-20095838Y33032586D01*
X-20269714Y32998000D01*
X-20624286Y32998000D01*
X-20798163Y33032587D01*
X-20972041Y33067173D01*
X-21299620Y33202861D01*
X-21594433Y33399849D01*
X-21845151Y33650567D01*
X-22042139Y33945380D01*
X-22048416Y33960535D01*
X-22070669Y34014258D01*
X-22177827Y34272959D01*
X-22235227Y34561530D01*
X-22247000Y34620714D01*
X-22247000Y34975286D01*
X-22204757Y35187652D01*
X-22177827Y35323041D01*
X-22042139Y35650620D01*
X-21845151Y35945433D01*
X-21594433Y36196151D01*
X-21299620Y36393139D01*
X-20972041Y36528827D01*
X-20798162Y36563414D01*
X-20624286Y36598000D01*
X-20269714Y36598000D01*
X-20095838Y36563414D01*
G37*
G36*
X-52453968Y36981531D02*
G01*
X-52359715Y36952939D01*
X-52265465Y36924349D01*
X-52265463Y36924348D01*
X-52091742Y36831493D01*
X-51939472Y36706528D01*
X-51814507Y36554258D01*
X-51728388Y36393139D01*
X-51721651Y36380535D01*
X-51700872Y36312034D01*
X-51664469Y36192032D01*
X-51645162Y35996000D01*
X-51664469Y35799968D01*
X-51664470Y35799966D01*
X-51709773Y35650620D01*
X-51721652Y35611463D01*
X-51814507Y35437742D01*
X-51939472Y35285472D01*
X-52091742Y35160507D01*
X-52265463Y35067652D01*
X-52265465Y35067651D01*
X-52356618Y35040000D01*
X-52453968Y35010469D01*
X-52600876Y34996000D01*
X-53399124Y34996000D01*
X-53546032Y35010469D01*
X-53643382Y35040000D01*
X-53734535Y35067651D01*
X-53734537Y35067652D01*
X-53908258Y35160507D01*
X-54060528Y35285472D01*
X-54185493Y35437742D01*
X-54278348Y35611463D01*
X-54290226Y35650620D01*
X-54335530Y35799966D01*
X-54335531Y35799968D01*
X-54354838Y35996000D01*
X-54335531Y36192032D01*
X-54299128Y36312034D01*
X-54278349Y36380535D01*
X-54271612Y36393139D01*
X-54185493Y36554258D01*
X-54060528Y36706528D01*
X-53908258Y36831493D01*
X-53734537Y36924348D01*
X-53734535Y36924349D01*
X-53640285Y36952939D01*
X-53546032Y36981531D01*
X-53399124Y36996000D01*
X-52600876Y36996000D01*
X-52453968Y36981531D01*
G37*
G36*
X-44833968Y36981531D02*
G01*
X-44739715Y36952939D01*
X-44645465Y36924349D01*
X-44645463Y36924348D01*
X-44471742Y36831493D01*
X-44319472Y36706528D01*
X-44194507Y36554258D01*
X-44108388Y36393139D01*
X-44101651Y36380535D01*
X-44080872Y36312034D01*
X-44044469Y36192032D01*
X-44025162Y35996000D01*
X-44044469Y35799968D01*
X-44044470Y35799966D01*
X-44089773Y35650620D01*
X-44101652Y35611463D01*
X-44194507Y35437742D01*
X-44319472Y35285472D01*
X-44471742Y35160507D01*
X-44645463Y35067652D01*
X-44645465Y35067651D01*
X-44736618Y35040000D01*
X-44833968Y35010469D01*
X-44980876Y34996000D01*
X-45779124Y34996000D01*
X-45926032Y35010469D01*
X-46023382Y35040000D01*
X-46114535Y35067651D01*
X-46114537Y35067652D01*
X-46288258Y35160507D01*
X-46440528Y35285472D01*
X-46565493Y35437742D01*
X-46658348Y35611463D01*
X-46670226Y35650620D01*
X-46715530Y35799966D01*
X-46715531Y35799968D01*
X-46734838Y35996000D01*
X-46715531Y36192032D01*
X-46679128Y36312034D01*
X-46658349Y36380535D01*
X-46651612Y36393139D01*
X-46565493Y36554258D01*
X-46440528Y36706528D01*
X-46288258Y36831493D01*
X-46114537Y36924348D01*
X-46114535Y36924349D01*
X-46020285Y36952939D01*
X-45926032Y36981531D01*
X-45779124Y36996000D01*
X-44980876Y36996000D01*
X-44833968Y36981531D01*
G37*
G36*
X-39272710Y37014381D02*
G01*
X-39208311Y37001571D01*
X-39026322Y36926189D01*
X-38862537Y36816751D01*
X-38723249Y36677463D01*
X-38613811Y36513678D01*
X-38538429Y36331689D01*
X-38534519Y36312032D01*
X-38500000Y36138493D01*
X-38500000Y35941507D01*
X-38504285Y35919966D01*
X-38538429Y35748311D01*
X-38613811Y35566322D01*
X-38723249Y35402537D01*
X-38862537Y35263249D01*
X-39026322Y35153811D01*
X-39208311Y35078429D01*
X-39262491Y35067652D01*
X-39401507Y35040000D01*
X-39598493Y35040000D01*
X-39737509Y35067652D01*
X-39791689Y35078429D01*
X-39973678Y35153811D01*
X-40137463Y35263249D01*
X-40276751Y35402537D01*
X-40386189Y35566322D01*
X-40461571Y35748311D01*
X-40495715Y35919966D01*
X-40500000Y35941507D01*
X-40500000Y36138493D01*
X-40465481Y36312032D01*
X-40461571Y36331689D01*
X-40386189Y36513678D01*
X-40276751Y36677463D01*
X-40137463Y36816751D01*
X-39973678Y36926189D01*
X-39791689Y37001571D01*
X-39727290Y37014381D01*
X-39598493Y37040000D01*
X-39401507Y37040000D01*
X-39272710Y37014381D01*
G37*
G36*
X-65993968Y37101531D02*
G01*
X-65899716Y37072940D01*
X-65805465Y37044349D01*
X-65805463Y37044348D01*
X-65631742Y36951493D01*
X-65479472Y36826528D01*
X-65354507Y36674258D01*
X-65261652Y36500537D01*
X-65204469Y36312032D01*
X-65185162Y36116000D01*
X-65204469Y35919968D01*
X-65261652Y35731463D01*
X-65354507Y35557742D01*
X-65479472Y35405472D01*
X-65631742Y35280507D01*
X-65805463Y35187652D01*
X-65805465Y35187651D01*
X-65894944Y35160508D01*
X-65993968Y35130469D01*
X-66140876Y35116000D01*
X-66939124Y35116000D01*
X-67086032Y35130469D01*
X-67185056Y35160508D01*
X-67274535Y35187651D01*
X-67274537Y35187652D01*
X-67448258Y35280507D01*
X-67600528Y35405472D01*
X-67725493Y35557742D01*
X-67818348Y35731463D01*
X-67875531Y35919968D01*
X-67894838Y36116000D01*
X-67875531Y36312032D01*
X-67818348Y36500537D01*
X-67725493Y36674258D01*
X-67600528Y36826528D01*
X-67448258Y36951493D01*
X-67274537Y37044348D01*
X-67274535Y37044349D01*
X-67180284Y37072940D01*
X-67086032Y37101531D01*
X-66939124Y37116000D01*
X-66140876Y37116000D01*
X-65993968Y37101531D01*
G37*
G36*
X-78772710Y37090381D02*
G01*
X-78708311Y37077571D01*
X-78526322Y37002189D01*
X-78362537Y36892751D01*
X-78223249Y36753463D01*
X-78113811Y36589678D01*
X-78038429Y36407689D01*
X-78038429Y36407688D01*
X-78000000Y36214493D01*
X-78000000Y36017507D01*
X-78019402Y35919968D01*
X-78038429Y35824311D01*
X-78113811Y35642322D01*
X-78223249Y35478537D01*
X-78362537Y35339249D01*
X-78526322Y35229811D01*
X-78708311Y35154429D01*
X-78772710Y35141619D01*
X-78901507Y35116000D01*
X-79098493Y35116000D01*
X-79227290Y35141619D01*
X-79291689Y35154429D01*
X-79473678Y35229811D01*
X-79637463Y35339249D01*
X-79776751Y35478537D01*
X-79886189Y35642322D01*
X-79961571Y35824311D01*
X-79980598Y35919968D01*
X-80000000Y36017507D01*
X-80000000Y36214493D01*
X-79961571Y36407688D01*
X-79961571Y36407689D01*
X-79886189Y36589678D01*
X-79776751Y36753463D01*
X-79637463Y36892751D01*
X-79473678Y37002189D01*
X-79291689Y37077571D01*
X-79227290Y37090381D01*
X-79098493Y37116000D01*
X-78901507Y37116000D01*
X-78772710Y37090381D01*
G37*
G36*
X-73613968Y37101531D02*
G01*
X-73519716Y37072940D01*
X-73425465Y37044349D01*
X-73425463Y37044348D01*
X-73251742Y36951493D01*
X-73099472Y36826528D01*
X-72974507Y36674258D01*
X-72881652Y36500537D01*
X-72824469Y36312032D01*
X-72805162Y36116000D01*
X-72824469Y35919968D01*
X-72881652Y35731463D01*
X-72974507Y35557742D01*
X-73099472Y35405472D01*
X-73251742Y35280507D01*
X-73425463Y35187652D01*
X-73425465Y35187651D01*
X-73514944Y35160508D01*
X-73613968Y35130469D01*
X-73760876Y35116000D01*
X-74559124Y35116000D01*
X-74706032Y35130469D01*
X-74805056Y35160508D01*
X-74894535Y35187651D01*
X-74894537Y35187652D01*
X-75068258Y35280507D01*
X-75220528Y35405472D01*
X-75345493Y35557742D01*
X-75438348Y35731463D01*
X-75495531Y35919968D01*
X-75514838Y36116000D01*
X-75495531Y36312032D01*
X-75438348Y36500537D01*
X-75345493Y36674258D01*
X-75220528Y36826528D01*
X-75068258Y36951493D01*
X-74894537Y37044348D01*
X-74894535Y37044349D01*
X-74800284Y37072940D01*
X-74706032Y37101531D01*
X-74559124Y37116000D01*
X-73760876Y37116000D01*
X-73613968Y37101531D01*
G37*
G36*
X-2658664Y38757746D02*
G01*
X-2566895Y38739492D01*
X-2394006Y38667879D01*
X-2238410Y38563913D01*
X-2106087Y38431590D01*
X-2002121Y38275994D01*
X-1930508Y38103105D01*
X-1894000Y37919567D01*
X-1894000Y37732433D01*
X-1930508Y37548895D01*
X-2002121Y37376006D01*
X-2106087Y37220410D01*
X-2238410Y37088087D01*
X-2394006Y36984121D01*
X-2566895Y36912508D01*
X-2658664Y36894254D01*
X-2750432Y36876000D01*
X-2937568Y36876000D01*
X-3029336Y36894254D01*
X-3121105Y36912508D01*
X-3293994Y36984121D01*
X-3449590Y37088087D01*
X-3581913Y37220410D01*
X-3685879Y37376006D01*
X-3757492Y37548895D01*
X-3794000Y37732433D01*
X-3794000Y37919567D01*
X-3757492Y38103105D01*
X-3685879Y38275994D01*
X-3581913Y38431590D01*
X-3449590Y38563913D01*
X-3293994Y38667879D01*
X-3121105Y38739492D01*
X-3029336Y38757746D01*
X-2937568Y38776000D01*
X-2750432Y38776000D01*
X-2658664Y38757746D01*
G37*
G36*
X-87158664Y38757746D02*
G01*
X-87066895Y38739492D01*
X-86894006Y38667879D01*
X-86738410Y38563913D01*
X-86606087Y38431590D01*
X-86502121Y38275994D01*
X-86430508Y38103105D01*
X-86394000Y37919567D01*
X-86394000Y37732433D01*
X-86430508Y37548895D01*
X-86502121Y37376006D01*
X-86606087Y37220410D01*
X-86738410Y37088087D01*
X-86894006Y36984121D01*
X-87066895Y36912508D01*
X-87158664Y36894254D01*
X-87250432Y36876000D01*
X-87437568Y36876000D01*
X-87529336Y36894254D01*
X-87621105Y36912508D01*
X-87793994Y36984121D01*
X-87949590Y37088087D01*
X-88081913Y37220410D01*
X-88185879Y37376006D01*
X-88257492Y37548895D01*
X-88294000Y37732433D01*
X-88294000Y37919567D01*
X-88257492Y38103105D01*
X-88185879Y38275994D01*
X-88081913Y38431590D01*
X-87949590Y38563913D01*
X-87793994Y38667879D01*
X-87621105Y38739492D01*
X-87529336Y38757746D01*
X-87437568Y38776000D01*
X-87250432Y38776000D01*
X-87158664Y38757746D01*
G37*
G36*
X-84658664Y38757746D02*
G01*
X-84566895Y38739492D01*
X-84394006Y38667879D01*
X-84238410Y38563913D01*
X-84106087Y38431590D01*
X-84002121Y38275994D01*
X-83930508Y38103105D01*
X-83894000Y37919567D01*
X-83894000Y37732433D01*
X-83930508Y37548895D01*
X-84002121Y37376006D01*
X-84106087Y37220410D01*
X-84238410Y37088087D01*
X-84394006Y36984121D01*
X-84566895Y36912508D01*
X-84658664Y36894254D01*
X-84750432Y36876000D01*
X-84937568Y36876000D01*
X-85029336Y36894254D01*
X-85121105Y36912508D01*
X-85293994Y36984121D01*
X-85449590Y37088087D01*
X-85581913Y37220410D01*
X-85685879Y37376006D01*
X-85757492Y37548895D01*
X-85794000Y37732433D01*
X-85794000Y37919567D01*
X-85757492Y38103105D01*
X-85685879Y38275994D01*
X-85581913Y38431590D01*
X-85449590Y38563913D01*
X-85293994Y38667879D01*
X-85121105Y38739492D01*
X-85029336Y38757746D01*
X-84937568Y38776000D01*
X-84750432Y38776000D01*
X-84658664Y38757746D01*
G37*
G36*
X-7658664Y38757746D02*
G01*
X-7566895Y38739492D01*
X-7394006Y38667879D01*
X-7238410Y38563913D01*
X-7106087Y38431590D01*
X-7002121Y38275994D01*
X-6930508Y38103105D01*
X-6894000Y37919567D01*
X-6894000Y37732433D01*
X-6930508Y37548895D01*
X-7002121Y37376006D01*
X-7106087Y37220410D01*
X-7238410Y37088087D01*
X-7394006Y36984121D01*
X-7566895Y36912508D01*
X-7658664Y36894254D01*
X-7750432Y36876000D01*
X-7937568Y36876000D01*
X-8029336Y36894254D01*
X-8121105Y36912508D01*
X-8293994Y36984121D01*
X-8449590Y37088087D01*
X-8581913Y37220410D01*
X-8685879Y37376006D01*
X-8757492Y37548895D01*
X-8794000Y37732433D01*
X-8794000Y37919567D01*
X-8757492Y38103105D01*
X-8685879Y38275994D01*
X-8581913Y38431590D01*
X-8449590Y38563913D01*
X-8293994Y38667879D01*
X-8121105Y38739492D01*
X-8029336Y38757746D01*
X-7937568Y38776000D01*
X-7750432Y38776000D01*
X-7658664Y38757746D01*
G37*
G36*
X-5158664Y38757746D02*
G01*
X-5066895Y38739492D01*
X-4894006Y38667879D01*
X-4738410Y38563913D01*
X-4606087Y38431590D01*
X-4502121Y38275994D01*
X-4430508Y38103105D01*
X-4394000Y37919567D01*
X-4394000Y37732433D01*
X-4430508Y37548895D01*
X-4502121Y37376006D01*
X-4606087Y37220410D01*
X-4738410Y37088087D01*
X-4894006Y36984121D01*
X-5066895Y36912508D01*
X-5158664Y36894254D01*
X-5250432Y36876000D01*
X-5437568Y36876000D01*
X-5529336Y36894254D01*
X-5621105Y36912508D01*
X-5793994Y36984121D01*
X-5949590Y37088087D01*
X-6081913Y37220410D01*
X-6185879Y37376006D01*
X-6257492Y37548895D01*
X-6294000Y37732433D01*
X-6294000Y37919567D01*
X-6257492Y38103105D01*
X-6185879Y38275994D01*
X-6081913Y38431590D01*
X-5949590Y38563913D01*
X-5793994Y38667879D01*
X-5621105Y38739492D01*
X-5529336Y38757746D01*
X-5437568Y38776000D01*
X-5250432Y38776000D01*
X-5158664Y38757746D01*
G37*
G36*
X-110658664Y38757746D02*
G01*
X-110566895Y38739492D01*
X-110394006Y38667879D01*
X-110238410Y38563913D01*
X-110106087Y38431590D01*
X-110002121Y38275994D01*
X-109930508Y38103105D01*
X-109894000Y37919567D01*
X-109894000Y37732433D01*
X-109930508Y37548895D01*
X-110002121Y37376006D01*
X-110106087Y37220410D01*
X-110238410Y37088087D01*
X-110394006Y36984121D01*
X-110566895Y36912508D01*
X-110658664Y36894254D01*
X-110750432Y36876000D01*
X-110937568Y36876000D01*
X-111029336Y36894254D01*
X-111121105Y36912508D01*
X-111293994Y36984121D01*
X-111449590Y37088087D01*
X-111581913Y37220410D01*
X-111685879Y37376006D01*
X-111757492Y37548895D01*
X-111794000Y37732433D01*
X-111794000Y37919567D01*
X-111757492Y38103105D01*
X-111685879Y38275994D01*
X-111581913Y38431590D01*
X-111449590Y38563913D01*
X-111293994Y38667879D01*
X-111121105Y38739492D01*
X-111029336Y38757746D01*
X-110937568Y38776000D01*
X-110750432Y38776000D01*
X-110658664Y38757746D01*
G37*
G36*
X-113158664Y38757746D02*
G01*
X-113066895Y38739492D01*
X-112894006Y38667879D01*
X-112738410Y38563913D01*
X-112606087Y38431590D01*
X-112502121Y38275994D01*
X-112430508Y38103105D01*
X-112394000Y37919567D01*
X-112394000Y37732433D01*
X-112430508Y37548895D01*
X-112502121Y37376006D01*
X-112606087Y37220410D01*
X-112738410Y37088087D01*
X-112894006Y36984121D01*
X-113066895Y36912508D01*
X-113158664Y36894254D01*
X-113250432Y36876000D01*
X-113437568Y36876000D01*
X-113529336Y36894254D01*
X-113621105Y36912508D01*
X-113793994Y36984121D01*
X-113949590Y37088087D01*
X-114081913Y37220410D01*
X-114185879Y37376006D01*
X-114257492Y37548895D01*
X-114294000Y37732433D01*
X-114294000Y37919567D01*
X-114257492Y38103105D01*
X-114185879Y38275994D01*
X-114081913Y38431590D01*
X-113949590Y38563913D01*
X-113793994Y38667879D01*
X-113621105Y38739492D01*
X-113529336Y38757746D01*
X-113437568Y38776000D01*
X-113250432Y38776000D01*
X-113158664Y38757746D01*
G37*
G36*
X-115658664Y38757746D02*
G01*
X-115566895Y38739492D01*
X-115394006Y38667879D01*
X-115238410Y38563913D01*
X-115106087Y38431590D01*
X-115002121Y38275994D01*
X-114930508Y38103105D01*
X-114894000Y37919567D01*
X-114894000Y37732433D01*
X-114930508Y37548895D01*
X-115002121Y37376006D01*
X-115106087Y37220410D01*
X-115238410Y37088087D01*
X-115394006Y36984121D01*
X-115566895Y36912508D01*
X-115658664Y36894254D01*
X-115750432Y36876000D01*
X-115937568Y36876000D01*
X-116029336Y36894254D01*
X-116121105Y36912508D01*
X-116293994Y36984121D01*
X-116449590Y37088087D01*
X-116581913Y37220410D01*
X-116685879Y37376006D01*
X-116757492Y37548895D01*
X-116794000Y37732433D01*
X-116794000Y37919567D01*
X-116757492Y38103105D01*
X-116685879Y38275994D01*
X-116581913Y38431590D01*
X-116449590Y38563913D01*
X-116293994Y38667879D01*
X-116121105Y38739492D01*
X-116029336Y38757746D01*
X-115937568Y38776000D01*
X-115750432Y38776000D01*
X-115658664Y38757746D01*
G37*
G36*
X-35658664Y38757746D02*
G01*
X-35566895Y38739492D01*
X-35394006Y38667879D01*
X-35238410Y38563913D01*
X-35106087Y38431590D01*
X-35002121Y38275994D01*
X-34930508Y38103105D01*
X-34894000Y37919567D01*
X-34894000Y37732433D01*
X-34930508Y37548895D01*
X-35002121Y37376006D01*
X-35106087Y37220410D01*
X-35238410Y37088087D01*
X-35394006Y36984121D01*
X-35566895Y36912508D01*
X-35658664Y36894254D01*
X-35750432Y36876000D01*
X-35937568Y36876000D01*
X-36029336Y36894254D01*
X-36121105Y36912508D01*
X-36293994Y36984121D01*
X-36449590Y37088087D01*
X-36581913Y37220410D01*
X-36685879Y37376006D01*
X-36757492Y37548895D01*
X-36794000Y37732433D01*
X-36794000Y37919567D01*
X-36757492Y38103105D01*
X-36685879Y38275994D01*
X-36581913Y38431590D01*
X-36449590Y38563913D01*
X-36293994Y38667879D01*
X-36121105Y38739492D01*
X-36029336Y38757746D01*
X-35937568Y38776000D01*
X-35750432Y38776000D01*
X-35658664Y38757746D01*
G37*
G36*
X-33158664Y38757746D02*
G01*
X-33066895Y38739492D01*
X-32894006Y38667879D01*
X-32738410Y38563913D01*
X-32606087Y38431590D01*
X-32502121Y38275994D01*
X-32430508Y38103105D01*
X-32394000Y37919567D01*
X-32394000Y37732433D01*
X-32430508Y37548895D01*
X-32502121Y37376006D01*
X-32606087Y37220410D01*
X-32738410Y37088087D01*
X-32894006Y36984121D01*
X-33066895Y36912508D01*
X-33158664Y36894254D01*
X-33250432Y36876000D01*
X-33437568Y36876000D01*
X-33529336Y36894254D01*
X-33621105Y36912508D01*
X-33793994Y36984121D01*
X-33949590Y37088087D01*
X-34081913Y37220410D01*
X-34185879Y37376006D01*
X-34257492Y37548895D01*
X-34294000Y37732433D01*
X-34294000Y37919567D01*
X-34257492Y38103105D01*
X-34185879Y38275994D01*
X-34081913Y38431590D01*
X-33949590Y38563913D01*
X-33793994Y38667879D01*
X-33621105Y38739492D01*
X-33529336Y38757746D01*
X-33437568Y38776000D01*
X-33250432Y38776000D01*
X-33158664Y38757746D01*
G37*
G36*
X-30658664Y38757746D02*
G01*
X-30566895Y38739492D01*
X-30394006Y38667879D01*
X-30238410Y38563913D01*
X-30106087Y38431590D01*
X-30002121Y38275994D01*
X-29930508Y38103105D01*
X-29894000Y37919567D01*
X-29894000Y37732433D01*
X-29930508Y37548895D01*
X-30002121Y37376006D01*
X-30106087Y37220410D01*
X-30238410Y37088087D01*
X-30394006Y36984121D01*
X-30566895Y36912508D01*
X-30658664Y36894254D01*
X-30750432Y36876000D01*
X-30937568Y36876000D01*
X-31029336Y36894254D01*
X-31121105Y36912508D01*
X-31293994Y36984121D01*
X-31449590Y37088087D01*
X-31581913Y37220410D01*
X-31685879Y37376006D01*
X-31757492Y37548895D01*
X-31794000Y37732433D01*
X-31794000Y37919567D01*
X-31757492Y38103105D01*
X-31685879Y38275994D01*
X-31581913Y38431590D01*
X-31449590Y38563913D01*
X-31293994Y38667879D01*
X-31121105Y38739492D01*
X-31029336Y38757746D01*
X-30937568Y38776000D01*
X-30750432Y38776000D01*
X-30658664Y38757746D01*
G37*
G36*
X-89658664Y38757746D02*
G01*
X-89566895Y38739492D01*
X-89394006Y38667879D01*
X-89238410Y38563913D01*
X-89106087Y38431590D01*
X-89002121Y38275994D01*
X-88930508Y38103105D01*
X-88894000Y37919567D01*
X-88894000Y37732433D01*
X-88930508Y37548895D01*
X-89002121Y37376006D01*
X-89106087Y37220410D01*
X-89238410Y37088087D01*
X-89394006Y36984121D01*
X-89566895Y36912508D01*
X-89658664Y36894254D01*
X-89750432Y36876000D01*
X-89937568Y36876000D01*
X-90029336Y36894254D01*
X-90121105Y36912508D01*
X-90293994Y36984121D01*
X-90449590Y37088087D01*
X-90581913Y37220410D01*
X-90685879Y37376006D01*
X-90757492Y37548895D01*
X-90794000Y37732433D01*
X-90794000Y37919567D01*
X-90757492Y38103105D01*
X-90685879Y38275994D01*
X-90581913Y38431590D01*
X-90449590Y38563913D01*
X-90293994Y38667879D01*
X-90121105Y38739492D01*
X-90029336Y38757746D01*
X-89937568Y38776000D01*
X-89750432Y38776000D01*
X-89658664Y38757746D01*
G37*
G36*
X-44833968Y39521531D02*
G01*
X-44739715Y39492939D01*
X-44645465Y39464349D01*
X-44645463Y39464348D01*
X-44471742Y39371493D01*
X-44319472Y39246528D01*
X-44194507Y39094258D01*
X-44101652Y38920537D01*
X-44101651Y38920535D01*
X-44080872Y38852034D01*
X-44044469Y38732032D01*
X-44025162Y38536000D01*
X-44044469Y38339968D01*
X-44101652Y38151463D01*
X-44194507Y37977742D01*
X-44319472Y37825472D01*
X-44471742Y37700507D01*
X-44645463Y37607652D01*
X-44645465Y37607651D01*
X-44736618Y37580000D01*
X-44833968Y37550469D01*
X-44980876Y37536000D01*
X-45779124Y37536000D01*
X-45926032Y37550469D01*
X-46023382Y37580000D01*
X-46114535Y37607651D01*
X-46114537Y37607652D01*
X-46288258Y37700507D01*
X-46440528Y37825472D01*
X-46565493Y37977742D01*
X-46658348Y38151463D01*
X-46715531Y38339968D01*
X-46734838Y38536000D01*
X-46715531Y38732032D01*
X-46679128Y38852034D01*
X-46658349Y38920535D01*
X-46658348Y38920537D01*
X-46565493Y39094258D01*
X-46440528Y39246528D01*
X-46288258Y39371493D01*
X-46114537Y39464348D01*
X-46114535Y39464349D01*
X-46020285Y39492939D01*
X-45926032Y39521531D01*
X-45779124Y39536000D01*
X-44980876Y39536000D01*
X-44833968Y39521531D01*
G37*
G36*
X-52453968Y39521531D02*
G01*
X-52359715Y39492939D01*
X-52265465Y39464349D01*
X-52265463Y39464348D01*
X-52091742Y39371493D01*
X-51939472Y39246528D01*
X-51814507Y39094258D01*
X-51721652Y38920537D01*
X-51721651Y38920535D01*
X-51700872Y38852034D01*
X-51664469Y38732032D01*
X-51645162Y38536000D01*
X-51664469Y38339968D01*
X-51721652Y38151463D01*
X-51814507Y37977742D01*
X-51939472Y37825472D01*
X-52091742Y37700507D01*
X-52265463Y37607652D01*
X-52265465Y37607651D01*
X-52356618Y37580000D01*
X-52453968Y37550469D01*
X-52600876Y37536000D01*
X-53399124Y37536000D01*
X-53546032Y37550469D01*
X-53643382Y37580000D01*
X-53734535Y37607651D01*
X-53734537Y37607652D01*
X-53908258Y37700507D01*
X-54060528Y37825472D01*
X-54185493Y37977742D01*
X-54278348Y38151463D01*
X-54335531Y38339968D01*
X-54354838Y38536000D01*
X-54335531Y38732032D01*
X-54299128Y38852034D01*
X-54278349Y38920535D01*
X-54278348Y38920537D01*
X-54185493Y39094258D01*
X-54060528Y39246528D01*
X-53908258Y39371493D01*
X-53734537Y39464348D01*
X-53734535Y39464349D01*
X-53640285Y39492939D01*
X-53546032Y39521531D01*
X-53399124Y39536000D01*
X-52600876Y39536000D01*
X-52453968Y39521531D01*
G37*
G36*
X-39272710Y39554381D02*
G01*
X-39208311Y39541571D01*
X-39026322Y39466189D01*
X-38862537Y39356751D01*
X-38723249Y39217463D01*
X-38613811Y39053678D01*
X-38538429Y38871689D01*
X-38534519Y38852032D01*
X-38500000Y38678493D01*
X-38500000Y38481507D01*
X-38523312Y38364312D01*
X-38538429Y38288311D01*
X-38613811Y38106322D01*
X-38723249Y37942537D01*
X-38862537Y37803249D01*
X-39026322Y37693811D01*
X-39208311Y37618429D01*
X-39262491Y37607652D01*
X-39401507Y37580000D01*
X-39598493Y37580000D01*
X-39737509Y37607652D01*
X-39791689Y37618429D01*
X-39973678Y37693811D01*
X-40137463Y37803249D01*
X-40276751Y37942537D01*
X-40386189Y38106322D01*
X-40461571Y38288311D01*
X-40476688Y38364312D01*
X-40500000Y38481507D01*
X-40500000Y38678493D01*
X-40465481Y38852032D01*
X-40461571Y38871689D01*
X-40386189Y39053678D01*
X-40276751Y39217463D01*
X-40137463Y39356751D01*
X-39973678Y39466189D01*
X-39791689Y39541571D01*
X-39727290Y39554381D01*
X-39598493Y39580000D01*
X-39401507Y39580000D01*
X-39272710Y39554381D01*
G37*
G36*
X-65993968Y39641531D02*
G01*
X-65899715Y39612939D01*
X-65805465Y39584349D01*
X-65805463Y39584348D01*
X-65631742Y39491493D01*
X-65479472Y39366528D01*
X-65354507Y39214258D01*
X-65261652Y39040537D01*
X-65204469Y38852032D01*
X-65185162Y38656000D01*
X-65204469Y38459968D01*
X-65213078Y38431589D01*
X-65260277Y38275994D01*
X-65261652Y38271463D01*
X-65354507Y38097742D01*
X-65479472Y37945472D01*
X-65631742Y37820507D01*
X-65796520Y37732432D01*
X-65805465Y37727651D01*
X-65894944Y37700508D01*
X-65993968Y37670469D01*
X-66140876Y37656000D01*
X-66939124Y37656000D01*
X-67086032Y37670469D01*
X-67185056Y37700508D01*
X-67274535Y37727651D01*
X-67283480Y37732432D01*
X-67448258Y37820507D01*
X-67600528Y37945472D01*
X-67725493Y38097742D01*
X-67818348Y38271463D01*
X-67819722Y38275994D01*
X-67866922Y38431589D01*
X-67875531Y38459968D01*
X-67894838Y38656000D01*
X-67875531Y38852032D01*
X-67818348Y39040537D01*
X-67725493Y39214258D01*
X-67600528Y39366528D01*
X-67448258Y39491493D01*
X-67274537Y39584348D01*
X-67274535Y39584349D01*
X-67180284Y39612940D01*
X-67086032Y39641531D01*
X-66939124Y39656000D01*
X-66140876Y39656000D01*
X-65993968Y39641531D01*
G37*
G36*
X-73613968Y39641531D02*
G01*
X-73519715Y39612939D01*
X-73425465Y39584349D01*
X-73425463Y39584348D01*
X-73251742Y39491493D01*
X-73099472Y39366528D01*
X-72974507Y39214258D01*
X-72881652Y39040537D01*
X-72824469Y38852032D01*
X-72805162Y38656000D01*
X-72824469Y38459968D01*
X-72833078Y38431589D01*
X-72880277Y38275994D01*
X-72881652Y38271463D01*
X-72974507Y38097742D01*
X-73099472Y37945472D01*
X-73251742Y37820507D01*
X-73416520Y37732432D01*
X-73425465Y37727651D01*
X-73514944Y37700508D01*
X-73613968Y37670469D01*
X-73760876Y37656000D01*
X-74559124Y37656000D01*
X-74706032Y37670469D01*
X-74805056Y37700508D01*
X-74894535Y37727651D01*
X-74903480Y37732432D01*
X-75068258Y37820507D01*
X-75220528Y37945472D01*
X-75345493Y38097742D01*
X-75438348Y38271463D01*
X-75439722Y38275994D01*
X-75486922Y38431589D01*
X-75495531Y38459968D01*
X-75514838Y38656000D01*
X-75495531Y38852032D01*
X-75438348Y39040537D01*
X-75345493Y39214258D01*
X-75220528Y39366528D01*
X-75068258Y39491493D01*
X-74894537Y39584348D01*
X-74894535Y39584349D01*
X-74800284Y39612940D01*
X-74706032Y39641531D01*
X-74559124Y39656000D01*
X-73760876Y39656000D01*
X-73613968Y39641531D01*
G37*
G36*
X-78772710Y39630381D02*
G01*
X-78708311Y39617571D01*
X-78526322Y39542189D01*
X-78362537Y39432751D01*
X-78223249Y39293463D01*
X-78113811Y39129678D01*
X-78038429Y38947689D01*
X-78038429Y38947688D01*
X-78000000Y38754493D01*
X-78000000Y38557507D01*
X-78019402Y38459968D01*
X-78038429Y38364311D01*
X-78113811Y38182322D01*
X-78223249Y38018537D01*
X-78362537Y37879249D01*
X-78526322Y37769811D01*
X-78708311Y37694429D01*
X-78772710Y37681619D01*
X-78901507Y37656000D01*
X-79098493Y37656000D01*
X-79227290Y37681619D01*
X-79291689Y37694429D01*
X-79473678Y37769811D01*
X-79637463Y37879249D01*
X-79776751Y38018537D01*
X-79886189Y38182322D01*
X-79961571Y38364311D01*
X-79980598Y38459968D01*
X-80000000Y38557507D01*
X-80000000Y38754493D01*
X-79961571Y38947688D01*
X-79961571Y38947689D01*
X-79886189Y39129678D01*
X-79776751Y39293463D01*
X-79637463Y39432751D01*
X-79473678Y39542189D01*
X-79291689Y39617571D01*
X-79227290Y39630381D01*
X-79098493Y39656000D01*
X-78901507Y39656000D01*
X-78772710Y39630381D01*
G37*
G36*
X-52453968Y42061531D02*
G01*
X-52359716Y42032940D01*
X-52265465Y42004349D01*
X-52265463Y42004348D01*
X-52091742Y41911493D01*
X-51939472Y41786528D01*
X-51814507Y41634258D01*
X-51721652Y41460537D01*
X-51721651Y41460535D01*
X-51700872Y41392034D01*
X-51664469Y41272032D01*
X-51645162Y41076000D01*
X-51664469Y40879968D01*
X-51721652Y40691463D01*
X-51814507Y40517742D01*
X-51939472Y40365472D01*
X-52091742Y40240507D01*
X-52265463Y40147652D01*
X-52265465Y40147651D01*
X-52356618Y40120000D01*
X-52453968Y40090469D01*
X-52600876Y40076000D01*
X-53399124Y40076000D01*
X-53546032Y40090469D01*
X-53643382Y40120000D01*
X-53734535Y40147651D01*
X-53734537Y40147652D01*
X-53908258Y40240507D01*
X-54060528Y40365472D01*
X-54185493Y40517742D01*
X-54278348Y40691463D01*
X-54335531Y40879968D01*
X-54354838Y41076000D01*
X-54335531Y41272032D01*
X-54299128Y41392034D01*
X-54278349Y41460535D01*
X-54278348Y41460537D01*
X-54185493Y41634258D01*
X-54060528Y41786528D01*
X-53908258Y41911493D01*
X-53734537Y42004348D01*
X-53734535Y42004349D01*
X-53640284Y42032940D01*
X-53546032Y42061531D01*
X-53399124Y42076000D01*
X-52600876Y42076000D01*
X-52453968Y42061531D01*
G37*
G36*
X-44833968Y42061531D02*
G01*
X-44739716Y42032940D01*
X-44645465Y42004349D01*
X-44645463Y42004348D01*
X-44471742Y41911493D01*
X-44319472Y41786528D01*
X-44194507Y41634258D01*
X-44101652Y41460537D01*
X-44101651Y41460535D01*
X-44080872Y41392034D01*
X-44044469Y41272032D01*
X-44025162Y41076000D01*
X-44044469Y40879968D01*
X-44101652Y40691463D01*
X-44194507Y40517742D01*
X-44319472Y40365472D01*
X-44471742Y40240507D01*
X-44645463Y40147652D01*
X-44645465Y40147651D01*
X-44736618Y40120000D01*
X-44833968Y40090469D01*
X-44980876Y40076000D01*
X-45779124Y40076000D01*
X-45926032Y40090469D01*
X-46023382Y40120000D01*
X-46114535Y40147651D01*
X-46114537Y40147652D01*
X-46288258Y40240507D01*
X-46440528Y40365472D01*
X-46565493Y40517742D01*
X-46658348Y40691463D01*
X-46715531Y40879968D01*
X-46734838Y41076000D01*
X-46715531Y41272032D01*
X-46679128Y41392034D01*
X-46658349Y41460535D01*
X-46658348Y41460537D01*
X-46565493Y41634258D01*
X-46440528Y41786528D01*
X-46288258Y41911493D01*
X-46114537Y42004348D01*
X-46114535Y42004349D01*
X-46020284Y42032940D01*
X-45926032Y42061531D01*
X-45779124Y42076000D01*
X-44980876Y42076000D01*
X-44833968Y42061531D01*
G37*
G36*
X-39272710Y42094381D02*
G01*
X-39208311Y42081571D01*
X-39026322Y42006189D01*
X-38862537Y41896751D01*
X-38723249Y41757463D01*
X-38613811Y41593678D01*
X-38538429Y41411689D01*
X-38534519Y41392032D01*
X-38500000Y41218493D01*
X-38500000Y41021507D01*
X-38504285Y40999966D01*
X-38538429Y40828311D01*
X-38613811Y40646322D01*
X-38723249Y40482537D01*
X-38862537Y40343249D01*
X-39026322Y40233811D01*
X-39208311Y40158429D01*
X-39262491Y40147652D01*
X-39401507Y40120000D01*
X-39598493Y40120000D01*
X-39737509Y40147652D01*
X-39791689Y40158429D01*
X-39973678Y40233811D01*
X-40137463Y40343249D01*
X-40276751Y40482537D01*
X-40386189Y40646322D01*
X-40461571Y40828311D01*
X-40495715Y40999966D01*
X-40500000Y41021507D01*
X-40500000Y41218493D01*
X-40465481Y41392032D01*
X-40461571Y41411689D01*
X-40386189Y41593678D01*
X-40276751Y41757463D01*
X-40137463Y41896751D01*
X-39973678Y42006189D01*
X-39791689Y42081571D01*
X-39727290Y42094381D01*
X-39598493Y42120000D01*
X-39401507Y42120000D01*
X-39272710Y42094381D01*
G37*
G36*
X-65993968Y42181531D02*
G01*
X-65899715Y42152939D01*
X-65805465Y42124349D01*
X-65805463Y42124348D01*
X-65631742Y42031493D01*
X-65479472Y41906528D01*
X-65354507Y41754258D01*
X-65261652Y41580537D01*
X-65204469Y41392032D01*
X-65185162Y41196000D01*
X-65204469Y40999968D01*
X-65261652Y40811463D01*
X-65354507Y40637742D01*
X-65479472Y40485472D01*
X-65631742Y40360507D01*
X-65805463Y40267652D01*
X-65805465Y40267651D01*
X-65894944Y40240508D01*
X-65993968Y40210469D01*
X-66140876Y40196000D01*
X-66939124Y40196000D01*
X-67086032Y40210469D01*
X-67185056Y40240508D01*
X-67274535Y40267651D01*
X-67274537Y40267652D01*
X-67448258Y40360507D01*
X-67600528Y40485472D01*
X-67725493Y40637742D01*
X-67818348Y40811463D01*
X-67875531Y40999968D01*
X-67894838Y41196000D01*
X-67875531Y41392032D01*
X-67818348Y41580537D01*
X-67725493Y41754258D01*
X-67600528Y41906528D01*
X-67448258Y42031493D01*
X-67274537Y42124348D01*
X-67274535Y42124349D01*
X-67180285Y42152939D01*
X-67086032Y42181531D01*
X-66939124Y42196000D01*
X-66140876Y42196000D01*
X-65993968Y42181531D01*
G37*
G36*
X-73613968Y42181531D02*
G01*
X-73519715Y42152939D01*
X-73425465Y42124349D01*
X-73425463Y42124348D01*
X-73251742Y42031493D01*
X-73099472Y41906528D01*
X-72974507Y41754258D01*
X-72881652Y41580537D01*
X-72824469Y41392032D01*
X-72805162Y41196000D01*
X-72824469Y40999968D01*
X-72881652Y40811463D01*
X-72974507Y40637742D01*
X-73099472Y40485472D01*
X-73251742Y40360507D01*
X-73425463Y40267652D01*
X-73425465Y40267651D01*
X-73514944Y40240508D01*
X-73613968Y40210469D01*
X-73760876Y40196000D01*
X-74559124Y40196000D01*
X-74706032Y40210469D01*
X-74805056Y40240508D01*
X-74894535Y40267651D01*
X-74894537Y40267652D01*
X-75068258Y40360507D01*
X-75220528Y40485472D01*
X-75345493Y40637742D01*
X-75438348Y40811463D01*
X-75495531Y40999968D01*
X-75514838Y41196000D01*
X-75495531Y41392032D01*
X-75438348Y41580537D01*
X-75345493Y41754258D01*
X-75220528Y41906528D01*
X-75068258Y42031493D01*
X-74894537Y42124348D01*
X-74894535Y42124349D01*
X-74800285Y42152939D01*
X-74706032Y42181531D01*
X-74559124Y42196000D01*
X-73760876Y42196000D01*
X-73613968Y42181531D01*
G37*
G36*
X-78772710Y42170381D02*
G01*
X-78708311Y42157571D01*
X-78526322Y42082189D01*
X-78362537Y41972751D01*
X-78223249Y41833463D01*
X-78113811Y41669678D01*
X-78038429Y41487689D01*
X-78038429Y41487688D01*
X-78000000Y41294493D01*
X-78000000Y41097507D01*
X-78019402Y40999968D01*
X-78038429Y40904311D01*
X-78113811Y40722322D01*
X-78223249Y40558537D01*
X-78362537Y40419249D01*
X-78526322Y40309811D01*
X-78708311Y40234429D01*
X-78772710Y40221619D01*
X-78901507Y40196000D01*
X-79098493Y40196000D01*
X-79227290Y40221619D01*
X-79291689Y40234429D01*
X-79473678Y40309811D01*
X-79637463Y40419249D01*
X-79776751Y40558537D01*
X-79886189Y40722322D01*
X-79961571Y40904311D01*
X-79980598Y40999968D01*
X-80000000Y41097507D01*
X-80000000Y41294493D01*
X-79961571Y41487688D01*
X-79961571Y41487689D01*
X-79886189Y41669678D01*
X-79776751Y41833463D01*
X-79637463Y41972751D01*
X-79473678Y42082189D01*
X-79291689Y42157571D01*
X-79227290Y42170381D01*
X-79098493Y42196000D01*
X-78901507Y42196000D01*
X-78772710Y42170381D01*
G37*
G36*
X-44833968Y44601531D02*
G01*
X-44739715Y44572939D01*
X-44645465Y44544349D01*
X-44645463Y44544348D01*
X-44471742Y44451493D01*
X-44319472Y44326528D01*
X-44194507Y44174258D01*
X-44101652Y44000537D01*
X-44101651Y44000535D01*
X-44080872Y43932034D01*
X-44044469Y43812032D01*
X-44025162Y43616000D01*
X-44044469Y43419968D01*
X-44101652Y43231463D01*
X-44194507Y43057742D01*
X-44319472Y42905472D01*
X-44471742Y42780507D01*
X-44645463Y42687652D01*
X-44645465Y42687651D01*
X-44736618Y42660000D01*
X-44833968Y42630469D01*
X-44980876Y42616000D01*
X-45779124Y42616000D01*
X-45926032Y42630469D01*
X-46023382Y42660000D01*
X-46114535Y42687651D01*
X-46114537Y42687652D01*
X-46288258Y42780507D01*
X-46440528Y42905472D01*
X-46565493Y43057742D01*
X-46658348Y43231463D01*
X-46715531Y43419968D01*
X-46734838Y43616000D01*
X-46715531Y43812032D01*
X-46679128Y43932034D01*
X-46658349Y44000535D01*
X-46658348Y44000537D01*
X-46565493Y44174258D01*
X-46440528Y44326528D01*
X-46288258Y44451493D01*
X-46114537Y44544348D01*
X-46114535Y44544349D01*
X-46020285Y44572939D01*
X-45926032Y44601531D01*
X-45779124Y44616000D01*
X-44980876Y44616000D01*
X-44833968Y44601531D01*
G37*
G36*
X-52453968Y44601531D02*
G01*
X-52359715Y44572939D01*
X-52265465Y44544349D01*
X-52265463Y44544348D01*
X-52091742Y44451493D01*
X-51939472Y44326528D01*
X-51814507Y44174258D01*
X-51721652Y44000537D01*
X-51721651Y44000535D01*
X-51700872Y43932034D01*
X-51664469Y43812032D01*
X-51645162Y43616000D01*
X-51664469Y43419968D01*
X-51721652Y43231463D01*
X-51814507Y43057742D01*
X-51939472Y42905472D01*
X-52091742Y42780507D01*
X-52265463Y42687652D01*
X-52265465Y42687651D01*
X-52356618Y42660000D01*
X-52453968Y42630469D01*
X-52600876Y42616000D01*
X-53399124Y42616000D01*
X-53546032Y42630469D01*
X-53643382Y42660000D01*
X-53734535Y42687651D01*
X-53734537Y42687652D01*
X-53908258Y42780507D01*
X-54060528Y42905472D01*
X-54185493Y43057742D01*
X-54278348Y43231463D01*
X-54335531Y43419968D01*
X-54354838Y43616000D01*
X-54335531Y43812032D01*
X-54299128Y43932034D01*
X-54278349Y44000535D01*
X-54278348Y44000537D01*
X-54185493Y44174258D01*
X-54060528Y44326528D01*
X-53908258Y44451493D01*
X-53734537Y44544348D01*
X-53734535Y44544349D01*
X-53640285Y44572939D01*
X-53546032Y44601531D01*
X-53399124Y44616000D01*
X-52600876Y44616000D01*
X-52453968Y44601531D01*
G37*
G36*
X-39272710Y44634381D02*
G01*
X-39208311Y44621571D01*
X-39026322Y44546189D01*
X-38862537Y44436751D01*
X-38723249Y44297463D01*
X-38613811Y44133678D01*
X-38538429Y43951689D01*
X-38534519Y43932032D01*
X-38500000Y43758493D01*
X-38500000Y43561507D01*
X-38504285Y43539966D01*
X-38538429Y43368311D01*
X-38613811Y43186322D01*
X-38723249Y43022537D01*
X-38862537Y42883249D01*
X-39026322Y42773811D01*
X-39208311Y42698429D01*
X-39262491Y42687652D01*
X-39401507Y42660000D01*
X-39598493Y42660000D01*
X-39737509Y42687652D01*
X-39791689Y42698429D01*
X-39973678Y42773811D01*
X-40137463Y42883249D01*
X-40276751Y43022537D01*
X-40386189Y43186322D01*
X-40461571Y43368311D01*
X-40495715Y43539966D01*
X-40500000Y43561507D01*
X-40500000Y43758493D01*
X-40465481Y43932032D01*
X-40461571Y43951689D01*
X-40386189Y44133678D01*
X-40276751Y44297463D01*
X-40137463Y44436751D01*
X-39973678Y44546189D01*
X-39791689Y44621571D01*
X-39727290Y44634381D01*
X-39598493Y44660000D01*
X-39401507Y44660000D01*
X-39272710Y44634381D01*
G37*
G36*
X-65993968Y44721531D02*
G01*
X-65899715Y44692939D01*
X-65805465Y44664349D01*
X-65805463Y44664348D01*
X-65631742Y44571493D01*
X-65479472Y44446528D01*
X-65354507Y44294258D01*
X-65261652Y44120537D01*
X-65204469Y43932032D01*
X-65185162Y43736000D01*
X-65204469Y43539968D01*
X-65261652Y43351463D01*
X-65354507Y43177742D01*
X-65479472Y43025472D01*
X-65631742Y42900507D01*
X-65805463Y42807652D01*
X-65805465Y42807651D01*
X-65894944Y42780508D01*
X-65993968Y42750469D01*
X-66140876Y42736000D01*
X-66939124Y42736000D01*
X-67086032Y42750469D01*
X-67185056Y42780508D01*
X-67274535Y42807651D01*
X-67274537Y42807652D01*
X-67448258Y42900507D01*
X-67600528Y43025472D01*
X-67725493Y43177742D01*
X-67818348Y43351463D01*
X-67875531Y43539968D01*
X-67894838Y43736000D01*
X-67875531Y43932032D01*
X-67818348Y44120537D01*
X-67725493Y44294258D01*
X-67600528Y44446528D01*
X-67448258Y44571493D01*
X-67274537Y44664348D01*
X-67274535Y44664349D01*
X-67180285Y44692939D01*
X-67086032Y44721531D01*
X-66939124Y44736000D01*
X-66140876Y44736000D01*
X-65993968Y44721531D01*
G37*
G36*
X-73613968Y44721531D02*
G01*
X-73519715Y44692939D01*
X-73425465Y44664349D01*
X-73425463Y44664348D01*
X-73251742Y44571493D01*
X-73099472Y44446528D01*
X-72974507Y44294258D01*
X-72881652Y44120537D01*
X-72824469Y43932032D01*
X-72805162Y43736000D01*
X-72824469Y43539968D01*
X-72881652Y43351463D01*
X-72974507Y43177742D01*
X-73099472Y43025472D01*
X-73251742Y42900507D01*
X-73425463Y42807652D01*
X-73425465Y42807651D01*
X-73514944Y42780508D01*
X-73613968Y42750469D01*
X-73760876Y42736000D01*
X-74559124Y42736000D01*
X-74706032Y42750469D01*
X-74805056Y42780508D01*
X-74894535Y42807651D01*
X-74894537Y42807652D01*
X-75068258Y42900507D01*
X-75220528Y43025472D01*
X-75345493Y43177742D01*
X-75438348Y43351463D01*
X-75495531Y43539968D01*
X-75514838Y43736000D01*
X-75495531Y43932032D01*
X-75438348Y44120537D01*
X-75345493Y44294258D01*
X-75220528Y44446528D01*
X-75068258Y44571493D01*
X-74894537Y44664348D01*
X-74894535Y44664349D01*
X-74800285Y44692939D01*
X-74706032Y44721531D01*
X-74559124Y44736000D01*
X-73760876Y44736000D01*
X-73613968Y44721531D01*
G37*
G36*
X-78772710Y44710381D02*
G01*
X-78708311Y44697571D01*
X-78526322Y44622189D01*
X-78362537Y44512751D01*
X-78223249Y44373463D01*
X-78113811Y44209678D01*
X-78063447Y44088087D01*
X-78038429Y44027688D01*
X-78000000Y43834493D01*
X-78000000Y43637507D01*
X-78019402Y43539968D01*
X-78038429Y43444311D01*
X-78113811Y43262322D01*
X-78223249Y43098537D01*
X-78362537Y42959249D01*
X-78526322Y42849811D01*
X-78708311Y42774429D01*
X-78772710Y42761619D01*
X-78901507Y42736000D01*
X-79098493Y42736000D01*
X-79227290Y42761619D01*
X-79291689Y42774429D01*
X-79473678Y42849811D01*
X-79637463Y42959249D01*
X-79776751Y43098537D01*
X-79886189Y43262322D01*
X-79961571Y43444311D01*
X-79980598Y43539968D01*
X-80000000Y43637507D01*
X-80000000Y43834493D01*
X-79961571Y44027688D01*
X-79936553Y44088087D01*
X-79886189Y44209678D01*
X-79776751Y44373463D01*
X-79637463Y44512751D01*
X-79473678Y44622189D01*
X-79291689Y44697571D01*
X-79227290Y44710381D01*
X-79098493Y44736000D01*
X-78901507Y44736000D01*
X-78772710Y44710381D01*
G37*
G36*
X-22658664Y45757746D02*
G01*
X-22566895Y45739492D01*
X-22394006Y45667879D01*
X-22238410Y45563913D01*
X-22106087Y45431590D01*
X-22002121Y45275994D01*
X-21952418Y45156000D01*
X-21930508Y45103104D01*
X-21894000Y44919568D01*
X-21894000Y44732432D01*
X-21896169Y44721530D01*
X-21930508Y44548895D01*
X-22002121Y44376006D01*
X-22106087Y44220410D01*
X-22238410Y44088087D01*
X-22394006Y43984121D01*
X-22566895Y43912508D01*
X-22658664Y43894254D01*
X-22750432Y43876000D01*
X-22937568Y43876000D01*
X-23029336Y43894254D01*
X-23121105Y43912508D01*
X-23293994Y43984121D01*
X-23449590Y44088087D01*
X-23581913Y44220410D01*
X-23685879Y44376006D01*
X-23757492Y44548895D01*
X-23791831Y44721530D01*
X-23794000Y44732432D01*
X-23794000Y44919568D01*
X-23757492Y45103104D01*
X-23735582Y45156000D01*
X-23685879Y45275994D01*
X-23581913Y45431590D01*
X-23449590Y45563913D01*
X-23293994Y45667879D01*
X-23121105Y45739492D01*
X-23029336Y45757746D01*
X-22937568Y45776000D01*
X-22750432Y45776000D01*
X-22658664Y45757746D01*
G37*
G36*
X-97658664Y45757746D02*
G01*
X-97566895Y45739492D01*
X-97394006Y45667879D01*
X-97238410Y45563913D01*
X-97106087Y45431590D01*
X-97002121Y45275994D01*
X-96952418Y45156000D01*
X-96930508Y45103104D01*
X-96894000Y44919568D01*
X-96894000Y44732432D01*
X-96896169Y44721530D01*
X-96930508Y44548895D01*
X-97002121Y44376006D01*
X-97106087Y44220410D01*
X-97238410Y44088087D01*
X-97394006Y43984121D01*
X-97566895Y43912508D01*
X-97658664Y43894254D01*
X-97750432Y43876000D01*
X-97937568Y43876000D01*
X-98029336Y43894254D01*
X-98121105Y43912508D01*
X-98293994Y43984121D01*
X-98449590Y44088087D01*
X-98581913Y44220410D01*
X-98685879Y44376006D01*
X-98757492Y44548895D01*
X-98791831Y44721530D01*
X-98794000Y44732432D01*
X-98794000Y44919568D01*
X-98757492Y45103104D01*
X-98735582Y45156000D01*
X-98685879Y45275994D01*
X-98581913Y45431590D01*
X-98449590Y45563913D01*
X-98293994Y45667879D01*
X-98121105Y45739492D01*
X-98029336Y45757746D01*
X-97937568Y45776000D01*
X-97750432Y45776000D01*
X-97658664Y45757746D01*
G37*
G36*
X-102658664Y45757746D02*
G01*
X-102566895Y45739492D01*
X-102394006Y45667879D01*
X-102238410Y45563913D01*
X-102106087Y45431590D01*
X-102002121Y45275994D01*
X-101952418Y45156000D01*
X-101930508Y45103104D01*
X-101894000Y44919568D01*
X-101894000Y44732432D01*
X-101896169Y44721530D01*
X-101930508Y44548895D01*
X-102002121Y44376006D01*
X-102106087Y44220410D01*
X-102238410Y44088087D01*
X-102394006Y43984121D01*
X-102566895Y43912508D01*
X-102658664Y43894254D01*
X-102750432Y43876000D01*
X-102937568Y43876000D01*
X-103029336Y43894254D01*
X-103121105Y43912508D01*
X-103293994Y43984121D01*
X-103449590Y44088087D01*
X-103581913Y44220410D01*
X-103685879Y44376006D01*
X-103757492Y44548895D01*
X-103791831Y44721530D01*
X-103794000Y44732432D01*
X-103794000Y44919568D01*
X-103757492Y45103104D01*
X-103735582Y45156000D01*
X-103685879Y45275994D01*
X-103581913Y45431590D01*
X-103449590Y45563913D01*
X-103293994Y45667879D01*
X-103121105Y45739492D01*
X-103029336Y45757746D01*
X-102937568Y45776000D01*
X-102750432Y45776000D01*
X-102658664Y45757746D01*
G37*
G36*
X-100158664Y45757746D02*
G01*
X-100066895Y45739492D01*
X-99894006Y45667879D01*
X-99738410Y45563913D01*
X-99606087Y45431590D01*
X-99502121Y45275994D01*
X-99452418Y45156000D01*
X-99430508Y45103104D01*
X-99394000Y44919568D01*
X-99394000Y44732432D01*
X-99396169Y44721530D01*
X-99430508Y44548895D01*
X-99502121Y44376006D01*
X-99606087Y44220410D01*
X-99738410Y44088087D01*
X-99894006Y43984121D01*
X-100066895Y43912508D01*
X-100158664Y43894254D01*
X-100250432Y43876000D01*
X-100437568Y43876000D01*
X-100529336Y43894254D01*
X-100621105Y43912508D01*
X-100793994Y43984121D01*
X-100949590Y44088087D01*
X-101081913Y44220410D01*
X-101185879Y44376006D01*
X-101257492Y44548895D01*
X-101291831Y44721530D01*
X-101294000Y44732432D01*
X-101294000Y44919568D01*
X-101257492Y45103104D01*
X-101235582Y45156000D01*
X-101185879Y45275994D01*
X-101081913Y45431590D01*
X-100949590Y45563913D01*
X-100793994Y45667879D01*
X-100621105Y45739492D01*
X-100529336Y45757746D01*
X-100437568Y45776000D01*
X-100250432Y45776000D01*
X-100158664Y45757746D01*
G37*
G36*
X-17658664Y45757746D02*
G01*
X-17566895Y45739492D01*
X-17394006Y45667879D01*
X-17238410Y45563913D01*
X-17106087Y45431590D01*
X-17002121Y45275994D01*
X-16952418Y45156000D01*
X-16930508Y45103104D01*
X-16894000Y44919568D01*
X-16894000Y44732432D01*
X-16896169Y44721530D01*
X-16930508Y44548895D01*
X-17002121Y44376006D01*
X-17106087Y44220410D01*
X-17238410Y44088087D01*
X-17394006Y43984121D01*
X-17566895Y43912508D01*
X-17658664Y43894254D01*
X-17750432Y43876000D01*
X-17937568Y43876000D01*
X-18029336Y43894254D01*
X-18121105Y43912508D01*
X-18293994Y43984121D01*
X-18449590Y44088087D01*
X-18581913Y44220410D01*
X-18685879Y44376006D01*
X-18757492Y44548895D01*
X-18791831Y44721530D01*
X-18794000Y44732432D01*
X-18794000Y44919568D01*
X-18757492Y45103104D01*
X-18735582Y45156000D01*
X-18685879Y45275994D01*
X-18581913Y45431590D01*
X-18449590Y45563913D01*
X-18293994Y45667879D01*
X-18121105Y45739492D01*
X-18029336Y45757746D01*
X-17937568Y45776000D01*
X-17750432Y45776000D01*
X-17658664Y45757746D01*
G37*
G36*
X-20158664Y45757746D02*
G01*
X-20066895Y45739492D01*
X-19894006Y45667879D01*
X-19738410Y45563913D01*
X-19606087Y45431590D01*
X-19502121Y45275994D01*
X-19452418Y45156000D01*
X-19430508Y45103104D01*
X-19394000Y44919568D01*
X-19394000Y44732432D01*
X-19396169Y44721530D01*
X-19430508Y44548895D01*
X-19502121Y44376006D01*
X-19606087Y44220410D01*
X-19738410Y44088087D01*
X-19894006Y43984121D01*
X-20066895Y43912508D01*
X-20158664Y43894254D01*
X-20250432Y43876000D01*
X-20437568Y43876000D01*
X-20529336Y43894254D01*
X-20621105Y43912508D01*
X-20793994Y43984121D01*
X-20949590Y44088087D01*
X-21081913Y44220410D01*
X-21185879Y44376006D01*
X-21257492Y44548895D01*
X-21291831Y44721530D01*
X-21294000Y44732432D01*
X-21294000Y44919568D01*
X-21257492Y45103104D01*
X-21235582Y45156000D01*
X-21185879Y45275994D01*
X-21081913Y45431590D01*
X-20949590Y45563913D01*
X-20793994Y45667879D01*
X-20621105Y45739492D01*
X-20529336Y45757746D01*
X-20437568Y45776000D01*
X-20250432Y45776000D01*
X-20158664Y45757746D01*
G37*
G36*
X-44833968Y47141531D02*
G01*
X-44739715Y47112939D01*
X-44645465Y47084349D01*
X-44645463Y47084348D01*
X-44471742Y46991493D01*
X-44319472Y46866528D01*
X-44194507Y46714258D01*
X-44101652Y46540537D01*
X-44101651Y46540535D01*
X-44080872Y46472034D01*
X-44044469Y46352032D01*
X-44025162Y46156000D01*
X-44044469Y45959968D01*
X-44044470Y45959966D01*
X-44100275Y45776000D01*
X-44101652Y45771463D01*
X-44194507Y45597742D01*
X-44319472Y45445472D01*
X-44471742Y45320507D01*
X-44645463Y45227652D01*
X-44645465Y45227651D01*
X-44736618Y45200000D01*
X-44833968Y45170469D01*
X-44980876Y45156000D01*
X-45779124Y45156000D01*
X-45926032Y45170469D01*
X-46023382Y45200000D01*
X-46114535Y45227651D01*
X-46114537Y45227652D01*
X-46288258Y45320507D01*
X-46440528Y45445472D01*
X-46565493Y45597742D01*
X-46658348Y45771463D01*
X-46659724Y45776000D01*
X-46715530Y45959966D01*
X-46715531Y45959968D01*
X-46734838Y46156000D01*
X-46715531Y46352032D01*
X-46679128Y46472034D01*
X-46658349Y46540535D01*
X-46658348Y46540537D01*
X-46565493Y46714258D01*
X-46440528Y46866528D01*
X-46288258Y46991493D01*
X-46114537Y47084348D01*
X-46114535Y47084349D01*
X-46020285Y47112939D01*
X-45926032Y47141531D01*
X-45779124Y47156000D01*
X-44980876Y47156000D01*
X-44833968Y47141531D01*
G37*
G36*
X-52453968Y47141531D02*
G01*
X-52359715Y47112939D01*
X-52265465Y47084349D01*
X-52265463Y47084348D01*
X-52091742Y46991493D01*
X-51939472Y46866528D01*
X-51814507Y46714258D01*
X-51721652Y46540537D01*
X-51721651Y46540535D01*
X-51700872Y46472034D01*
X-51664469Y46352032D01*
X-51645162Y46156000D01*
X-51664469Y45959968D01*
X-51664470Y45959966D01*
X-51720275Y45776000D01*
X-51721652Y45771463D01*
X-51814507Y45597742D01*
X-51939472Y45445472D01*
X-52091742Y45320507D01*
X-52265463Y45227652D01*
X-52265465Y45227651D01*
X-52356618Y45200000D01*
X-52453968Y45170469D01*
X-52600876Y45156000D01*
X-53399124Y45156000D01*
X-53546032Y45170469D01*
X-53643382Y45200000D01*
X-53734535Y45227651D01*
X-53734537Y45227652D01*
X-53908258Y45320507D01*
X-54060528Y45445472D01*
X-54185493Y45597742D01*
X-54278348Y45771463D01*
X-54279724Y45776000D01*
X-54335530Y45959966D01*
X-54335531Y45959968D01*
X-54354838Y46156000D01*
X-54335531Y46352032D01*
X-54299128Y46472034D01*
X-54278349Y46540535D01*
X-54278348Y46540537D01*
X-54185493Y46714258D01*
X-54060528Y46866528D01*
X-53908258Y46991493D01*
X-53734537Y47084348D01*
X-53734535Y47084349D01*
X-53640285Y47112939D01*
X-53546032Y47141531D01*
X-53399124Y47156000D01*
X-52600876Y47156000D01*
X-52453968Y47141531D01*
G37*
G36*
X-39272710Y47174381D02*
G01*
X-39208311Y47161571D01*
X-39026322Y47086189D01*
X-38862537Y46976751D01*
X-38723249Y46837463D01*
X-38613811Y46673678D01*
X-38538429Y46491689D01*
X-38534519Y46472032D01*
X-38500000Y46298493D01*
X-38500000Y46101507D01*
X-38504285Y46079966D01*
X-38538429Y45908311D01*
X-38613811Y45726322D01*
X-38723249Y45562537D01*
X-38862537Y45423249D01*
X-39026322Y45313811D01*
X-39208311Y45238429D01*
X-39262491Y45227652D01*
X-39401507Y45200000D01*
X-39598493Y45200000D01*
X-39737509Y45227652D01*
X-39791689Y45238429D01*
X-39973678Y45313811D01*
X-40137463Y45423249D01*
X-40276751Y45562537D01*
X-40386189Y45726322D01*
X-40461571Y45908311D01*
X-40495715Y46079966D01*
X-40500000Y46101507D01*
X-40500000Y46298493D01*
X-40465481Y46472032D01*
X-40461571Y46491689D01*
X-40386189Y46673678D01*
X-40276751Y46837463D01*
X-40137463Y46976751D01*
X-39973678Y47086189D01*
X-39791689Y47161571D01*
X-39727290Y47174381D01*
X-39598493Y47200000D01*
X-39401507Y47200000D01*
X-39272710Y47174381D01*
G37*
G36*
X-73613968Y47261531D02*
G01*
X-73519715Y47232939D01*
X-73425465Y47204349D01*
X-73425463Y47204348D01*
X-73251742Y47111493D01*
X-73099472Y46986528D01*
X-72974507Y46834258D01*
X-72906257Y46706570D01*
X-72881651Y46660535D01*
X-72875661Y46640789D01*
X-72824469Y46472032D01*
X-72805162Y46276000D01*
X-72824469Y46079968D01*
X-72881652Y45891463D01*
X-72974507Y45717742D01*
X-73099472Y45565472D01*
X-73251742Y45440507D01*
X-73425463Y45347652D01*
X-73425465Y45347651D01*
X-73514944Y45320508D01*
X-73613968Y45290469D01*
X-73760876Y45276000D01*
X-74559124Y45276000D01*
X-74706032Y45290469D01*
X-74805056Y45320508D01*
X-74894535Y45347651D01*
X-74894537Y45347652D01*
X-75068258Y45440507D01*
X-75220528Y45565472D01*
X-75345493Y45717742D01*
X-75438348Y45891463D01*
X-75495531Y46079968D01*
X-75514838Y46276000D01*
X-75495531Y46472032D01*
X-75444339Y46640789D01*
X-75438349Y46660535D01*
X-75413743Y46706570D01*
X-75345493Y46834258D01*
X-75220528Y46986528D01*
X-75068258Y47111493D01*
X-74894537Y47204348D01*
X-74894535Y47204349D01*
X-74800284Y47232940D01*
X-74706032Y47261531D01*
X-74559124Y47276000D01*
X-73760876Y47276000D01*
X-73613968Y47261531D01*
G37*
G36*
X-78772710Y47250381D02*
G01*
X-78708311Y47237571D01*
X-78526322Y47162189D01*
X-78362537Y47052751D01*
X-78223249Y46913463D01*
X-78113811Y46749678D01*
X-78068708Y46640789D01*
X-78038429Y46567688D01*
X-78000000Y46374493D01*
X-78000000Y46177507D01*
X-78019402Y46079968D01*
X-78038429Y45984311D01*
X-78113811Y45802322D01*
X-78223249Y45638537D01*
X-78362537Y45499249D01*
X-78526322Y45389811D01*
X-78708311Y45314429D01*
X-78772710Y45301619D01*
X-78901507Y45276000D01*
X-79098493Y45276000D01*
X-79227290Y45301619D01*
X-79291689Y45314429D01*
X-79473678Y45389811D01*
X-79637463Y45499249D01*
X-79776751Y45638537D01*
X-79886189Y45802322D01*
X-79961571Y45984311D01*
X-79980598Y46079968D01*
X-80000000Y46177507D01*
X-80000000Y46374493D01*
X-79961571Y46567688D01*
X-79931292Y46640789D01*
X-79886189Y46749678D01*
X-79776751Y46913463D01*
X-79637463Y47052751D01*
X-79473678Y47162189D01*
X-79291689Y47237571D01*
X-79227290Y47250381D01*
X-79098493Y47276000D01*
X-78901507Y47276000D01*
X-78772710Y47250381D01*
G37*
G36*
X-65993968Y47261531D02*
G01*
X-65899715Y47232939D01*
X-65805465Y47204349D01*
X-65805463Y47204348D01*
X-65631742Y47111493D01*
X-65479472Y46986528D01*
X-65354507Y46834258D01*
X-65286257Y46706570D01*
X-65261651Y46660535D01*
X-65255661Y46640789D01*
X-65204469Y46472032D01*
X-65185162Y46276000D01*
X-65204469Y46079968D01*
X-65261652Y45891463D01*
X-65354507Y45717742D01*
X-65479472Y45565472D01*
X-65631742Y45440507D01*
X-65805463Y45347652D01*
X-65805465Y45347651D01*
X-65894944Y45320508D01*
X-65993968Y45290469D01*
X-66140876Y45276000D01*
X-66939124Y45276000D01*
X-67086032Y45290469D01*
X-67185056Y45320508D01*
X-67274535Y45347651D01*
X-67274537Y45347652D01*
X-67448258Y45440507D01*
X-67600528Y45565472D01*
X-67725493Y45717742D01*
X-67818348Y45891463D01*
X-67875531Y46079968D01*
X-67894838Y46276000D01*
X-67875531Y46472032D01*
X-67824339Y46640789D01*
X-67818349Y46660535D01*
X-67793743Y46706570D01*
X-67725493Y46834258D01*
X-67600528Y46986528D01*
X-67448258Y47111493D01*
X-67274537Y47204348D01*
X-67274535Y47204349D01*
X-67180284Y47232940D01*
X-67086032Y47261531D01*
X-66939124Y47276000D01*
X-66140876Y47276000D01*
X-65993968Y47261531D01*
G37*
G36*
X-61617519Y48419814D02*
G01*
X-61572795Y48406246D01*
X-61531570Y48384211D01*
X-61495439Y48354561D01*
X-61465789Y48318430D01*
X-61443754Y48277205D01*
X-61430186Y48232481D01*
X-61425000Y48179824D01*
X-61425000Y46845176D01*
X-61430186Y46792519D01*
X-61443754Y46747795D01*
X-61465789Y46706570D01*
X-61495439Y46670439D01*
X-61531570Y46640789D01*
X-61572795Y46618754D01*
X-61617519Y46605186D01*
X-61670176Y46600000D01*
X-63329824Y46600000D01*
X-63382481Y46605186D01*
X-63427205Y46618754D01*
X-63468430Y46640789D01*
X-63504561Y46670439D01*
X-63534211Y46706570D01*
X-63556246Y46747795D01*
X-63569814Y46792519D01*
X-63575000Y46845176D01*
X-63575000Y48179824D01*
X-63569814Y48232481D01*
X-63556246Y48277205D01*
X-63534211Y48318430D01*
X-63504561Y48354561D01*
X-63468430Y48384211D01*
X-63427205Y48406246D01*
X-63382481Y48419814D01*
X-63329824Y48425000D01*
X-61670176Y48425000D01*
X-61617519Y48419814D01*
G37*
G36*
X-58117519Y48419814D02*
G01*
X-58072795Y48406246D01*
X-58031570Y48384211D01*
X-57995439Y48354561D01*
X-57965789Y48318430D01*
X-57943754Y48277205D01*
X-57930186Y48232481D01*
X-57925000Y48179824D01*
X-57925000Y46845176D01*
X-57930186Y46792519D01*
X-57943754Y46747795D01*
X-57965789Y46706570D01*
X-57995439Y46670439D01*
X-58031570Y46640789D01*
X-58072795Y46618754D01*
X-58117519Y46605186D01*
X-58170176Y46600000D01*
X-59829824Y46600000D01*
X-59882481Y46605186D01*
X-59927205Y46618754D01*
X-59968430Y46640789D01*
X-60004561Y46670439D01*
X-60034211Y46706570D01*
X-60056246Y46747795D01*
X-60069814Y46792519D01*
X-60075000Y46845176D01*
X-60075000Y48179824D01*
X-60069814Y48232481D01*
X-60056246Y48277205D01*
X-60034211Y48318430D01*
X-60004561Y48354561D01*
X-59968430Y48384211D01*
X-59927205Y48406246D01*
X-59882481Y48419814D01*
X-59829824Y48425000D01*
X-58170176Y48425000D01*
X-58117519Y48419814D01*
G37*
G36*
X-52453968Y49681531D02*
G01*
X-52359715Y49652939D01*
X-52265465Y49624349D01*
X-52265463Y49624348D01*
X-52091742Y49531493D01*
X-51939472Y49406528D01*
X-51814507Y49254258D01*
X-51721652Y49080537D01*
X-51664469Y48892032D01*
X-51645162Y48696000D01*
X-51664469Y48499968D01*
X-51664470Y48499966D01*
X-51719538Y48318430D01*
X-51721652Y48311463D01*
X-51814507Y48137742D01*
X-51939472Y47985472D01*
X-52091742Y47860507D01*
X-52265463Y47767652D01*
X-52265465Y47767651D01*
X-52359716Y47739060D01*
X-52453968Y47710469D01*
X-52600876Y47696000D01*
X-53399124Y47696000D01*
X-53546032Y47710469D01*
X-53640284Y47739060D01*
X-53734535Y47767651D01*
X-53734537Y47767652D01*
X-53908258Y47860507D01*
X-54060528Y47985472D01*
X-54185493Y48137742D01*
X-54278348Y48311463D01*
X-54280461Y48318430D01*
X-54335530Y48499966D01*
X-54335531Y48499968D01*
X-54354838Y48696000D01*
X-54335531Y48892032D01*
X-54278348Y49080537D01*
X-54185493Y49254258D01*
X-54060528Y49406528D01*
X-53908258Y49531493D01*
X-53734537Y49624348D01*
X-53734535Y49624349D01*
X-53640285Y49652939D01*
X-53546032Y49681531D01*
X-53399124Y49696000D01*
X-52600876Y49696000D01*
X-52453968Y49681531D01*
G37*
G36*
X-44833968Y49681531D02*
G01*
X-44739715Y49652939D01*
X-44645465Y49624349D01*
X-44645463Y49624348D01*
X-44471742Y49531493D01*
X-44319472Y49406528D01*
X-44194507Y49254258D01*
X-44101652Y49080537D01*
X-44044469Y48892032D01*
X-44025162Y48696000D01*
X-44044469Y48499968D01*
X-44044470Y48499966D01*
X-44099538Y48318430D01*
X-44101652Y48311463D01*
X-44194507Y48137742D01*
X-44319472Y47985472D01*
X-44471742Y47860507D01*
X-44645463Y47767652D01*
X-44645465Y47767651D01*
X-44739716Y47739060D01*
X-44833968Y47710469D01*
X-44980876Y47696000D01*
X-45779124Y47696000D01*
X-45926032Y47710469D01*
X-46020284Y47739060D01*
X-46114535Y47767651D01*
X-46114537Y47767652D01*
X-46288258Y47860507D01*
X-46440528Y47985472D01*
X-46565493Y48137742D01*
X-46658348Y48311463D01*
X-46660461Y48318430D01*
X-46715530Y48499966D01*
X-46715531Y48499968D01*
X-46734838Y48696000D01*
X-46715531Y48892032D01*
X-46658348Y49080537D01*
X-46565493Y49254258D01*
X-46440528Y49406528D01*
X-46288258Y49531493D01*
X-46114537Y49624348D01*
X-46114535Y49624349D01*
X-46020285Y49652939D01*
X-45926032Y49681531D01*
X-45779124Y49696000D01*
X-44980876Y49696000D01*
X-44833968Y49681531D01*
G37*
G36*
X-73613968Y49801531D02*
G01*
X-73519715Y49772939D01*
X-73425465Y49744349D01*
X-73425463Y49744348D01*
X-73251742Y49651493D01*
X-73099472Y49526528D01*
X-72974507Y49374258D01*
X-72881652Y49200537D01*
X-72824469Y49012032D01*
X-72805162Y48816000D01*
X-72824469Y48619968D01*
X-72881652Y48431463D01*
X-72974507Y48257742D01*
X-73099472Y48105472D01*
X-73251742Y47980507D01*
X-73425463Y47887652D01*
X-73425465Y47887651D01*
X-73514944Y47860508D01*
X-73613968Y47830469D01*
X-73760876Y47816000D01*
X-74559124Y47816000D01*
X-74706032Y47830469D01*
X-74805056Y47860508D01*
X-74894535Y47887651D01*
X-74894537Y47887652D01*
X-75068258Y47980507D01*
X-75220528Y48105472D01*
X-75345493Y48257742D01*
X-75438348Y48431463D01*
X-75495531Y48619968D01*
X-75514838Y48816000D01*
X-75495531Y49012032D01*
X-75438348Y49200537D01*
X-75345493Y49374258D01*
X-75220528Y49526528D01*
X-75068258Y49651493D01*
X-74894537Y49744348D01*
X-74894535Y49744349D01*
X-74800285Y49772939D01*
X-74706032Y49801531D01*
X-74559124Y49816000D01*
X-73760876Y49816000D01*
X-73613968Y49801531D01*
G37*
G36*
X-65993968Y49801531D02*
G01*
X-65899715Y49772939D01*
X-65805465Y49744349D01*
X-65805463Y49744348D01*
X-65631742Y49651493D01*
X-65479472Y49526528D01*
X-65354507Y49374258D01*
X-65261652Y49200537D01*
X-65204469Y49012032D01*
X-65185162Y48816000D01*
X-65204469Y48619968D01*
X-65261652Y48431463D01*
X-65354507Y48257742D01*
X-65479472Y48105472D01*
X-65631742Y47980507D01*
X-65805463Y47887652D01*
X-65805465Y47887651D01*
X-65894944Y47860508D01*
X-65993968Y47830469D01*
X-66140876Y47816000D01*
X-66939124Y47816000D01*
X-67086032Y47830469D01*
X-67185056Y47860508D01*
X-67274535Y47887651D01*
X-67274537Y47887652D01*
X-67448258Y47980507D01*
X-67600528Y48105472D01*
X-67725493Y48257742D01*
X-67818348Y48431463D01*
X-67875531Y48619968D01*
X-67894838Y48816000D01*
X-67875531Y49012032D01*
X-67818348Y49200537D01*
X-67725493Y49374258D01*
X-67600528Y49526528D01*
X-67448258Y49651493D01*
X-67274537Y49744348D01*
X-67274535Y49744349D01*
X-67180285Y49772939D01*
X-67086032Y49801531D01*
X-66939124Y49816000D01*
X-66140876Y49816000D01*
X-65993968Y49801531D01*
G37*
G36*
X-58117519Y51394814D02*
G01*
X-58072795Y51381246D01*
X-58031570Y51359211D01*
X-57995439Y51329561D01*
X-57965789Y51293430D01*
X-57943754Y51252205D01*
X-57930186Y51207481D01*
X-57925000Y51154824D01*
X-57925000Y49820176D01*
X-57930186Y49767519D01*
X-57943754Y49722795D01*
X-57965789Y49681570D01*
X-57995439Y49645439D01*
X-58031570Y49615789D01*
X-58072795Y49593754D01*
X-58117519Y49580186D01*
X-58170176Y49575000D01*
X-59829824Y49575000D01*
X-59882481Y49580186D01*
X-59927205Y49593754D01*
X-59968430Y49615789D01*
X-60004561Y49645439D01*
X-60034211Y49681570D01*
X-60056246Y49722795D01*
X-60069814Y49767519D01*
X-60075000Y49820176D01*
X-60075000Y51154824D01*
X-60069814Y51207481D01*
X-60056246Y51252205D01*
X-60034211Y51293430D01*
X-60004561Y51329561D01*
X-59968430Y51359211D01*
X-59927205Y51381246D01*
X-59882481Y51394814D01*
X-59829824Y51400000D01*
X-58170176Y51400000D01*
X-58117519Y51394814D01*
G37*
G36*
X-61617519Y51394814D02*
G01*
X-61572795Y51381246D01*
X-61531570Y51359211D01*
X-61495439Y51329561D01*
X-61465789Y51293430D01*
X-61443754Y51252205D01*
X-61430186Y51207481D01*
X-61425000Y51154824D01*
X-61425000Y49820176D01*
X-61430186Y49767519D01*
X-61443754Y49722795D01*
X-61465789Y49681570D01*
X-61495439Y49645439D01*
X-61531570Y49615789D01*
X-61572795Y49593754D01*
X-61617519Y49580186D01*
X-61670176Y49575000D01*
X-63329824Y49575000D01*
X-63382481Y49580186D01*
X-63427205Y49593754D01*
X-63468430Y49615789D01*
X-63504561Y49645439D01*
X-63534211Y49681570D01*
X-63556246Y49722795D01*
X-63569814Y49767519D01*
X-63575000Y49820176D01*
X-63575000Y51154824D01*
X-63569814Y51207481D01*
X-63556246Y51252205D01*
X-63534211Y51293430D01*
X-63504561Y51329561D01*
X-63468430Y51359211D01*
X-63427205Y51381246D01*
X-63382481Y51394814D01*
X-63329824Y51400000D01*
X-61670176Y51400000D01*
X-61617519Y51394814D01*
G37*
G36*
X-20158664Y51757746D02*
G01*
X-20066895Y51739492D01*
X-19894006Y51667879D01*
X-19738410Y51563913D01*
X-19606087Y51431590D01*
X-19502121Y51275994D01*
X-19430508Y51103105D01*
X-19394000Y50919567D01*
X-19394000Y50732433D01*
X-19430508Y50548895D01*
X-19502121Y50376006D01*
X-19606087Y50220410D01*
X-19738410Y50088087D01*
X-19894006Y49984121D01*
X-20066895Y49912508D01*
X-20154029Y49895176D01*
X-20250432Y49876000D01*
X-20437568Y49876000D01*
X-20533971Y49895176D01*
X-20621105Y49912508D01*
X-20793994Y49984121D01*
X-20949590Y50088087D01*
X-21081913Y50220410D01*
X-21185879Y50376006D01*
X-21257492Y50548895D01*
X-21294000Y50732433D01*
X-21294000Y50919567D01*
X-21257492Y51103105D01*
X-21185879Y51275994D01*
X-21081913Y51431590D01*
X-20949590Y51563913D01*
X-20793994Y51667879D01*
X-20621105Y51739492D01*
X-20529336Y51757746D01*
X-20437568Y51776000D01*
X-20250432Y51776000D01*
X-20158664Y51757746D01*
G37*
G36*
X-22658664Y51757746D02*
G01*
X-22566895Y51739492D01*
X-22394006Y51667879D01*
X-22238410Y51563913D01*
X-22106087Y51431590D01*
X-22002121Y51275994D01*
X-21930508Y51103105D01*
X-21894000Y50919567D01*
X-21894000Y50732433D01*
X-21930508Y50548895D01*
X-22002121Y50376006D01*
X-22106087Y50220410D01*
X-22238410Y50088087D01*
X-22394006Y49984121D01*
X-22566895Y49912508D01*
X-22654029Y49895176D01*
X-22750432Y49876000D01*
X-22937568Y49876000D01*
X-23033971Y49895176D01*
X-23121105Y49912508D01*
X-23293994Y49984121D01*
X-23449590Y50088087D01*
X-23581913Y50220410D01*
X-23685879Y50376006D01*
X-23757492Y50548895D01*
X-23794000Y50732433D01*
X-23794000Y50919567D01*
X-23757492Y51103105D01*
X-23685879Y51275994D01*
X-23581913Y51431590D01*
X-23449590Y51563913D01*
X-23293994Y51667879D01*
X-23121105Y51739492D01*
X-23029336Y51757746D01*
X-22937568Y51776000D01*
X-22750432Y51776000D01*
X-22658664Y51757746D01*
G37*
G36*
X-97658664Y51757746D02*
G01*
X-97566895Y51739492D01*
X-97394006Y51667879D01*
X-97238410Y51563913D01*
X-97106087Y51431590D01*
X-97002121Y51275994D01*
X-96930508Y51103105D01*
X-96894000Y50919567D01*
X-96894000Y50732433D01*
X-96930508Y50548895D01*
X-97002121Y50376006D01*
X-97106087Y50220410D01*
X-97238410Y50088087D01*
X-97394006Y49984121D01*
X-97566895Y49912508D01*
X-97654029Y49895176D01*
X-97750432Y49876000D01*
X-97937568Y49876000D01*
X-98033971Y49895176D01*
X-98121105Y49912508D01*
X-98293994Y49984121D01*
X-98449590Y50088087D01*
X-98581913Y50220410D01*
X-98685879Y50376006D01*
X-98757492Y50548895D01*
X-98794000Y50732433D01*
X-98794000Y50919567D01*
X-98757492Y51103105D01*
X-98685879Y51275994D01*
X-98581913Y51431590D01*
X-98449590Y51563913D01*
X-98293994Y51667879D01*
X-98121105Y51739492D01*
X-98029336Y51757746D01*
X-97937568Y51776000D01*
X-97750432Y51776000D01*
X-97658664Y51757746D01*
G37*
G36*
X-100158664Y51757746D02*
G01*
X-100066895Y51739492D01*
X-99894006Y51667879D01*
X-99738410Y51563913D01*
X-99606087Y51431590D01*
X-99502121Y51275994D01*
X-99430508Y51103105D01*
X-99394000Y50919567D01*
X-99394000Y50732433D01*
X-99430508Y50548895D01*
X-99502121Y50376006D01*
X-99606087Y50220410D01*
X-99738410Y50088087D01*
X-99894006Y49984121D01*
X-100066895Y49912508D01*
X-100154029Y49895176D01*
X-100250432Y49876000D01*
X-100437568Y49876000D01*
X-100533971Y49895176D01*
X-100621105Y49912508D01*
X-100793994Y49984121D01*
X-100949590Y50088087D01*
X-101081913Y50220410D01*
X-101185879Y50376006D01*
X-101257492Y50548895D01*
X-101294000Y50732433D01*
X-101294000Y50919567D01*
X-101257492Y51103105D01*
X-101185879Y51275994D01*
X-101081913Y51431590D01*
X-100949590Y51563913D01*
X-100793994Y51667879D01*
X-100621105Y51739492D01*
X-100529336Y51757746D01*
X-100437568Y51776000D01*
X-100250432Y51776000D01*
X-100158664Y51757746D01*
G37*
G36*
X-17658664Y51757746D02*
G01*
X-17566895Y51739492D01*
X-17394006Y51667879D01*
X-17238410Y51563913D01*
X-17106087Y51431590D01*
X-17002121Y51275994D01*
X-16930508Y51103105D01*
X-16894000Y50919567D01*
X-16894000Y50732433D01*
X-16930508Y50548895D01*
X-17002121Y50376006D01*
X-17106087Y50220410D01*
X-17238410Y50088087D01*
X-17394006Y49984121D01*
X-17566895Y49912508D01*
X-17654029Y49895176D01*
X-17750432Y49876000D01*
X-17937568Y49876000D01*
X-18033971Y49895176D01*
X-18121105Y49912508D01*
X-18293994Y49984121D01*
X-18449590Y50088087D01*
X-18581913Y50220410D01*
X-18685879Y50376006D01*
X-18757492Y50548895D01*
X-18794000Y50732433D01*
X-18794000Y50919567D01*
X-18757492Y51103105D01*
X-18685879Y51275994D01*
X-18581913Y51431590D01*
X-18449590Y51563913D01*
X-18293994Y51667879D01*
X-18121105Y51739492D01*
X-18029336Y51757746D01*
X-17937568Y51776000D01*
X-17750432Y51776000D01*
X-17658664Y51757746D01*
G37*
G36*
X-102658664Y51757746D02*
G01*
X-102566895Y51739492D01*
X-102394006Y51667879D01*
X-102238410Y51563913D01*
X-102106087Y51431590D01*
X-102002121Y51275994D01*
X-101930508Y51103105D01*
X-101894000Y50919567D01*
X-101894000Y50732433D01*
X-101930508Y50548895D01*
X-102002121Y50376006D01*
X-102106087Y50220410D01*
X-102238410Y50088087D01*
X-102394006Y49984121D01*
X-102566895Y49912508D01*
X-102654029Y49895176D01*
X-102750432Y49876000D01*
X-102937568Y49876000D01*
X-103033971Y49895176D01*
X-103121105Y49912508D01*
X-103293994Y49984121D01*
X-103449590Y50088087D01*
X-103581913Y50220410D01*
X-103685879Y50376006D01*
X-103757492Y50548895D01*
X-103794000Y50732433D01*
X-103794000Y50919567D01*
X-103757492Y51103105D01*
X-103685879Y51275994D01*
X-103581913Y51431590D01*
X-103449590Y51563913D01*
X-103293994Y51667879D01*
X-103121105Y51739492D01*
X-103029336Y51757746D01*
X-102937568Y51776000D01*
X-102750432Y51776000D01*
X-102658664Y51757746D01*
G37*
M02*
