G04 #@! TF.GenerationSoftware,KiCad,Pcbnew,(5.0.1-3-g963ef8bb5)*
G04 #@! TF.CreationDate,2018-10-22T16:54:22-05:00*
G04 #@! TF.ProjectId,PiKwonDoHAT,50694B776F6E446F4841542E6B696361,rev?*
G04 #@! TF.SameCoordinates,PX7735940PY42c1d80*
G04 #@! TF.FileFunction,Copper,L1,Top,Signal*
G04 #@! TF.FilePolarity,Positive*
%FSLAX46Y46*%
G04 Gerber Fmt 4.6, Leading zero omitted, Abs format (unit mm)*
G04 Created by KiCad (PCBNEW (5.0.1-3-g963ef8bb5)) date Monday, October 22, 2018 at 04:54:22 PM*
%MOMM*%
%LPD*%
G01*
G04 APERTURE LIST*
G04 #@! TA.AperFunction,SMDPad,CuDef*
%ADD10R,1.200000X0.900000*%
G04 #@! TD*
G04 #@! TA.AperFunction,Conductor*
%ADD11C,0.100000*%
G04 #@! TD*
G04 #@! TA.AperFunction,SMDPad,CuDef*
%ADD12C,1.425000*%
G04 #@! TD*
G04 #@! TA.AperFunction,ComponentPad*
%ADD13R,1.700000X1.700000*%
G04 #@! TD*
G04 #@! TA.AperFunction,ComponentPad*
%ADD14O,1.700000X1.700000*%
G04 #@! TD*
G04 #@! TA.AperFunction,ComponentPad*
%ADD15C,1.524000*%
G04 #@! TD*
G04 #@! TA.AperFunction,WasherPad*
%ADD16C,3.500000*%
G04 #@! TD*
G04 #@! TA.AperFunction,SMDPad,CuDef*
%ADD17R,2.000000X1.700000*%
G04 #@! TD*
G04 #@! TA.AperFunction,SMDPad,CuDef*
%ADD18R,1.560000X0.650000*%
G04 #@! TD*
G04 #@! TA.AperFunction,SMDPad,CuDef*
%ADD19R,1.000000X1.000000*%
G04 #@! TD*
G04 #@! TA.AperFunction,Conductor*
%ADD20C,0.400000*%
G04 #@! TD*
G04 #@! TA.AperFunction,Conductor*
%ADD21C,1.000000*%
G04 #@! TD*
G04 #@! TA.AperFunction,Conductor*
%ADD22C,0.800000*%
G04 #@! TD*
G04 #@! TA.AperFunction,Conductor*
%ADD23C,0.500000*%
G04 #@! TD*
G04 #@! TA.AperFunction,Conductor*
%ADD24C,0.600000*%
G04 #@! TD*
G04 #@! TA.AperFunction,Conductor*
%ADD25C,0.450000*%
G04 #@! TD*
G04 APERTURE END LIST*
D10*
G04 #@! TO.P,D8,2*
G04 #@! TO.N,GND*
X-24003000Y-3303000D03*
G04 #@! TO.P,D8,1*
G04 #@! TO.N,/C_DATA*
X-24003000Y-6603000D03*
G04 #@! TD*
G04 #@! TO.P,D2,2*
G04 #@! TO.N,GND*
X-26118000Y-48388000D03*
G04 #@! TO.P,D2,1*
G04 #@! TO.N,/J1_DATA*
X-26118000Y-51688000D03*
G04 #@! TD*
G04 #@! TO.P,D3,1*
G04 #@! TO.N,/J1_LOAD*
X-19768000Y-51688000D03*
G04 #@! TO.P,D3,2*
G04 #@! TO.N,GND*
X-19768000Y-48388000D03*
G04 #@! TD*
G04 #@! TO.P,D4,2*
G04 #@! TO.N,GND*
X-25250000Y-33092000D03*
G04 #@! TO.P,D4,1*
G04 #@! TO.N,/J2_DATA*
X-25250000Y-36392000D03*
G04 #@! TD*
G04 #@! TO.P,D9,1*
G04 #@! TO.N,/C_LOAD*
X-17736000Y-8254000D03*
G04 #@! TO.P,D9,2*
G04 #@! TO.N,GND*
X-17736000Y-4954000D03*
G04 #@! TD*
G04 #@! TO.P,D7,1*
G04 #@! TO.N,/J3_LOAD*
X-19768000Y-22478000D03*
G04 #@! TO.P,D7,2*
G04 #@! TO.N,GND*
X-19768000Y-19178000D03*
G04 #@! TD*
G04 #@! TO.P,D6,2*
G04 #@! TO.N,GND*
X-25356000Y-19178000D03*
G04 #@! TO.P,D6,1*
G04 #@! TO.N,/J3_DATA*
X-25356000Y-22478000D03*
G04 #@! TD*
G04 #@! TO.P,D5,1*
G04 #@! TO.N,/J2_LOAD*
X-20250000Y-36392000D03*
G04 #@! TO.P,D5,2*
G04 #@! TO.N,GND*
X-20250000Y-33092000D03*
G04 #@! TD*
D11*
G04 #@! TO.N,GND*
G04 #@! TO.C,C1*
G36*
X-13066496Y-54189204D02*
X-13042227Y-54192804D01*
X-13018429Y-54198765D01*
X-12995329Y-54207030D01*
X-12973151Y-54217520D01*
X-12952107Y-54230133D01*
X-12932402Y-54244747D01*
X-12914223Y-54261223D01*
X-12897747Y-54279402D01*
X-12883133Y-54299107D01*
X-12870520Y-54320151D01*
X-12860030Y-54342329D01*
X-12851765Y-54365429D01*
X-12845804Y-54389227D01*
X-12842204Y-54413496D01*
X-12841000Y-54438000D01*
X-12841000Y-55363000D01*
X-12842204Y-55387504D01*
X-12845804Y-55411773D01*
X-12851765Y-55435571D01*
X-12860030Y-55458671D01*
X-12870520Y-55480849D01*
X-12883133Y-55501893D01*
X-12897747Y-55521598D01*
X-12914223Y-55539777D01*
X-12932402Y-55556253D01*
X-12952107Y-55570867D01*
X-12973151Y-55583480D01*
X-12995329Y-55593970D01*
X-13018429Y-55602235D01*
X-13042227Y-55608196D01*
X-13066496Y-55611796D01*
X-13091000Y-55613000D01*
X-14341000Y-55613000D01*
X-14365504Y-55611796D01*
X-14389773Y-55608196D01*
X-14413571Y-55602235D01*
X-14436671Y-55593970D01*
X-14458849Y-55583480D01*
X-14479893Y-55570867D01*
X-14499598Y-55556253D01*
X-14517777Y-55539777D01*
X-14534253Y-55521598D01*
X-14548867Y-55501893D01*
X-14561480Y-55480849D01*
X-14571970Y-55458671D01*
X-14580235Y-55435571D01*
X-14586196Y-55411773D01*
X-14589796Y-55387504D01*
X-14591000Y-55363000D01*
X-14591000Y-54438000D01*
X-14589796Y-54413496D01*
X-14586196Y-54389227D01*
X-14580235Y-54365429D01*
X-14571970Y-54342329D01*
X-14561480Y-54320151D01*
X-14548867Y-54299107D01*
X-14534253Y-54279402D01*
X-14517777Y-54261223D01*
X-14499598Y-54244747D01*
X-14479893Y-54230133D01*
X-14458849Y-54217520D01*
X-14436671Y-54207030D01*
X-14413571Y-54198765D01*
X-14389773Y-54192804D01*
X-14365504Y-54189204D01*
X-14341000Y-54188000D01*
X-13091000Y-54188000D01*
X-13066496Y-54189204D01*
X-13066496Y-54189204D01*
G37*
D12*
G04 #@! TD*
G04 #@! TO.P,C1,2*
G04 #@! TO.N,GND*
X-13716000Y-54900500D03*
D11*
G04 #@! TO.N,+5V*
G04 #@! TO.C,C1*
G36*
X-13066496Y-57164204D02*
X-13042227Y-57167804D01*
X-13018429Y-57173765D01*
X-12995329Y-57182030D01*
X-12973151Y-57192520D01*
X-12952107Y-57205133D01*
X-12932402Y-57219747D01*
X-12914223Y-57236223D01*
X-12897747Y-57254402D01*
X-12883133Y-57274107D01*
X-12870520Y-57295151D01*
X-12860030Y-57317329D01*
X-12851765Y-57340429D01*
X-12845804Y-57364227D01*
X-12842204Y-57388496D01*
X-12841000Y-57413000D01*
X-12841000Y-58338000D01*
X-12842204Y-58362504D01*
X-12845804Y-58386773D01*
X-12851765Y-58410571D01*
X-12860030Y-58433671D01*
X-12870520Y-58455849D01*
X-12883133Y-58476893D01*
X-12897747Y-58496598D01*
X-12914223Y-58514777D01*
X-12932402Y-58531253D01*
X-12952107Y-58545867D01*
X-12973151Y-58558480D01*
X-12995329Y-58568970D01*
X-13018429Y-58577235D01*
X-13042227Y-58583196D01*
X-13066496Y-58586796D01*
X-13091000Y-58588000D01*
X-14341000Y-58588000D01*
X-14365504Y-58586796D01*
X-14389773Y-58583196D01*
X-14413571Y-58577235D01*
X-14436671Y-58568970D01*
X-14458849Y-58558480D01*
X-14479893Y-58545867D01*
X-14499598Y-58531253D01*
X-14517777Y-58514777D01*
X-14534253Y-58496598D01*
X-14548867Y-58476893D01*
X-14561480Y-58455849D01*
X-14571970Y-58433671D01*
X-14580235Y-58410571D01*
X-14586196Y-58386773D01*
X-14589796Y-58362504D01*
X-14591000Y-58338000D01*
X-14591000Y-57413000D01*
X-14589796Y-57388496D01*
X-14586196Y-57364227D01*
X-14580235Y-57340429D01*
X-14571970Y-57317329D01*
X-14561480Y-57295151D01*
X-14548867Y-57274107D01*
X-14534253Y-57254402D01*
X-14517777Y-57236223D01*
X-14499598Y-57219747D01*
X-14479893Y-57205133D01*
X-14458849Y-57192520D01*
X-14436671Y-57182030D01*
X-14413571Y-57173765D01*
X-14389773Y-57167804D01*
X-14365504Y-57164204D01*
X-14341000Y-57163000D01*
X-13091000Y-57163000D01*
X-13066496Y-57164204D01*
X-13066496Y-57164204D01*
G37*
D12*
G04 #@! TD*
G04 #@! TO.P,C1,1*
G04 #@! TO.N,+5V*
X-13716000Y-57875500D03*
D11*
G04 #@! TO.N,+5V*
G04 #@! TO.C,C2*
G36*
X-16241496Y-45607204D02*
X-16217227Y-45610804D01*
X-16193429Y-45616765D01*
X-16170329Y-45625030D01*
X-16148151Y-45635520D01*
X-16127107Y-45648133D01*
X-16107402Y-45662747D01*
X-16089223Y-45679223D01*
X-16072747Y-45697402D01*
X-16058133Y-45717107D01*
X-16045520Y-45738151D01*
X-16035030Y-45760329D01*
X-16026765Y-45783429D01*
X-16020804Y-45807227D01*
X-16017204Y-45831496D01*
X-16016000Y-45856000D01*
X-16016000Y-46781000D01*
X-16017204Y-46805504D01*
X-16020804Y-46829773D01*
X-16026765Y-46853571D01*
X-16035030Y-46876671D01*
X-16045520Y-46898849D01*
X-16058133Y-46919893D01*
X-16072747Y-46939598D01*
X-16089223Y-46957777D01*
X-16107402Y-46974253D01*
X-16127107Y-46988867D01*
X-16148151Y-47001480D01*
X-16170329Y-47011970D01*
X-16193429Y-47020235D01*
X-16217227Y-47026196D01*
X-16241496Y-47029796D01*
X-16266000Y-47031000D01*
X-17516000Y-47031000D01*
X-17540504Y-47029796D01*
X-17564773Y-47026196D01*
X-17588571Y-47020235D01*
X-17611671Y-47011970D01*
X-17633849Y-47001480D01*
X-17654893Y-46988867D01*
X-17674598Y-46974253D01*
X-17692777Y-46957777D01*
X-17709253Y-46939598D01*
X-17723867Y-46919893D01*
X-17736480Y-46898849D01*
X-17746970Y-46876671D01*
X-17755235Y-46853571D01*
X-17761196Y-46829773D01*
X-17764796Y-46805504D01*
X-17766000Y-46781000D01*
X-17766000Y-45856000D01*
X-17764796Y-45831496D01*
X-17761196Y-45807227D01*
X-17755235Y-45783429D01*
X-17746970Y-45760329D01*
X-17736480Y-45738151D01*
X-17723867Y-45717107D01*
X-17709253Y-45697402D01*
X-17692777Y-45679223D01*
X-17674598Y-45662747D01*
X-17654893Y-45648133D01*
X-17633849Y-45635520D01*
X-17611671Y-45625030D01*
X-17588571Y-45616765D01*
X-17564773Y-45610804D01*
X-17540504Y-45607204D01*
X-17516000Y-45606000D01*
X-16266000Y-45606000D01*
X-16241496Y-45607204D01*
X-16241496Y-45607204D01*
G37*
D12*
G04 #@! TD*
G04 #@! TO.P,C2,1*
G04 #@! TO.N,+5V*
X-16891000Y-46318500D03*
D11*
G04 #@! TO.N,GND*
G04 #@! TO.C,C2*
G36*
X-16241496Y-42632204D02*
X-16217227Y-42635804D01*
X-16193429Y-42641765D01*
X-16170329Y-42650030D01*
X-16148151Y-42660520D01*
X-16127107Y-42673133D01*
X-16107402Y-42687747D01*
X-16089223Y-42704223D01*
X-16072747Y-42722402D01*
X-16058133Y-42742107D01*
X-16045520Y-42763151D01*
X-16035030Y-42785329D01*
X-16026765Y-42808429D01*
X-16020804Y-42832227D01*
X-16017204Y-42856496D01*
X-16016000Y-42881000D01*
X-16016000Y-43806000D01*
X-16017204Y-43830504D01*
X-16020804Y-43854773D01*
X-16026765Y-43878571D01*
X-16035030Y-43901671D01*
X-16045520Y-43923849D01*
X-16058133Y-43944893D01*
X-16072747Y-43964598D01*
X-16089223Y-43982777D01*
X-16107402Y-43999253D01*
X-16127107Y-44013867D01*
X-16148151Y-44026480D01*
X-16170329Y-44036970D01*
X-16193429Y-44045235D01*
X-16217227Y-44051196D01*
X-16241496Y-44054796D01*
X-16266000Y-44056000D01*
X-17516000Y-44056000D01*
X-17540504Y-44054796D01*
X-17564773Y-44051196D01*
X-17588571Y-44045235D01*
X-17611671Y-44036970D01*
X-17633849Y-44026480D01*
X-17654893Y-44013867D01*
X-17674598Y-43999253D01*
X-17692777Y-43982777D01*
X-17709253Y-43964598D01*
X-17723867Y-43944893D01*
X-17736480Y-43923849D01*
X-17746970Y-43901671D01*
X-17755235Y-43878571D01*
X-17761196Y-43854773D01*
X-17764796Y-43830504D01*
X-17766000Y-43806000D01*
X-17766000Y-42881000D01*
X-17764796Y-42856496D01*
X-17761196Y-42832227D01*
X-17755235Y-42808429D01*
X-17746970Y-42785329D01*
X-17736480Y-42763151D01*
X-17723867Y-42742107D01*
X-17709253Y-42722402D01*
X-17692777Y-42704223D01*
X-17674598Y-42687747D01*
X-17654893Y-42673133D01*
X-17633849Y-42660520D01*
X-17611671Y-42650030D01*
X-17588571Y-42641765D01*
X-17564773Y-42635804D01*
X-17540504Y-42632204D01*
X-17516000Y-42631000D01*
X-16266000Y-42631000D01*
X-16241496Y-42632204D01*
X-16241496Y-42632204D01*
G37*
D12*
G04 #@! TD*
G04 #@! TO.P,C2,2*
G04 #@! TO.N,GND*
X-16891000Y-43343500D03*
D11*
G04 #@! TO.N,GND*
G04 #@! TO.C,C3*
G36*
X-19651996Y-29479204D02*
X-19627727Y-29482804D01*
X-19603929Y-29488765D01*
X-19580829Y-29497030D01*
X-19558651Y-29507520D01*
X-19537607Y-29520133D01*
X-19517902Y-29534747D01*
X-19499723Y-29551223D01*
X-19483247Y-29569402D01*
X-19468633Y-29589107D01*
X-19456020Y-29610151D01*
X-19445530Y-29632329D01*
X-19437265Y-29655429D01*
X-19431304Y-29679227D01*
X-19427704Y-29703496D01*
X-19426500Y-29728000D01*
X-19426500Y-30978000D01*
X-19427704Y-31002504D01*
X-19431304Y-31026773D01*
X-19437265Y-31050571D01*
X-19445530Y-31073671D01*
X-19456020Y-31095849D01*
X-19468633Y-31116893D01*
X-19483247Y-31136598D01*
X-19499723Y-31154777D01*
X-19517902Y-31171253D01*
X-19537607Y-31185867D01*
X-19558651Y-31198480D01*
X-19580829Y-31208970D01*
X-19603929Y-31217235D01*
X-19627727Y-31223196D01*
X-19651996Y-31226796D01*
X-19676500Y-31228000D01*
X-20601500Y-31228000D01*
X-20626004Y-31226796D01*
X-20650273Y-31223196D01*
X-20674071Y-31217235D01*
X-20697171Y-31208970D01*
X-20719349Y-31198480D01*
X-20740393Y-31185867D01*
X-20760098Y-31171253D01*
X-20778277Y-31154777D01*
X-20794753Y-31136598D01*
X-20809367Y-31116893D01*
X-20821980Y-31095849D01*
X-20832470Y-31073671D01*
X-20840735Y-31050571D01*
X-20846696Y-31026773D01*
X-20850296Y-31002504D01*
X-20851500Y-30978000D01*
X-20851500Y-29728000D01*
X-20850296Y-29703496D01*
X-20846696Y-29679227D01*
X-20840735Y-29655429D01*
X-20832470Y-29632329D01*
X-20821980Y-29610151D01*
X-20809367Y-29589107D01*
X-20794753Y-29569402D01*
X-20778277Y-29551223D01*
X-20760098Y-29534747D01*
X-20740393Y-29520133D01*
X-20719349Y-29507520D01*
X-20697171Y-29497030D01*
X-20674071Y-29488765D01*
X-20650273Y-29482804D01*
X-20626004Y-29479204D01*
X-20601500Y-29478000D01*
X-19676500Y-29478000D01*
X-19651996Y-29479204D01*
X-19651996Y-29479204D01*
G37*
D12*
G04 #@! TD*
G04 #@! TO.P,C3,2*
G04 #@! TO.N,GND*
X-20139000Y-30353000D03*
D11*
G04 #@! TO.N,+5V*
G04 #@! TO.C,C3*
G36*
X-22626996Y-29479204D02*
X-22602727Y-29482804D01*
X-22578929Y-29488765D01*
X-22555829Y-29497030D01*
X-22533651Y-29507520D01*
X-22512607Y-29520133D01*
X-22492902Y-29534747D01*
X-22474723Y-29551223D01*
X-22458247Y-29569402D01*
X-22443633Y-29589107D01*
X-22431020Y-29610151D01*
X-22420530Y-29632329D01*
X-22412265Y-29655429D01*
X-22406304Y-29679227D01*
X-22402704Y-29703496D01*
X-22401500Y-29728000D01*
X-22401500Y-30978000D01*
X-22402704Y-31002504D01*
X-22406304Y-31026773D01*
X-22412265Y-31050571D01*
X-22420530Y-31073671D01*
X-22431020Y-31095849D01*
X-22443633Y-31116893D01*
X-22458247Y-31136598D01*
X-22474723Y-31154777D01*
X-22492902Y-31171253D01*
X-22512607Y-31185867D01*
X-22533651Y-31198480D01*
X-22555829Y-31208970D01*
X-22578929Y-31217235D01*
X-22602727Y-31223196D01*
X-22626996Y-31226796D01*
X-22651500Y-31228000D01*
X-23576500Y-31228000D01*
X-23601004Y-31226796D01*
X-23625273Y-31223196D01*
X-23649071Y-31217235D01*
X-23672171Y-31208970D01*
X-23694349Y-31198480D01*
X-23715393Y-31185867D01*
X-23735098Y-31171253D01*
X-23753277Y-31154777D01*
X-23769753Y-31136598D01*
X-23784367Y-31116893D01*
X-23796980Y-31095849D01*
X-23807470Y-31073671D01*
X-23815735Y-31050571D01*
X-23821696Y-31026773D01*
X-23825296Y-31002504D01*
X-23826500Y-30978000D01*
X-23826500Y-29728000D01*
X-23825296Y-29703496D01*
X-23821696Y-29679227D01*
X-23815735Y-29655429D01*
X-23807470Y-29632329D01*
X-23796980Y-29610151D01*
X-23784367Y-29589107D01*
X-23769753Y-29569402D01*
X-23753277Y-29551223D01*
X-23735098Y-29534747D01*
X-23715393Y-29520133D01*
X-23694349Y-29507520D01*
X-23672171Y-29497030D01*
X-23649071Y-29488765D01*
X-23625273Y-29482804D01*
X-23601004Y-29479204D01*
X-23576500Y-29478000D01*
X-22651500Y-29478000D01*
X-22626996Y-29479204D01*
X-22626996Y-29479204D01*
G37*
D12*
G04 #@! TD*
G04 #@! TO.P,C3,1*
G04 #@! TO.N,+5V*
X-23114000Y-30353000D03*
D11*
G04 #@! TO.N,+5V*
G04 #@! TO.C,C4*
G36*
X-20812496Y-15001204D02*
X-20788227Y-15004804D01*
X-20764429Y-15010765D01*
X-20741329Y-15019030D01*
X-20719151Y-15029520D01*
X-20698107Y-15042133D01*
X-20678402Y-15056747D01*
X-20660223Y-15073223D01*
X-20643747Y-15091402D01*
X-20629133Y-15111107D01*
X-20616520Y-15132151D01*
X-20606030Y-15154329D01*
X-20597765Y-15177429D01*
X-20591804Y-15201227D01*
X-20588204Y-15225496D01*
X-20587000Y-15250000D01*
X-20587000Y-16500000D01*
X-20588204Y-16524504D01*
X-20591804Y-16548773D01*
X-20597765Y-16572571D01*
X-20606030Y-16595671D01*
X-20616520Y-16617849D01*
X-20629133Y-16638893D01*
X-20643747Y-16658598D01*
X-20660223Y-16676777D01*
X-20678402Y-16693253D01*
X-20698107Y-16707867D01*
X-20719151Y-16720480D01*
X-20741329Y-16730970D01*
X-20764429Y-16739235D01*
X-20788227Y-16745196D01*
X-20812496Y-16748796D01*
X-20837000Y-16750000D01*
X-21762000Y-16750000D01*
X-21786504Y-16748796D01*
X-21810773Y-16745196D01*
X-21834571Y-16739235D01*
X-21857671Y-16730970D01*
X-21879849Y-16720480D01*
X-21900893Y-16707867D01*
X-21920598Y-16693253D01*
X-21938777Y-16676777D01*
X-21955253Y-16658598D01*
X-21969867Y-16638893D01*
X-21982480Y-16617849D01*
X-21992970Y-16595671D01*
X-22001235Y-16572571D01*
X-22007196Y-16548773D01*
X-22010796Y-16524504D01*
X-22012000Y-16500000D01*
X-22012000Y-15250000D01*
X-22010796Y-15225496D01*
X-22007196Y-15201227D01*
X-22001235Y-15177429D01*
X-21992970Y-15154329D01*
X-21982480Y-15132151D01*
X-21969867Y-15111107D01*
X-21955253Y-15091402D01*
X-21938777Y-15073223D01*
X-21920598Y-15056747D01*
X-21900893Y-15042133D01*
X-21879849Y-15029520D01*
X-21857671Y-15019030D01*
X-21834571Y-15010765D01*
X-21810773Y-15004804D01*
X-21786504Y-15001204D01*
X-21762000Y-15000000D01*
X-20837000Y-15000000D01*
X-20812496Y-15001204D01*
X-20812496Y-15001204D01*
G37*
D12*
G04 #@! TD*
G04 #@! TO.P,C4,1*
G04 #@! TO.N,+5V*
X-21299500Y-15875000D03*
D11*
G04 #@! TO.N,GND*
G04 #@! TO.C,C4*
G36*
X-17837496Y-15001204D02*
X-17813227Y-15004804D01*
X-17789429Y-15010765D01*
X-17766329Y-15019030D01*
X-17744151Y-15029520D01*
X-17723107Y-15042133D01*
X-17703402Y-15056747D01*
X-17685223Y-15073223D01*
X-17668747Y-15091402D01*
X-17654133Y-15111107D01*
X-17641520Y-15132151D01*
X-17631030Y-15154329D01*
X-17622765Y-15177429D01*
X-17616804Y-15201227D01*
X-17613204Y-15225496D01*
X-17612000Y-15250000D01*
X-17612000Y-16500000D01*
X-17613204Y-16524504D01*
X-17616804Y-16548773D01*
X-17622765Y-16572571D01*
X-17631030Y-16595671D01*
X-17641520Y-16617849D01*
X-17654133Y-16638893D01*
X-17668747Y-16658598D01*
X-17685223Y-16676777D01*
X-17703402Y-16693253D01*
X-17723107Y-16707867D01*
X-17744151Y-16720480D01*
X-17766329Y-16730970D01*
X-17789429Y-16739235D01*
X-17813227Y-16745196D01*
X-17837496Y-16748796D01*
X-17862000Y-16750000D01*
X-18787000Y-16750000D01*
X-18811504Y-16748796D01*
X-18835773Y-16745196D01*
X-18859571Y-16739235D01*
X-18882671Y-16730970D01*
X-18904849Y-16720480D01*
X-18925893Y-16707867D01*
X-18945598Y-16693253D01*
X-18963777Y-16676777D01*
X-18980253Y-16658598D01*
X-18994867Y-16638893D01*
X-19007480Y-16617849D01*
X-19017970Y-16595671D01*
X-19026235Y-16572571D01*
X-19032196Y-16548773D01*
X-19035796Y-16524504D01*
X-19037000Y-16500000D01*
X-19037000Y-15250000D01*
X-19035796Y-15225496D01*
X-19032196Y-15201227D01*
X-19026235Y-15177429D01*
X-19017970Y-15154329D01*
X-19007480Y-15132151D01*
X-18994867Y-15111107D01*
X-18980253Y-15091402D01*
X-18963777Y-15073223D01*
X-18945598Y-15056747D01*
X-18925893Y-15042133D01*
X-18904849Y-15029520D01*
X-18882671Y-15019030D01*
X-18859571Y-15010765D01*
X-18835773Y-15004804D01*
X-18811504Y-15001204D01*
X-18787000Y-15000000D01*
X-17862000Y-15000000D01*
X-17837496Y-15001204D01*
X-17837496Y-15001204D01*
G37*
D12*
G04 #@! TD*
G04 #@! TO.P,C4,2*
G04 #@! TO.N,GND*
X-18324500Y-15875000D03*
D11*
G04 #@! TO.N,GND*
G04 #@! TO.C,C5*
G36*
X-35850496Y-58268204D02*
X-35826227Y-58271804D01*
X-35802429Y-58277765D01*
X-35779329Y-58286030D01*
X-35757151Y-58296520D01*
X-35736107Y-58309133D01*
X-35716402Y-58323747D01*
X-35698223Y-58340223D01*
X-35681747Y-58358402D01*
X-35667133Y-58378107D01*
X-35654520Y-58399151D01*
X-35644030Y-58421329D01*
X-35635765Y-58444429D01*
X-35629804Y-58468227D01*
X-35626204Y-58492496D01*
X-35625000Y-58517000D01*
X-35625000Y-59442000D01*
X-35626204Y-59466504D01*
X-35629804Y-59490773D01*
X-35635765Y-59514571D01*
X-35644030Y-59537671D01*
X-35654520Y-59559849D01*
X-35667133Y-59580893D01*
X-35681747Y-59600598D01*
X-35698223Y-59618777D01*
X-35716402Y-59635253D01*
X-35736107Y-59649867D01*
X-35757151Y-59662480D01*
X-35779329Y-59672970D01*
X-35802429Y-59681235D01*
X-35826227Y-59687196D01*
X-35850496Y-59690796D01*
X-35875000Y-59692000D01*
X-37125000Y-59692000D01*
X-37149504Y-59690796D01*
X-37173773Y-59687196D01*
X-37197571Y-59681235D01*
X-37220671Y-59672970D01*
X-37242849Y-59662480D01*
X-37263893Y-59649867D01*
X-37283598Y-59635253D01*
X-37301777Y-59618777D01*
X-37318253Y-59600598D01*
X-37332867Y-59580893D01*
X-37345480Y-59559849D01*
X-37355970Y-59537671D01*
X-37364235Y-59514571D01*
X-37370196Y-59490773D01*
X-37373796Y-59466504D01*
X-37375000Y-59442000D01*
X-37375000Y-58517000D01*
X-37373796Y-58492496D01*
X-37370196Y-58468227D01*
X-37364235Y-58444429D01*
X-37355970Y-58421329D01*
X-37345480Y-58399151D01*
X-37332867Y-58378107D01*
X-37318253Y-58358402D01*
X-37301777Y-58340223D01*
X-37283598Y-58323747D01*
X-37263893Y-58309133D01*
X-37242849Y-58296520D01*
X-37220671Y-58286030D01*
X-37197571Y-58277765D01*
X-37173773Y-58271804D01*
X-37149504Y-58268204D01*
X-37125000Y-58267000D01*
X-35875000Y-58267000D01*
X-35850496Y-58268204D01*
X-35850496Y-58268204D01*
G37*
D12*
G04 #@! TD*
G04 #@! TO.P,C5,2*
G04 #@! TO.N,GND*
X-36500000Y-58979500D03*
D11*
G04 #@! TO.N,Net-(C5-Pad1)*
G04 #@! TO.C,C5*
G36*
X-35850496Y-55293204D02*
X-35826227Y-55296804D01*
X-35802429Y-55302765D01*
X-35779329Y-55311030D01*
X-35757151Y-55321520D01*
X-35736107Y-55334133D01*
X-35716402Y-55348747D01*
X-35698223Y-55365223D01*
X-35681747Y-55383402D01*
X-35667133Y-55403107D01*
X-35654520Y-55424151D01*
X-35644030Y-55446329D01*
X-35635765Y-55469429D01*
X-35629804Y-55493227D01*
X-35626204Y-55517496D01*
X-35625000Y-55542000D01*
X-35625000Y-56467000D01*
X-35626204Y-56491504D01*
X-35629804Y-56515773D01*
X-35635765Y-56539571D01*
X-35644030Y-56562671D01*
X-35654520Y-56584849D01*
X-35667133Y-56605893D01*
X-35681747Y-56625598D01*
X-35698223Y-56643777D01*
X-35716402Y-56660253D01*
X-35736107Y-56674867D01*
X-35757151Y-56687480D01*
X-35779329Y-56697970D01*
X-35802429Y-56706235D01*
X-35826227Y-56712196D01*
X-35850496Y-56715796D01*
X-35875000Y-56717000D01*
X-37125000Y-56717000D01*
X-37149504Y-56715796D01*
X-37173773Y-56712196D01*
X-37197571Y-56706235D01*
X-37220671Y-56697970D01*
X-37242849Y-56687480D01*
X-37263893Y-56674867D01*
X-37283598Y-56660253D01*
X-37301777Y-56643777D01*
X-37318253Y-56625598D01*
X-37332867Y-56605893D01*
X-37345480Y-56584849D01*
X-37355970Y-56562671D01*
X-37364235Y-56539571D01*
X-37370196Y-56515773D01*
X-37373796Y-56491504D01*
X-37375000Y-56467000D01*
X-37375000Y-55542000D01*
X-37373796Y-55517496D01*
X-37370196Y-55493227D01*
X-37364235Y-55469429D01*
X-37355970Y-55446329D01*
X-37345480Y-55424151D01*
X-37332867Y-55403107D01*
X-37318253Y-55383402D01*
X-37301777Y-55365223D01*
X-37283598Y-55348747D01*
X-37263893Y-55334133D01*
X-37242849Y-55321520D01*
X-37220671Y-55311030D01*
X-37197571Y-55302765D01*
X-37173773Y-55296804D01*
X-37149504Y-55293204D01*
X-37125000Y-55292000D01*
X-35875000Y-55292000D01*
X-35850496Y-55293204D01*
X-35850496Y-55293204D01*
G37*
D12*
G04 #@! TD*
G04 #@! TO.P,C5,1*
G04 #@! TO.N,Net-(C5-Pad1)*
X-36500000Y-56004500D03*
D11*
G04 #@! TO.N,Net-(C6-Pad1)*
G04 #@! TO.C,C6*
G36*
X-38212496Y-48655204D02*
X-38188227Y-48658804D01*
X-38164429Y-48664765D01*
X-38141329Y-48673030D01*
X-38119151Y-48683520D01*
X-38098107Y-48696133D01*
X-38078402Y-48710747D01*
X-38060223Y-48727223D01*
X-38043747Y-48745402D01*
X-38029133Y-48765107D01*
X-38016520Y-48786151D01*
X-38006030Y-48808329D01*
X-37997765Y-48831429D01*
X-37991804Y-48855227D01*
X-37988204Y-48879496D01*
X-37987000Y-48904000D01*
X-37987000Y-49829000D01*
X-37988204Y-49853504D01*
X-37991804Y-49877773D01*
X-37997765Y-49901571D01*
X-38006030Y-49924671D01*
X-38016520Y-49946849D01*
X-38029133Y-49967893D01*
X-38043747Y-49987598D01*
X-38060223Y-50005777D01*
X-38078402Y-50022253D01*
X-38098107Y-50036867D01*
X-38119151Y-50049480D01*
X-38141329Y-50059970D01*
X-38164429Y-50068235D01*
X-38188227Y-50074196D01*
X-38212496Y-50077796D01*
X-38237000Y-50079000D01*
X-39487000Y-50079000D01*
X-39511504Y-50077796D01*
X-39535773Y-50074196D01*
X-39559571Y-50068235D01*
X-39582671Y-50059970D01*
X-39604849Y-50049480D01*
X-39625893Y-50036867D01*
X-39645598Y-50022253D01*
X-39663777Y-50005777D01*
X-39680253Y-49987598D01*
X-39694867Y-49967893D01*
X-39707480Y-49946849D01*
X-39717970Y-49924671D01*
X-39726235Y-49901571D01*
X-39732196Y-49877773D01*
X-39735796Y-49853504D01*
X-39737000Y-49829000D01*
X-39737000Y-48904000D01*
X-39735796Y-48879496D01*
X-39732196Y-48855227D01*
X-39726235Y-48831429D01*
X-39717970Y-48808329D01*
X-39707480Y-48786151D01*
X-39694867Y-48765107D01*
X-39680253Y-48745402D01*
X-39663777Y-48727223D01*
X-39645598Y-48710747D01*
X-39625893Y-48696133D01*
X-39604849Y-48683520D01*
X-39582671Y-48673030D01*
X-39559571Y-48664765D01*
X-39535773Y-48658804D01*
X-39511504Y-48655204D01*
X-39487000Y-48654000D01*
X-38237000Y-48654000D01*
X-38212496Y-48655204D01*
X-38212496Y-48655204D01*
G37*
D12*
G04 #@! TD*
G04 #@! TO.P,C6,1*
G04 #@! TO.N,Net-(C6-Pad1)*
X-38862000Y-49366500D03*
D11*
G04 #@! TO.N,GND*
G04 #@! TO.C,C6*
G36*
X-38212496Y-45680204D02*
X-38188227Y-45683804D01*
X-38164429Y-45689765D01*
X-38141329Y-45698030D01*
X-38119151Y-45708520D01*
X-38098107Y-45721133D01*
X-38078402Y-45735747D01*
X-38060223Y-45752223D01*
X-38043747Y-45770402D01*
X-38029133Y-45790107D01*
X-38016520Y-45811151D01*
X-38006030Y-45833329D01*
X-37997765Y-45856429D01*
X-37991804Y-45880227D01*
X-37988204Y-45904496D01*
X-37987000Y-45929000D01*
X-37987000Y-46854000D01*
X-37988204Y-46878504D01*
X-37991804Y-46902773D01*
X-37997765Y-46926571D01*
X-38006030Y-46949671D01*
X-38016520Y-46971849D01*
X-38029133Y-46992893D01*
X-38043747Y-47012598D01*
X-38060223Y-47030777D01*
X-38078402Y-47047253D01*
X-38098107Y-47061867D01*
X-38119151Y-47074480D01*
X-38141329Y-47084970D01*
X-38164429Y-47093235D01*
X-38188227Y-47099196D01*
X-38212496Y-47102796D01*
X-38237000Y-47104000D01*
X-39487000Y-47104000D01*
X-39511504Y-47102796D01*
X-39535773Y-47099196D01*
X-39559571Y-47093235D01*
X-39582671Y-47084970D01*
X-39604849Y-47074480D01*
X-39625893Y-47061867D01*
X-39645598Y-47047253D01*
X-39663777Y-47030777D01*
X-39680253Y-47012598D01*
X-39694867Y-46992893D01*
X-39707480Y-46971849D01*
X-39717970Y-46949671D01*
X-39726235Y-46926571D01*
X-39732196Y-46902773D01*
X-39735796Y-46878504D01*
X-39737000Y-46854000D01*
X-39737000Y-45929000D01*
X-39735796Y-45904496D01*
X-39732196Y-45880227D01*
X-39726235Y-45856429D01*
X-39717970Y-45833329D01*
X-39707480Y-45811151D01*
X-39694867Y-45790107D01*
X-39680253Y-45770402D01*
X-39663777Y-45752223D01*
X-39645598Y-45735747D01*
X-39625893Y-45721133D01*
X-39604849Y-45708520D01*
X-39582671Y-45698030D01*
X-39559571Y-45689765D01*
X-39535773Y-45683804D01*
X-39511504Y-45680204D01*
X-39487000Y-45679000D01*
X-38237000Y-45679000D01*
X-38212496Y-45680204D01*
X-38212496Y-45680204D01*
G37*
D12*
G04 #@! TD*
G04 #@! TO.P,C6,2*
G04 #@! TO.N,GND*
X-38862000Y-46391500D03*
D11*
G04 #@! TO.N,GND*
G04 #@! TO.C,C7*
G36*
X-35850496Y-42051204D02*
X-35826227Y-42054804D01*
X-35802429Y-42060765D01*
X-35779329Y-42069030D01*
X-35757151Y-42079520D01*
X-35736107Y-42092133D01*
X-35716402Y-42106747D01*
X-35698223Y-42123223D01*
X-35681747Y-42141402D01*
X-35667133Y-42161107D01*
X-35654520Y-42182151D01*
X-35644030Y-42204329D01*
X-35635765Y-42227429D01*
X-35629804Y-42251227D01*
X-35626204Y-42275496D01*
X-35625000Y-42300000D01*
X-35625000Y-43225000D01*
X-35626204Y-43249504D01*
X-35629804Y-43273773D01*
X-35635765Y-43297571D01*
X-35644030Y-43320671D01*
X-35654520Y-43342849D01*
X-35667133Y-43363893D01*
X-35681747Y-43383598D01*
X-35698223Y-43401777D01*
X-35716402Y-43418253D01*
X-35736107Y-43432867D01*
X-35757151Y-43445480D01*
X-35779329Y-43455970D01*
X-35802429Y-43464235D01*
X-35826227Y-43470196D01*
X-35850496Y-43473796D01*
X-35875000Y-43475000D01*
X-37125000Y-43475000D01*
X-37149504Y-43473796D01*
X-37173773Y-43470196D01*
X-37197571Y-43464235D01*
X-37220671Y-43455970D01*
X-37242849Y-43445480D01*
X-37263893Y-43432867D01*
X-37283598Y-43418253D01*
X-37301777Y-43401777D01*
X-37318253Y-43383598D01*
X-37332867Y-43363893D01*
X-37345480Y-43342849D01*
X-37355970Y-43320671D01*
X-37364235Y-43297571D01*
X-37370196Y-43273773D01*
X-37373796Y-43249504D01*
X-37375000Y-43225000D01*
X-37375000Y-42300000D01*
X-37373796Y-42275496D01*
X-37370196Y-42251227D01*
X-37364235Y-42227429D01*
X-37355970Y-42204329D01*
X-37345480Y-42182151D01*
X-37332867Y-42161107D01*
X-37318253Y-42141402D01*
X-37301777Y-42123223D01*
X-37283598Y-42106747D01*
X-37263893Y-42092133D01*
X-37242849Y-42079520D01*
X-37220671Y-42069030D01*
X-37197571Y-42060765D01*
X-37173773Y-42054804D01*
X-37149504Y-42051204D01*
X-37125000Y-42050000D01*
X-35875000Y-42050000D01*
X-35850496Y-42051204D01*
X-35850496Y-42051204D01*
G37*
D12*
G04 #@! TD*
G04 #@! TO.P,C7,2*
G04 #@! TO.N,GND*
X-36500000Y-42762500D03*
D11*
G04 #@! TO.N,Net-(C7-Pad1)*
G04 #@! TO.C,C7*
G36*
X-35850496Y-39076204D02*
X-35826227Y-39079804D01*
X-35802429Y-39085765D01*
X-35779329Y-39094030D01*
X-35757151Y-39104520D01*
X-35736107Y-39117133D01*
X-35716402Y-39131747D01*
X-35698223Y-39148223D01*
X-35681747Y-39166402D01*
X-35667133Y-39186107D01*
X-35654520Y-39207151D01*
X-35644030Y-39229329D01*
X-35635765Y-39252429D01*
X-35629804Y-39276227D01*
X-35626204Y-39300496D01*
X-35625000Y-39325000D01*
X-35625000Y-40250000D01*
X-35626204Y-40274504D01*
X-35629804Y-40298773D01*
X-35635765Y-40322571D01*
X-35644030Y-40345671D01*
X-35654520Y-40367849D01*
X-35667133Y-40388893D01*
X-35681747Y-40408598D01*
X-35698223Y-40426777D01*
X-35716402Y-40443253D01*
X-35736107Y-40457867D01*
X-35757151Y-40470480D01*
X-35779329Y-40480970D01*
X-35802429Y-40489235D01*
X-35826227Y-40495196D01*
X-35850496Y-40498796D01*
X-35875000Y-40500000D01*
X-37125000Y-40500000D01*
X-37149504Y-40498796D01*
X-37173773Y-40495196D01*
X-37197571Y-40489235D01*
X-37220671Y-40480970D01*
X-37242849Y-40470480D01*
X-37263893Y-40457867D01*
X-37283598Y-40443253D01*
X-37301777Y-40426777D01*
X-37318253Y-40408598D01*
X-37332867Y-40388893D01*
X-37345480Y-40367849D01*
X-37355970Y-40345671D01*
X-37364235Y-40322571D01*
X-37370196Y-40298773D01*
X-37373796Y-40274504D01*
X-37375000Y-40250000D01*
X-37375000Y-39325000D01*
X-37373796Y-39300496D01*
X-37370196Y-39276227D01*
X-37364235Y-39252429D01*
X-37355970Y-39229329D01*
X-37345480Y-39207151D01*
X-37332867Y-39186107D01*
X-37318253Y-39166402D01*
X-37301777Y-39148223D01*
X-37283598Y-39131747D01*
X-37263893Y-39117133D01*
X-37242849Y-39104520D01*
X-37220671Y-39094030D01*
X-37197571Y-39085765D01*
X-37173773Y-39079804D01*
X-37149504Y-39076204D01*
X-37125000Y-39075000D01*
X-35875000Y-39075000D01*
X-35850496Y-39076204D01*
X-35850496Y-39076204D01*
G37*
D12*
G04 #@! TD*
G04 #@! TO.P,C7,1*
G04 #@! TO.N,Net-(C7-Pad1)*
X-36500000Y-39787500D03*
D11*
G04 #@! TO.N,Net-(C8-Pad1)*
G04 #@! TO.C,C8*
G36*
X-37958496Y-34050204D02*
X-37934227Y-34053804D01*
X-37910429Y-34059765D01*
X-37887329Y-34068030D01*
X-37865151Y-34078520D01*
X-37844107Y-34091133D01*
X-37824402Y-34105747D01*
X-37806223Y-34122223D01*
X-37789747Y-34140402D01*
X-37775133Y-34160107D01*
X-37762520Y-34181151D01*
X-37752030Y-34203329D01*
X-37743765Y-34226429D01*
X-37737804Y-34250227D01*
X-37734204Y-34274496D01*
X-37733000Y-34299000D01*
X-37733000Y-35224000D01*
X-37734204Y-35248504D01*
X-37737804Y-35272773D01*
X-37743765Y-35296571D01*
X-37752030Y-35319671D01*
X-37762520Y-35341849D01*
X-37775133Y-35362893D01*
X-37789747Y-35382598D01*
X-37806223Y-35400777D01*
X-37824402Y-35417253D01*
X-37844107Y-35431867D01*
X-37865151Y-35444480D01*
X-37887329Y-35454970D01*
X-37910429Y-35463235D01*
X-37934227Y-35469196D01*
X-37958496Y-35472796D01*
X-37983000Y-35474000D01*
X-39233000Y-35474000D01*
X-39257504Y-35472796D01*
X-39281773Y-35469196D01*
X-39305571Y-35463235D01*
X-39328671Y-35454970D01*
X-39350849Y-35444480D01*
X-39371893Y-35431867D01*
X-39391598Y-35417253D01*
X-39409777Y-35400777D01*
X-39426253Y-35382598D01*
X-39440867Y-35362893D01*
X-39453480Y-35341849D01*
X-39463970Y-35319671D01*
X-39472235Y-35296571D01*
X-39478196Y-35272773D01*
X-39481796Y-35248504D01*
X-39483000Y-35224000D01*
X-39483000Y-34299000D01*
X-39481796Y-34274496D01*
X-39478196Y-34250227D01*
X-39472235Y-34226429D01*
X-39463970Y-34203329D01*
X-39453480Y-34181151D01*
X-39440867Y-34160107D01*
X-39426253Y-34140402D01*
X-39409777Y-34122223D01*
X-39391598Y-34105747D01*
X-39371893Y-34091133D01*
X-39350849Y-34078520D01*
X-39328671Y-34068030D01*
X-39305571Y-34059765D01*
X-39281773Y-34053804D01*
X-39257504Y-34050204D01*
X-39233000Y-34049000D01*
X-37983000Y-34049000D01*
X-37958496Y-34050204D01*
X-37958496Y-34050204D01*
G37*
D12*
G04 #@! TD*
G04 #@! TO.P,C8,1*
G04 #@! TO.N,Net-(C8-Pad1)*
X-38608000Y-34761500D03*
D11*
G04 #@! TO.N,GND*
G04 #@! TO.C,C8*
G36*
X-37958496Y-31075204D02*
X-37934227Y-31078804D01*
X-37910429Y-31084765D01*
X-37887329Y-31093030D01*
X-37865151Y-31103520D01*
X-37844107Y-31116133D01*
X-37824402Y-31130747D01*
X-37806223Y-31147223D01*
X-37789747Y-31165402D01*
X-37775133Y-31185107D01*
X-37762520Y-31206151D01*
X-37752030Y-31228329D01*
X-37743765Y-31251429D01*
X-37737804Y-31275227D01*
X-37734204Y-31299496D01*
X-37733000Y-31324000D01*
X-37733000Y-32249000D01*
X-37734204Y-32273504D01*
X-37737804Y-32297773D01*
X-37743765Y-32321571D01*
X-37752030Y-32344671D01*
X-37762520Y-32366849D01*
X-37775133Y-32387893D01*
X-37789747Y-32407598D01*
X-37806223Y-32425777D01*
X-37824402Y-32442253D01*
X-37844107Y-32456867D01*
X-37865151Y-32469480D01*
X-37887329Y-32479970D01*
X-37910429Y-32488235D01*
X-37934227Y-32494196D01*
X-37958496Y-32497796D01*
X-37983000Y-32499000D01*
X-39233000Y-32499000D01*
X-39257504Y-32497796D01*
X-39281773Y-32494196D01*
X-39305571Y-32488235D01*
X-39328671Y-32479970D01*
X-39350849Y-32469480D01*
X-39371893Y-32456867D01*
X-39391598Y-32442253D01*
X-39409777Y-32425777D01*
X-39426253Y-32407598D01*
X-39440867Y-32387893D01*
X-39453480Y-32366849D01*
X-39463970Y-32344671D01*
X-39472235Y-32321571D01*
X-39478196Y-32297773D01*
X-39481796Y-32273504D01*
X-39483000Y-32249000D01*
X-39483000Y-31324000D01*
X-39481796Y-31299496D01*
X-39478196Y-31275227D01*
X-39472235Y-31251429D01*
X-39463970Y-31228329D01*
X-39453480Y-31206151D01*
X-39440867Y-31185107D01*
X-39426253Y-31165402D01*
X-39409777Y-31147223D01*
X-39391598Y-31130747D01*
X-39371893Y-31116133D01*
X-39350849Y-31103520D01*
X-39328671Y-31093030D01*
X-39305571Y-31084765D01*
X-39281773Y-31078804D01*
X-39257504Y-31075204D01*
X-39233000Y-31074000D01*
X-37983000Y-31074000D01*
X-37958496Y-31075204D01*
X-37958496Y-31075204D01*
G37*
D12*
G04 #@! TD*
G04 #@! TO.P,C8,2*
G04 #@! TO.N,GND*
X-38608000Y-31786500D03*
D11*
G04 #@! TO.N,GND*
G04 #@! TO.C,C9*
G36*
X-36561496Y-27192204D02*
X-36537227Y-27195804D01*
X-36513429Y-27201765D01*
X-36490329Y-27210030D01*
X-36468151Y-27220520D01*
X-36447107Y-27233133D01*
X-36427402Y-27247747D01*
X-36409223Y-27264223D01*
X-36392747Y-27282402D01*
X-36378133Y-27302107D01*
X-36365520Y-27323151D01*
X-36355030Y-27345329D01*
X-36346765Y-27368429D01*
X-36340804Y-27392227D01*
X-36337204Y-27416496D01*
X-36336000Y-27441000D01*
X-36336000Y-28366000D01*
X-36337204Y-28390504D01*
X-36340804Y-28414773D01*
X-36346765Y-28438571D01*
X-36355030Y-28461671D01*
X-36365520Y-28483849D01*
X-36378133Y-28504893D01*
X-36392747Y-28524598D01*
X-36409223Y-28542777D01*
X-36427402Y-28559253D01*
X-36447107Y-28573867D01*
X-36468151Y-28586480D01*
X-36490329Y-28596970D01*
X-36513429Y-28605235D01*
X-36537227Y-28611196D01*
X-36561496Y-28614796D01*
X-36586000Y-28616000D01*
X-37836000Y-28616000D01*
X-37860504Y-28614796D01*
X-37884773Y-28611196D01*
X-37908571Y-28605235D01*
X-37931671Y-28596970D01*
X-37953849Y-28586480D01*
X-37974893Y-28573867D01*
X-37994598Y-28559253D01*
X-38012777Y-28542777D01*
X-38029253Y-28524598D01*
X-38043867Y-28504893D01*
X-38056480Y-28483849D01*
X-38066970Y-28461671D01*
X-38075235Y-28438571D01*
X-38081196Y-28414773D01*
X-38084796Y-28390504D01*
X-38086000Y-28366000D01*
X-38086000Y-27441000D01*
X-38084796Y-27416496D01*
X-38081196Y-27392227D01*
X-38075235Y-27368429D01*
X-38066970Y-27345329D01*
X-38056480Y-27323151D01*
X-38043867Y-27302107D01*
X-38029253Y-27282402D01*
X-38012777Y-27264223D01*
X-37994598Y-27247747D01*
X-37974893Y-27233133D01*
X-37953849Y-27220520D01*
X-37931671Y-27210030D01*
X-37908571Y-27201765D01*
X-37884773Y-27195804D01*
X-37860504Y-27192204D01*
X-37836000Y-27191000D01*
X-36586000Y-27191000D01*
X-36561496Y-27192204D01*
X-36561496Y-27192204D01*
G37*
D12*
G04 #@! TD*
G04 #@! TO.P,C9,2*
G04 #@! TO.N,GND*
X-37211000Y-27903500D03*
D11*
G04 #@! TO.N,Net-(C9-Pad1)*
G04 #@! TO.C,C9*
G36*
X-36561496Y-24217204D02*
X-36537227Y-24220804D01*
X-36513429Y-24226765D01*
X-36490329Y-24235030D01*
X-36468151Y-24245520D01*
X-36447107Y-24258133D01*
X-36427402Y-24272747D01*
X-36409223Y-24289223D01*
X-36392747Y-24307402D01*
X-36378133Y-24327107D01*
X-36365520Y-24348151D01*
X-36355030Y-24370329D01*
X-36346765Y-24393429D01*
X-36340804Y-24417227D01*
X-36337204Y-24441496D01*
X-36336000Y-24466000D01*
X-36336000Y-25391000D01*
X-36337204Y-25415504D01*
X-36340804Y-25439773D01*
X-36346765Y-25463571D01*
X-36355030Y-25486671D01*
X-36365520Y-25508849D01*
X-36378133Y-25529893D01*
X-36392747Y-25549598D01*
X-36409223Y-25567777D01*
X-36427402Y-25584253D01*
X-36447107Y-25598867D01*
X-36468151Y-25611480D01*
X-36490329Y-25621970D01*
X-36513429Y-25630235D01*
X-36537227Y-25636196D01*
X-36561496Y-25639796D01*
X-36586000Y-25641000D01*
X-37836000Y-25641000D01*
X-37860504Y-25639796D01*
X-37884773Y-25636196D01*
X-37908571Y-25630235D01*
X-37931671Y-25621970D01*
X-37953849Y-25611480D01*
X-37974893Y-25598867D01*
X-37994598Y-25584253D01*
X-38012777Y-25567777D01*
X-38029253Y-25549598D01*
X-38043867Y-25529893D01*
X-38056480Y-25508849D01*
X-38066970Y-25486671D01*
X-38075235Y-25463571D01*
X-38081196Y-25439773D01*
X-38084796Y-25415504D01*
X-38086000Y-25391000D01*
X-38086000Y-24466000D01*
X-38084796Y-24441496D01*
X-38081196Y-24417227D01*
X-38075235Y-24393429D01*
X-38066970Y-24370329D01*
X-38056480Y-24348151D01*
X-38043867Y-24327107D01*
X-38029253Y-24307402D01*
X-38012777Y-24289223D01*
X-37994598Y-24272747D01*
X-37974893Y-24258133D01*
X-37953849Y-24245520D01*
X-37931671Y-24235030D01*
X-37908571Y-24226765D01*
X-37884773Y-24220804D01*
X-37860504Y-24217204D01*
X-37836000Y-24216000D01*
X-36586000Y-24216000D01*
X-36561496Y-24217204D01*
X-36561496Y-24217204D01*
G37*
D12*
G04 #@! TD*
G04 #@! TO.P,C9,1*
G04 #@! TO.N,Net-(C9-Pad1)*
X-37211000Y-24928500D03*
D11*
G04 #@! TO.N,Net-(C10-Pad1)*
G04 #@! TO.C,C10*
G36*
X-37831496Y-19826204D02*
X-37807227Y-19829804D01*
X-37783429Y-19835765D01*
X-37760329Y-19844030D01*
X-37738151Y-19854520D01*
X-37717107Y-19867133D01*
X-37697402Y-19881747D01*
X-37679223Y-19898223D01*
X-37662747Y-19916402D01*
X-37648133Y-19936107D01*
X-37635520Y-19957151D01*
X-37625030Y-19979329D01*
X-37616765Y-20002429D01*
X-37610804Y-20026227D01*
X-37607204Y-20050496D01*
X-37606000Y-20075000D01*
X-37606000Y-21000000D01*
X-37607204Y-21024504D01*
X-37610804Y-21048773D01*
X-37616765Y-21072571D01*
X-37625030Y-21095671D01*
X-37635520Y-21117849D01*
X-37648133Y-21138893D01*
X-37662747Y-21158598D01*
X-37679223Y-21176777D01*
X-37697402Y-21193253D01*
X-37717107Y-21207867D01*
X-37738151Y-21220480D01*
X-37760329Y-21230970D01*
X-37783429Y-21239235D01*
X-37807227Y-21245196D01*
X-37831496Y-21248796D01*
X-37856000Y-21250000D01*
X-39106000Y-21250000D01*
X-39130504Y-21248796D01*
X-39154773Y-21245196D01*
X-39178571Y-21239235D01*
X-39201671Y-21230970D01*
X-39223849Y-21220480D01*
X-39244893Y-21207867D01*
X-39264598Y-21193253D01*
X-39282777Y-21176777D01*
X-39299253Y-21158598D01*
X-39313867Y-21138893D01*
X-39326480Y-21117849D01*
X-39336970Y-21095671D01*
X-39345235Y-21072571D01*
X-39351196Y-21048773D01*
X-39354796Y-21024504D01*
X-39356000Y-21000000D01*
X-39356000Y-20075000D01*
X-39354796Y-20050496D01*
X-39351196Y-20026227D01*
X-39345235Y-20002429D01*
X-39336970Y-19979329D01*
X-39326480Y-19957151D01*
X-39313867Y-19936107D01*
X-39299253Y-19916402D01*
X-39282777Y-19898223D01*
X-39264598Y-19881747D01*
X-39244893Y-19867133D01*
X-39223849Y-19854520D01*
X-39201671Y-19844030D01*
X-39178571Y-19835765D01*
X-39154773Y-19829804D01*
X-39130504Y-19826204D01*
X-39106000Y-19825000D01*
X-37856000Y-19825000D01*
X-37831496Y-19826204D01*
X-37831496Y-19826204D01*
G37*
D12*
G04 #@! TD*
G04 #@! TO.P,C10,1*
G04 #@! TO.N,Net-(C10-Pad1)*
X-38481000Y-20537500D03*
D11*
G04 #@! TO.N,GND*
G04 #@! TO.C,C10*
G36*
X-37831496Y-16851204D02*
X-37807227Y-16854804D01*
X-37783429Y-16860765D01*
X-37760329Y-16869030D01*
X-37738151Y-16879520D01*
X-37717107Y-16892133D01*
X-37697402Y-16906747D01*
X-37679223Y-16923223D01*
X-37662747Y-16941402D01*
X-37648133Y-16961107D01*
X-37635520Y-16982151D01*
X-37625030Y-17004329D01*
X-37616765Y-17027429D01*
X-37610804Y-17051227D01*
X-37607204Y-17075496D01*
X-37606000Y-17100000D01*
X-37606000Y-18025000D01*
X-37607204Y-18049504D01*
X-37610804Y-18073773D01*
X-37616765Y-18097571D01*
X-37625030Y-18120671D01*
X-37635520Y-18142849D01*
X-37648133Y-18163893D01*
X-37662747Y-18183598D01*
X-37679223Y-18201777D01*
X-37697402Y-18218253D01*
X-37717107Y-18232867D01*
X-37738151Y-18245480D01*
X-37760329Y-18255970D01*
X-37783429Y-18264235D01*
X-37807227Y-18270196D01*
X-37831496Y-18273796D01*
X-37856000Y-18275000D01*
X-39106000Y-18275000D01*
X-39130504Y-18273796D01*
X-39154773Y-18270196D01*
X-39178571Y-18264235D01*
X-39201671Y-18255970D01*
X-39223849Y-18245480D01*
X-39244893Y-18232867D01*
X-39264598Y-18218253D01*
X-39282777Y-18201777D01*
X-39299253Y-18183598D01*
X-39313867Y-18163893D01*
X-39326480Y-18142849D01*
X-39336970Y-18120671D01*
X-39345235Y-18097571D01*
X-39351196Y-18073773D01*
X-39354796Y-18049504D01*
X-39356000Y-18025000D01*
X-39356000Y-17100000D01*
X-39354796Y-17075496D01*
X-39351196Y-17051227D01*
X-39345235Y-17027429D01*
X-39336970Y-17004329D01*
X-39326480Y-16982151D01*
X-39313867Y-16961107D01*
X-39299253Y-16941402D01*
X-39282777Y-16923223D01*
X-39264598Y-16906747D01*
X-39244893Y-16892133D01*
X-39223849Y-16879520D01*
X-39201671Y-16869030D01*
X-39178571Y-16860765D01*
X-39154773Y-16854804D01*
X-39130504Y-16851204D01*
X-39106000Y-16850000D01*
X-37856000Y-16850000D01*
X-37831496Y-16851204D01*
X-37831496Y-16851204D01*
G37*
D12*
G04 #@! TD*
G04 #@! TO.P,C10,2*
G04 #@! TO.N,GND*
X-38481000Y-17562500D03*
D11*
G04 #@! TO.N,GND*
G04 #@! TO.C,C11*
G36*
X-35164496Y-12587204D02*
X-35140227Y-12590804D01*
X-35116429Y-12596765D01*
X-35093329Y-12605030D01*
X-35071151Y-12615520D01*
X-35050107Y-12628133D01*
X-35030402Y-12642747D01*
X-35012223Y-12659223D01*
X-34995747Y-12677402D01*
X-34981133Y-12697107D01*
X-34968520Y-12718151D01*
X-34958030Y-12740329D01*
X-34949765Y-12763429D01*
X-34943804Y-12787227D01*
X-34940204Y-12811496D01*
X-34939000Y-12836000D01*
X-34939000Y-13761000D01*
X-34940204Y-13785504D01*
X-34943804Y-13809773D01*
X-34949765Y-13833571D01*
X-34958030Y-13856671D01*
X-34968520Y-13878849D01*
X-34981133Y-13899893D01*
X-34995747Y-13919598D01*
X-35012223Y-13937777D01*
X-35030402Y-13954253D01*
X-35050107Y-13968867D01*
X-35071151Y-13981480D01*
X-35093329Y-13991970D01*
X-35116429Y-14000235D01*
X-35140227Y-14006196D01*
X-35164496Y-14009796D01*
X-35189000Y-14011000D01*
X-36439000Y-14011000D01*
X-36463504Y-14009796D01*
X-36487773Y-14006196D01*
X-36511571Y-14000235D01*
X-36534671Y-13991970D01*
X-36556849Y-13981480D01*
X-36577893Y-13968867D01*
X-36597598Y-13954253D01*
X-36615777Y-13937777D01*
X-36632253Y-13919598D01*
X-36646867Y-13899893D01*
X-36659480Y-13878849D01*
X-36669970Y-13856671D01*
X-36678235Y-13833571D01*
X-36684196Y-13809773D01*
X-36687796Y-13785504D01*
X-36689000Y-13761000D01*
X-36689000Y-12836000D01*
X-36687796Y-12811496D01*
X-36684196Y-12787227D01*
X-36678235Y-12763429D01*
X-36669970Y-12740329D01*
X-36659480Y-12718151D01*
X-36646867Y-12697107D01*
X-36632253Y-12677402D01*
X-36615777Y-12659223D01*
X-36597598Y-12642747D01*
X-36577893Y-12628133D01*
X-36556849Y-12615520D01*
X-36534671Y-12605030D01*
X-36511571Y-12596765D01*
X-36487773Y-12590804D01*
X-36463504Y-12587204D01*
X-36439000Y-12586000D01*
X-35189000Y-12586000D01*
X-35164496Y-12587204D01*
X-35164496Y-12587204D01*
G37*
D12*
G04 #@! TD*
G04 #@! TO.P,C11,2*
G04 #@! TO.N,GND*
X-35814000Y-13298500D03*
D11*
G04 #@! TO.N,Net-(C11-Pad1)*
G04 #@! TO.C,C11*
G36*
X-35164496Y-9612204D02*
X-35140227Y-9615804D01*
X-35116429Y-9621765D01*
X-35093329Y-9630030D01*
X-35071151Y-9640520D01*
X-35050107Y-9653133D01*
X-35030402Y-9667747D01*
X-35012223Y-9684223D01*
X-34995747Y-9702402D01*
X-34981133Y-9722107D01*
X-34968520Y-9743151D01*
X-34958030Y-9765329D01*
X-34949765Y-9788429D01*
X-34943804Y-9812227D01*
X-34940204Y-9836496D01*
X-34939000Y-9861000D01*
X-34939000Y-10786000D01*
X-34940204Y-10810504D01*
X-34943804Y-10834773D01*
X-34949765Y-10858571D01*
X-34958030Y-10881671D01*
X-34968520Y-10903849D01*
X-34981133Y-10924893D01*
X-34995747Y-10944598D01*
X-35012223Y-10962777D01*
X-35030402Y-10979253D01*
X-35050107Y-10993867D01*
X-35071151Y-11006480D01*
X-35093329Y-11016970D01*
X-35116429Y-11025235D01*
X-35140227Y-11031196D01*
X-35164496Y-11034796D01*
X-35189000Y-11036000D01*
X-36439000Y-11036000D01*
X-36463504Y-11034796D01*
X-36487773Y-11031196D01*
X-36511571Y-11025235D01*
X-36534671Y-11016970D01*
X-36556849Y-11006480D01*
X-36577893Y-10993867D01*
X-36597598Y-10979253D01*
X-36615777Y-10962777D01*
X-36632253Y-10944598D01*
X-36646867Y-10924893D01*
X-36659480Y-10903849D01*
X-36669970Y-10881671D01*
X-36678235Y-10858571D01*
X-36684196Y-10834773D01*
X-36687796Y-10810504D01*
X-36689000Y-10786000D01*
X-36689000Y-9861000D01*
X-36687796Y-9836496D01*
X-36684196Y-9812227D01*
X-36678235Y-9788429D01*
X-36669970Y-9765329D01*
X-36659480Y-9743151D01*
X-36646867Y-9722107D01*
X-36632253Y-9702402D01*
X-36615777Y-9684223D01*
X-36597598Y-9667747D01*
X-36577893Y-9653133D01*
X-36556849Y-9640520D01*
X-36534671Y-9630030D01*
X-36511571Y-9621765D01*
X-36487773Y-9615804D01*
X-36463504Y-9612204D01*
X-36439000Y-9611000D01*
X-35189000Y-9611000D01*
X-35164496Y-9612204D01*
X-35164496Y-9612204D01*
G37*
D12*
G04 #@! TD*
G04 #@! TO.P,C11,1*
G04 #@! TO.N,Net-(C11-Pad1)*
X-35814000Y-10323500D03*
D11*
G04 #@! TO.N,Net-(C12-Pad1)*
G04 #@! TO.C,C12*
G36*
X-38212496Y-3951204D02*
X-38188227Y-3954804D01*
X-38164429Y-3960765D01*
X-38141329Y-3969030D01*
X-38119151Y-3979520D01*
X-38098107Y-3992133D01*
X-38078402Y-4006747D01*
X-38060223Y-4023223D01*
X-38043747Y-4041402D01*
X-38029133Y-4061107D01*
X-38016520Y-4082151D01*
X-38006030Y-4104329D01*
X-37997765Y-4127429D01*
X-37991804Y-4151227D01*
X-37988204Y-4175496D01*
X-37987000Y-4200000D01*
X-37987000Y-5125000D01*
X-37988204Y-5149504D01*
X-37991804Y-5173773D01*
X-37997765Y-5197571D01*
X-38006030Y-5220671D01*
X-38016520Y-5242849D01*
X-38029133Y-5263893D01*
X-38043747Y-5283598D01*
X-38060223Y-5301777D01*
X-38078402Y-5318253D01*
X-38098107Y-5332867D01*
X-38119151Y-5345480D01*
X-38141329Y-5355970D01*
X-38164429Y-5364235D01*
X-38188227Y-5370196D01*
X-38212496Y-5373796D01*
X-38237000Y-5375000D01*
X-39487000Y-5375000D01*
X-39511504Y-5373796D01*
X-39535773Y-5370196D01*
X-39559571Y-5364235D01*
X-39582671Y-5355970D01*
X-39604849Y-5345480D01*
X-39625893Y-5332867D01*
X-39645598Y-5318253D01*
X-39663777Y-5301777D01*
X-39680253Y-5283598D01*
X-39694867Y-5263893D01*
X-39707480Y-5242849D01*
X-39717970Y-5220671D01*
X-39726235Y-5197571D01*
X-39732196Y-5173773D01*
X-39735796Y-5149504D01*
X-39737000Y-5125000D01*
X-39737000Y-4200000D01*
X-39735796Y-4175496D01*
X-39732196Y-4151227D01*
X-39726235Y-4127429D01*
X-39717970Y-4104329D01*
X-39707480Y-4082151D01*
X-39694867Y-4061107D01*
X-39680253Y-4041402D01*
X-39663777Y-4023223D01*
X-39645598Y-4006747D01*
X-39625893Y-3992133D01*
X-39604849Y-3979520D01*
X-39582671Y-3969030D01*
X-39559571Y-3960765D01*
X-39535773Y-3954804D01*
X-39511504Y-3951204D01*
X-39487000Y-3950000D01*
X-38237000Y-3950000D01*
X-38212496Y-3951204D01*
X-38212496Y-3951204D01*
G37*
D12*
G04 #@! TD*
G04 #@! TO.P,C12,1*
G04 #@! TO.N,Net-(C12-Pad1)*
X-38862000Y-4662500D03*
D11*
G04 #@! TO.N,GND*
G04 #@! TO.C,C12*
G36*
X-38212496Y-976204D02*
X-38188227Y-979804D01*
X-38164429Y-985765D01*
X-38141329Y-994030D01*
X-38119151Y-1004520D01*
X-38098107Y-1017133D01*
X-38078402Y-1031747D01*
X-38060223Y-1048223D01*
X-38043747Y-1066402D01*
X-38029133Y-1086107D01*
X-38016520Y-1107151D01*
X-38006030Y-1129329D01*
X-37997765Y-1152429D01*
X-37991804Y-1176227D01*
X-37988204Y-1200496D01*
X-37987000Y-1225000D01*
X-37987000Y-2150000D01*
X-37988204Y-2174504D01*
X-37991804Y-2198773D01*
X-37997765Y-2222571D01*
X-38006030Y-2245671D01*
X-38016520Y-2267849D01*
X-38029133Y-2288893D01*
X-38043747Y-2308598D01*
X-38060223Y-2326777D01*
X-38078402Y-2343253D01*
X-38098107Y-2357867D01*
X-38119151Y-2370480D01*
X-38141329Y-2380970D01*
X-38164429Y-2389235D01*
X-38188227Y-2395196D01*
X-38212496Y-2398796D01*
X-38237000Y-2400000D01*
X-39487000Y-2400000D01*
X-39511504Y-2398796D01*
X-39535773Y-2395196D01*
X-39559571Y-2389235D01*
X-39582671Y-2380970D01*
X-39604849Y-2370480D01*
X-39625893Y-2357867D01*
X-39645598Y-2343253D01*
X-39663777Y-2326777D01*
X-39680253Y-2308598D01*
X-39694867Y-2288893D01*
X-39707480Y-2267849D01*
X-39717970Y-2245671D01*
X-39726235Y-2222571D01*
X-39732196Y-2198773D01*
X-39735796Y-2174504D01*
X-39737000Y-2150000D01*
X-39737000Y-1225000D01*
X-39735796Y-1200496D01*
X-39732196Y-1176227D01*
X-39726235Y-1152429D01*
X-39717970Y-1129329D01*
X-39707480Y-1107151D01*
X-39694867Y-1086107D01*
X-39680253Y-1066402D01*
X-39663777Y-1048223D01*
X-39645598Y-1031747D01*
X-39625893Y-1017133D01*
X-39604849Y-1004520D01*
X-39582671Y-994030D01*
X-39559571Y-985765D01*
X-39535773Y-979804D01*
X-39511504Y-976204D01*
X-39487000Y-975000D01*
X-38237000Y-975000D01*
X-38212496Y-976204D01*
X-38212496Y-976204D01*
G37*
D12*
G04 #@! TD*
G04 #@! TO.P,C12,2*
G04 #@! TO.N,GND*
X-38862000Y-1687500D03*
D13*
G04 #@! TO.P,CN1,1*
G04 #@! TO.N,Net-(CN1-Pad1)*
X-1750000Y-11492000D03*
D14*
G04 #@! TO.P,CN1,2*
G04 #@! TO.N,GND*
X-4290000Y-11492000D03*
G04 #@! TO.P,CN1,3*
G04 #@! TO.N,Net-(CN1-Pad3)*
X-1750000Y-14032000D03*
G04 #@! TO.P,CN1,4*
G04 #@! TO.N,/C_DATA*
X-4290000Y-14032000D03*
G04 #@! TO.P,CN1,5*
G04 #@! TO.N,Net-(CN1-Pad5)*
X-1750000Y-16572000D03*
G04 #@! TO.P,CN1,6*
G04 #@! TO.N,/C_LOAD*
X-4290000Y-16572000D03*
G04 #@! TO.P,CN1,7*
G04 #@! TO.N,Net-(CN1-Pad7)*
X-1750000Y-19112000D03*
G04 #@! TO.P,CN1,8*
G04 #@! TO.N,Net-(CN1-Pad8)*
X-4290000Y-19112000D03*
G04 #@! TO.P,CN1,9*
G04 #@! TO.N,Net-(CN1-Pad9)*
X-1750000Y-21652000D03*
G04 #@! TO.P,CN1,10*
G04 #@! TO.N,/C_CLK*
X-4290000Y-21652000D03*
G04 #@! TO.P,CN1,11*
G04 #@! TO.N,Net-(CN1-Pad11)*
X-1750000Y-24192000D03*
G04 #@! TO.P,CN1,12*
G04 #@! TO.N,Net-(CN1-Pad12)*
X-4290000Y-24192000D03*
G04 #@! TO.P,CN1,13*
G04 #@! TO.N,Net-(CN1-Pad13)*
X-1750000Y-26732000D03*
G04 #@! TO.P,CN1,14*
G04 #@! TO.N,Net-(CN1-Pad14)*
X-4290000Y-26732000D03*
G04 #@! TO.P,CN1,15*
G04 #@! TO.N,Net-(CN1-Pad15)*
X-1750000Y-29272000D03*
G04 #@! TO.P,CN1,16*
G04 #@! TO.N,GND*
X-4290000Y-29272000D03*
G04 #@! TO.P,CN1,17*
G04 #@! TO.N,Net-(CN1-Pad17)*
X-1750000Y-31812000D03*
G04 #@! TO.P,CN1,18*
G04 #@! TO.N,/J3_DATA*
X-4290000Y-31812000D03*
G04 #@! TO.P,CN1,19*
G04 #@! TO.N,Net-(CN1-Pad19)*
X-1750000Y-34352000D03*
G04 #@! TO.P,CN1,20*
G04 #@! TO.N,/J3_LOAD*
X-4290000Y-34352000D03*
G04 #@! TO.P,CN1,21*
G04 #@! TO.N,Net-(CN1-Pad21)*
X-1750000Y-36892000D03*
G04 #@! TO.P,CN1,22*
G04 #@! TO.N,/J3_CLK*
X-4290000Y-36892000D03*
G04 #@! TO.P,CN1,23*
G04 #@! TO.N,Net-(CN1-Pad23)*
X-1750000Y-39432000D03*
G04 #@! TO.P,CN1,24*
G04 #@! TO.N,Net-(CN1-Pad24)*
X-4290000Y-39432000D03*
G04 #@! TO.P,CN1,25*
G04 #@! TO.N,Net-(CN1-Pad25)*
X-1750000Y-41972000D03*
G04 #@! TO.P,CN1,26*
G04 #@! TO.N,/J2_DATA*
X-4290000Y-41972000D03*
G04 #@! TO.P,CN1,27*
G04 #@! TO.N,Net-(CN1-Pad27)*
X-1750000Y-44512000D03*
G04 #@! TO.P,CN1,28*
G04 #@! TO.N,/J2_LOAD*
X-4290000Y-44512000D03*
G04 #@! TO.P,CN1,29*
G04 #@! TO.N,Net-(CN1-Pad29)*
X-1750000Y-47052000D03*
G04 #@! TO.P,CN1,30*
G04 #@! TO.N,/J2_CLK*
X-4290000Y-47052000D03*
G04 #@! TO.P,CN1,31*
G04 #@! TO.N,Net-(CN1-Pad31)*
X-1750000Y-49592000D03*
G04 #@! TO.P,CN1,32*
G04 #@! TO.N,GND*
X-4290000Y-49592000D03*
G04 #@! TO.P,CN1,33*
G04 #@! TO.N,Net-(CN1-Pad33)*
X-1750000Y-52132000D03*
G04 #@! TO.P,CN1,34*
G04 #@! TO.N,/J1_DATA*
X-4290000Y-52132000D03*
G04 #@! TO.P,CN1,35*
G04 #@! TO.N,Net-(CN1-Pad35)*
X-1750000Y-54672000D03*
G04 #@! TO.P,CN1,36*
G04 #@! TO.N,/J1_LOAD*
X-4290000Y-54672000D03*
G04 #@! TO.P,CN1,37*
G04 #@! TO.N,+5V*
X-1750000Y-57212000D03*
G04 #@! TO.P,CN1,38*
G04 #@! TO.N,/J1_CLK*
X-4290000Y-57212000D03*
G04 #@! TO.P,CN1,39*
G04 #@! TO.N,+5V*
X-1750000Y-59752000D03*
G04 #@! TO.P,CN1,40*
G04 #@! TO.N,Net-(CN1-Pad40)*
X-4290000Y-59752000D03*
G04 #@! TD*
D15*
G04 #@! TO.P,CN3,1*
G04 #@! TO.N,Net-(CN3-Pad1)*
X-43500000Y-34188000D03*
G04 #@! TO.P,CN3,2*
G04 #@! TO.N,Net-(C8-Pad1)*
X-41000000Y-35448000D03*
G04 #@! TO.P,CN3,3*
G04 #@! TO.N,Net-(C7-Pad1)*
X-43500000Y-36708000D03*
G04 #@! TO.P,CN3,4*
G04 #@! TO.N,Net-(CN3-Pad4)*
X-41000000Y-37968000D03*
G04 #@! TO.P,CN3,5*
G04 #@! TO.N,GND*
X-43500000Y-39227000D03*
G04 #@! TO.P,CN3,6*
G04 #@! TO.N,Net-(CN3-Pad6)*
X-41000000Y-40488000D03*
D16*
G04 #@! TO.P,CN3,*
G04 #@! TO.N,*
X-50000000Y-32338000D03*
X-50000000Y-42338000D03*
G04 #@! TD*
D15*
G04 #@! TO.P,CN4,1*
G04 #@! TO.N,Net-(CN4-Pad1)*
X-43500000Y-19456000D03*
G04 #@! TO.P,CN4,2*
G04 #@! TO.N,Net-(C10-Pad1)*
X-41000000Y-20716000D03*
G04 #@! TO.P,CN4,3*
G04 #@! TO.N,Net-(C9-Pad1)*
X-43500000Y-21976000D03*
G04 #@! TO.P,CN4,4*
G04 #@! TO.N,Net-(CN4-Pad4)*
X-41000000Y-23236000D03*
G04 #@! TO.P,CN4,5*
G04 #@! TO.N,GND*
X-43500000Y-24495000D03*
G04 #@! TO.P,CN4,6*
G04 #@! TO.N,Net-(CN4-Pad6)*
X-41000000Y-25756000D03*
D16*
G04 #@! TO.P,CN4,*
G04 #@! TO.N,*
X-50000000Y-17606000D03*
X-50000000Y-27606000D03*
G04 #@! TD*
D15*
G04 #@! TO.P,CN2,1*
G04 #@! TO.N,Net-(CN2-Pad1)*
X-43500000Y-49428000D03*
G04 #@! TO.P,CN2,2*
G04 #@! TO.N,Net-(C6-Pad1)*
X-41000000Y-50688000D03*
G04 #@! TO.P,CN2,3*
G04 #@! TO.N,Net-(C5-Pad1)*
X-43500000Y-51948000D03*
G04 #@! TO.P,CN2,4*
G04 #@! TO.N,Net-(CN2-Pad4)*
X-41000000Y-53208000D03*
G04 #@! TO.P,CN2,5*
G04 #@! TO.N,GND*
X-43500000Y-54467000D03*
G04 #@! TO.P,CN2,6*
G04 #@! TO.N,Net-(CN2-Pad6)*
X-41000000Y-55728000D03*
D16*
G04 #@! TO.P,CN2,*
G04 #@! TO.N,*
X-50000000Y-47578000D03*
X-50000000Y-57578000D03*
G04 #@! TD*
D15*
G04 #@! TO.P,CN5,1*
G04 #@! TO.N,Net-(CN5-Pad1)*
X-43500000Y-4724000D03*
G04 #@! TO.P,CN5,2*
G04 #@! TO.N,Net-(C12-Pad1)*
X-41000000Y-5984000D03*
G04 #@! TO.P,CN5,3*
G04 #@! TO.N,Net-(C11-Pad1)*
X-43500000Y-7244000D03*
G04 #@! TO.P,CN5,4*
G04 #@! TO.N,Net-(CN5-Pad4)*
X-41000000Y-8504000D03*
G04 #@! TO.P,CN5,5*
G04 #@! TO.N,GND*
X-43500000Y-9763000D03*
G04 #@! TO.P,CN5,6*
G04 #@! TO.N,Net-(CN5-Pad6)*
X-41000000Y-11024000D03*
D16*
G04 #@! TO.P,CN5,*
G04 #@! TO.N,*
X-50000000Y-2874000D03*
X-50000000Y-12874000D03*
G04 #@! TD*
D17*
G04 #@! TO.P,R3,1*
G04 #@! TO.N,/J1_DATA*
X-29115000Y-51562000D03*
G04 #@! TO.P,R3,2*
G04 #@! TO.N,Net-(CN2-Pad4)*
X-33115000Y-51562000D03*
G04 #@! TD*
G04 #@! TO.P,R6,1*
G04 #@! TO.N,/J2_DATA*
X-28607000Y-36576000D03*
G04 #@! TO.P,R6,2*
G04 #@! TO.N,Net-(CN3-Pad4)*
X-32607000Y-36576000D03*
G04 #@! TD*
G04 #@! TO.P,R9,1*
G04 #@! TO.N,/J3_DATA*
X-28480000Y-22860000D03*
G04 #@! TO.P,R9,2*
G04 #@! TO.N,Net-(CN4-Pad4)*
X-32480000Y-22860000D03*
G04 #@! TD*
G04 #@! TO.P,R12,1*
G04 #@! TO.N,/C_DATA*
X-29960000Y-8128000D03*
G04 #@! TO.P,R12,2*
G04 #@! TO.N,Net-(CN5-Pad4)*
X-33960000Y-8128000D03*
G04 #@! TD*
G04 #@! TO.P,R2,1*
G04 #@! TO.N,/J1_LOAD*
X-28944000Y-56134000D03*
G04 #@! TO.P,R2,2*
G04 #@! TO.N,Net-(C5-Pad1)*
X-32944000Y-56134000D03*
G04 #@! TD*
G04 #@! TO.P,R5,1*
G04 #@! TO.N,/J2_LOAD*
X-28182000Y-40640000D03*
G04 #@! TO.P,R5,2*
G04 #@! TO.N,Net-(C7-Pad1)*
X-32182000Y-40640000D03*
G04 #@! TD*
G04 #@! TO.P,R8,1*
G04 #@! TO.N,/J3_LOAD*
X-27674000Y-26162000D03*
G04 #@! TO.P,R8,2*
G04 #@! TO.N,Net-(C9-Pad1)*
X-31674000Y-26162000D03*
G04 #@! TD*
G04 #@! TO.P,R11,1*
G04 #@! TO.N,/C_LOAD*
X-27166000Y-12192000D03*
G04 #@! TO.P,R11,2*
G04 #@! TO.N,Net-(C11-Pad1)*
X-31166000Y-12192000D03*
G04 #@! TD*
G04 #@! TO.P,R1,1*
G04 #@! TO.N,Net-(R1-Pad1)*
X-32163000Y-48768000D03*
G04 #@! TO.P,R1,2*
G04 #@! TO.N,Net-(C6-Pad1)*
X-36163000Y-48768000D03*
G04 #@! TD*
G04 #@! TO.P,R4,1*
G04 #@! TO.N,Net-(R4-Pad1)*
X-31655000Y-33655000D03*
G04 #@! TO.P,R4,2*
G04 #@! TO.N,Net-(C8-Pad1)*
X-35655000Y-33655000D03*
G04 #@! TD*
G04 #@! TO.P,R7,1*
G04 #@! TO.N,Net-(R7-Pad1)*
X-31274000Y-19939000D03*
G04 #@! TO.P,R7,2*
G04 #@! TO.N,Net-(C10-Pad1)*
X-35274000Y-19939000D03*
G04 #@! TD*
G04 #@! TO.P,R10,1*
G04 #@! TO.N,Net-(R10-Pad1)*
X-31909000Y-4064000D03*
G04 #@! TO.P,R10,2*
G04 #@! TO.N,Net-(C12-Pad1)*
X-35909000Y-4064000D03*
G04 #@! TD*
D18*
G04 #@! TO.P,U1,1*
G04 #@! TO.N,Net-(U1-Pad1)*
X-17656000Y-57338000D03*
G04 #@! TO.P,U1,2*
G04 #@! TO.N,/J1_CLK*
X-17656000Y-56388000D03*
G04 #@! TO.P,U1,3*
G04 #@! TO.N,GND*
X-17656000Y-55438000D03*
G04 #@! TO.P,U1,4*
G04 #@! TO.N,Net-(R1-Pad1)*
X-20356000Y-55438000D03*
G04 #@! TO.P,U1,5*
G04 #@! TO.N,+5V*
X-20356000Y-57338000D03*
G04 #@! TD*
G04 #@! TO.P,U4,1*
G04 #@! TO.N,Net-(U4-Pad1)*
X-16938000Y-13142000D03*
G04 #@! TO.P,U4,2*
G04 #@! TO.N,/C_CLK*
X-16938000Y-12192000D03*
G04 #@! TO.P,U4,3*
G04 #@! TO.N,GND*
X-16938000Y-11242000D03*
G04 #@! TO.P,U4,4*
G04 #@! TO.N,Net-(R10-Pad1)*
X-19638000Y-11242000D03*
G04 #@! TO.P,U4,5*
G04 #@! TO.N,+5V*
X-19638000Y-13142000D03*
G04 #@! TD*
G04 #@! TO.P,U3,1*
G04 #@! TO.N,Net-(U3-Pad1)*
X-18164000Y-27874000D03*
G04 #@! TO.P,U3,2*
G04 #@! TO.N,/J3_CLK*
X-18164000Y-26924000D03*
G04 #@! TO.P,U3,3*
G04 #@! TO.N,GND*
X-18164000Y-25974000D03*
G04 #@! TO.P,U3,4*
G04 #@! TO.N,Net-(R7-Pad1)*
X-20864000Y-25974000D03*
G04 #@! TO.P,U3,5*
G04 #@! TO.N,+5V*
X-20864000Y-27874000D03*
G04 #@! TD*
G04 #@! TO.P,U2,1*
G04 #@! TO.N,Net-(U2-Pad1)*
X-18418000Y-41590000D03*
G04 #@! TO.P,U2,2*
G04 #@! TO.N,/J2_CLK*
X-18418000Y-40640000D03*
G04 #@! TO.P,U2,3*
G04 #@! TO.N,GND*
X-18418000Y-39690000D03*
G04 #@! TO.P,U2,4*
G04 #@! TO.N,Net-(R4-Pad1)*
X-21118000Y-39690000D03*
G04 #@! TO.P,U2,5*
G04 #@! TO.N,+5V*
X-21118000Y-41590000D03*
G04 #@! TD*
D19*
G04 #@! TO.P,D1,1*
G04 #@! TO.N,+5V*
X-14331000Y-46355000D03*
G04 #@! TO.P,D1,2*
G04 #@! TO.N,GND*
X-11831000Y-46355000D03*
G04 #@! TD*
D20*
G04 #@! TO.N,GND*
X-36500000Y-13442000D02*
X-36200000Y-13742000D01*
X-21800000Y-56388000D02*
X-24340000Y-58928000D01*
X-19006000Y-56388000D02*
X-21800000Y-56388000D01*
X-4390000Y-49492000D02*
X-4290000Y-49592000D01*
X-19514000Y-26670000D02*
X-19514000Y-26924000D01*
X-19514000Y-26670000D02*
X-19514000Y-26162000D01*
X-19514000Y-26162000D02*
X-19326000Y-25974000D01*
X-19326000Y-25974000D02*
X-18164000Y-25974000D01*
X-42909000Y-24318000D02*
X-42732000Y-24495000D01*
X-19768000Y-40640000D02*
X-22308000Y-40640000D01*
X-22308000Y-40640000D02*
X-25356000Y-43688000D01*
X-18418000Y-39690000D02*
X-19326000Y-39690000D01*
X-19768000Y-40132000D02*
X-19768000Y-40640000D01*
X-19326000Y-39690000D02*
X-19768000Y-40132000D01*
X-17656000Y-55438000D02*
X-18564000Y-55438000D01*
X-18564000Y-55438000D02*
X-19006000Y-55880000D01*
X-19006000Y-55880000D02*
X-19006000Y-56388000D01*
X-4720000Y-49592000D02*
X-4290000Y-49592000D01*
D21*
X-26118000Y-48438000D02*
X-19768000Y-48438000D01*
D20*
X-17722000Y-55372000D02*
X-17656000Y-55438000D01*
D21*
X-44577630Y-39227000D02*
X-46000000Y-37804630D01*
X-46000000Y-37804630D02*
X-46000000Y-32992000D01*
X-43500000Y-39227000D02*
X-44577630Y-39227000D01*
X-40500000Y-1792000D02*
X-39624000Y-1792000D01*
X-46101000Y-4064000D02*
X-46101000Y-8255000D01*
X-46482000Y-52578000D02*
X-44593000Y-54467000D01*
X-6477000Y-49530000D02*
X-4390000Y-49492000D01*
X-6731000Y-49530000D02*
X-7747000Y-48514000D01*
X-6477000Y-49530000D02*
X-6731000Y-49530000D01*
X-25356000Y-19228000D02*
X-24257000Y-19228000D01*
X-24257000Y-19228000D02*
X-19768000Y-19228000D01*
X-43500000Y-24495000D02*
X-43500000Y-26906227D01*
X-29564226Y-43688000D02*
X-25356000Y-43688000D01*
X-30310226Y-42942000D02*
X-29564226Y-43688000D01*
X-24816351Y-59436000D02*
X-24646361Y-59266010D01*
X-24646361Y-59266010D02*
X-24324175Y-58943824D01*
D20*
X-24324175Y-58943824D02*
X-24404000Y-58992000D01*
X-24340000Y-58928000D02*
X-24324175Y-58943824D01*
D21*
X-41763500Y-17562500D02*
X-38481000Y-17562500D01*
X-45212000Y-22783000D02*
X-45212000Y-18796000D01*
X-43500000Y-24495000D02*
X-45212000Y-22783000D01*
X-38608000Y-31786500D02*
X-39583000Y-31786500D01*
X-44794500Y-31786500D02*
X-39583000Y-31786500D01*
X-46000000Y-32992000D02*
X-44794500Y-31786500D01*
X-35345500Y-42942000D02*
X-30310226Y-42942000D01*
X-35525000Y-42762500D02*
X-35345500Y-42942000D01*
X-36500000Y-42762500D02*
X-35525000Y-42762500D01*
X-43995500Y-46391500D02*
X-38862000Y-46391500D01*
X-26118000Y-48177000D02*
X-26118000Y-48388000D01*
X-27178000Y-47117000D02*
X-26118000Y-48177000D01*
X-30226000Y-47117000D02*
X-27178000Y-47117000D01*
X-30951500Y-46391500D02*
X-30226000Y-47117000D01*
X-38862000Y-46391500D02*
X-30951500Y-46391500D01*
X-44593000Y-54467000D02*
X-43500000Y-54467000D01*
X-37475000Y-58979500D02*
X-36500000Y-58979500D01*
X-41319910Y-58979500D02*
X-37475000Y-58979500D01*
X-43518009Y-56781401D02*
X-41319910Y-58979500D01*
X-43518009Y-55562639D02*
X-43518009Y-56781401D01*
X-43500000Y-55544630D02*
X-43518009Y-55562639D01*
X-43500000Y-54467000D02*
X-43500000Y-55544630D01*
X-35068500Y-59436000D02*
X-24816351Y-59436000D01*
X-35525000Y-58979500D02*
X-35068500Y-59436000D01*
X-36500000Y-58979500D02*
X-35525000Y-58979500D01*
X-10032000Y-48388000D02*
X-19768000Y-48388000D01*
D20*
X-19096500Y-43343500D02*
X-16891000Y-43343500D01*
X-19768000Y-42672000D02*
X-19096500Y-43343500D01*
X-19768000Y-40640000D02*
X-19768000Y-42672000D01*
D21*
X-11831000Y-44855000D02*
X-13379000Y-43307000D01*
X-11831000Y-46355000D02*
X-11831000Y-44855000D01*
X-13415500Y-43343500D02*
X-16891000Y-43343500D01*
X-13379000Y-43307000D02*
X-13415500Y-43343500D01*
X-10032000Y-48388000D02*
X-11831000Y-46355000D01*
X-9906000Y-48514000D02*
X-10032000Y-48388000D01*
X-7747000Y-48514000D02*
X-9906000Y-48514000D01*
X-26555500Y-31786500D02*
X-25250000Y-33092000D01*
X-38608000Y-31786500D02*
X-26555500Y-31786500D01*
X-25250000Y-33092000D02*
X-20250000Y-33092000D01*
D20*
X-19514000Y-29166000D02*
X-20139000Y-30353000D01*
X-19514000Y-26924000D02*
X-19514000Y-29166000D01*
D21*
X-20250000Y-30464000D02*
X-20139000Y-30353000D01*
X-20250000Y-33092000D02*
X-20250000Y-30464000D01*
X-38657500Y-28375000D02*
X-38186000Y-27903500D01*
X-38186000Y-27903500D02*
X-37211000Y-27903500D01*
X-42031227Y-28375000D02*
X-38657500Y-28375000D01*
X-43500000Y-26906227D02*
X-42031227Y-28375000D01*
X-18324500Y-17734500D02*
X-19768000Y-19178000D01*
X-18324500Y-15875000D02*
X-18324500Y-17734500D01*
X-10828000Y-4954000D02*
X-17736000Y-4954000D01*
X-4290000Y-11492000D02*
X-10828000Y-4954000D01*
X-22352000Y-4954000D02*
X-24003000Y-3303000D01*
X-17736000Y-4954000D02*
X-22352000Y-4954000D01*
X-24153000Y-3303000D02*
X-24003000Y-3303000D01*
X-25664000Y-1792000D02*
X-24153000Y-3303000D01*
X-39624000Y-1792000D02*
X-25664000Y-1792000D01*
D20*
X-18324500Y-14900000D02*
X-18324500Y-15875000D01*
X-18324500Y-11448500D02*
X-18324500Y-14900000D01*
X-18118000Y-11242000D02*
X-18324500Y-11448500D01*
X-16938000Y-11242000D02*
X-18118000Y-11242000D01*
D21*
X-36789000Y-13298500D02*
X-35814000Y-13298500D01*
X-37113510Y-13623010D02*
X-36789000Y-13298500D01*
X-41836928Y-13623010D02*
X-37113510Y-13623010D01*
X-43500000Y-11959938D02*
X-41836928Y-13623010D01*
X-43500000Y-9763000D02*
X-43500000Y-11959938D01*
X-46482000Y-48878000D02*
X-43995500Y-46391500D01*
X-46482000Y-52578000D02*
X-46482000Y-48878000D01*
X-46000000Y-38914700D02*
X-46000000Y-37804630D01*
X-38894351Y-42762500D02*
X-39060012Y-42928161D01*
X-41986540Y-42928160D02*
X-46000000Y-38914700D01*
X-39060012Y-42928161D02*
X-41986540Y-42928160D01*
X-36500000Y-42762500D02*
X-38894351Y-42762500D01*
X-43978500Y-17562500D02*
X-41763500Y-17562500D01*
X-45212000Y-18796000D02*
X-43978500Y-17562500D01*
X-25506000Y-19178000D02*
X-25356000Y-19178000D01*
X-27121500Y-17562500D02*
X-25506000Y-19178000D01*
X-38481000Y-17562500D02*
X-27121500Y-17562500D01*
D20*
X-17656000Y-55438000D02*
X-17656000Y-55248000D01*
D22*
X-17308500Y-54900500D02*
X-13716000Y-54900500D01*
D20*
X-17656000Y-55248000D02*
X-17308500Y-54900500D01*
D21*
X-15747000Y-19178000D02*
X-19768000Y-19178000D01*
X-5653000Y-29272000D02*
X-15747000Y-19178000D01*
X-4290000Y-29272000D02*
X-5653000Y-29272000D01*
X-43956000Y-1792000D02*
X-46101000Y-4064000D01*
X-39624000Y-1792000D02*
X-43956000Y-1792000D01*
X-44720000Y-9763000D02*
X-43500000Y-9763000D01*
X-46101000Y-8255000D02*
X-44720000Y-9763000D01*
D23*
G04 #@! TO.N,Net-(C5-Pad1)*
X-42418000Y-56325762D02*
X-42418000Y-55400762D01*
X-42738001Y-52709999D02*
X-43500000Y-51948000D01*
X-42312001Y-53135999D02*
X-42738001Y-52709999D01*
X-42312001Y-53837761D02*
X-42312001Y-53135999D01*
X-42187999Y-53961763D02*
X-42312001Y-53837761D01*
X-42187999Y-55170761D02*
X-42187999Y-53961763D01*
X-42418000Y-55400762D02*
X-42187999Y-55170761D01*
D24*
X-37645500Y-57150000D02*
X-36500000Y-56004500D01*
X-41593762Y-57150000D02*
X-37645500Y-57150000D01*
X-42418000Y-56325762D02*
X-41593762Y-57150000D01*
X-33073500Y-56004500D02*
X-32944000Y-56134000D01*
D21*
X-36500000Y-56004500D02*
X-33073500Y-56004500D01*
G04 #@! TO.N,Net-(C6-Pad1)*
X-38263500Y-48768000D02*
X-38862000Y-49366500D01*
X-36163000Y-48768000D02*
X-38263500Y-48768000D01*
X-39678500Y-49366500D02*
X-41000000Y-50688000D01*
X-38862000Y-49366500D02*
X-39678500Y-49366500D01*
D23*
G04 #@! TO.N,Net-(C7-Pad1)*
X-40320239Y-41750001D02*
X-40370239Y-41800001D01*
X-40246239Y-41750001D02*
X-40320239Y-41750001D01*
X-42738001Y-37469999D02*
X-43500000Y-36708000D01*
X-42312001Y-37895999D02*
X-42738001Y-37469999D01*
X-42312001Y-38597761D02*
X-42312001Y-37895999D01*
X-42187999Y-38721763D02*
X-42312001Y-38597761D01*
X-42187999Y-39856761D02*
X-42187999Y-38721763D01*
X-42545000Y-40213762D02*
X-42187999Y-39856761D01*
X-42545000Y-40884762D02*
X-42545000Y-40213762D01*
X-41551611Y-41878151D02*
X-42545000Y-40884762D01*
X-40374389Y-41878151D02*
X-41551611Y-41878151D01*
X-40246239Y-41750001D02*
X-40374389Y-41878151D01*
D24*
X-35647500Y-40640000D02*
X-36500000Y-39787500D01*
X-32182000Y-40640000D02*
X-35647500Y-40640000D01*
X-37475000Y-39787500D02*
X-39437501Y-41750001D01*
X-39437501Y-41750001D02*
X-40246239Y-41750001D01*
D20*
X-36500000Y-39787500D02*
X-37475000Y-39787500D01*
D21*
G04 #@! TO.N,Net-(C8-Pad1)*
X-37501500Y-33655000D02*
X-38608000Y-34761500D01*
X-35655000Y-33655000D02*
X-37501500Y-33655000D01*
X-40313500Y-34761500D02*
X-41000000Y-35448000D01*
X-38608000Y-34761500D02*
X-40313500Y-34761500D01*
D24*
G04 #@! TO.N,+5V*
X-21118000Y-41590000D02*
X-21118000Y-42874000D01*
D20*
X-20864000Y-27874000D02*
X-20864000Y-28114000D01*
D21*
X-1750000Y-59752000D02*
X-1750000Y-57212000D01*
X-53250000Y-29992000D02*
X-53250000Y-46742000D01*
X-49500000Y-23492000D02*
X-53250000Y-23492000D01*
X-43750000Y-29242000D02*
X-49500000Y-23492000D01*
X-53250000Y-23492000D02*
X-53250000Y-29992000D01*
D24*
X-21118000Y-44105000D02*
X-21118000Y-42874000D01*
D21*
X-53250000Y-46742000D02*
X-51010000Y-44958000D01*
X-53250000Y-49492000D02*
X-53250000Y-46742000D01*
X-41910000Y-60833000D02*
X-53250000Y-49492000D01*
D20*
X-20356000Y-57338000D02*
X-20356000Y-57832000D01*
D21*
X-20356000Y-57832000D02*
X-20447000Y-60833000D01*
X-51000000Y-9742000D02*
X-47962000Y-9906000D01*
X-53250000Y-23492000D02*
X-53250000Y-11992000D01*
X-53250000Y-11992000D02*
X-51000000Y-9742000D01*
D23*
X-43576021Y-29068021D02*
X-43750000Y-29242000D01*
D21*
X-50165000Y-44958000D02*
X-50134990Y-44988010D01*
X-51010000Y-44958000D02*
X-50165000Y-44958000D01*
X-22001010Y-44988010D02*
X-21971000Y-44958000D01*
X-50165000Y-44958000D02*
X-45085000Y-44958000D01*
X-43316990Y-29675010D02*
X-43750000Y-29242000D01*
X-23769010Y-29675010D02*
X-43316990Y-29675010D01*
X-41910000Y-60833000D02*
X-20447000Y-60833000D01*
D22*
X-14367500Y-46318500D02*
X-14331000Y-46355000D01*
X-16891000Y-46318500D02*
X-14367500Y-46318500D01*
D24*
X-23114000Y-30124000D02*
X-20864000Y-27874000D01*
D20*
X-23114000Y-30353000D02*
X-23114000Y-30124000D01*
D21*
X-32372648Y-15875000D02*
X-21299500Y-15875000D01*
D24*
X-21299500Y-14803500D02*
X-19638000Y-13142000D01*
D21*
X-21299500Y-15875000D02*
X-21299500Y-14803500D01*
X-41423429Y-15875000D02*
X-32372648Y-15875000D01*
X-47392429Y-9906000D02*
X-41423429Y-15875000D01*
X-47962000Y-9906000D02*
X-47392429Y-9906000D01*
X-22001010Y-44988010D02*
X-21118000Y-44105000D01*
X-19558000Y-46355000D02*
X-16891000Y-46318500D01*
X-21118000Y-44105000D02*
X-19558000Y-46355000D01*
X-30102707Y-44988010D02*
X-22001010Y-44988010D01*
X-30211727Y-44878990D02*
X-30102707Y-44988010D01*
X-45005990Y-44878990D02*
X-30211727Y-44878990D01*
X-45085000Y-44958000D02*
X-45005990Y-44878990D01*
X-1750000Y-60742000D02*
X-1750000Y-59752000D01*
X-3000000Y-61992000D02*
X-1750000Y-60742000D01*
X-13155500Y-61992000D02*
X-3000000Y-61992000D01*
X-14314500Y-60833000D02*
X-13155500Y-61992000D01*
X-20447000Y-60833000D02*
X-14314500Y-60833000D01*
X-13716000Y-60234500D02*
X-13716000Y-57875500D01*
X-14314500Y-60833000D02*
X-13716000Y-60234500D01*
G04 #@! TO.N,/J1_LOAD*
X-7747000Y-54610000D02*
X-4290000Y-54672000D01*
X-10719000Y-51638000D02*
X-7747000Y-54610000D01*
X-21114000Y-51638000D02*
X-10719000Y-51638000D01*
X-25610000Y-56134000D02*
X-21114000Y-51638000D01*
X-28944000Y-56134000D02*
X-25610000Y-56134000D01*
G04 #@! TO.N,/J2_LOAD*
X-20276000Y-36398000D02*
X-17653000Y-36421588D01*
X-21876000Y-36398000D02*
X-20276000Y-36398000D01*
X-26118000Y-40640000D02*
X-21876000Y-36398000D01*
X-28182000Y-40640000D02*
X-26118000Y-40640000D01*
X-17653000Y-36421588D02*
X-16537412Y-36421588D01*
X-8447000Y-44512000D02*
X-4290000Y-44512000D01*
X-16537412Y-36421588D02*
X-8447000Y-44512000D01*
G04 #@! TO.N,/J3_LOAD*
X-27674000Y-26162000D02*
X-25670000Y-26162000D01*
X-21986000Y-22478000D02*
X-19768000Y-22478000D01*
X-25670000Y-26162000D02*
X-21986000Y-22478000D01*
X-17148352Y-22478000D02*
X-5274352Y-34352000D01*
X-5274352Y-34352000D02*
X-4290000Y-34352000D01*
X-19768000Y-22478000D02*
X-17148352Y-22478000D01*
D20*
G04 #@! TO.N,/C_LOAD*
X-4290000Y-16572000D02*
X-4974000Y-16572000D01*
X-4290000Y-16572000D02*
X-4420000Y-16572000D01*
D21*
X-25356000Y-12192000D02*
X-21368000Y-8204000D01*
X-27166000Y-12192000D02*
X-25356000Y-12192000D01*
X-21368000Y-8204000D02*
X-18415000Y-8204000D01*
X-18415000Y-8204000D02*
X-17736000Y-8204000D01*
X-12658000Y-8204000D02*
X-4290000Y-16572000D01*
X-18415000Y-8204000D02*
X-12658000Y-8204000D01*
D25*
G04 #@! TO.N,Net-(C9-Pad1)*
X-42738001Y-22737999D02*
X-43500000Y-21976000D01*
X-42006992Y-24133770D02*
X-42738001Y-23402761D01*
X-42006992Y-24906754D02*
X-42006992Y-24133770D01*
X-42418000Y-26416000D02*
X-42418000Y-25317762D01*
X-42738001Y-23402761D02*
X-42738001Y-22737999D01*
X-41783000Y-27051000D02*
X-42418000Y-26416000D01*
X-40136238Y-26797000D02*
X-40390238Y-27051000D01*
X-42418000Y-25317762D02*
X-42006992Y-24906754D01*
X-40390238Y-27051000D02*
X-41783000Y-27051000D01*
X-39079500Y-26797000D02*
X-37211000Y-24928500D01*
X-40136238Y-26797000D02*
X-39079500Y-26797000D01*
D21*
X-35977500Y-26162000D02*
X-37211000Y-24928500D01*
X-31674000Y-26162000D02*
X-35977500Y-26162000D01*
D20*
G04 #@! TO.N,Net-(C10-Pad1)*
X-40408000Y-20540000D02*
X-40232000Y-20716000D01*
X-37882500Y-19939000D02*
X-38481000Y-20537500D01*
D22*
X-35274000Y-19939000D02*
X-37882500Y-19939000D01*
D20*
X-40821500Y-20537500D02*
X-41000000Y-20716000D01*
D22*
X-38481000Y-20537500D02*
X-40821500Y-20537500D01*
D21*
G04 #@! TO.N,Net-(C11-Pad1)*
X-31816000Y-11542000D02*
X-31166000Y-12192000D01*
X-31316000Y-12192000D02*
X-33184500Y-10323500D01*
X-33184500Y-10323500D02*
X-35814000Y-10323500D01*
X-31166000Y-12192000D02*
X-31316000Y-12192000D01*
D23*
X-37682500Y-10323500D02*
X-35814000Y-10323500D01*
X-40005000Y-12573000D02*
X-37719000Y-10287000D01*
X-41402000Y-12573000D02*
X-40005000Y-12573000D01*
X-37719000Y-10287000D02*
X-37682500Y-10323500D01*
X-42312001Y-10516763D02*
X-42312001Y-11662999D01*
X-42312001Y-11662999D02*
X-41402000Y-12573000D01*
X-43500000Y-7244000D02*
X-42738001Y-8005999D01*
X-42187999Y-10392761D02*
X-42312001Y-10516763D01*
X-42738001Y-8005999D02*
X-42738001Y-8569999D01*
X-42187999Y-9120001D02*
X-42187999Y-10392761D01*
X-42738001Y-8569999D02*
X-42187999Y-9120001D01*
D21*
G04 #@! TO.N,Net-(C12-Pad1)*
X-38263500Y-4064000D02*
X-38862000Y-4662500D01*
X-35909000Y-4064000D02*
X-38263500Y-4064000D01*
X-39678500Y-4662500D02*
X-41000000Y-5984000D01*
X-38862000Y-4662500D02*
X-39678500Y-4662500D01*
G04 #@! TO.N,Net-(CN2-Pad4)*
X-36876000Y-53208000D02*
X-33115000Y-51562000D01*
X-41000000Y-53208000D02*
X-36876000Y-53208000D01*
G04 #@! TO.N,Net-(CN3-Pad4)*
X-35860000Y-37968000D02*
X-32607000Y-36576000D01*
X-41000000Y-37968000D02*
X-35860000Y-37968000D01*
G04 #@! TO.N,Net-(CN4-Pad4)*
X-34722000Y-22860000D02*
X-32480000Y-22860000D01*
X-35098000Y-23236000D02*
X-34722000Y-22860000D01*
X-41000000Y-23236000D02*
X-35098000Y-23236000D01*
D20*
G04 #@! TO.N,Net-(CN5-Pad4)*
X-33210000Y-8628000D02*
X-33210000Y-8728000D01*
X-34336000Y-8504000D02*
X-33960000Y-8128000D01*
X-41000000Y-8504000D02*
X-40000000Y-8504000D01*
X-40232000Y-8504000D02*
X-40000000Y-8504000D01*
D21*
X-40000000Y-8504000D02*
X-34336000Y-8504000D01*
D20*
G04 #@! TO.N,/J1_DATA*
X-4482000Y-52324000D02*
X-4290000Y-52132000D01*
X-26244000Y-51562000D02*
X-26118000Y-51688000D01*
D21*
X-9069990Y-50038000D02*
X-22644010Y-50038000D01*
X-24518000Y-51688000D02*
X-26118000Y-51688000D01*
X-22644010Y-50038000D02*
X-24518000Y-51688000D01*
X-6752000Y-52132000D02*
X-9069990Y-50038000D01*
X-4290000Y-52132000D02*
X-6752000Y-52132000D01*
X-29115000Y-51562000D02*
X-26244000Y-51562000D01*
D20*
G04 #@! TO.N,/J2_DATA*
X-25434000Y-36576000D02*
X-25250000Y-36392000D01*
D21*
X-5904000Y-41972000D02*
X-4290000Y-41972000D01*
X-13208000Y-34798000D02*
X-5969000Y-42037000D01*
X-5969000Y-42037000D02*
X-5904000Y-41972000D01*
X-22860000Y-34798000D02*
X-13208000Y-34798000D01*
X-24638000Y-36576000D02*
X-22860000Y-34798000D01*
X-25434000Y-36576000D02*
X-24638000Y-36576000D01*
X-28607000Y-36576000D02*
X-25434000Y-36576000D01*
G04 #@! TO.N,/J3_DATA*
X-5653000Y-31812000D02*
X-4290000Y-31812000D01*
X-23556000Y-20828000D02*
X-16637000Y-20828000D01*
X-25206000Y-22478000D02*
X-23556000Y-20828000D01*
X-16637000Y-20828000D02*
X-5653000Y-31812000D01*
X-25356000Y-22478000D02*
X-25206000Y-22478000D01*
X-25738000Y-22860000D02*
X-25356000Y-22478000D01*
X-28480000Y-22860000D02*
X-25738000Y-22860000D01*
G04 #@! TO.N,/C_DATA*
X-29960000Y-6878000D02*
X-29960000Y-8128000D01*
X-29685000Y-6603000D02*
X-29960000Y-6878000D01*
X-24003000Y-6603000D02*
X-29685000Y-6603000D01*
X-13419000Y-6603000D02*
X-13418000Y-6604000D01*
X-24003000Y-6603000D02*
X-13419000Y-6603000D01*
X-11719000Y-6603000D02*
X-4290000Y-14032000D01*
X-13419000Y-6603000D02*
X-11719000Y-6603000D01*
D24*
G04 #@! TO.N,/C_CLK*
X-15702998Y-12192000D02*
X-16938000Y-12192000D01*
X-5461000Y-21336000D02*
X-15702998Y-12192000D01*
X-4606000Y-21336000D02*
X-5461000Y-21336000D01*
X-4290000Y-21652000D02*
X-4606000Y-21336000D01*
G04 #@! TO.N,/J3_CLK*
X-5139999Y-36042001D02*
X-4290000Y-36892000D01*
X-14258000Y-26924000D02*
X-5139999Y-36042001D01*
X-18164000Y-26924000D02*
X-14258000Y-26924000D01*
G04 #@! TO.N,/J2_CLK*
X-8022000Y-47052000D02*
X-4290000Y-47052000D01*
X-14434000Y-40640000D02*
X-8022000Y-47052000D01*
X-18418000Y-40640000D02*
X-14434000Y-40640000D01*
D21*
G04 #@! TO.N,/J1_CLK*
X-8530000Y-57212000D02*
X-4290000Y-57212000D01*
D20*
X-4606000Y-56896000D02*
X-4290000Y-57212000D01*
D21*
X-8530000Y-57212000D02*
X-10860000Y-57212000D01*
D24*
X-11684000Y-56388000D02*
X-10860000Y-57212000D01*
X-17656000Y-56388000D02*
X-11684000Y-56388000D01*
G04 #@! TO.N,Net-(R1-Pad1)*
X-31115000Y-52959000D02*
X-31115000Y-49816000D01*
X-30944000Y-53130000D02*
X-31115000Y-52959000D01*
X-30944000Y-57404000D02*
X-30944000Y-53130000D01*
X-30182000Y-58166000D02*
X-30944000Y-57404000D01*
X-31115000Y-49816000D02*
X-32163000Y-48768000D01*
X-25102000Y-58166000D02*
X-30182000Y-58166000D01*
X-22374000Y-55438000D02*
X-25102000Y-58166000D01*
X-20356000Y-55438000D02*
X-22374000Y-55438000D01*
G04 #@! TO.N,Net-(R4-Pad1)*
X-21118000Y-39690000D02*
X-22298000Y-39690000D01*
X-30607000Y-34703000D02*
X-31655000Y-33655000D01*
X-30607000Y-37846000D02*
X-30607000Y-34703000D01*
X-30226000Y-38227000D02*
X-30607000Y-37846000D01*
X-22298000Y-39690000D02*
X-23612352Y-39690000D01*
X-29606576Y-42090001D02*
X-30226000Y-41470577D01*
X-26012353Y-42090001D02*
X-29606576Y-42090001D01*
X-30226000Y-41470577D02*
X-30226000Y-38227000D01*
X-23612352Y-39690000D02*
X-26012353Y-42090001D01*
G04 #@! TO.N,Net-(R7-Pad1)*
X-31274000Y-20288000D02*
X-31274000Y-19939000D01*
X-30480000Y-21082000D02*
X-31274000Y-20288000D01*
X-30480000Y-24003000D02*
X-30480000Y-21082000D01*
X-30193999Y-24289001D02*
X-30480000Y-24003000D01*
X-30193999Y-24711999D02*
X-30193999Y-24289001D01*
X-29591000Y-25314998D02*
X-30193999Y-24711999D01*
X-29591000Y-27051000D02*
X-29591000Y-25314998D01*
X-28956000Y-27613064D02*
X-29591000Y-27051000D01*
X-23876000Y-27686000D02*
X-28956000Y-27613064D01*
X-22244000Y-25974000D02*
X-23876000Y-27686000D01*
X-20864000Y-25974000D02*
X-22244000Y-25974000D01*
G04 #@! TO.N,Net-(R10-Pad1)*
X-30690000Y-10414000D02*
X-29928000Y-10414000D01*
X-29928000Y-10414000D02*
X-29166000Y-11176000D01*
X-29166000Y-11176000D02*
X-29166000Y-13462000D01*
X-31960000Y-9144000D02*
X-30690000Y-10414000D01*
X-31909000Y-4064000D02*
X-31960000Y-9144000D01*
X-28658000Y-13970000D02*
X-24765000Y-13970000D01*
X-29166000Y-13462000D02*
X-28658000Y-13970000D01*
X-22037000Y-11242000D02*
X-19638000Y-11242000D01*
X-24765000Y-13970000D02*
X-22037000Y-11242000D01*
D23*
G04 #@! TO.N,Net-(CN1-Pad3)*
X-1750000Y-14032000D02*
X-920000Y-14032000D01*
G04 #@! TO.N,Net-(CN1-Pad5)*
X-1750000Y-16572000D02*
X-1750000Y-16742000D01*
D20*
G04 #@! TO.N,Net-(CN1-Pad7)*
X-1750000Y-19112000D02*
X-1370000Y-19112000D01*
G04 #@! TO.N,Net-(CN1-Pad11)*
X-1750000Y-24192000D02*
X-1050000Y-24192000D01*
D23*
X-1750000Y-24192000D02*
X-1700000Y-24192000D01*
D20*
G04 #@! TO.N,Net-(CN1-Pad25)*
X-1730000Y-41992000D02*
X-1750000Y-41972000D01*
D23*
X-1750000Y-41972000D02*
X-980000Y-41972000D01*
G04 #@! TO.N,Net-(CN1-Pad27)*
X-1750000Y-44512000D02*
X-1520000Y-44512000D01*
X-1750000Y-44512000D02*
X-1750000Y-44492000D01*
D20*
G04 #@! TO.N,Net-(CN1-Pad29)*
X-1690000Y-46992000D02*
X-1750000Y-47052000D01*
G04 #@! TD*
D24*
G04 #@! TO.N,GND*
G36*
X-8876426Y-47753209D02*
X-8815056Y-47845056D01*
X-8526692Y-48037734D01*
X-8451199Y-48088177D01*
X-8022001Y-48173550D01*
X-7913662Y-48152000D01*
X-5539441Y-48152000D01*
X-5479583Y-48241583D01*
X-4933798Y-48606266D01*
X-4452509Y-48702000D01*
X-4127491Y-48702000D01*
X-3646202Y-48606266D01*
X-3100417Y-48241583D01*
X-3020000Y-48121231D01*
X-2939583Y-48241583D01*
X-2819231Y-48322000D01*
X-2939583Y-48402417D01*
X-3304266Y-48948202D01*
X-3432325Y-49592000D01*
X-3304266Y-50235798D01*
X-2939583Y-50781583D01*
X-2819231Y-50862000D01*
X-2939583Y-50942417D01*
X-3020000Y-51062769D01*
X-3100417Y-50942417D01*
X-3646202Y-50577734D01*
X-4127491Y-50482000D01*
X-4452509Y-50482000D01*
X-4933798Y-50577734D01*
X-5314333Y-50832000D01*
X-6251757Y-50832000D01*
X-8078761Y-49181542D01*
X-8132743Y-49100753D01*
X-8268906Y-49009771D01*
X-8293552Y-48987507D01*
X-8375161Y-48938774D01*
X-8562755Y-48813427D01*
X-8596213Y-48806772D01*
X-8625498Y-48789284D01*
X-8848703Y-48756549D01*
X-8941953Y-48738000D01*
X-8975175Y-48738000D01*
X-9137195Y-48714238D01*
X-9231404Y-48738000D01*
X-22474171Y-48738000D01*
X-22559931Y-48715202D01*
X-22730498Y-48738000D01*
X-22772047Y-48738000D01*
X-22857156Y-48754929D01*
X-23072544Y-48783718D01*
X-23109425Y-48805109D01*
X-23151245Y-48813427D01*
X-23331935Y-48934161D01*
X-23406991Y-48977692D01*
X-23438173Y-49005147D01*
X-23581257Y-49100753D01*
X-23630558Y-49174537D01*
X-25008750Y-50388000D01*
X-25661077Y-50388000D01*
X-25736765Y-50337427D01*
X-26115963Y-50262000D01*
X-27453530Y-50262000D01*
X-27538233Y-50135233D01*
X-27802856Y-49958417D01*
X-28115000Y-49896328D01*
X-30009428Y-49896328D01*
X-29993450Y-49816000D01*
X-30078823Y-49386801D01*
X-30153369Y-49275235D01*
X-30321944Y-49022944D01*
X-30347328Y-49005983D01*
X-30347328Y-47918000D01*
X-30409417Y-47605856D01*
X-30586233Y-47341233D01*
X-30850856Y-47164417D01*
X-31163000Y-47102328D01*
X-33163000Y-47102328D01*
X-33475144Y-47164417D01*
X-33739767Y-47341233D01*
X-33916583Y-47605856D01*
X-33978672Y-47918000D01*
X-33978672Y-49618000D01*
X-33923309Y-49896328D01*
X-34115000Y-49896328D01*
X-34427144Y-49958417D01*
X-34429248Y-49959823D01*
X-34409417Y-49930144D01*
X-34347328Y-49618000D01*
X-34347328Y-47918000D01*
X-34409417Y-47605856D01*
X-34586233Y-47341233D01*
X-34850856Y-47164417D01*
X-35163000Y-47102328D01*
X-37163000Y-47102328D01*
X-37475144Y-47164417D01*
X-37739767Y-47341233D01*
X-37824470Y-47468000D01*
X-38135467Y-47468000D01*
X-38263500Y-47442533D01*
X-38391533Y-47468000D01*
X-38391537Y-47468000D01*
X-38770735Y-47543427D01*
X-39200747Y-47830753D01*
X-39205808Y-47838328D01*
X-39487000Y-47838328D01*
X-39894815Y-47919447D01*
X-40240544Y-48150456D01*
X-40274456Y-48201208D01*
X-40507204Y-48356726D01*
X-40507206Y-48356728D01*
X-40615747Y-48429253D01*
X-40688273Y-48537795D01*
X-41276477Y-49126000D01*
X-41310701Y-49126000D01*
X-41884802Y-49363801D01*
X-41938000Y-49416999D01*
X-41938000Y-49117299D01*
X-42175801Y-48543198D01*
X-42615198Y-48103801D01*
X-43189299Y-47866000D01*
X-43810701Y-47866000D01*
X-44384802Y-48103801D01*
X-44824199Y-48543198D01*
X-45062000Y-49117299D01*
X-45062000Y-49738701D01*
X-44824199Y-50312802D01*
X-44449001Y-50688000D01*
X-44824199Y-51063198D01*
X-45062000Y-51637299D01*
X-45062000Y-52258701D01*
X-44824199Y-52832802D01*
X-44384802Y-53272199D01*
X-43810701Y-53510000D01*
X-43422924Y-53510000D01*
X-43362001Y-53570923D01*
X-43362001Y-53734353D01*
X-43382570Y-53837761D01*
X-43362001Y-53941169D01*
X-43362001Y-53941173D01*
X-43301079Y-54247449D01*
X-43267751Y-54297328D01*
X-43237999Y-54341855D01*
X-43237999Y-54738029D01*
X-43352523Y-54909427D01*
X-43407077Y-54991073D01*
X-43468000Y-55297349D01*
X-43468000Y-55297354D01*
X-43488569Y-55400762D01*
X-43468000Y-55504170D01*
X-43468000Y-55966057D01*
X-43539550Y-56325762D01*
X-43454177Y-56754960D01*
X-43272424Y-57026972D01*
X-42448189Y-57851208D01*
X-42386818Y-57943056D01*
X-42022961Y-58186177D01*
X-41702101Y-58250000D01*
X-41593762Y-58271550D01*
X-41485423Y-58250000D01*
X-37753839Y-58250000D01*
X-37645500Y-58271550D01*
X-37537161Y-58250000D01*
X-37216301Y-58186177D01*
X-36852444Y-57943056D01*
X-36791072Y-57851206D01*
X-36472538Y-57532672D01*
X-35875000Y-57532672D01*
X-35467185Y-57451553D01*
X-35247105Y-57304500D01*
X-34692000Y-57304500D01*
X-34520767Y-57560767D01*
X-34256144Y-57737583D01*
X-33944000Y-57799672D01*
X-31986846Y-57799672D01*
X-31980177Y-57833198D01*
X-31737056Y-58197056D01*
X-31645206Y-58258428D01*
X-31036427Y-58867208D01*
X-30975056Y-58959056D01*
X-30611199Y-59202177D01*
X-30182000Y-59287550D01*
X-30073661Y-59266000D01*
X-25210339Y-59266000D01*
X-25102000Y-59287550D01*
X-24993661Y-59266000D01*
X-24672801Y-59202177D01*
X-24308944Y-58959056D01*
X-24247572Y-58867206D01*
X-21918366Y-56538000D01*
X-21780766Y-56538000D01*
X-21889583Y-56700856D01*
X-21951672Y-57013000D01*
X-21951672Y-57663000D01*
X-21889583Y-57975144D01*
X-21712767Y-58239767D01*
X-21669832Y-58268455D01*
X-21708177Y-59533000D01*
X-41371488Y-59533000D01*
X-50965443Y-49938200D01*
X-50507226Y-50128000D01*
X-49492774Y-50128000D01*
X-48555541Y-49739785D01*
X-47838215Y-49022459D01*
X-47450000Y-48085226D01*
X-47450000Y-47070774D01*
X-47786662Y-46258000D01*
X-45213033Y-46258000D01*
X-45085000Y-46283467D01*
X-44956967Y-46258000D01*
X-44956963Y-46258000D01*
X-44577765Y-46182573D01*
X-44572403Y-46178990D01*
X-30660217Y-46178990D01*
X-30609942Y-46212583D01*
X-30230744Y-46288010D01*
X-30230740Y-46288010D01*
X-30102707Y-46313477D01*
X-29974674Y-46288010D01*
X-22129043Y-46288010D01*
X-22001010Y-46313477D01*
X-21872977Y-46288010D01*
X-21872973Y-46288010D01*
X-21493775Y-46212583D01*
X-21319416Y-46096080D01*
X-20627487Y-47094054D01*
X-20482333Y-47304985D01*
X-20370880Y-47377269D01*
X-20275339Y-47469581D01*
X-20156025Y-47516616D01*
X-20048429Y-47586399D01*
X-19917791Y-47610531D01*
X-19794203Y-47659251D01*
X-19538098Y-47654849D01*
X-18118570Y-47635422D01*
X-17923815Y-47765553D01*
X-17516000Y-47846672D01*
X-16266000Y-47846672D01*
X-15858185Y-47765553D01*
X-15512456Y-47534544D01*
X-15501736Y-47518500D01*
X-15277962Y-47518500D01*
X-15143144Y-47608583D01*
X-14831000Y-47670672D01*
X-13831000Y-47670672D01*
X-13518856Y-47608583D01*
X-13254233Y-47431767D01*
X-13077417Y-47167144D01*
X-13015328Y-46855000D01*
X-13015328Y-45855000D01*
X-13077417Y-45542856D01*
X-13254233Y-45278233D01*
X-13518856Y-45101417D01*
X-13831000Y-45039328D01*
X-14831000Y-45039328D01*
X-15143144Y-45101417D01*
X-15168710Y-45118500D01*
X-15501736Y-45118500D01*
X-15512456Y-45102456D01*
X-15858185Y-44871447D01*
X-16266000Y-44790328D01*
X-17516000Y-44790328D01*
X-17923815Y-44871447D01*
X-18169908Y-45035881D01*
X-18883917Y-45045653D01*
X-20018000Y-43409957D01*
X-20018000Y-42663334D01*
X-19768000Y-42496289D01*
X-19510144Y-42668583D01*
X-19198000Y-42730672D01*
X-17638000Y-42730672D01*
X-17325856Y-42668583D01*
X-17061233Y-42491767D01*
X-16884417Y-42227144D01*
X-16822328Y-41915000D01*
X-16822328Y-41740000D01*
X-14889634Y-41740000D01*
X-8876426Y-47753209D01*
X-8876426Y-47753209D01*
G37*
X-8876426Y-47753209D02*
X-8815056Y-47845056D01*
X-8526692Y-48037734D01*
X-8451199Y-48088177D01*
X-8022001Y-48173550D01*
X-7913662Y-48152000D01*
X-5539441Y-48152000D01*
X-5479583Y-48241583D01*
X-4933798Y-48606266D01*
X-4452509Y-48702000D01*
X-4127491Y-48702000D01*
X-3646202Y-48606266D01*
X-3100417Y-48241583D01*
X-3020000Y-48121231D01*
X-2939583Y-48241583D01*
X-2819231Y-48322000D01*
X-2939583Y-48402417D01*
X-3304266Y-48948202D01*
X-3432325Y-49592000D01*
X-3304266Y-50235798D01*
X-2939583Y-50781583D01*
X-2819231Y-50862000D01*
X-2939583Y-50942417D01*
X-3020000Y-51062769D01*
X-3100417Y-50942417D01*
X-3646202Y-50577734D01*
X-4127491Y-50482000D01*
X-4452509Y-50482000D01*
X-4933798Y-50577734D01*
X-5314333Y-50832000D01*
X-6251757Y-50832000D01*
X-8078761Y-49181542D01*
X-8132743Y-49100753D01*
X-8268906Y-49009771D01*
X-8293552Y-48987507D01*
X-8375161Y-48938774D01*
X-8562755Y-48813427D01*
X-8596213Y-48806772D01*
X-8625498Y-48789284D01*
X-8848703Y-48756549D01*
X-8941953Y-48738000D01*
X-8975175Y-48738000D01*
X-9137195Y-48714238D01*
X-9231404Y-48738000D01*
X-22474171Y-48738000D01*
X-22559931Y-48715202D01*
X-22730498Y-48738000D01*
X-22772047Y-48738000D01*
X-22857156Y-48754929D01*
X-23072544Y-48783718D01*
X-23109425Y-48805109D01*
X-23151245Y-48813427D01*
X-23331935Y-48934161D01*
X-23406991Y-48977692D01*
X-23438173Y-49005147D01*
X-23581257Y-49100753D01*
X-23630558Y-49174537D01*
X-25008750Y-50388000D01*
X-25661077Y-50388000D01*
X-25736765Y-50337427D01*
X-26115963Y-50262000D01*
X-27453530Y-50262000D01*
X-27538233Y-50135233D01*
X-27802856Y-49958417D01*
X-28115000Y-49896328D01*
X-30009428Y-49896328D01*
X-29993450Y-49816000D01*
X-30078823Y-49386801D01*
X-30153369Y-49275235D01*
X-30321944Y-49022944D01*
X-30347328Y-49005983D01*
X-30347328Y-47918000D01*
X-30409417Y-47605856D01*
X-30586233Y-47341233D01*
X-30850856Y-47164417D01*
X-31163000Y-47102328D01*
X-33163000Y-47102328D01*
X-33475144Y-47164417D01*
X-33739767Y-47341233D01*
X-33916583Y-47605856D01*
X-33978672Y-47918000D01*
X-33978672Y-49618000D01*
X-33923309Y-49896328D01*
X-34115000Y-49896328D01*
X-34427144Y-49958417D01*
X-34429248Y-49959823D01*
X-34409417Y-49930144D01*
X-34347328Y-49618000D01*
X-34347328Y-47918000D01*
X-34409417Y-47605856D01*
X-34586233Y-47341233D01*
X-34850856Y-47164417D01*
X-35163000Y-47102328D01*
X-37163000Y-47102328D01*
X-37475144Y-47164417D01*
X-37739767Y-47341233D01*
X-37824470Y-47468000D01*
X-38135467Y-47468000D01*
X-38263500Y-47442533D01*
X-38391533Y-47468000D01*
X-38391537Y-47468000D01*
X-38770735Y-47543427D01*
X-39200747Y-47830753D01*
X-39205808Y-47838328D01*
X-39487000Y-47838328D01*
X-39894815Y-47919447D01*
X-40240544Y-48150456D01*
X-40274456Y-48201208D01*
X-40507204Y-48356726D01*
X-40507206Y-48356728D01*
X-40615747Y-48429253D01*
X-40688273Y-48537795D01*
X-41276477Y-49126000D01*
X-41310701Y-49126000D01*
X-41884802Y-49363801D01*
X-41938000Y-49416999D01*
X-41938000Y-49117299D01*
X-42175801Y-48543198D01*
X-42615198Y-48103801D01*
X-43189299Y-47866000D01*
X-43810701Y-47866000D01*
X-44384802Y-48103801D01*
X-44824199Y-48543198D01*
X-45062000Y-49117299D01*
X-45062000Y-49738701D01*
X-44824199Y-50312802D01*
X-44449001Y-50688000D01*
X-44824199Y-51063198D01*
X-45062000Y-51637299D01*
X-45062000Y-52258701D01*
X-44824199Y-52832802D01*
X-44384802Y-53272199D01*
X-43810701Y-53510000D01*
X-43422924Y-53510000D01*
X-43362001Y-53570923D01*
X-43362001Y-53734353D01*
X-43382570Y-53837761D01*
X-43362001Y-53941169D01*
X-43362001Y-53941173D01*
X-43301079Y-54247449D01*
X-43267751Y-54297328D01*
X-43237999Y-54341855D01*
X-43237999Y-54738029D01*
X-43352523Y-54909427D01*
X-43407077Y-54991073D01*
X-43468000Y-55297349D01*
X-43468000Y-55297354D01*
X-43488569Y-55400762D01*
X-43468000Y-55504170D01*
X-43468000Y-55966057D01*
X-43539550Y-56325762D01*
X-43454177Y-56754960D01*
X-43272424Y-57026972D01*
X-42448189Y-57851208D01*
X-42386818Y-57943056D01*
X-42022961Y-58186177D01*
X-41702101Y-58250000D01*
X-41593762Y-58271550D01*
X-41485423Y-58250000D01*
X-37753839Y-58250000D01*
X-37645500Y-58271550D01*
X-37537161Y-58250000D01*
X-37216301Y-58186177D01*
X-36852444Y-57943056D01*
X-36791072Y-57851206D01*
X-36472538Y-57532672D01*
X-35875000Y-57532672D01*
X-35467185Y-57451553D01*
X-35247105Y-57304500D01*
X-34692000Y-57304500D01*
X-34520767Y-57560767D01*
X-34256144Y-57737583D01*
X-33944000Y-57799672D01*
X-31986846Y-57799672D01*
X-31980177Y-57833198D01*
X-31737056Y-58197056D01*
X-31645206Y-58258428D01*
X-31036427Y-58867208D01*
X-30975056Y-58959056D01*
X-30611199Y-59202177D01*
X-30182000Y-59287550D01*
X-30073661Y-59266000D01*
X-25210339Y-59266000D01*
X-25102000Y-59287550D01*
X-24993661Y-59266000D01*
X-24672801Y-59202177D01*
X-24308944Y-58959056D01*
X-24247572Y-58867206D01*
X-21918366Y-56538000D01*
X-21780766Y-56538000D01*
X-21889583Y-56700856D01*
X-21951672Y-57013000D01*
X-21951672Y-57663000D01*
X-21889583Y-57975144D01*
X-21712767Y-58239767D01*
X-21669832Y-58268455D01*
X-21708177Y-59533000D01*
X-41371488Y-59533000D01*
X-50965443Y-49938200D01*
X-50507226Y-50128000D01*
X-49492774Y-50128000D01*
X-48555541Y-49739785D01*
X-47838215Y-49022459D01*
X-47450000Y-48085226D01*
X-47450000Y-47070774D01*
X-47786662Y-46258000D01*
X-45213033Y-46258000D01*
X-45085000Y-46283467D01*
X-44956967Y-46258000D01*
X-44956963Y-46258000D01*
X-44577765Y-46182573D01*
X-44572403Y-46178990D01*
X-30660217Y-46178990D01*
X-30609942Y-46212583D01*
X-30230744Y-46288010D01*
X-30230740Y-46288010D01*
X-30102707Y-46313477D01*
X-29974674Y-46288010D01*
X-22129043Y-46288010D01*
X-22001010Y-46313477D01*
X-21872977Y-46288010D01*
X-21872973Y-46288010D01*
X-21493775Y-46212583D01*
X-21319416Y-46096080D01*
X-20627487Y-47094054D01*
X-20482333Y-47304985D01*
X-20370880Y-47377269D01*
X-20275339Y-47469581D01*
X-20156025Y-47516616D01*
X-20048429Y-47586399D01*
X-19917791Y-47610531D01*
X-19794203Y-47659251D01*
X-19538098Y-47654849D01*
X-18118570Y-47635422D01*
X-17923815Y-47765553D01*
X-17516000Y-47846672D01*
X-16266000Y-47846672D01*
X-15858185Y-47765553D01*
X-15512456Y-47534544D01*
X-15501736Y-47518500D01*
X-15277962Y-47518500D01*
X-15143144Y-47608583D01*
X-14831000Y-47670672D01*
X-13831000Y-47670672D01*
X-13518856Y-47608583D01*
X-13254233Y-47431767D01*
X-13077417Y-47167144D01*
X-13015328Y-46855000D01*
X-13015328Y-45855000D01*
X-13077417Y-45542856D01*
X-13254233Y-45278233D01*
X-13518856Y-45101417D01*
X-13831000Y-45039328D01*
X-14831000Y-45039328D01*
X-15143144Y-45101417D01*
X-15168710Y-45118500D01*
X-15501736Y-45118500D01*
X-15512456Y-45102456D01*
X-15858185Y-44871447D01*
X-16266000Y-44790328D01*
X-17516000Y-44790328D01*
X-17923815Y-44871447D01*
X-18169908Y-45035881D01*
X-18883917Y-45045653D01*
X-20018000Y-43409957D01*
X-20018000Y-42663334D01*
X-19768000Y-42496289D01*
X-19510144Y-42668583D01*
X-19198000Y-42730672D01*
X-17638000Y-42730672D01*
X-17325856Y-42668583D01*
X-17061233Y-42491767D01*
X-16884417Y-42227144D01*
X-16822328Y-41915000D01*
X-16822328Y-41740000D01*
X-14889634Y-41740000D01*
X-8876426Y-47753209D01*
G36*
X-20368000Y-52953672D02*
X-19168000Y-52953672D01*
X-19089211Y-52938000D01*
X-11257476Y-52938000D01*
X-8765101Y-55430376D01*
X-8700902Y-55530289D01*
X-8584022Y-55611455D01*
X-8575703Y-55619774D01*
X-8478900Y-55684456D01*
X-8276112Y-55825280D01*
X-8264294Y-55827852D01*
X-8254235Y-55834573D01*
X-8012061Y-55882744D01*
X-7898327Y-55907495D01*
X-7886566Y-55907706D01*
X-7864978Y-55912000D01*
X-10604366Y-55912000D01*
X-10829572Y-55686794D01*
X-10890944Y-55594944D01*
X-11254801Y-55351823D01*
X-11575661Y-55288000D01*
X-11684000Y-55266450D01*
X-11792339Y-55288000D01*
X-16671527Y-55288000D01*
X-16876000Y-55247328D01*
X-18436000Y-55247328D01*
X-18748144Y-55309417D01*
X-18760328Y-55317558D01*
X-18760328Y-55113000D01*
X-18822417Y-54800856D01*
X-18999233Y-54536233D01*
X-19263856Y-54359417D01*
X-19576000Y-54297328D01*
X-21136000Y-54297328D01*
X-21340473Y-54338000D01*
X-21975523Y-54338000D01*
X-20575522Y-52938000D01*
X-20446789Y-52938000D01*
X-20368000Y-52953672D01*
X-20368000Y-52953672D01*
G37*
X-20368000Y-52953672D02*
X-19168000Y-52953672D01*
X-19089211Y-52938000D01*
X-11257476Y-52938000D01*
X-8765101Y-55430376D01*
X-8700902Y-55530289D01*
X-8584022Y-55611455D01*
X-8575703Y-55619774D01*
X-8478900Y-55684456D01*
X-8276112Y-55825280D01*
X-8264294Y-55827852D01*
X-8254235Y-55834573D01*
X-8012061Y-55882744D01*
X-7898327Y-55907495D01*
X-7886566Y-55907706D01*
X-7864978Y-55912000D01*
X-10604366Y-55912000D01*
X-10829572Y-55686794D01*
X-10890944Y-55594944D01*
X-11254801Y-55351823D01*
X-11575661Y-55288000D01*
X-11684000Y-55266450D01*
X-11792339Y-55288000D01*
X-16671527Y-55288000D01*
X-16876000Y-55247328D01*
X-18436000Y-55247328D01*
X-18748144Y-55309417D01*
X-18760328Y-55317558D01*
X-18760328Y-55113000D01*
X-18822417Y-54800856D01*
X-18999233Y-54536233D01*
X-19263856Y-54359417D01*
X-19576000Y-54297328D01*
X-21136000Y-54297328D01*
X-21340473Y-54338000D01*
X-21975523Y-54338000D01*
X-20575522Y-52938000D01*
X-20446789Y-52938000D01*
X-20368000Y-52953672D01*
G36*
X-44578703Y-30251774D02*
X-44578700Y-30251776D01*
X-44326766Y-30503710D01*
X-44254237Y-30612257D01*
X-43824225Y-30899583D01*
X-43445027Y-30975010D01*
X-43445023Y-30975010D01*
X-43316990Y-31000477D01*
X-43188957Y-30975010D01*
X-24642172Y-30975010D01*
X-24642172Y-30978000D01*
X-24561053Y-31385815D01*
X-24330044Y-31731544D01*
X-23984315Y-31962553D01*
X-23576500Y-32043672D01*
X-22651500Y-32043672D01*
X-22243685Y-31962553D01*
X-21897956Y-31731544D01*
X-21666947Y-31385815D01*
X-21585828Y-30978000D01*
X-21585828Y-30151462D01*
X-20494447Y-29060082D01*
X-20473819Y-29055979D01*
X-20411999Y-29014672D01*
X-20084000Y-29014672D01*
X-19771856Y-28952583D01*
X-19514000Y-28780289D01*
X-19256144Y-28952583D01*
X-18944000Y-29014672D01*
X-17384000Y-29014672D01*
X-17071856Y-28952583D01*
X-16807233Y-28775767D01*
X-16630417Y-28511144D01*
X-16568328Y-28199000D01*
X-16568328Y-28024000D01*
X-14713634Y-28024000D01*
X-5951306Y-36786328D01*
X-5972325Y-36892000D01*
X-5844266Y-37535798D01*
X-5479583Y-38081583D01*
X-5359231Y-38162000D01*
X-5479583Y-38242417D01*
X-5844266Y-38788202D01*
X-5972325Y-39432000D01*
X-5844266Y-40075798D01*
X-5479583Y-40621583D01*
X-5404129Y-40672000D01*
X-5495523Y-40672000D01*
X-12198224Y-33969300D01*
X-12270753Y-33860753D01*
X-12700765Y-33573427D01*
X-13079963Y-33498000D01*
X-13079967Y-33498000D01*
X-13208000Y-33472533D01*
X-13336033Y-33498000D01*
X-22731967Y-33498000D01*
X-22860000Y-33472533D01*
X-22988033Y-33498000D01*
X-22988037Y-33498000D01*
X-23367235Y-33573427D01*
X-23797247Y-33860753D01*
X-23869774Y-33969298D01*
X-25026804Y-35126328D01*
X-25850000Y-35126328D01*
X-26162144Y-35188417D01*
X-26293221Y-35276000D01*
X-26945530Y-35276000D01*
X-27030233Y-35149233D01*
X-27294856Y-34972417D01*
X-27607000Y-34910328D01*
X-29507000Y-34910328D01*
X-29507000Y-34811339D01*
X-29485450Y-34703000D01*
X-29570823Y-34273801D01*
X-29671050Y-34123801D01*
X-29813944Y-33909944D01*
X-29839328Y-33892983D01*
X-29839328Y-32805000D01*
X-29901417Y-32492856D01*
X-30078233Y-32228233D01*
X-30342856Y-32051417D01*
X-30655000Y-31989328D01*
X-32655000Y-31989328D01*
X-32967144Y-32051417D01*
X-33231767Y-32228233D01*
X-33408583Y-32492856D01*
X-33470672Y-32805000D01*
X-33470672Y-34505000D01*
X-33408583Y-34817144D01*
X-33346319Y-34910328D01*
X-33607000Y-34910328D01*
X-33919144Y-34972417D01*
X-34074552Y-35076257D01*
X-33901417Y-34817144D01*
X-33839328Y-34505000D01*
X-33839328Y-32805000D01*
X-33901417Y-32492856D01*
X-34078233Y-32228233D01*
X-34342856Y-32051417D01*
X-34655000Y-31989328D01*
X-36655000Y-31989328D01*
X-36967144Y-32051417D01*
X-37231767Y-32228233D01*
X-37316470Y-32355000D01*
X-37373469Y-32355000D01*
X-37501501Y-32329533D01*
X-37629532Y-32355000D01*
X-37629537Y-32355000D01*
X-38008735Y-32430427D01*
X-38162919Y-32533450D01*
X-38330204Y-32645226D01*
X-38330206Y-32645228D01*
X-38438747Y-32717753D01*
X-38511273Y-32826295D01*
X-38918305Y-33233328D01*
X-39233000Y-33233328D01*
X-39640815Y-33314447D01*
X-39860895Y-33461500D01*
X-40185467Y-33461500D01*
X-40313500Y-33436033D01*
X-40441533Y-33461500D01*
X-40441537Y-33461500D01*
X-40820735Y-33536927D01*
X-41250747Y-33824253D01*
X-41292005Y-33886000D01*
X-41310701Y-33886000D01*
X-41884802Y-34123801D01*
X-41938000Y-34176999D01*
X-41938000Y-33877299D01*
X-42175801Y-33303198D01*
X-42615198Y-32863801D01*
X-43189299Y-32626000D01*
X-43810701Y-32626000D01*
X-44384802Y-32863801D01*
X-44824199Y-33303198D01*
X-45062000Y-33877299D01*
X-45062000Y-34498701D01*
X-44824199Y-35072802D01*
X-44449001Y-35448000D01*
X-44824199Y-35823198D01*
X-45062000Y-36397299D01*
X-45062000Y-37018701D01*
X-44824199Y-37592802D01*
X-44384802Y-38032199D01*
X-43810701Y-38270000D01*
X-43422924Y-38270000D01*
X-43362001Y-38330923D01*
X-43362001Y-38494353D01*
X-43382570Y-38597761D01*
X-43362001Y-38701169D01*
X-43362001Y-38701173D01*
X-43301079Y-39007449D01*
X-43239403Y-39099754D01*
X-43237999Y-39101855D01*
X-43237999Y-39413987D01*
X-43302006Y-39456755D01*
X-43360582Y-39544420D01*
X-43360586Y-39544424D01*
X-43457856Y-39690000D01*
X-43534077Y-39804073D01*
X-43595000Y-40110349D01*
X-43595000Y-40110354D01*
X-43615569Y-40213762D01*
X-43595000Y-40317170D01*
X-43595000Y-40781354D01*
X-43615569Y-40884762D01*
X-43595000Y-40988170D01*
X-43595000Y-40988174D01*
X-43534078Y-41294450D01*
X-43503434Y-41340312D01*
X-43368826Y-41541767D01*
X-43302007Y-41641769D01*
X-43214339Y-41700347D01*
X-42367194Y-42547493D01*
X-42308618Y-42635158D01*
X-42220953Y-42693734D01*
X-42220950Y-42693737D01*
X-41961302Y-42867228D01*
X-41961301Y-42867228D01*
X-41961300Y-42867229D01*
X-41655024Y-42928151D01*
X-41655020Y-42928151D01*
X-41551612Y-42948720D01*
X-41448204Y-42928151D01*
X-40477797Y-42928151D01*
X-40374389Y-42948720D01*
X-40270981Y-42928151D01*
X-40270976Y-42928151D01*
X-39964700Y-42867229D01*
X-39938917Y-42850001D01*
X-39545840Y-42850001D01*
X-39437501Y-42871551D01*
X-39329162Y-42850001D01*
X-39008302Y-42786178D01*
X-38644445Y-42543057D01*
X-38583073Y-42451207D01*
X-37394025Y-41262160D01*
X-37125000Y-41315672D01*
X-36527463Y-41315672D01*
X-36501927Y-41341208D01*
X-36440556Y-41433056D01*
X-36187982Y-41601820D01*
X-36076699Y-41676177D01*
X-35647501Y-41761550D01*
X-35539162Y-41740000D01*
X-33947944Y-41740000D01*
X-33935583Y-41802144D01*
X-33758767Y-42066767D01*
X-33494144Y-42243583D01*
X-33182000Y-42305672D01*
X-31182000Y-42305672D01*
X-31007953Y-42271052D01*
X-30927206Y-42325005D01*
X-30461004Y-42791207D01*
X-30399632Y-42883057D01*
X-30082098Y-43095226D01*
X-30035775Y-43126178D01*
X-29606576Y-43211551D01*
X-29498237Y-43190001D01*
X-26120692Y-43190001D01*
X-26012353Y-43211551D01*
X-25904014Y-43190001D01*
X-25583154Y-43126178D01*
X-25219297Y-42883057D01*
X-25157925Y-42791207D01*
X-23156717Y-40790000D01*
X-22542766Y-40790000D01*
X-22651583Y-40952856D01*
X-22713672Y-41265000D01*
X-22713672Y-41915000D01*
X-22651583Y-42227144D01*
X-22474767Y-42491767D01*
X-22218000Y-42663334D01*
X-22218000Y-43366523D01*
X-22539486Y-43688010D01*
X-29654217Y-43688010D01*
X-29704492Y-43654417D01*
X-30083690Y-43578990D01*
X-30083694Y-43578990D01*
X-30211727Y-43553523D01*
X-30339760Y-43578990D01*
X-44877958Y-43578990D01*
X-45005991Y-43553523D01*
X-45134023Y-43578990D01*
X-45134027Y-43578990D01*
X-45513225Y-43654417D01*
X-45518587Y-43658000D01*
X-47786662Y-43658000D01*
X-47450000Y-42845226D01*
X-47450000Y-41830774D01*
X-47838215Y-40893541D01*
X-48555541Y-40176215D01*
X-49492774Y-39788000D01*
X-50507226Y-39788000D01*
X-51444459Y-40176215D01*
X-51950000Y-40681756D01*
X-51950000Y-33994244D01*
X-51444459Y-34499785D01*
X-50507226Y-34888000D01*
X-49492774Y-34888000D01*
X-48555541Y-34499785D01*
X-47838215Y-33782459D01*
X-47450000Y-32845226D01*
X-47450000Y-31830774D01*
X-47838215Y-30893541D01*
X-48555541Y-30176215D01*
X-49048559Y-29972000D01*
X-48555541Y-29767785D01*
X-47838215Y-29050459D01*
X-47450000Y-28113226D01*
X-47450000Y-27380477D01*
X-44578703Y-30251774D01*
X-44578703Y-30251774D01*
G37*
X-44578703Y-30251774D02*
X-44578700Y-30251776D01*
X-44326766Y-30503710D01*
X-44254237Y-30612257D01*
X-43824225Y-30899583D01*
X-43445027Y-30975010D01*
X-43445023Y-30975010D01*
X-43316990Y-31000477D01*
X-43188957Y-30975010D01*
X-24642172Y-30975010D01*
X-24642172Y-30978000D01*
X-24561053Y-31385815D01*
X-24330044Y-31731544D01*
X-23984315Y-31962553D01*
X-23576500Y-32043672D01*
X-22651500Y-32043672D01*
X-22243685Y-31962553D01*
X-21897956Y-31731544D01*
X-21666947Y-31385815D01*
X-21585828Y-30978000D01*
X-21585828Y-30151462D01*
X-20494447Y-29060082D01*
X-20473819Y-29055979D01*
X-20411999Y-29014672D01*
X-20084000Y-29014672D01*
X-19771856Y-28952583D01*
X-19514000Y-28780289D01*
X-19256144Y-28952583D01*
X-18944000Y-29014672D01*
X-17384000Y-29014672D01*
X-17071856Y-28952583D01*
X-16807233Y-28775767D01*
X-16630417Y-28511144D01*
X-16568328Y-28199000D01*
X-16568328Y-28024000D01*
X-14713634Y-28024000D01*
X-5951306Y-36786328D01*
X-5972325Y-36892000D01*
X-5844266Y-37535798D01*
X-5479583Y-38081583D01*
X-5359231Y-38162000D01*
X-5479583Y-38242417D01*
X-5844266Y-38788202D01*
X-5972325Y-39432000D01*
X-5844266Y-40075798D01*
X-5479583Y-40621583D01*
X-5404129Y-40672000D01*
X-5495523Y-40672000D01*
X-12198224Y-33969300D01*
X-12270753Y-33860753D01*
X-12700765Y-33573427D01*
X-13079963Y-33498000D01*
X-13079967Y-33498000D01*
X-13208000Y-33472533D01*
X-13336033Y-33498000D01*
X-22731967Y-33498000D01*
X-22860000Y-33472533D01*
X-22988033Y-33498000D01*
X-22988037Y-33498000D01*
X-23367235Y-33573427D01*
X-23797247Y-33860753D01*
X-23869774Y-33969298D01*
X-25026804Y-35126328D01*
X-25850000Y-35126328D01*
X-26162144Y-35188417D01*
X-26293221Y-35276000D01*
X-26945530Y-35276000D01*
X-27030233Y-35149233D01*
X-27294856Y-34972417D01*
X-27607000Y-34910328D01*
X-29507000Y-34910328D01*
X-29507000Y-34811339D01*
X-29485450Y-34703000D01*
X-29570823Y-34273801D01*
X-29671050Y-34123801D01*
X-29813944Y-33909944D01*
X-29839328Y-33892983D01*
X-29839328Y-32805000D01*
X-29901417Y-32492856D01*
X-30078233Y-32228233D01*
X-30342856Y-32051417D01*
X-30655000Y-31989328D01*
X-32655000Y-31989328D01*
X-32967144Y-32051417D01*
X-33231767Y-32228233D01*
X-33408583Y-32492856D01*
X-33470672Y-32805000D01*
X-33470672Y-34505000D01*
X-33408583Y-34817144D01*
X-33346319Y-34910328D01*
X-33607000Y-34910328D01*
X-33919144Y-34972417D01*
X-34074552Y-35076257D01*
X-33901417Y-34817144D01*
X-33839328Y-34505000D01*
X-33839328Y-32805000D01*
X-33901417Y-32492856D01*
X-34078233Y-32228233D01*
X-34342856Y-32051417D01*
X-34655000Y-31989328D01*
X-36655000Y-31989328D01*
X-36967144Y-32051417D01*
X-37231767Y-32228233D01*
X-37316470Y-32355000D01*
X-37373469Y-32355000D01*
X-37501501Y-32329533D01*
X-37629532Y-32355000D01*
X-37629537Y-32355000D01*
X-38008735Y-32430427D01*
X-38162919Y-32533450D01*
X-38330204Y-32645226D01*
X-38330206Y-32645228D01*
X-38438747Y-32717753D01*
X-38511273Y-32826295D01*
X-38918305Y-33233328D01*
X-39233000Y-33233328D01*
X-39640815Y-33314447D01*
X-39860895Y-33461500D01*
X-40185467Y-33461500D01*
X-40313500Y-33436033D01*
X-40441533Y-33461500D01*
X-40441537Y-33461500D01*
X-40820735Y-33536927D01*
X-41250747Y-33824253D01*
X-41292005Y-33886000D01*
X-41310701Y-33886000D01*
X-41884802Y-34123801D01*
X-41938000Y-34176999D01*
X-41938000Y-33877299D01*
X-42175801Y-33303198D01*
X-42615198Y-32863801D01*
X-43189299Y-32626000D01*
X-43810701Y-32626000D01*
X-44384802Y-32863801D01*
X-44824199Y-33303198D01*
X-45062000Y-33877299D01*
X-45062000Y-34498701D01*
X-44824199Y-35072802D01*
X-44449001Y-35448000D01*
X-44824199Y-35823198D01*
X-45062000Y-36397299D01*
X-45062000Y-37018701D01*
X-44824199Y-37592802D01*
X-44384802Y-38032199D01*
X-43810701Y-38270000D01*
X-43422924Y-38270000D01*
X-43362001Y-38330923D01*
X-43362001Y-38494353D01*
X-43382570Y-38597761D01*
X-43362001Y-38701169D01*
X-43362001Y-38701173D01*
X-43301079Y-39007449D01*
X-43239403Y-39099754D01*
X-43237999Y-39101855D01*
X-43237999Y-39413987D01*
X-43302006Y-39456755D01*
X-43360582Y-39544420D01*
X-43360586Y-39544424D01*
X-43457856Y-39690000D01*
X-43534077Y-39804073D01*
X-43595000Y-40110349D01*
X-43595000Y-40110354D01*
X-43615569Y-40213762D01*
X-43595000Y-40317170D01*
X-43595000Y-40781354D01*
X-43615569Y-40884762D01*
X-43595000Y-40988170D01*
X-43595000Y-40988174D01*
X-43534078Y-41294450D01*
X-43503434Y-41340312D01*
X-43368826Y-41541767D01*
X-43302007Y-41641769D01*
X-43214339Y-41700347D01*
X-42367194Y-42547493D01*
X-42308618Y-42635158D01*
X-42220953Y-42693734D01*
X-42220950Y-42693737D01*
X-41961302Y-42867228D01*
X-41961301Y-42867228D01*
X-41961300Y-42867229D01*
X-41655024Y-42928151D01*
X-41655020Y-42928151D01*
X-41551612Y-42948720D01*
X-41448204Y-42928151D01*
X-40477797Y-42928151D01*
X-40374389Y-42948720D01*
X-40270981Y-42928151D01*
X-40270976Y-42928151D01*
X-39964700Y-42867229D01*
X-39938917Y-42850001D01*
X-39545840Y-42850001D01*
X-39437501Y-42871551D01*
X-39329162Y-42850001D01*
X-39008302Y-42786178D01*
X-38644445Y-42543057D01*
X-38583073Y-42451207D01*
X-37394025Y-41262160D01*
X-37125000Y-41315672D01*
X-36527463Y-41315672D01*
X-36501927Y-41341208D01*
X-36440556Y-41433056D01*
X-36187982Y-41601820D01*
X-36076699Y-41676177D01*
X-35647501Y-41761550D01*
X-35539162Y-41740000D01*
X-33947944Y-41740000D01*
X-33935583Y-41802144D01*
X-33758767Y-42066767D01*
X-33494144Y-42243583D01*
X-33182000Y-42305672D01*
X-31182000Y-42305672D01*
X-31007953Y-42271052D01*
X-30927206Y-42325005D01*
X-30461004Y-42791207D01*
X-30399632Y-42883057D01*
X-30082098Y-43095226D01*
X-30035775Y-43126178D01*
X-29606576Y-43211551D01*
X-29498237Y-43190001D01*
X-26120692Y-43190001D01*
X-26012353Y-43211551D01*
X-25904014Y-43190001D01*
X-25583154Y-43126178D01*
X-25219297Y-42883057D01*
X-25157925Y-42791207D01*
X-23156717Y-40790000D01*
X-22542766Y-40790000D01*
X-22651583Y-40952856D01*
X-22713672Y-41265000D01*
X-22713672Y-41915000D01*
X-22651583Y-42227144D01*
X-22474767Y-42491767D01*
X-22218000Y-42663334D01*
X-22218000Y-43366523D01*
X-22539486Y-43688010D01*
X-29654217Y-43688010D01*
X-29704492Y-43654417D01*
X-30083690Y-43578990D01*
X-30083694Y-43578990D01*
X-30211727Y-43553523D01*
X-30339760Y-43578990D01*
X-44877958Y-43578990D01*
X-45005991Y-43553523D01*
X-45134023Y-43578990D01*
X-45134027Y-43578990D01*
X-45513225Y-43654417D01*
X-45518587Y-43658000D01*
X-47786662Y-43658000D01*
X-47450000Y-42845226D01*
X-47450000Y-41830774D01*
X-47838215Y-40893541D01*
X-48555541Y-40176215D01*
X-49492774Y-39788000D01*
X-50507226Y-39788000D01*
X-51444459Y-40176215D01*
X-51950000Y-40681756D01*
X-51950000Y-33994244D01*
X-51444459Y-34499785D01*
X-50507226Y-34888000D01*
X-49492774Y-34888000D01*
X-48555541Y-34499785D01*
X-47838215Y-33782459D01*
X-47450000Y-32845226D01*
X-47450000Y-31830774D01*
X-47838215Y-30893541D01*
X-48555541Y-30176215D01*
X-49048559Y-29972000D01*
X-48555541Y-29767785D01*
X-47838215Y-29050459D01*
X-47450000Y-28113226D01*
X-47450000Y-27380477D01*
X-44578703Y-30251774D01*
G36*
X-17786827Y-37720436D02*
X-17781037Y-37721588D01*
X-17658761Y-37721588D01*
X-17536659Y-37722686D01*
X-17530867Y-37721588D01*
X-17075888Y-37721588D01*
X-15257477Y-39540000D01*
X-17433527Y-39540000D01*
X-17638000Y-39499328D01*
X-19198000Y-39499328D01*
X-19510144Y-39561417D01*
X-19522328Y-39569558D01*
X-19522328Y-39365000D01*
X-19584417Y-39052856D01*
X-19761233Y-38788233D01*
X-20025856Y-38611417D01*
X-20338000Y-38549328D01*
X-21898000Y-38549328D01*
X-22102473Y-38590000D01*
X-22229523Y-38590000D01*
X-21337523Y-37698000D01*
X-20281832Y-37698000D01*
X-17786827Y-37720436D01*
X-17786827Y-37720436D01*
G37*
X-17786827Y-37720436D02*
X-17781037Y-37721588D01*
X-17658761Y-37721588D01*
X-17536659Y-37722686D01*
X-17530867Y-37721588D01*
X-17075888Y-37721588D01*
X-15257477Y-39540000D01*
X-17433527Y-39540000D01*
X-17638000Y-39499328D01*
X-19198000Y-39499328D01*
X-19510144Y-39561417D01*
X-19522328Y-39569558D01*
X-19522328Y-39365000D01*
X-19584417Y-39052856D01*
X-19761233Y-38788233D01*
X-20025856Y-38611417D01*
X-20338000Y-38549328D01*
X-21898000Y-38549328D01*
X-22102473Y-38590000D01*
X-22229523Y-38590000D01*
X-21337523Y-37698000D01*
X-20281832Y-37698000D01*
X-17786827Y-37720436D01*
G36*
X-47927131Y-11209775D02*
X-42433203Y-16703703D01*
X-42360676Y-16812247D01*
X-41930664Y-17099573D01*
X-41551466Y-17175000D01*
X-41551462Y-17175000D01*
X-41423429Y-17200467D01*
X-41295396Y-17175000D01*
X-22568025Y-17175000D01*
X-22515544Y-17253544D01*
X-22169815Y-17484553D01*
X-21762000Y-17565672D01*
X-20837000Y-17565672D01*
X-20429185Y-17484553D01*
X-20083456Y-17253544D01*
X-19852447Y-16907815D01*
X-19771328Y-16500000D01*
X-19771328Y-15250000D01*
X-19840850Y-14900485D01*
X-19223037Y-14282672D01*
X-18858000Y-14282672D01*
X-18545856Y-14220583D01*
X-18288000Y-14048289D01*
X-18030144Y-14220583D01*
X-17718000Y-14282672D01*
X-16158000Y-14282672D01*
X-15845856Y-14220583D01*
X-15581233Y-14043767D01*
X-15468883Y-13875624D01*
X-6297917Y-22063414D01*
X-6254056Y-22129056D01*
X-6136150Y-22207838D01*
X-6112773Y-22228709D01*
X-6046254Y-22267905D01*
X-5890199Y-22372177D01*
X-5858639Y-22378455D01*
X-5830918Y-22394789D01*
X-5772644Y-22402988D01*
X-5479583Y-22841583D01*
X-5359231Y-22922000D01*
X-5479583Y-23002417D01*
X-5844266Y-23548202D01*
X-5972325Y-24192000D01*
X-5844266Y-24835798D01*
X-5479583Y-25381583D01*
X-5359231Y-25462000D01*
X-5479583Y-25542417D01*
X-5844266Y-26088202D01*
X-5972325Y-26732000D01*
X-5844266Y-27375798D01*
X-5479583Y-27921583D01*
X-4933798Y-28286266D01*
X-4452509Y-28382000D01*
X-4127491Y-28382000D01*
X-3646202Y-28286266D01*
X-3100417Y-27921583D01*
X-3020000Y-27801231D01*
X-2939583Y-27921583D01*
X-2819231Y-28002000D01*
X-2939583Y-28082417D01*
X-3304266Y-28628202D01*
X-3432325Y-29272000D01*
X-3304266Y-29915798D01*
X-2939583Y-30461583D01*
X-2819231Y-30542000D01*
X-2939583Y-30622417D01*
X-3020000Y-30742769D01*
X-3100417Y-30622417D01*
X-3646202Y-30257734D01*
X-4127491Y-30162000D01*
X-4452509Y-30162000D01*
X-4933798Y-30257734D01*
X-5194556Y-30431967D01*
X-15627224Y-19999300D01*
X-15699753Y-19890753D01*
X-16129765Y-19603427D01*
X-16508963Y-19528000D01*
X-16508967Y-19528000D01*
X-16637000Y-19502533D01*
X-16765033Y-19528000D01*
X-23427969Y-19528000D01*
X-23556001Y-19502533D01*
X-23684032Y-19528000D01*
X-23684037Y-19528000D01*
X-24063235Y-19603427D01*
X-24265240Y-19738403D01*
X-24384704Y-19818226D01*
X-24384706Y-19818228D01*
X-24493247Y-19890753D01*
X-24565773Y-19999295D01*
X-25778804Y-21212328D01*
X-25956000Y-21212328D01*
X-26268144Y-21274417D01*
X-26532767Y-21451233D01*
X-26605443Y-21560000D01*
X-26818530Y-21560000D01*
X-26903233Y-21433233D01*
X-27167856Y-21256417D01*
X-27480000Y-21194328D01*
X-29380000Y-21194328D01*
X-29380000Y-21190339D01*
X-29358450Y-21082000D01*
X-29408974Y-20828000D01*
X-29443823Y-20652801D01*
X-29458328Y-20631093D01*
X-29458328Y-19089000D01*
X-29520417Y-18776856D01*
X-29697233Y-18512233D01*
X-29961856Y-18335417D01*
X-30274000Y-18273328D01*
X-32274000Y-18273328D01*
X-32586144Y-18335417D01*
X-32850767Y-18512233D01*
X-33027583Y-18776856D01*
X-33089672Y-19089000D01*
X-33089672Y-20789000D01*
X-33027583Y-21101144D01*
X-32965319Y-21194328D01*
X-33480000Y-21194328D01*
X-33598420Y-21217883D01*
X-33520417Y-21101144D01*
X-33458328Y-20789000D01*
X-33458328Y-19089000D01*
X-33520417Y-18776856D01*
X-33697233Y-18512233D01*
X-33961856Y-18335417D01*
X-34274000Y-18273328D01*
X-36274000Y-18273328D01*
X-36586144Y-18335417D01*
X-36850767Y-18512233D01*
X-37002288Y-18739000D01*
X-38000688Y-18739000D01*
X-38350717Y-18808625D01*
X-38651091Y-19009328D01*
X-39106000Y-19009328D01*
X-39513815Y-19090447D01*
X-39859544Y-19321456D01*
X-39870264Y-19337500D01*
X-40246292Y-19337500D01*
X-40689299Y-19154000D01*
X-41310701Y-19154000D01*
X-41884802Y-19391801D01*
X-41938000Y-19444999D01*
X-41938000Y-19145299D01*
X-42175801Y-18571198D01*
X-42615198Y-18131801D01*
X-43189299Y-17894000D01*
X-43810701Y-17894000D01*
X-44384802Y-18131801D01*
X-44824199Y-18571198D01*
X-45062000Y-19145299D01*
X-45062000Y-19766701D01*
X-44824199Y-20340802D01*
X-44449001Y-20716000D01*
X-44824199Y-21091198D01*
X-45062000Y-21665299D01*
X-45062000Y-22286701D01*
X-44824199Y-22860802D01*
X-44384802Y-23300199D01*
X-43810701Y-23538000D01*
X-43756180Y-23538000D01*
X-43703529Y-23802695D01*
X-43476984Y-24141744D01*
X-43391402Y-24198928D01*
X-43070068Y-24520262D01*
X-43071403Y-24521597D01*
X-43156982Y-24578779D01*
X-43214164Y-24664358D01*
X-43214166Y-24664360D01*
X-43383528Y-24917828D01*
X-43463079Y-25317762D01*
X-43442999Y-25418711D01*
X-43443000Y-26315054D01*
X-43463079Y-26416000D01*
X-43443000Y-26516945D01*
X-43443000Y-26516948D01*
X-43383528Y-26815934D01*
X-43156983Y-27154983D01*
X-43071401Y-27212167D01*
X-42579167Y-27704401D01*
X-42521983Y-27789983D01*
X-42325030Y-27921583D01*
X-42182935Y-28016528D01*
X-41783000Y-28096080D01*
X-41682051Y-28076000D01*
X-40491183Y-28076000D01*
X-40390238Y-28096079D01*
X-40289293Y-28076000D01*
X-40289289Y-28076000D01*
X-39990303Y-28016528D01*
X-39699172Y-27822000D01*
X-39180445Y-27822000D01*
X-39079500Y-27842079D01*
X-38978555Y-27822000D01*
X-38978551Y-27822000D01*
X-38679565Y-27762528D01*
X-38340517Y-27535983D01*
X-38283333Y-27450401D01*
X-37405454Y-26572523D01*
X-36987273Y-26990705D01*
X-36914747Y-27099247D01*
X-36806206Y-27171772D01*
X-36806204Y-27171774D01*
X-36690627Y-27249000D01*
X-36484735Y-27386573D01*
X-36105537Y-27462000D01*
X-36105532Y-27462000D01*
X-35977501Y-27487467D01*
X-35849469Y-27462000D01*
X-33335470Y-27462000D01*
X-33250767Y-27588767D01*
X-32986144Y-27765583D01*
X-32674000Y-27827672D01*
X-30674000Y-27827672D01*
X-30427734Y-27778687D01*
X-30384056Y-27844056D01*
X-30264183Y-27924152D01*
X-29797605Y-28337139D01*
X-29773080Y-28375010D01*
X-42776255Y-28375010D01*
X-42819015Y-28311015D01*
X-42889816Y-28263707D01*
X-48490224Y-22663300D01*
X-48562753Y-22554753D01*
X-48992765Y-22267427D01*
X-49371963Y-22192000D01*
X-49371967Y-22192000D01*
X-49500000Y-22166533D01*
X-49628033Y-22192000D01*
X-51950000Y-22192000D01*
X-51950000Y-19262244D01*
X-51444459Y-19767785D01*
X-50507226Y-20156000D01*
X-49492774Y-20156000D01*
X-48555541Y-19767785D01*
X-47838215Y-19050459D01*
X-47450000Y-18113226D01*
X-47450000Y-17098774D01*
X-47838215Y-16161541D01*
X-48555541Y-15444215D01*
X-49048559Y-15240000D01*
X-48555541Y-15035785D01*
X-47838215Y-14318459D01*
X-47450000Y-13381226D01*
X-47450000Y-12366774D01*
X-47838215Y-11429541D01*
X-48061756Y-11206000D01*
X-47997052Y-11206000D01*
X-47927131Y-11209775D01*
X-47927131Y-11209775D01*
G37*
X-47927131Y-11209775D02*
X-42433203Y-16703703D01*
X-42360676Y-16812247D01*
X-41930664Y-17099573D01*
X-41551466Y-17175000D01*
X-41551462Y-17175000D01*
X-41423429Y-17200467D01*
X-41295396Y-17175000D01*
X-22568025Y-17175000D01*
X-22515544Y-17253544D01*
X-22169815Y-17484553D01*
X-21762000Y-17565672D01*
X-20837000Y-17565672D01*
X-20429185Y-17484553D01*
X-20083456Y-17253544D01*
X-19852447Y-16907815D01*
X-19771328Y-16500000D01*
X-19771328Y-15250000D01*
X-19840850Y-14900485D01*
X-19223037Y-14282672D01*
X-18858000Y-14282672D01*
X-18545856Y-14220583D01*
X-18288000Y-14048289D01*
X-18030144Y-14220583D01*
X-17718000Y-14282672D01*
X-16158000Y-14282672D01*
X-15845856Y-14220583D01*
X-15581233Y-14043767D01*
X-15468883Y-13875624D01*
X-6297917Y-22063414D01*
X-6254056Y-22129056D01*
X-6136150Y-22207838D01*
X-6112773Y-22228709D01*
X-6046254Y-22267905D01*
X-5890199Y-22372177D01*
X-5858639Y-22378455D01*
X-5830918Y-22394789D01*
X-5772644Y-22402988D01*
X-5479583Y-22841583D01*
X-5359231Y-22922000D01*
X-5479583Y-23002417D01*
X-5844266Y-23548202D01*
X-5972325Y-24192000D01*
X-5844266Y-24835798D01*
X-5479583Y-25381583D01*
X-5359231Y-25462000D01*
X-5479583Y-25542417D01*
X-5844266Y-26088202D01*
X-5972325Y-26732000D01*
X-5844266Y-27375798D01*
X-5479583Y-27921583D01*
X-4933798Y-28286266D01*
X-4452509Y-28382000D01*
X-4127491Y-28382000D01*
X-3646202Y-28286266D01*
X-3100417Y-27921583D01*
X-3020000Y-27801231D01*
X-2939583Y-27921583D01*
X-2819231Y-28002000D01*
X-2939583Y-28082417D01*
X-3304266Y-28628202D01*
X-3432325Y-29272000D01*
X-3304266Y-29915798D01*
X-2939583Y-30461583D01*
X-2819231Y-30542000D01*
X-2939583Y-30622417D01*
X-3020000Y-30742769D01*
X-3100417Y-30622417D01*
X-3646202Y-30257734D01*
X-4127491Y-30162000D01*
X-4452509Y-30162000D01*
X-4933798Y-30257734D01*
X-5194556Y-30431967D01*
X-15627224Y-19999300D01*
X-15699753Y-19890753D01*
X-16129765Y-19603427D01*
X-16508963Y-19528000D01*
X-16508967Y-19528000D01*
X-16637000Y-19502533D01*
X-16765033Y-19528000D01*
X-23427969Y-19528000D01*
X-23556001Y-19502533D01*
X-23684032Y-19528000D01*
X-23684037Y-19528000D01*
X-24063235Y-19603427D01*
X-24265240Y-19738403D01*
X-24384704Y-19818226D01*
X-24384706Y-19818228D01*
X-24493247Y-19890753D01*
X-24565773Y-19999295D01*
X-25778804Y-21212328D01*
X-25956000Y-21212328D01*
X-26268144Y-21274417D01*
X-26532767Y-21451233D01*
X-26605443Y-21560000D01*
X-26818530Y-21560000D01*
X-26903233Y-21433233D01*
X-27167856Y-21256417D01*
X-27480000Y-21194328D01*
X-29380000Y-21194328D01*
X-29380000Y-21190339D01*
X-29358450Y-21082000D01*
X-29408974Y-20828000D01*
X-29443823Y-20652801D01*
X-29458328Y-20631093D01*
X-29458328Y-19089000D01*
X-29520417Y-18776856D01*
X-29697233Y-18512233D01*
X-29961856Y-18335417D01*
X-30274000Y-18273328D01*
X-32274000Y-18273328D01*
X-32586144Y-18335417D01*
X-32850767Y-18512233D01*
X-33027583Y-18776856D01*
X-33089672Y-19089000D01*
X-33089672Y-20789000D01*
X-33027583Y-21101144D01*
X-32965319Y-21194328D01*
X-33480000Y-21194328D01*
X-33598420Y-21217883D01*
X-33520417Y-21101144D01*
X-33458328Y-20789000D01*
X-33458328Y-19089000D01*
X-33520417Y-18776856D01*
X-33697233Y-18512233D01*
X-33961856Y-18335417D01*
X-34274000Y-18273328D01*
X-36274000Y-18273328D01*
X-36586144Y-18335417D01*
X-36850767Y-18512233D01*
X-37002288Y-18739000D01*
X-38000688Y-18739000D01*
X-38350717Y-18808625D01*
X-38651091Y-19009328D01*
X-39106000Y-19009328D01*
X-39513815Y-19090447D01*
X-39859544Y-19321456D01*
X-39870264Y-19337500D01*
X-40246292Y-19337500D01*
X-40689299Y-19154000D01*
X-41310701Y-19154000D01*
X-41884802Y-19391801D01*
X-41938000Y-19444999D01*
X-41938000Y-19145299D01*
X-42175801Y-18571198D01*
X-42615198Y-18131801D01*
X-43189299Y-17894000D01*
X-43810701Y-17894000D01*
X-44384802Y-18131801D01*
X-44824199Y-18571198D01*
X-45062000Y-19145299D01*
X-45062000Y-19766701D01*
X-44824199Y-20340802D01*
X-44449001Y-20716000D01*
X-44824199Y-21091198D01*
X-45062000Y-21665299D01*
X-45062000Y-22286701D01*
X-44824199Y-22860802D01*
X-44384802Y-23300199D01*
X-43810701Y-23538000D01*
X-43756180Y-23538000D01*
X-43703529Y-23802695D01*
X-43476984Y-24141744D01*
X-43391402Y-24198928D01*
X-43070068Y-24520262D01*
X-43071403Y-24521597D01*
X-43156982Y-24578779D01*
X-43214164Y-24664358D01*
X-43214166Y-24664360D01*
X-43383528Y-24917828D01*
X-43463079Y-25317762D01*
X-43442999Y-25418711D01*
X-43443000Y-26315054D01*
X-43463079Y-26416000D01*
X-43443000Y-26516945D01*
X-43443000Y-26516948D01*
X-43383528Y-26815934D01*
X-43156983Y-27154983D01*
X-43071401Y-27212167D01*
X-42579167Y-27704401D01*
X-42521983Y-27789983D01*
X-42325030Y-27921583D01*
X-42182935Y-28016528D01*
X-41783000Y-28096080D01*
X-41682051Y-28076000D01*
X-40491183Y-28076000D01*
X-40390238Y-28096079D01*
X-40289293Y-28076000D01*
X-40289289Y-28076000D01*
X-39990303Y-28016528D01*
X-39699172Y-27822000D01*
X-39180445Y-27822000D01*
X-39079500Y-27842079D01*
X-38978555Y-27822000D01*
X-38978551Y-27822000D01*
X-38679565Y-27762528D01*
X-38340517Y-27535983D01*
X-38283333Y-27450401D01*
X-37405454Y-26572523D01*
X-36987273Y-26990705D01*
X-36914747Y-27099247D01*
X-36806206Y-27171772D01*
X-36806204Y-27171774D01*
X-36690627Y-27249000D01*
X-36484735Y-27386573D01*
X-36105537Y-27462000D01*
X-36105532Y-27462000D01*
X-35977501Y-27487467D01*
X-35849469Y-27462000D01*
X-33335470Y-27462000D01*
X-33250767Y-27588767D01*
X-32986144Y-27765583D01*
X-32674000Y-27827672D01*
X-30674000Y-27827672D01*
X-30427734Y-27778687D01*
X-30384056Y-27844056D01*
X-30264183Y-27924152D01*
X-29797605Y-28337139D01*
X-29773080Y-28375010D01*
X-42776255Y-28375010D01*
X-42819015Y-28311015D01*
X-42889816Y-28263707D01*
X-48490224Y-22663300D01*
X-48562753Y-22554753D01*
X-48992765Y-22267427D01*
X-49371963Y-22192000D01*
X-49371967Y-22192000D01*
X-49500000Y-22166533D01*
X-49628033Y-22192000D01*
X-51950000Y-22192000D01*
X-51950000Y-19262244D01*
X-51444459Y-19767785D01*
X-50507226Y-20156000D01*
X-49492774Y-20156000D01*
X-48555541Y-19767785D01*
X-47838215Y-19050459D01*
X-47450000Y-18113226D01*
X-47450000Y-17098774D01*
X-47838215Y-16161541D01*
X-48555541Y-15444215D01*
X-49048559Y-15240000D01*
X-48555541Y-15035785D01*
X-47838215Y-14318459D01*
X-47450000Y-13381226D01*
X-47450000Y-12366774D01*
X-47838215Y-11429541D01*
X-48061756Y-11206000D01*
X-47997052Y-11206000D01*
X-47927131Y-11209775D01*
G36*
X-15640828Y-25824000D02*
X-17179527Y-25824000D01*
X-17384000Y-25783328D01*
X-18944000Y-25783328D01*
X-19256144Y-25845417D01*
X-19268328Y-25853558D01*
X-19268328Y-25649000D01*
X-19330417Y-25336856D01*
X-19507233Y-25072233D01*
X-19771856Y-24895417D01*
X-20084000Y-24833328D01*
X-21644000Y-24833328D01*
X-21848473Y-24874000D01*
X-22148926Y-24874000D01*
X-22270824Y-24852770D01*
X-22471529Y-24897708D01*
X-22590995Y-24921472D01*
X-21447523Y-23778000D01*
X-17686828Y-23778000D01*
X-15640828Y-25824000D01*
X-15640828Y-25824000D01*
G37*
X-15640828Y-25824000D02*
X-17179527Y-25824000D01*
X-17384000Y-25783328D01*
X-18944000Y-25783328D01*
X-19256144Y-25845417D01*
X-19268328Y-25853558D01*
X-19268328Y-25649000D01*
X-19330417Y-25336856D01*
X-19507233Y-25072233D01*
X-19771856Y-24895417D01*
X-20084000Y-24833328D01*
X-21644000Y-24833328D01*
X-21848473Y-24874000D01*
X-22148926Y-24874000D01*
X-22270824Y-24852770D01*
X-22471529Y-24897708D01*
X-22590995Y-24921472D01*
X-21447523Y-23778000D01*
X-17686828Y-23778000D01*
X-15640828Y-25824000D01*
G36*
X-18336000Y-9519672D02*
X-17136000Y-9519672D01*
X-17057211Y-9504000D01*
X-13196476Y-9504000D01*
X-5960098Y-16740380D01*
X-5915979Y-16962181D01*
X-5885699Y-17007498D01*
X-5844266Y-17215798D01*
X-5479583Y-17761583D01*
X-5359231Y-17842000D01*
X-5479583Y-17922417D01*
X-5844266Y-18468202D01*
X-5972325Y-19112000D01*
X-5901487Y-19468127D01*
X-14866080Y-11464588D01*
X-14909942Y-11398944D01*
X-15027852Y-11320159D01*
X-15051226Y-11299291D01*
X-15117737Y-11260100D01*
X-15273799Y-11155823D01*
X-15305360Y-11149545D01*
X-15333081Y-11133211D01*
X-15518919Y-11107066D01*
X-15594659Y-11092000D01*
X-15626003Y-11092000D01*
X-15766419Y-11072245D01*
X-15842851Y-11092000D01*
X-15953527Y-11092000D01*
X-16158000Y-11051328D01*
X-17718000Y-11051328D01*
X-18030144Y-11113417D01*
X-18042328Y-11121558D01*
X-18042328Y-10917000D01*
X-18104417Y-10604856D01*
X-18281233Y-10340233D01*
X-18545856Y-10163417D01*
X-18858000Y-10101328D01*
X-20418000Y-10101328D01*
X-20622473Y-10142000D01*
X-21467523Y-10142000D01*
X-20829523Y-9504000D01*
X-18414789Y-9504000D01*
X-18336000Y-9519672D01*
X-18336000Y-9519672D01*
G37*
X-18336000Y-9519672D02*
X-17136000Y-9519672D01*
X-17057211Y-9504000D01*
X-13196476Y-9504000D01*
X-5960098Y-16740380D01*
X-5915979Y-16962181D01*
X-5885699Y-17007498D01*
X-5844266Y-17215798D01*
X-5479583Y-17761583D01*
X-5359231Y-17842000D01*
X-5479583Y-17922417D01*
X-5844266Y-18468202D01*
X-5972325Y-19112000D01*
X-5901487Y-19468127D01*
X-14866080Y-11464588D01*
X-14909942Y-11398944D01*
X-15027852Y-11320159D01*
X-15051226Y-11299291D01*
X-15117737Y-11260100D01*
X-15273799Y-11155823D01*
X-15305360Y-11149545D01*
X-15333081Y-11133211D01*
X-15518919Y-11107066D01*
X-15594659Y-11092000D01*
X-15626003Y-11092000D01*
X-15766419Y-11072245D01*
X-15842851Y-11092000D01*
X-15953527Y-11092000D01*
X-16158000Y-11051328D01*
X-17718000Y-11051328D01*
X-18030144Y-11113417D01*
X-18042328Y-11121558D01*
X-18042328Y-10917000D01*
X-18104417Y-10604856D01*
X-18281233Y-10340233D01*
X-18545856Y-10163417D01*
X-18858000Y-10101328D01*
X-20418000Y-10101328D01*
X-20622473Y-10142000D01*
X-21467523Y-10142000D01*
X-20829523Y-9504000D01*
X-18414789Y-9504000D01*
X-18336000Y-9519672D01*
G36*
X-37192544Y-11539544D02*
X-36846815Y-11770553D01*
X-36439000Y-11851672D01*
X-35189000Y-11851672D01*
X-34781185Y-11770553D01*
X-34561105Y-11623500D01*
X-33722976Y-11623500D01*
X-32981672Y-12364805D01*
X-32981672Y-13042000D01*
X-32919583Y-13354144D01*
X-32742767Y-13618767D01*
X-32478144Y-13795583D01*
X-32166000Y-13857672D01*
X-30208846Y-13857672D01*
X-30202177Y-13891198D01*
X-30202176Y-13891199D01*
X-29959055Y-14255056D01*
X-29867208Y-14316426D01*
X-29608634Y-14575000D01*
X-40884952Y-14575000D01*
X-42071424Y-13388528D01*
X-41811689Y-13562078D01*
X-41505413Y-13623000D01*
X-41505408Y-13623000D01*
X-41402000Y-13643569D01*
X-41298592Y-13623000D01*
X-40108408Y-13623000D01*
X-40005000Y-13643569D01*
X-39901592Y-13623000D01*
X-39901587Y-13623000D01*
X-39595311Y-13562078D01*
X-39247993Y-13330007D01*
X-39189415Y-13242339D01*
X-37320575Y-11373500D01*
X-37303491Y-11373500D01*
X-37192544Y-11539544D01*
X-37192544Y-11539544D01*
G37*
X-37192544Y-11539544D02*
X-36846815Y-11770553D01*
X-36439000Y-11851672D01*
X-35189000Y-11851672D01*
X-34781185Y-11770553D01*
X-34561105Y-11623500D01*
X-33722976Y-11623500D01*
X-32981672Y-12364805D01*
X-32981672Y-13042000D01*
X-32919583Y-13354144D01*
X-32742767Y-13618767D01*
X-32478144Y-13795583D01*
X-32166000Y-13857672D01*
X-30208846Y-13857672D01*
X-30202177Y-13891198D01*
X-30202176Y-13891199D01*
X-29959055Y-14255056D01*
X-29867208Y-14316426D01*
X-29608634Y-14575000D01*
X-40884952Y-14575000D01*
X-42071424Y-13388528D01*
X-41811689Y-13562078D01*
X-41505413Y-13623000D01*
X-41505408Y-13623000D01*
X-41402000Y-13643569D01*
X-41298592Y-13623000D01*
X-40108408Y-13623000D01*
X-40005000Y-13643569D01*
X-39901592Y-13623000D01*
X-39901587Y-13623000D01*
X-39595311Y-13562078D01*
X-39247993Y-13330007D01*
X-39189415Y-13242339D01*
X-37320575Y-11373500D01*
X-37303491Y-11373500D01*
X-37192544Y-11539544D01*
G36*
X-42981342Y-12478582D02*
X-42217585Y-13242339D01*
X-42217528Y-13242424D01*
X-42981428Y-12478525D01*
X-42981342Y-12478582D01*
X-42981342Y-12478582D01*
G37*
X-42981342Y-12478582D02*
X-42217585Y-13242339D01*
X-42217528Y-13242424D01*
X-42981428Y-12478525D01*
X-42981342Y-12478582D01*
G36*
X-52161785Y-1429541D02*
X-52550000Y-2366774D01*
X-52550000Y-3381226D01*
X-52161785Y-4318459D01*
X-51444459Y-5035785D01*
X-50507226Y-5424000D01*
X-49492774Y-5424000D01*
X-48555541Y-5035785D01*
X-47838215Y-4318459D01*
X-47450000Y-3381226D01*
X-47450000Y-2366774D01*
X-47838215Y-1429541D01*
X-48400756Y-867000D01*
X-875000Y-867000D01*
X-875000Y-9831301D01*
X-900000Y-9826328D01*
X-2600000Y-9826328D01*
X-2912144Y-9888417D01*
X-3176767Y-10065233D01*
X-3353583Y-10329856D01*
X-3415672Y-10642000D01*
X-3415672Y-12342000D01*
X-3353583Y-12654144D01*
X-3330512Y-12688672D01*
X-3646202Y-12477734D01*
X-4095075Y-12388448D01*
X-10709224Y-5774300D01*
X-10781753Y-5665753D01*
X-11211765Y-5378427D01*
X-11590963Y-5303000D01*
X-11590967Y-5303000D01*
X-11719000Y-5277533D01*
X-11847033Y-5303000D01*
X-13290967Y-5303000D01*
X-13419000Y-5277533D01*
X-13547033Y-5303000D01*
X-29556967Y-5303000D01*
X-29685000Y-5277533D01*
X-29813033Y-5303000D01*
X-29813037Y-5303000D01*
X-30192235Y-5378427D01*
X-30309544Y-5456811D01*
X-30155417Y-5226144D01*
X-30093328Y-4914000D01*
X-30093328Y-3214000D01*
X-30155417Y-2901856D01*
X-30332233Y-2637233D01*
X-30596856Y-2460417D01*
X-30909000Y-2398328D01*
X-32909000Y-2398328D01*
X-33221144Y-2460417D01*
X-33485767Y-2637233D01*
X-33662583Y-2901856D01*
X-33724672Y-3214000D01*
X-33724672Y-4914000D01*
X-33662583Y-5226144D01*
X-33485767Y-5490767D01*
X-33221144Y-5667583D01*
X-33025544Y-5706490D01*
X-33033133Y-6462328D01*
X-34960000Y-6462328D01*
X-35272144Y-6524417D01*
X-35536767Y-6701233D01*
X-35713583Y-6965856D01*
X-35760953Y-7204000D01*
X-40010999Y-7204000D01*
X-39675801Y-6868802D01*
X-39438000Y-6294701D01*
X-39438000Y-6260477D01*
X-39368195Y-6190672D01*
X-38237000Y-6190672D01*
X-37829185Y-6109553D01*
X-37483456Y-5878544D01*
X-37305040Y-5611525D01*
X-37221144Y-5667583D01*
X-36909000Y-5729672D01*
X-34909000Y-5729672D01*
X-34596856Y-5667583D01*
X-34332233Y-5490767D01*
X-34155417Y-5226144D01*
X-34093328Y-4914000D01*
X-34093328Y-3214000D01*
X-34155417Y-2901856D01*
X-34332233Y-2637233D01*
X-34596856Y-2460417D01*
X-34909000Y-2398328D01*
X-36909000Y-2398328D01*
X-37221144Y-2460417D01*
X-37485767Y-2637233D01*
X-37570470Y-2764000D01*
X-38135467Y-2764000D01*
X-38263500Y-2738533D01*
X-38391533Y-2764000D01*
X-38391537Y-2764000D01*
X-38770735Y-2839427D01*
X-39200747Y-3126753D01*
X-39205808Y-3134328D01*
X-39487000Y-3134328D01*
X-39894815Y-3215447D01*
X-40240544Y-3446456D01*
X-40274456Y-3497208D01*
X-40507204Y-3652726D01*
X-40507206Y-3652728D01*
X-40615747Y-3725253D01*
X-40688273Y-3833795D01*
X-41276477Y-4422000D01*
X-41310701Y-4422000D01*
X-41884802Y-4659801D01*
X-41938000Y-4712999D01*
X-41938000Y-4413299D01*
X-42175801Y-3839198D01*
X-42615198Y-3399801D01*
X-43189299Y-3162000D01*
X-43810701Y-3162000D01*
X-44384802Y-3399801D01*
X-44824199Y-3839198D01*
X-45062000Y-4413299D01*
X-45062000Y-5034701D01*
X-44824199Y-5608802D01*
X-44449001Y-5984000D01*
X-44824199Y-6359198D01*
X-45062000Y-6933299D01*
X-45062000Y-7554701D01*
X-44824199Y-8128802D01*
X-44384802Y-8568199D01*
X-43810701Y-8806000D01*
X-43761627Y-8806000D01*
X-43743680Y-8896226D01*
X-43727078Y-8979688D01*
X-43553587Y-9239337D01*
X-43553583Y-9239341D01*
X-43495007Y-9327006D01*
X-43407341Y-9385582D01*
X-43237999Y-9554925D01*
X-43237999Y-10012669D01*
X-43301079Y-10107075D01*
X-43362001Y-10413351D01*
X-43362001Y-10413355D01*
X-43382570Y-10516763D01*
X-43362001Y-10620171D01*
X-43362001Y-11559591D01*
X-43382570Y-11662999D01*
X-43362001Y-11766407D01*
X-43362001Y-11766412D01*
X-43305743Y-12049234D01*
X-43301078Y-12072688D01*
X-43127587Y-12332337D01*
X-43127583Y-12332341D01*
X-43127526Y-12332427D01*
X-46382653Y-9077300D01*
X-46455182Y-8968753D01*
X-46885194Y-8681427D01*
X-47264392Y-8606000D01*
X-47264396Y-8606000D01*
X-47392429Y-8580533D01*
X-47520462Y-8606000D01*
X-47926941Y-8606000D01*
X-50837333Y-8448889D01*
X-51000000Y-8416533D01*
X-51219230Y-8460140D01*
X-51440487Y-8491866D01*
X-51471673Y-8510353D01*
X-51507235Y-8517427D01*
X-51693098Y-8641617D01*
X-51885362Y-8755594D01*
X-51984804Y-8888327D01*
X-54078702Y-10982226D01*
X-54125000Y-11013161D01*
X-54125000Y-867000D01*
X-51599244Y-867000D01*
X-52161785Y-1429541D01*
X-52161785Y-1429541D01*
G37*
X-52161785Y-1429541D02*
X-52550000Y-2366774D01*
X-52550000Y-3381226D01*
X-52161785Y-4318459D01*
X-51444459Y-5035785D01*
X-50507226Y-5424000D01*
X-49492774Y-5424000D01*
X-48555541Y-5035785D01*
X-47838215Y-4318459D01*
X-47450000Y-3381226D01*
X-47450000Y-2366774D01*
X-47838215Y-1429541D01*
X-48400756Y-867000D01*
X-875000Y-867000D01*
X-875000Y-9831301D01*
X-900000Y-9826328D01*
X-2600000Y-9826328D01*
X-2912144Y-9888417D01*
X-3176767Y-10065233D01*
X-3353583Y-10329856D01*
X-3415672Y-10642000D01*
X-3415672Y-12342000D01*
X-3353583Y-12654144D01*
X-3330512Y-12688672D01*
X-3646202Y-12477734D01*
X-4095075Y-12388448D01*
X-10709224Y-5774300D01*
X-10781753Y-5665753D01*
X-11211765Y-5378427D01*
X-11590963Y-5303000D01*
X-11590967Y-5303000D01*
X-11719000Y-5277533D01*
X-11847033Y-5303000D01*
X-13290967Y-5303000D01*
X-13419000Y-5277533D01*
X-13547033Y-5303000D01*
X-29556967Y-5303000D01*
X-29685000Y-5277533D01*
X-29813033Y-5303000D01*
X-29813037Y-5303000D01*
X-30192235Y-5378427D01*
X-30309544Y-5456811D01*
X-30155417Y-5226144D01*
X-30093328Y-4914000D01*
X-30093328Y-3214000D01*
X-30155417Y-2901856D01*
X-30332233Y-2637233D01*
X-30596856Y-2460417D01*
X-30909000Y-2398328D01*
X-32909000Y-2398328D01*
X-33221144Y-2460417D01*
X-33485767Y-2637233D01*
X-33662583Y-2901856D01*
X-33724672Y-3214000D01*
X-33724672Y-4914000D01*
X-33662583Y-5226144D01*
X-33485767Y-5490767D01*
X-33221144Y-5667583D01*
X-33025544Y-5706490D01*
X-33033133Y-6462328D01*
X-34960000Y-6462328D01*
X-35272144Y-6524417D01*
X-35536767Y-6701233D01*
X-35713583Y-6965856D01*
X-35760953Y-7204000D01*
X-40010999Y-7204000D01*
X-39675801Y-6868802D01*
X-39438000Y-6294701D01*
X-39438000Y-6260477D01*
X-39368195Y-6190672D01*
X-38237000Y-6190672D01*
X-37829185Y-6109553D01*
X-37483456Y-5878544D01*
X-37305040Y-5611525D01*
X-37221144Y-5667583D01*
X-36909000Y-5729672D01*
X-34909000Y-5729672D01*
X-34596856Y-5667583D01*
X-34332233Y-5490767D01*
X-34155417Y-5226144D01*
X-34093328Y-4914000D01*
X-34093328Y-3214000D01*
X-34155417Y-2901856D01*
X-34332233Y-2637233D01*
X-34596856Y-2460417D01*
X-34909000Y-2398328D01*
X-36909000Y-2398328D01*
X-37221144Y-2460417D01*
X-37485767Y-2637233D01*
X-37570470Y-2764000D01*
X-38135467Y-2764000D01*
X-38263500Y-2738533D01*
X-38391533Y-2764000D01*
X-38391537Y-2764000D01*
X-38770735Y-2839427D01*
X-39200747Y-3126753D01*
X-39205808Y-3134328D01*
X-39487000Y-3134328D01*
X-39894815Y-3215447D01*
X-40240544Y-3446456D01*
X-40274456Y-3497208D01*
X-40507204Y-3652726D01*
X-40507206Y-3652728D01*
X-40615747Y-3725253D01*
X-40688273Y-3833795D01*
X-41276477Y-4422000D01*
X-41310701Y-4422000D01*
X-41884802Y-4659801D01*
X-41938000Y-4712999D01*
X-41938000Y-4413299D01*
X-42175801Y-3839198D01*
X-42615198Y-3399801D01*
X-43189299Y-3162000D01*
X-43810701Y-3162000D01*
X-44384802Y-3399801D01*
X-44824199Y-3839198D01*
X-45062000Y-4413299D01*
X-45062000Y-5034701D01*
X-44824199Y-5608802D01*
X-44449001Y-5984000D01*
X-44824199Y-6359198D01*
X-45062000Y-6933299D01*
X-45062000Y-7554701D01*
X-44824199Y-8128802D01*
X-44384802Y-8568199D01*
X-43810701Y-8806000D01*
X-43761627Y-8806000D01*
X-43743680Y-8896226D01*
X-43727078Y-8979688D01*
X-43553587Y-9239337D01*
X-43553583Y-9239341D01*
X-43495007Y-9327006D01*
X-43407341Y-9385582D01*
X-43237999Y-9554925D01*
X-43237999Y-10012669D01*
X-43301079Y-10107075D01*
X-43362001Y-10413351D01*
X-43362001Y-10413355D01*
X-43382570Y-10516763D01*
X-43362001Y-10620171D01*
X-43362001Y-11559591D01*
X-43382570Y-11662999D01*
X-43362001Y-11766407D01*
X-43362001Y-11766412D01*
X-43305743Y-12049234D01*
X-43301078Y-12072688D01*
X-43127587Y-12332337D01*
X-43127583Y-12332341D01*
X-43127526Y-12332427D01*
X-46382653Y-9077300D01*
X-46455182Y-8968753D01*
X-46885194Y-8681427D01*
X-47264392Y-8606000D01*
X-47264396Y-8606000D01*
X-47392429Y-8580533D01*
X-47520462Y-8606000D01*
X-47926941Y-8606000D01*
X-50837333Y-8448889D01*
X-51000000Y-8416533D01*
X-51219230Y-8460140D01*
X-51440487Y-8491866D01*
X-51471673Y-8510353D01*
X-51507235Y-8517427D01*
X-51693098Y-8641617D01*
X-51885362Y-8755594D01*
X-51984804Y-8888327D01*
X-54078702Y-10982226D01*
X-54125000Y-11013161D01*
X-54125000Y-867000D01*
X-51599244Y-867000D01*
X-52161785Y-1429541D01*
G04 #@! TD*
M02*
