M48
;DRILL file {KiCad 5.0.2-bee76a0~70~ubuntu18.10.1} date Fri 01 Mar 2019 08:08:45 AM CST
;FORMAT={-:-/ absolute / metric / decimal}
FMAT,2
METRIC,TZ
T1C0.760
T2C1.000
T3C3.250
%
G90
G05
T1
X-31.54Y-7.66
X-31.54Y-10.23
X-29.Y-6.42
X-29.Y-8.93
X-31.54Y-48.16
X-31.54Y-50.73
X-29.Y-46.92
X-29.Y-49.43
X-31.54Y-34.66
X-31.54Y-37.23
X-29.Y-33.42
X-29.Y-35.93
X-31.54Y-21.16
X-31.54Y-23.73
X-29.Y-19.92
X-29.Y-22.43
T2
X-4.5Y-4.74
X-4.5Y-7.28
X-4.5Y-9.82
X-4.5Y-12.36
X-4.5Y-14.9
X-4.5Y-17.44
X-4.5Y-19.98
X-4.5Y-22.52
X-4.5Y-25.06
X-4.5Y-27.6
X-4.5Y-30.14
X-4.5Y-32.68
X-4.5Y-35.22
X-4.5Y-37.76
X-4.5Y-40.3
X-4.5Y-42.84
X-4.5Y-45.38
X-4.5Y-47.92
X-4.5Y-50.46
X-4.5Y-53.
X-1.96Y-4.74
X-1.96Y-7.28
X-1.96Y-9.82
X-1.96Y-12.36
X-1.96Y-14.9
X-1.96Y-17.44
X-1.96Y-19.98
X-1.96Y-22.52
X-1.96Y-25.06
X-1.96Y-27.6
X-1.96Y-30.14
X-1.96Y-32.68
X-1.96Y-35.22
X-1.96Y-37.76
X-1.96Y-40.3
X-1.96Y-42.84
X-1.96Y-45.38
X-1.96Y-47.92
X-1.96Y-50.46
X-1.96Y-53.
T3
X-37.89Y-3.25
X-37.89Y-13.41
X-37.89Y-43.75
X-37.89Y-53.91
X-37.89Y-30.25
X-37.89Y-40.41
X-37.89Y-16.75
X-37.89Y-26.91
T0
M30
