M48
;DRILL file {KiCad (5.0.2-4-gb601aea34)} date Tuesday, January 15, 2019 at 08:03:17 AM
;FORMAT={-:-/ absolute / metric / decimal}
FMAT,2
METRIC,TZ
T1C0.760
T2C1.000
T3C3.250
%
G90
G05
T1
X-43.54Y-52.16
X-43.54Y-54.73
X-41.Y-50.92
X-41.Y-53.43
X-43.54Y-22.16
X-43.54Y-24.73
X-41.Y-20.92
X-41.Y-23.43
X-43.54Y-37.16
X-43.54Y-39.73
X-41.Y-35.92
X-41.Y-38.43
X-43.54Y-7.41
X-43.54Y-9.98
X-41.Y-6.17
X-41.Y-8.68
T2
X-4.29Y-11.5
X-4.29Y-14.04
X-4.29Y-16.58
X-4.29Y-19.12
X-4.29Y-21.66
X-4.29Y-24.2
X-4.29Y-26.74
X-4.29Y-29.28
X-4.29Y-31.82
X-4.29Y-34.36
X-4.29Y-36.9
X-4.29Y-39.44
X-4.29Y-41.98
X-4.29Y-44.52
X-4.29Y-47.06
X-4.29Y-49.6
X-4.29Y-52.14
X-4.29Y-54.68
X-4.29Y-57.22
X-4.29Y-59.76
X-1.75Y-11.5
X-1.75Y-14.04
X-1.75Y-16.58
X-1.75Y-19.12
X-1.75Y-21.66
X-1.75Y-24.2
X-1.75Y-26.74
X-1.75Y-29.28
X-1.75Y-31.82
X-1.75Y-34.36
X-1.75Y-36.9
X-1.75Y-39.44
X-1.75Y-41.98
X-1.75Y-44.52
X-1.75Y-47.06
X-1.75Y-49.6
X-1.75Y-52.14
X-1.75Y-54.68
X-1.75Y-57.22
X-1.75Y-59.76
T3
X-49.89Y-47.75
X-49.89Y-57.91
X-49.89Y-17.75
X-49.89Y-27.91
X-49.89Y-32.75
X-49.89Y-42.91
X-49.89Y-3.
X-49.89Y-13.16
T0
M30
