G04 #@! TF.GenerationSoftware,KiCad,Pcbnew,5.1.5-52549c5~84~ubuntu19.10.1*
G04 #@! TF.CreationDate,2020-01-22T18:54:25-06:00*
G04 #@! TF.ProjectId,PiKwonDoHAT,50694b77-6f6e-4446-9f48-41542e6b6963,rev?*
G04 #@! TF.SameCoordinates,PX6bc3e40PY7b85d38*
G04 #@! TF.FileFunction,Copper,L2,Bot*
G04 #@! TF.FilePolarity,Positive*
%FSLAX46Y46*%
G04 Gerber Fmt 4.6, Leading zero omitted, Abs format (unit mm)*
G04 Created by KiCad (PCBNEW 5.1.5-52549c5~84~ubuntu19.10.1) date 2020-01-22 18:54:25*
%MOMM*%
%LPD*%
G04 APERTURE LIST*
%ADD10R,1.520000X1.520000*%
%ADD11C,1.520000*%
%ADD12R,1.700000X1.700000*%
%ADD13O,1.700000X1.700000*%
%ADD14C,1.000000*%
%ADD15C,0.254000*%
G04 APERTURE END LIST*
D10*
X-31540000Y19793000D03*
D11*
X-29000000Y21093000D03*
X-31540000Y22363000D03*
X-29000000Y23603000D03*
X-29000000Y37103000D03*
X-31540000Y35863000D03*
X-29000000Y34593000D03*
D10*
X-31540000Y33293000D03*
D12*
X-4500000Y4023000D03*
D13*
X-1960000Y4023000D03*
X-4500000Y6563000D03*
X-1960000Y6563000D03*
X-4500000Y9103000D03*
X-1960000Y9103000D03*
X-4500000Y11643000D03*
X-1960000Y11643000D03*
X-4500000Y14183000D03*
X-1960000Y14183000D03*
X-4500000Y16723000D03*
X-1960000Y16723000D03*
X-4500000Y19263000D03*
X-1960000Y19263000D03*
X-4500000Y21803000D03*
X-1960000Y21803000D03*
X-4500000Y24343000D03*
X-1960000Y24343000D03*
X-4500000Y26883000D03*
X-1960000Y26883000D03*
X-4500000Y29423000D03*
X-1960000Y29423000D03*
X-4500000Y31963000D03*
X-1960000Y31963000D03*
X-4500000Y34503000D03*
X-1960000Y34503000D03*
X-4500000Y37043000D03*
X-1960000Y37043000D03*
X-4500000Y39583000D03*
X-1960000Y39583000D03*
X-4500000Y42123000D03*
X-1960000Y42123000D03*
X-4500000Y44663000D03*
X-1960000Y44663000D03*
X-4500000Y47203000D03*
X-1960000Y47203000D03*
X-4500000Y49743000D03*
X-1960000Y49743000D03*
X-4500000Y52283000D03*
X-1960000Y52283000D03*
D11*
X-29000000Y10103000D03*
X-31540000Y8863000D03*
X-29000000Y7593000D03*
D10*
X-31540000Y6293000D03*
X-31540000Y46793000D03*
D11*
X-29000000Y48093000D03*
X-31540000Y49363000D03*
X-29000000Y50603000D03*
D14*
X-11176000Y45212000D03*
X-9779000Y48387000D03*
X-14500000Y10035500D03*
X-11557000Y5461000D03*
X-27512500Y2023000D03*
X-14500000Y37035500D03*
X-11430000Y33020000D03*
X-13969500Y23535500D03*
D15*
G36*
X-521999Y4391347D02*
G01*
X-563175Y4527099D01*
X-688359Y4789920D01*
X-862412Y5023269D01*
X-1078645Y5218178D01*
X-1328748Y5367157D01*
X-1398263Y5391816D01*
X-1345640Y5413613D01*
X-1133210Y5555554D01*
X-952554Y5736210D01*
X-810613Y5948640D01*
X-712843Y6184679D01*
X-663000Y6435257D01*
X-663000Y6690743D01*
X-712843Y6941321D01*
X-810613Y7177360D01*
X-952554Y7389790D01*
X-1133210Y7570446D01*
X-1345640Y7712387D01*
X-1581679Y7810157D01*
X-1696519Y7833000D01*
X-1581679Y7855843D01*
X-1345640Y7953613D01*
X-1133210Y8095554D01*
X-952554Y8276210D01*
X-810613Y8488640D01*
X-712843Y8724679D01*
X-663000Y8975257D01*
X-663000Y9230743D01*
X-712843Y9481321D01*
X-810613Y9717360D01*
X-952554Y9929790D01*
X-1133210Y10110446D01*
X-1345640Y10252387D01*
X-1581679Y10350157D01*
X-1696519Y10373000D01*
X-1581679Y10395843D01*
X-1345640Y10493613D01*
X-1133210Y10635554D01*
X-952554Y10816210D01*
X-810613Y11028640D01*
X-712843Y11264679D01*
X-663000Y11515257D01*
X-663000Y11770743D01*
X-712843Y12021321D01*
X-810613Y12257360D01*
X-952554Y12469790D01*
X-1133210Y12650446D01*
X-1345640Y12792387D01*
X-1581679Y12890157D01*
X-1696519Y12913000D01*
X-1581679Y12935843D01*
X-1345640Y13033613D01*
X-1133210Y13175554D01*
X-952554Y13356210D01*
X-810613Y13568640D01*
X-712843Y13804679D01*
X-663000Y14055257D01*
X-663000Y14310743D01*
X-712843Y14561321D01*
X-810613Y14797360D01*
X-952554Y15009790D01*
X-1133210Y15190446D01*
X-1345640Y15332387D01*
X-1581679Y15430157D01*
X-1696519Y15453000D01*
X-1581679Y15475843D01*
X-1345640Y15573613D01*
X-1133210Y15715554D01*
X-952554Y15896210D01*
X-810613Y16108640D01*
X-712843Y16344679D01*
X-663000Y16595257D01*
X-663000Y16850743D01*
X-712843Y17101321D01*
X-810613Y17337360D01*
X-952554Y17549790D01*
X-1133210Y17730446D01*
X-1345640Y17872387D01*
X-1581679Y17970157D01*
X-1696519Y17993000D01*
X-1581679Y18015843D01*
X-1345640Y18113613D01*
X-1133210Y18255554D01*
X-952554Y18436210D01*
X-810613Y18648640D01*
X-712843Y18884679D01*
X-663000Y19135257D01*
X-663000Y19390743D01*
X-712843Y19641321D01*
X-810613Y19877360D01*
X-952554Y20089790D01*
X-1133210Y20270446D01*
X-1345640Y20412387D01*
X-1581679Y20510157D01*
X-1696519Y20533000D01*
X-1581679Y20555843D01*
X-1345640Y20653613D01*
X-1133210Y20795554D01*
X-952554Y20976210D01*
X-810613Y21188640D01*
X-712843Y21424679D01*
X-663000Y21675257D01*
X-663000Y21930743D01*
X-712843Y22181321D01*
X-810613Y22417360D01*
X-952554Y22629790D01*
X-1133210Y22810446D01*
X-1345640Y22952387D01*
X-1581679Y23050157D01*
X-1696519Y23073000D01*
X-1581679Y23095843D01*
X-1345640Y23193613D01*
X-1133210Y23335554D01*
X-952554Y23516210D01*
X-810613Y23728640D01*
X-712843Y23964679D01*
X-663000Y24215257D01*
X-663000Y24470743D01*
X-712843Y24721321D01*
X-810613Y24957360D01*
X-952554Y25169790D01*
X-1133210Y25350446D01*
X-1345640Y25492387D01*
X-1581679Y25590157D01*
X-1696519Y25613000D01*
X-1581679Y25635843D01*
X-1345640Y25733613D01*
X-1133210Y25875554D01*
X-952554Y26056210D01*
X-810613Y26268640D01*
X-712843Y26504679D01*
X-663000Y26755257D01*
X-663000Y27010743D01*
X-712843Y27261321D01*
X-810613Y27497360D01*
X-952554Y27709790D01*
X-1133210Y27890446D01*
X-1345640Y28032387D01*
X-1581679Y28130157D01*
X-1696519Y28153000D01*
X-1581679Y28175843D01*
X-1345640Y28273613D01*
X-1133210Y28415554D01*
X-952554Y28596210D01*
X-810613Y28808640D01*
X-712843Y29044679D01*
X-663000Y29295257D01*
X-663000Y29550743D01*
X-712843Y29801321D01*
X-810613Y30037360D01*
X-952554Y30249790D01*
X-1133210Y30430446D01*
X-1345640Y30572387D01*
X-1581679Y30670157D01*
X-1696519Y30693000D01*
X-1581679Y30715843D01*
X-1345640Y30813613D01*
X-1133210Y30955554D01*
X-952554Y31136210D01*
X-810613Y31348640D01*
X-712843Y31584679D01*
X-663000Y31835257D01*
X-663000Y32090743D01*
X-712843Y32341321D01*
X-810613Y32577360D01*
X-952554Y32789790D01*
X-1133210Y32970446D01*
X-1345640Y33112387D01*
X-1581679Y33210157D01*
X-1696519Y33233000D01*
X-1581679Y33255843D01*
X-1345640Y33353613D01*
X-1133210Y33495554D01*
X-952554Y33676210D01*
X-810613Y33888640D01*
X-712843Y34124679D01*
X-663000Y34375257D01*
X-663000Y34630743D01*
X-712843Y34881321D01*
X-810613Y35117360D01*
X-952554Y35329790D01*
X-1133210Y35510446D01*
X-1345640Y35652387D01*
X-1581679Y35750157D01*
X-1696519Y35773000D01*
X-1581679Y35795843D01*
X-1345640Y35893613D01*
X-1133210Y36035554D01*
X-952554Y36216210D01*
X-810613Y36428640D01*
X-712843Y36664679D01*
X-663000Y36915257D01*
X-663000Y37170743D01*
X-712843Y37421321D01*
X-810613Y37657360D01*
X-952554Y37869790D01*
X-1133210Y38050446D01*
X-1345640Y38192387D01*
X-1581679Y38290157D01*
X-1696519Y38313000D01*
X-1581679Y38335843D01*
X-1345640Y38433613D01*
X-1133210Y38575554D01*
X-952554Y38756210D01*
X-810613Y38968640D01*
X-712843Y39204679D01*
X-663000Y39455257D01*
X-663000Y39710743D01*
X-712843Y39961321D01*
X-810613Y40197360D01*
X-952554Y40409790D01*
X-1133210Y40590446D01*
X-1345640Y40732387D01*
X-1581679Y40830157D01*
X-1696519Y40853000D01*
X-1581679Y40875843D01*
X-1345640Y40973613D01*
X-1133210Y41115554D01*
X-952554Y41296210D01*
X-810613Y41508640D01*
X-712843Y41744679D01*
X-663000Y41995257D01*
X-663000Y42250743D01*
X-712843Y42501321D01*
X-810613Y42737360D01*
X-952554Y42949790D01*
X-1133210Y43130446D01*
X-1345640Y43272387D01*
X-1581679Y43370157D01*
X-1696519Y43393000D01*
X-1581679Y43415843D01*
X-1345640Y43513613D01*
X-1133210Y43655554D01*
X-952554Y43836210D01*
X-810613Y44048640D01*
X-712843Y44284679D01*
X-663000Y44535257D01*
X-663000Y44790743D01*
X-712843Y45041321D01*
X-810613Y45277360D01*
X-952554Y45489790D01*
X-1133210Y45670446D01*
X-1345640Y45812387D01*
X-1581679Y45910157D01*
X-1696519Y45933000D01*
X-1581679Y45955843D01*
X-1345640Y46053613D01*
X-1133210Y46195554D01*
X-952554Y46376210D01*
X-810613Y46588640D01*
X-712843Y46824679D01*
X-663000Y47075257D01*
X-663000Y47330743D01*
X-712843Y47581321D01*
X-810613Y47817360D01*
X-952554Y48029790D01*
X-1133210Y48210446D01*
X-1345640Y48352387D01*
X-1581679Y48450157D01*
X-1696519Y48473000D01*
X-1581679Y48495843D01*
X-1345640Y48593613D01*
X-1133210Y48735554D01*
X-952554Y48916210D01*
X-810613Y49128640D01*
X-712843Y49364679D01*
X-663000Y49615257D01*
X-663000Y49870743D01*
X-712843Y50121321D01*
X-810613Y50357360D01*
X-952554Y50569790D01*
X-1133210Y50750446D01*
X-1345640Y50892387D01*
X-1581679Y50990157D01*
X-1696519Y51013000D01*
X-1581679Y51035843D01*
X-1345640Y51133613D01*
X-1133210Y51275554D01*
X-952554Y51456210D01*
X-810613Y51668640D01*
X-712843Y51904679D01*
X-663000Y52155257D01*
X-663000Y52410743D01*
X-712843Y52661321D01*
X-810613Y52897360D01*
X-952554Y53109790D01*
X-1133210Y53290446D01*
X-1345640Y53432387D01*
X-1581679Y53530157D01*
X-1832257Y53580000D01*
X-2087743Y53580000D01*
X-2338321Y53530157D01*
X-2574360Y53432387D01*
X-2786790Y53290446D01*
X-2967446Y53109790D01*
X-3109387Y52897360D01*
X-3207157Y52661321D01*
X-3230000Y52546481D01*
X-3252843Y52661321D01*
X-3350613Y52897360D01*
X-3492554Y53109790D01*
X-3673210Y53290446D01*
X-3885640Y53432387D01*
X-4121679Y53530157D01*
X-4372257Y53580000D01*
X-4627743Y53580000D01*
X-4878321Y53530157D01*
X-5114360Y53432387D01*
X-5326790Y53290446D01*
X-5507446Y53109790D01*
X-5649387Y52897360D01*
X-5747157Y52661321D01*
X-5797000Y52410743D01*
X-5797000Y52155257D01*
X-5747157Y51904679D01*
X-5649387Y51668640D01*
X-5507446Y51456210D01*
X-5326790Y51275554D01*
X-5114360Y51133613D01*
X-4878321Y51035843D01*
X-4763481Y51013000D01*
X-4878321Y50990157D01*
X-5114360Y50892387D01*
X-5326790Y50750446D01*
X-5507446Y50569790D01*
X-5649387Y50357360D01*
X-5747157Y50121321D01*
X-5797000Y49870743D01*
X-5797000Y49615257D01*
X-5747157Y49364679D01*
X-5649387Y49128640D01*
X-5507446Y48916210D01*
X-5326790Y48735554D01*
X-5114360Y48593613D01*
X-5061737Y48571816D01*
X-5131252Y48547157D01*
X-5381355Y48398178D01*
X-5597588Y48203269D01*
X-5771641Y47969920D01*
X-5896825Y47707099D01*
X-5941476Y47559890D01*
X-5820155Y47330000D01*
X-4627000Y47330000D01*
X-4627000Y47350000D01*
X-4373000Y47350000D01*
X-4373000Y47330000D01*
X-4353000Y47330000D01*
X-4353000Y47076000D01*
X-4373000Y47076000D01*
X-4373000Y47056000D01*
X-4627000Y47056000D01*
X-4627000Y47076000D01*
X-5820155Y47076000D01*
X-5941476Y46846110D01*
X-5896825Y46698901D01*
X-5771641Y46436080D01*
X-5597588Y46202731D01*
X-5381355Y46007822D01*
X-5131252Y45858843D01*
X-5061737Y45834184D01*
X-5114360Y45812387D01*
X-5326790Y45670446D01*
X-5507446Y45489790D01*
X-5649387Y45277360D01*
X-5747157Y45041321D01*
X-5797000Y44790743D01*
X-5797000Y44535257D01*
X-5747157Y44284679D01*
X-5649387Y44048640D01*
X-5507446Y43836210D01*
X-5326790Y43655554D01*
X-5114360Y43513613D01*
X-4878321Y43415843D01*
X-4763481Y43393000D01*
X-4878321Y43370157D01*
X-5114360Y43272387D01*
X-5326790Y43130446D01*
X-5507446Y42949790D01*
X-5649387Y42737360D01*
X-5747157Y42501321D01*
X-5797000Y42250743D01*
X-5797000Y41995257D01*
X-5747157Y41744679D01*
X-5649387Y41508640D01*
X-5507446Y41296210D01*
X-5326790Y41115554D01*
X-5114360Y40973613D01*
X-4878321Y40875843D01*
X-4763481Y40853000D01*
X-4878321Y40830157D01*
X-5114360Y40732387D01*
X-5326790Y40590446D01*
X-5507446Y40409790D01*
X-5649387Y40197360D01*
X-5747157Y39961321D01*
X-5797000Y39710743D01*
X-5797000Y39455257D01*
X-5747157Y39204679D01*
X-5649387Y38968640D01*
X-5507446Y38756210D01*
X-5326790Y38575554D01*
X-5114360Y38433613D01*
X-5061737Y38411816D01*
X-5131252Y38387157D01*
X-5381355Y38238178D01*
X-5597588Y38043269D01*
X-5771641Y37809920D01*
X-5896825Y37547099D01*
X-5941476Y37399890D01*
X-5820155Y37170000D01*
X-4627000Y37170000D01*
X-4627000Y37190000D01*
X-4373000Y37190000D01*
X-4373000Y37170000D01*
X-4353000Y37170000D01*
X-4353000Y36916000D01*
X-4373000Y36916000D01*
X-4373000Y36896000D01*
X-4627000Y36896000D01*
X-4627000Y36916000D01*
X-5820155Y36916000D01*
X-5941476Y36686110D01*
X-5896825Y36538901D01*
X-5771641Y36276080D01*
X-5597588Y36042731D01*
X-5381355Y35847822D01*
X-5131252Y35698843D01*
X-5061737Y35674184D01*
X-5114360Y35652387D01*
X-5326790Y35510446D01*
X-5507446Y35329790D01*
X-5649387Y35117360D01*
X-5747157Y34881321D01*
X-5797000Y34630743D01*
X-5797000Y34375257D01*
X-5747157Y34124679D01*
X-5649387Y33888640D01*
X-5507446Y33676210D01*
X-5326790Y33495554D01*
X-5114360Y33353613D01*
X-4878321Y33255843D01*
X-4763481Y33233000D01*
X-4878321Y33210157D01*
X-5114360Y33112387D01*
X-5326790Y32970446D01*
X-5507446Y32789790D01*
X-5649387Y32577360D01*
X-5747157Y32341321D01*
X-5797000Y32090743D01*
X-5797000Y31835257D01*
X-5747157Y31584679D01*
X-5649387Y31348640D01*
X-5507446Y31136210D01*
X-5326790Y30955554D01*
X-5114360Y30813613D01*
X-5061737Y30791816D01*
X-5131252Y30767157D01*
X-5381355Y30618178D01*
X-5597588Y30423269D01*
X-5771641Y30189920D01*
X-5896825Y29927099D01*
X-5941476Y29779890D01*
X-5820155Y29550000D01*
X-4627000Y29550000D01*
X-4627000Y29570000D01*
X-4373000Y29570000D01*
X-4373000Y29550000D01*
X-4353000Y29550000D01*
X-4353000Y29296000D01*
X-4373000Y29296000D01*
X-4373000Y29276000D01*
X-4627000Y29276000D01*
X-4627000Y29296000D01*
X-5820155Y29296000D01*
X-5941476Y29066110D01*
X-5896825Y28918901D01*
X-5771641Y28656080D01*
X-5597588Y28422731D01*
X-5381355Y28227822D01*
X-5131252Y28078843D01*
X-5061737Y28054184D01*
X-5114360Y28032387D01*
X-5326790Y27890446D01*
X-5507446Y27709790D01*
X-5649387Y27497360D01*
X-5747157Y27261321D01*
X-5797000Y27010743D01*
X-5797000Y26755257D01*
X-5747157Y26504679D01*
X-5649387Y26268640D01*
X-5507446Y26056210D01*
X-5326790Y25875554D01*
X-5114360Y25733613D01*
X-4878321Y25635843D01*
X-4763481Y25613000D01*
X-4878321Y25590157D01*
X-5114360Y25492387D01*
X-5326790Y25350446D01*
X-5507446Y25169790D01*
X-5649387Y24957360D01*
X-5747157Y24721321D01*
X-5797000Y24470743D01*
X-5797000Y24215257D01*
X-5747157Y23964679D01*
X-5649387Y23728640D01*
X-5507446Y23516210D01*
X-5326790Y23335554D01*
X-5114360Y23193613D01*
X-4878321Y23095843D01*
X-4763481Y23073000D01*
X-4878321Y23050157D01*
X-5114360Y22952387D01*
X-5326790Y22810446D01*
X-5507446Y22629790D01*
X-5649387Y22417360D01*
X-5747157Y22181321D01*
X-5797000Y21930743D01*
X-5797000Y21675257D01*
X-5747157Y21424679D01*
X-5649387Y21188640D01*
X-5507446Y20976210D01*
X-5326790Y20795554D01*
X-5114360Y20653613D01*
X-4878321Y20555843D01*
X-4763481Y20533000D01*
X-4878321Y20510157D01*
X-5114360Y20412387D01*
X-5326790Y20270446D01*
X-5507446Y20089790D01*
X-5649387Y19877360D01*
X-5747157Y19641321D01*
X-5797000Y19390743D01*
X-5797000Y19135257D01*
X-5747157Y18884679D01*
X-5649387Y18648640D01*
X-5507446Y18436210D01*
X-5326790Y18255554D01*
X-5114360Y18113613D01*
X-5061737Y18091816D01*
X-5131252Y18067157D01*
X-5381355Y17918178D01*
X-5597588Y17723269D01*
X-5771641Y17489920D01*
X-5896825Y17227099D01*
X-5941476Y17079890D01*
X-5820155Y16850000D01*
X-4627000Y16850000D01*
X-4627000Y16870000D01*
X-4373000Y16870000D01*
X-4373000Y16850000D01*
X-4353000Y16850000D01*
X-4353000Y16596000D01*
X-4373000Y16596000D01*
X-4373000Y16576000D01*
X-4627000Y16576000D01*
X-4627000Y16596000D01*
X-5820155Y16596000D01*
X-5941476Y16366110D01*
X-5896825Y16218901D01*
X-5771641Y15956080D01*
X-5597588Y15722731D01*
X-5381355Y15527822D01*
X-5131252Y15378843D01*
X-5061737Y15354184D01*
X-5114360Y15332387D01*
X-5326790Y15190446D01*
X-5507446Y15009790D01*
X-5649387Y14797360D01*
X-5747157Y14561321D01*
X-5797000Y14310743D01*
X-5797000Y14055257D01*
X-5747157Y13804679D01*
X-5649387Y13568640D01*
X-5507446Y13356210D01*
X-5326790Y13175554D01*
X-5114360Y13033613D01*
X-5061737Y13011816D01*
X-5131252Y12987157D01*
X-5381355Y12838178D01*
X-5597588Y12643269D01*
X-5771641Y12409920D01*
X-5896825Y12147099D01*
X-5941476Y11999890D01*
X-5820155Y11770000D01*
X-4627000Y11770000D01*
X-4627000Y11790000D01*
X-4373000Y11790000D01*
X-4373000Y11770000D01*
X-4353000Y11770000D01*
X-4353000Y11516000D01*
X-4373000Y11516000D01*
X-4373000Y11496000D01*
X-4627000Y11496000D01*
X-4627000Y11516000D01*
X-5820155Y11516000D01*
X-5941476Y11286110D01*
X-5896825Y11138901D01*
X-5771641Y10876080D01*
X-5597588Y10642731D01*
X-5381355Y10447822D01*
X-5131252Y10298843D01*
X-5061737Y10274184D01*
X-5114360Y10252387D01*
X-5326790Y10110446D01*
X-5507446Y9929790D01*
X-5649387Y9717360D01*
X-5747157Y9481321D01*
X-5797000Y9230743D01*
X-5797000Y8975257D01*
X-5747157Y8724679D01*
X-5649387Y8488640D01*
X-5507446Y8276210D01*
X-5326790Y8095554D01*
X-5114360Y7953613D01*
X-4878321Y7855843D01*
X-4763481Y7833000D01*
X-4878321Y7810157D01*
X-5114360Y7712387D01*
X-5326790Y7570446D01*
X-5507446Y7389790D01*
X-5649387Y7177360D01*
X-5747157Y6941321D01*
X-5797000Y6690743D01*
X-5797000Y6435257D01*
X-5747157Y6184679D01*
X-5649387Y5948640D01*
X-5507446Y5736210D01*
X-5326790Y5555554D01*
X-5114360Y5413613D01*
X-4893577Y5322162D01*
X-5350000Y5322162D01*
X-5437627Y5313531D01*
X-5521887Y5287972D01*
X-5599541Y5246465D01*
X-5667605Y5190605D01*
X-5723465Y5122541D01*
X-5764972Y5044887D01*
X-5790531Y4960627D01*
X-5799162Y4873000D01*
X-5799162Y3173000D01*
X-5790531Y3085373D01*
X-5764972Y3001113D01*
X-5723465Y2923459D01*
X-5667605Y2855395D01*
X-5599541Y2799535D01*
X-5521887Y2758028D01*
X-5437627Y2732469D01*
X-5350000Y2723838D01*
X-3650000Y2723838D01*
X-3562373Y2732469D01*
X-3478113Y2758028D01*
X-3400459Y2799535D01*
X-3332395Y2855395D01*
X-3276535Y2923459D01*
X-3235028Y3001113D01*
X-3209469Y3085373D01*
X-3200838Y3173000D01*
X-3200838Y3214783D01*
X-3057588Y3022731D01*
X-2841355Y2827822D01*
X-2591252Y2678843D01*
X-2316891Y2581519D01*
X-2087000Y2702186D01*
X-2087000Y3896000D01*
X-2107000Y3896000D01*
X-2107000Y4150000D01*
X-2087000Y4150000D01*
X-2087000Y4170000D01*
X-1833000Y4170000D01*
X-1833000Y4150000D01*
X-1813000Y4150000D01*
X-1813000Y3896000D01*
X-1833000Y3896000D01*
X-1833000Y2702186D01*
X-1603109Y2581519D01*
X-1328748Y2678843D01*
X-1078645Y2827822D01*
X-862412Y3022731D01*
X-688359Y3256080D01*
X-563175Y3518901D01*
X-521999Y3654653D01*
X-521999Y545000D01*
X-42478000Y545000D01*
X-42478000Y3317074D01*
X-39962000Y3317074D01*
X-39962000Y2908926D01*
X-39882375Y2508620D01*
X-39726183Y2131540D01*
X-39499428Y1792177D01*
X-39210823Y1503572D01*
X-38871460Y1276817D01*
X-38494380Y1120625D01*
X-38094074Y1041000D01*
X-37685926Y1041000D01*
X-37285620Y1120625D01*
X-36908540Y1276817D01*
X-36569177Y1503572D01*
X-36280572Y1792177D01*
X-36053817Y2131540D01*
X-35897625Y2508620D01*
X-35818000Y2908926D01*
X-35818000Y3317074D01*
X-35897625Y3717380D01*
X-36053817Y4094460D01*
X-36280572Y4433823D01*
X-36569177Y4722428D01*
X-36908540Y4949183D01*
X-37285620Y5105375D01*
X-37685926Y5185000D01*
X-38094074Y5185000D01*
X-38494380Y5105375D01*
X-38871460Y4949183D01*
X-39210823Y4722428D01*
X-39499428Y4433823D01*
X-39726183Y4094460D01*
X-39882375Y3717380D01*
X-39962000Y3317074D01*
X-42478000Y3317074D01*
X-42478000Y5533000D01*
X-32938072Y5533000D01*
X-32925812Y5408518D01*
X-32889502Y5288820D01*
X-32830537Y5178506D01*
X-32751185Y5081815D01*
X-32654494Y5002463D01*
X-32544180Y4943498D01*
X-32424482Y4907188D01*
X-32300000Y4894928D01*
X-31825750Y4898000D01*
X-31667000Y5056750D01*
X-31667000Y6166000D01*
X-31413000Y6166000D01*
X-31413000Y5056750D01*
X-31254250Y4898000D01*
X-30780000Y4894928D01*
X-30655518Y4907188D01*
X-30535820Y4943498D01*
X-30425506Y5002463D01*
X-30328815Y5081815D01*
X-30249463Y5178506D01*
X-30190498Y5288820D01*
X-30154188Y5408518D01*
X-30141928Y5533000D01*
X-30145000Y6007250D01*
X-30303750Y6166000D01*
X-31413000Y6166000D01*
X-31667000Y6166000D01*
X-32776250Y6166000D01*
X-32935000Y6007250D01*
X-32938072Y5533000D01*
X-42478000Y5533000D01*
X-42478000Y7053000D01*
X-32938072Y7053000D01*
X-32935000Y6578750D01*
X-32776250Y6420000D01*
X-31667000Y6420000D01*
X-31667000Y6440000D01*
X-31413000Y6440000D01*
X-31413000Y6420000D01*
X-30303750Y6420000D01*
X-30145000Y6578750D01*
X-30141928Y7053000D01*
X-30154188Y7177482D01*
X-30190498Y7297180D01*
X-30249463Y7407494D01*
X-30328815Y7504185D01*
X-30425506Y7583537D01*
X-30535820Y7642502D01*
X-30655518Y7678812D01*
X-30780000Y7691072D01*
X-31254250Y7688000D01*
X-31412998Y7529252D01*
X-31412998Y7657616D01*
X-31187931Y7702384D01*
X-31165009Y7711879D01*
X-30207000Y7711879D01*
X-30207000Y7474121D01*
X-30160616Y7240931D01*
X-30069629Y7021271D01*
X-29937538Y6823582D01*
X-29769418Y6655462D01*
X-29571729Y6523371D01*
X-29352069Y6432384D01*
X-29118879Y6386000D01*
X-28881121Y6386000D01*
X-28647931Y6432384D01*
X-28428271Y6523371D01*
X-28230582Y6655462D01*
X-28062462Y6823582D01*
X-27930371Y7021271D01*
X-27839384Y7240931D01*
X-27793000Y7474121D01*
X-27793000Y7711879D01*
X-27839384Y7945069D01*
X-27930371Y8164729D01*
X-28062462Y8362418D01*
X-28230582Y8530538D01*
X-28428271Y8662629D01*
X-28647931Y8753616D01*
X-28881121Y8800000D01*
X-29118879Y8800000D01*
X-29352069Y8753616D01*
X-29571729Y8662629D01*
X-29769418Y8530538D01*
X-29937538Y8362418D01*
X-30069629Y8164729D01*
X-30160616Y7945069D01*
X-30207000Y7711879D01*
X-31165009Y7711879D01*
X-30968271Y7793371D01*
X-30770582Y7925462D01*
X-30602462Y8093582D01*
X-30470371Y8291271D01*
X-30379384Y8510931D01*
X-30333000Y8744121D01*
X-30333000Y8981879D01*
X-30379384Y9215069D01*
X-30470371Y9434729D01*
X-30602462Y9632418D01*
X-30770582Y9800538D01*
X-30968271Y9932629D01*
X-31187931Y10023616D01*
X-31421121Y10070000D01*
X-31658879Y10070000D01*
X-31892069Y10023616D01*
X-32111729Y9932629D01*
X-32309418Y9800538D01*
X-32477538Y9632418D01*
X-32609629Y9434729D01*
X-32700616Y9215069D01*
X-32747000Y8981879D01*
X-32747000Y8744121D01*
X-32700616Y8510931D01*
X-32609629Y8291271D01*
X-32477538Y8093582D01*
X-32309418Y7925462D01*
X-32111729Y7793371D01*
X-31892069Y7702384D01*
X-31667002Y7657616D01*
X-31667002Y7529252D01*
X-31825750Y7688000D01*
X-32300000Y7691072D01*
X-32424482Y7678812D01*
X-32544180Y7642502D01*
X-32654494Y7583537D01*
X-32751185Y7504185D01*
X-32830537Y7407494D01*
X-32889502Y7297180D01*
X-32925812Y7177482D01*
X-32938072Y7053000D01*
X-42478000Y7053000D01*
X-42478000Y10221879D01*
X-30207000Y10221879D01*
X-30207000Y9984121D01*
X-30160616Y9750931D01*
X-30069629Y9531271D01*
X-29937538Y9333582D01*
X-29769418Y9165462D01*
X-29571729Y9033371D01*
X-29352069Y8942384D01*
X-29118879Y8896000D01*
X-28881121Y8896000D01*
X-28647931Y8942384D01*
X-28428271Y9033371D01*
X-28230582Y9165462D01*
X-28062462Y9333582D01*
X-27930371Y9531271D01*
X-27839384Y9750931D01*
X-27793000Y9984121D01*
X-27793000Y10221879D01*
X-27839384Y10455069D01*
X-27930371Y10674729D01*
X-28062462Y10872418D01*
X-28230582Y11040538D01*
X-28428271Y11172629D01*
X-28647931Y11263616D01*
X-28881121Y11310000D01*
X-29118879Y11310000D01*
X-29352069Y11263616D01*
X-29571729Y11172629D01*
X-29769418Y11040538D01*
X-29937538Y10872418D01*
X-30069629Y10674729D01*
X-30160616Y10455069D01*
X-30207000Y10221879D01*
X-42478000Y10221879D01*
X-42478000Y16817074D01*
X-39962000Y16817074D01*
X-39962000Y16408926D01*
X-39882375Y16008620D01*
X-39726183Y15631540D01*
X-39499428Y15292177D01*
X-39210823Y15003572D01*
X-39120171Y14943000D01*
X-39210823Y14882428D01*
X-39499428Y14593823D01*
X-39726183Y14254460D01*
X-39882375Y13877380D01*
X-39962000Y13477074D01*
X-39962000Y13068926D01*
X-39882375Y12668620D01*
X-39726183Y12291540D01*
X-39499428Y11952177D01*
X-39210823Y11663572D01*
X-38871460Y11436817D01*
X-38494380Y11280625D01*
X-38094074Y11201000D01*
X-37685926Y11201000D01*
X-37285620Y11280625D01*
X-36908540Y11436817D01*
X-36569177Y11663572D01*
X-36280572Y11952177D01*
X-36053817Y12291540D01*
X-35897625Y12668620D01*
X-35818000Y13068926D01*
X-35818000Y13477074D01*
X-35897625Y13877380D01*
X-36053817Y14254460D01*
X-36280572Y14593823D01*
X-36569177Y14882428D01*
X-36659829Y14943000D01*
X-36569177Y15003572D01*
X-36280572Y15292177D01*
X-36053817Y15631540D01*
X-35897625Y16008620D01*
X-35818000Y16408926D01*
X-35818000Y16817074D01*
X-35897625Y17217380D01*
X-36053817Y17594460D01*
X-36280572Y17933823D01*
X-36569177Y18222428D01*
X-36908540Y18449183D01*
X-37285620Y18605375D01*
X-37685926Y18685000D01*
X-38094074Y18685000D01*
X-38494380Y18605375D01*
X-38871460Y18449183D01*
X-39210823Y18222428D01*
X-39499428Y17933823D01*
X-39726183Y17594460D01*
X-39882375Y17217380D01*
X-39962000Y16817074D01*
X-42478000Y16817074D01*
X-42478000Y19033000D01*
X-32938072Y19033000D01*
X-32925812Y18908518D01*
X-32889502Y18788820D01*
X-32830537Y18678506D01*
X-32751185Y18581815D01*
X-32654494Y18502463D01*
X-32544180Y18443498D01*
X-32424482Y18407188D01*
X-32300000Y18394928D01*
X-31825750Y18398000D01*
X-31667000Y18556750D01*
X-31667000Y19666000D01*
X-31413000Y19666000D01*
X-31413000Y18556750D01*
X-31254250Y18398000D01*
X-30780000Y18394928D01*
X-30655518Y18407188D01*
X-30535820Y18443498D01*
X-30425506Y18502463D01*
X-30328815Y18581815D01*
X-30249463Y18678506D01*
X-30190498Y18788820D01*
X-30154188Y18908518D01*
X-30141928Y19033000D01*
X-30145000Y19507250D01*
X-30303750Y19666000D01*
X-31413000Y19666000D01*
X-31667000Y19666000D01*
X-32776250Y19666000D01*
X-32935000Y19507250D01*
X-32938072Y19033000D01*
X-42478000Y19033000D01*
X-42478000Y20553000D01*
X-32938072Y20553000D01*
X-32935000Y20078750D01*
X-32776250Y19920000D01*
X-31667000Y19920000D01*
X-31667000Y19940000D01*
X-31413000Y19940000D01*
X-31413000Y19920000D01*
X-30303750Y19920000D01*
X-30145000Y20078750D01*
X-30141928Y20553000D01*
X-30154188Y20677482D01*
X-30190498Y20797180D01*
X-30249463Y20907494D01*
X-30328815Y21004185D01*
X-30425506Y21083537D01*
X-30535820Y21142502D01*
X-30655518Y21178812D01*
X-30780000Y21191072D01*
X-31254250Y21188000D01*
X-31412998Y21029252D01*
X-31412998Y21157616D01*
X-31187931Y21202384D01*
X-31165009Y21211879D01*
X-30207000Y21211879D01*
X-30207000Y20974121D01*
X-30160616Y20740931D01*
X-30069629Y20521271D01*
X-29937538Y20323582D01*
X-29769418Y20155462D01*
X-29571729Y20023371D01*
X-29352069Y19932384D01*
X-29118879Y19886000D01*
X-28881121Y19886000D01*
X-28647931Y19932384D01*
X-28428271Y20023371D01*
X-28230582Y20155462D01*
X-28062462Y20323582D01*
X-27930371Y20521271D01*
X-27839384Y20740931D01*
X-27793000Y20974121D01*
X-27793000Y21211879D01*
X-27839384Y21445069D01*
X-27930371Y21664729D01*
X-28062462Y21862418D01*
X-28230582Y22030538D01*
X-28428271Y22162629D01*
X-28647931Y22253616D01*
X-28881121Y22300000D01*
X-29118879Y22300000D01*
X-29352069Y22253616D01*
X-29571729Y22162629D01*
X-29769418Y22030538D01*
X-29937538Y21862418D01*
X-30069629Y21664729D01*
X-30160616Y21445069D01*
X-30207000Y21211879D01*
X-31165009Y21211879D01*
X-30968271Y21293371D01*
X-30770582Y21425462D01*
X-30602462Y21593582D01*
X-30470371Y21791271D01*
X-30379384Y22010931D01*
X-30333000Y22244121D01*
X-30333000Y22481879D01*
X-30379384Y22715069D01*
X-30470371Y22934729D01*
X-30602462Y23132418D01*
X-30770582Y23300538D01*
X-30968271Y23432629D01*
X-31187931Y23523616D01*
X-31421121Y23570000D01*
X-31658879Y23570000D01*
X-31892069Y23523616D01*
X-32111729Y23432629D01*
X-32309418Y23300538D01*
X-32477538Y23132418D01*
X-32609629Y22934729D01*
X-32700616Y22715069D01*
X-32747000Y22481879D01*
X-32747000Y22244121D01*
X-32700616Y22010931D01*
X-32609629Y21791271D01*
X-32477538Y21593582D01*
X-32309418Y21425462D01*
X-32111729Y21293371D01*
X-31892069Y21202384D01*
X-31667002Y21157616D01*
X-31667002Y21029252D01*
X-31825750Y21188000D01*
X-32300000Y21191072D01*
X-32424482Y21178812D01*
X-32544180Y21142502D01*
X-32654494Y21083537D01*
X-32751185Y21004185D01*
X-32830537Y20907494D01*
X-32889502Y20797180D01*
X-32925812Y20677482D01*
X-32938072Y20553000D01*
X-42478000Y20553000D01*
X-42478000Y23721879D01*
X-30207000Y23721879D01*
X-30207000Y23484121D01*
X-30160616Y23250931D01*
X-30069629Y23031271D01*
X-29937538Y22833582D01*
X-29769418Y22665462D01*
X-29571729Y22533371D01*
X-29352069Y22442384D01*
X-29118879Y22396000D01*
X-28881121Y22396000D01*
X-28647931Y22442384D01*
X-28428271Y22533371D01*
X-28230582Y22665462D01*
X-28062462Y22833582D01*
X-27930371Y23031271D01*
X-27839384Y23250931D01*
X-27793000Y23484121D01*
X-27793000Y23721879D01*
X-27839384Y23955069D01*
X-27930371Y24174729D01*
X-28062462Y24372418D01*
X-28230582Y24540538D01*
X-28428271Y24672629D01*
X-28647931Y24763616D01*
X-28881121Y24810000D01*
X-29118879Y24810000D01*
X-29352069Y24763616D01*
X-29571729Y24672629D01*
X-29769418Y24540538D01*
X-29937538Y24372418D01*
X-30069629Y24174729D01*
X-30160616Y23955069D01*
X-30207000Y23721879D01*
X-42478000Y23721879D01*
X-42478000Y30317074D01*
X-39962000Y30317074D01*
X-39962000Y29908926D01*
X-39882375Y29508620D01*
X-39726183Y29131540D01*
X-39499428Y28792177D01*
X-39210823Y28503572D01*
X-39120171Y28443000D01*
X-39210823Y28382428D01*
X-39499428Y28093823D01*
X-39726183Y27754460D01*
X-39882375Y27377380D01*
X-39962000Y26977074D01*
X-39962000Y26568926D01*
X-39882375Y26168620D01*
X-39726183Y25791540D01*
X-39499428Y25452177D01*
X-39210823Y25163572D01*
X-38871460Y24936817D01*
X-38494380Y24780625D01*
X-38094074Y24701000D01*
X-37685926Y24701000D01*
X-37285620Y24780625D01*
X-36908540Y24936817D01*
X-36569177Y25163572D01*
X-36280572Y25452177D01*
X-36053817Y25791540D01*
X-35897625Y26168620D01*
X-35818000Y26568926D01*
X-35818000Y26977074D01*
X-35897625Y27377380D01*
X-36053817Y27754460D01*
X-36280572Y28093823D01*
X-36569177Y28382428D01*
X-36659829Y28443000D01*
X-36569177Y28503572D01*
X-36280572Y28792177D01*
X-36053817Y29131540D01*
X-35897625Y29508620D01*
X-35818000Y29908926D01*
X-35818000Y30317074D01*
X-35897625Y30717380D01*
X-36053817Y31094460D01*
X-36280572Y31433823D01*
X-36569177Y31722428D01*
X-36908540Y31949183D01*
X-37285620Y32105375D01*
X-37685926Y32185000D01*
X-38094074Y32185000D01*
X-38494380Y32105375D01*
X-38871460Y31949183D01*
X-39210823Y31722428D01*
X-39499428Y31433823D01*
X-39726183Y31094460D01*
X-39882375Y30717380D01*
X-39962000Y30317074D01*
X-42478000Y30317074D01*
X-42478000Y32533000D01*
X-32938072Y32533000D01*
X-32925812Y32408518D01*
X-32889502Y32288820D01*
X-32830537Y32178506D01*
X-32751185Y32081815D01*
X-32654494Y32002463D01*
X-32544180Y31943498D01*
X-32424482Y31907188D01*
X-32300000Y31894928D01*
X-31825750Y31898000D01*
X-31667000Y32056750D01*
X-31667000Y33166000D01*
X-31413000Y33166000D01*
X-31413000Y32056750D01*
X-31254250Y31898000D01*
X-30780000Y31894928D01*
X-30655518Y31907188D01*
X-30535820Y31943498D01*
X-30425506Y32002463D01*
X-30328815Y32081815D01*
X-30249463Y32178506D01*
X-30190498Y32288820D01*
X-30154188Y32408518D01*
X-30141928Y32533000D01*
X-30145000Y33007250D01*
X-30303750Y33166000D01*
X-31413000Y33166000D01*
X-31667000Y33166000D01*
X-32776250Y33166000D01*
X-32935000Y33007250D01*
X-32938072Y32533000D01*
X-42478000Y32533000D01*
X-42478000Y34053000D01*
X-32938072Y34053000D01*
X-32935000Y33578750D01*
X-32776250Y33420000D01*
X-31667000Y33420000D01*
X-31667000Y33440000D01*
X-31413000Y33440000D01*
X-31413000Y33420000D01*
X-30303750Y33420000D01*
X-30145000Y33578750D01*
X-30141928Y34053000D01*
X-30154188Y34177482D01*
X-30190498Y34297180D01*
X-30249463Y34407494D01*
X-30328815Y34504185D01*
X-30425506Y34583537D01*
X-30535820Y34642502D01*
X-30655518Y34678812D01*
X-30780000Y34691072D01*
X-31254250Y34688000D01*
X-31412998Y34529252D01*
X-31412998Y34657616D01*
X-31187931Y34702384D01*
X-31165009Y34711879D01*
X-30207000Y34711879D01*
X-30207000Y34474121D01*
X-30160616Y34240931D01*
X-30069629Y34021271D01*
X-29937538Y33823582D01*
X-29769418Y33655462D01*
X-29571729Y33523371D01*
X-29352069Y33432384D01*
X-29118879Y33386000D01*
X-28881121Y33386000D01*
X-28647931Y33432384D01*
X-28428271Y33523371D01*
X-28230582Y33655462D01*
X-28062462Y33823582D01*
X-27930371Y34021271D01*
X-27839384Y34240931D01*
X-27793000Y34474121D01*
X-27793000Y34711879D01*
X-27839384Y34945069D01*
X-27930371Y35164729D01*
X-28062462Y35362418D01*
X-28230582Y35530538D01*
X-28428271Y35662629D01*
X-28647931Y35753616D01*
X-28881121Y35800000D01*
X-29118879Y35800000D01*
X-29352069Y35753616D01*
X-29571729Y35662629D01*
X-29769418Y35530538D01*
X-29937538Y35362418D01*
X-30069629Y35164729D01*
X-30160616Y34945069D01*
X-30207000Y34711879D01*
X-31165009Y34711879D01*
X-30968271Y34793371D01*
X-30770582Y34925462D01*
X-30602462Y35093582D01*
X-30470371Y35291271D01*
X-30379384Y35510931D01*
X-30333000Y35744121D01*
X-30333000Y35981879D01*
X-30379384Y36215069D01*
X-30470371Y36434729D01*
X-30602462Y36632418D01*
X-30770582Y36800538D01*
X-30968271Y36932629D01*
X-31187931Y37023616D01*
X-31421121Y37070000D01*
X-31658879Y37070000D01*
X-31892069Y37023616D01*
X-32111729Y36932629D01*
X-32309418Y36800538D01*
X-32477538Y36632418D01*
X-32609629Y36434729D01*
X-32700616Y36215069D01*
X-32747000Y35981879D01*
X-32747000Y35744121D01*
X-32700616Y35510931D01*
X-32609629Y35291271D01*
X-32477538Y35093582D01*
X-32309418Y34925462D01*
X-32111729Y34793371D01*
X-31892069Y34702384D01*
X-31667002Y34657616D01*
X-31667002Y34529252D01*
X-31825750Y34688000D01*
X-32300000Y34691072D01*
X-32424482Y34678812D01*
X-32544180Y34642502D01*
X-32654494Y34583537D01*
X-32751185Y34504185D01*
X-32830537Y34407494D01*
X-32889502Y34297180D01*
X-32925812Y34177482D01*
X-32938072Y34053000D01*
X-42478000Y34053000D01*
X-42478000Y37221879D01*
X-30207000Y37221879D01*
X-30207000Y36984121D01*
X-30160616Y36750931D01*
X-30069629Y36531271D01*
X-29937538Y36333582D01*
X-29769418Y36165462D01*
X-29571729Y36033371D01*
X-29352069Y35942384D01*
X-29118879Y35896000D01*
X-28881121Y35896000D01*
X-28647931Y35942384D01*
X-28428271Y36033371D01*
X-28230582Y36165462D01*
X-28062462Y36333582D01*
X-27930371Y36531271D01*
X-27839384Y36750931D01*
X-27793000Y36984121D01*
X-27793000Y37221879D01*
X-27839384Y37455069D01*
X-27930371Y37674729D01*
X-28062462Y37872418D01*
X-28230582Y38040538D01*
X-28428271Y38172629D01*
X-28647931Y38263616D01*
X-28881121Y38310000D01*
X-29118879Y38310000D01*
X-29352069Y38263616D01*
X-29571729Y38172629D01*
X-29769418Y38040538D01*
X-29937538Y37872418D01*
X-30069629Y37674729D01*
X-30160616Y37455069D01*
X-30207000Y37221879D01*
X-42478000Y37221879D01*
X-42478000Y43817074D01*
X-39962000Y43817074D01*
X-39962000Y43408926D01*
X-39882375Y43008620D01*
X-39726183Y42631540D01*
X-39499428Y42292177D01*
X-39210823Y42003572D01*
X-39120171Y41943000D01*
X-39210823Y41882428D01*
X-39499428Y41593823D01*
X-39726183Y41254460D01*
X-39882375Y40877380D01*
X-39962000Y40477074D01*
X-39962000Y40068926D01*
X-39882375Y39668620D01*
X-39726183Y39291540D01*
X-39499428Y38952177D01*
X-39210823Y38663572D01*
X-38871460Y38436817D01*
X-38494380Y38280625D01*
X-38094074Y38201000D01*
X-37685926Y38201000D01*
X-37285620Y38280625D01*
X-36908540Y38436817D01*
X-36569177Y38663572D01*
X-36280572Y38952177D01*
X-36053817Y39291540D01*
X-35897625Y39668620D01*
X-35818000Y40068926D01*
X-35818000Y40477074D01*
X-35897625Y40877380D01*
X-36053817Y41254460D01*
X-36280572Y41593823D01*
X-36569177Y41882428D01*
X-36659829Y41943000D01*
X-36569177Y42003572D01*
X-36280572Y42292177D01*
X-36053817Y42631540D01*
X-35897625Y43008620D01*
X-35818000Y43408926D01*
X-35818000Y43817074D01*
X-35897625Y44217380D01*
X-36053817Y44594460D01*
X-36280572Y44933823D01*
X-36569177Y45222428D01*
X-36908540Y45449183D01*
X-37285620Y45605375D01*
X-37685926Y45685000D01*
X-38094074Y45685000D01*
X-38494380Y45605375D01*
X-38871460Y45449183D01*
X-39210823Y45222428D01*
X-39499428Y44933823D01*
X-39726183Y44594460D01*
X-39882375Y44217380D01*
X-39962000Y43817074D01*
X-42478000Y43817074D01*
X-42478000Y46033000D01*
X-32938072Y46033000D01*
X-32925812Y45908518D01*
X-32889502Y45788820D01*
X-32830537Y45678506D01*
X-32751185Y45581815D01*
X-32654494Y45502463D01*
X-32544180Y45443498D01*
X-32424482Y45407188D01*
X-32300000Y45394928D01*
X-31825750Y45398000D01*
X-31667000Y45556750D01*
X-31667000Y46666000D01*
X-31413000Y46666000D01*
X-31413000Y45556750D01*
X-31254250Y45398000D01*
X-30780000Y45394928D01*
X-30655518Y45407188D01*
X-30535820Y45443498D01*
X-30425506Y45502463D01*
X-30328815Y45581815D01*
X-30249463Y45678506D01*
X-30190498Y45788820D01*
X-30154188Y45908518D01*
X-30141928Y46033000D01*
X-30145000Y46507250D01*
X-30303750Y46666000D01*
X-31413000Y46666000D01*
X-31667000Y46666000D01*
X-32776250Y46666000D01*
X-32935000Y46507250D01*
X-32938072Y46033000D01*
X-42478000Y46033000D01*
X-42478000Y47553000D01*
X-32938072Y47553000D01*
X-32935000Y47078750D01*
X-32776250Y46920000D01*
X-31667000Y46920000D01*
X-31667000Y46940000D01*
X-31413000Y46940000D01*
X-31413000Y46920000D01*
X-30303750Y46920000D01*
X-30145000Y47078750D01*
X-30141928Y47553000D01*
X-30154188Y47677482D01*
X-30190498Y47797180D01*
X-30249463Y47907494D01*
X-30328815Y48004185D01*
X-30425506Y48083537D01*
X-30535820Y48142502D01*
X-30655518Y48178812D01*
X-30780000Y48191072D01*
X-31254250Y48188000D01*
X-31412998Y48029252D01*
X-31412998Y48157616D01*
X-31187931Y48202384D01*
X-31165009Y48211879D01*
X-30207000Y48211879D01*
X-30207000Y47974121D01*
X-30160616Y47740931D01*
X-30069629Y47521271D01*
X-29937538Y47323582D01*
X-29769418Y47155462D01*
X-29571729Y47023371D01*
X-29352069Y46932384D01*
X-29118879Y46886000D01*
X-28881121Y46886000D01*
X-28647931Y46932384D01*
X-28428271Y47023371D01*
X-28230582Y47155462D01*
X-28062462Y47323582D01*
X-27930371Y47521271D01*
X-27839384Y47740931D01*
X-27793000Y47974121D01*
X-27793000Y48211879D01*
X-27839384Y48445069D01*
X-27930371Y48664729D01*
X-28062462Y48862418D01*
X-28230582Y49030538D01*
X-28428271Y49162629D01*
X-28647931Y49253616D01*
X-28881121Y49300000D01*
X-29118879Y49300000D01*
X-29352069Y49253616D01*
X-29571729Y49162629D01*
X-29769418Y49030538D01*
X-29937538Y48862418D01*
X-30069629Y48664729D01*
X-30160616Y48445069D01*
X-30207000Y48211879D01*
X-31165009Y48211879D01*
X-30968271Y48293371D01*
X-30770582Y48425462D01*
X-30602462Y48593582D01*
X-30470371Y48791271D01*
X-30379384Y49010931D01*
X-30333000Y49244121D01*
X-30333000Y49481879D01*
X-30379384Y49715069D01*
X-30470371Y49934729D01*
X-30602462Y50132418D01*
X-30770582Y50300538D01*
X-30968271Y50432629D01*
X-31187931Y50523616D01*
X-31421121Y50570000D01*
X-31658879Y50570000D01*
X-31892069Y50523616D01*
X-32111729Y50432629D01*
X-32309418Y50300538D01*
X-32477538Y50132418D01*
X-32609629Y49934729D01*
X-32700616Y49715069D01*
X-32747000Y49481879D01*
X-32747000Y49244121D01*
X-32700616Y49010931D01*
X-32609629Y48791271D01*
X-32477538Y48593582D01*
X-32309418Y48425462D01*
X-32111729Y48293371D01*
X-31892069Y48202384D01*
X-31667002Y48157616D01*
X-31667002Y48029252D01*
X-31825750Y48188000D01*
X-32300000Y48191072D01*
X-32424482Y48178812D01*
X-32544180Y48142502D01*
X-32654494Y48083537D01*
X-32751185Y48004185D01*
X-32830537Y47907494D01*
X-32889502Y47797180D01*
X-32925812Y47677482D01*
X-32938072Y47553000D01*
X-42478000Y47553000D01*
X-42478000Y50721879D01*
X-30207000Y50721879D01*
X-30207000Y50484121D01*
X-30160616Y50250931D01*
X-30069629Y50031271D01*
X-29937538Y49833582D01*
X-29769418Y49665462D01*
X-29571729Y49533371D01*
X-29352069Y49442384D01*
X-29118879Y49396000D01*
X-28881121Y49396000D01*
X-28647931Y49442384D01*
X-28428271Y49533371D01*
X-28230582Y49665462D01*
X-28062462Y49833582D01*
X-27930371Y50031271D01*
X-27839384Y50250931D01*
X-27793000Y50484121D01*
X-27793000Y50721879D01*
X-27839384Y50955069D01*
X-27930371Y51174729D01*
X-28062462Y51372418D01*
X-28230582Y51540538D01*
X-28428271Y51672629D01*
X-28647931Y51763616D01*
X-28881121Y51810000D01*
X-29118879Y51810000D01*
X-29352069Y51763616D01*
X-29571729Y51672629D01*
X-29769418Y51540538D01*
X-29937538Y51372418D01*
X-30069629Y51174729D01*
X-30160616Y50955069D01*
X-30207000Y50721879D01*
X-42478000Y50721879D01*
X-42478000Y53977074D01*
X-39962000Y53977074D01*
X-39962000Y53568926D01*
X-39882375Y53168620D01*
X-39726183Y52791540D01*
X-39499428Y52452177D01*
X-39210823Y52163572D01*
X-38871460Y51936817D01*
X-38494380Y51780625D01*
X-38094074Y51701000D01*
X-37685926Y51701000D01*
X-37285620Y51780625D01*
X-36908540Y51936817D01*
X-36569177Y52163572D01*
X-36280572Y52452177D01*
X-36053817Y52791540D01*
X-35897625Y53168620D01*
X-35818000Y53568926D01*
X-35818000Y53977074D01*
X-35897625Y54377380D01*
X-36053817Y54754460D01*
X-36280572Y55093823D01*
X-36569177Y55382428D01*
X-36908540Y55609183D01*
X-37285620Y55765375D01*
X-37685926Y55845000D01*
X-38094074Y55845000D01*
X-38494380Y55765375D01*
X-38871460Y55609183D01*
X-39210823Y55382428D01*
X-39499428Y55093823D01*
X-39726183Y54754460D01*
X-39882375Y54377380D01*
X-39962000Y53977074D01*
X-42478000Y53977074D01*
X-42478000Y56501000D01*
X-522000Y56501000D01*
X-521999Y4391347D01*
G37*
X-521999Y4391347D02*
X-563175Y4527099D01*
X-688359Y4789920D01*
X-862412Y5023269D01*
X-1078645Y5218178D01*
X-1328748Y5367157D01*
X-1398263Y5391816D01*
X-1345640Y5413613D01*
X-1133210Y5555554D01*
X-952554Y5736210D01*
X-810613Y5948640D01*
X-712843Y6184679D01*
X-663000Y6435257D01*
X-663000Y6690743D01*
X-712843Y6941321D01*
X-810613Y7177360D01*
X-952554Y7389790D01*
X-1133210Y7570446D01*
X-1345640Y7712387D01*
X-1581679Y7810157D01*
X-1696519Y7833000D01*
X-1581679Y7855843D01*
X-1345640Y7953613D01*
X-1133210Y8095554D01*
X-952554Y8276210D01*
X-810613Y8488640D01*
X-712843Y8724679D01*
X-663000Y8975257D01*
X-663000Y9230743D01*
X-712843Y9481321D01*
X-810613Y9717360D01*
X-952554Y9929790D01*
X-1133210Y10110446D01*
X-1345640Y10252387D01*
X-1581679Y10350157D01*
X-1696519Y10373000D01*
X-1581679Y10395843D01*
X-1345640Y10493613D01*
X-1133210Y10635554D01*
X-952554Y10816210D01*
X-810613Y11028640D01*
X-712843Y11264679D01*
X-663000Y11515257D01*
X-663000Y11770743D01*
X-712843Y12021321D01*
X-810613Y12257360D01*
X-952554Y12469790D01*
X-1133210Y12650446D01*
X-1345640Y12792387D01*
X-1581679Y12890157D01*
X-1696519Y12913000D01*
X-1581679Y12935843D01*
X-1345640Y13033613D01*
X-1133210Y13175554D01*
X-952554Y13356210D01*
X-810613Y13568640D01*
X-712843Y13804679D01*
X-663000Y14055257D01*
X-663000Y14310743D01*
X-712843Y14561321D01*
X-810613Y14797360D01*
X-952554Y15009790D01*
X-1133210Y15190446D01*
X-1345640Y15332387D01*
X-1581679Y15430157D01*
X-1696519Y15453000D01*
X-1581679Y15475843D01*
X-1345640Y15573613D01*
X-1133210Y15715554D01*
X-952554Y15896210D01*
X-810613Y16108640D01*
X-712843Y16344679D01*
X-663000Y16595257D01*
X-663000Y16850743D01*
X-712843Y17101321D01*
X-810613Y17337360D01*
X-952554Y17549790D01*
X-1133210Y17730446D01*
X-1345640Y17872387D01*
X-1581679Y17970157D01*
X-1696519Y17993000D01*
X-1581679Y18015843D01*
X-1345640Y18113613D01*
X-1133210Y18255554D01*
X-952554Y18436210D01*
X-810613Y18648640D01*
X-712843Y18884679D01*
X-663000Y19135257D01*
X-663000Y19390743D01*
X-712843Y19641321D01*
X-810613Y19877360D01*
X-952554Y20089790D01*
X-1133210Y20270446D01*
X-1345640Y20412387D01*
X-1581679Y20510157D01*
X-1696519Y20533000D01*
X-1581679Y20555843D01*
X-1345640Y20653613D01*
X-1133210Y20795554D01*
X-952554Y20976210D01*
X-810613Y21188640D01*
X-712843Y21424679D01*
X-663000Y21675257D01*
X-663000Y21930743D01*
X-712843Y22181321D01*
X-810613Y22417360D01*
X-952554Y22629790D01*
X-1133210Y22810446D01*
X-1345640Y22952387D01*
X-1581679Y23050157D01*
X-1696519Y23073000D01*
X-1581679Y23095843D01*
X-1345640Y23193613D01*
X-1133210Y23335554D01*
X-952554Y23516210D01*
X-810613Y23728640D01*
X-712843Y23964679D01*
X-663000Y24215257D01*
X-663000Y24470743D01*
X-712843Y24721321D01*
X-810613Y24957360D01*
X-952554Y25169790D01*
X-1133210Y25350446D01*
X-1345640Y25492387D01*
X-1581679Y25590157D01*
X-1696519Y25613000D01*
X-1581679Y25635843D01*
X-1345640Y25733613D01*
X-1133210Y25875554D01*
X-952554Y26056210D01*
X-810613Y26268640D01*
X-712843Y26504679D01*
X-663000Y26755257D01*
X-663000Y27010743D01*
X-712843Y27261321D01*
X-810613Y27497360D01*
X-952554Y27709790D01*
X-1133210Y27890446D01*
X-1345640Y28032387D01*
X-1581679Y28130157D01*
X-1696519Y28153000D01*
X-1581679Y28175843D01*
X-1345640Y28273613D01*
X-1133210Y28415554D01*
X-952554Y28596210D01*
X-810613Y28808640D01*
X-712843Y29044679D01*
X-663000Y29295257D01*
X-663000Y29550743D01*
X-712843Y29801321D01*
X-810613Y30037360D01*
X-952554Y30249790D01*
X-1133210Y30430446D01*
X-1345640Y30572387D01*
X-1581679Y30670157D01*
X-1696519Y30693000D01*
X-1581679Y30715843D01*
X-1345640Y30813613D01*
X-1133210Y30955554D01*
X-952554Y31136210D01*
X-810613Y31348640D01*
X-712843Y31584679D01*
X-663000Y31835257D01*
X-663000Y32090743D01*
X-712843Y32341321D01*
X-810613Y32577360D01*
X-952554Y32789790D01*
X-1133210Y32970446D01*
X-1345640Y33112387D01*
X-1581679Y33210157D01*
X-1696519Y33233000D01*
X-1581679Y33255843D01*
X-1345640Y33353613D01*
X-1133210Y33495554D01*
X-952554Y33676210D01*
X-810613Y33888640D01*
X-712843Y34124679D01*
X-663000Y34375257D01*
X-663000Y34630743D01*
X-712843Y34881321D01*
X-810613Y35117360D01*
X-952554Y35329790D01*
X-1133210Y35510446D01*
X-1345640Y35652387D01*
X-1581679Y35750157D01*
X-1696519Y35773000D01*
X-1581679Y35795843D01*
X-1345640Y35893613D01*
X-1133210Y36035554D01*
X-952554Y36216210D01*
X-810613Y36428640D01*
X-712843Y36664679D01*
X-663000Y36915257D01*
X-663000Y37170743D01*
X-712843Y37421321D01*
X-810613Y37657360D01*
X-952554Y37869790D01*
X-1133210Y38050446D01*
X-1345640Y38192387D01*
X-1581679Y38290157D01*
X-1696519Y38313000D01*
X-1581679Y38335843D01*
X-1345640Y38433613D01*
X-1133210Y38575554D01*
X-952554Y38756210D01*
X-810613Y38968640D01*
X-712843Y39204679D01*
X-663000Y39455257D01*
X-663000Y39710743D01*
X-712843Y39961321D01*
X-810613Y40197360D01*
X-952554Y40409790D01*
X-1133210Y40590446D01*
X-1345640Y40732387D01*
X-1581679Y40830157D01*
X-1696519Y40853000D01*
X-1581679Y40875843D01*
X-1345640Y40973613D01*
X-1133210Y41115554D01*
X-952554Y41296210D01*
X-810613Y41508640D01*
X-712843Y41744679D01*
X-663000Y41995257D01*
X-663000Y42250743D01*
X-712843Y42501321D01*
X-810613Y42737360D01*
X-952554Y42949790D01*
X-1133210Y43130446D01*
X-1345640Y43272387D01*
X-1581679Y43370157D01*
X-1696519Y43393000D01*
X-1581679Y43415843D01*
X-1345640Y43513613D01*
X-1133210Y43655554D01*
X-952554Y43836210D01*
X-810613Y44048640D01*
X-712843Y44284679D01*
X-663000Y44535257D01*
X-663000Y44790743D01*
X-712843Y45041321D01*
X-810613Y45277360D01*
X-952554Y45489790D01*
X-1133210Y45670446D01*
X-1345640Y45812387D01*
X-1581679Y45910157D01*
X-1696519Y45933000D01*
X-1581679Y45955843D01*
X-1345640Y46053613D01*
X-1133210Y46195554D01*
X-952554Y46376210D01*
X-810613Y46588640D01*
X-712843Y46824679D01*
X-663000Y47075257D01*
X-663000Y47330743D01*
X-712843Y47581321D01*
X-810613Y47817360D01*
X-952554Y48029790D01*
X-1133210Y48210446D01*
X-1345640Y48352387D01*
X-1581679Y48450157D01*
X-1696519Y48473000D01*
X-1581679Y48495843D01*
X-1345640Y48593613D01*
X-1133210Y48735554D01*
X-952554Y48916210D01*
X-810613Y49128640D01*
X-712843Y49364679D01*
X-663000Y49615257D01*
X-663000Y49870743D01*
X-712843Y50121321D01*
X-810613Y50357360D01*
X-952554Y50569790D01*
X-1133210Y50750446D01*
X-1345640Y50892387D01*
X-1581679Y50990157D01*
X-1696519Y51013000D01*
X-1581679Y51035843D01*
X-1345640Y51133613D01*
X-1133210Y51275554D01*
X-952554Y51456210D01*
X-810613Y51668640D01*
X-712843Y51904679D01*
X-663000Y52155257D01*
X-663000Y52410743D01*
X-712843Y52661321D01*
X-810613Y52897360D01*
X-952554Y53109790D01*
X-1133210Y53290446D01*
X-1345640Y53432387D01*
X-1581679Y53530157D01*
X-1832257Y53580000D01*
X-2087743Y53580000D01*
X-2338321Y53530157D01*
X-2574360Y53432387D01*
X-2786790Y53290446D01*
X-2967446Y53109790D01*
X-3109387Y52897360D01*
X-3207157Y52661321D01*
X-3230000Y52546481D01*
X-3252843Y52661321D01*
X-3350613Y52897360D01*
X-3492554Y53109790D01*
X-3673210Y53290446D01*
X-3885640Y53432387D01*
X-4121679Y53530157D01*
X-4372257Y53580000D01*
X-4627743Y53580000D01*
X-4878321Y53530157D01*
X-5114360Y53432387D01*
X-5326790Y53290446D01*
X-5507446Y53109790D01*
X-5649387Y52897360D01*
X-5747157Y52661321D01*
X-5797000Y52410743D01*
X-5797000Y52155257D01*
X-5747157Y51904679D01*
X-5649387Y51668640D01*
X-5507446Y51456210D01*
X-5326790Y51275554D01*
X-5114360Y51133613D01*
X-4878321Y51035843D01*
X-4763481Y51013000D01*
X-4878321Y50990157D01*
X-5114360Y50892387D01*
X-5326790Y50750446D01*
X-5507446Y50569790D01*
X-5649387Y50357360D01*
X-5747157Y50121321D01*
X-5797000Y49870743D01*
X-5797000Y49615257D01*
X-5747157Y49364679D01*
X-5649387Y49128640D01*
X-5507446Y48916210D01*
X-5326790Y48735554D01*
X-5114360Y48593613D01*
X-5061737Y48571816D01*
X-5131252Y48547157D01*
X-5381355Y48398178D01*
X-5597588Y48203269D01*
X-5771641Y47969920D01*
X-5896825Y47707099D01*
X-5941476Y47559890D01*
X-5820155Y47330000D01*
X-4627000Y47330000D01*
X-4627000Y47350000D01*
X-4373000Y47350000D01*
X-4373000Y47330000D01*
X-4353000Y47330000D01*
X-4353000Y47076000D01*
X-4373000Y47076000D01*
X-4373000Y47056000D01*
X-4627000Y47056000D01*
X-4627000Y47076000D01*
X-5820155Y47076000D01*
X-5941476Y46846110D01*
X-5896825Y46698901D01*
X-5771641Y46436080D01*
X-5597588Y46202731D01*
X-5381355Y46007822D01*
X-5131252Y45858843D01*
X-5061737Y45834184D01*
X-5114360Y45812387D01*
X-5326790Y45670446D01*
X-5507446Y45489790D01*
X-5649387Y45277360D01*
X-5747157Y45041321D01*
X-5797000Y44790743D01*
X-5797000Y44535257D01*
X-5747157Y44284679D01*
X-5649387Y44048640D01*
X-5507446Y43836210D01*
X-5326790Y43655554D01*
X-5114360Y43513613D01*
X-4878321Y43415843D01*
X-4763481Y43393000D01*
X-4878321Y43370157D01*
X-5114360Y43272387D01*
X-5326790Y43130446D01*
X-5507446Y42949790D01*
X-5649387Y42737360D01*
X-5747157Y42501321D01*
X-5797000Y42250743D01*
X-5797000Y41995257D01*
X-5747157Y41744679D01*
X-5649387Y41508640D01*
X-5507446Y41296210D01*
X-5326790Y41115554D01*
X-5114360Y40973613D01*
X-4878321Y40875843D01*
X-4763481Y40853000D01*
X-4878321Y40830157D01*
X-5114360Y40732387D01*
X-5326790Y40590446D01*
X-5507446Y40409790D01*
X-5649387Y40197360D01*
X-5747157Y39961321D01*
X-5797000Y39710743D01*
X-5797000Y39455257D01*
X-5747157Y39204679D01*
X-5649387Y38968640D01*
X-5507446Y38756210D01*
X-5326790Y38575554D01*
X-5114360Y38433613D01*
X-5061737Y38411816D01*
X-5131252Y38387157D01*
X-5381355Y38238178D01*
X-5597588Y38043269D01*
X-5771641Y37809920D01*
X-5896825Y37547099D01*
X-5941476Y37399890D01*
X-5820155Y37170000D01*
X-4627000Y37170000D01*
X-4627000Y37190000D01*
X-4373000Y37190000D01*
X-4373000Y37170000D01*
X-4353000Y37170000D01*
X-4353000Y36916000D01*
X-4373000Y36916000D01*
X-4373000Y36896000D01*
X-4627000Y36896000D01*
X-4627000Y36916000D01*
X-5820155Y36916000D01*
X-5941476Y36686110D01*
X-5896825Y36538901D01*
X-5771641Y36276080D01*
X-5597588Y36042731D01*
X-5381355Y35847822D01*
X-5131252Y35698843D01*
X-5061737Y35674184D01*
X-5114360Y35652387D01*
X-5326790Y35510446D01*
X-5507446Y35329790D01*
X-5649387Y35117360D01*
X-5747157Y34881321D01*
X-5797000Y34630743D01*
X-5797000Y34375257D01*
X-5747157Y34124679D01*
X-5649387Y33888640D01*
X-5507446Y33676210D01*
X-5326790Y33495554D01*
X-5114360Y33353613D01*
X-4878321Y33255843D01*
X-4763481Y33233000D01*
X-4878321Y33210157D01*
X-5114360Y33112387D01*
X-5326790Y32970446D01*
X-5507446Y32789790D01*
X-5649387Y32577360D01*
X-5747157Y32341321D01*
X-5797000Y32090743D01*
X-5797000Y31835257D01*
X-5747157Y31584679D01*
X-5649387Y31348640D01*
X-5507446Y31136210D01*
X-5326790Y30955554D01*
X-5114360Y30813613D01*
X-5061737Y30791816D01*
X-5131252Y30767157D01*
X-5381355Y30618178D01*
X-5597588Y30423269D01*
X-5771641Y30189920D01*
X-5896825Y29927099D01*
X-5941476Y29779890D01*
X-5820155Y29550000D01*
X-4627000Y29550000D01*
X-4627000Y29570000D01*
X-4373000Y29570000D01*
X-4373000Y29550000D01*
X-4353000Y29550000D01*
X-4353000Y29296000D01*
X-4373000Y29296000D01*
X-4373000Y29276000D01*
X-4627000Y29276000D01*
X-4627000Y29296000D01*
X-5820155Y29296000D01*
X-5941476Y29066110D01*
X-5896825Y28918901D01*
X-5771641Y28656080D01*
X-5597588Y28422731D01*
X-5381355Y28227822D01*
X-5131252Y28078843D01*
X-5061737Y28054184D01*
X-5114360Y28032387D01*
X-5326790Y27890446D01*
X-5507446Y27709790D01*
X-5649387Y27497360D01*
X-5747157Y27261321D01*
X-5797000Y27010743D01*
X-5797000Y26755257D01*
X-5747157Y26504679D01*
X-5649387Y26268640D01*
X-5507446Y26056210D01*
X-5326790Y25875554D01*
X-5114360Y25733613D01*
X-4878321Y25635843D01*
X-4763481Y25613000D01*
X-4878321Y25590157D01*
X-5114360Y25492387D01*
X-5326790Y25350446D01*
X-5507446Y25169790D01*
X-5649387Y24957360D01*
X-5747157Y24721321D01*
X-5797000Y24470743D01*
X-5797000Y24215257D01*
X-5747157Y23964679D01*
X-5649387Y23728640D01*
X-5507446Y23516210D01*
X-5326790Y23335554D01*
X-5114360Y23193613D01*
X-4878321Y23095843D01*
X-4763481Y23073000D01*
X-4878321Y23050157D01*
X-5114360Y22952387D01*
X-5326790Y22810446D01*
X-5507446Y22629790D01*
X-5649387Y22417360D01*
X-5747157Y22181321D01*
X-5797000Y21930743D01*
X-5797000Y21675257D01*
X-5747157Y21424679D01*
X-5649387Y21188640D01*
X-5507446Y20976210D01*
X-5326790Y20795554D01*
X-5114360Y20653613D01*
X-4878321Y20555843D01*
X-4763481Y20533000D01*
X-4878321Y20510157D01*
X-5114360Y20412387D01*
X-5326790Y20270446D01*
X-5507446Y20089790D01*
X-5649387Y19877360D01*
X-5747157Y19641321D01*
X-5797000Y19390743D01*
X-5797000Y19135257D01*
X-5747157Y18884679D01*
X-5649387Y18648640D01*
X-5507446Y18436210D01*
X-5326790Y18255554D01*
X-5114360Y18113613D01*
X-5061737Y18091816D01*
X-5131252Y18067157D01*
X-5381355Y17918178D01*
X-5597588Y17723269D01*
X-5771641Y17489920D01*
X-5896825Y17227099D01*
X-5941476Y17079890D01*
X-5820155Y16850000D01*
X-4627000Y16850000D01*
X-4627000Y16870000D01*
X-4373000Y16870000D01*
X-4373000Y16850000D01*
X-4353000Y16850000D01*
X-4353000Y16596000D01*
X-4373000Y16596000D01*
X-4373000Y16576000D01*
X-4627000Y16576000D01*
X-4627000Y16596000D01*
X-5820155Y16596000D01*
X-5941476Y16366110D01*
X-5896825Y16218901D01*
X-5771641Y15956080D01*
X-5597588Y15722731D01*
X-5381355Y15527822D01*
X-5131252Y15378843D01*
X-5061737Y15354184D01*
X-5114360Y15332387D01*
X-5326790Y15190446D01*
X-5507446Y15009790D01*
X-5649387Y14797360D01*
X-5747157Y14561321D01*
X-5797000Y14310743D01*
X-5797000Y14055257D01*
X-5747157Y13804679D01*
X-5649387Y13568640D01*
X-5507446Y13356210D01*
X-5326790Y13175554D01*
X-5114360Y13033613D01*
X-5061737Y13011816D01*
X-5131252Y12987157D01*
X-5381355Y12838178D01*
X-5597588Y12643269D01*
X-5771641Y12409920D01*
X-5896825Y12147099D01*
X-5941476Y11999890D01*
X-5820155Y11770000D01*
X-4627000Y11770000D01*
X-4627000Y11790000D01*
X-4373000Y11790000D01*
X-4373000Y11770000D01*
X-4353000Y11770000D01*
X-4353000Y11516000D01*
X-4373000Y11516000D01*
X-4373000Y11496000D01*
X-4627000Y11496000D01*
X-4627000Y11516000D01*
X-5820155Y11516000D01*
X-5941476Y11286110D01*
X-5896825Y11138901D01*
X-5771641Y10876080D01*
X-5597588Y10642731D01*
X-5381355Y10447822D01*
X-5131252Y10298843D01*
X-5061737Y10274184D01*
X-5114360Y10252387D01*
X-5326790Y10110446D01*
X-5507446Y9929790D01*
X-5649387Y9717360D01*
X-5747157Y9481321D01*
X-5797000Y9230743D01*
X-5797000Y8975257D01*
X-5747157Y8724679D01*
X-5649387Y8488640D01*
X-5507446Y8276210D01*
X-5326790Y8095554D01*
X-5114360Y7953613D01*
X-4878321Y7855843D01*
X-4763481Y7833000D01*
X-4878321Y7810157D01*
X-5114360Y7712387D01*
X-5326790Y7570446D01*
X-5507446Y7389790D01*
X-5649387Y7177360D01*
X-5747157Y6941321D01*
X-5797000Y6690743D01*
X-5797000Y6435257D01*
X-5747157Y6184679D01*
X-5649387Y5948640D01*
X-5507446Y5736210D01*
X-5326790Y5555554D01*
X-5114360Y5413613D01*
X-4893577Y5322162D01*
X-5350000Y5322162D01*
X-5437627Y5313531D01*
X-5521887Y5287972D01*
X-5599541Y5246465D01*
X-5667605Y5190605D01*
X-5723465Y5122541D01*
X-5764972Y5044887D01*
X-5790531Y4960627D01*
X-5799162Y4873000D01*
X-5799162Y3173000D01*
X-5790531Y3085373D01*
X-5764972Y3001113D01*
X-5723465Y2923459D01*
X-5667605Y2855395D01*
X-5599541Y2799535D01*
X-5521887Y2758028D01*
X-5437627Y2732469D01*
X-5350000Y2723838D01*
X-3650000Y2723838D01*
X-3562373Y2732469D01*
X-3478113Y2758028D01*
X-3400459Y2799535D01*
X-3332395Y2855395D01*
X-3276535Y2923459D01*
X-3235028Y3001113D01*
X-3209469Y3085373D01*
X-3200838Y3173000D01*
X-3200838Y3214783D01*
X-3057588Y3022731D01*
X-2841355Y2827822D01*
X-2591252Y2678843D01*
X-2316891Y2581519D01*
X-2087000Y2702186D01*
X-2087000Y3896000D01*
X-2107000Y3896000D01*
X-2107000Y4150000D01*
X-2087000Y4150000D01*
X-2087000Y4170000D01*
X-1833000Y4170000D01*
X-1833000Y4150000D01*
X-1813000Y4150000D01*
X-1813000Y3896000D01*
X-1833000Y3896000D01*
X-1833000Y2702186D01*
X-1603109Y2581519D01*
X-1328748Y2678843D01*
X-1078645Y2827822D01*
X-862412Y3022731D01*
X-688359Y3256080D01*
X-563175Y3518901D01*
X-521999Y3654653D01*
X-521999Y545000D01*
X-42478000Y545000D01*
X-42478000Y3317074D01*
X-39962000Y3317074D01*
X-39962000Y2908926D01*
X-39882375Y2508620D01*
X-39726183Y2131540D01*
X-39499428Y1792177D01*
X-39210823Y1503572D01*
X-38871460Y1276817D01*
X-38494380Y1120625D01*
X-38094074Y1041000D01*
X-37685926Y1041000D01*
X-37285620Y1120625D01*
X-36908540Y1276817D01*
X-36569177Y1503572D01*
X-36280572Y1792177D01*
X-36053817Y2131540D01*
X-35897625Y2508620D01*
X-35818000Y2908926D01*
X-35818000Y3317074D01*
X-35897625Y3717380D01*
X-36053817Y4094460D01*
X-36280572Y4433823D01*
X-36569177Y4722428D01*
X-36908540Y4949183D01*
X-37285620Y5105375D01*
X-37685926Y5185000D01*
X-38094074Y5185000D01*
X-38494380Y5105375D01*
X-38871460Y4949183D01*
X-39210823Y4722428D01*
X-39499428Y4433823D01*
X-39726183Y4094460D01*
X-39882375Y3717380D01*
X-39962000Y3317074D01*
X-42478000Y3317074D01*
X-42478000Y5533000D01*
X-32938072Y5533000D01*
X-32925812Y5408518D01*
X-32889502Y5288820D01*
X-32830537Y5178506D01*
X-32751185Y5081815D01*
X-32654494Y5002463D01*
X-32544180Y4943498D01*
X-32424482Y4907188D01*
X-32300000Y4894928D01*
X-31825750Y4898000D01*
X-31667000Y5056750D01*
X-31667000Y6166000D01*
X-31413000Y6166000D01*
X-31413000Y5056750D01*
X-31254250Y4898000D01*
X-30780000Y4894928D01*
X-30655518Y4907188D01*
X-30535820Y4943498D01*
X-30425506Y5002463D01*
X-30328815Y5081815D01*
X-30249463Y5178506D01*
X-30190498Y5288820D01*
X-30154188Y5408518D01*
X-30141928Y5533000D01*
X-30145000Y6007250D01*
X-30303750Y6166000D01*
X-31413000Y6166000D01*
X-31667000Y6166000D01*
X-32776250Y6166000D01*
X-32935000Y6007250D01*
X-32938072Y5533000D01*
X-42478000Y5533000D01*
X-42478000Y7053000D01*
X-32938072Y7053000D01*
X-32935000Y6578750D01*
X-32776250Y6420000D01*
X-31667000Y6420000D01*
X-31667000Y6440000D01*
X-31413000Y6440000D01*
X-31413000Y6420000D01*
X-30303750Y6420000D01*
X-30145000Y6578750D01*
X-30141928Y7053000D01*
X-30154188Y7177482D01*
X-30190498Y7297180D01*
X-30249463Y7407494D01*
X-30328815Y7504185D01*
X-30425506Y7583537D01*
X-30535820Y7642502D01*
X-30655518Y7678812D01*
X-30780000Y7691072D01*
X-31254250Y7688000D01*
X-31412998Y7529252D01*
X-31412998Y7657616D01*
X-31187931Y7702384D01*
X-31165009Y7711879D01*
X-30207000Y7711879D01*
X-30207000Y7474121D01*
X-30160616Y7240931D01*
X-30069629Y7021271D01*
X-29937538Y6823582D01*
X-29769418Y6655462D01*
X-29571729Y6523371D01*
X-29352069Y6432384D01*
X-29118879Y6386000D01*
X-28881121Y6386000D01*
X-28647931Y6432384D01*
X-28428271Y6523371D01*
X-28230582Y6655462D01*
X-28062462Y6823582D01*
X-27930371Y7021271D01*
X-27839384Y7240931D01*
X-27793000Y7474121D01*
X-27793000Y7711879D01*
X-27839384Y7945069D01*
X-27930371Y8164729D01*
X-28062462Y8362418D01*
X-28230582Y8530538D01*
X-28428271Y8662629D01*
X-28647931Y8753616D01*
X-28881121Y8800000D01*
X-29118879Y8800000D01*
X-29352069Y8753616D01*
X-29571729Y8662629D01*
X-29769418Y8530538D01*
X-29937538Y8362418D01*
X-30069629Y8164729D01*
X-30160616Y7945069D01*
X-30207000Y7711879D01*
X-31165009Y7711879D01*
X-30968271Y7793371D01*
X-30770582Y7925462D01*
X-30602462Y8093582D01*
X-30470371Y8291271D01*
X-30379384Y8510931D01*
X-30333000Y8744121D01*
X-30333000Y8981879D01*
X-30379384Y9215069D01*
X-30470371Y9434729D01*
X-30602462Y9632418D01*
X-30770582Y9800538D01*
X-30968271Y9932629D01*
X-31187931Y10023616D01*
X-31421121Y10070000D01*
X-31658879Y10070000D01*
X-31892069Y10023616D01*
X-32111729Y9932629D01*
X-32309418Y9800538D01*
X-32477538Y9632418D01*
X-32609629Y9434729D01*
X-32700616Y9215069D01*
X-32747000Y8981879D01*
X-32747000Y8744121D01*
X-32700616Y8510931D01*
X-32609629Y8291271D01*
X-32477538Y8093582D01*
X-32309418Y7925462D01*
X-32111729Y7793371D01*
X-31892069Y7702384D01*
X-31667002Y7657616D01*
X-31667002Y7529252D01*
X-31825750Y7688000D01*
X-32300000Y7691072D01*
X-32424482Y7678812D01*
X-32544180Y7642502D01*
X-32654494Y7583537D01*
X-32751185Y7504185D01*
X-32830537Y7407494D01*
X-32889502Y7297180D01*
X-32925812Y7177482D01*
X-32938072Y7053000D01*
X-42478000Y7053000D01*
X-42478000Y10221879D01*
X-30207000Y10221879D01*
X-30207000Y9984121D01*
X-30160616Y9750931D01*
X-30069629Y9531271D01*
X-29937538Y9333582D01*
X-29769418Y9165462D01*
X-29571729Y9033371D01*
X-29352069Y8942384D01*
X-29118879Y8896000D01*
X-28881121Y8896000D01*
X-28647931Y8942384D01*
X-28428271Y9033371D01*
X-28230582Y9165462D01*
X-28062462Y9333582D01*
X-27930371Y9531271D01*
X-27839384Y9750931D01*
X-27793000Y9984121D01*
X-27793000Y10221879D01*
X-27839384Y10455069D01*
X-27930371Y10674729D01*
X-28062462Y10872418D01*
X-28230582Y11040538D01*
X-28428271Y11172629D01*
X-28647931Y11263616D01*
X-28881121Y11310000D01*
X-29118879Y11310000D01*
X-29352069Y11263616D01*
X-29571729Y11172629D01*
X-29769418Y11040538D01*
X-29937538Y10872418D01*
X-30069629Y10674729D01*
X-30160616Y10455069D01*
X-30207000Y10221879D01*
X-42478000Y10221879D01*
X-42478000Y16817074D01*
X-39962000Y16817074D01*
X-39962000Y16408926D01*
X-39882375Y16008620D01*
X-39726183Y15631540D01*
X-39499428Y15292177D01*
X-39210823Y15003572D01*
X-39120171Y14943000D01*
X-39210823Y14882428D01*
X-39499428Y14593823D01*
X-39726183Y14254460D01*
X-39882375Y13877380D01*
X-39962000Y13477074D01*
X-39962000Y13068926D01*
X-39882375Y12668620D01*
X-39726183Y12291540D01*
X-39499428Y11952177D01*
X-39210823Y11663572D01*
X-38871460Y11436817D01*
X-38494380Y11280625D01*
X-38094074Y11201000D01*
X-37685926Y11201000D01*
X-37285620Y11280625D01*
X-36908540Y11436817D01*
X-36569177Y11663572D01*
X-36280572Y11952177D01*
X-36053817Y12291540D01*
X-35897625Y12668620D01*
X-35818000Y13068926D01*
X-35818000Y13477074D01*
X-35897625Y13877380D01*
X-36053817Y14254460D01*
X-36280572Y14593823D01*
X-36569177Y14882428D01*
X-36659829Y14943000D01*
X-36569177Y15003572D01*
X-36280572Y15292177D01*
X-36053817Y15631540D01*
X-35897625Y16008620D01*
X-35818000Y16408926D01*
X-35818000Y16817074D01*
X-35897625Y17217380D01*
X-36053817Y17594460D01*
X-36280572Y17933823D01*
X-36569177Y18222428D01*
X-36908540Y18449183D01*
X-37285620Y18605375D01*
X-37685926Y18685000D01*
X-38094074Y18685000D01*
X-38494380Y18605375D01*
X-38871460Y18449183D01*
X-39210823Y18222428D01*
X-39499428Y17933823D01*
X-39726183Y17594460D01*
X-39882375Y17217380D01*
X-39962000Y16817074D01*
X-42478000Y16817074D01*
X-42478000Y19033000D01*
X-32938072Y19033000D01*
X-32925812Y18908518D01*
X-32889502Y18788820D01*
X-32830537Y18678506D01*
X-32751185Y18581815D01*
X-32654494Y18502463D01*
X-32544180Y18443498D01*
X-32424482Y18407188D01*
X-32300000Y18394928D01*
X-31825750Y18398000D01*
X-31667000Y18556750D01*
X-31667000Y19666000D01*
X-31413000Y19666000D01*
X-31413000Y18556750D01*
X-31254250Y18398000D01*
X-30780000Y18394928D01*
X-30655518Y18407188D01*
X-30535820Y18443498D01*
X-30425506Y18502463D01*
X-30328815Y18581815D01*
X-30249463Y18678506D01*
X-30190498Y18788820D01*
X-30154188Y18908518D01*
X-30141928Y19033000D01*
X-30145000Y19507250D01*
X-30303750Y19666000D01*
X-31413000Y19666000D01*
X-31667000Y19666000D01*
X-32776250Y19666000D01*
X-32935000Y19507250D01*
X-32938072Y19033000D01*
X-42478000Y19033000D01*
X-42478000Y20553000D01*
X-32938072Y20553000D01*
X-32935000Y20078750D01*
X-32776250Y19920000D01*
X-31667000Y19920000D01*
X-31667000Y19940000D01*
X-31413000Y19940000D01*
X-31413000Y19920000D01*
X-30303750Y19920000D01*
X-30145000Y20078750D01*
X-30141928Y20553000D01*
X-30154188Y20677482D01*
X-30190498Y20797180D01*
X-30249463Y20907494D01*
X-30328815Y21004185D01*
X-30425506Y21083537D01*
X-30535820Y21142502D01*
X-30655518Y21178812D01*
X-30780000Y21191072D01*
X-31254250Y21188000D01*
X-31412998Y21029252D01*
X-31412998Y21157616D01*
X-31187931Y21202384D01*
X-31165009Y21211879D01*
X-30207000Y21211879D01*
X-30207000Y20974121D01*
X-30160616Y20740931D01*
X-30069629Y20521271D01*
X-29937538Y20323582D01*
X-29769418Y20155462D01*
X-29571729Y20023371D01*
X-29352069Y19932384D01*
X-29118879Y19886000D01*
X-28881121Y19886000D01*
X-28647931Y19932384D01*
X-28428271Y20023371D01*
X-28230582Y20155462D01*
X-28062462Y20323582D01*
X-27930371Y20521271D01*
X-27839384Y20740931D01*
X-27793000Y20974121D01*
X-27793000Y21211879D01*
X-27839384Y21445069D01*
X-27930371Y21664729D01*
X-28062462Y21862418D01*
X-28230582Y22030538D01*
X-28428271Y22162629D01*
X-28647931Y22253616D01*
X-28881121Y22300000D01*
X-29118879Y22300000D01*
X-29352069Y22253616D01*
X-29571729Y22162629D01*
X-29769418Y22030538D01*
X-29937538Y21862418D01*
X-30069629Y21664729D01*
X-30160616Y21445069D01*
X-30207000Y21211879D01*
X-31165009Y21211879D01*
X-30968271Y21293371D01*
X-30770582Y21425462D01*
X-30602462Y21593582D01*
X-30470371Y21791271D01*
X-30379384Y22010931D01*
X-30333000Y22244121D01*
X-30333000Y22481879D01*
X-30379384Y22715069D01*
X-30470371Y22934729D01*
X-30602462Y23132418D01*
X-30770582Y23300538D01*
X-30968271Y23432629D01*
X-31187931Y23523616D01*
X-31421121Y23570000D01*
X-31658879Y23570000D01*
X-31892069Y23523616D01*
X-32111729Y23432629D01*
X-32309418Y23300538D01*
X-32477538Y23132418D01*
X-32609629Y22934729D01*
X-32700616Y22715069D01*
X-32747000Y22481879D01*
X-32747000Y22244121D01*
X-32700616Y22010931D01*
X-32609629Y21791271D01*
X-32477538Y21593582D01*
X-32309418Y21425462D01*
X-32111729Y21293371D01*
X-31892069Y21202384D01*
X-31667002Y21157616D01*
X-31667002Y21029252D01*
X-31825750Y21188000D01*
X-32300000Y21191072D01*
X-32424482Y21178812D01*
X-32544180Y21142502D01*
X-32654494Y21083537D01*
X-32751185Y21004185D01*
X-32830537Y20907494D01*
X-32889502Y20797180D01*
X-32925812Y20677482D01*
X-32938072Y20553000D01*
X-42478000Y20553000D01*
X-42478000Y23721879D01*
X-30207000Y23721879D01*
X-30207000Y23484121D01*
X-30160616Y23250931D01*
X-30069629Y23031271D01*
X-29937538Y22833582D01*
X-29769418Y22665462D01*
X-29571729Y22533371D01*
X-29352069Y22442384D01*
X-29118879Y22396000D01*
X-28881121Y22396000D01*
X-28647931Y22442384D01*
X-28428271Y22533371D01*
X-28230582Y22665462D01*
X-28062462Y22833582D01*
X-27930371Y23031271D01*
X-27839384Y23250931D01*
X-27793000Y23484121D01*
X-27793000Y23721879D01*
X-27839384Y23955069D01*
X-27930371Y24174729D01*
X-28062462Y24372418D01*
X-28230582Y24540538D01*
X-28428271Y24672629D01*
X-28647931Y24763616D01*
X-28881121Y24810000D01*
X-29118879Y24810000D01*
X-29352069Y24763616D01*
X-29571729Y24672629D01*
X-29769418Y24540538D01*
X-29937538Y24372418D01*
X-30069629Y24174729D01*
X-30160616Y23955069D01*
X-30207000Y23721879D01*
X-42478000Y23721879D01*
X-42478000Y30317074D01*
X-39962000Y30317074D01*
X-39962000Y29908926D01*
X-39882375Y29508620D01*
X-39726183Y29131540D01*
X-39499428Y28792177D01*
X-39210823Y28503572D01*
X-39120171Y28443000D01*
X-39210823Y28382428D01*
X-39499428Y28093823D01*
X-39726183Y27754460D01*
X-39882375Y27377380D01*
X-39962000Y26977074D01*
X-39962000Y26568926D01*
X-39882375Y26168620D01*
X-39726183Y25791540D01*
X-39499428Y25452177D01*
X-39210823Y25163572D01*
X-38871460Y24936817D01*
X-38494380Y24780625D01*
X-38094074Y24701000D01*
X-37685926Y24701000D01*
X-37285620Y24780625D01*
X-36908540Y24936817D01*
X-36569177Y25163572D01*
X-36280572Y25452177D01*
X-36053817Y25791540D01*
X-35897625Y26168620D01*
X-35818000Y26568926D01*
X-35818000Y26977074D01*
X-35897625Y27377380D01*
X-36053817Y27754460D01*
X-36280572Y28093823D01*
X-36569177Y28382428D01*
X-36659829Y28443000D01*
X-36569177Y28503572D01*
X-36280572Y28792177D01*
X-36053817Y29131540D01*
X-35897625Y29508620D01*
X-35818000Y29908926D01*
X-35818000Y30317074D01*
X-35897625Y30717380D01*
X-36053817Y31094460D01*
X-36280572Y31433823D01*
X-36569177Y31722428D01*
X-36908540Y31949183D01*
X-37285620Y32105375D01*
X-37685926Y32185000D01*
X-38094074Y32185000D01*
X-38494380Y32105375D01*
X-38871460Y31949183D01*
X-39210823Y31722428D01*
X-39499428Y31433823D01*
X-39726183Y31094460D01*
X-39882375Y30717380D01*
X-39962000Y30317074D01*
X-42478000Y30317074D01*
X-42478000Y32533000D01*
X-32938072Y32533000D01*
X-32925812Y32408518D01*
X-32889502Y32288820D01*
X-32830537Y32178506D01*
X-32751185Y32081815D01*
X-32654494Y32002463D01*
X-32544180Y31943498D01*
X-32424482Y31907188D01*
X-32300000Y31894928D01*
X-31825750Y31898000D01*
X-31667000Y32056750D01*
X-31667000Y33166000D01*
X-31413000Y33166000D01*
X-31413000Y32056750D01*
X-31254250Y31898000D01*
X-30780000Y31894928D01*
X-30655518Y31907188D01*
X-30535820Y31943498D01*
X-30425506Y32002463D01*
X-30328815Y32081815D01*
X-30249463Y32178506D01*
X-30190498Y32288820D01*
X-30154188Y32408518D01*
X-30141928Y32533000D01*
X-30145000Y33007250D01*
X-30303750Y33166000D01*
X-31413000Y33166000D01*
X-31667000Y33166000D01*
X-32776250Y33166000D01*
X-32935000Y33007250D01*
X-32938072Y32533000D01*
X-42478000Y32533000D01*
X-42478000Y34053000D01*
X-32938072Y34053000D01*
X-32935000Y33578750D01*
X-32776250Y33420000D01*
X-31667000Y33420000D01*
X-31667000Y33440000D01*
X-31413000Y33440000D01*
X-31413000Y33420000D01*
X-30303750Y33420000D01*
X-30145000Y33578750D01*
X-30141928Y34053000D01*
X-30154188Y34177482D01*
X-30190498Y34297180D01*
X-30249463Y34407494D01*
X-30328815Y34504185D01*
X-30425506Y34583537D01*
X-30535820Y34642502D01*
X-30655518Y34678812D01*
X-30780000Y34691072D01*
X-31254250Y34688000D01*
X-31412998Y34529252D01*
X-31412998Y34657616D01*
X-31187931Y34702384D01*
X-31165009Y34711879D01*
X-30207000Y34711879D01*
X-30207000Y34474121D01*
X-30160616Y34240931D01*
X-30069629Y34021271D01*
X-29937538Y33823582D01*
X-29769418Y33655462D01*
X-29571729Y33523371D01*
X-29352069Y33432384D01*
X-29118879Y33386000D01*
X-28881121Y33386000D01*
X-28647931Y33432384D01*
X-28428271Y33523371D01*
X-28230582Y33655462D01*
X-28062462Y33823582D01*
X-27930371Y34021271D01*
X-27839384Y34240931D01*
X-27793000Y34474121D01*
X-27793000Y34711879D01*
X-27839384Y34945069D01*
X-27930371Y35164729D01*
X-28062462Y35362418D01*
X-28230582Y35530538D01*
X-28428271Y35662629D01*
X-28647931Y35753616D01*
X-28881121Y35800000D01*
X-29118879Y35800000D01*
X-29352069Y35753616D01*
X-29571729Y35662629D01*
X-29769418Y35530538D01*
X-29937538Y35362418D01*
X-30069629Y35164729D01*
X-30160616Y34945069D01*
X-30207000Y34711879D01*
X-31165009Y34711879D01*
X-30968271Y34793371D01*
X-30770582Y34925462D01*
X-30602462Y35093582D01*
X-30470371Y35291271D01*
X-30379384Y35510931D01*
X-30333000Y35744121D01*
X-30333000Y35981879D01*
X-30379384Y36215069D01*
X-30470371Y36434729D01*
X-30602462Y36632418D01*
X-30770582Y36800538D01*
X-30968271Y36932629D01*
X-31187931Y37023616D01*
X-31421121Y37070000D01*
X-31658879Y37070000D01*
X-31892069Y37023616D01*
X-32111729Y36932629D01*
X-32309418Y36800538D01*
X-32477538Y36632418D01*
X-32609629Y36434729D01*
X-32700616Y36215069D01*
X-32747000Y35981879D01*
X-32747000Y35744121D01*
X-32700616Y35510931D01*
X-32609629Y35291271D01*
X-32477538Y35093582D01*
X-32309418Y34925462D01*
X-32111729Y34793371D01*
X-31892069Y34702384D01*
X-31667002Y34657616D01*
X-31667002Y34529252D01*
X-31825750Y34688000D01*
X-32300000Y34691072D01*
X-32424482Y34678812D01*
X-32544180Y34642502D01*
X-32654494Y34583537D01*
X-32751185Y34504185D01*
X-32830537Y34407494D01*
X-32889502Y34297180D01*
X-32925812Y34177482D01*
X-32938072Y34053000D01*
X-42478000Y34053000D01*
X-42478000Y37221879D01*
X-30207000Y37221879D01*
X-30207000Y36984121D01*
X-30160616Y36750931D01*
X-30069629Y36531271D01*
X-29937538Y36333582D01*
X-29769418Y36165462D01*
X-29571729Y36033371D01*
X-29352069Y35942384D01*
X-29118879Y35896000D01*
X-28881121Y35896000D01*
X-28647931Y35942384D01*
X-28428271Y36033371D01*
X-28230582Y36165462D01*
X-28062462Y36333582D01*
X-27930371Y36531271D01*
X-27839384Y36750931D01*
X-27793000Y36984121D01*
X-27793000Y37221879D01*
X-27839384Y37455069D01*
X-27930371Y37674729D01*
X-28062462Y37872418D01*
X-28230582Y38040538D01*
X-28428271Y38172629D01*
X-28647931Y38263616D01*
X-28881121Y38310000D01*
X-29118879Y38310000D01*
X-29352069Y38263616D01*
X-29571729Y38172629D01*
X-29769418Y38040538D01*
X-29937538Y37872418D01*
X-30069629Y37674729D01*
X-30160616Y37455069D01*
X-30207000Y37221879D01*
X-42478000Y37221879D01*
X-42478000Y43817074D01*
X-39962000Y43817074D01*
X-39962000Y43408926D01*
X-39882375Y43008620D01*
X-39726183Y42631540D01*
X-39499428Y42292177D01*
X-39210823Y42003572D01*
X-39120171Y41943000D01*
X-39210823Y41882428D01*
X-39499428Y41593823D01*
X-39726183Y41254460D01*
X-39882375Y40877380D01*
X-39962000Y40477074D01*
X-39962000Y40068926D01*
X-39882375Y39668620D01*
X-39726183Y39291540D01*
X-39499428Y38952177D01*
X-39210823Y38663572D01*
X-38871460Y38436817D01*
X-38494380Y38280625D01*
X-38094074Y38201000D01*
X-37685926Y38201000D01*
X-37285620Y38280625D01*
X-36908540Y38436817D01*
X-36569177Y38663572D01*
X-36280572Y38952177D01*
X-36053817Y39291540D01*
X-35897625Y39668620D01*
X-35818000Y40068926D01*
X-35818000Y40477074D01*
X-35897625Y40877380D01*
X-36053817Y41254460D01*
X-36280572Y41593823D01*
X-36569177Y41882428D01*
X-36659829Y41943000D01*
X-36569177Y42003572D01*
X-36280572Y42292177D01*
X-36053817Y42631540D01*
X-35897625Y43008620D01*
X-35818000Y43408926D01*
X-35818000Y43817074D01*
X-35897625Y44217380D01*
X-36053817Y44594460D01*
X-36280572Y44933823D01*
X-36569177Y45222428D01*
X-36908540Y45449183D01*
X-37285620Y45605375D01*
X-37685926Y45685000D01*
X-38094074Y45685000D01*
X-38494380Y45605375D01*
X-38871460Y45449183D01*
X-39210823Y45222428D01*
X-39499428Y44933823D01*
X-39726183Y44594460D01*
X-39882375Y44217380D01*
X-39962000Y43817074D01*
X-42478000Y43817074D01*
X-42478000Y46033000D01*
X-32938072Y46033000D01*
X-32925812Y45908518D01*
X-32889502Y45788820D01*
X-32830537Y45678506D01*
X-32751185Y45581815D01*
X-32654494Y45502463D01*
X-32544180Y45443498D01*
X-32424482Y45407188D01*
X-32300000Y45394928D01*
X-31825750Y45398000D01*
X-31667000Y45556750D01*
X-31667000Y46666000D01*
X-31413000Y46666000D01*
X-31413000Y45556750D01*
X-31254250Y45398000D01*
X-30780000Y45394928D01*
X-30655518Y45407188D01*
X-30535820Y45443498D01*
X-30425506Y45502463D01*
X-30328815Y45581815D01*
X-30249463Y45678506D01*
X-30190498Y45788820D01*
X-30154188Y45908518D01*
X-30141928Y46033000D01*
X-30145000Y46507250D01*
X-30303750Y46666000D01*
X-31413000Y46666000D01*
X-31667000Y46666000D01*
X-32776250Y46666000D01*
X-32935000Y46507250D01*
X-32938072Y46033000D01*
X-42478000Y46033000D01*
X-42478000Y47553000D01*
X-32938072Y47553000D01*
X-32935000Y47078750D01*
X-32776250Y46920000D01*
X-31667000Y46920000D01*
X-31667000Y46940000D01*
X-31413000Y46940000D01*
X-31413000Y46920000D01*
X-30303750Y46920000D01*
X-30145000Y47078750D01*
X-30141928Y47553000D01*
X-30154188Y47677482D01*
X-30190498Y47797180D01*
X-30249463Y47907494D01*
X-30328815Y48004185D01*
X-30425506Y48083537D01*
X-30535820Y48142502D01*
X-30655518Y48178812D01*
X-30780000Y48191072D01*
X-31254250Y48188000D01*
X-31412998Y48029252D01*
X-31412998Y48157616D01*
X-31187931Y48202384D01*
X-31165009Y48211879D01*
X-30207000Y48211879D01*
X-30207000Y47974121D01*
X-30160616Y47740931D01*
X-30069629Y47521271D01*
X-29937538Y47323582D01*
X-29769418Y47155462D01*
X-29571729Y47023371D01*
X-29352069Y46932384D01*
X-29118879Y46886000D01*
X-28881121Y46886000D01*
X-28647931Y46932384D01*
X-28428271Y47023371D01*
X-28230582Y47155462D01*
X-28062462Y47323582D01*
X-27930371Y47521271D01*
X-27839384Y47740931D01*
X-27793000Y47974121D01*
X-27793000Y48211879D01*
X-27839384Y48445069D01*
X-27930371Y48664729D01*
X-28062462Y48862418D01*
X-28230582Y49030538D01*
X-28428271Y49162629D01*
X-28647931Y49253616D01*
X-28881121Y49300000D01*
X-29118879Y49300000D01*
X-29352069Y49253616D01*
X-29571729Y49162629D01*
X-29769418Y49030538D01*
X-29937538Y48862418D01*
X-30069629Y48664729D01*
X-30160616Y48445069D01*
X-30207000Y48211879D01*
X-31165009Y48211879D01*
X-30968271Y48293371D01*
X-30770582Y48425462D01*
X-30602462Y48593582D01*
X-30470371Y48791271D01*
X-30379384Y49010931D01*
X-30333000Y49244121D01*
X-30333000Y49481879D01*
X-30379384Y49715069D01*
X-30470371Y49934729D01*
X-30602462Y50132418D01*
X-30770582Y50300538D01*
X-30968271Y50432629D01*
X-31187931Y50523616D01*
X-31421121Y50570000D01*
X-31658879Y50570000D01*
X-31892069Y50523616D01*
X-32111729Y50432629D01*
X-32309418Y50300538D01*
X-32477538Y50132418D01*
X-32609629Y49934729D01*
X-32700616Y49715069D01*
X-32747000Y49481879D01*
X-32747000Y49244121D01*
X-32700616Y49010931D01*
X-32609629Y48791271D01*
X-32477538Y48593582D01*
X-32309418Y48425462D01*
X-32111729Y48293371D01*
X-31892069Y48202384D01*
X-31667002Y48157616D01*
X-31667002Y48029252D01*
X-31825750Y48188000D01*
X-32300000Y48191072D01*
X-32424482Y48178812D01*
X-32544180Y48142502D01*
X-32654494Y48083537D01*
X-32751185Y48004185D01*
X-32830537Y47907494D01*
X-32889502Y47797180D01*
X-32925812Y47677482D01*
X-32938072Y47553000D01*
X-42478000Y47553000D01*
X-42478000Y50721879D01*
X-30207000Y50721879D01*
X-30207000Y50484121D01*
X-30160616Y50250931D01*
X-30069629Y50031271D01*
X-29937538Y49833582D01*
X-29769418Y49665462D01*
X-29571729Y49533371D01*
X-29352069Y49442384D01*
X-29118879Y49396000D01*
X-28881121Y49396000D01*
X-28647931Y49442384D01*
X-28428271Y49533371D01*
X-28230582Y49665462D01*
X-28062462Y49833582D01*
X-27930371Y50031271D01*
X-27839384Y50250931D01*
X-27793000Y50484121D01*
X-27793000Y50721879D01*
X-27839384Y50955069D01*
X-27930371Y51174729D01*
X-28062462Y51372418D01*
X-28230582Y51540538D01*
X-28428271Y51672629D01*
X-28647931Y51763616D01*
X-28881121Y51810000D01*
X-29118879Y51810000D01*
X-29352069Y51763616D01*
X-29571729Y51672629D01*
X-29769418Y51540538D01*
X-29937538Y51372418D01*
X-30069629Y51174729D01*
X-30160616Y50955069D01*
X-30207000Y50721879D01*
X-42478000Y50721879D01*
X-42478000Y53977074D01*
X-39962000Y53977074D01*
X-39962000Y53568926D01*
X-39882375Y53168620D01*
X-39726183Y52791540D01*
X-39499428Y52452177D01*
X-39210823Y52163572D01*
X-38871460Y51936817D01*
X-38494380Y51780625D01*
X-38094074Y51701000D01*
X-37685926Y51701000D01*
X-37285620Y51780625D01*
X-36908540Y51936817D01*
X-36569177Y52163572D01*
X-36280572Y52452177D01*
X-36053817Y52791540D01*
X-35897625Y53168620D01*
X-35818000Y53568926D01*
X-35818000Y53977074D01*
X-35897625Y54377380D01*
X-36053817Y54754460D01*
X-36280572Y55093823D01*
X-36569177Y55382428D01*
X-36908540Y55609183D01*
X-37285620Y55765375D01*
X-37685926Y55845000D01*
X-38094074Y55845000D01*
X-38494380Y55765375D01*
X-38871460Y55609183D01*
X-39210823Y55382428D01*
X-39499428Y55093823D01*
X-39726183Y54754460D01*
X-39882375Y54377380D01*
X-39962000Y53977074D01*
X-42478000Y53977074D01*
X-42478000Y56501000D01*
X-522000Y56501000D01*
X-521999Y4391347D01*
M02*
