G04 #@! TF.GenerationSoftware,KiCad,Pcbnew,5.1.5-52549c5~84~ubuntu19.10.1*
G04 #@! TF.CreationDate,2020-01-22T18:54:25-06:00*
G04 #@! TF.ProjectId,PiKwonDoHAT,50694b77-6f6e-4446-9f48-41542e6b6963,rev?*
G04 #@! TF.SameCoordinates,PX6bc3e40PY7b85d38*
G04 #@! TF.FileFunction,Legend,Bot*
G04 #@! TF.FilePolarity,Positive*
%FSLAX46Y46*%
G04 Gerber Fmt 4.6, Leading zero omitted, Abs format (unit mm)*
G04 Created by KiCad (PCBNEW 5.1.5-52549c5~84~ubuntu19.10.1) date 2020-01-22 18:54:25*
%MOMM*%
%LPD*%
G04 APERTURE LIST*
%ADD10C,0.300000*%
%ADD11C,0.120000*%
%ADD12C,0.100000*%
%ADD13C,0.150000*%
G04 APERTURE END LIST*
D10*
X-16010572Y11787429D02*
X-16010572Y13287429D01*
X-16582000Y13287429D01*
X-16724858Y13216000D01*
X-16796286Y13144572D01*
X-16867715Y13001715D01*
X-16867715Y12787429D01*
X-16796286Y12644572D01*
X-16724858Y12573143D01*
X-16582000Y12501715D01*
X-16010572Y12501715D01*
X-17510572Y11787429D02*
X-17510572Y12787429D01*
X-17510572Y13287429D02*
X-17439143Y13216000D01*
X-17510572Y13144572D01*
X-17582000Y13216000D01*
X-17510572Y13287429D01*
X-17510572Y13144572D01*
X-18224858Y11787429D02*
X-18224858Y13287429D01*
X-19082000Y11787429D02*
X-18439143Y12644572D01*
X-19082000Y13287429D02*
X-18224858Y12430286D01*
X-19582000Y12787429D02*
X-19867715Y11787429D01*
X-20153429Y12501715D01*
X-20439143Y11787429D01*
X-20724858Y12787429D01*
X-21510572Y11787429D02*
X-21367715Y11858858D01*
X-21296286Y11930286D01*
X-21224858Y12073143D01*
X-21224858Y12501715D01*
X-21296286Y12644572D01*
X-21367715Y12716000D01*
X-21510572Y12787429D01*
X-21724858Y12787429D01*
X-21867715Y12716000D01*
X-21939143Y12644572D01*
X-22010572Y12501715D01*
X-22010572Y12073143D01*
X-21939143Y11930286D01*
X-21867715Y11858858D01*
X-21724858Y11787429D01*
X-21510572Y11787429D01*
X-22653429Y12787429D02*
X-22653429Y11787429D01*
X-22653429Y12644572D02*
X-22724858Y12716000D01*
X-22867715Y12787429D01*
X-23082000Y12787429D01*
X-23224858Y12716000D01*
X-23296286Y12573143D01*
X-23296286Y11787429D01*
X-24010572Y11787429D02*
X-24010572Y13287429D01*
X-24367715Y13287429D01*
X-24582000Y13216000D01*
X-24724858Y13073143D01*
X-24796286Y12930286D01*
X-24867715Y12644572D01*
X-24867715Y12430286D01*
X-24796286Y12144572D01*
X-24724858Y12001715D01*
X-24582000Y11858858D01*
X-24367715Y11787429D01*
X-24010572Y11787429D01*
X-25724858Y11787429D02*
X-25582000Y11858858D01*
X-25510572Y11930286D01*
X-25439143Y12073143D01*
X-25439143Y12501715D01*
X-25510572Y12644572D01*
X-25582000Y12716000D01*
X-25724858Y12787429D01*
X-25939143Y12787429D01*
X-26082000Y12716000D01*
X-26153429Y12644572D01*
X-26224858Y12501715D01*
X-26224858Y12073143D01*
X-26153429Y11930286D01*
X-26082000Y11858858D01*
X-25939143Y11787429D01*
X-25724858Y11787429D01*
X-15617715Y9237429D02*
X-15617715Y10737429D01*
X-15617715Y10023143D02*
X-16474858Y10023143D01*
X-16474858Y9237429D02*
X-16474858Y10737429D01*
X-17117715Y9666000D02*
X-17832000Y9666000D01*
X-16974858Y9237429D02*
X-17474858Y10737429D01*
X-17974858Y9237429D01*
X-18260572Y10737429D02*
X-19117715Y10737429D01*
X-18689143Y9237429D02*
X-18689143Y10737429D01*
X-21260572Y10023143D02*
X-21474858Y9951715D01*
X-21546286Y9880286D01*
X-21617715Y9737429D01*
X-21617715Y9523143D01*
X-21546286Y9380286D01*
X-21474858Y9308858D01*
X-21332000Y9237429D01*
X-20760572Y9237429D01*
X-20760572Y10737429D01*
X-21260572Y10737429D01*
X-21403429Y10666000D01*
X-21474858Y10594572D01*
X-21546286Y10451715D01*
X-21546286Y10308858D01*
X-21474858Y10166000D01*
X-21403429Y10094572D01*
X-21260572Y10023143D01*
X-20760572Y10023143D01*
X-22474858Y9237429D02*
X-22332000Y9308858D01*
X-22260572Y9380286D01*
X-22189143Y9523143D01*
X-22189143Y9951715D01*
X-22260572Y10094572D01*
X-22332000Y10166000D01*
X-22474858Y10237429D01*
X-22689143Y10237429D01*
X-22832000Y10166000D01*
X-22903429Y10094572D01*
X-22974858Y9951715D01*
X-22974858Y9523143D01*
X-22903429Y9380286D01*
X-22832000Y9308858D01*
X-22689143Y9237429D01*
X-22474858Y9237429D01*
X-24260572Y9237429D02*
X-24260572Y10023143D01*
X-24189143Y10166000D01*
X-24046286Y10237429D01*
X-23760572Y10237429D01*
X-23617715Y10166000D01*
X-24260572Y9308858D02*
X-24117715Y9237429D01*
X-23760572Y9237429D01*
X-23617715Y9308858D01*
X-23546286Y9451715D01*
X-23546286Y9594572D01*
X-23617715Y9737429D01*
X-23760572Y9808858D01*
X-24117715Y9808858D01*
X-24260572Y9880286D01*
X-24974858Y9237429D02*
X-24974858Y10237429D01*
X-24974858Y9951715D02*
X-25046286Y10094572D01*
X-25117715Y10166000D01*
X-25260572Y10237429D01*
X-25403429Y10237429D01*
X-26546286Y9237429D02*
X-26546286Y10737429D01*
X-26546286Y9308858D02*
X-26403429Y9237429D01*
X-26117715Y9237429D01*
X-25974858Y9308858D01*
X-25903429Y9380286D01*
X-25832000Y9523143D01*
X-25832000Y9951715D01*
X-25903429Y10094572D01*
X-25974858Y10166000D01*
X-26117715Y10237429D01*
X-26403429Y10237429D01*
X-26546286Y10166000D01*
X-14796286Y8187429D02*
X-15296286Y6687429D01*
X-15796286Y8187429D01*
X-16867715Y6758858D02*
X-16724858Y6687429D01*
X-16439143Y6687429D01*
X-16296286Y6758858D01*
X-16224858Y6901715D01*
X-16224858Y7473143D01*
X-16296286Y7616000D01*
X-16439143Y7687429D01*
X-16724858Y7687429D01*
X-16867715Y7616000D01*
X-16939143Y7473143D01*
X-16939143Y7330286D01*
X-16224858Y7187429D01*
X-17582000Y6687429D02*
X-17582000Y7687429D01*
X-17582000Y7401715D02*
X-17653429Y7544572D01*
X-17724858Y7616000D01*
X-17867715Y7687429D01*
X-18010572Y7687429D01*
X-18439143Y6758858D02*
X-18582000Y6687429D01*
X-18867715Y6687429D01*
X-19010572Y6758858D01*
X-19082000Y6901715D01*
X-19082000Y6973143D01*
X-19010572Y7116000D01*
X-18867715Y7187429D01*
X-18653429Y7187429D01*
X-18510572Y7258858D01*
X-18439143Y7401715D01*
X-18439143Y7473143D01*
X-18510572Y7616000D01*
X-18653429Y7687429D01*
X-18867715Y7687429D01*
X-19010572Y7616000D01*
X-19724858Y6687429D02*
X-19724858Y7687429D01*
X-19724858Y8187429D02*
X-19653429Y8116000D01*
X-19724858Y8044572D01*
X-19796286Y8116000D01*
X-19724858Y8187429D01*
X-19724858Y8044572D01*
X-20653429Y6687429D02*
X-20510572Y6758858D01*
X-20439143Y6830286D01*
X-20367715Y6973143D01*
X-20367715Y7401715D01*
X-20439143Y7544572D01*
X-20510572Y7616000D01*
X-20653429Y7687429D01*
X-20867715Y7687429D01*
X-21010572Y7616000D01*
X-21082000Y7544572D01*
X-21153429Y7401715D01*
X-21153429Y6973143D01*
X-21082000Y6830286D01*
X-21010572Y6758858D01*
X-20867715Y6687429D01*
X-20653429Y6687429D01*
X-21796286Y7687429D02*
X-21796286Y6687429D01*
X-21796286Y7544572D02*
X-21867715Y7616000D01*
X-22010572Y7687429D01*
X-22224858Y7687429D01*
X-22367715Y7616000D01*
X-22439143Y7473143D01*
X-22439143Y6687429D01*
X-25082000Y6687429D02*
X-24224858Y6687429D01*
X-24653429Y6687429D02*
X-24653429Y8187429D01*
X-24510572Y7973143D01*
X-24367715Y7830286D01*
X-24224858Y7758858D01*
X-25724858Y6830286D02*
X-25796286Y6758858D01*
X-25724858Y6687429D01*
X-25653429Y6758858D01*
X-25724858Y6830286D01*
X-25724858Y6687429D01*
X-26724858Y8187429D02*
X-26867715Y8187429D01*
X-27010572Y8116000D01*
X-27082000Y8044572D01*
X-27153429Y7901715D01*
X-27224858Y7616000D01*
X-27224858Y7258858D01*
X-27153429Y6973143D01*
X-27082000Y6830286D01*
X-27010572Y6758858D01*
X-26867715Y6687429D01*
X-26724858Y6687429D01*
X-26582000Y6758858D01*
X-26510572Y6830286D01*
X-26439143Y6973143D01*
X-26367715Y7258858D01*
X-26367715Y7616000D01*
X-26439143Y7901715D01*
X-26510572Y8044572D01*
X-26582000Y8116000D01*
X-26724858Y8187429D01*
X-14367715Y4137429D02*
X-14367715Y5637429D01*
X-14724858Y5637429D01*
X-14939143Y5566000D01*
X-15082000Y5423143D01*
X-15153429Y5280286D01*
X-15224858Y4994572D01*
X-15224858Y4780286D01*
X-15153429Y4494572D01*
X-15082000Y4351715D01*
X-14939143Y4208858D01*
X-14724858Y4137429D01*
X-14367715Y4137429D01*
X-16510572Y4137429D02*
X-16510572Y4923143D01*
X-16439143Y5066000D01*
X-16296286Y5137429D01*
X-16010572Y5137429D01*
X-15867715Y5066000D01*
X-16510572Y4208858D02*
X-16367715Y4137429D01*
X-16010572Y4137429D01*
X-15867715Y4208858D01*
X-15796286Y4351715D01*
X-15796286Y4494572D01*
X-15867715Y4637429D01*
X-16010572Y4708858D01*
X-16367715Y4708858D01*
X-16510572Y4780286D01*
X-17082000Y5137429D02*
X-17439143Y4137429D01*
X-17796286Y5137429D01*
X-18367715Y4137429D02*
X-18367715Y5137429D01*
X-18367715Y5637429D02*
X-18296286Y5566000D01*
X-18367715Y5494572D01*
X-18439143Y5566000D01*
X-18367715Y5637429D01*
X-18367715Y5494572D01*
X-19724858Y4137429D02*
X-19724858Y5637429D01*
X-19724858Y4208858D02*
X-19582000Y4137429D01*
X-19296286Y4137429D01*
X-19153429Y4208858D01*
X-19082000Y4280286D01*
X-19010572Y4423143D01*
X-19010572Y4851715D01*
X-19082000Y4994572D01*
X-19153429Y5066000D01*
X-19296286Y5137429D01*
X-19582000Y5137429D01*
X-19724858Y5066000D01*
X-21439143Y5637429D02*
X-21796286Y4137429D01*
X-22082000Y5208858D01*
X-22367715Y4137429D01*
X-22724858Y5637429D01*
X-23296286Y4137429D02*
X-23296286Y5137429D01*
X-23296286Y4851715D02*
X-23367715Y4994572D01*
X-23439143Y5066000D01*
X-23582000Y5137429D01*
X-23724858Y5137429D01*
X-24224858Y4137429D02*
X-24224858Y5137429D01*
X-24224858Y5637429D02*
X-24153429Y5566000D01*
X-24224858Y5494572D01*
X-24296286Y5566000D01*
X-24224858Y5637429D01*
X-24224858Y5494572D01*
X-25582000Y5137429D02*
X-25582000Y3923143D01*
X-25510572Y3780286D01*
X-25439143Y3708858D01*
X-25296286Y3637429D01*
X-25082000Y3637429D01*
X-24939143Y3708858D01*
X-25582000Y4208858D02*
X-25439143Y4137429D01*
X-25153429Y4137429D01*
X-25010572Y4208858D01*
X-24939143Y4280286D01*
X-24867715Y4423143D01*
X-24867715Y4851715D01*
X-24939143Y4994572D01*
X-25010572Y5066000D01*
X-25153429Y5137429D01*
X-25439143Y5137429D01*
X-25582000Y5066000D01*
X-26296286Y4137429D02*
X-26296286Y5637429D01*
X-26939143Y4137429D02*
X-26939143Y4923143D01*
X-26867715Y5066000D01*
X-26724858Y5137429D01*
X-26510572Y5137429D01*
X-26367715Y5066000D01*
X-26296286Y4994572D01*
X-27439143Y5137429D02*
X-28010572Y5137429D01*
X-27653429Y5637429D02*
X-27653429Y4351715D01*
X-27724858Y4208858D01*
X-27867715Y4137429D01*
X-28010572Y4137429D01*
X-18510572Y2944572D02*
X-18582000Y3016000D01*
X-18724858Y3087429D01*
X-19082000Y3087429D01*
X-19224858Y3016000D01*
X-19296286Y2944572D01*
X-19367715Y2801715D01*
X-19367715Y2658858D01*
X-19296286Y2444572D01*
X-18439143Y1587429D01*
X-19367715Y1587429D01*
X-20296286Y3087429D02*
X-20439143Y3087429D01*
X-20582000Y3016000D01*
X-20653429Y2944572D01*
X-20724858Y2801715D01*
X-20796286Y2516000D01*
X-20796286Y2158858D01*
X-20724858Y1873143D01*
X-20653429Y1730286D01*
X-20582000Y1658858D01*
X-20439143Y1587429D01*
X-20296286Y1587429D01*
X-20153429Y1658858D01*
X-20082000Y1730286D01*
X-20010572Y1873143D01*
X-19939143Y2158858D01*
X-19939143Y2516000D01*
X-20010572Y2801715D01*
X-20082000Y2944572D01*
X-20153429Y3016000D01*
X-20296286Y3087429D01*
X-21367715Y2944572D02*
X-21439143Y3016000D01*
X-21582000Y3087429D01*
X-21939143Y3087429D01*
X-22082000Y3016000D01*
X-22153429Y2944572D01*
X-22224858Y2801715D01*
X-22224858Y2658858D01*
X-22153429Y2444572D01*
X-21296286Y1587429D01*
X-22224858Y1587429D01*
X-23153429Y3087429D02*
X-23296286Y3087429D01*
X-23439143Y3016000D01*
X-23510572Y2944572D01*
X-23582000Y2801715D01*
X-23653429Y2516000D01*
X-23653429Y2158858D01*
X-23582000Y1873143D01*
X-23510572Y1730286D01*
X-23439143Y1658858D01*
X-23296286Y1587429D01*
X-23153429Y1587429D01*
X-23010572Y1658858D01*
X-22939143Y1730286D01*
X-22867715Y1873143D01*
X-22796286Y2158858D01*
X-22796286Y2516000D01*
X-22867715Y2801715D01*
X-22939143Y2944572D01*
X-23010572Y3016000D01*
X-23153429Y3087429D01*
D11*
X-27770000Y15093000D02*
X-27770000Y28293000D01*
X-27770000Y28293000D02*
X-36790000Y28293000D01*
D12*
X-45650000Y28293000D02*
X-45770000Y28293000D01*
D11*
X-45770000Y28293000D02*
X-38990000Y28293000D01*
D12*
X-45760000Y28293000D02*
X-45770000Y28293000D01*
D11*
X-45770000Y28293000D02*
X-45770000Y15093000D01*
X-45770000Y15093000D02*
X-38990000Y15093000D01*
D12*
X-36720000Y15093000D02*
X-36790000Y15093000D01*
D11*
X-36790000Y15093000D02*
X-27770000Y15093000D01*
X-29770000Y14623000D02*
X-28240000Y14623000D01*
X-29770000Y28123000D02*
X-28240000Y28123000D01*
X-36790000Y28593000D02*
X-27770000Y28593000D01*
D12*
X-36720000Y28593000D02*
X-36790000Y28593000D01*
D11*
X-45770000Y28593000D02*
X-38990000Y28593000D01*
X-45770000Y41793000D02*
X-45770000Y28593000D01*
D12*
X-45760000Y41793000D02*
X-45770000Y41793000D01*
D11*
X-45770000Y41793000D02*
X-38990000Y41793000D01*
D12*
X-45650000Y41793000D02*
X-45770000Y41793000D01*
D11*
X-27770000Y41793000D02*
X-36790000Y41793000D01*
X-27770000Y28593000D02*
X-27770000Y41793000D01*
X-29770000Y1123000D02*
X-28240000Y1123000D01*
X-36790000Y1593000D02*
X-27770000Y1593000D01*
D12*
X-36720000Y1593000D02*
X-36790000Y1593000D01*
D11*
X-45770000Y1593000D02*
X-38990000Y1593000D01*
X-45770000Y14793000D02*
X-45770000Y1593000D01*
D12*
X-45760000Y14793000D02*
X-45770000Y14793000D01*
D11*
X-45770000Y14793000D02*
X-38990000Y14793000D01*
D12*
X-45650000Y14793000D02*
X-45770000Y14793000D01*
D11*
X-27770000Y14793000D02*
X-36790000Y14793000D01*
X-27770000Y1593000D02*
X-27770000Y14793000D01*
X-27770000Y42093000D02*
X-27770000Y55293000D01*
X-27770000Y55293000D02*
X-36790000Y55293000D01*
D12*
X-45650000Y55293000D02*
X-45770000Y55293000D01*
D11*
X-45770000Y55293000D02*
X-38990000Y55293000D01*
D12*
X-45760000Y55293000D02*
X-45770000Y55293000D01*
D11*
X-45770000Y55293000D02*
X-45770000Y42093000D01*
X-45770000Y42093000D02*
X-38990000Y42093000D01*
D12*
X-36720000Y42093000D02*
X-36790000Y42093000D01*
D11*
X-36790000Y42093000D02*
X-27770000Y42093000D01*
X-29770000Y41623000D02*
X-28240000Y41623000D01*
D13*
X-27387620Y17186334D02*
X-26673334Y17186334D01*
X-26530477Y17233953D01*
X-26435239Y17329191D01*
X-26387620Y17472048D01*
X-26387620Y17567286D01*
X-27292381Y16757762D02*
X-27340000Y16710143D01*
X-27387620Y16614905D01*
X-27387620Y16376810D01*
X-27340000Y16281572D01*
X-27292381Y16233953D01*
X-27197143Y16186334D01*
X-27101905Y16186334D01*
X-26959048Y16233953D01*
X-26387620Y16805381D01*
X-26387620Y16186334D01*
X-27387620Y30686334D02*
X-26673334Y30686334D01*
X-26530477Y30733953D01*
X-26435239Y30829191D01*
X-26387620Y30972048D01*
X-26387620Y31067286D01*
X-27387620Y30305381D02*
X-27387620Y29686334D01*
X-27006667Y30019667D01*
X-27006667Y29876810D01*
X-26959048Y29781572D01*
X-26911429Y29733953D01*
X-26816191Y29686334D01*
X-26578096Y29686334D01*
X-26482858Y29733953D01*
X-26435239Y29781572D01*
X-26387620Y29876810D01*
X-26387620Y30162524D01*
X-26435239Y30257762D01*
X-26482858Y30305381D01*
X-27387620Y3686334D02*
X-26673334Y3686334D01*
X-26530477Y3733953D01*
X-26435239Y3829191D01*
X-26387620Y3972048D01*
X-26387620Y4067286D01*
X-26387620Y2686334D02*
X-26387620Y3257762D01*
X-26387620Y2972048D02*
X-27387620Y2972048D01*
X-27244762Y3067286D01*
X-27149524Y3162524D01*
X-27101905Y3257762D01*
X-27387620Y44186334D02*
X-26673334Y44186334D01*
X-26530477Y44233953D01*
X-26435239Y44329191D01*
X-26387620Y44472048D01*
X-26387620Y44567286D01*
X-27054286Y43281572D02*
X-26387620Y43281572D01*
X-27435239Y43519667D02*
X-26720953Y43757762D01*
X-26720953Y43138715D01*
M02*
