M48
; DRILL file {KiCad 5.1.5-52549c5~84~ubuntu19.10.1} date Wed 22 Jan 2020 06:54:22 PM CST
; FORMAT={-:-/ absolute / metric / decimal}
; #@! TF.CreationDate,2020-01-22T18:54:22-06:00
; #@! TF.GenerationSoftware,Kicad,Pcbnew,5.1.5-52549c5~84~ubuntu19.10.1
; #@! TF.FileFunction,Plated,1,2,PTH
FMAT,2
METRIC
T1C0.760
T2C0.800
T3C1.000
%
G90
G05
T1
X-31.54Y35.863
X-31.54Y33.293
X-29.0Y37.103
X-29.0Y34.593
X-31.54Y22.363
X-31.54Y19.793
X-29.0Y23.603
X-29.0Y21.093
X-31.54Y49.363
X-31.54Y46.793
X-29.0Y50.603
X-29.0Y48.093
X-31.54Y8.863
X-31.54Y6.293
X-29.0Y10.103
X-29.0Y7.593
T2
X-27.512Y2.023
X-14.5Y37.035
X-14.5Y10.035
X-13.97Y23.535
X-11.557Y5.461
X-11.43Y33.02
X-11.176Y45.212
X-9.779Y48.387
T3
X-4.5Y52.283
X-4.5Y49.743
X-4.5Y47.203
X-4.5Y44.663
X-4.5Y42.123
X-4.5Y39.583
X-4.5Y37.043
X-4.5Y34.503
X-4.5Y31.963
X-4.5Y29.423
X-4.5Y26.883
X-4.5Y24.343
X-4.5Y21.803
X-4.5Y19.263
X-4.5Y16.723
X-4.5Y14.183
X-4.5Y11.643
X-4.5Y9.103
X-4.5Y6.563
X-4.5Y4.023
X-1.96Y52.283
X-1.96Y49.743
X-1.96Y47.203
X-1.96Y44.663
X-1.96Y42.123
X-1.96Y39.583
X-1.96Y37.043
X-1.96Y34.503
X-1.96Y31.963
X-1.96Y29.423
X-1.96Y26.883
X-1.96Y24.343
X-1.96Y21.803
X-1.96Y19.263
X-1.96Y16.723
X-1.96Y14.183
X-1.96Y11.643
X-1.96Y9.103
X-1.96Y6.563
X-1.96Y4.023
T0
M30
