G04 #@! TF.GenerationSoftware,KiCad,Pcbnew,5.0.2-bee76a0~70~ubuntu18.10.1*
G04 #@! TF.CreationDate,2019-03-01T08:09:35-06:00*
G04 #@! TF.ProjectId,PiKwonDoHAT,50694b77-6f6e-4446-9f48-41542e6b6963,rev?*
G04 #@! TF.SameCoordinates,PX6bc3e40PY4524320*
G04 #@! TF.FileFunction,Copper,L1,Top*
G04 #@! TF.FilePolarity,Positive*
%FSLAX46Y46*%
G04 Gerber Fmt 4.6, Leading zero omitted, Abs format (unit mm)*
G04 Created by KiCad (PCBNEW 5.0.2-bee76a0~70~ubuntu18.10.1) date Fri 01 Mar 2019 08:09:35 AM CST*
%MOMM*%
%LPD*%
G01*
G04 APERTURE LIST*
G04 #@! TA.AperFunction,SMDPad,CuDef*
%ADD10R,1.560000X0.650000*%
G04 #@! TD*
G04 #@! TA.AperFunction,SMDPad,CuDef*
%ADD11R,2.000000X1.700000*%
G04 #@! TD*
G04 #@! TA.AperFunction,Conductor*
%ADD12C,0.100000*%
G04 #@! TD*
G04 #@! TA.AperFunction,SMDPad,CuDef*
%ADD13C,1.425000*%
G04 #@! TD*
G04 #@! TA.AperFunction,ComponentPad*
%ADD14C,1.520000*%
G04 #@! TD*
G04 #@! TA.AperFunction,ComponentPad*
%ADD15R,1.520000X1.520000*%
G04 #@! TD*
G04 #@! TA.AperFunction,SMDPad,CuDef*
%ADD16R,0.900000X1.200000*%
G04 #@! TD*
G04 #@! TA.AperFunction,ComponentPad*
%ADD17R,1.700000X1.700000*%
G04 #@! TD*
G04 #@! TA.AperFunction,ComponentPad*
%ADD18O,1.700000X1.700000*%
G04 #@! TD*
G04 #@! TA.AperFunction,SMDPad,CuDef*
%ADD19R,1.000000X1.000000*%
G04 #@! TD*
G04 #@! TA.AperFunction,Conductor*
%ADD20C,0.500000*%
G04 #@! TD*
G04 #@! TA.AperFunction,Conductor*
%ADD21C,1.000000*%
G04 #@! TD*
G04 APERTURE END LIST*
D10*
G04 #@! TO.P,U3,1*
G04 #@! TO.N,Net-(U3-Pad1)*
X-13150000Y-18450000D03*
G04 #@! TO.P,U3,2*
G04 #@! TO.N,/J3_CLK*
X-13150000Y-17500000D03*
G04 #@! TO.P,U3,3*
G04 #@! TO.N,GND*
X-13150000Y-16550000D03*
G04 #@! TO.P,U3,4*
G04 #@! TO.N,Net-(R7-Pad1)*
X-15850000Y-16550000D03*
G04 #@! TO.P,U3,5*
G04 #@! TO.N,+5V*
X-15850000Y-18450000D03*
G04 #@! TD*
D11*
G04 #@! TO.P,R8,1*
G04 #@! TO.N,/J3_LOAD*
X-19000000Y-25500000D03*
G04 #@! TO.P,R8,2*
G04 #@! TO.N,Net-(C9-Pad1)*
X-23000000Y-25500000D03*
G04 #@! TD*
D12*
G04 #@! TO.N,Net-(C10-Pad1)*
G04 #@! TO.C,C10*
G36*
X-25350496Y-19176204D02*
X-25326227Y-19179804D01*
X-25302429Y-19185765D01*
X-25279329Y-19194030D01*
X-25257151Y-19204520D01*
X-25236107Y-19217133D01*
X-25216402Y-19231747D01*
X-25198223Y-19248223D01*
X-25181747Y-19266402D01*
X-25167133Y-19286107D01*
X-25154520Y-19307151D01*
X-25144030Y-19329329D01*
X-25135765Y-19352429D01*
X-25129804Y-19376227D01*
X-25126204Y-19400496D01*
X-25125000Y-19425000D01*
X-25125000Y-20350000D01*
X-25126204Y-20374504D01*
X-25129804Y-20398773D01*
X-25135765Y-20422571D01*
X-25144030Y-20445671D01*
X-25154520Y-20467849D01*
X-25167133Y-20488893D01*
X-25181747Y-20508598D01*
X-25198223Y-20526777D01*
X-25216402Y-20543253D01*
X-25236107Y-20557867D01*
X-25257151Y-20570480D01*
X-25279329Y-20580970D01*
X-25302429Y-20589235D01*
X-25326227Y-20595196D01*
X-25350496Y-20598796D01*
X-25375000Y-20600000D01*
X-26625000Y-20600000D01*
X-26649504Y-20598796D01*
X-26673773Y-20595196D01*
X-26697571Y-20589235D01*
X-26720671Y-20580970D01*
X-26742849Y-20570480D01*
X-26763893Y-20557867D01*
X-26783598Y-20543253D01*
X-26801777Y-20526777D01*
X-26818253Y-20508598D01*
X-26832867Y-20488893D01*
X-26845480Y-20467849D01*
X-26855970Y-20445671D01*
X-26864235Y-20422571D01*
X-26870196Y-20398773D01*
X-26873796Y-20374504D01*
X-26875000Y-20350000D01*
X-26875000Y-19425000D01*
X-26873796Y-19400496D01*
X-26870196Y-19376227D01*
X-26864235Y-19352429D01*
X-26855970Y-19329329D01*
X-26845480Y-19307151D01*
X-26832867Y-19286107D01*
X-26818253Y-19266402D01*
X-26801777Y-19248223D01*
X-26783598Y-19231747D01*
X-26763893Y-19217133D01*
X-26742849Y-19204520D01*
X-26720671Y-19194030D01*
X-26697571Y-19185765D01*
X-26673773Y-19179804D01*
X-26649504Y-19176204D01*
X-26625000Y-19175000D01*
X-25375000Y-19175000D01*
X-25350496Y-19176204D01*
X-25350496Y-19176204D01*
G37*
D13*
G04 #@! TD*
G04 #@! TO.P,C10,1*
G04 #@! TO.N,Net-(C10-Pad1)*
X-26000000Y-19887500D03*
D12*
G04 #@! TO.N,GND*
G04 #@! TO.C,C10*
G36*
X-25350496Y-16201204D02*
X-25326227Y-16204804D01*
X-25302429Y-16210765D01*
X-25279329Y-16219030D01*
X-25257151Y-16229520D01*
X-25236107Y-16242133D01*
X-25216402Y-16256747D01*
X-25198223Y-16273223D01*
X-25181747Y-16291402D01*
X-25167133Y-16311107D01*
X-25154520Y-16332151D01*
X-25144030Y-16354329D01*
X-25135765Y-16377429D01*
X-25129804Y-16401227D01*
X-25126204Y-16425496D01*
X-25125000Y-16450000D01*
X-25125000Y-17375000D01*
X-25126204Y-17399504D01*
X-25129804Y-17423773D01*
X-25135765Y-17447571D01*
X-25144030Y-17470671D01*
X-25154520Y-17492849D01*
X-25167133Y-17513893D01*
X-25181747Y-17533598D01*
X-25198223Y-17551777D01*
X-25216402Y-17568253D01*
X-25236107Y-17582867D01*
X-25257151Y-17595480D01*
X-25279329Y-17605970D01*
X-25302429Y-17614235D01*
X-25326227Y-17620196D01*
X-25350496Y-17623796D01*
X-25375000Y-17625000D01*
X-26625000Y-17625000D01*
X-26649504Y-17623796D01*
X-26673773Y-17620196D01*
X-26697571Y-17614235D01*
X-26720671Y-17605970D01*
X-26742849Y-17595480D01*
X-26763893Y-17582867D01*
X-26783598Y-17568253D01*
X-26801777Y-17551777D01*
X-26818253Y-17533598D01*
X-26832867Y-17513893D01*
X-26845480Y-17492849D01*
X-26855970Y-17470671D01*
X-26864235Y-17447571D01*
X-26870196Y-17423773D01*
X-26873796Y-17399504D01*
X-26875000Y-17375000D01*
X-26875000Y-16450000D01*
X-26873796Y-16425496D01*
X-26870196Y-16401227D01*
X-26864235Y-16377429D01*
X-26855970Y-16354329D01*
X-26845480Y-16332151D01*
X-26832867Y-16311107D01*
X-26818253Y-16291402D01*
X-26801777Y-16273223D01*
X-26783598Y-16256747D01*
X-26763893Y-16242133D01*
X-26742849Y-16229520D01*
X-26720671Y-16219030D01*
X-26697571Y-16210765D01*
X-26673773Y-16204804D01*
X-26649504Y-16201204D01*
X-26625000Y-16200000D01*
X-25375000Y-16200000D01*
X-25350496Y-16201204D01*
X-25350496Y-16201204D01*
G37*
D13*
G04 #@! TD*
G04 #@! TO.P,C10,2*
G04 #@! TO.N,GND*
X-26000000Y-16912500D03*
D11*
G04 #@! TO.P,R7,1*
G04 #@! TO.N,Net-(R7-Pad1)*
X-19000000Y-17500000D03*
G04 #@! TO.P,R7,2*
G04 #@! TO.N,Net-(C10-Pad1)*
X-23000000Y-17500000D03*
G04 #@! TD*
D14*
G04 #@! TO.P,J3,4*
G04 #@! TO.N,Net-(C10-Pad1)*
X-29000000Y-19920000D03*
G04 #@! TO.P,J3,3*
G04 #@! TO.N,Net-(C9-Pad1)*
X-31540000Y-21160000D03*
G04 #@! TO.P,J3,2*
G04 #@! TO.N,Net-(J3-Pad2)*
X-29000000Y-22430000D03*
D15*
G04 #@! TO.P,J3,1*
G04 #@! TO.N,GND*
X-31540000Y-23730000D03*
G04 #@! TD*
D12*
G04 #@! TO.N,GND*
G04 #@! TO.C,C9*
G36*
X-25350496Y-25776204D02*
X-25326227Y-25779804D01*
X-25302429Y-25785765D01*
X-25279329Y-25794030D01*
X-25257151Y-25804520D01*
X-25236107Y-25817133D01*
X-25216402Y-25831747D01*
X-25198223Y-25848223D01*
X-25181747Y-25866402D01*
X-25167133Y-25886107D01*
X-25154520Y-25907151D01*
X-25144030Y-25929329D01*
X-25135765Y-25952429D01*
X-25129804Y-25976227D01*
X-25126204Y-26000496D01*
X-25125000Y-26025000D01*
X-25125000Y-26950000D01*
X-25126204Y-26974504D01*
X-25129804Y-26998773D01*
X-25135765Y-27022571D01*
X-25144030Y-27045671D01*
X-25154520Y-27067849D01*
X-25167133Y-27088893D01*
X-25181747Y-27108598D01*
X-25198223Y-27126777D01*
X-25216402Y-27143253D01*
X-25236107Y-27157867D01*
X-25257151Y-27170480D01*
X-25279329Y-27180970D01*
X-25302429Y-27189235D01*
X-25326227Y-27195196D01*
X-25350496Y-27198796D01*
X-25375000Y-27200000D01*
X-26625000Y-27200000D01*
X-26649504Y-27198796D01*
X-26673773Y-27195196D01*
X-26697571Y-27189235D01*
X-26720671Y-27180970D01*
X-26742849Y-27170480D01*
X-26763893Y-27157867D01*
X-26783598Y-27143253D01*
X-26801777Y-27126777D01*
X-26818253Y-27108598D01*
X-26832867Y-27088893D01*
X-26845480Y-27067849D01*
X-26855970Y-27045671D01*
X-26864235Y-27022571D01*
X-26870196Y-26998773D01*
X-26873796Y-26974504D01*
X-26875000Y-26950000D01*
X-26875000Y-26025000D01*
X-26873796Y-26000496D01*
X-26870196Y-25976227D01*
X-26864235Y-25952429D01*
X-26855970Y-25929329D01*
X-26845480Y-25907151D01*
X-26832867Y-25886107D01*
X-26818253Y-25866402D01*
X-26801777Y-25848223D01*
X-26783598Y-25831747D01*
X-26763893Y-25817133D01*
X-26742849Y-25804520D01*
X-26720671Y-25794030D01*
X-26697571Y-25785765D01*
X-26673773Y-25779804D01*
X-26649504Y-25776204D01*
X-26625000Y-25775000D01*
X-25375000Y-25775000D01*
X-25350496Y-25776204D01*
X-25350496Y-25776204D01*
G37*
D13*
G04 #@! TD*
G04 #@! TO.P,C9,2*
G04 #@! TO.N,GND*
X-26000000Y-26487500D03*
D12*
G04 #@! TO.N,Net-(C9-Pad1)*
G04 #@! TO.C,C9*
G36*
X-25350496Y-22801204D02*
X-25326227Y-22804804D01*
X-25302429Y-22810765D01*
X-25279329Y-22819030D01*
X-25257151Y-22829520D01*
X-25236107Y-22842133D01*
X-25216402Y-22856747D01*
X-25198223Y-22873223D01*
X-25181747Y-22891402D01*
X-25167133Y-22911107D01*
X-25154520Y-22932151D01*
X-25144030Y-22954329D01*
X-25135765Y-22977429D01*
X-25129804Y-23001227D01*
X-25126204Y-23025496D01*
X-25125000Y-23050000D01*
X-25125000Y-23975000D01*
X-25126204Y-23999504D01*
X-25129804Y-24023773D01*
X-25135765Y-24047571D01*
X-25144030Y-24070671D01*
X-25154520Y-24092849D01*
X-25167133Y-24113893D01*
X-25181747Y-24133598D01*
X-25198223Y-24151777D01*
X-25216402Y-24168253D01*
X-25236107Y-24182867D01*
X-25257151Y-24195480D01*
X-25279329Y-24205970D01*
X-25302429Y-24214235D01*
X-25326227Y-24220196D01*
X-25350496Y-24223796D01*
X-25375000Y-24225000D01*
X-26625000Y-24225000D01*
X-26649504Y-24223796D01*
X-26673773Y-24220196D01*
X-26697571Y-24214235D01*
X-26720671Y-24205970D01*
X-26742849Y-24195480D01*
X-26763893Y-24182867D01*
X-26783598Y-24168253D01*
X-26801777Y-24151777D01*
X-26818253Y-24133598D01*
X-26832867Y-24113893D01*
X-26845480Y-24092849D01*
X-26855970Y-24070671D01*
X-26864235Y-24047571D01*
X-26870196Y-24023773D01*
X-26873796Y-23999504D01*
X-26875000Y-23975000D01*
X-26875000Y-23050000D01*
X-26873796Y-23025496D01*
X-26870196Y-23001227D01*
X-26864235Y-22977429D01*
X-26855970Y-22954329D01*
X-26845480Y-22932151D01*
X-26832867Y-22911107D01*
X-26818253Y-22891402D01*
X-26801777Y-22873223D01*
X-26783598Y-22856747D01*
X-26763893Y-22842133D01*
X-26742849Y-22829520D01*
X-26720671Y-22819030D01*
X-26697571Y-22810765D01*
X-26673773Y-22804804D01*
X-26649504Y-22801204D01*
X-26625000Y-22800000D01*
X-25375000Y-22800000D01*
X-25350496Y-22801204D01*
X-25350496Y-22801204D01*
G37*
D13*
G04 #@! TD*
G04 #@! TO.P,C9,1*
G04 #@! TO.N,Net-(C9-Pad1)*
X-26000000Y-23512500D03*
D16*
G04 #@! TO.P,D7,1*
G04 #@! TO.N,/J3_LOAD*
X-16150000Y-25500000D03*
G04 #@! TO.P,D7,2*
G04 #@! TO.N,GND*
X-12850000Y-25500000D03*
G04 #@! TD*
G04 #@! TO.P,D6,2*
G04 #@! TO.N,GND*
X-12850000Y-22500000D03*
G04 #@! TO.P,D6,1*
G04 #@! TO.N,/J3_DATA*
X-16150000Y-22500000D03*
G04 #@! TD*
D11*
G04 #@! TO.P,R9,1*
G04 #@! TO.N,/J3_DATA*
X-19000000Y-22000000D03*
G04 #@! TO.P,R9,2*
G04 #@! TO.N,Net-(J3-Pad2)*
X-23000000Y-22000000D03*
G04 #@! TD*
D17*
G04 #@! TO.P,J5,1*
G04 #@! TO.N,/J1_LOAD*
X-4500000Y-53000000D03*
D18*
G04 #@! TO.P,J5,2*
G04 #@! TO.N,GND*
X-1960000Y-53000000D03*
G04 #@! TO.P,J5,3*
G04 #@! TO.N,/J1_DATA*
X-4500000Y-50460000D03*
G04 #@! TO.P,J5,4*
G04 #@! TO.N,Net-(J5-Pad4)*
X-1960000Y-50460000D03*
G04 #@! TO.P,J5,5*
G04 #@! TO.N,/J1_CLK*
X-4500000Y-47920000D03*
G04 #@! TO.P,J5,6*
G04 #@! TO.N,Net-(J5-Pad6)*
X-1960000Y-47920000D03*
G04 #@! TO.P,J5,7*
G04 #@! TO.N,GND*
X-4500000Y-45380000D03*
G04 #@! TO.P,J5,8*
G04 #@! TO.N,Net-(J5-Pad8)*
X-1960000Y-45380000D03*
G04 #@! TO.P,J5,9*
G04 #@! TO.N,/J2_LOAD*
X-4500000Y-42840000D03*
G04 #@! TO.P,J5,10*
G04 #@! TO.N,Net-(J5-Pad10)*
X-1960000Y-42840000D03*
G04 #@! TO.P,J5,11*
G04 #@! TO.N,GND*
X-4500000Y-40300000D03*
G04 #@! TO.P,J5,12*
G04 #@! TO.N,Net-(J5-Pad12)*
X-1960000Y-40300000D03*
G04 #@! TO.P,J5,13*
G04 #@! TO.N,Net-(J5-Pad13)*
X-4500000Y-37760000D03*
G04 #@! TO.P,J5,14*
G04 #@! TO.N,Net-(J5-Pad14)*
X-1960000Y-37760000D03*
G04 #@! TO.P,J5,15*
G04 #@! TO.N,/J2_DATA*
X-4500000Y-35220000D03*
G04 #@! TO.P,J5,16*
G04 #@! TO.N,Net-(J5-Pad16)*
X-1960000Y-35220000D03*
G04 #@! TO.P,J5,17*
G04 #@! TO.N,/J2_CLK*
X-4500000Y-32680000D03*
G04 #@! TO.P,J5,18*
G04 #@! TO.N,Net-(J5-Pad18)*
X-1960000Y-32680000D03*
G04 #@! TO.P,J5,19*
G04 #@! TO.N,/J3_LOAD*
X-4500000Y-30140000D03*
G04 #@! TO.P,J5,20*
G04 #@! TO.N,Net-(J5-Pad20)*
X-1960000Y-30140000D03*
G04 #@! TO.P,J5,21*
G04 #@! TO.N,GND*
X-4500000Y-27600000D03*
G04 #@! TO.P,J5,22*
G04 #@! TO.N,Net-(J5-Pad22)*
X-1960000Y-27600000D03*
G04 #@! TO.P,J5,23*
G04 #@! TO.N,/J3_DATA*
X-4500000Y-25060000D03*
G04 #@! TO.P,J5,24*
G04 #@! TO.N,Net-(J5-Pad24)*
X-1960000Y-25060000D03*
G04 #@! TO.P,J5,25*
G04 #@! TO.N,/J3_CLK*
X-4500000Y-22520000D03*
G04 #@! TO.P,J5,26*
G04 #@! TO.N,Net-(J5-Pad26)*
X-1960000Y-22520000D03*
G04 #@! TO.P,J5,27*
G04 #@! TO.N,GND*
X-4500000Y-19980000D03*
G04 #@! TO.P,J5,28*
G04 #@! TO.N,Net-(J5-Pad28)*
X-1960000Y-19980000D03*
G04 #@! TO.P,J5,29*
G04 #@! TO.N,/C_LOAD*
X-4500000Y-17440000D03*
G04 #@! TO.P,J5,30*
G04 #@! TO.N,Net-(J5-Pad30)*
X-1960000Y-17440000D03*
G04 #@! TO.P,J5,31*
G04 #@! TO.N,/C_DATA*
X-4500000Y-14900000D03*
G04 #@! TO.P,J5,32*
G04 #@! TO.N,Net-(J5-Pad32)*
X-1960000Y-14900000D03*
G04 #@! TO.P,J5,33*
G04 #@! TO.N,/C_CLK*
X-4500000Y-12360000D03*
G04 #@! TO.P,J5,34*
G04 #@! TO.N,Net-(J5-Pad34)*
X-1960000Y-12360000D03*
G04 #@! TO.P,J5,35*
G04 #@! TO.N,GND*
X-4500000Y-9820000D03*
G04 #@! TO.P,J5,36*
G04 #@! TO.N,Net-(J5-Pad36)*
X-1960000Y-9820000D03*
G04 #@! TO.P,J5,37*
G04 #@! TO.N,+5V*
X-4500000Y-7280000D03*
G04 #@! TO.P,J5,38*
G04 #@! TO.N,Net-(J5-Pad38)*
X-1960000Y-7280000D03*
G04 #@! TO.P,J5,39*
G04 #@! TO.N,+5V*
X-4500000Y-4740000D03*
G04 #@! TO.P,J5,40*
G04 #@! TO.N,Net-(J5-Pad40)*
X-1960000Y-4740000D03*
G04 #@! TD*
D14*
G04 #@! TO.P,J1,4*
G04 #@! TO.N,Net-(C6-Pad1)*
X-29000000Y-46920000D03*
G04 #@! TO.P,J1,3*
G04 #@! TO.N,Net-(C5-Pad1)*
X-31540000Y-48160000D03*
G04 #@! TO.P,J1,2*
G04 #@! TO.N,Net-(J1-Pad2)*
X-29000000Y-49430000D03*
D15*
G04 #@! TO.P,J1,1*
G04 #@! TO.N,GND*
X-31540000Y-50730000D03*
G04 #@! TD*
G04 #@! TO.P,J2,1*
G04 #@! TO.N,GND*
X-31540000Y-37230000D03*
D14*
G04 #@! TO.P,J2,2*
G04 #@! TO.N,Net-(J2-Pad2)*
X-29000000Y-35930000D03*
G04 #@! TO.P,J2,3*
G04 #@! TO.N,Net-(C7-Pad1)*
X-31540000Y-34660000D03*
G04 #@! TO.P,J2,4*
G04 #@! TO.N,Net-(C8-Pad1)*
X-29000000Y-33420000D03*
G04 #@! TD*
D15*
G04 #@! TO.P,J4,1*
G04 #@! TO.N,GND*
X-31540000Y-10230000D03*
D14*
G04 #@! TO.P,J4,2*
G04 #@! TO.N,Net-(J4-Pad2)*
X-29000000Y-8930000D03*
G04 #@! TO.P,J4,3*
G04 #@! TO.N,Net-(C11-Pad1)*
X-31540000Y-7660000D03*
G04 #@! TO.P,J4,4*
G04 #@! TO.N,Net-(C12-Pad1)*
X-29000000Y-6420000D03*
G04 #@! TD*
D16*
G04 #@! TO.P,D8,2*
G04 #@! TO.N,GND*
X-12850000Y-8700000D03*
G04 #@! TO.P,D8,1*
G04 #@! TO.N,/C_DATA*
X-16150000Y-8700000D03*
G04 #@! TD*
G04 #@! TO.P,D2,2*
G04 #@! TO.N,GND*
X-12850000Y-50000000D03*
G04 #@! TO.P,D2,1*
G04 #@! TO.N,/J1_DATA*
X-16150000Y-50000000D03*
G04 #@! TD*
G04 #@! TO.P,D3,1*
G04 #@! TO.N,/J1_LOAD*
X-16150000Y-53000000D03*
G04 #@! TO.P,D3,2*
G04 #@! TO.N,GND*
X-12850000Y-53000000D03*
G04 #@! TD*
G04 #@! TO.P,D4,2*
G04 #@! TO.N,GND*
X-12850000Y-36500000D03*
G04 #@! TO.P,D4,1*
G04 #@! TO.N,/J2_DATA*
X-16150000Y-36500000D03*
G04 #@! TD*
G04 #@! TO.P,D9,1*
G04 #@! TO.N,/C_LOAD*
X-16150000Y-11700000D03*
G04 #@! TO.P,D9,2*
G04 #@! TO.N,GND*
X-12850000Y-11700000D03*
G04 #@! TD*
G04 #@! TO.P,D5,1*
G04 #@! TO.N,/J2_LOAD*
X-16150000Y-39500000D03*
G04 #@! TO.P,D5,2*
G04 #@! TO.N,GND*
X-12850000Y-39500000D03*
G04 #@! TD*
D12*
G04 #@! TO.N,GND*
G04 #@! TO.C,C1*
G36*
X-9350496Y-46276204D02*
X-9326227Y-46279804D01*
X-9302429Y-46285765D01*
X-9279329Y-46294030D01*
X-9257151Y-46304520D01*
X-9236107Y-46317133D01*
X-9216402Y-46331747D01*
X-9198223Y-46348223D01*
X-9181747Y-46366402D01*
X-9167133Y-46386107D01*
X-9154520Y-46407151D01*
X-9144030Y-46429329D01*
X-9135765Y-46452429D01*
X-9129804Y-46476227D01*
X-9126204Y-46500496D01*
X-9125000Y-46525000D01*
X-9125000Y-47450000D01*
X-9126204Y-47474504D01*
X-9129804Y-47498773D01*
X-9135765Y-47522571D01*
X-9144030Y-47545671D01*
X-9154520Y-47567849D01*
X-9167133Y-47588893D01*
X-9181747Y-47608598D01*
X-9198223Y-47626777D01*
X-9216402Y-47643253D01*
X-9236107Y-47657867D01*
X-9257151Y-47670480D01*
X-9279329Y-47680970D01*
X-9302429Y-47689235D01*
X-9326227Y-47695196D01*
X-9350496Y-47698796D01*
X-9375000Y-47700000D01*
X-10625000Y-47700000D01*
X-10649504Y-47698796D01*
X-10673773Y-47695196D01*
X-10697571Y-47689235D01*
X-10720671Y-47680970D01*
X-10742849Y-47670480D01*
X-10763893Y-47657867D01*
X-10783598Y-47643253D01*
X-10801777Y-47626777D01*
X-10818253Y-47608598D01*
X-10832867Y-47588893D01*
X-10845480Y-47567849D01*
X-10855970Y-47545671D01*
X-10864235Y-47522571D01*
X-10870196Y-47498773D01*
X-10873796Y-47474504D01*
X-10875000Y-47450000D01*
X-10875000Y-46525000D01*
X-10873796Y-46500496D01*
X-10870196Y-46476227D01*
X-10864235Y-46452429D01*
X-10855970Y-46429329D01*
X-10845480Y-46407151D01*
X-10832867Y-46386107D01*
X-10818253Y-46366402D01*
X-10801777Y-46348223D01*
X-10783598Y-46331747D01*
X-10763893Y-46317133D01*
X-10742849Y-46304520D01*
X-10720671Y-46294030D01*
X-10697571Y-46285765D01*
X-10673773Y-46279804D01*
X-10649504Y-46276204D01*
X-10625000Y-46275000D01*
X-9375000Y-46275000D01*
X-9350496Y-46276204D01*
X-9350496Y-46276204D01*
G37*
D13*
G04 #@! TD*
G04 #@! TO.P,C1,2*
G04 #@! TO.N,GND*
X-10000000Y-46987500D03*
D12*
G04 #@! TO.N,+5V*
G04 #@! TO.C,C1*
G36*
X-9350496Y-43301204D02*
X-9326227Y-43304804D01*
X-9302429Y-43310765D01*
X-9279329Y-43319030D01*
X-9257151Y-43329520D01*
X-9236107Y-43342133D01*
X-9216402Y-43356747D01*
X-9198223Y-43373223D01*
X-9181747Y-43391402D01*
X-9167133Y-43411107D01*
X-9154520Y-43432151D01*
X-9144030Y-43454329D01*
X-9135765Y-43477429D01*
X-9129804Y-43501227D01*
X-9126204Y-43525496D01*
X-9125000Y-43550000D01*
X-9125000Y-44475000D01*
X-9126204Y-44499504D01*
X-9129804Y-44523773D01*
X-9135765Y-44547571D01*
X-9144030Y-44570671D01*
X-9154520Y-44592849D01*
X-9167133Y-44613893D01*
X-9181747Y-44633598D01*
X-9198223Y-44651777D01*
X-9216402Y-44668253D01*
X-9236107Y-44682867D01*
X-9257151Y-44695480D01*
X-9279329Y-44705970D01*
X-9302429Y-44714235D01*
X-9326227Y-44720196D01*
X-9350496Y-44723796D01*
X-9375000Y-44725000D01*
X-10625000Y-44725000D01*
X-10649504Y-44723796D01*
X-10673773Y-44720196D01*
X-10697571Y-44714235D01*
X-10720671Y-44705970D01*
X-10742849Y-44695480D01*
X-10763893Y-44682867D01*
X-10783598Y-44668253D01*
X-10801777Y-44651777D01*
X-10818253Y-44633598D01*
X-10832867Y-44613893D01*
X-10845480Y-44592849D01*
X-10855970Y-44570671D01*
X-10864235Y-44547571D01*
X-10870196Y-44523773D01*
X-10873796Y-44499504D01*
X-10875000Y-44475000D01*
X-10875000Y-43550000D01*
X-10873796Y-43525496D01*
X-10870196Y-43501227D01*
X-10864235Y-43477429D01*
X-10855970Y-43454329D01*
X-10845480Y-43432151D01*
X-10832867Y-43411107D01*
X-10818253Y-43391402D01*
X-10801777Y-43373223D01*
X-10783598Y-43356747D01*
X-10763893Y-43342133D01*
X-10742849Y-43329520D01*
X-10720671Y-43319030D01*
X-10697571Y-43310765D01*
X-10673773Y-43304804D01*
X-10649504Y-43301204D01*
X-10625000Y-43300000D01*
X-9375000Y-43300000D01*
X-9350496Y-43301204D01*
X-9350496Y-43301204D01*
G37*
D13*
G04 #@! TD*
G04 #@! TO.P,C1,1*
G04 #@! TO.N,+5V*
X-10000000Y-44012500D03*
D12*
G04 #@! TO.N,+5V*
G04 #@! TO.C,C2*
G36*
X-9350496Y-29801204D02*
X-9326227Y-29804804D01*
X-9302429Y-29810765D01*
X-9279329Y-29819030D01*
X-9257151Y-29829520D01*
X-9236107Y-29842133D01*
X-9216402Y-29856747D01*
X-9198223Y-29873223D01*
X-9181747Y-29891402D01*
X-9167133Y-29911107D01*
X-9154520Y-29932151D01*
X-9144030Y-29954329D01*
X-9135765Y-29977429D01*
X-9129804Y-30001227D01*
X-9126204Y-30025496D01*
X-9125000Y-30050000D01*
X-9125000Y-30975000D01*
X-9126204Y-30999504D01*
X-9129804Y-31023773D01*
X-9135765Y-31047571D01*
X-9144030Y-31070671D01*
X-9154520Y-31092849D01*
X-9167133Y-31113893D01*
X-9181747Y-31133598D01*
X-9198223Y-31151777D01*
X-9216402Y-31168253D01*
X-9236107Y-31182867D01*
X-9257151Y-31195480D01*
X-9279329Y-31205970D01*
X-9302429Y-31214235D01*
X-9326227Y-31220196D01*
X-9350496Y-31223796D01*
X-9375000Y-31225000D01*
X-10625000Y-31225000D01*
X-10649504Y-31223796D01*
X-10673773Y-31220196D01*
X-10697571Y-31214235D01*
X-10720671Y-31205970D01*
X-10742849Y-31195480D01*
X-10763893Y-31182867D01*
X-10783598Y-31168253D01*
X-10801777Y-31151777D01*
X-10818253Y-31133598D01*
X-10832867Y-31113893D01*
X-10845480Y-31092849D01*
X-10855970Y-31070671D01*
X-10864235Y-31047571D01*
X-10870196Y-31023773D01*
X-10873796Y-30999504D01*
X-10875000Y-30975000D01*
X-10875000Y-30050000D01*
X-10873796Y-30025496D01*
X-10870196Y-30001227D01*
X-10864235Y-29977429D01*
X-10855970Y-29954329D01*
X-10845480Y-29932151D01*
X-10832867Y-29911107D01*
X-10818253Y-29891402D01*
X-10801777Y-29873223D01*
X-10783598Y-29856747D01*
X-10763893Y-29842133D01*
X-10742849Y-29829520D01*
X-10720671Y-29819030D01*
X-10697571Y-29810765D01*
X-10673773Y-29804804D01*
X-10649504Y-29801204D01*
X-10625000Y-29800000D01*
X-9375000Y-29800000D01*
X-9350496Y-29801204D01*
X-9350496Y-29801204D01*
G37*
D13*
G04 #@! TD*
G04 #@! TO.P,C2,1*
G04 #@! TO.N,+5V*
X-10000000Y-30512500D03*
D12*
G04 #@! TO.N,GND*
G04 #@! TO.C,C2*
G36*
X-9350496Y-32776204D02*
X-9326227Y-32779804D01*
X-9302429Y-32785765D01*
X-9279329Y-32794030D01*
X-9257151Y-32804520D01*
X-9236107Y-32817133D01*
X-9216402Y-32831747D01*
X-9198223Y-32848223D01*
X-9181747Y-32866402D01*
X-9167133Y-32886107D01*
X-9154520Y-32907151D01*
X-9144030Y-32929329D01*
X-9135765Y-32952429D01*
X-9129804Y-32976227D01*
X-9126204Y-33000496D01*
X-9125000Y-33025000D01*
X-9125000Y-33950000D01*
X-9126204Y-33974504D01*
X-9129804Y-33998773D01*
X-9135765Y-34022571D01*
X-9144030Y-34045671D01*
X-9154520Y-34067849D01*
X-9167133Y-34088893D01*
X-9181747Y-34108598D01*
X-9198223Y-34126777D01*
X-9216402Y-34143253D01*
X-9236107Y-34157867D01*
X-9257151Y-34170480D01*
X-9279329Y-34180970D01*
X-9302429Y-34189235D01*
X-9326227Y-34195196D01*
X-9350496Y-34198796D01*
X-9375000Y-34200000D01*
X-10625000Y-34200000D01*
X-10649504Y-34198796D01*
X-10673773Y-34195196D01*
X-10697571Y-34189235D01*
X-10720671Y-34180970D01*
X-10742849Y-34170480D01*
X-10763893Y-34157867D01*
X-10783598Y-34143253D01*
X-10801777Y-34126777D01*
X-10818253Y-34108598D01*
X-10832867Y-34088893D01*
X-10845480Y-34067849D01*
X-10855970Y-34045671D01*
X-10864235Y-34022571D01*
X-10870196Y-33998773D01*
X-10873796Y-33974504D01*
X-10875000Y-33950000D01*
X-10875000Y-33025000D01*
X-10873796Y-33000496D01*
X-10870196Y-32976227D01*
X-10864235Y-32952429D01*
X-10855970Y-32929329D01*
X-10845480Y-32907151D01*
X-10832867Y-32886107D01*
X-10818253Y-32866402D01*
X-10801777Y-32848223D01*
X-10783598Y-32831747D01*
X-10763893Y-32817133D01*
X-10742849Y-32804520D01*
X-10720671Y-32794030D01*
X-10697571Y-32785765D01*
X-10673773Y-32779804D01*
X-10649504Y-32776204D01*
X-10625000Y-32775000D01*
X-9375000Y-32775000D01*
X-9350496Y-32776204D01*
X-9350496Y-32776204D01*
G37*
D13*
G04 #@! TD*
G04 #@! TO.P,C2,2*
G04 #@! TO.N,GND*
X-10000000Y-33487500D03*
D12*
G04 #@! TO.N,GND*
G04 #@! TO.C,C3*
G36*
X-9350496Y-19276204D02*
X-9326227Y-19279804D01*
X-9302429Y-19285765D01*
X-9279329Y-19294030D01*
X-9257151Y-19304520D01*
X-9236107Y-19317133D01*
X-9216402Y-19331747D01*
X-9198223Y-19348223D01*
X-9181747Y-19366402D01*
X-9167133Y-19386107D01*
X-9154520Y-19407151D01*
X-9144030Y-19429329D01*
X-9135765Y-19452429D01*
X-9129804Y-19476227D01*
X-9126204Y-19500496D01*
X-9125000Y-19525000D01*
X-9125000Y-20450000D01*
X-9126204Y-20474504D01*
X-9129804Y-20498773D01*
X-9135765Y-20522571D01*
X-9144030Y-20545671D01*
X-9154520Y-20567849D01*
X-9167133Y-20588893D01*
X-9181747Y-20608598D01*
X-9198223Y-20626777D01*
X-9216402Y-20643253D01*
X-9236107Y-20657867D01*
X-9257151Y-20670480D01*
X-9279329Y-20680970D01*
X-9302429Y-20689235D01*
X-9326227Y-20695196D01*
X-9350496Y-20698796D01*
X-9375000Y-20700000D01*
X-10625000Y-20700000D01*
X-10649504Y-20698796D01*
X-10673773Y-20695196D01*
X-10697571Y-20689235D01*
X-10720671Y-20680970D01*
X-10742849Y-20670480D01*
X-10763893Y-20657867D01*
X-10783598Y-20643253D01*
X-10801777Y-20626777D01*
X-10818253Y-20608598D01*
X-10832867Y-20588893D01*
X-10845480Y-20567849D01*
X-10855970Y-20545671D01*
X-10864235Y-20522571D01*
X-10870196Y-20498773D01*
X-10873796Y-20474504D01*
X-10875000Y-20450000D01*
X-10875000Y-19525000D01*
X-10873796Y-19500496D01*
X-10870196Y-19476227D01*
X-10864235Y-19452429D01*
X-10855970Y-19429329D01*
X-10845480Y-19407151D01*
X-10832867Y-19386107D01*
X-10818253Y-19366402D01*
X-10801777Y-19348223D01*
X-10783598Y-19331747D01*
X-10763893Y-19317133D01*
X-10742849Y-19304520D01*
X-10720671Y-19294030D01*
X-10697571Y-19285765D01*
X-10673773Y-19279804D01*
X-10649504Y-19276204D01*
X-10625000Y-19275000D01*
X-9375000Y-19275000D01*
X-9350496Y-19276204D01*
X-9350496Y-19276204D01*
G37*
D13*
G04 #@! TD*
G04 #@! TO.P,C3,2*
G04 #@! TO.N,GND*
X-10000000Y-19987500D03*
D12*
G04 #@! TO.N,+5V*
G04 #@! TO.C,C3*
G36*
X-9350496Y-16301204D02*
X-9326227Y-16304804D01*
X-9302429Y-16310765D01*
X-9279329Y-16319030D01*
X-9257151Y-16329520D01*
X-9236107Y-16342133D01*
X-9216402Y-16356747D01*
X-9198223Y-16373223D01*
X-9181747Y-16391402D01*
X-9167133Y-16411107D01*
X-9154520Y-16432151D01*
X-9144030Y-16454329D01*
X-9135765Y-16477429D01*
X-9129804Y-16501227D01*
X-9126204Y-16525496D01*
X-9125000Y-16550000D01*
X-9125000Y-17475000D01*
X-9126204Y-17499504D01*
X-9129804Y-17523773D01*
X-9135765Y-17547571D01*
X-9144030Y-17570671D01*
X-9154520Y-17592849D01*
X-9167133Y-17613893D01*
X-9181747Y-17633598D01*
X-9198223Y-17651777D01*
X-9216402Y-17668253D01*
X-9236107Y-17682867D01*
X-9257151Y-17695480D01*
X-9279329Y-17705970D01*
X-9302429Y-17714235D01*
X-9326227Y-17720196D01*
X-9350496Y-17723796D01*
X-9375000Y-17725000D01*
X-10625000Y-17725000D01*
X-10649504Y-17723796D01*
X-10673773Y-17720196D01*
X-10697571Y-17714235D01*
X-10720671Y-17705970D01*
X-10742849Y-17695480D01*
X-10763893Y-17682867D01*
X-10783598Y-17668253D01*
X-10801777Y-17651777D01*
X-10818253Y-17633598D01*
X-10832867Y-17613893D01*
X-10845480Y-17592849D01*
X-10855970Y-17570671D01*
X-10864235Y-17547571D01*
X-10870196Y-17523773D01*
X-10873796Y-17499504D01*
X-10875000Y-17475000D01*
X-10875000Y-16550000D01*
X-10873796Y-16525496D01*
X-10870196Y-16501227D01*
X-10864235Y-16477429D01*
X-10855970Y-16454329D01*
X-10845480Y-16432151D01*
X-10832867Y-16411107D01*
X-10818253Y-16391402D01*
X-10801777Y-16373223D01*
X-10783598Y-16356747D01*
X-10763893Y-16342133D01*
X-10742849Y-16329520D01*
X-10720671Y-16319030D01*
X-10697571Y-16310765D01*
X-10673773Y-16304804D01*
X-10649504Y-16301204D01*
X-10625000Y-16300000D01*
X-9375000Y-16300000D01*
X-9350496Y-16301204D01*
X-9350496Y-16301204D01*
G37*
D13*
G04 #@! TD*
G04 #@! TO.P,C3,1*
G04 #@! TO.N,+5V*
X-10000000Y-17012500D03*
D12*
G04 #@! TO.N,+5V*
G04 #@! TO.C,C4*
G36*
X-9350496Y-3301204D02*
X-9326227Y-3304804D01*
X-9302429Y-3310765D01*
X-9279329Y-3319030D01*
X-9257151Y-3329520D01*
X-9236107Y-3342133D01*
X-9216402Y-3356747D01*
X-9198223Y-3373223D01*
X-9181747Y-3391402D01*
X-9167133Y-3411107D01*
X-9154520Y-3432151D01*
X-9144030Y-3454329D01*
X-9135765Y-3477429D01*
X-9129804Y-3501227D01*
X-9126204Y-3525496D01*
X-9125000Y-3550000D01*
X-9125000Y-4475000D01*
X-9126204Y-4499504D01*
X-9129804Y-4523773D01*
X-9135765Y-4547571D01*
X-9144030Y-4570671D01*
X-9154520Y-4592849D01*
X-9167133Y-4613893D01*
X-9181747Y-4633598D01*
X-9198223Y-4651777D01*
X-9216402Y-4668253D01*
X-9236107Y-4682867D01*
X-9257151Y-4695480D01*
X-9279329Y-4705970D01*
X-9302429Y-4714235D01*
X-9326227Y-4720196D01*
X-9350496Y-4723796D01*
X-9375000Y-4725000D01*
X-10625000Y-4725000D01*
X-10649504Y-4723796D01*
X-10673773Y-4720196D01*
X-10697571Y-4714235D01*
X-10720671Y-4705970D01*
X-10742849Y-4695480D01*
X-10763893Y-4682867D01*
X-10783598Y-4668253D01*
X-10801777Y-4651777D01*
X-10818253Y-4633598D01*
X-10832867Y-4613893D01*
X-10845480Y-4592849D01*
X-10855970Y-4570671D01*
X-10864235Y-4547571D01*
X-10870196Y-4523773D01*
X-10873796Y-4499504D01*
X-10875000Y-4475000D01*
X-10875000Y-3550000D01*
X-10873796Y-3525496D01*
X-10870196Y-3501227D01*
X-10864235Y-3477429D01*
X-10855970Y-3454329D01*
X-10845480Y-3432151D01*
X-10832867Y-3411107D01*
X-10818253Y-3391402D01*
X-10801777Y-3373223D01*
X-10783598Y-3356747D01*
X-10763893Y-3342133D01*
X-10742849Y-3329520D01*
X-10720671Y-3319030D01*
X-10697571Y-3310765D01*
X-10673773Y-3304804D01*
X-10649504Y-3301204D01*
X-10625000Y-3300000D01*
X-9375000Y-3300000D01*
X-9350496Y-3301204D01*
X-9350496Y-3301204D01*
G37*
D13*
G04 #@! TD*
G04 #@! TO.P,C4,1*
G04 #@! TO.N,+5V*
X-10000000Y-4012500D03*
D12*
G04 #@! TO.N,GND*
G04 #@! TO.C,C4*
G36*
X-9350496Y-6276204D02*
X-9326227Y-6279804D01*
X-9302429Y-6285765D01*
X-9279329Y-6294030D01*
X-9257151Y-6304520D01*
X-9236107Y-6317133D01*
X-9216402Y-6331747D01*
X-9198223Y-6348223D01*
X-9181747Y-6366402D01*
X-9167133Y-6386107D01*
X-9154520Y-6407151D01*
X-9144030Y-6429329D01*
X-9135765Y-6452429D01*
X-9129804Y-6476227D01*
X-9126204Y-6500496D01*
X-9125000Y-6525000D01*
X-9125000Y-7450000D01*
X-9126204Y-7474504D01*
X-9129804Y-7498773D01*
X-9135765Y-7522571D01*
X-9144030Y-7545671D01*
X-9154520Y-7567849D01*
X-9167133Y-7588893D01*
X-9181747Y-7608598D01*
X-9198223Y-7626777D01*
X-9216402Y-7643253D01*
X-9236107Y-7657867D01*
X-9257151Y-7670480D01*
X-9279329Y-7680970D01*
X-9302429Y-7689235D01*
X-9326227Y-7695196D01*
X-9350496Y-7698796D01*
X-9375000Y-7700000D01*
X-10625000Y-7700000D01*
X-10649504Y-7698796D01*
X-10673773Y-7695196D01*
X-10697571Y-7689235D01*
X-10720671Y-7680970D01*
X-10742849Y-7670480D01*
X-10763893Y-7657867D01*
X-10783598Y-7643253D01*
X-10801777Y-7626777D01*
X-10818253Y-7608598D01*
X-10832867Y-7588893D01*
X-10845480Y-7567849D01*
X-10855970Y-7545671D01*
X-10864235Y-7522571D01*
X-10870196Y-7498773D01*
X-10873796Y-7474504D01*
X-10875000Y-7450000D01*
X-10875000Y-6525000D01*
X-10873796Y-6500496D01*
X-10870196Y-6476227D01*
X-10864235Y-6452429D01*
X-10855970Y-6429329D01*
X-10845480Y-6407151D01*
X-10832867Y-6386107D01*
X-10818253Y-6366402D01*
X-10801777Y-6348223D01*
X-10783598Y-6331747D01*
X-10763893Y-6317133D01*
X-10742849Y-6304520D01*
X-10720671Y-6294030D01*
X-10697571Y-6285765D01*
X-10673773Y-6279804D01*
X-10649504Y-6276204D01*
X-10625000Y-6275000D01*
X-9375000Y-6275000D01*
X-9350496Y-6276204D01*
X-9350496Y-6276204D01*
G37*
D13*
G04 #@! TD*
G04 #@! TO.P,C4,2*
G04 #@! TO.N,GND*
X-10000000Y-6987500D03*
D12*
G04 #@! TO.N,GND*
G04 #@! TO.C,C5*
G36*
X-25350496Y-52776204D02*
X-25326227Y-52779804D01*
X-25302429Y-52785765D01*
X-25279329Y-52794030D01*
X-25257151Y-52804520D01*
X-25236107Y-52817133D01*
X-25216402Y-52831747D01*
X-25198223Y-52848223D01*
X-25181747Y-52866402D01*
X-25167133Y-52886107D01*
X-25154520Y-52907151D01*
X-25144030Y-52929329D01*
X-25135765Y-52952429D01*
X-25129804Y-52976227D01*
X-25126204Y-53000496D01*
X-25125000Y-53025000D01*
X-25125000Y-53950000D01*
X-25126204Y-53974504D01*
X-25129804Y-53998773D01*
X-25135765Y-54022571D01*
X-25144030Y-54045671D01*
X-25154520Y-54067849D01*
X-25167133Y-54088893D01*
X-25181747Y-54108598D01*
X-25198223Y-54126777D01*
X-25216402Y-54143253D01*
X-25236107Y-54157867D01*
X-25257151Y-54170480D01*
X-25279329Y-54180970D01*
X-25302429Y-54189235D01*
X-25326227Y-54195196D01*
X-25350496Y-54198796D01*
X-25375000Y-54200000D01*
X-26625000Y-54200000D01*
X-26649504Y-54198796D01*
X-26673773Y-54195196D01*
X-26697571Y-54189235D01*
X-26720671Y-54180970D01*
X-26742849Y-54170480D01*
X-26763893Y-54157867D01*
X-26783598Y-54143253D01*
X-26801777Y-54126777D01*
X-26818253Y-54108598D01*
X-26832867Y-54088893D01*
X-26845480Y-54067849D01*
X-26855970Y-54045671D01*
X-26864235Y-54022571D01*
X-26870196Y-53998773D01*
X-26873796Y-53974504D01*
X-26875000Y-53950000D01*
X-26875000Y-53025000D01*
X-26873796Y-53000496D01*
X-26870196Y-52976227D01*
X-26864235Y-52952429D01*
X-26855970Y-52929329D01*
X-26845480Y-52907151D01*
X-26832867Y-52886107D01*
X-26818253Y-52866402D01*
X-26801777Y-52848223D01*
X-26783598Y-52831747D01*
X-26763893Y-52817133D01*
X-26742849Y-52804520D01*
X-26720671Y-52794030D01*
X-26697571Y-52785765D01*
X-26673773Y-52779804D01*
X-26649504Y-52776204D01*
X-26625000Y-52775000D01*
X-25375000Y-52775000D01*
X-25350496Y-52776204D01*
X-25350496Y-52776204D01*
G37*
D13*
G04 #@! TD*
G04 #@! TO.P,C5,2*
G04 #@! TO.N,GND*
X-26000000Y-53487500D03*
D12*
G04 #@! TO.N,Net-(C5-Pad1)*
G04 #@! TO.C,C5*
G36*
X-25350496Y-49801204D02*
X-25326227Y-49804804D01*
X-25302429Y-49810765D01*
X-25279329Y-49819030D01*
X-25257151Y-49829520D01*
X-25236107Y-49842133D01*
X-25216402Y-49856747D01*
X-25198223Y-49873223D01*
X-25181747Y-49891402D01*
X-25167133Y-49911107D01*
X-25154520Y-49932151D01*
X-25144030Y-49954329D01*
X-25135765Y-49977429D01*
X-25129804Y-50001227D01*
X-25126204Y-50025496D01*
X-25125000Y-50050000D01*
X-25125000Y-50975000D01*
X-25126204Y-50999504D01*
X-25129804Y-51023773D01*
X-25135765Y-51047571D01*
X-25144030Y-51070671D01*
X-25154520Y-51092849D01*
X-25167133Y-51113893D01*
X-25181747Y-51133598D01*
X-25198223Y-51151777D01*
X-25216402Y-51168253D01*
X-25236107Y-51182867D01*
X-25257151Y-51195480D01*
X-25279329Y-51205970D01*
X-25302429Y-51214235D01*
X-25326227Y-51220196D01*
X-25350496Y-51223796D01*
X-25375000Y-51225000D01*
X-26625000Y-51225000D01*
X-26649504Y-51223796D01*
X-26673773Y-51220196D01*
X-26697571Y-51214235D01*
X-26720671Y-51205970D01*
X-26742849Y-51195480D01*
X-26763893Y-51182867D01*
X-26783598Y-51168253D01*
X-26801777Y-51151777D01*
X-26818253Y-51133598D01*
X-26832867Y-51113893D01*
X-26845480Y-51092849D01*
X-26855970Y-51070671D01*
X-26864235Y-51047571D01*
X-26870196Y-51023773D01*
X-26873796Y-50999504D01*
X-26875000Y-50975000D01*
X-26875000Y-50050000D01*
X-26873796Y-50025496D01*
X-26870196Y-50001227D01*
X-26864235Y-49977429D01*
X-26855970Y-49954329D01*
X-26845480Y-49932151D01*
X-26832867Y-49911107D01*
X-26818253Y-49891402D01*
X-26801777Y-49873223D01*
X-26783598Y-49856747D01*
X-26763893Y-49842133D01*
X-26742849Y-49829520D01*
X-26720671Y-49819030D01*
X-26697571Y-49810765D01*
X-26673773Y-49804804D01*
X-26649504Y-49801204D01*
X-26625000Y-49800000D01*
X-25375000Y-49800000D01*
X-25350496Y-49801204D01*
X-25350496Y-49801204D01*
G37*
D13*
G04 #@! TD*
G04 #@! TO.P,C5,1*
G04 #@! TO.N,Net-(C5-Pad1)*
X-26000000Y-50512500D03*
D12*
G04 #@! TO.N,Net-(C6-Pad1)*
G04 #@! TO.C,C6*
G36*
X-25350496Y-46155204D02*
X-25326227Y-46158804D01*
X-25302429Y-46164765D01*
X-25279329Y-46173030D01*
X-25257151Y-46183520D01*
X-25236107Y-46196133D01*
X-25216402Y-46210747D01*
X-25198223Y-46227223D01*
X-25181747Y-46245402D01*
X-25167133Y-46265107D01*
X-25154520Y-46286151D01*
X-25144030Y-46308329D01*
X-25135765Y-46331429D01*
X-25129804Y-46355227D01*
X-25126204Y-46379496D01*
X-25125000Y-46404000D01*
X-25125000Y-47329000D01*
X-25126204Y-47353504D01*
X-25129804Y-47377773D01*
X-25135765Y-47401571D01*
X-25144030Y-47424671D01*
X-25154520Y-47446849D01*
X-25167133Y-47467893D01*
X-25181747Y-47487598D01*
X-25198223Y-47505777D01*
X-25216402Y-47522253D01*
X-25236107Y-47536867D01*
X-25257151Y-47549480D01*
X-25279329Y-47559970D01*
X-25302429Y-47568235D01*
X-25326227Y-47574196D01*
X-25350496Y-47577796D01*
X-25375000Y-47579000D01*
X-26625000Y-47579000D01*
X-26649504Y-47577796D01*
X-26673773Y-47574196D01*
X-26697571Y-47568235D01*
X-26720671Y-47559970D01*
X-26742849Y-47549480D01*
X-26763893Y-47536867D01*
X-26783598Y-47522253D01*
X-26801777Y-47505777D01*
X-26818253Y-47487598D01*
X-26832867Y-47467893D01*
X-26845480Y-47446849D01*
X-26855970Y-47424671D01*
X-26864235Y-47401571D01*
X-26870196Y-47377773D01*
X-26873796Y-47353504D01*
X-26875000Y-47329000D01*
X-26875000Y-46404000D01*
X-26873796Y-46379496D01*
X-26870196Y-46355227D01*
X-26864235Y-46331429D01*
X-26855970Y-46308329D01*
X-26845480Y-46286151D01*
X-26832867Y-46265107D01*
X-26818253Y-46245402D01*
X-26801777Y-46227223D01*
X-26783598Y-46210747D01*
X-26763893Y-46196133D01*
X-26742849Y-46183520D01*
X-26720671Y-46173030D01*
X-26697571Y-46164765D01*
X-26673773Y-46158804D01*
X-26649504Y-46155204D01*
X-26625000Y-46154000D01*
X-25375000Y-46154000D01*
X-25350496Y-46155204D01*
X-25350496Y-46155204D01*
G37*
D13*
G04 #@! TD*
G04 #@! TO.P,C6,1*
G04 #@! TO.N,Net-(C6-Pad1)*
X-26000000Y-46866500D03*
D12*
G04 #@! TO.N,GND*
G04 #@! TO.C,C6*
G36*
X-25350496Y-43180204D02*
X-25326227Y-43183804D01*
X-25302429Y-43189765D01*
X-25279329Y-43198030D01*
X-25257151Y-43208520D01*
X-25236107Y-43221133D01*
X-25216402Y-43235747D01*
X-25198223Y-43252223D01*
X-25181747Y-43270402D01*
X-25167133Y-43290107D01*
X-25154520Y-43311151D01*
X-25144030Y-43333329D01*
X-25135765Y-43356429D01*
X-25129804Y-43380227D01*
X-25126204Y-43404496D01*
X-25125000Y-43429000D01*
X-25125000Y-44354000D01*
X-25126204Y-44378504D01*
X-25129804Y-44402773D01*
X-25135765Y-44426571D01*
X-25144030Y-44449671D01*
X-25154520Y-44471849D01*
X-25167133Y-44492893D01*
X-25181747Y-44512598D01*
X-25198223Y-44530777D01*
X-25216402Y-44547253D01*
X-25236107Y-44561867D01*
X-25257151Y-44574480D01*
X-25279329Y-44584970D01*
X-25302429Y-44593235D01*
X-25326227Y-44599196D01*
X-25350496Y-44602796D01*
X-25375000Y-44604000D01*
X-26625000Y-44604000D01*
X-26649504Y-44602796D01*
X-26673773Y-44599196D01*
X-26697571Y-44593235D01*
X-26720671Y-44584970D01*
X-26742849Y-44574480D01*
X-26763893Y-44561867D01*
X-26783598Y-44547253D01*
X-26801777Y-44530777D01*
X-26818253Y-44512598D01*
X-26832867Y-44492893D01*
X-26845480Y-44471849D01*
X-26855970Y-44449671D01*
X-26864235Y-44426571D01*
X-26870196Y-44402773D01*
X-26873796Y-44378504D01*
X-26875000Y-44354000D01*
X-26875000Y-43429000D01*
X-26873796Y-43404496D01*
X-26870196Y-43380227D01*
X-26864235Y-43356429D01*
X-26855970Y-43333329D01*
X-26845480Y-43311151D01*
X-26832867Y-43290107D01*
X-26818253Y-43270402D01*
X-26801777Y-43252223D01*
X-26783598Y-43235747D01*
X-26763893Y-43221133D01*
X-26742849Y-43208520D01*
X-26720671Y-43198030D01*
X-26697571Y-43189765D01*
X-26673773Y-43183804D01*
X-26649504Y-43180204D01*
X-26625000Y-43179000D01*
X-25375000Y-43179000D01*
X-25350496Y-43180204D01*
X-25350496Y-43180204D01*
G37*
D13*
G04 #@! TD*
G04 #@! TO.P,C6,2*
G04 #@! TO.N,GND*
X-26000000Y-43891500D03*
D12*
G04 #@! TO.N,GND*
G04 #@! TO.C,C7*
G36*
X-25350496Y-39551204D02*
X-25326227Y-39554804D01*
X-25302429Y-39560765D01*
X-25279329Y-39569030D01*
X-25257151Y-39579520D01*
X-25236107Y-39592133D01*
X-25216402Y-39606747D01*
X-25198223Y-39623223D01*
X-25181747Y-39641402D01*
X-25167133Y-39661107D01*
X-25154520Y-39682151D01*
X-25144030Y-39704329D01*
X-25135765Y-39727429D01*
X-25129804Y-39751227D01*
X-25126204Y-39775496D01*
X-25125000Y-39800000D01*
X-25125000Y-40725000D01*
X-25126204Y-40749504D01*
X-25129804Y-40773773D01*
X-25135765Y-40797571D01*
X-25144030Y-40820671D01*
X-25154520Y-40842849D01*
X-25167133Y-40863893D01*
X-25181747Y-40883598D01*
X-25198223Y-40901777D01*
X-25216402Y-40918253D01*
X-25236107Y-40932867D01*
X-25257151Y-40945480D01*
X-25279329Y-40955970D01*
X-25302429Y-40964235D01*
X-25326227Y-40970196D01*
X-25350496Y-40973796D01*
X-25375000Y-40975000D01*
X-26625000Y-40975000D01*
X-26649504Y-40973796D01*
X-26673773Y-40970196D01*
X-26697571Y-40964235D01*
X-26720671Y-40955970D01*
X-26742849Y-40945480D01*
X-26763893Y-40932867D01*
X-26783598Y-40918253D01*
X-26801777Y-40901777D01*
X-26818253Y-40883598D01*
X-26832867Y-40863893D01*
X-26845480Y-40842849D01*
X-26855970Y-40820671D01*
X-26864235Y-40797571D01*
X-26870196Y-40773773D01*
X-26873796Y-40749504D01*
X-26875000Y-40725000D01*
X-26875000Y-39800000D01*
X-26873796Y-39775496D01*
X-26870196Y-39751227D01*
X-26864235Y-39727429D01*
X-26855970Y-39704329D01*
X-26845480Y-39682151D01*
X-26832867Y-39661107D01*
X-26818253Y-39641402D01*
X-26801777Y-39623223D01*
X-26783598Y-39606747D01*
X-26763893Y-39592133D01*
X-26742849Y-39579520D01*
X-26720671Y-39569030D01*
X-26697571Y-39560765D01*
X-26673773Y-39554804D01*
X-26649504Y-39551204D01*
X-26625000Y-39550000D01*
X-25375000Y-39550000D01*
X-25350496Y-39551204D01*
X-25350496Y-39551204D01*
G37*
D13*
G04 #@! TD*
G04 #@! TO.P,C7,2*
G04 #@! TO.N,GND*
X-26000000Y-40262500D03*
D12*
G04 #@! TO.N,Net-(C7-Pad1)*
G04 #@! TO.C,C7*
G36*
X-25350496Y-36576204D02*
X-25326227Y-36579804D01*
X-25302429Y-36585765D01*
X-25279329Y-36594030D01*
X-25257151Y-36604520D01*
X-25236107Y-36617133D01*
X-25216402Y-36631747D01*
X-25198223Y-36648223D01*
X-25181747Y-36666402D01*
X-25167133Y-36686107D01*
X-25154520Y-36707151D01*
X-25144030Y-36729329D01*
X-25135765Y-36752429D01*
X-25129804Y-36776227D01*
X-25126204Y-36800496D01*
X-25125000Y-36825000D01*
X-25125000Y-37750000D01*
X-25126204Y-37774504D01*
X-25129804Y-37798773D01*
X-25135765Y-37822571D01*
X-25144030Y-37845671D01*
X-25154520Y-37867849D01*
X-25167133Y-37888893D01*
X-25181747Y-37908598D01*
X-25198223Y-37926777D01*
X-25216402Y-37943253D01*
X-25236107Y-37957867D01*
X-25257151Y-37970480D01*
X-25279329Y-37980970D01*
X-25302429Y-37989235D01*
X-25326227Y-37995196D01*
X-25350496Y-37998796D01*
X-25375000Y-38000000D01*
X-26625000Y-38000000D01*
X-26649504Y-37998796D01*
X-26673773Y-37995196D01*
X-26697571Y-37989235D01*
X-26720671Y-37980970D01*
X-26742849Y-37970480D01*
X-26763893Y-37957867D01*
X-26783598Y-37943253D01*
X-26801777Y-37926777D01*
X-26818253Y-37908598D01*
X-26832867Y-37888893D01*
X-26845480Y-37867849D01*
X-26855970Y-37845671D01*
X-26864235Y-37822571D01*
X-26870196Y-37798773D01*
X-26873796Y-37774504D01*
X-26875000Y-37750000D01*
X-26875000Y-36825000D01*
X-26873796Y-36800496D01*
X-26870196Y-36776227D01*
X-26864235Y-36752429D01*
X-26855970Y-36729329D01*
X-26845480Y-36707151D01*
X-26832867Y-36686107D01*
X-26818253Y-36666402D01*
X-26801777Y-36648223D01*
X-26783598Y-36631747D01*
X-26763893Y-36617133D01*
X-26742849Y-36604520D01*
X-26720671Y-36594030D01*
X-26697571Y-36585765D01*
X-26673773Y-36579804D01*
X-26649504Y-36576204D01*
X-26625000Y-36575000D01*
X-25375000Y-36575000D01*
X-25350496Y-36576204D01*
X-25350496Y-36576204D01*
G37*
D13*
G04 #@! TD*
G04 #@! TO.P,C7,1*
G04 #@! TO.N,Net-(C7-Pad1)*
X-26000000Y-37287500D03*
D12*
G04 #@! TO.N,Net-(C8-Pad1)*
G04 #@! TO.C,C8*
G36*
X-25350496Y-32776204D02*
X-25326227Y-32779804D01*
X-25302429Y-32785765D01*
X-25279329Y-32794030D01*
X-25257151Y-32804520D01*
X-25236107Y-32817133D01*
X-25216402Y-32831747D01*
X-25198223Y-32848223D01*
X-25181747Y-32866402D01*
X-25167133Y-32886107D01*
X-25154520Y-32907151D01*
X-25144030Y-32929329D01*
X-25135765Y-32952429D01*
X-25129804Y-32976227D01*
X-25126204Y-33000496D01*
X-25125000Y-33025000D01*
X-25125000Y-33950000D01*
X-25126204Y-33974504D01*
X-25129804Y-33998773D01*
X-25135765Y-34022571D01*
X-25144030Y-34045671D01*
X-25154520Y-34067849D01*
X-25167133Y-34088893D01*
X-25181747Y-34108598D01*
X-25198223Y-34126777D01*
X-25216402Y-34143253D01*
X-25236107Y-34157867D01*
X-25257151Y-34170480D01*
X-25279329Y-34180970D01*
X-25302429Y-34189235D01*
X-25326227Y-34195196D01*
X-25350496Y-34198796D01*
X-25375000Y-34200000D01*
X-26625000Y-34200000D01*
X-26649504Y-34198796D01*
X-26673773Y-34195196D01*
X-26697571Y-34189235D01*
X-26720671Y-34180970D01*
X-26742849Y-34170480D01*
X-26763893Y-34157867D01*
X-26783598Y-34143253D01*
X-26801777Y-34126777D01*
X-26818253Y-34108598D01*
X-26832867Y-34088893D01*
X-26845480Y-34067849D01*
X-26855970Y-34045671D01*
X-26864235Y-34022571D01*
X-26870196Y-33998773D01*
X-26873796Y-33974504D01*
X-26875000Y-33950000D01*
X-26875000Y-33025000D01*
X-26873796Y-33000496D01*
X-26870196Y-32976227D01*
X-26864235Y-32952429D01*
X-26855970Y-32929329D01*
X-26845480Y-32907151D01*
X-26832867Y-32886107D01*
X-26818253Y-32866402D01*
X-26801777Y-32848223D01*
X-26783598Y-32831747D01*
X-26763893Y-32817133D01*
X-26742849Y-32804520D01*
X-26720671Y-32794030D01*
X-26697571Y-32785765D01*
X-26673773Y-32779804D01*
X-26649504Y-32776204D01*
X-26625000Y-32775000D01*
X-25375000Y-32775000D01*
X-25350496Y-32776204D01*
X-25350496Y-32776204D01*
G37*
D13*
G04 #@! TD*
G04 #@! TO.P,C8,1*
G04 #@! TO.N,Net-(C8-Pad1)*
X-26000000Y-33487500D03*
D12*
G04 #@! TO.N,GND*
G04 #@! TO.C,C8*
G36*
X-25350496Y-29801204D02*
X-25326227Y-29804804D01*
X-25302429Y-29810765D01*
X-25279329Y-29819030D01*
X-25257151Y-29829520D01*
X-25236107Y-29842133D01*
X-25216402Y-29856747D01*
X-25198223Y-29873223D01*
X-25181747Y-29891402D01*
X-25167133Y-29911107D01*
X-25154520Y-29932151D01*
X-25144030Y-29954329D01*
X-25135765Y-29977429D01*
X-25129804Y-30001227D01*
X-25126204Y-30025496D01*
X-25125000Y-30050000D01*
X-25125000Y-30975000D01*
X-25126204Y-30999504D01*
X-25129804Y-31023773D01*
X-25135765Y-31047571D01*
X-25144030Y-31070671D01*
X-25154520Y-31092849D01*
X-25167133Y-31113893D01*
X-25181747Y-31133598D01*
X-25198223Y-31151777D01*
X-25216402Y-31168253D01*
X-25236107Y-31182867D01*
X-25257151Y-31195480D01*
X-25279329Y-31205970D01*
X-25302429Y-31214235D01*
X-25326227Y-31220196D01*
X-25350496Y-31223796D01*
X-25375000Y-31225000D01*
X-26625000Y-31225000D01*
X-26649504Y-31223796D01*
X-26673773Y-31220196D01*
X-26697571Y-31214235D01*
X-26720671Y-31205970D01*
X-26742849Y-31195480D01*
X-26763893Y-31182867D01*
X-26783598Y-31168253D01*
X-26801777Y-31151777D01*
X-26818253Y-31133598D01*
X-26832867Y-31113893D01*
X-26845480Y-31092849D01*
X-26855970Y-31070671D01*
X-26864235Y-31047571D01*
X-26870196Y-31023773D01*
X-26873796Y-30999504D01*
X-26875000Y-30975000D01*
X-26875000Y-30050000D01*
X-26873796Y-30025496D01*
X-26870196Y-30001227D01*
X-26864235Y-29977429D01*
X-26855970Y-29954329D01*
X-26845480Y-29932151D01*
X-26832867Y-29911107D01*
X-26818253Y-29891402D01*
X-26801777Y-29873223D01*
X-26783598Y-29856747D01*
X-26763893Y-29842133D01*
X-26742849Y-29829520D01*
X-26720671Y-29819030D01*
X-26697571Y-29810765D01*
X-26673773Y-29804804D01*
X-26649504Y-29801204D01*
X-26625000Y-29800000D01*
X-25375000Y-29800000D01*
X-25350496Y-29801204D01*
X-25350496Y-29801204D01*
G37*
D13*
G04 #@! TD*
G04 #@! TO.P,C8,2*
G04 #@! TO.N,GND*
X-26000000Y-30512500D03*
D12*
G04 #@! TO.N,GND*
G04 #@! TO.C,C11*
G36*
X-25350496Y-11976204D02*
X-25326227Y-11979804D01*
X-25302429Y-11985765D01*
X-25279329Y-11994030D01*
X-25257151Y-12004520D01*
X-25236107Y-12017133D01*
X-25216402Y-12031747D01*
X-25198223Y-12048223D01*
X-25181747Y-12066402D01*
X-25167133Y-12086107D01*
X-25154520Y-12107151D01*
X-25144030Y-12129329D01*
X-25135765Y-12152429D01*
X-25129804Y-12176227D01*
X-25126204Y-12200496D01*
X-25125000Y-12225000D01*
X-25125000Y-13150000D01*
X-25126204Y-13174504D01*
X-25129804Y-13198773D01*
X-25135765Y-13222571D01*
X-25144030Y-13245671D01*
X-25154520Y-13267849D01*
X-25167133Y-13288893D01*
X-25181747Y-13308598D01*
X-25198223Y-13326777D01*
X-25216402Y-13343253D01*
X-25236107Y-13357867D01*
X-25257151Y-13370480D01*
X-25279329Y-13380970D01*
X-25302429Y-13389235D01*
X-25326227Y-13395196D01*
X-25350496Y-13398796D01*
X-25375000Y-13400000D01*
X-26625000Y-13400000D01*
X-26649504Y-13398796D01*
X-26673773Y-13395196D01*
X-26697571Y-13389235D01*
X-26720671Y-13380970D01*
X-26742849Y-13370480D01*
X-26763893Y-13357867D01*
X-26783598Y-13343253D01*
X-26801777Y-13326777D01*
X-26818253Y-13308598D01*
X-26832867Y-13288893D01*
X-26845480Y-13267849D01*
X-26855970Y-13245671D01*
X-26864235Y-13222571D01*
X-26870196Y-13198773D01*
X-26873796Y-13174504D01*
X-26875000Y-13150000D01*
X-26875000Y-12225000D01*
X-26873796Y-12200496D01*
X-26870196Y-12176227D01*
X-26864235Y-12152429D01*
X-26855970Y-12129329D01*
X-26845480Y-12107151D01*
X-26832867Y-12086107D01*
X-26818253Y-12066402D01*
X-26801777Y-12048223D01*
X-26783598Y-12031747D01*
X-26763893Y-12017133D01*
X-26742849Y-12004520D01*
X-26720671Y-11994030D01*
X-26697571Y-11985765D01*
X-26673773Y-11979804D01*
X-26649504Y-11976204D01*
X-26625000Y-11975000D01*
X-25375000Y-11975000D01*
X-25350496Y-11976204D01*
X-25350496Y-11976204D01*
G37*
D13*
G04 #@! TD*
G04 #@! TO.P,C11,2*
G04 #@! TO.N,GND*
X-26000000Y-12687500D03*
D12*
G04 #@! TO.N,Net-(C11-Pad1)*
G04 #@! TO.C,C11*
G36*
X-25350496Y-9001204D02*
X-25326227Y-9004804D01*
X-25302429Y-9010765D01*
X-25279329Y-9019030D01*
X-25257151Y-9029520D01*
X-25236107Y-9042133D01*
X-25216402Y-9056747D01*
X-25198223Y-9073223D01*
X-25181747Y-9091402D01*
X-25167133Y-9111107D01*
X-25154520Y-9132151D01*
X-25144030Y-9154329D01*
X-25135765Y-9177429D01*
X-25129804Y-9201227D01*
X-25126204Y-9225496D01*
X-25125000Y-9250000D01*
X-25125000Y-10175000D01*
X-25126204Y-10199504D01*
X-25129804Y-10223773D01*
X-25135765Y-10247571D01*
X-25144030Y-10270671D01*
X-25154520Y-10292849D01*
X-25167133Y-10313893D01*
X-25181747Y-10333598D01*
X-25198223Y-10351777D01*
X-25216402Y-10368253D01*
X-25236107Y-10382867D01*
X-25257151Y-10395480D01*
X-25279329Y-10405970D01*
X-25302429Y-10414235D01*
X-25326227Y-10420196D01*
X-25350496Y-10423796D01*
X-25375000Y-10425000D01*
X-26625000Y-10425000D01*
X-26649504Y-10423796D01*
X-26673773Y-10420196D01*
X-26697571Y-10414235D01*
X-26720671Y-10405970D01*
X-26742849Y-10395480D01*
X-26763893Y-10382867D01*
X-26783598Y-10368253D01*
X-26801777Y-10351777D01*
X-26818253Y-10333598D01*
X-26832867Y-10313893D01*
X-26845480Y-10292849D01*
X-26855970Y-10270671D01*
X-26864235Y-10247571D01*
X-26870196Y-10223773D01*
X-26873796Y-10199504D01*
X-26875000Y-10175000D01*
X-26875000Y-9250000D01*
X-26873796Y-9225496D01*
X-26870196Y-9201227D01*
X-26864235Y-9177429D01*
X-26855970Y-9154329D01*
X-26845480Y-9132151D01*
X-26832867Y-9111107D01*
X-26818253Y-9091402D01*
X-26801777Y-9073223D01*
X-26783598Y-9056747D01*
X-26763893Y-9042133D01*
X-26742849Y-9029520D01*
X-26720671Y-9019030D01*
X-26697571Y-9010765D01*
X-26673773Y-9004804D01*
X-26649504Y-9001204D01*
X-26625000Y-9000000D01*
X-25375000Y-9000000D01*
X-25350496Y-9001204D01*
X-25350496Y-9001204D01*
G37*
D13*
G04 #@! TD*
G04 #@! TO.P,C11,1*
G04 #@! TO.N,Net-(C11-Pad1)*
X-26000000Y-9712500D03*
D12*
G04 #@! TO.N,Net-(C12-Pad1)*
G04 #@! TO.C,C12*
G36*
X-25350496Y-5976204D02*
X-25326227Y-5979804D01*
X-25302429Y-5985765D01*
X-25279329Y-5994030D01*
X-25257151Y-6004520D01*
X-25236107Y-6017133D01*
X-25216402Y-6031747D01*
X-25198223Y-6048223D01*
X-25181747Y-6066402D01*
X-25167133Y-6086107D01*
X-25154520Y-6107151D01*
X-25144030Y-6129329D01*
X-25135765Y-6152429D01*
X-25129804Y-6176227D01*
X-25126204Y-6200496D01*
X-25125000Y-6225000D01*
X-25125000Y-7150000D01*
X-25126204Y-7174504D01*
X-25129804Y-7198773D01*
X-25135765Y-7222571D01*
X-25144030Y-7245671D01*
X-25154520Y-7267849D01*
X-25167133Y-7288893D01*
X-25181747Y-7308598D01*
X-25198223Y-7326777D01*
X-25216402Y-7343253D01*
X-25236107Y-7357867D01*
X-25257151Y-7370480D01*
X-25279329Y-7380970D01*
X-25302429Y-7389235D01*
X-25326227Y-7395196D01*
X-25350496Y-7398796D01*
X-25375000Y-7400000D01*
X-26625000Y-7400000D01*
X-26649504Y-7398796D01*
X-26673773Y-7395196D01*
X-26697571Y-7389235D01*
X-26720671Y-7380970D01*
X-26742849Y-7370480D01*
X-26763893Y-7357867D01*
X-26783598Y-7343253D01*
X-26801777Y-7326777D01*
X-26818253Y-7308598D01*
X-26832867Y-7288893D01*
X-26845480Y-7267849D01*
X-26855970Y-7245671D01*
X-26864235Y-7222571D01*
X-26870196Y-7198773D01*
X-26873796Y-7174504D01*
X-26875000Y-7150000D01*
X-26875000Y-6225000D01*
X-26873796Y-6200496D01*
X-26870196Y-6176227D01*
X-26864235Y-6152429D01*
X-26855970Y-6129329D01*
X-26845480Y-6107151D01*
X-26832867Y-6086107D01*
X-26818253Y-6066402D01*
X-26801777Y-6048223D01*
X-26783598Y-6031747D01*
X-26763893Y-6017133D01*
X-26742849Y-6004520D01*
X-26720671Y-5994030D01*
X-26697571Y-5985765D01*
X-26673773Y-5979804D01*
X-26649504Y-5976204D01*
X-26625000Y-5975000D01*
X-25375000Y-5975000D01*
X-25350496Y-5976204D01*
X-25350496Y-5976204D01*
G37*
D13*
G04 #@! TD*
G04 #@! TO.P,C12,1*
G04 #@! TO.N,Net-(C12-Pad1)*
X-26000000Y-6687500D03*
D12*
G04 #@! TO.N,GND*
G04 #@! TO.C,C12*
G36*
X-25350496Y-3001204D02*
X-25326227Y-3004804D01*
X-25302429Y-3010765D01*
X-25279329Y-3019030D01*
X-25257151Y-3029520D01*
X-25236107Y-3042133D01*
X-25216402Y-3056747D01*
X-25198223Y-3073223D01*
X-25181747Y-3091402D01*
X-25167133Y-3111107D01*
X-25154520Y-3132151D01*
X-25144030Y-3154329D01*
X-25135765Y-3177429D01*
X-25129804Y-3201227D01*
X-25126204Y-3225496D01*
X-25125000Y-3250000D01*
X-25125000Y-4175000D01*
X-25126204Y-4199504D01*
X-25129804Y-4223773D01*
X-25135765Y-4247571D01*
X-25144030Y-4270671D01*
X-25154520Y-4292849D01*
X-25167133Y-4313893D01*
X-25181747Y-4333598D01*
X-25198223Y-4351777D01*
X-25216402Y-4368253D01*
X-25236107Y-4382867D01*
X-25257151Y-4395480D01*
X-25279329Y-4405970D01*
X-25302429Y-4414235D01*
X-25326227Y-4420196D01*
X-25350496Y-4423796D01*
X-25375000Y-4425000D01*
X-26625000Y-4425000D01*
X-26649504Y-4423796D01*
X-26673773Y-4420196D01*
X-26697571Y-4414235D01*
X-26720671Y-4405970D01*
X-26742849Y-4395480D01*
X-26763893Y-4382867D01*
X-26783598Y-4368253D01*
X-26801777Y-4351777D01*
X-26818253Y-4333598D01*
X-26832867Y-4313893D01*
X-26845480Y-4292849D01*
X-26855970Y-4270671D01*
X-26864235Y-4247571D01*
X-26870196Y-4223773D01*
X-26873796Y-4199504D01*
X-26875000Y-4175000D01*
X-26875000Y-3250000D01*
X-26873796Y-3225496D01*
X-26870196Y-3201227D01*
X-26864235Y-3177429D01*
X-26855970Y-3154329D01*
X-26845480Y-3132151D01*
X-26832867Y-3111107D01*
X-26818253Y-3091402D01*
X-26801777Y-3073223D01*
X-26783598Y-3056747D01*
X-26763893Y-3042133D01*
X-26742849Y-3029520D01*
X-26720671Y-3019030D01*
X-26697571Y-3010765D01*
X-26673773Y-3004804D01*
X-26649504Y-3001204D01*
X-26625000Y-3000000D01*
X-25375000Y-3000000D01*
X-25350496Y-3001204D01*
X-25350496Y-3001204D01*
G37*
D13*
G04 #@! TD*
G04 #@! TO.P,C12,2*
G04 #@! TO.N,GND*
X-26000000Y-3712500D03*
D11*
G04 #@! TO.P,R3,1*
G04 #@! TO.N,/J1_DATA*
X-19000000Y-49000000D03*
G04 #@! TO.P,R3,2*
G04 #@! TO.N,Net-(J1-Pad2)*
X-23000000Y-49000000D03*
G04 #@! TD*
G04 #@! TO.P,R6,1*
G04 #@! TO.N,/J2_DATA*
X-19000000Y-35500000D03*
G04 #@! TO.P,R6,2*
G04 #@! TO.N,Net-(J2-Pad2)*
X-23000000Y-35500000D03*
G04 #@! TD*
G04 #@! TO.P,R12,1*
G04 #@! TO.N,/C_DATA*
X-19000000Y-8200000D03*
G04 #@! TO.P,R12,2*
G04 #@! TO.N,Net-(J4-Pad2)*
X-23000000Y-8200000D03*
G04 #@! TD*
G04 #@! TO.P,R2,1*
G04 #@! TO.N,/J1_LOAD*
X-19000000Y-53000000D03*
G04 #@! TO.P,R2,2*
G04 #@! TO.N,Net-(C5-Pad1)*
X-23000000Y-53000000D03*
G04 #@! TD*
G04 #@! TO.P,R5,1*
G04 #@! TO.N,/J2_LOAD*
X-19000000Y-39500000D03*
G04 #@! TO.P,R5,2*
G04 #@! TO.N,Net-(C7-Pad1)*
X-23000000Y-39500000D03*
G04 #@! TD*
G04 #@! TO.P,R11,1*
G04 #@! TO.N,/C_LOAD*
X-19000000Y-11700000D03*
G04 #@! TO.P,R11,2*
G04 #@! TO.N,Net-(C11-Pad1)*
X-23000000Y-11700000D03*
G04 #@! TD*
G04 #@! TO.P,R1,1*
G04 #@! TO.N,Net-(R1-Pad1)*
X-19000000Y-44500000D03*
G04 #@! TO.P,R1,2*
G04 #@! TO.N,Net-(C6-Pad1)*
X-23000000Y-44500000D03*
G04 #@! TD*
G04 #@! TO.P,R4,1*
G04 #@! TO.N,Net-(R4-Pad1)*
X-19000000Y-31000000D03*
G04 #@! TO.P,R4,2*
G04 #@! TO.N,Net-(C8-Pad1)*
X-23000000Y-31000000D03*
G04 #@! TD*
G04 #@! TO.P,R10,1*
G04 #@! TO.N,Net-(R10-Pad1)*
X-19000000Y-4500000D03*
G04 #@! TO.P,R10,2*
G04 #@! TO.N,Net-(C12-Pad1)*
X-23000000Y-4500000D03*
G04 #@! TD*
D10*
G04 #@! TO.P,U1,1*
G04 #@! TO.N,Net-(U1-Pad1)*
X-13150000Y-45450000D03*
G04 #@! TO.P,U1,2*
G04 #@! TO.N,/J1_CLK*
X-13150000Y-44500000D03*
G04 #@! TO.P,U1,3*
G04 #@! TO.N,GND*
X-13150000Y-43550000D03*
G04 #@! TO.P,U1,4*
G04 #@! TO.N,Net-(R1-Pad1)*
X-15850000Y-43550000D03*
G04 #@! TO.P,U1,5*
G04 #@! TO.N,+5V*
X-15850000Y-45450000D03*
G04 #@! TD*
G04 #@! TO.P,U4,1*
G04 #@! TO.N,Net-(U4-Pad1)*
X-13150000Y-5450000D03*
G04 #@! TO.P,U4,2*
G04 #@! TO.N,/C_CLK*
X-13150000Y-4500000D03*
G04 #@! TO.P,U4,3*
G04 #@! TO.N,GND*
X-13150000Y-3550000D03*
G04 #@! TO.P,U4,4*
G04 #@! TO.N,Net-(R10-Pad1)*
X-15850000Y-3550000D03*
G04 #@! TO.P,U4,5*
G04 #@! TO.N,+5V*
X-15850000Y-5450000D03*
G04 #@! TD*
G04 #@! TO.P,U2,1*
G04 #@! TO.N,Net-(U2-Pad1)*
X-13150000Y-31950000D03*
G04 #@! TO.P,U2,2*
G04 #@! TO.N,/J2_CLK*
X-13150000Y-31000000D03*
G04 #@! TO.P,U2,3*
G04 #@! TO.N,GND*
X-13150000Y-30050000D03*
G04 #@! TO.P,U2,4*
G04 #@! TO.N,Net-(R4-Pad1)*
X-15850000Y-30050000D03*
G04 #@! TO.P,U2,5*
G04 #@! TO.N,+5V*
X-15850000Y-31950000D03*
G04 #@! TD*
D19*
G04 #@! TO.P,D1,1*
G04 #@! TO.N,+5V*
X-31750000Y-55000000D03*
G04 #@! TO.P,D1,2*
G04 #@! TO.N,GND*
X-29250000Y-55000000D03*
G04 #@! TD*
D20*
G04 #@! TO.N,GND*
X-30219999Y-35293601D02*
X-30219999Y-34153603D01*
X-31540000Y-36613602D02*
X-30219999Y-35293601D01*
X-30219999Y-34153603D02*
X-30320001Y-34053601D01*
X-31540000Y-37230000D02*
X-31540000Y-36613602D01*
X-30219999Y-7153603D02*
X-30320001Y-7053601D01*
X-30219999Y-8293601D02*
X-30219999Y-7153603D01*
X-31540000Y-9613602D02*
X-30219999Y-8293601D01*
X-31540000Y-10230000D02*
X-31540000Y-9613602D01*
X-12850000Y-11700000D02*
X-12850000Y-8700000D01*
X-21000000Y-12558002D02*
X-21000000Y-10841998D01*
X-21641998Y-13200000D02*
X-21000000Y-12558002D01*
X-24512500Y-13200000D02*
X-21641998Y-13200000D01*
X-25025000Y-12687500D02*
X-24512500Y-13200000D01*
X-26000000Y-12687500D02*
X-25025000Y-12687500D01*
X-26000000Y-3712500D02*
X-29953002Y-3712500D01*
X-13800000Y-11700000D02*
X-12850000Y-11700000D01*
X-15300000Y-10200000D02*
X-13800000Y-11700000D01*
X-21000000Y-10841998D02*
X-20358002Y-10200000D01*
X-20358002Y-10200000D02*
X-15300000Y-10200000D01*
X-30473199Y-4232697D02*
X-30473199Y-6673199D01*
X-29953002Y-3712500D02*
X-30473199Y-4232697D01*
X-30320001Y-6826397D02*
X-30320001Y-7053601D01*
X-30473199Y-6673199D02*
X-30320001Y-6826397D01*
X-14430000Y-3550000D02*
X-13150000Y-3550000D01*
X-14500000Y-3620000D02*
X-14430000Y-3550000D01*
X-14500000Y-6713002D02*
X-14500000Y-3620000D01*
X-21000000Y-10841998D02*
X-21000000Y-7341998D01*
X-21000000Y-7341998D02*
X-20448001Y-6789999D01*
X-20448001Y-6789999D02*
X-17650000Y-6789999D01*
X-17650000Y-6789999D02*
X-17439999Y-7000000D01*
X-17439999Y-7000000D02*
X-14786998Y-7000000D01*
X-14786998Y-7000000D02*
X-14500000Y-6713002D01*
X-10975000Y-6987500D02*
X-10000000Y-6987500D01*
X-11249498Y-6713002D02*
X-10975000Y-6987500D01*
X-14500000Y-6713002D02*
X-11249498Y-6713002D01*
X-20831988Y-14010010D02*
X-21641998Y-13200000D01*
X-10469990Y-14010010D02*
X-20831988Y-14010010D01*
X-7492500Y-17012500D02*
X-7480000Y-17000000D01*
X-4500000Y-19980000D02*
X-7480000Y-17000000D01*
X-7480000Y-17000000D02*
X-10469990Y-14010010D01*
X-26000000Y-12687500D02*
X-30812500Y-12687500D01*
X-33810010Y-7569508D02*
X-30473199Y-4232697D01*
X-33810010Y-11633519D02*
X-33810010Y-7569508D01*
X-33033519Y-12410010D02*
X-33810010Y-11633519D01*
X-31089990Y-12410010D02*
X-33033519Y-12410010D01*
X-30812500Y-12687500D02*
X-31089990Y-12410010D01*
X-6600000Y-25500000D02*
X-12850000Y-25500000D01*
X-4500000Y-27600000D02*
X-6600000Y-25500000D01*
X-19858002Y-24000000D02*
X-21000000Y-22858002D01*
X-12850000Y-24000000D02*
X-19858002Y-24000000D01*
X-12850000Y-24000000D02*
X-12850000Y-25500000D01*
X-12850000Y-22500000D02*
X-12850000Y-24000000D01*
X-10975000Y-19987500D02*
X-10000000Y-19987500D01*
X-21000000Y-21141998D02*
X-19845502Y-19987500D01*
X-21000000Y-22858002D02*
X-21000000Y-21141998D01*
X-14500000Y-16620000D02*
X-14500000Y-19987500D01*
X-14430000Y-16550000D02*
X-14500000Y-16620000D01*
X-13150000Y-16550000D02*
X-14430000Y-16550000D01*
X-19845502Y-19987500D02*
X-14500000Y-19987500D01*
X-14500000Y-19987500D02*
X-10975000Y-19987500D01*
X-21000000Y-26358002D02*
X-21000000Y-22858002D01*
X-21900845Y-27258847D02*
X-21000000Y-26358002D01*
X-25228653Y-27258847D02*
X-21900845Y-27258847D01*
X-26000000Y-26487500D02*
X-25228653Y-27258847D01*
X-26975000Y-16912500D02*
X-26000000Y-16912500D01*
X-30320001Y-19286399D02*
X-27946102Y-16912500D01*
X-30320001Y-20553601D02*
X-30320001Y-19286399D01*
X-29698602Y-21175000D02*
X-30320001Y-20553601D01*
X-30320001Y-21796399D02*
X-29698602Y-21175000D01*
X-30320001Y-21893603D02*
X-30320001Y-21796399D01*
X-27946102Y-16912500D02*
X-26975000Y-16912500D01*
X-31540000Y-23113602D02*
X-30320001Y-21893603D01*
X-31540000Y-23730000D02*
X-31540000Y-23113602D01*
X-12050000Y-40300000D02*
X-12850000Y-39500000D01*
X-4500000Y-40300000D02*
X-12050000Y-40300000D01*
X-12850000Y-36500000D02*
X-12850000Y-38000000D01*
X-12850000Y-38000000D02*
X-12850000Y-39500000D01*
X-21000000Y-40358002D02*
X-21675845Y-41033847D01*
X-25228653Y-41033847D02*
X-26000000Y-40262500D01*
X-21000000Y-38641998D02*
X-21000000Y-40358002D01*
X-12850000Y-38000000D02*
X-20358002Y-38000000D01*
X-21675845Y-41033847D02*
X-25228653Y-41033847D01*
X-20358002Y-38000000D02*
X-21000000Y-38641998D01*
X-14430000Y-30050000D02*
X-13150000Y-30050000D01*
X-14490001Y-30110001D02*
X-14430000Y-30050000D01*
X-14490001Y-32703003D02*
X-14490001Y-30110001D01*
X-14621999Y-32835001D02*
X-14490001Y-32703003D01*
X-13969500Y-33487500D02*
X-10000000Y-33487500D01*
X-14621999Y-32835001D02*
X-13969500Y-33487500D01*
X-19858002Y-33500000D02*
X-15286998Y-33500000D01*
X-21000000Y-38641998D02*
X-21000000Y-34641998D01*
X-15286998Y-33500000D02*
X-14621999Y-32835001D01*
X-21000000Y-34641998D02*
X-19858002Y-33500000D01*
X-30906399Y-32906399D02*
X-30906399Y-33339999D01*
X-26000000Y-30512500D02*
X-28512500Y-30512500D01*
X-28512500Y-30512500D02*
X-30906399Y-32906399D01*
X-30219999Y-34026399D02*
X-30219999Y-34153603D01*
X-30906399Y-33339999D02*
X-30219999Y-34026399D01*
X-28031502Y-43891500D02*
X-26000000Y-43891500D01*
X-31540000Y-50113602D02*
X-30219999Y-48793601D01*
X-30219999Y-48793601D02*
X-30219999Y-47653603D01*
X-30219999Y-47653603D02*
X-30320001Y-47553601D01*
X-30320001Y-47553601D02*
X-30320001Y-46179999D01*
X-31540000Y-50730000D02*
X-31540000Y-50113602D01*
X-30320001Y-46179999D02*
X-28031502Y-43891500D01*
X-33670011Y-52273518D02*
X-33670011Y-48170011D01*
X-26000000Y-53487500D02*
X-32456028Y-53487500D01*
X-32456028Y-53487500D02*
X-33670011Y-52273518D01*
X-31679999Y-46179999D02*
X-30320001Y-46179999D01*
X-33670011Y-48170011D02*
X-31679999Y-46179999D01*
X-21551999Y-54410001D02*
X-21000000Y-53858002D01*
X-26000000Y-53487500D02*
X-25077499Y-54410001D01*
X-25077499Y-54410001D02*
X-21551999Y-54410001D01*
X-20358002Y-51500000D02*
X-12850000Y-51500000D01*
X-21000000Y-53858002D02*
X-21000000Y-52141998D01*
X-21000000Y-52141998D02*
X-20358002Y-51500000D01*
X-12850000Y-50000000D02*
X-12850000Y-51500000D01*
X-12850000Y-51500000D02*
X-12850000Y-53000000D01*
X-10975000Y-46987500D02*
X-10000000Y-46987500D01*
X-21000000Y-48141998D02*
X-19845502Y-46987500D01*
X-21000000Y-52141998D02*
X-21000000Y-48141998D01*
X-14430000Y-43550000D02*
X-13150000Y-43550000D01*
X-14500000Y-46987500D02*
X-14500000Y-43620000D01*
X-14500000Y-43620000D02*
X-14430000Y-43550000D01*
X-14500000Y-46987500D02*
X-10975000Y-46987500D01*
X-19845502Y-46987500D02*
X-14500000Y-46987500D01*
X-2809999Y-53849999D02*
X-1960000Y-53000000D01*
X-3960000Y-55000000D02*
X-2809999Y-53849999D01*
X-21551999Y-54410001D02*
X-20962000Y-55000000D01*
X-20962000Y-55000000D02*
X-3960000Y-55000000D01*
X-31620001Y-19286399D02*
X-30320001Y-19286399D01*
X-33939989Y-24956458D02*
X-33939989Y-21606387D01*
X-33939989Y-21606387D02*
X-31620001Y-19286399D01*
X-26000000Y-26487500D02*
X-32408947Y-26487500D01*
X-32408947Y-26487500D02*
X-33939989Y-24956458D01*
X-26000000Y-40262500D02*
X-32633026Y-40262500D01*
X-32406399Y-32906399D02*
X-30906399Y-32906399D01*
X-32633026Y-40262500D02*
X-33939989Y-38955537D01*
X-33939989Y-38955537D02*
X-33939989Y-34439989D01*
X-33939989Y-34439989D02*
X-32406399Y-32906399D01*
X-27512500Y-55000000D02*
X-26000000Y-53487500D01*
X-29250000Y-55000000D02*
X-27512500Y-55000000D01*
G04 #@! TO.N,Net-(C5-Pad1)*
X-32860001Y-51938001D02*
X-32298002Y-52500000D01*
X-31540000Y-48160000D02*
X-32860001Y-49480001D01*
X-32860001Y-49480001D02*
X-32860001Y-51938001D01*
X-27987500Y-52500000D02*
X-26000000Y-50512500D01*
X-32298002Y-52500000D02*
X-27987500Y-52500000D01*
X-25487500Y-50512500D02*
X-23000000Y-53000000D01*
X-26000000Y-50512500D02*
X-25487500Y-50512500D01*
G04 #@! TO.N,Net-(C6-Pad1)*
X-26053500Y-46920000D02*
X-26000000Y-46866500D01*
X-29000000Y-46920000D02*
X-26053500Y-46920000D01*
X-25366500Y-46866500D02*
X-23000000Y-44500000D01*
X-26000000Y-46866500D02*
X-25366500Y-46866500D01*
G04 #@! TO.N,Net-(C7-Pad1)*
X-25212500Y-37287500D02*
X-23000000Y-39500000D01*
X-26000000Y-37287500D02*
X-25212500Y-37287500D01*
X-32299999Y-35419999D02*
X-31540000Y-34660000D01*
X-33129978Y-36249978D02*
X-32299999Y-35419999D01*
X-33129978Y-38620020D02*
X-33129978Y-36249978D01*
X-26000000Y-37287500D02*
X-27712500Y-39000000D01*
X-32749998Y-39000000D02*
X-33129978Y-38620020D01*
X-27712500Y-39000000D02*
X-32749998Y-39000000D01*
G04 #@! TO.N,Net-(C8-Pad1)*
X-26067500Y-33420000D02*
X-26000000Y-33487500D01*
X-29000000Y-33420000D02*
X-26067500Y-33420000D01*
X-25487500Y-33487500D02*
X-23000000Y-31000000D01*
X-26000000Y-33487500D02*
X-25487500Y-33487500D01*
G04 #@! TO.N,+5V*
X-17399990Y-5979988D02*
X-17370002Y-5950000D01*
X-17399990Y-5719990D02*
X-17130000Y-5450000D01*
X-17130000Y-5450000D02*
X-15850000Y-5450000D01*
X-17399990Y-5979988D02*
X-17399990Y-5719990D01*
X-4500000Y-4740000D02*
X-4500000Y-7280000D01*
X-5227500Y-4012500D02*
X-4500000Y-4740000D01*
X-10000000Y-4012500D02*
X-5227500Y-4012500D01*
X-10771347Y-16241153D02*
X-10000000Y-17012500D01*
X-12192480Y-14820020D02*
X-10771347Y-16241153D01*
X-21000000Y-18358002D02*
X-21000000Y-14820020D01*
X-20448001Y-18910001D02*
X-21000000Y-18358002D01*
X-16765001Y-18910001D02*
X-20448001Y-18910001D01*
X-16305000Y-18450000D02*
X-16765001Y-18910001D01*
X-15850000Y-18450000D02*
X-16305000Y-18450000D01*
X-21000000Y-14820020D02*
X-12192480Y-14820020D01*
X-10771347Y-43241153D02*
X-10000000Y-44012500D01*
X-19858002Y-42500000D02*
X-11512500Y-42500000D01*
X-11512500Y-42500000D02*
X-10771347Y-43241153D01*
X-20560001Y-43201999D02*
X-19858002Y-42500000D01*
X-20560001Y-45798001D02*
X-20560001Y-43201999D01*
X-20448001Y-45910001D02*
X-20560001Y-45798001D01*
X-17590001Y-45910001D02*
X-20448001Y-45910001D01*
X-17130000Y-45450000D02*
X-17590001Y-45910001D01*
X-15850000Y-45450000D02*
X-17130000Y-45450000D01*
X-10771347Y-29741153D02*
X-10000000Y-30512500D01*
X-20688000Y-28500000D02*
X-12012500Y-28500000D01*
X-12012500Y-28500000D02*
X-10771347Y-29741153D01*
X-21000000Y-28500000D02*
X-20688000Y-28500000D01*
X-21000000Y-31858002D02*
X-21000000Y-28500000D01*
X-20448001Y-32410001D02*
X-21000000Y-31858002D01*
X-17590001Y-32410001D02*
X-20448001Y-32410001D01*
X-15850000Y-31950000D02*
X-17130000Y-31950000D01*
X-17130000Y-31950000D02*
X-17590001Y-32410001D01*
D21*
X-30200000Y-1700000D02*
X-30000000Y-1500000D01*
X-30000000Y-1500000D02*
X-20700000Y-1500000D01*
X-12212500Y-1500000D02*
X-20700000Y-1500000D01*
D20*
X-10700000Y-3012500D02*
X-12212500Y-1500000D01*
X-10687500Y-3012500D02*
X-10700000Y-3012500D01*
X-10500000Y-4012500D02*
X-10500000Y-3200000D01*
X-10500000Y-3200000D02*
X-10687500Y-3012500D01*
X-20278014Y-5979988D02*
X-17399990Y-5979988D01*
X-21000000Y-1500000D02*
X-21000000Y-5258002D01*
X-21000000Y-5258002D02*
X-20278014Y-5979988D01*
X-4500000Y-4740000D02*
X-4500000Y-3500000D01*
D21*
X-6500000Y-1500000D02*
X-12212500Y-1500000D01*
X-4500000Y-3500000D02*
X-6500000Y-1500000D01*
D20*
X-31696198Y-28500000D02*
X-20688000Y-28500000D01*
X-35000000Y-28500000D02*
X-31696198Y-28500000D01*
X-34320020Y-14820020D02*
X-35000000Y-15500000D01*
X-21000000Y-14820020D02*
X-34320020Y-14820020D01*
D21*
X-35000000Y-53250000D02*
X-33250000Y-55000000D01*
X-33250000Y-55000000D02*
X-31750000Y-55000000D01*
X-35000000Y-15500000D02*
X-35000000Y-42000000D01*
X-35000000Y-42000000D02*
X-35000000Y-53250000D01*
D20*
X-25658470Y-42000000D02*
X-35000000Y-42000000D01*
X-19858002Y-42500000D02*
X-25158470Y-42500000D01*
X-25158470Y-42500000D02*
X-25658470Y-42000000D01*
D21*
X-35000000Y-6500000D02*
X-35000000Y-15500000D01*
X-30000000Y-1500000D02*
X-35000000Y-6500000D01*
D20*
G04 #@! TO.N,/J1_LOAD*
X-19000000Y-53000000D02*
X-16150000Y-53000000D01*
X-7010001Y-54160001D02*
X-5850000Y-53000000D01*
X-14039999Y-54160001D02*
X-7010001Y-54160001D01*
X-5850000Y-53000000D02*
X-4500000Y-53000000D01*
X-15200000Y-53000000D02*
X-14039999Y-54160001D01*
X-16150000Y-53000000D02*
X-15200000Y-53000000D01*
G04 #@! TO.N,/J2_LOAD*
X-19000000Y-39500000D02*
X-16150000Y-39500000D01*
X-5840000Y-41500000D02*
X-4500000Y-42840000D01*
X-14300000Y-41500000D02*
X-5840000Y-41500000D01*
X-16150000Y-39500000D02*
X-16150000Y-39650000D01*
X-16150000Y-39650000D02*
X-14300000Y-41500000D01*
G04 #@! TO.N,/J3_LOAD*
X-19000000Y-25500000D02*
X-16150000Y-25500000D01*
X-14039999Y-26660001D02*
X-8160001Y-26660001D01*
X-16150000Y-25500000D02*
X-15200000Y-25500000D01*
X-15200000Y-25500000D02*
X-14039999Y-26660001D01*
X-7979999Y-26660001D02*
X-4500000Y-30140000D01*
X-8160001Y-26660001D02*
X-7979999Y-26660001D01*
G04 #@! TO.N,/C_LOAD*
X-16650000Y-11700000D02*
X-16150000Y-12200000D01*
X-19000000Y-11700000D02*
X-16650000Y-11700000D01*
X-16150000Y-12800000D02*
X-15750000Y-13200000D01*
X-16150000Y-11700000D02*
X-16150000Y-12800000D01*
X-8740000Y-13200000D02*
X-4500000Y-17440000D01*
X-15750000Y-13200000D02*
X-8740000Y-13200000D01*
G04 #@! TO.N,Net-(C9-Pad1)*
X-24012500Y-25500000D02*
X-26000000Y-23512500D01*
X-23000000Y-25500000D02*
X-24012500Y-25500000D01*
X-27537501Y-25050001D02*
X-32700918Y-25050001D01*
X-33129978Y-24620941D02*
X-33129978Y-22749978D01*
X-32299999Y-21919999D02*
X-31540000Y-21160000D01*
X-33129978Y-22749978D02*
X-32299999Y-21919999D01*
X-32700918Y-25050001D02*
X-33129978Y-24620941D01*
X-26000000Y-23512500D02*
X-27537501Y-25050001D01*
G04 #@! TO.N,Net-(C10-Pad1)*
X-23037500Y-18037500D02*
X-22500000Y-17500000D01*
X-26032500Y-19920000D02*
X-26000000Y-19887500D01*
X-29000000Y-19920000D02*
X-26032500Y-19920000D01*
X-25387500Y-19887500D02*
X-23000000Y-17500000D01*
X-26000000Y-19887500D02*
X-25387500Y-19887500D01*
G04 #@! TO.N,Net-(C11-Pad1)*
X-24000000Y-11200000D02*
X-23000000Y-11200000D01*
X-25487500Y-9712500D02*
X-24000000Y-11200000D01*
X-26000000Y-9712500D02*
X-25487500Y-9712500D01*
X-27887500Y-11600000D02*
X-26000000Y-9712500D01*
X-32698002Y-11600000D02*
X-27887500Y-11600000D01*
X-33000000Y-11298002D02*
X-32698002Y-11600000D01*
X-31540000Y-7660000D02*
X-33000000Y-9120000D01*
X-33000000Y-9120000D02*
X-33000000Y-11298002D01*
G04 #@! TO.N,Net-(C12-Pad1)*
X-26432500Y-7120000D02*
X-26000000Y-6687500D01*
X-29000000Y-6420000D02*
X-26432500Y-6420000D01*
X-23500000Y-5200000D02*
X-23000000Y-5200000D01*
X-24987500Y-6687500D02*
X-23500000Y-5200000D01*
X-26000000Y-6687500D02*
X-24987500Y-6687500D01*
G04 #@! TO.N,/J1_DATA*
X-17150000Y-49000000D02*
X-16150000Y-50000000D01*
X-19000000Y-49000000D02*
X-17150000Y-49000000D01*
X-6120001Y-48839999D02*
X-5349999Y-49610001D01*
X-5349999Y-49610001D02*
X-4500000Y-50460000D01*
X-14039999Y-48839999D02*
X-6120001Y-48839999D01*
X-15200000Y-50000000D02*
X-14039999Y-48839999D01*
X-16150000Y-50000000D02*
X-15200000Y-50000000D01*
G04 #@! TO.N,/J2_DATA*
X-5702081Y-35220000D02*
X-4500000Y-35220000D01*
X-13920000Y-35220000D02*
X-5702081Y-35220000D01*
X-15200000Y-36500000D02*
X-13920000Y-35220000D01*
X-16150000Y-36500000D02*
X-15200000Y-36500000D01*
X-17150000Y-35500000D02*
X-16150000Y-36500000D01*
X-19000000Y-35500000D02*
X-17150000Y-35500000D01*
G04 #@! TO.N,/J3_DATA*
X-16650000Y-22000000D02*
X-16150000Y-22500000D01*
X-19000000Y-22000000D02*
X-16650000Y-22000000D01*
X-14039999Y-21339999D02*
X-8160001Y-21339999D01*
X-16150000Y-22500000D02*
X-15200000Y-22500000D01*
X-15200000Y-22500000D02*
X-14039999Y-21339999D01*
X-8160001Y-21339999D02*
X-7000000Y-22500000D01*
X-7000000Y-22560000D02*
X-4500000Y-25060000D01*
X-7000000Y-22500000D02*
X-7000000Y-22560000D01*
G04 #@! TO.N,/C_DATA*
X-19000000Y-8200000D02*
X-18850000Y-8200000D01*
X-19000000Y-8200000D02*
X-17150000Y-8200000D01*
X-16150000Y-8700000D02*
X-16300000Y-8700000D01*
X-16800000Y-8200000D02*
X-17150000Y-8200000D01*
X-16300000Y-8700000D02*
X-16800000Y-8200000D01*
X-5702081Y-14900000D02*
X-4500000Y-14900000D01*
X-15200000Y-8700000D02*
X-14039999Y-7539999D01*
X-14039999Y-7539999D02*
X-11680531Y-7539999D01*
X-10500000Y-10102081D02*
X-5702081Y-14900000D01*
X-16150000Y-8700000D02*
X-15200000Y-8700000D01*
X-11680531Y-7539999D02*
X-10500000Y-8720530D01*
X-10500000Y-8720530D02*
X-10500000Y-10102081D01*
G04 #@! TO.N,/C_CLK*
X-11809999Y-4560001D02*
X-11809999Y-5000000D01*
X-11870000Y-4500000D02*
X-11809999Y-4560001D01*
X-13150000Y-4500000D02*
X-11870000Y-4500000D01*
X-11870000Y-5000000D02*
X-11809999Y-5000000D01*
X-5702081Y-12360000D02*
X-4500000Y-12360000D01*
X-6398002Y-12360000D02*
X-5702081Y-12360000D01*
X-8500000Y-10258002D02*
X-6398002Y-12360000D01*
X-8500000Y-6254470D02*
X-8500000Y-10258002D01*
X-9254470Y-5500000D02*
X-8500000Y-6254470D01*
X-11370000Y-5500000D02*
X-9254470Y-5500000D01*
X-11809999Y-5000000D02*
X-11370000Y-5500000D01*
G04 #@! TO.N,/J3_CLK*
X-10655010Y-18714990D02*
X-8785010Y-18714990D01*
X-13150000Y-17500000D02*
X-11870000Y-17500000D01*
X-11870000Y-17500000D02*
X-10655010Y-18714990D01*
X-8785010Y-18714990D02*
X-7000000Y-20500000D01*
X-6520000Y-20500000D02*
X-4500000Y-22520000D01*
X-7000000Y-20500000D02*
X-6520000Y-20500000D01*
G04 #@! TO.N,/J2_CLK*
X-11039999Y-31830001D02*
X-5349999Y-31830001D01*
X-11870000Y-31000000D02*
X-11039999Y-31830001D01*
X-5349999Y-31830001D02*
X-4500000Y-32680000D01*
X-13150000Y-31000000D02*
X-11870000Y-31000000D01*
G04 #@! TO.N,/J1_CLK*
X-5349999Y-47070001D02*
X-4500000Y-47920000D01*
X-6705010Y-45714990D02*
X-5349999Y-47070001D01*
X-10655010Y-45714990D02*
X-6705010Y-45714990D01*
X-11870000Y-44500000D02*
X-10655010Y-45714990D01*
X-13150000Y-44500000D02*
X-11870000Y-44500000D01*
G04 #@! TO.N,Net-(R1-Pad1)*
X-16800000Y-44500000D02*
X-15850000Y-43550000D01*
X-19000000Y-44500000D02*
X-16800000Y-44500000D01*
G04 #@! TO.N,Net-(R4-Pad1)*
X-16800000Y-31000000D02*
X-15850000Y-30050000D01*
X-19000000Y-31000000D02*
X-16800000Y-31000000D01*
G04 #@! TO.N,Net-(R7-Pad1)*
X-16800000Y-17500000D02*
X-15850000Y-16550000D01*
X-19000000Y-17500000D02*
X-16800000Y-17500000D01*
G04 #@! TO.N,Net-(R10-Pad1)*
X-15850000Y-4375000D02*
X-15850000Y-3550000D01*
X-15875000Y-4400000D02*
X-15850000Y-4375000D01*
X-19000000Y-4400000D02*
X-15875000Y-4400000D01*
G04 #@! TO.N,Net-(J4-Pad2)*
X-27570000Y-8200000D02*
X-23000000Y-8200000D01*
X-27599999Y-8170001D02*
X-28240001Y-8170001D01*
X-28240001Y-8170001D02*
X-29000000Y-8930000D01*
X-27570000Y-8200000D02*
X-27599999Y-8170001D01*
G04 #@! TO.N,Net-(J3-Pad2)*
X-27570000Y-22000000D02*
X-24500000Y-22000000D01*
X-29000000Y-22430000D02*
X-28000000Y-22430000D01*
X-24500000Y-22000000D02*
X-23000000Y-22000000D01*
X-28000000Y-22430000D02*
X-27570000Y-22000000D01*
G04 #@! TO.N,Net-(J2-Pad2)*
X-23430000Y-35930000D02*
X-23000000Y-35500000D01*
X-29000000Y-35930000D02*
X-23430000Y-35930000D01*
G04 #@! TO.N,Net-(J1-Pad2)*
X-24500000Y-49000000D02*
X-23000000Y-49000000D01*
X-26720530Y-49000000D02*
X-24500000Y-49000000D01*
X-27150530Y-49430000D02*
X-26720530Y-49000000D01*
X-29000000Y-49430000D02*
X-27150530Y-49430000D01*
G04 #@! TD*
M02*
