G04 #@! TF.GenerationSoftware,KiCad,Pcbnew,5.1.5-52549c5~84~ubuntu19.10.1*
G04 #@! TF.CreationDate,2020-01-22T18:54:25-06:00*
G04 #@! TF.ProjectId,PiKwonDoHAT,50694b77-6f6e-4446-9f48-41542e6b6963,rev?*
G04 #@! TF.SameCoordinates,PX6bc3e40PY7b85d38*
G04 #@! TF.FileFunction,Legend,Top*
G04 #@! TF.FilePolarity,Positive*
%FSLAX46Y46*%
G04 Gerber Fmt 4.6, Leading zero omitted, Abs format (unit mm)*
G04 Created by KiCad (PCBNEW 5.1.5-52549c5~84~ubuntu19.10.1) date 2020-01-22 18:54:25*
%MOMM*%
%LPD*%
G04 APERTURE LIST*
%ADD10C,0.120000*%
%ADD11C,0.150000*%
G04 APERTURE END LIST*
D10*
X-13600000Y41133000D02*
X-15400000Y41133000D01*
X-15400000Y37913000D02*
X-12950000Y37913000D01*
D11*
X-22000000Y32598000D02*
X-20000000Y32598000D01*
X-20000000Y30448000D02*
X-22000000Y30448000D01*
D10*
X-26910000Y38020936D02*
X-26910000Y39225064D01*
X-25090000Y38020936D02*
X-25090000Y39225064D01*
D11*
X-22000000Y40598000D02*
X-20000000Y40598000D01*
X-20000000Y38448000D02*
X-22000000Y38448000D01*
D10*
X-26910000Y32625064D02*
X-26910000Y31420936D01*
X-25090000Y32625064D02*
X-25090000Y31420936D01*
X-16750000Y32523000D02*
X-16750000Y30523000D01*
X-16750000Y30523000D02*
X-12850000Y30523000D01*
X-16750000Y32523000D02*
X-12850000Y32523000D01*
X-16750000Y35523000D02*
X-12850000Y35523000D01*
X-16750000Y33523000D02*
X-12850000Y33523000D01*
X-16750000Y35523000D02*
X-16750000Y33523000D01*
D11*
X-22000000Y36098000D02*
X-20000000Y36098000D01*
X-20000000Y33948000D02*
X-22000000Y33948000D01*
D10*
X-630000Y2693000D02*
X-3230000Y2693000D01*
X-630000Y2693000D02*
X-630000Y53613000D01*
X-630000Y53613000D02*
X-5830000Y53613000D01*
X-5830000Y5293000D02*
X-5830000Y53613000D01*
X-3230000Y5293000D02*
X-5830000Y5293000D01*
X-3230000Y2693000D02*
X-3230000Y5293000D01*
X-5830000Y2693000D02*
X-5830000Y4023000D01*
X-4500000Y2693000D02*
X-5830000Y2693000D01*
X-16750000Y49323000D02*
X-12850000Y49323000D01*
X-16750000Y47323000D02*
X-12850000Y47323000D01*
X-16750000Y49323000D02*
X-16750000Y47323000D01*
X-16750000Y8023000D02*
X-12850000Y8023000D01*
X-16750000Y6023000D02*
X-12850000Y6023000D01*
X-16750000Y8023000D02*
X-16750000Y6023000D01*
X-16750000Y5023000D02*
X-16750000Y3023000D01*
X-16750000Y3023000D02*
X-12850000Y3023000D01*
X-16750000Y5023000D02*
X-12850000Y5023000D01*
X-16750000Y21523000D02*
X-12850000Y21523000D01*
X-16750000Y19523000D02*
X-12850000Y19523000D01*
X-16750000Y21523000D02*
X-16750000Y19523000D01*
X-16750000Y46323000D02*
X-16750000Y44323000D01*
X-16750000Y44323000D02*
X-12850000Y44323000D01*
X-16750000Y46323000D02*
X-12850000Y46323000D01*
X-16750000Y18523000D02*
X-16750000Y16523000D01*
X-16750000Y16523000D02*
X-12850000Y16523000D01*
X-16750000Y18523000D02*
X-12850000Y18523000D01*
X-10910000Y12125064D02*
X-10910000Y10920936D01*
X-9090000Y12125064D02*
X-9090000Y10920936D01*
X-9090000Y25625064D02*
X-9090000Y24420936D01*
X-10910000Y25625064D02*
X-10910000Y24420936D01*
X-10910000Y39125064D02*
X-10910000Y37920936D01*
X-9090000Y39125064D02*
X-9090000Y37920936D01*
X-9090000Y52125064D02*
X-9090000Y50920936D01*
X-10910000Y52125064D02*
X-10910000Y50920936D01*
X-26910000Y5625064D02*
X-26910000Y4420936D01*
X-25090000Y5625064D02*
X-25090000Y4420936D01*
X-26910000Y11041936D02*
X-26910000Y12246064D01*
X-25090000Y11041936D02*
X-25090000Y12246064D01*
X-26910000Y18850064D02*
X-26910000Y17645936D01*
X-25090000Y18850064D02*
X-25090000Y17645936D01*
X-26910000Y24420936D02*
X-26910000Y25625064D01*
X-25090000Y24420936D02*
X-25090000Y25625064D01*
X-26910000Y46425064D02*
X-26910000Y45220936D01*
X-25090000Y46425064D02*
X-25090000Y45220936D01*
X-26910000Y51220936D02*
X-26910000Y52425064D01*
X-25090000Y51220936D02*
X-25090000Y52425064D01*
D11*
X-22000000Y9098000D02*
X-20000000Y9098000D01*
X-20000000Y6948000D02*
X-22000000Y6948000D01*
X-22000000Y22598000D02*
X-20000000Y22598000D01*
X-20000000Y20448000D02*
X-22000000Y20448000D01*
X-22000000Y49898000D02*
X-20000000Y49898000D01*
X-20000000Y47748000D02*
X-22000000Y47748000D01*
X-22000000Y5098000D02*
X-20000000Y5098000D01*
X-20000000Y2948000D02*
X-22000000Y2948000D01*
X-22000000Y18598000D02*
X-20000000Y18598000D01*
X-20000000Y16448000D02*
X-22000000Y16448000D01*
X-22000000Y46398000D02*
X-20000000Y46398000D01*
X-20000000Y44248000D02*
X-22000000Y44248000D01*
X-22000000Y13598000D02*
X-20000000Y13598000D01*
X-20000000Y11448000D02*
X-22000000Y11448000D01*
X-22000000Y27098000D02*
X-20000000Y27098000D01*
X-20000000Y24948000D02*
X-22000000Y24948000D01*
X-22000000Y53598000D02*
X-20000000Y53598000D01*
X-20000000Y51448000D02*
X-22000000Y51448000D01*
D10*
X-13600000Y14133000D02*
X-15400000Y14133000D01*
X-15400000Y10913000D02*
X-12950000Y10913000D01*
X-13600000Y54133000D02*
X-15400000Y54133000D01*
X-15400000Y50913000D02*
X-12950000Y50913000D01*
X-13600000Y27633000D02*
X-15400000Y27633000D01*
X-15400000Y24413000D02*
X-12950000Y24413000D01*
X-32400000Y2873000D02*
X-32400000Y1173000D01*
X-32400000Y1173000D02*
X-29250000Y1173000D01*
X-32400000Y2873000D02*
X-29250000Y2873000D01*
D11*
X-15261905Y42330620D02*
X-15261905Y41521096D01*
X-15214286Y41425858D01*
X-15166667Y41378239D01*
X-15071429Y41330620D01*
X-14880953Y41330620D01*
X-14785715Y41378239D01*
X-14738096Y41425858D01*
X-14690477Y41521096D01*
X-14690477Y42330620D01*
X-14309524Y42330620D02*
X-13690477Y42330620D01*
X-14023810Y41949667D01*
X-13880953Y41949667D01*
X-13785715Y41902048D01*
X-13738096Y41854429D01*
X-13690477Y41759191D01*
X-13690477Y41521096D01*
X-13738096Y41425858D01*
X-13785715Y41378239D01*
X-13880953Y41330620D01*
X-14166667Y41330620D01*
X-14261905Y41378239D01*
X-14309524Y41425858D01*
X-21166667Y32694620D02*
X-21500000Y33170810D01*
X-21738096Y32694620D02*
X-21738096Y33694620D01*
X-21357143Y33694620D01*
X-21261905Y33647000D01*
X-21214286Y33599381D01*
X-21166667Y33504143D01*
X-21166667Y33361286D01*
X-21214286Y33266048D01*
X-21261905Y33218429D01*
X-21357143Y33170810D01*
X-21738096Y33170810D01*
X-20595239Y33266048D02*
X-20690477Y33313667D01*
X-20738096Y33361286D01*
X-20785715Y33456524D01*
X-20785715Y33504143D01*
X-20738096Y33599381D01*
X-20690477Y33647000D01*
X-20595239Y33694620D01*
X-20404762Y33694620D01*
X-20309524Y33647000D01*
X-20261905Y33599381D01*
X-20214286Y33504143D01*
X-20214286Y33456524D01*
X-20261905Y33361286D01*
X-20309524Y33313667D01*
X-20404762Y33266048D01*
X-20595239Y33266048D01*
X-20690477Y33218429D01*
X-20738096Y33170810D01*
X-20785715Y33075572D01*
X-20785715Y32885096D01*
X-20738096Y32789858D01*
X-20690477Y32742239D01*
X-20595239Y32694620D01*
X-20404762Y32694620D01*
X-20309524Y32742239D01*
X-20261905Y32789858D01*
X-20214286Y32885096D01*
X-20214286Y33075572D01*
X-20261905Y33170810D01*
X-20309524Y33218429D01*
X-20404762Y33266048D01*
X-27462858Y37980143D02*
X-27415239Y37932524D01*
X-27367620Y37789667D01*
X-27367620Y37694429D01*
X-27415239Y37551572D01*
X-27510477Y37456334D01*
X-27605715Y37408715D01*
X-27796191Y37361096D01*
X-27939048Y37361096D01*
X-28129524Y37408715D01*
X-28224762Y37456334D01*
X-28320000Y37551572D01*
X-28367620Y37694429D01*
X-28367620Y37789667D01*
X-28320000Y37932524D01*
X-28272381Y37980143D01*
X-27367620Y38932524D02*
X-27367620Y38361096D01*
X-27367620Y38646810D02*
X-28367620Y38646810D01*
X-28224762Y38551572D01*
X-28129524Y38456334D01*
X-28081905Y38361096D01*
X-28367620Y39551572D02*
X-28367620Y39646810D01*
X-28320000Y39742048D01*
X-28272381Y39789667D01*
X-28177143Y39837286D01*
X-27986667Y39884905D01*
X-27748572Y39884905D01*
X-27558096Y39837286D01*
X-27462858Y39789667D01*
X-27415239Y39742048D01*
X-27367620Y39646810D01*
X-27367620Y39551572D01*
X-27415239Y39456334D01*
X-27462858Y39408715D01*
X-27558096Y39361096D01*
X-27748572Y39313477D01*
X-27986667Y39313477D01*
X-28177143Y39361096D01*
X-28272381Y39408715D01*
X-28320000Y39456334D01*
X-28367620Y39551572D01*
X-21248667Y40822620D02*
X-21582000Y41298810D01*
X-21820096Y40822620D02*
X-21820096Y41822620D01*
X-21439143Y41822620D01*
X-21343905Y41775000D01*
X-21296286Y41727381D01*
X-21248667Y41632143D01*
X-21248667Y41489286D01*
X-21296286Y41394048D01*
X-21343905Y41346429D01*
X-21439143Y41298810D01*
X-21820096Y41298810D01*
X-20915334Y41822620D02*
X-20248667Y41822620D01*
X-20677239Y40822620D01*
X-23822858Y31856334D02*
X-23775239Y31808715D01*
X-23727620Y31665858D01*
X-23727620Y31570620D01*
X-23775239Y31427762D01*
X-23870477Y31332524D01*
X-23965715Y31284905D01*
X-24156191Y31237286D01*
X-24299048Y31237286D01*
X-24489524Y31284905D01*
X-24584762Y31332524D01*
X-24680000Y31427762D01*
X-24727620Y31570620D01*
X-24727620Y31665858D01*
X-24680000Y31808715D01*
X-24632381Y31856334D01*
X-23727620Y32332524D02*
X-23727620Y32523000D01*
X-23775239Y32618239D01*
X-23822858Y32665858D01*
X-23965715Y32761096D01*
X-24156191Y32808715D01*
X-24537143Y32808715D01*
X-24632381Y32761096D01*
X-24680000Y32713477D01*
X-24727620Y32618239D01*
X-24727620Y32427762D01*
X-24680000Y32332524D01*
X-24632381Y32284905D01*
X-24537143Y32237286D01*
X-24299048Y32237286D01*
X-24203810Y32284905D01*
X-24156191Y32332524D01*
X-24108572Y32427762D01*
X-24108572Y32618239D01*
X-24156191Y32713477D01*
X-24203810Y32761096D01*
X-24299048Y32808715D01*
X-15470096Y29265620D02*
X-15470096Y30265620D01*
X-15232000Y30265620D01*
X-15089143Y30218000D01*
X-14993905Y30122762D01*
X-14946286Y30027524D01*
X-14898667Y29837048D01*
X-14898667Y29694191D01*
X-14946286Y29503715D01*
X-14993905Y29408477D01*
X-15089143Y29313239D01*
X-15232000Y29265620D01*
X-15470096Y29265620D01*
X-14565334Y30265620D02*
X-13898667Y30265620D01*
X-14327239Y29265620D01*
X-15343096Y35742620D02*
X-15343096Y36742620D01*
X-15105000Y36742620D01*
X-14962143Y36695000D01*
X-14866905Y36599762D01*
X-14819286Y36504524D01*
X-14771667Y36314048D01*
X-14771667Y36171191D01*
X-14819286Y35980715D01*
X-14866905Y35885477D01*
X-14962143Y35790239D01*
X-15105000Y35742620D01*
X-15343096Y35742620D01*
X-13914524Y36742620D02*
X-14105000Y36742620D01*
X-14200239Y36695000D01*
X-14247858Y36647381D01*
X-14343096Y36504524D01*
X-14390715Y36314048D01*
X-14390715Y35933096D01*
X-14343096Y35837858D01*
X-14295477Y35790239D01*
X-14200239Y35742620D01*
X-14009762Y35742620D01*
X-13914524Y35790239D01*
X-13866905Y35837858D01*
X-13819286Y35933096D01*
X-13819286Y36171191D01*
X-13866905Y36266429D01*
X-13914524Y36314048D01*
X-14009762Y36361667D01*
X-14200239Y36361667D01*
X-14295477Y36314048D01*
X-14343096Y36266429D01*
X-14390715Y36171191D01*
X-21121667Y36377620D02*
X-21455000Y36853810D01*
X-21693096Y36377620D02*
X-21693096Y37377620D01*
X-21312143Y37377620D01*
X-21216905Y37330000D01*
X-21169286Y37282381D01*
X-21121667Y37187143D01*
X-21121667Y37044286D01*
X-21169286Y36949048D01*
X-21216905Y36901429D01*
X-21312143Y36853810D01*
X-21693096Y36853810D01*
X-20645477Y36377620D02*
X-20455000Y36377620D01*
X-20359762Y36425239D01*
X-20312143Y36472858D01*
X-20216905Y36615715D01*
X-20169286Y36806191D01*
X-20169286Y37187143D01*
X-20216905Y37282381D01*
X-20264524Y37330000D01*
X-20359762Y37377620D01*
X-20550239Y37377620D01*
X-20645477Y37330000D01*
X-20693096Y37282381D01*
X-20740715Y37187143D01*
X-20740715Y36949048D01*
X-20693096Y36853810D01*
X-20645477Y36806191D01*
X-20550239Y36758572D01*
X-20359762Y36758572D01*
X-20264524Y36806191D01*
X-20216905Y36853810D01*
X-20169286Y36949048D01*
X-3563334Y1800620D02*
X-3563334Y1086334D01*
X-3610953Y943477D01*
X-3706191Y848239D01*
X-3849048Y800620D01*
X-3944286Y800620D01*
X-2610953Y1800620D02*
X-3087143Y1800620D01*
X-3134762Y1324429D01*
X-3087143Y1372048D01*
X-2991905Y1419667D01*
X-2753810Y1419667D01*
X-2658572Y1372048D01*
X-2610953Y1324429D01*
X-2563334Y1229191D01*
X-2563334Y991096D01*
X-2610953Y895858D01*
X-2658572Y848239D01*
X-2753810Y800620D01*
X-2991905Y800620D01*
X-3087143Y848239D01*
X-3134762Y895858D01*
X-15216096Y49458620D02*
X-15216096Y50458620D01*
X-14978000Y50458620D01*
X-14835143Y50411000D01*
X-14739905Y50315762D01*
X-14692286Y50220524D01*
X-14644667Y50030048D01*
X-14644667Y49887191D01*
X-14692286Y49696715D01*
X-14739905Y49601477D01*
X-14835143Y49506239D01*
X-14978000Y49458620D01*
X-15216096Y49458620D01*
X-14073239Y50030048D02*
X-14168477Y50077667D01*
X-14216096Y50125286D01*
X-14263715Y50220524D01*
X-14263715Y50268143D01*
X-14216096Y50363381D01*
X-14168477Y50411000D01*
X-14073239Y50458620D01*
X-13882762Y50458620D01*
X-13787524Y50411000D01*
X-13739905Y50363381D01*
X-13692286Y50268143D01*
X-13692286Y50220524D01*
X-13739905Y50125286D01*
X-13787524Y50077667D01*
X-13882762Y50030048D01*
X-14073239Y50030048D01*
X-14168477Y49982429D01*
X-14216096Y49934810D01*
X-14263715Y49839572D01*
X-14263715Y49649096D01*
X-14216096Y49553858D01*
X-14168477Y49506239D01*
X-14073239Y49458620D01*
X-13882762Y49458620D01*
X-13787524Y49506239D01*
X-13739905Y49553858D01*
X-13692286Y49649096D01*
X-13692286Y49839572D01*
X-13739905Y49934810D01*
X-13787524Y49982429D01*
X-13882762Y50030048D01*
X-15597096Y8183620D02*
X-15597096Y9183620D01*
X-15359000Y9183620D01*
X-15216143Y9136000D01*
X-15120905Y9040762D01*
X-15073286Y8945524D01*
X-15025667Y8755048D01*
X-15025667Y8612191D01*
X-15073286Y8421715D01*
X-15120905Y8326477D01*
X-15216143Y8231239D01*
X-15359000Y8183620D01*
X-15597096Y8183620D01*
X-14644715Y9088381D02*
X-14597096Y9136000D01*
X-14501858Y9183620D01*
X-14263762Y9183620D01*
X-14168524Y9136000D01*
X-14120905Y9088381D01*
X-14073286Y8993143D01*
X-14073286Y8897905D01*
X-14120905Y8755048D01*
X-14692334Y8183620D01*
X-14073286Y8183620D01*
X-15978096Y1833620D02*
X-15978096Y2833620D01*
X-15740000Y2833620D01*
X-15597143Y2786000D01*
X-15501905Y2690762D01*
X-15454286Y2595524D01*
X-15406667Y2405048D01*
X-15406667Y2262191D01*
X-15454286Y2071715D01*
X-15501905Y1976477D01*
X-15597143Y1881239D01*
X-15740000Y1833620D01*
X-15978096Y1833620D01*
X-15073334Y2833620D02*
X-14454286Y2833620D01*
X-14787620Y2452667D01*
X-14644762Y2452667D01*
X-14549524Y2405048D01*
X-14501905Y2357429D01*
X-14454286Y2262191D01*
X-14454286Y2024096D01*
X-14501905Y1928858D01*
X-14549524Y1881239D01*
X-14644762Y1833620D01*
X-14930477Y1833620D01*
X-15025715Y1881239D01*
X-15073334Y1928858D01*
X-15238096Y21772620D02*
X-15238096Y22772620D01*
X-15000000Y22772620D01*
X-14857143Y22725000D01*
X-14761905Y22629762D01*
X-14714286Y22534524D01*
X-14666667Y22344048D01*
X-14666667Y22201191D01*
X-14714286Y22010715D01*
X-14761905Y21915477D01*
X-14857143Y21820239D01*
X-15000000Y21772620D01*
X-15238096Y21772620D01*
X-13809524Y22439286D02*
X-13809524Y21772620D01*
X-14047620Y22820239D02*
X-14285715Y22105953D01*
X-13666667Y22105953D01*
X-15216096Y43108620D02*
X-15216096Y44108620D01*
X-14978000Y44108620D01*
X-14835143Y44061000D01*
X-14739905Y43965762D01*
X-14692286Y43870524D01*
X-14644667Y43680048D01*
X-14644667Y43537191D01*
X-14692286Y43346715D01*
X-14739905Y43251477D01*
X-14835143Y43156239D01*
X-14978000Y43108620D01*
X-15216096Y43108620D01*
X-14168477Y43108620D02*
X-13978000Y43108620D01*
X-13882762Y43156239D01*
X-13835143Y43203858D01*
X-13739905Y43346715D01*
X-13692286Y43537191D01*
X-13692286Y43918143D01*
X-13739905Y44013381D01*
X-13787524Y44061000D01*
X-13882762Y44108620D01*
X-14073239Y44108620D01*
X-14168477Y44061000D01*
X-14216096Y44013381D01*
X-14263715Y43918143D01*
X-14263715Y43680048D01*
X-14216096Y43584810D01*
X-14168477Y43537191D01*
X-14073239Y43489572D01*
X-13882762Y43489572D01*
X-13787524Y43537191D01*
X-13739905Y43584810D01*
X-13692286Y43680048D01*
X-15238096Y15295620D02*
X-15238096Y16295620D01*
X-15000000Y16295620D01*
X-14857143Y16248000D01*
X-14761905Y16152762D01*
X-14714286Y16057524D01*
X-14666667Y15867048D01*
X-14666667Y15724191D01*
X-14714286Y15533715D01*
X-14761905Y15438477D01*
X-14857143Y15343239D01*
X-15000000Y15295620D01*
X-15238096Y15295620D01*
X-13761905Y16295620D02*
X-14238096Y16295620D01*
X-14285715Y15819429D01*
X-14238096Y15867048D01*
X-14142858Y15914667D01*
X-13904762Y15914667D01*
X-13809524Y15867048D01*
X-13761905Y15819429D01*
X-13714286Y15724191D01*
X-13714286Y15486096D01*
X-13761905Y15390858D01*
X-13809524Y15343239D01*
X-13904762Y15295620D01*
X-14142858Y15295620D01*
X-14238096Y15343239D01*
X-14285715Y15390858D01*
X-7822858Y11356334D02*
X-7775239Y11308715D01*
X-7727620Y11165858D01*
X-7727620Y11070620D01*
X-7775239Y10927762D01*
X-7870477Y10832524D01*
X-7965715Y10784905D01*
X-8156191Y10737286D01*
X-8299048Y10737286D01*
X-8489524Y10784905D01*
X-8584762Y10832524D01*
X-8680000Y10927762D01*
X-8727620Y11070620D01*
X-8727620Y11165858D01*
X-8680000Y11308715D01*
X-8632381Y11356334D01*
X-7727620Y12308715D02*
X-7727620Y11737286D01*
X-7727620Y12023000D02*
X-8727620Y12023000D01*
X-8584762Y11927762D01*
X-8489524Y11832524D01*
X-8441905Y11737286D01*
X-7822858Y24856334D02*
X-7775239Y24808715D01*
X-7727620Y24665858D01*
X-7727620Y24570620D01*
X-7775239Y24427762D01*
X-7870477Y24332524D01*
X-7965715Y24284905D01*
X-8156191Y24237286D01*
X-8299048Y24237286D01*
X-8489524Y24284905D01*
X-8584762Y24332524D01*
X-8680000Y24427762D01*
X-8727620Y24570620D01*
X-8727620Y24665858D01*
X-8680000Y24808715D01*
X-8632381Y24856334D01*
X-8632381Y25237286D02*
X-8680000Y25284905D01*
X-8727620Y25380143D01*
X-8727620Y25618239D01*
X-8680000Y25713477D01*
X-8632381Y25761096D01*
X-8537143Y25808715D01*
X-8441905Y25808715D01*
X-8299048Y25761096D01*
X-7727620Y25189667D01*
X-7727620Y25808715D01*
X-7822858Y38356334D02*
X-7775239Y38308715D01*
X-7727620Y38165858D01*
X-7727620Y38070620D01*
X-7775239Y37927762D01*
X-7870477Y37832524D01*
X-7965715Y37784905D01*
X-8156191Y37737286D01*
X-8299048Y37737286D01*
X-8489524Y37784905D01*
X-8584762Y37832524D01*
X-8680000Y37927762D01*
X-8727620Y38070620D01*
X-8727620Y38165858D01*
X-8680000Y38308715D01*
X-8632381Y38356334D01*
X-8727620Y38689667D02*
X-8727620Y39308715D01*
X-8346667Y38975381D01*
X-8346667Y39118239D01*
X-8299048Y39213477D01*
X-8251429Y39261096D01*
X-8156191Y39308715D01*
X-7918096Y39308715D01*
X-7822858Y39261096D01*
X-7775239Y39213477D01*
X-7727620Y39118239D01*
X-7727620Y38832524D01*
X-7775239Y38737286D01*
X-7822858Y38689667D01*
X-7822858Y51356334D02*
X-7775239Y51308715D01*
X-7727620Y51165858D01*
X-7727620Y51070620D01*
X-7775239Y50927762D01*
X-7870477Y50832524D01*
X-7965715Y50784905D01*
X-8156191Y50737286D01*
X-8299048Y50737286D01*
X-8489524Y50784905D01*
X-8584762Y50832524D01*
X-8680000Y50927762D01*
X-8727620Y51070620D01*
X-8727620Y51165858D01*
X-8680000Y51308715D01*
X-8632381Y51356334D01*
X-8394286Y52213477D02*
X-7727620Y52213477D01*
X-8775239Y51975381D02*
X-8060953Y51737286D01*
X-8060953Y52356334D01*
X-23822858Y4856334D02*
X-23775239Y4808715D01*
X-23727620Y4665858D01*
X-23727620Y4570620D01*
X-23775239Y4427762D01*
X-23870477Y4332524D01*
X-23965715Y4284905D01*
X-24156191Y4237286D01*
X-24299048Y4237286D01*
X-24489524Y4284905D01*
X-24584762Y4332524D01*
X-24680000Y4427762D01*
X-24727620Y4570620D01*
X-24727620Y4665858D01*
X-24680000Y4808715D01*
X-24632381Y4856334D01*
X-24727620Y5761096D02*
X-24727620Y5284905D01*
X-24251429Y5237286D01*
X-24299048Y5284905D01*
X-24346667Y5380143D01*
X-24346667Y5618239D01*
X-24299048Y5713477D01*
X-24251429Y5761096D01*
X-24156191Y5808715D01*
X-23918096Y5808715D01*
X-23822858Y5761096D01*
X-23775239Y5713477D01*
X-23727620Y5618239D01*
X-23727620Y5380143D01*
X-23775239Y5284905D01*
X-23822858Y5237286D01*
X-27462858Y11477334D02*
X-27415239Y11429715D01*
X-27367620Y11286858D01*
X-27367620Y11191620D01*
X-27415239Y11048762D01*
X-27510477Y10953524D01*
X-27605715Y10905905D01*
X-27796191Y10858286D01*
X-27939048Y10858286D01*
X-28129524Y10905905D01*
X-28224762Y10953524D01*
X-28320000Y11048762D01*
X-28367620Y11191620D01*
X-28367620Y11286858D01*
X-28320000Y11429715D01*
X-28272381Y11477334D01*
X-28367620Y12334477D02*
X-28367620Y12144000D01*
X-28320000Y12048762D01*
X-28272381Y12001143D01*
X-28129524Y11905905D01*
X-27939048Y11858286D01*
X-27558096Y11858286D01*
X-27462858Y11905905D01*
X-27415239Y11953524D01*
X-27367620Y12048762D01*
X-27367620Y12239239D01*
X-27415239Y12334477D01*
X-27462858Y12382096D01*
X-27558096Y12429715D01*
X-27796191Y12429715D01*
X-27891429Y12382096D01*
X-27939048Y12334477D01*
X-27986667Y12239239D01*
X-27986667Y12048762D01*
X-27939048Y11953524D01*
X-27891429Y11905905D01*
X-27796191Y11858286D01*
X-23822858Y18081334D02*
X-23775239Y18033715D01*
X-23727620Y17890858D01*
X-23727620Y17795620D01*
X-23775239Y17652762D01*
X-23870477Y17557524D01*
X-23965715Y17509905D01*
X-24156191Y17462286D01*
X-24299048Y17462286D01*
X-24489524Y17509905D01*
X-24584762Y17557524D01*
X-24680000Y17652762D01*
X-24727620Y17795620D01*
X-24727620Y17890858D01*
X-24680000Y18033715D01*
X-24632381Y18081334D01*
X-24727620Y18414667D02*
X-24727620Y19081334D01*
X-23727620Y18652762D01*
X-27462858Y24856334D02*
X-27415239Y24808715D01*
X-27367620Y24665858D01*
X-27367620Y24570620D01*
X-27415239Y24427762D01*
X-27510477Y24332524D01*
X-27605715Y24284905D01*
X-27796191Y24237286D01*
X-27939048Y24237286D01*
X-28129524Y24284905D01*
X-28224762Y24332524D01*
X-28320000Y24427762D01*
X-28367620Y24570620D01*
X-28367620Y24665858D01*
X-28320000Y24808715D01*
X-28272381Y24856334D01*
X-27939048Y25427762D02*
X-27986667Y25332524D01*
X-28034286Y25284905D01*
X-28129524Y25237286D01*
X-28177143Y25237286D01*
X-28272381Y25284905D01*
X-28320000Y25332524D01*
X-28367620Y25427762D01*
X-28367620Y25618239D01*
X-28320000Y25713477D01*
X-28272381Y25761096D01*
X-28177143Y25808715D01*
X-28129524Y25808715D01*
X-28034286Y25761096D01*
X-27986667Y25713477D01*
X-27939048Y25618239D01*
X-27939048Y25427762D01*
X-27891429Y25332524D01*
X-27843810Y25284905D01*
X-27748572Y25237286D01*
X-27558096Y25237286D01*
X-27462858Y25284905D01*
X-27415239Y25332524D01*
X-27367620Y25427762D01*
X-27367620Y25618239D01*
X-27415239Y25713477D01*
X-27462858Y25761096D01*
X-27558096Y25808715D01*
X-27748572Y25808715D01*
X-27843810Y25761096D01*
X-27891429Y25713477D01*
X-27939048Y25618239D01*
X-24153858Y45204143D02*
X-24106239Y45156524D01*
X-24058620Y45013667D01*
X-24058620Y44918429D01*
X-24106239Y44775572D01*
X-24201477Y44680334D01*
X-24296715Y44632715D01*
X-24487191Y44585096D01*
X-24630048Y44585096D01*
X-24820524Y44632715D01*
X-24915762Y44680334D01*
X-25011000Y44775572D01*
X-25058620Y44918429D01*
X-25058620Y45013667D01*
X-25011000Y45156524D01*
X-24963381Y45204143D01*
X-24058620Y46156524D02*
X-24058620Y45585096D01*
X-24058620Y45870810D02*
X-25058620Y45870810D01*
X-24915762Y45775572D01*
X-24820524Y45680334D01*
X-24772905Y45585096D01*
X-24058620Y47108905D02*
X-24058620Y46537477D01*
X-24058620Y46823191D02*
X-25058620Y46823191D01*
X-24915762Y46727953D01*
X-24820524Y46632715D01*
X-24772905Y46537477D01*
X-27462858Y51180143D02*
X-27415239Y51132524D01*
X-27367620Y50989667D01*
X-27367620Y50894429D01*
X-27415239Y50751572D01*
X-27510477Y50656334D01*
X-27605715Y50608715D01*
X-27796191Y50561096D01*
X-27939048Y50561096D01*
X-28129524Y50608715D01*
X-28224762Y50656334D01*
X-28320000Y50751572D01*
X-28367620Y50894429D01*
X-28367620Y50989667D01*
X-28320000Y51132524D01*
X-28272381Y51180143D01*
X-27367620Y52132524D02*
X-27367620Y51561096D01*
X-27367620Y51846810D02*
X-28367620Y51846810D01*
X-28224762Y51751572D01*
X-28129524Y51656334D01*
X-28081905Y51561096D01*
X-28272381Y52513477D02*
X-28320000Y52561096D01*
X-28367620Y52656334D01*
X-28367620Y52894429D01*
X-28320000Y52989667D01*
X-28272381Y53037286D01*
X-28177143Y53084905D01*
X-28081905Y53084905D01*
X-27939048Y53037286D01*
X-27367620Y52465858D01*
X-27367620Y53084905D01*
X-21121667Y9326620D02*
X-21455000Y9802810D01*
X-21693096Y9326620D02*
X-21693096Y10326620D01*
X-21312143Y10326620D01*
X-21216905Y10279000D01*
X-21169286Y10231381D01*
X-21121667Y10136143D01*
X-21121667Y9993286D01*
X-21169286Y9898048D01*
X-21216905Y9850429D01*
X-21312143Y9802810D01*
X-21693096Y9802810D01*
X-20788334Y10326620D02*
X-20169286Y10326620D01*
X-20502620Y9945667D01*
X-20359762Y9945667D01*
X-20264524Y9898048D01*
X-20216905Y9850429D01*
X-20169286Y9755191D01*
X-20169286Y9517096D01*
X-20216905Y9421858D01*
X-20264524Y9374239D01*
X-20359762Y9326620D01*
X-20645477Y9326620D01*
X-20740715Y9374239D01*
X-20788334Y9421858D01*
X-21166667Y22788620D02*
X-21500000Y23264810D01*
X-21738096Y22788620D02*
X-21738096Y23788620D01*
X-21357143Y23788620D01*
X-21261905Y23741000D01*
X-21214286Y23693381D01*
X-21166667Y23598143D01*
X-21166667Y23455286D01*
X-21214286Y23360048D01*
X-21261905Y23312429D01*
X-21357143Y23264810D01*
X-21738096Y23264810D01*
X-20309524Y23788620D02*
X-20500000Y23788620D01*
X-20595239Y23741000D01*
X-20642858Y23693381D01*
X-20738096Y23550524D01*
X-20785715Y23360048D01*
X-20785715Y22979096D01*
X-20738096Y22883858D01*
X-20690477Y22836239D01*
X-20595239Y22788620D01*
X-20404762Y22788620D01*
X-20309524Y22836239D01*
X-20261905Y22883858D01*
X-20214286Y22979096D01*
X-20214286Y23217191D01*
X-20261905Y23312429D01*
X-20309524Y23360048D01*
X-20404762Y23407667D01*
X-20595239Y23407667D01*
X-20690477Y23360048D01*
X-20738096Y23312429D01*
X-20785715Y23217191D01*
X-21597858Y50093620D02*
X-21931191Y50569810D01*
X-22169286Y50093620D02*
X-22169286Y51093620D01*
X-21788334Y51093620D01*
X-21693096Y51046000D01*
X-21645477Y50998381D01*
X-21597858Y50903143D01*
X-21597858Y50760286D01*
X-21645477Y50665048D01*
X-21693096Y50617429D01*
X-21788334Y50569810D01*
X-22169286Y50569810D01*
X-20645477Y50093620D02*
X-21216905Y50093620D01*
X-20931191Y50093620D02*
X-20931191Y51093620D01*
X-21026429Y50950762D01*
X-21121667Y50855524D01*
X-21216905Y50807905D01*
X-20264524Y50998381D02*
X-20216905Y51046000D01*
X-20121667Y51093620D01*
X-19883572Y51093620D01*
X-19788334Y51046000D01*
X-19740715Y50998381D01*
X-19693096Y50903143D01*
X-19693096Y50807905D01*
X-19740715Y50665048D01*
X-20312143Y50093620D01*
X-19693096Y50093620D01*
X-21121667Y5262620D02*
X-21455000Y5738810D01*
X-21693096Y5262620D02*
X-21693096Y6262620D01*
X-21312143Y6262620D01*
X-21216905Y6215000D01*
X-21169286Y6167381D01*
X-21121667Y6072143D01*
X-21121667Y5929286D01*
X-21169286Y5834048D01*
X-21216905Y5786429D01*
X-21312143Y5738810D01*
X-21693096Y5738810D01*
X-20740715Y6167381D02*
X-20693096Y6215000D01*
X-20597858Y6262620D01*
X-20359762Y6262620D01*
X-20264524Y6215000D01*
X-20216905Y6167381D01*
X-20169286Y6072143D01*
X-20169286Y5976905D01*
X-20216905Y5834048D01*
X-20788334Y5262620D01*
X-20169286Y5262620D01*
X-21166667Y18851620D02*
X-21500000Y19327810D01*
X-21738096Y18851620D02*
X-21738096Y19851620D01*
X-21357143Y19851620D01*
X-21261905Y19804000D01*
X-21214286Y19756381D01*
X-21166667Y19661143D01*
X-21166667Y19518286D01*
X-21214286Y19423048D01*
X-21261905Y19375429D01*
X-21357143Y19327810D01*
X-21738096Y19327810D01*
X-20261905Y19851620D02*
X-20738096Y19851620D01*
X-20785715Y19375429D01*
X-20738096Y19423048D01*
X-20642858Y19470667D01*
X-20404762Y19470667D01*
X-20309524Y19423048D01*
X-20261905Y19375429D01*
X-20214286Y19280191D01*
X-20214286Y19042096D01*
X-20261905Y18946858D01*
X-20309524Y18899239D01*
X-20404762Y18851620D01*
X-20642858Y18851620D01*
X-20738096Y18899239D01*
X-20785715Y18946858D01*
X-21597858Y46537620D02*
X-21931191Y47013810D01*
X-22169286Y46537620D02*
X-22169286Y47537620D01*
X-21788334Y47537620D01*
X-21693096Y47490000D01*
X-21645477Y47442381D01*
X-21597858Y47347143D01*
X-21597858Y47204286D01*
X-21645477Y47109048D01*
X-21693096Y47061429D01*
X-21788334Y47013810D01*
X-22169286Y47013810D01*
X-20645477Y46537620D02*
X-21216905Y46537620D01*
X-20931191Y46537620D02*
X-20931191Y47537620D01*
X-21026429Y47394762D01*
X-21121667Y47299524D01*
X-21216905Y47251905D01*
X-19693096Y46537620D02*
X-20264524Y46537620D01*
X-19978810Y46537620D02*
X-19978810Y47537620D01*
X-20074048Y47394762D01*
X-20169286Y47299524D01*
X-20264524Y47251905D01*
X-21166667Y13898620D02*
X-21500000Y14374810D01*
X-21738096Y13898620D02*
X-21738096Y14898620D01*
X-21357143Y14898620D01*
X-21261905Y14851000D01*
X-21214286Y14803381D01*
X-21166667Y14708143D01*
X-21166667Y14565286D01*
X-21214286Y14470048D01*
X-21261905Y14422429D01*
X-21357143Y14374810D01*
X-21738096Y14374810D01*
X-20214286Y13898620D02*
X-20785715Y13898620D01*
X-20500000Y13898620D02*
X-20500000Y14898620D01*
X-20595239Y14755762D01*
X-20690477Y14660524D01*
X-20785715Y14612905D01*
X-21166667Y27360620D02*
X-21500000Y27836810D01*
X-21738096Y27360620D02*
X-21738096Y28360620D01*
X-21357143Y28360620D01*
X-21261905Y28313000D01*
X-21214286Y28265381D01*
X-21166667Y28170143D01*
X-21166667Y28027286D01*
X-21214286Y27932048D01*
X-21261905Y27884429D01*
X-21357143Y27836810D01*
X-21738096Y27836810D01*
X-20309524Y28027286D02*
X-20309524Y27360620D01*
X-20547620Y28408239D02*
X-20785715Y27693953D01*
X-20166667Y27693953D01*
X-21597858Y53776620D02*
X-21931191Y54252810D01*
X-22169286Y53776620D02*
X-22169286Y54776620D01*
X-21788334Y54776620D01*
X-21693096Y54729000D01*
X-21645477Y54681381D01*
X-21597858Y54586143D01*
X-21597858Y54443286D01*
X-21645477Y54348048D01*
X-21693096Y54300429D01*
X-21788334Y54252810D01*
X-22169286Y54252810D01*
X-20645477Y53776620D02*
X-21216905Y53776620D01*
X-20931191Y53776620D02*
X-20931191Y54776620D01*
X-21026429Y54633762D01*
X-21121667Y54538524D01*
X-21216905Y54490905D01*
X-20026429Y54776620D02*
X-19931191Y54776620D01*
X-19835953Y54729000D01*
X-19788334Y54681381D01*
X-19740715Y54586143D01*
X-19693096Y54395667D01*
X-19693096Y54157572D01*
X-19740715Y53967096D01*
X-19788334Y53871858D01*
X-19835953Y53824239D01*
X-19931191Y53776620D01*
X-20026429Y53776620D01*
X-20121667Y53824239D01*
X-20169286Y53871858D01*
X-20216905Y53967096D01*
X-20264524Y54157572D01*
X-20264524Y54395667D01*
X-20216905Y54586143D01*
X-20169286Y54681381D01*
X-20121667Y54729000D01*
X-20026429Y54776620D01*
X-13842905Y10707620D02*
X-13842905Y9898096D01*
X-13795286Y9802858D01*
X-13747667Y9755239D01*
X-13652429Y9707620D01*
X-13461953Y9707620D01*
X-13366715Y9755239D01*
X-13319096Y9802858D01*
X-13271477Y9898096D01*
X-13271477Y10707620D01*
X-12271477Y9707620D02*
X-12842905Y9707620D01*
X-12557191Y9707620D02*
X-12557191Y10707620D01*
X-12652429Y10564762D01*
X-12747667Y10469524D01*
X-12842905Y10421905D01*
X-15261905Y55411620D02*
X-15261905Y54602096D01*
X-15214286Y54506858D01*
X-15166667Y54459239D01*
X-15071429Y54411620D01*
X-14880953Y54411620D01*
X-14785715Y54459239D01*
X-14738096Y54506858D01*
X-14690477Y54602096D01*
X-14690477Y55411620D01*
X-13785715Y55078286D02*
X-13785715Y54411620D01*
X-14023810Y55459239D02*
X-14261905Y54744953D01*
X-13642858Y54744953D01*
X-15112905Y24169620D02*
X-15112905Y23360096D01*
X-15065286Y23264858D01*
X-15017667Y23217239D01*
X-14922429Y23169620D01*
X-14731953Y23169620D01*
X-14636715Y23217239D01*
X-14589096Y23264858D01*
X-14541477Y23360096D01*
X-14541477Y24169620D01*
X-14112905Y24074381D02*
X-14065286Y24122000D01*
X-13970048Y24169620D01*
X-13731953Y24169620D01*
X-13636715Y24122000D01*
X-13589096Y24074381D01*
X-13541477Y23979143D01*
X-13541477Y23883905D01*
X-13589096Y23741048D01*
X-14160524Y23169620D01*
X-13541477Y23169620D01*
X-31238096Y3420620D02*
X-31238096Y4420620D01*
X-31000000Y4420620D01*
X-30857143Y4373000D01*
X-30761905Y4277762D01*
X-30714286Y4182524D01*
X-30666667Y3992048D01*
X-30666667Y3849191D01*
X-30714286Y3658715D01*
X-30761905Y3563477D01*
X-30857143Y3468239D01*
X-31000000Y3420620D01*
X-31238096Y3420620D01*
X-29714286Y3420620D02*
X-30285715Y3420620D01*
X-30000000Y3420620D02*
X-30000000Y4420620D01*
X-30095239Y4277762D01*
X-30190477Y4182524D01*
X-30285715Y4134905D01*
M02*
