M48
;DRILL file {KiCad 5.0.0-fee4fd1~66~ubuntu18.04.1} date Tue Aug 28 20:10:31 2018
;FORMAT={-:-/ absolute / metric / decimal}
FMAT,2
METRIC,TZ
T1C0.762
T2C1.000
T3C3.100
%
G90
G05
M71
T1
X-43.5Y-38.497
X-41.Y-9.784
X-43.5Y-23.765
X-43.5Y-26.284
X-43.5Y-28.804
X-41.Y-22.504
X-41.Y-25.024
X-41.Y-27.544
X-43.5Y-53.229
X-43.5Y-55.748
X-43.5Y-58.268
X-41.Y-51.968
X-41.Y-54.488
X-41.Y-57.008
X-43.5Y-41.016
X-43.5Y-43.536
X-41.Y-37.236
X-41.Y-39.756
X-41.Y-42.276
X-43.5Y-8.525
X-43.5Y-11.044
X-43.5Y-13.564
X-41.Y-7.264
X-41.Y-12.304
T2
X-4.29Y-3.24
X-4.29Y-5.78
X-4.29Y-8.32
X-4.29Y-10.86
X-4.29Y-13.4
X-4.29Y-15.94
X-4.29Y-18.48
X-4.29Y-21.02
X-4.29Y-23.56
X-4.29Y-26.1
X-4.29Y-28.64
X-4.29Y-31.18
X-4.29Y-33.72
X-4.29Y-36.26
X-4.29Y-38.8
X-4.29Y-41.34
X-4.29Y-43.88
X-4.29Y-46.42
X-4.29Y-48.96
X-4.29Y-51.5
X-1.75Y-3.24
X-1.75Y-5.78
X-1.75Y-8.32
X-1.75Y-10.86
X-1.75Y-13.4
X-1.75Y-15.94
X-1.75Y-18.48
X-1.75Y-21.02
X-1.75Y-23.56
X-1.75Y-26.1
X-1.75Y-28.64
X-1.75Y-31.18
X-1.75Y-33.72
X-1.75Y-36.26
X-1.75Y-38.8
X-1.75Y-41.34
X-1.75Y-43.88
X-1.75Y-46.42
X-1.75Y-48.96
X-1.75Y-51.5
T3
X-50.Y-35.386
X-50.Y-45.386
X-50.Y-5.414
X-50.Y-15.414
X-50.Y-20.654
X-50.Y-30.654
X-50.Y-50.118
X-50.Y-60.118
T0
M30
