G04 #@! TF.GenerationSoftware,KiCad,Pcbnew,5.0.0-fee4fd1~66~ubuntu18.04.1*
G04 #@! TF.CreationDate,2018-08-28T20:11:10-05:00*
G04 #@! TF.ProjectId,PiKwonDoHAT,50694B776F6E446F4841542E6B696361,rev?*
G04 #@! TF.SameCoordinates,PX7735940PY42c1d80*
G04 #@! TF.FileFunction,Copper,L2,Bot,Signal*
G04 #@! TF.FilePolarity,Positive*
%FSLAX46Y46*%
G04 Gerber Fmt 4.6, Leading zero omitted, Abs format (unit mm)*
G04 Created by KiCad (PCBNEW 5.0.0-fee4fd1~66~ubuntu18.04.1) date Tue Aug 28 20:11:10 2018*
%MOMM*%
%LPD*%
G01*
G04 APERTURE LIST*
G04 #@! TA.AperFunction,SMDPad,CuDef*
%ADD10R,0.750000X1.200000*%
G04 #@! TD*
G04 #@! TA.AperFunction,ComponentPad*
%ADD11C,1.524000*%
G04 #@! TD*
G04 #@! TA.AperFunction,WasherPad*
%ADD12C,3.500000*%
G04 #@! TD*
G04 #@! TA.AperFunction,ComponentPad*
%ADD13R,1.700000X1.700000*%
G04 #@! TD*
G04 #@! TA.AperFunction,ComponentPad*
%ADD14O,1.700000X1.700000*%
G04 #@! TD*
G04 #@! TA.AperFunction,SMDPad,CuDef*
%ADD15R,1.200000X0.750000*%
G04 #@! TD*
G04 #@! TA.AperFunction,SMDPad,CuDef*
%ADD16R,2.000000X1.700000*%
G04 #@! TD*
G04 #@! TA.AperFunction,SMDPad,CuDef*
%ADD17R,1.250000X1.500000*%
G04 #@! TD*
G04 #@! TA.AperFunction,SMDPad,CuDef*
%ADD18R,1.560000X0.650000*%
G04 #@! TD*
G04 #@! TA.AperFunction,SMDPad,CuDef*
%ADD19R,1.000000X1.000000*%
G04 #@! TD*
G04 #@! TA.AperFunction,Conductor*
%ADD20C,0.400000*%
G04 #@! TD*
G04 #@! TA.AperFunction,Conductor*
%ADD21C,0.500000*%
G04 #@! TD*
G04 APERTURE END LIST*
D10*
G04 #@! TO.P,C12,1*
G04 #@! TO.N,Net-(C12-Pad1)*
X-40500000Y-59300000D03*
G04 #@! TO.P,C12,2*
G04 #@! TO.N,GND*
X-40500000Y-61200000D03*
G04 #@! TD*
D11*
G04 #@! TO.P,CN3,1*
G04 #@! TO.N,Net-(CN3-Pad1)*
X-43500000Y-28804000D03*
G04 #@! TO.P,CN3,2*
G04 #@! TO.N,Net-(C8-Pad1)*
X-41000000Y-27544000D03*
G04 #@! TO.P,CN3,3*
G04 #@! TO.N,Net-(C7-Pad1)*
X-43500000Y-26284000D03*
G04 #@! TO.P,CN3,4*
G04 #@! TO.N,Net-(CN3-Pad4)*
X-41000000Y-25024000D03*
G04 #@! TO.P,CN3,5*
G04 #@! TO.N,GND*
X-43500000Y-23765000D03*
G04 #@! TO.P,CN3,6*
G04 #@! TO.N,Net-(CN3-Pad6)*
X-41000000Y-22504000D03*
D12*
G04 #@! TO.P,CN3,*
G04 #@! TO.N,*
X-50000000Y-30654000D03*
X-50000000Y-20654000D03*
G04 #@! TD*
D11*
G04 #@! TO.P,CN4,1*
G04 #@! TO.N,Net-(CN4-Pad1)*
X-43500000Y-43536000D03*
G04 #@! TO.P,CN4,2*
G04 #@! TO.N,Net-(C10-Pad1)*
X-41000000Y-42276000D03*
G04 #@! TO.P,CN4,3*
G04 #@! TO.N,Net-(C9-Pad1)*
X-43500000Y-41016000D03*
G04 #@! TO.P,CN4,4*
G04 #@! TO.N,Net-(CN4-Pad4)*
X-41000000Y-39756000D03*
G04 #@! TO.P,CN4,5*
G04 #@! TO.N,GND*
X-43500000Y-38497000D03*
G04 #@! TO.P,CN4,6*
G04 #@! TO.N,Net-(CN4-Pad6)*
X-41000000Y-37236000D03*
D12*
G04 #@! TO.P,CN4,*
G04 #@! TO.N,*
X-50000000Y-45386000D03*
X-50000000Y-35386000D03*
G04 #@! TD*
D11*
G04 #@! TO.P,CN2,1*
G04 #@! TO.N,Net-(CN2-Pad1)*
X-43500000Y-13564000D03*
G04 #@! TO.P,CN2,2*
G04 #@! TO.N,Net-(C6-Pad1)*
X-41000000Y-12304000D03*
G04 #@! TO.P,CN2,3*
G04 #@! TO.N,Net-(C5-Pad1)*
X-43500000Y-11044000D03*
G04 #@! TO.P,CN2,4*
G04 #@! TO.N,Net-(CN2-Pad4)*
X-41000000Y-9784000D03*
G04 #@! TO.P,CN2,5*
G04 #@! TO.N,GND*
X-43500000Y-8525000D03*
G04 #@! TO.P,CN2,6*
G04 #@! TO.N,Net-(CN2-Pad6)*
X-41000000Y-7264000D03*
D12*
G04 #@! TO.P,CN2,*
G04 #@! TO.N,*
X-50000000Y-15414000D03*
X-50000000Y-5414000D03*
G04 #@! TD*
D13*
G04 #@! TO.P,CN1,1*
G04 #@! TO.N,Net-(CN1-Pad1)*
X-1750000Y-51500000D03*
D14*
G04 #@! TO.P,CN1,2*
G04 #@! TO.N,GND*
X-4290000Y-51500000D03*
G04 #@! TO.P,CN1,3*
G04 #@! TO.N,Net-(CN1-Pad3)*
X-1750000Y-48960000D03*
G04 #@! TO.P,CN1,4*
G04 #@! TO.N,/C_DATA*
X-4290000Y-48960000D03*
G04 #@! TO.P,CN1,5*
G04 #@! TO.N,Net-(CN1-Pad5)*
X-1750000Y-46420000D03*
G04 #@! TO.P,CN1,6*
G04 #@! TO.N,/C_LOAD*
X-4290000Y-46420000D03*
G04 #@! TO.P,CN1,7*
G04 #@! TO.N,Net-(CN1-Pad7)*
X-1750000Y-43880000D03*
G04 #@! TO.P,CN1,8*
G04 #@! TO.N,Net-(CN1-Pad8)*
X-4290000Y-43880000D03*
G04 #@! TO.P,CN1,9*
G04 #@! TO.N,Net-(CN1-Pad9)*
X-1750000Y-41340000D03*
G04 #@! TO.P,CN1,10*
G04 #@! TO.N,/C_CLK*
X-4290000Y-41340000D03*
G04 #@! TO.P,CN1,11*
G04 #@! TO.N,Net-(CN1-Pad11)*
X-1750000Y-38800000D03*
G04 #@! TO.P,CN1,12*
G04 #@! TO.N,Net-(CN1-Pad12)*
X-4290000Y-38800000D03*
G04 #@! TO.P,CN1,13*
G04 #@! TO.N,Net-(CN1-Pad13)*
X-1750000Y-36260000D03*
G04 #@! TO.P,CN1,14*
G04 #@! TO.N,Net-(CN1-Pad14)*
X-4290000Y-36260000D03*
G04 #@! TO.P,CN1,15*
G04 #@! TO.N,Net-(CN1-Pad15)*
X-1750000Y-33720000D03*
G04 #@! TO.P,CN1,16*
G04 #@! TO.N,GND*
X-4290000Y-33720000D03*
G04 #@! TO.P,CN1,17*
G04 #@! TO.N,Net-(CN1-Pad17)*
X-1750000Y-31180000D03*
G04 #@! TO.P,CN1,18*
G04 #@! TO.N,/J3_DATA*
X-4290000Y-31180000D03*
G04 #@! TO.P,CN1,19*
G04 #@! TO.N,Net-(CN1-Pad19)*
X-1750000Y-28640000D03*
G04 #@! TO.P,CN1,20*
G04 #@! TO.N,/J3_LOAD*
X-4290000Y-28640000D03*
G04 #@! TO.P,CN1,21*
G04 #@! TO.N,Net-(CN1-Pad21)*
X-1750000Y-26100000D03*
G04 #@! TO.P,CN1,22*
G04 #@! TO.N,/J3_CLK*
X-4290000Y-26100000D03*
G04 #@! TO.P,CN1,23*
G04 #@! TO.N,Net-(CN1-Pad23)*
X-1750000Y-23560000D03*
G04 #@! TO.P,CN1,24*
G04 #@! TO.N,Net-(CN1-Pad24)*
X-4290000Y-23560000D03*
G04 #@! TO.P,CN1,25*
G04 #@! TO.N,Net-(CN1-Pad25)*
X-1750000Y-21020000D03*
G04 #@! TO.P,CN1,26*
G04 #@! TO.N,/J2_DATA*
X-4290000Y-21020000D03*
G04 #@! TO.P,CN1,27*
G04 #@! TO.N,Net-(CN1-Pad27)*
X-1750000Y-18480000D03*
G04 #@! TO.P,CN1,28*
G04 #@! TO.N,/J2_LOAD*
X-4290000Y-18480000D03*
G04 #@! TO.P,CN1,29*
G04 #@! TO.N,Net-(CN1-Pad29)*
X-1750000Y-15940000D03*
G04 #@! TO.P,CN1,30*
G04 #@! TO.N,/J2_CLK*
X-4290000Y-15940000D03*
G04 #@! TO.P,CN1,31*
G04 #@! TO.N,Net-(CN1-Pad31)*
X-1750000Y-13400000D03*
G04 #@! TO.P,CN1,32*
G04 #@! TO.N,GND*
X-4290000Y-13400000D03*
G04 #@! TO.P,CN1,33*
G04 #@! TO.N,Net-(CN1-Pad33)*
X-1750000Y-10860000D03*
G04 #@! TO.P,CN1,34*
G04 #@! TO.N,/J1_DATA*
X-4290000Y-10860000D03*
G04 #@! TO.P,CN1,35*
G04 #@! TO.N,Net-(CN1-Pad35)*
X-1750000Y-8320000D03*
G04 #@! TO.P,CN1,36*
G04 #@! TO.N,/J1_LOAD*
X-4290000Y-8320000D03*
G04 #@! TO.P,CN1,37*
G04 #@! TO.N,+5V*
X-1750000Y-5780000D03*
G04 #@! TO.P,CN1,38*
G04 #@! TO.N,/J1_CLK*
X-4290000Y-5780000D03*
G04 #@! TO.P,CN1,39*
G04 #@! TO.N,+5V*
X-1750000Y-3240000D03*
G04 #@! TO.P,CN1,40*
G04 #@! TO.N,Net-(CN1-Pad40)*
X-4290000Y-3240000D03*
G04 #@! TD*
D11*
G04 #@! TO.P,CN5,1*
G04 #@! TO.N,Net-(CN5-Pad1)*
X-43500000Y-58268000D03*
G04 #@! TO.P,CN5,2*
G04 #@! TO.N,Net-(C12-Pad1)*
X-41000000Y-57008000D03*
G04 #@! TO.P,CN5,3*
G04 #@! TO.N,Net-(C11-Pad1)*
X-43500000Y-55748000D03*
G04 #@! TO.P,CN5,4*
G04 #@! TO.N,Net-(CN5-Pad4)*
X-41000000Y-54488000D03*
G04 #@! TO.P,CN5,5*
G04 #@! TO.N,GND*
X-43500000Y-53229000D03*
G04 #@! TO.P,CN5,6*
G04 #@! TO.N,Net-(CN5-Pad6)*
X-41000000Y-51968000D03*
D12*
G04 #@! TO.P,CN5,*
G04 #@! TO.N,*
X-50000000Y-60118000D03*
X-50000000Y-50118000D03*
G04 #@! TD*
D10*
G04 #@! TO.P,C5,1*
G04 #@! TO.N,Net-(C5-Pad1)*
X-36500000Y-6450000D03*
G04 #@! TO.P,C5,2*
G04 #@! TO.N,GND*
X-36500000Y-4550000D03*
G04 #@! TD*
G04 #@! TO.P,C7,1*
G04 #@! TO.N,Net-(C7-Pad1)*
X-36500000Y-21950000D03*
G04 #@! TO.P,C7,2*
G04 #@! TO.N,GND*
X-36500000Y-20050000D03*
G04 #@! TD*
G04 #@! TO.P,C9,1*
G04 #@! TO.N,Net-(C9-Pad1)*
X-36500000Y-36950000D03*
G04 #@! TO.P,C9,2*
G04 #@! TO.N,GND*
X-36500000Y-35050000D03*
G04 #@! TD*
G04 #@! TO.P,C11,1*
G04 #@! TO.N,Net-(C11-Pad1)*
X-36500000Y-51450000D03*
G04 #@! TO.P,C11,2*
G04 #@! TO.N,GND*
X-36500000Y-49550000D03*
G04 #@! TD*
D15*
G04 #@! TO.P,C6,1*
G04 #@! TO.N,Net-(C6-Pad1)*
X-42694000Y-16002000D03*
G04 #@! TO.P,C6,2*
G04 #@! TO.N,GND*
X-44594000Y-16002000D03*
G04 #@! TD*
G04 #@! TO.P,C8,1*
G04 #@! TO.N,Net-(C8-Pad1)*
X-41932000Y-32004000D03*
G04 #@! TO.P,C8,2*
G04 #@! TO.N,GND*
X-43832000Y-32004000D03*
G04 #@! TD*
G04 #@! TO.P,C10,1*
G04 #@! TO.N,Net-(C10-Pad1)*
X-40408000Y-45974000D03*
G04 #@! TO.P,C10,2*
G04 #@! TO.N,GND*
X-42308000Y-45974000D03*
G04 #@! TD*
D16*
G04 #@! TO.P,R3,1*
G04 #@! TO.N,/J1_DATA*
X-31230000Y-11430000D03*
G04 #@! TO.P,R3,2*
G04 #@! TO.N,Net-(CN2-Pad4)*
X-35230000Y-11430000D03*
G04 #@! TD*
G04 #@! TO.P,R6,1*
G04 #@! TO.N,/J2_DATA*
X-30468000Y-26416000D03*
G04 #@! TO.P,R6,2*
G04 #@! TO.N,Net-(CN3-Pad4)*
X-34468000Y-26416000D03*
G04 #@! TD*
G04 #@! TO.P,R9,1*
G04 #@! TO.N,/J3_DATA*
X-30722000Y-40132000D03*
G04 #@! TO.P,R9,2*
G04 #@! TO.N,Net-(CN4-Pad4)*
X-34722000Y-40132000D03*
G04 #@! TD*
G04 #@! TO.P,R12,1*
G04 #@! TO.N,/C_DATA*
X-29960000Y-54864000D03*
G04 #@! TO.P,R12,2*
G04 #@! TO.N,Net-(CN5-Pad4)*
X-33960000Y-54864000D03*
G04 #@! TD*
G04 #@! TO.P,R2,1*
G04 #@! TO.N,/J1_LOAD*
X-28944000Y-6858000D03*
G04 #@! TO.P,R2,2*
G04 #@! TO.N,Net-(C5-Pad1)*
X-32944000Y-6858000D03*
G04 #@! TD*
G04 #@! TO.P,R5,1*
G04 #@! TO.N,/J2_LOAD*
X-28182000Y-22352000D03*
G04 #@! TO.P,R5,2*
G04 #@! TO.N,Net-(C7-Pad1)*
X-32182000Y-22352000D03*
G04 #@! TD*
G04 #@! TO.P,R8,1*
G04 #@! TO.N,/J3_LOAD*
X-27674000Y-36830000D03*
G04 #@! TO.P,R8,2*
G04 #@! TO.N,Net-(C9-Pad1)*
X-31674000Y-36830000D03*
G04 #@! TD*
G04 #@! TO.P,R11,1*
G04 #@! TO.N,/C_LOAD*
X-27166000Y-50800000D03*
G04 #@! TO.P,R11,2*
G04 #@! TO.N,Net-(C11-Pad1)*
X-31166000Y-50800000D03*
G04 #@! TD*
G04 #@! TO.P,R1,1*
G04 #@! TO.N,Net-(R1-Pad1)*
X-33516000Y-15240000D03*
G04 #@! TO.P,R1,2*
G04 #@! TO.N,Net-(C6-Pad1)*
X-37516000Y-15240000D03*
G04 #@! TD*
G04 #@! TO.P,R4,1*
G04 #@! TO.N,Net-(R4-Pad1)*
X-33262000Y-30226000D03*
G04 #@! TO.P,R4,2*
G04 #@! TO.N,Net-(C8-Pad1)*
X-37262000Y-30226000D03*
G04 #@! TD*
G04 #@! TO.P,R7,1*
G04 #@! TO.N,Net-(R7-Pad1)*
X-33262000Y-43942000D03*
G04 #@! TO.P,R7,2*
G04 #@! TO.N,Net-(C10-Pad1)*
X-37262000Y-43942000D03*
G04 #@! TD*
G04 #@! TO.P,R10,1*
G04 #@! TO.N,Net-(R10-Pad1)*
X-33008000Y-58928000D03*
G04 #@! TO.P,R10,2*
G04 #@! TO.N,Net-(C12-Pad1)*
X-37008000Y-58928000D03*
G04 #@! TD*
D17*
G04 #@! TO.P,C3,1*
G04 #@! TO.N,+5V*
X-12910000Y-35072000D03*
G04 #@! TO.P,C3,2*
G04 #@! TO.N,GND*
X-12910000Y-37572000D03*
G04 #@! TD*
G04 #@! TO.P,C1,1*
G04 #@! TO.N,+5V*
X-13164000Y-5354000D03*
G04 #@! TO.P,C1,2*
G04 #@! TO.N,GND*
X-13164000Y-7854000D03*
G04 #@! TD*
G04 #@! TO.P,C2,1*
G04 #@! TO.N,+5V*
X-12910000Y-21864000D03*
G04 #@! TO.P,C2,2*
G04 #@! TO.N,GND*
X-12910000Y-24364000D03*
G04 #@! TD*
G04 #@! TO.P,C4,1*
G04 #@! TO.N,+5V*
X-12910000Y-47772000D03*
G04 #@! TO.P,C4,2*
G04 #@! TO.N,GND*
X-12910000Y-50272000D03*
G04 #@! TD*
D18*
G04 #@! TO.P,U1,1*
G04 #@! TO.N,Net-(U1-Pad1)*
X-17656000Y-5654000D03*
G04 #@! TO.P,U1,2*
G04 #@! TO.N,/J1_CLK*
X-17656000Y-6604000D03*
G04 #@! TO.P,U1,3*
G04 #@! TO.N,GND*
X-17656000Y-7554000D03*
G04 #@! TO.P,U1,4*
G04 #@! TO.N,Net-(R1-Pad1)*
X-20356000Y-7554000D03*
G04 #@! TO.P,U1,5*
G04 #@! TO.N,+5V*
X-20356000Y-5654000D03*
G04 #@! TD*
G04 #@! TO.P,U4,1*
G04 #@! TO.N,Net-(U4-Pad1)*
X-17910000Y-48580000D03*
G04 #@! TO.P,U4,2*
G04 #@! TO.N,/C_CLK*
X-17910000Y-49530000D03*
G04 #@! TO.P,U4,3*
G04 #@! TO.N,GND*
X-17910000Y-50480000D03*
G04 #@! TO.P,U4,4*
G04 #@! TO.N,Net-(R10-Pad1)*
X-20610000Y-50480000D03*
G04 #@! TO.P,U4,5*
G04 #@! TO.N,+5V*
X-20610000Y-48580000D03*
G04 #@! TD*
G04 #@! TO.P,U3,1*
G04 #@! TO.N,Net-(U3-Pad1)*
X-18164000Y-35118000D03*
G04 #@! TO.P,U3,2*
G04 #@! TO.N,/J3_CLK*
X-18164000Y-36068000D03*
G04 #@! TO.P,U3,3*
G04 #@! TO.N,GND*
X-18164000Y-37018000D03*
G04 #@! TO.P,U3,4*
G04 #@! TO.N,Net-(R7-Pad1)*
X-20864000Y-37018000D03*
G04 #@! TO.P,U3,5*
G04 #@! TO.N,+5V*
X-20864000Y-35118000D03*
G04 #@! TD*
G04 #@! TO.P,U2,1*
G04 #@! TO.N,Net-(U2-Pad1)*
X-18418000Y-21402000D03*
G04 #@! TO.P,U2,2*
G04 #@! TO.N,/J2_CLK*
X-18418000Y-22352000D03*
G04 #@! TO.P,U2,3*
G04 #@! TO.N,GND*
X-18418000Y-23302000D03*
G04 #@! TO.P,U2,4*
G04 #@! TO.N,Net-(R4-Pad1)*
X-21118000Y-23302000D03*
G04 #@! TO.P,U2,5*
G04 #@! TO.N,+5V*
X-21118000Y-21402000D03*
G04 #@! TD*
D19*
G04 #@! TO.P,D1,1*
G04 #@! TO.N,+5V*
X-14668000Y-15240000D03*
G04 #@! TO.P,D1,2*
G04 #@! TO.N,GND*
X-12168000Y-15240000D03*
G04 #@! TD*
G04 #@! TO.P,D2,1*
G04 #@! TO.N,/J1_DATA*
X-26118000Y-11704000D03*
G04 #@! TO.P,D2,2*
G04 #@! TO.N,GND*
X-26118000Y-14204000D03*
G04 #@! TD*
G04 #@! TO.P,D3,1*
G04 #@! TO.N,/J1_LOAD*
X-19768000Y-11704000D03*
G04 #@! TO.P,D3,2*
G04 #@! TO.N,GND*
X-19768000Y-14204000D03*
G04 #@! TD*
G04 #@! TO.P,D4,1*
G04 #@! TO.N,/J2_DATA*
X-25250000Y-27000000D03*
G04 #@! TO.P,D4,2*
G04 #@! TO.N,GND*
X-25250000Y-29500000D03*
G04 #@! TD*
G04 #@! TO.P,D5,1*
G04 #@! TO.N,/J2_LOAD*
X-20250000Y-27000000D03*
G04 #@! TO.P,D5,2*
G04 #@! TO.N,GND*
X-20250000Y-29500000D03*
G04 #@! TD*
G04 #@! TO.P,D6,1*
G04 #@! TO.N,/J3_DATA*
X-25356000Y-40914000D03*
G04 #@! TO.P,D6,2*
G04 #@! TO.N,GND*
X-25356000Y-43414000D03*
G04 #@! TD*
G04 #@! TO.P,D7,1*
G04 #@! TO.N,/J3_LOAD*
X-19768000Y-40914000D03*
G04 #@! TO.P,D7,2*
G04 #@! TO.N,GND*
X-19768000Y-43414000D03*
G04 #@! TD*
G04 #@! TO.P,D8,1*
G04 #@! TO.N,/C_DATA*
X-24086000Y-55138000D03*
G04 #@! TO.P,D8,2*
G04 #@! TO.N,GND*
X-24086000Y-57638000D03*
G04 #@! TD*
G04 #@! TO.P,D9,1*
G04 #@! TO.N,/C_LOAD*
X-17736000Y-55138000D03*
G04 #@! TO.P,D9,2*
G04 #@! TO.N,GND*
X-17736000Y-57638000D03*
G04 #@! TD*
D20*
G04 #@! TO.N,GND*
X-17736000Y-57638000D02*
X-10428000Y-57638000D01*
X-10428000Y-57638000D02*
X-4290000Y-51500000D01*
X-24086000Y-57638000D02*
X-17736000Y-57638000D01*
X-32750000Y-33020000D02*
X-29254000Y-29524000D01*
X-29202000Y-29500000D02*
X-25250000Y-29500000D01*
X-29226000Y-29524000D02*
X-29202000Y-29500000D01*
X-29254000Y-29524000D02*
X-29226000Y-29524000D01*
X-25250000Y-29500000D02*
X-20250000Y-29500000D01*
X-15250000Y-29500000D02*
X-11386000Y-33364000D01*
X-43136000Y-33020000D02*
X-32750000Y-33020000D01*
X-32750000Y-33020000D02*
X-32722000Y-33020000D01*
X-43832000Y-32324000D02*
X-43136000Y-33020000D01*
X-20250000Y-29500000D02*
X-15250000Y-29500000D01*
X-15250000Y-29500000D02*
X-15160000Y-29500000D01*
X-11386000Y-33274000D02*
X-11386000Y-33364000D01*
X-11386000Y-33364000D02*
X-11386000Y-36048000D01*
X-11386000Y-36048000D02*
X-12910000Y-37572000D01*
X-11640000Y-20004002D02*
X-11640000Y-15768000D01*
X-11640000Y-20004002D02*
X-11640000Y-23094000D01*
X-12910000Y-24364000D02*
X-11640000Y-23094000D01*
X-11640000Y-15768000D02*
X-12168000Y-15240000D01*
X-12168000Y-15240000D02*
X-11740000Y-15240000D01*
X-11740000Y-15240000D02*
X-10000000Y-13500000D01*
X-36500000Y-49550000D02*
X-36200000Y-49250000D01*
X-36200000Y-49250000D02*
X-32950000Y-49250000D01*
X-31960000Y-48260000D02*
X-32950000Y-49250000D01*
X-24848000Y-48260000D02*
X-31960000Y-48260000D01*
X-23578000Y-49530000D02*
X-24848000Y-48260000D01*
X-19260000Y-49530000D02*
X-23578000Y-49530000D01*
X-42308000Y-46548000D02*
X-41612000Y-47244000D01*
X-36500000Y-34482002D02*
X-36500000Y-35050000D01*
X-25073000Y-34573000D02*
X-25163998Y-34482002D01*
X-25163998Y-34482002D02*
X-36500000Y-34482002D01*
X-36500000Y-34482002D02*
X-36500000Y-35050000D01*
X-36500000Y-35050000D02*
X-36500000Y-34500000D01*
X-36500000Y-20050000D02*
X-36500000Y-19304000D01*
X-24340000Y-4064000D02*
X-24404000Y-4000000D01*
X-21800000Y-6604000D02*
X-24340000Y-4064000D01*
X-19006000Y-6604000D02*
X-21800000Y-6604000D01*
X-24404000Y-4000000D02*
X-36500000Y-4000000D01*
X-36500000Y-4000000D02*
X-36500000Y-4550000D01*
X-40596000Y-4064000D02*
X-40532000Y-4000000D01*
X-40532000Y-4000000D02*
X-36500000Y-4000000D01*
X-36500000Y-4000000D02*
X-36500000Y-4550000D01*
X-36500000Y-4000000D02*
X-36500000Y-4550000D01*
X-10078000Y-13500000D02*
X-10000000Y-13500000D01*
X-10000000Y-13500000D02*
X-4390000Y-13500000D01*
X-4390000Y-13500000D02*
X-4290000Y-13400000D01*
X-42308000Y-45974000D02*
X-42308000Y-46548000D01*
X-41612000Y-47244000D02*
X-33992000Y-47244000D01*
X-33992000Y-47244000D02*
X-32214000Y-45466000D01*
X-32214000Y-45466000D02*
X-27058000Y-45466000D01*
X-27058000Y-45466000D02*
X-25356000Y-43764000D01*
X-19768000Y-43764000D02*
X-11716000Y-43764000D01*
X-11716000Y-43764000D02*
X-9862000Y-41910000D01*
X-12910000Y-50272000D02*
X-12382000Y-50272000D01*
X-12382000Y-50272000D02*
X-9862000Y-47752000D01*
X-9862000Y-47752000D02*
X-9862000Y-41910000D01*
X-6244000Y-33720000D02*
X-4290000Y-33720000D01*
X-9862000Y-41910000D02*
X-7830000Y-39878000D01*
X-7830000Y-39878000D02*
X-7830000Y-35306000D01*
X-7830000Y-35306000D02*
X-6244000Y-33720000D01*
X-17910000Y-50480000D02*
X-18818000Y-50480000D01*
X-13946000Y-50272000D02*
X-12910000Y-50272000D01*
X-16720000Y-47498000D02*
X-13946000Y-50272000D01*
X-19006000Y-47498000D02*
X-16720000Y-47498000D01*
X-19260000Y-47752000D02*
X-19006000Y-47498000D01*
X-19260000Y-50038000D02*
X-19260000Y-49530000D01*
X-19260000Y-49530000D02*
X-19260000Y-47752000D01*
X-18818000Y-50480000D02*
X-19260000Y-50038000D01*
X-23578000Y-36068000D02*
X-19514000Y-36068000D01*
X-25102000Y-34544000D02*
X-25073000Y-34573000D01*
X-25073000Y-34573000D02*
X-23578000Y-36068000D01*
X-25356000Y-43764000D02*
X-19768000Y-43764000D01*
X-43832000Y-32004000D02*
X-43832000Y-32324000D01*
X-19514000Y-36322000D02*
X-19514000Y-36068000D01*
X-19514000Y-36322000D02*
X-19514000Y-36830000D01*
X-19514000Y-36830000D02*
X-19326000Y-37018000D01*
X-19326000Y-37018000D02*
X-18164000Y-37018000D01*
X-19514000Y-36068000D02*
X-19514000Y-34544000D01*
X-16446000Y-34036000D02*
X-12910000Y-37572000D01*
X-19006000Y-34036000D02*
X-16446000Y-34036000D01*
X-19514000Y-34544000D02*
X-19006000Y-34036000D01*
X-13464000Y-37018000D02*
X-12910000Y-37572000D01*
X-42909000Y-38674000D02*
X-42732000Y-38497000D01*
X-19768000Y-22352000D02*
X-22308000Y-22352000D01*
X-25356000Y-19304000D02*
X-36500000Y-19304000D01*
X-22308000Y-22352000D02*
X-25356000Y-19304000D01*
X-44594000Y-16002000D02*
X-44594000Y-16576000D01*
X-44594000Y-16576000D02*
X-44152000Y-17018000D01*
X-44152000Y-17018000D02*
X-28582000Y-17018000D01*
X-28582000Y-17018000D02*
X-26118000Y-14554000D01*
X-18418000Y-23302000D02*
X-19326000Y-23302000D01*
X-14668000Y-22606000D02*
X-12910000Y-24364000D01*
X-19768000Y-22352000D02*
X-19768000Y-20320000D01*
X-19768000Y-20320000D02*
X-19514000Y-20066000D01*
X-19514000Y-20066000D02*
X-17228000Y-20066000D01*
X-17228000Y-20066000D02*
X-14688000Y-22606000D01*
X-14688000Y-22606000D02*
X-14668000Y-22606000D01*
X-19768000Y-22860000D02*
X-19768000Y-22352000D01*
X-19326000Y-23302000D02*
X-19768000Y-22860000D01*
X-19768000Y-14554000D02*
X-17558000Y-14554000D01*
X-13596000Y-13462000D02*
X-11818000Y-15240000D01*
X-16466000Y-13462000D02*
X-13596000Y-13462000D01*
X-17558000Y-14554000D02*
X-16466000Y-13462000D01*
X-13240000Y-37942000D02*
X-12636000Y-37338000D01*
X-17656000Y-7554000D02*
X-18564000Y-7554000D01*
X-18564000Y-7554000D02*
X-19006000Y-7112000D01*
X-19006000Y-7112000D02*
X-19006000Y-6604000D01*
X-14688000Y-6330000D02*
X-13164000Y-7854000D01*
X-19006000Y-6604000D02*
X-19006000Y-5018002D01*
X-19006000Y-5018002D02*
X-18752000Y-4764002D01*
X-18752000Y-4764002D02*
X-15765998Y-4764002D01*
X-15765998Y-4764002D02*
X-14688000Y-5842000D01*
X-14688000Y-5842000D02*
X-14688000Y-6330000D01*
X-4720000Y-13400000D02*
X-4290000Y-13400000D01*
X-13464000Y-7554000D02*
X-13164000Y-7854000D01*
X-26118000Y-14554000D02*
X-19768000Y-14554000D01*
X-17722000Y-7620000D02*
X-17656000Y-7554000D01*
X-44762000Y-16170000D02*
X-44594000Y-16002000D01*
X-46000000Y-30000000D02*
X-43832000Y-32004000D01*
X-44577630Y-23765000D02*
X-46000000Y-25187370D01*
X-46000000Y-25187370D02*
X-46000000Y-30000000D01*
X-43500000Y-23765000D02*
X-44577630Y-23765000D01*
X-45750000Y-44250000D02*
X-43026000Y-45974000D01*
X-42732000Y-38497000D02*
X-45750000Y-40000000D01*
X-43026000Y-45974000D02*
X-42308000Y-45974000D01*
X-45750000Y-40000000D02*
X-45750000Y-44250000D01*
X-43500000Y-35500000D02*
X-43500000Y-38497000D01*
X-36500000Y-34482002D02*
X-42482002Y-34482002D01*
X-42482002Y-34482002D02*
X-43500000Y-35500000D01*
X-37275000Y-49550000D02*
X-36500000Y-49550000D01*
X-41439724Y-49550000D02*
X-37275000Y-49550000D01*
X-43500000Y-51610276D02*
X-41439724Y-49550000D01*
X-43500000Y-53229000D02*
X-43500000Y-51610276D01*
X-43500000Y-6968000D02*
X-43500000Y-8525000D01*
X-40532000Y-4000000D02*
X-43500000Y-6968000D01*
X-44261999Y-9286999D02*
X-43500000Y-8525000D01*
X-44762001Y-9787001D02*
X-44261999Y-9286999D01*
X-44762001Y-15058999D02*
X-44762001Y-9787001D01*
X-44594000Y-15227000D02*
X-44762001Y-15058999D01*
X-44594000Y-16002000D02*
X-44594000Y-15227000D01*
X-37275000Y-20050000D02*
X-36500000Y-20050000D01*
X-43500000Y-22146276D02*
X-41403724Y-20050000D01*
X-41403724Y-20050000D02*
X-37275000Y-20050000D01*
X-43500000Y-23765000D02*
X-43500000Y-22146276D01*
X-45250000Y-58385762D02*
X-42435762Y-61200000D01*
X-45250000Y-54979000D02*
X-45250000Y-58385762D01*
X-41275000Y-61200000D02*
X-40500000Y-61200000D01*
X-42435762Y-61200000D02*
X-41275000Y-61200000D01*
X-43500000Y-53229000D02*
X-45250000Y-54979000D01*
X-24086000Y-58538000D02*
X-24086000Y-57638000D01*
X-26748000Y-61200000D02*
X-24086000Y-58538000D01*
X-40500000Y-61200000D02*
X-26748000Y-61200000D01*
G04 #@! TO.N,Net-(C5-Pad1)*
X-36500000Y-6450000D02*
X-33352000Y-6450000D01*
X-33352000Y-6450000D02*
X-32944000Y-6858000D01*
X-39024990Y-4700010D02*
X-37275000Y-6450000D01*
X-40242048Y-4700010D02*
X-39024990Y-4700010D01*
X-37275000Y-6450000D02*
X-36500000Y-6450000D01*
X-42799990Y-7257952D02*
X-40242048Y-4700010D01*
X-42799990Y-7357248D02*
X-42799990Y-7257952D01*
X-42237999Y-7919239D02*
X-42799990Y-7357248D01*
X-42237999Y-9154237D02*
X-42237999Y-7919239D01*
X-42738001Y-9654239D02*
X-42237999Y-9154237D01*
X-42738001Y-10282001D02*
X-42738001Y-9654239D01*
X-43500000Y-11044000D02*
X-42738001Y-10282001D01*
G04 #@! TO.N,Net-(C6-Pad1)*
X-42694000Y-16002000D02*
X-39002000Y-16002000D01*
X-39002000Y-16002000D02*
X-38240000Y-15240000D01*
X-38240000Y-15240000D02*
X-37516000Y-15240000D01*
X-42694000Y-16002000D02*
X-42628000Y-16002000D01*
X-37516000Y-15240000D02*
X-37440000Y-15240000D01*
X-37516000Y-15240000D02*
X-37516000Y-15164000D01*
X-38064000Y-15240000D02*
X-37516000Y-15240000D01*
X-41000000Y-12304000D02*
X-38064000Y-15240000D01*
G04 #@! TO.N,Net-(C7-Pad1)*
X-36500000Y-21950000D02*
X-32584000Y-21950000D01*
X-32584000Y-21950000D02*
X-32182000Y-22352000D01*
X-37275000Y-21950000D02*
X-36500000Y-21950000D01*
X-37983001Y-21241999D02*
X-37275000Y-21950000D01*
X-41605761Y-21241999D02*
X-37983001Y-21241999D01*
X-42262001Y-21898239D02*
X-41605761Y-21241999D01*
X-42262001Y-23109761D02*
X-42262001Y-21898239D01*
X-41607762Y-23764000D02*
X-42262001Y-23109761D01*
X-42738001Y-24894239D02*
X-41607762Y-23764000D01*
X-42738001Y-25522001D02*
X-42738001Y-24894239D01*
X-43500000Y-26284000D02*
X-42738001Y-25522001D01*
G04 #@! TO.N,Net-(C8-Pad1)*
X-41932000Y-32004000D02*
X-40004000Y-32004000D01*
X-38500000Y-30500000D02*
X-37536000Y-30500000D01*
X-40004000Y-32004000D02*
X-38500000Y-30500000D01*
X-37536000Y-30500000D02*
X-37262000Y-30226000D01*
X-37262000Y-30226000D02*
X-37550000Y-30226000D01*
X-37262000Y-30226000D02*
X-37262000Y-30390000D01*
X-38318000Y-30226000D02*
X-37262000Y-30226000D01*
X-41000000Y-27544000D02*
X-38318000Y-30226000D01*
G04 #@! TO.N,+5V*
X-21118000Y-21402000D02*
X-21118000Y-20118000D01*
X-15774000Y-19000000D02*
X-12910000Y-21864000D01*
X-20000000Y-19000000D02*
X-15774000Y-19000000D01*
X-21118000Y-20118000D02*
X-20000000Y-19000000D01*
X-1750000Y-3240000D02*
X-1750000Y-2250000D01*
X-8810000Y-1000000D02*
X-10893000Y-3083000D01*
X-10893000Y-3083000D02*
X-13164000Y-5354000D01*
X-3000000Y-1000000D02*
X-8810000Y-1000000D01*
X-1750000Y-2250000D02*
X-3000000Y-1000000D01*
X-13164000Y-5354000D02*
X-12954000Y-5354000D01*
X-20356000Y-5160000D02*
X-19260000Y-4064000D01*
X-19260000Y-4064000D02*
X-14454000Y-4064000D01*
X-20356000Y-5654000D02*
X-20356000Y-5160000D01*
X-14454000Y-4064000D02*
X-13164000Y-5354000D01*
X-20610000Y-48580000D02*
X-20610000Y-47578000D01*
X-20610000Y-47578000D02*
X-19514000Y-46482000D01*
X-19514000Y-46482000D02*
X-14200000Y-46482000D01*
X-14200000Y-46482000D02*
X-12910000Y-47772000D01*
X-12910000Y-35072000D02*
X-14160000Y-35072000D01*
X-14160000Y-35072000D02*
X-16212000Y-33020000D01*
X-16212000Y-33020000D02*
X-19514000Y-33020000D01*
X-19514000Y-33020000D02*
X-20864000Y-34370000D01*
X-20864000Y-34370000D02*
X-20864000Y-35118000D01*
X-20864000Y-35118000D02*
X-20864000Y-34878000D01*
X-1750000Y-3240000D02*
X-1750000Y-5780000D01*
X-12910000Y-46590000D02*
X-12910000Y-47772000D01*
X-14000000Y-45500000D02*
X-12910000Y-46590000D01*
X-23000000Y-45500000D02*
X-14000000Y-45500000D01*
X-53250000Y-41250000D02*
X-53250000Y-51000000D01*
X-51000000Y-53250000D02*
X-47962000Y-53086000D01*
X-53250000Y-51000000D02*
X-51000000Y-53250000D01*
X-24744000Y-47244000D02*
X-23000000Y-45500000D01*
X-47962000Y-53086000D02*
X-43136000Y-48260000D01*
X-43136000Y-48260000D02*
X-33484000Y-48260000D01*
X-33484000Y-48260000D02*
X-32468000Y-47244000D01*
X-32468000Y-47244000D02*
X-24744000Y-47244000D01*
X-12910000Y-20066000D02*
X-12910000Y-21864000D01*
X-15018000Y-15240000D02*
X-15018000Y-17958000D01*
X-17240000Y-15240000D02*
X-15018000Y-15240000D01*
X-42917000Y-3083000D02*
X-53250000Y-13500000D01*
X-10893000Y-3083000D02*
X-42917000Y-3083000D01*
X-53250000Y-16250000D02*
X-51010000Y-18034000D01*
X-51010000Y-18034000D02*
X-20000000Y-18000000D01*
X-15018000Y-17958000D02*
X-12910000Y-20066000D01*
X-53250000Y-13500000D02*
X-53250000Y-16250000D01*
X-20000000Y-18000000D02*
X-17240000Y-15240000D01*
X-53250000Y-33000000D02*
X-53250000Y-16250000D01*
X-20864000Y-34393000D02*
X-21507000Y-33750000D01*
X-20864000Y-35118000D02*
X-20864000Y-34393000D01*
X-21507000Y-33750000D02*
X-43750000Y-33750000D01*
X-49500000Y-39500000D02*
X-53250000Y-39500000D01*
X-53250000Y-41250000D02*
X-53250000Y-39500000D01*
X-43750000Y-33750000D02*
X-49500000Y-39500000D01*
X-53250000Y-39500000D02*
X-53250000Y-33000000D01*
G04 #@! TO.N,/J1_LOAD*
X-28944000Y-6858000D02*
X-25610000Y-6858000D01*
X-25610000Y-6858000D02*
X-21114000Y-11354000D01*
X-19768000Y-11354000D02*
X-12834000Y-11354000D01*
X-9800000Y-8320000D02*
X-4290000Y-8320000D01*
X-12834000Y-11354000D02*
X-9800000Y-8320000D01*
X-21114000Y-11354000D02*
X-19768000Y-11354000D01*
G04 #@! TO.N,/J2_LOAD*
X-26118000Y-22352000D02*
X-28182000Y-22352000D01*
X-21876000Y-26594000D02*
X-26118000Y-22352000D01*
X-20276000Y-26594000D02*
X-14764000Y-26594000D01*
X-6752000Y-18480000D02*
X-4290000Y-18480000D01*
X-9608000Y-21336000D02*
X-6752000Y-18480000D01*
X-9608000Y-24892000D02*
X-9608000Y-21336000D01*
X-11640000Y-26924000D02*
X-9608000Y-24892000D01*
X-14434000Y-26924000D02*
X-11640000Y-26924000D01*
X-14764000Y-26594000D02*
X-14434000Y-26924000D01*
X-20276000Y-26594000D02*
X-21876000Y-26594000D01*
G04 #@! TO.N,/J3_LOAD*
X-27674000Y-36830000D02*
X-25670000Y-36830000D01*
X-21936000Y-40564000D02*
X-19768000Y-40564000D01*
X-25670000Y-36830000D02*
X-21936000Y-40564000D01*
X-19768000Y-40564000D02*
X-12072000Y-40564000D01*
X-7260000Y-28640000D02*
X-4290000Y-28640000D01*
X-9608000Y-31242000D02*
X-7260000Y-28640000D01*
X-9608000Y-38354000D02*
X-9608000Y-31242000D01*
X-12072000Y-40564000D02*
X-9608000Y-38354000D01*
G04 #@! TO.N,/C_LOAD*
X-17736000Y-54788000D02*
X-13342000Y-54788000D01*
X-5736000Y-46420000D02*
X-4290000Y-46420000D01*
X-6560000Y-47244000D02*
X-5736000Y-46420000D01*
X-6560000Y-48006000D02*
X-6560000Y-47244000D01*
X-13342000Y-54788000D02*
X-6560000Y-48006000D01*
X-21368000Y-54788000D02*
X-17736000Y-54788000D01*
X-4290000Y-46420000D02*
X-4974000Y-46420000D01*
X-4290000Y-46420000D02*
X-4420000Y-46420000D01*
X-25356000Y-50800000D02*
X-21368000Y-54788000D01*
X-27166000Y-50800000D02*
X-25356000Y-50800000D01*
G04 #@! TO.N,Net-(C9-Pad1)*
X-36500000Y-36950000D02*
X-36380000Y-36830000D01*
X-36380000Y-36830000D02*
X-31674000Y-36830000D01*
X-41976138Y-38127624D02*
X-42500000Y-37603762D01*
X-41976138Y-38840900D02*
X-41976138Y-38127624D01*
X-42738001Y-39602763D02*
X-41976138Y-38840900D01*
X-43500000Y-41016000D02*
X-42738001Y-40254001D01*
X-42738001Y-40254001D02*
X-42738001Y-39602763D01*
X-42500000Y-37603762D02*
X-42500000Y-36500000D01*
X-42500000Y-36500000D02*
X-41500000Y-35500000D01*
X-41500000Y-35500000D02*
X-39250000Y-35500000D01*
X-37800000Y-36950000D02*
X-36500000Y-36950000D01*
X-39250000Y-35500000D02*
X-37800000Y-36950000D01*
G04 #@! TO.N,Net-(C10-Pad1)*
X-40408000Y-45974000D02*
X-39294000Y-45974000D01*
X-39294000Y-45974000D02*
X-37262000Y-43942000D01*
X-40408000Y-45974000D02*
X-40408000Y-42452000D01*
X-40408000Y-42452000D02*
X-40232000Y-42276000D01*
X-40174000Y-45740000D02*
X-40408000Y-45974000D01*
X-37262000Y-43942000D02*
X-37262000Y-44346000D01*
G04 #@! TO.N,Net-(C11-Pad1)*
X-36500000Y-51450000D02*
X-35850000Y-50800000D01*
X-35850000Y-50800000D02*
X-31166000Y-50800000D01*
X-38019001Y-50705999D02*
X-37275000Y-51450000D01*
X-41605761Y-50705999D02*
X-38019001Y-50705999D01*
X-42262001Y-51362239D02*
X-41605761Y-50705999D01*
X-42262001Y-52641237D02*
X-42262001Y-51362239D01*
X-41653238Y-53250000D02*
X-42262001Y-52641237D01*
X-37275000Y-51450000D02*
X-36500000Y-51450000D01*
X-42738001Y-54334763D02*
X-41653238Y-53250000D01*
X-42738001Y-54986001D02*
X-42738001Y-54334763D01*
X-43500000Y-55748000D02*
X-42738001Y-54986001D01*
G04 #@! TO.N,Net-(C12-Pad1)*
X-41000000Y-58800000D02*
X-40500000Y-59300000D01*
X-41000000Y-57008000D02*
X-41000000Y-58800000D01*
X-40128000Y-58928000D02*
X-40500000Y-59300000D01*
X-37008000Y-58928000D02*
X-40128000Y-58928000D01*
G04 #@! TO.N,Net-(CN2-Pad4)*
X-40232000Y-9784000D02*
X-36876000Y-9784000D01*
X-36876000Y-9784000D02*
X-35230000Y-11430000D01*
X-35230000Y-11430000D02*
X-35230000Y-11762000D01*
G04 #@! TO.N,Net-(CN3-Pad4)*
X-40232000Y-25024000D02*
X-35860000Y-25024000D01*
X-35860000Y-25024000D02*
X-34468000Y-26416000D01*
G04 #@! TO.N,Net-(CN4-Pad4)*
X-40232000Y-39756000D02*
X-35098000Y-39756000D01*
X-35098000Y-39756000D02*
X-34722000Y-40132000D01*
G04 #@! TO.N,Net-(CN5-Pad4)*
X-33210000Y-54364000D02*
X-33210000Y-54264000D01*
X-34336000Y-54488000D02*
X-33960000Y-54864000D01*
X-41000000Y-54488000D02*
X-40000000Y-54488000D01*
X-40232000Y-54488000D02*
X-40000000Y-54488000D01*
X-40000000Y-54488000D02*
X-34336000Y-54488000D01*
G04 #@! TO.N,/J1_DATA*
X-26118000Y-11354000D02*
X-23146000Y-11354000D01*
X-6752000Y-10860000D02*
X-4290000Y-10860000D01*
X-8338000Y-12446000D02*
X-6752000Y-10860000D01*
X-17228000Y-12446000D02*
X-8338000Y-12446000D01*
X-17736000Y-12954000D02*
X-17228000Y-12446000D01*
X-21546000Y-12954000D02*
X-17736000Y-12954000D01*
X-4482000Y-10668000D02*
X-4290000Y-10860000D01*
X-23146000Y-11354000D02*
X-21546000Y-12954000D01*
X-31230000Y-11430000D02*
X-26194000Y-11430000D01*
X-31230000Y-11430000D02*
X-31230000Y-11716000D01*
G04 #@! TO.N,/J2_DATA*
X-30468000Y-26416000D02*
X-25788000Y-26416000D01*
X-6498000Y-21020000D02*
X-4290000Y-21020000D01*
X-8084000Y-22606000D02*
X-6498000Y-21020000D01*
X-8084000Y-25400000D02*
X-8084000Y-22606000D01*
X-10878000Y-28194000D02*
X-8084000Y-25400000D01*
X-22816000Y-28194000D02*
X-10878000Y-28194000D01*
X-24162000Y-26848000D02*
X-22816000Y-28194000D01*
X-25356000Y-26848000D02*
X-24162000Y-26848000D01*
X-25788000Y-26416000D02*
X-25356000Y-26848000D01*
G04 #@! TO.N,/J3_DATA*
X-25356000Y-40914000D02*
X-24106000Y-42164000D01*
X-24106000Y-42164000D02*
X-12402000Y-42164000D01*
X-30722000Y-40132000D02*
X-26138000Y-40132000D01*
X-26138000Y-40132000D02*
X-25356000Y-40914000D01*
X-7260000Y-31180000D02*
X-4290000Y-31180000D01*
X-12402000Y-42164000D02*
X-8592000Y-38354000D01*
X-8592000Y-38354000D02*
X-8592000Y-32512000D01*
X-8592000Y-32512000D02*
X-7260000Y-31180000D01*
G04 #@! TO.N,/C_DATA*
X-29960000Y-54864000D02*
X-24162000Y-54864000D01*
X-5990000Y-48960000D02*
X-4290000Y-48960000D01*
X-13418000Y-56388000D02*
X-5990000Y-48960000D01*
X-21292000Y-56388000D02*
X-13418000Y-56388000D01*
X-22892000Y-54788000D02*
X-21292000Y-56388000D01*
X-24086000Y-54788000D02*
X-22892000Y-54788000D01*
X-24162000Y-54864000D02*
X-24086000Y-54788000D01*
G04 #@! TO.N,/C_CLK*
X-6752000Y-41340000D02*
X-4290000Y-41340000D01*
X-8338000Y-42926000D02*
X-6752000Y-41340000D01*
X-8338000Y-48260000D02*
X-8338000Y-42926000D01*
X-11640000Y-51562000D02*
X-8338000Y-48260000D01*
X-14180000Y-51562000D02*
X-11640000Y-51562000D01*
X-16212000Y-49530000D02*
X-14180000Y-51562000D01*
X-17910000Y-49530000D02*
X-16212000Y-49530000D01*
G04 #@! TO.N,/J3_CLK*
X-7260000Y-26100000D02*
X-4290000Y-26100000D01*
X-10624000Y-29464000D02*
X-7260000Y-26100000D01*
X-10624000Y-37846000D02*
X-10624000Y-29464000D01*
X-11894000Y-39116000D02*
X-10624000Y-37846000D01*
X-13672000Y-39116000D02*
X-11894000Y-39116000D01*
X-16720000Y-36068000D02*
X-13672000Y-39116000D01*
X-18164000Y-36068000D02*
X-16720000Y-36068000D01*
G04 #@! TO.N,/J2_CLK*
X-8022000Y-15940000D02*
X-4290000Y-15940000D01*
X-10624000Y-18542000D02*
X-8022000Y-15940000D01*
X-10624000Y-24638000D02*
X-10624000Y-18542000D01*
X-11894000Y-25908000D02*
X-10624000Y-24638000D01*
X-13926000Y-25908000D02*
X-11894000Y-25908000D01*
X-14688000Y-25146000D02*
X-13926000Y-25908000D01*
X-14688000Y-24130000D02*
X-14688000Y-25146000D01*
X-16466000Y-22352000D02*
X-14688000Y-24130000D01*
X-18418000Y-22352000D02*
X-16466000Y-22352000D01*
G04 #@! TO.N,/J1_CLK*
X-8530000Y-5780000D02*
X-4290000Y-5780000D01*
X-12148000Y-9398000D02*
X-8530000Y-5780000D01*
X-14434000Y-9398000D02*
X-12148000Y-9398000D01*
X-15196000Y-8636000D02*
X-14434000Y-9398000D01*
X-15196000Y-7874000D02*
X-15196000Y-8636000D01*
X-4606000Y-6096000D02*
X-4290000Y-5780000D01*
X-16466000Y-6604000D02*
X-15196000Y-7874000D01*
X-17656000Y-6604000D02*
X-16466000Y-6604000D01*
G04 #@! TO.N,Net-(R1-Pad1)*
X-30944000Y-7874000D02*
X-30944000Y-5588000D01*
X-30944000Y-5588000D02*
X-30182000Y-4826000D01*
X-33516000Y-15240000D02*
X-33516000Y-10446000D01*
X-32722000Y-15240000D02*
X-33516000Y-15240000D01*
X-33516000Y-10446000D02*
X-30944000Y-7874000D01*
X-30182000Y-4826000D02*
X-25102000Y-4826000D01*
X-25102000Y-4826000D02*
X-22374000Y-7554000D01*
X-22374000Y-7554000D02*
X-20356000Y-7554000D01*
G04 #@! TO.N,Net-(R4-Pad1)*
X-33262000Y-30226000D02*
X-33262000Y-28734000D01*
X-30182000Y-23114000D02*
X-30182000Y-21336000D01*
X-30182000Y-21336000D02*
X-29166000Y-20320000D01*
X-32468000Y-27940000D02*
X-32468000Y-25400000D01*
X-32468000Y-25400000D02*
X-30182000Y-23114000D01*
X-33262000Y-28734000D02*
X-32468000Y-27940000D01*
X-29166000Y-20320000D02*
X-25864000Y-20320000D01*
X-25864000Y-20320000D02*
X-22882000Y-23302000D01*
X-22882000Y-23302000D02*
X-21118000Y-23302000D01*
G04 #@! TO.N,Net-(R7-Pad1)*
X-33262000Y-43942000D02*
X-33262000Y-42450000D01*
X-31960000Y-38354000D02*
X-30436000Y-38354000D01*
X-30436000Y-38354000D02*
X-29420000Y-37338000D01*
X-29420000Y-37338000D02*
X-29420000Y-35814000D01*
X-29420000Y-35814000D02*
X-28912000Y-35306000D01*
X-32722000Y-41910000D02*
X-32722000Y-39116000D01*
X-32722000Y-39116000D02*
X-31960000Y-38354000D01*
X-33262000Y-42450000D02*
X-32722000Y-41910000D01*
X-28912000Y-35306000D02*
X-25864000Y-35306000D01*
X-25864000Y-35306000D02*
X-24152000Y-37018000D01*
X-24152000Y-37018000D02*
X-20864000Y-37018000D01*
G04 #@! TO.N,Net-(R10-Pad1)*
X-33008000Y-58928000D02*
X-33008000Y-57436000D01*
X-30690000Y-52578000D02*
X-29928000Y-52578000D01*
X-29928000Y-52578000D02*
X-29166000Y-51816000D01*
X-29166000Y-51816000D02*
X-29166000Y-49530000D01*
X-29166000Y-49530000D02*
X-28658000Y-49022000D01*
X-31960000Y-56388000D02*
X-31960000Y-53848000D01*
X-31960000Y-53848000D02*
X-30690000Y-52578000D01*
X-33008000Y-57436000D02*
X-31960000Y-56388000D01*
X-28658000Y-49022000D02*
X-25356000Y-49022000D01*
X-25356000Y-49022000D02*
X-23898000Y-50480000D01*
X-23898000Y-50480000D02*
X-20610000Y-50480000D01*
D21*
G04 #@! TO.N,Net-(CN1-Pad3)*
X-1750000Y-48960000D02*
X-920000Y-48960000D01*
G04 #@! TO.N,Net-(CN1-Pad5)*
X-1750000Y-46420000D02*
X-1750000Y-46250000D01*
D20*
G04 #@! TO.N,Net-(CN1-Pad7)*
X-1750000Y-43880000D02*
X-1370000Y-43880000D01*
G04 #@! TO.N,Net-(CN1-Pad11)*
X-1750000Y-38800000D02*
X-1050000Y-38800000D01*
D21*
X-1750000Y-38800000D02*
X-1700000Y-38800000D01*
D20*
G04 #@! TO.N,Net-(CN1-Pad25)*
X-1730000Y-21000000D02*
X-1750000Y-21020000D01*
D21*
X-1750000Y-21020000D02*
X-980000Y-21020000D01*
G04 #@! TO.N,Net-(CN1-Pad27)*
X-1750000Y-18480000D02*
X-1520000Y-18480000D01*
X-1750000Y-18480000D02*
X-1750000Y-18500000D01*
D20*
G04 #@! TO.N,Net-(CN1-Pad29)*
X-1690000Y-16000000D02*
X-1750000Y-15940000D01*
G04 #@! TD*
M02*
