G04 #@! TF.GenerationSoftware,KiCad,Pcbnew,(5.0.2-4-gb601aea34)*
G04 #@! TF.CreationDate,2019-01-15T08:03:27-06:00*
G04 #@! TF.ProjectId,PiKwonDoHAT,50694b77-6f6e-4446-9f48-41542e6b6963,rev?*
G04 #@! TF.SameCoordinates,PX7735940PY42c1d80*
G04 #@! TF.FileFunction,Copper,L1,Top*
G04 #@! TF.FilePolarity,Positive*
%FSLAX46Y46*%
G04 Gerber Fmt 4.6, Leading zero omitted, Abs format (unit mm)*
G04 Created by KiCad (PCBNEW (5.0.2-4-gb601aea34)) date Tuesday, January 15, 2019 at 08:03:27 AM*
%MOMM*%
%LPD*%
G01*
G04 APERTURE LIST*
G04 #@! TA.AperFunction,ComponentPad*
%ADD10R,1.700000X1.700000*%
G04 #@! TD*
G04 #@! TA.AperFunction,ComponentPad*
%ADD11O,1.700000X1.700000*%
G04 #@! TD*
G04 #@! TA.AperFunction,ComponentPad*
%ADD12C,1.520000*%
G04 #@! TD*
G04 #@! TA.AperFunction,ComponentPad*
%ADD13R,1.520000X1.520000*%
G04 #@! TD*
G04 #@! TA.AperFunction,SMDPad,CuDef*
%ADD14R,1.200000X0.900000*%
G04 #@! TD*
G04 #@! TA.AperFunction,Conductor*
%ADD15C,0.100000*%
G04 #@! TD*
G04 #@! TA.AperFunction,SMDPad,CuDef*
%ADD16C,1.425000*%
G04 #@! TD*
G04 #@! TA.AperFunction,SMDPad,CuDef*
%ADD17R,2.000000X1.700000*%
G04 #@! TD*
G04 #@! TA.AperFunction,SMDPad,CuDef*
%ADD18R,1.560000X0.650000*%
G04 #@! TD*
G04 #@! TA.AperFunction,SMDPad,CuDef*
%ADD19R,1.000000X1.000000*%
G04 #@! TD*
G04 #@! TA.AperFunction,Conductor*
%ADD20C,0.400000*%
G04 #@! TD*
G04 #@! TA.AperFunction,Conductor*
%ADD21C,1.000000*%
G04 #@! TD*
G04 #@! TA.AperFunction,Conductor*
%ADD22C,0.800000*%
G04 #@! TD*
G04 #@! TA.AperFunction,Conductor*
%ADD23C,0.500000*%
G04 #@! TD*
G04 #@! TA.AperFunction,Conductor*
%ADD24C,0.600000*%
G04 #@! TD*
G04 APERTURE END LIST*
D10*
G04 #@! TO.P,J5,1*
G04 #@! TO.N,Net-(J5-Pad1)*
X-1750000Y-11500000D03*
D11*
G04 #@! TO.P,J5,2*
G04 #@! TO.N,GND*
X-4290000Y-11500000D03*
G04 #@! TO.P,J5,3*
G04 #@! TO.N,Net-(J5-Pad3)*
X-1750000Y-14040000D03*
G04 #@! TO.P,J5,4*
G04 #@! TO.N,/C_DATA*
X-4290000Y-14040000D03*
G04 #@! TO.P,J5,5*
G04 #@! TO.N,Net-(J5-Pad5)*
X-1750000Y-16580000D03*
G04 #@! TO.P,J5,6*
G04 #@! TO.N,/C_LOAD*
X-4290000Y-16580000D03*
G04 #@! TO.P,J5,7*
G04 #@! TO.N,Net-(J5-Pad7)*
X-1750000Y-19120000D03*
G04 #@! TO.P,J5,8*
G04 #@! TO.N,Net-(J5-Pad8)*
X-4290000Y-19120000D03*
G04 #@! TO.P,J5,9*
G04 #@! TO.N,Net-(J5-Pad9)*
X-1750000Y-21660000D03*
G04 #@! TO.P,J5,10*
G04 #@! TO.N,/C_CLK*
X-4290000Y-21660000D03*
G04 #@! TO.P,J5,11*
G04 #@! TO.N,Net-(J5-Pad11)*
X-1750000Y-24200000D03*
G04 #@! TO.P,J5,12*
G04 #@! TO.N,Net-(J5-Pad12)*
X-4290000Y-24200000D03*
G04 #@! TO.P,J5,13*
G04 #@! TO.N,Net-(J5-Pad13)*
X-1750000Y-26740000D03*
G04 #@! TO.P,J5,14*
G04 #@! TO.N,Net-(J5-Pad14)*
X-4290000Y-26740000D03*
G04 #@! TO.P,J5,15*
G04 #@! TO.N,Net-(J5-Pad15)*
X-1750000Y-29280000D03*
G04 #@! TO.P,J5,16*
G04 #@! TO.N,GND*
X-4290000Y-29280000D03*
G04 #@! TO.P,J5,17*
G04 #@! TO.N,Net-(J5-Pad17)*
X-1750000Y-31820000D03*
G04 #@! TO.P,J5,18*
G04 #@! TO.N,/J3_DATA*
X-4290000Y-31820000D03*
G04 #@! TO.P,J5,19*
G04 #@! TO.N,Net-(J5-Pad19)*
X-1750000Y-34360000D03*
G04 #@! TO.P,J5,20*
G04 #@! TO.N,/J3_LOAD*
X-4290000Y-34360000D03*
G04 #@! TO.P,J5,21*
G04 #@! TO.N,Net-(J5-Pad21)*
X-1750000Y-36900000D03*
G04 #@! TO.P,J5,22*
G04 #@! TO.N,/J3_CLK*
X-4290000Y-36900000D03*
G04 #@! TO.P,J5,23*
G04 #@! TO.N,Net-(J5-Pad23)*
X-1750000Y-39440000D03*
G04 #@! TO.P,J5,24*
G04 #@! TO.N,Net-(J5-Pad24)*
X-4290000Y-39440000D03*
G04 #@! TO.P,J5,25*
G04 #@! TO.N,Net-(J5-Pad25)*
X-1750000Y-41980000D03*
G04 #@! TO.P,J5,26*
G04 #@! TO.N,/J2_DATA*
X-4290000Y-41980000D03*
G04 #@! TO.P,J5,27*
G04 #@! TO.N,Net-(J5-Pad27)*
X-1750000Y-44520000D03*
G04 #@! TO.P,J5,28*
G04 #@! TO.N,/J2_LOAD*
X-4290000Y-44520000D03*
G04 #@! TO.P,J5,29*
G04 #@! TO.N,Net-(J5-Pad29)*
X-1750000Y-47060000D03*
G04 #@! TO.P,J5,30*
G04 #@! TO.N,/J2_CLK*
X-4290000Y-47060000D03*
G04 #@! TO.P,J5,31*
G04 #@! TO.N,Net-(J5-Pad31)*
X-1750000Y-49600000D03*
G04 #@! TO.P,J5,32*
G04 #@! TO.N,GND*
X-4290000Y-49600000D03*
G04 #@! TO.P,J5,33*
G04 #@! TO.N,Net-(J5-Pad33)*
X-1750000Y-52140000D03*
G04 #@! TO.P,J5,34*
G04 #@! TO.N,/J1_DATA*
X-4290000Y-52140000D03*
G04 #@! TO.P,J5,35*
G04 #@! TO.N,Net-(J5-Pad35)*
X-1750000Y-54680000D03*
G04 #@! TO.P,J5,36*
G04 #@! TO.N,/J1_LOAD*
X-4290000Y-54680000D03*
G04 #@! TO.P,J5,37*
G04 #@! TO.N,+5V*
X-1750000Y-57220000D03*
G04 #@! TO.P,J5,38*
G04 #@! TO.N,/J1_CLK*
X-4290000Y-57220000D03*
G04 #@! TO.P,J5,39*
G04 #@! TO.N,+5V*
X-1750000Y-59760000D03*
G04 #@! TO.P,J5,40*
G04 #@! TO.N,Net-(J5-Pad40)*
X-4290000Y-59760000D03*
G04 #@! TD*
D12*
G04 #@! TO.P,J1,4*
G04 #@! TO.N,Net-(C6-Pad1)*
X-41000000Y-50920000D03*
G04 #@! TO.P,J1,3*
G04 #@! TO.N,Net-(C5-Pad1)*
X-43540000Y-52160000D03*
G04 #@! TO.P,J1,2*
G04 #@! TO.N,Net-(J1-Pad2)*
X-41000000Y-53430000D03*
D13*
G04 #@! TO.P,J1,1*
G04 #@! TO.N,GND*
X-43540000Y-54730000D03*
G04 #@! TD*
G04 #@! TO.P,J2,1*
G04 #@! TO.N,GND*
X-43540000Y-39730000D03*
D12*
G04 #@! TO.P,J2,2*
G04 #@! TO.N,Net-(J2-Pad2)*
X-41000000Y-38430000D03*
G04 #@! TO.P,J2,3*
G04 #@! TO.N,Net-(C7-Pad1)*
X-43540000Y-37160000D03*
G04 #@! TO.P,J2,4*
G04 #@! TO.N,Net-(C8-Pad1)*
X-41000000Y-35920000D03*
G04 #@! TD*
G04 #@! TO.P,J3,4*
G04 #@! TO.N,Net-(C10-Pad1)*
X-41000000Y-20920000D03*
G04 #@! TO.P,J3,3*
G04 #@! TO.N,Net-(C9-Pad1)*
X-43540000Y-22160000D03*
G04 #@! TO.P,J3,2*
G04 #@! TO.N,Net-(J3-Pad2)*
X-41000000Y-23430000D03*
D13*
G04 #@! TO.P,J3,1*
G04 #@! TO.N,GND*
X-43540000Y-24730000D03*
G04 #@! TD*
G04 #@! TO.P,J4,1*
G04 #@! TO.N,GND*
X-43540000Y-9980000D03*
D12*
G04 #@! TO.P,J4,2*
G04 #@! TO.N,Net-(J4-Pad2)*
X-41000000Y-8680000D03*
G04 #@! TO.P,J4,3*
G04 #@! TO.N,Net-(C11-Pad1)*
X-43540000Y-7410000D03*
G04 #@! TO.P,J4,4*
G04 #@! TO.N,Net-(C12-Pad1)*
X-41000000Y-6170000D03*
G04 #@! TD*
D14*
G04 #@! TO.P,D8,2*
G04 #@! TO.N,GND*
X-24003000Y-3303000D03*
G04 #@! TO.P,D8,1*
G04 #@! TO.N,/C_DATA*
X-24003000Y-6603000D03*
G04 #@! TD*
G04 #@! TO.P,D2,2*
G04 #@! TO.N,GND*
X-26118000Y-48388000D03*
G04 #@! TO.P,D2,1*
G04 #@! TO.N,/J1_DATA*
X-26118000Y-51688000D03*
G04 #@! TD*
G04 #@! TO.P,D3,1*
G04 #@! TO.N,/J1_LOAD*
X-19768000Y-51688000D03*
G04 #@! TO.P,D3,2*
G04 #@! TO.N,GND*
X-19768000Y-48388000D03*
G04 #@! TD*
G04 #@! TO.P,D4,2*
G04 #@! TO.N,GND*
X-25250000Y-33092000D03*
G04 #@! TO.P,D4,1*
G04 #@! TO.N,/J2_DATA*
X-25250000Y-36392000D03*
G04 #@! TD*
G04 #@! TO.P,D9,1*
G04 #@! TO.N,/C_LOAD*
X-17736000Y-8254000D03*
G04 #@! TO.P,D9,2*
G04 #@! TO.N,GND*
X-17736000Y-4954000D03*
G04 #@! TD*
G04 #@! TO.P,D7,1*
G04 #@! TO.N,/J3_LOAD*
X-19768000Y-22478000D03*
G04 #@! TO.P,D7,2*
G04 #@! TO.N,GND*
X-19768000Y-19178000D03*
G04 #@! TD*
G04 #@! TO.P,D6,2*
G04 #@! TO.N,GND*
X-25356000Y-19178000D03*
G04 #@! TO.P,D6,1*
G04 #@! TO.N,/J3_DATA*
X-25356000Y-22478000D03*
G04 #@! TD*
G04 #@! TO.P,D5,1*
G04 #@! TO.N,/J2_LOAD*
X-20250000Y-36392000D03*
G04 #@! TO.P,D5,2*
G04 #@! TO.N,GND*
X-20250000Y-33092000D03*
G04 #@! TD*
D15*
G04 #@! TO.N,GND*
G04 #@! TO.C,C1*
G36*
X-13066496Y-54189204D02*
X-13042227Y-54192804D01*
X-13018429Y-54198765D01*
X-12995329Y-54207030D01*
X-12973151Y-54217520D01*
X-12952107Y-54230133D01*
X-12932402Y-54244747D01*
X-12914223Y-54261223D01*
X-12897747Y-54279402D01*
X-12883133Y-54299107D01*
X-12870520Y-54320151D01*
X-12860030Y-54342329D01*
X-12851765Y-54365429D01*
X-12845804Y-54389227D01*
X-12842204Y-54413496D01*
X-12841000Y-54438000D01*
X-12841000Y-55363000D01*
X-12842204Y-55387504D01*
X-12845804Y-55411773D01*
X-12851765Y-55435571D01*
X-12860030Y-55458671D01*
X-12870520Y-55480849D01*
X-12883133Y-55501893D01*
X-12897747Y-55521598D01*
X-12914223Y-55539777D01*
X-12932402Y-55556253D01*
X-12952107Y-55570867D01*
X-12973151Y-55583480D01*
X-12995329Y-55593970D01*
X-13018429Y-55602235D01*
X-13042227Y-55608196D01*
X-13066496Y-55611796D01*
X-13091000Y-55613000D01*
X-14341000Y-55613000D01*
X-14365504Y-55611796D01*
X-14389773Y-55608196D01*
X-14413571Y-55602235D01*
X-14436671Y-55593970D01*
X-14458849Y-55583480D01*
X-14479893Y-55570867D01*
X-14499598Y-55556253D01*
X-14517777Y-55539777D01*
X-14534253Y-55521598D01*
X-14548867Y-55501893D01*
X-14561480Y-55480849D01*
X-14571970Y-55458671D01*
X-14580235Y-55435571D01*
X-14586196Y-55411773D01*
X-14589796Y-55387504D01*
X-14591000Y-55363000D01*
X-14591000Y-54438000D01*
X-14589796Y-54413496D01*
X-14586196Y-54389227D01*
X-14580235Y-54365429D01*
X-14571970Y-54342329D01*
X-14561480Y-54320151D01*
X-14548867Y-54299107D01*
X-14534253Y-54279402D01*
X-14517777Y-54261223D01*
X-14499598Y-54244747D01*
X-14479893Y-54230133D01*
X-14458849Y-54217520D01*
X-14436671Y-54207030D01*
X-14413571Y-54198765D01*
X-14389773Y-54192804D01*
X-14365504Y-54189204D01*
X-14341000Y-54188000D01*
X-13091000Y-54188000D01*
X-13066496Y-54189204D01*
X-13066496Y-54189204D01*
G37*
D16*
G04 #@! TD*
G04 #@! TO.P,C1,2*
G04 #@! TO.N,GND*
X-13716000Y-54900500D03*
D15*
G04 #@! TO.N,+5V*
G04 #@! TO.C,C1*
G36*
X-13066496Y-57164204D02*
X-13042227Y-57167804D01*
X-13018429Y-57173765D01*
X-12995329Y-57182030D01*
X-12973151Y-57192520D01*
X-12952107Y-57205133D01*
X-12932402Y-57219747D01*
X-12914223Y-57236223D01*
X-12897747Y-57254402D01*
X-12883133Y-57274107D01*
X-12870520Y-57295151D01*
X-12860030Y-57317329D01*
X-12851765Y-57340429D01*
X-12845804Y-57364227D01*
X-12842204Y-57388496D01*
X-12841000Y-57413000D01*
X-12841000Y-58338000D01*
X-12842204Y-58362504D01*
X-12845804Y-58386773D01*
X-12851765Y-58410571D01*
X-12860030Y-58433671D01*
X-12870520Y-58455849D01*
X-12883133Y-58476893D01*
X-12897747Y-58496598D01*
X-12914223Y-58514777D01*
X-12932402Y-58531253D01*
X-12952107Y-58545867D01*
X-12973151Y-58558480D01*
X-12995329Y-58568970D01*
X-13018429Y-58577235D01*
X-13042227Y-58583196D01*
X-13066496Y-58586796D01*
X-13091000Y-58588000D01*
X-14341000Y-58588000D01*
X-14365504Y-58586796D01*
X-14389773Y-58583196D01*
X-14413571Y-58577235D01*
X-14436671Y-58568970D01*
X-14458849Y-58558480D01*
X-14479893Y-58545867D01*
X-14499598Y-58531253D01*
X-14517777Y-58514777D01*
X-14534253Y-58496598D01*
X-14548867Y-58476893D01*
X-14561480Y-58455849D01*
X-14571970Y-58433671D01*
X-14580235Y-58410571D01*
X-14586196Y-58386773D01*
X-14589796Y-58362504D01*
X-14591000Y-58338000D01*
X-14591000Y-57413000D01*
X-14589796Y-57388496D01*
X-14586196Y-57364227D01*
X-14580235Y-57340429D01*
X-14571970Y-57317329D01*
X-14561480Y-57295151D01*
X-14548867Y-57274107D01*
X-14534253Y-57254402D01*
X-14517777Y-57236223D01*
X-14499598Y-57219747D01*
X-14479893Y-57205133D01*
X-14458849Y-57192520D01*
X-14436671Y-57182030D01*
X-14413571Y-57173765D01*
X-14389773Y-57167804D01*
X-14365504Y-57164204D01*
X-14341000Y-57163000D01*
X-13091000Y-57163000D01*
X-13066496Y-57164204D01*
X-13066496Y-57164204D01*
G37*
D16*
G04 #@! TD*
G04 #@! TO.P,C1,1*
G04 #@! TO.N,+5V*
X-13716000Y-57875500D03*
D15*
G04 #@! TO.N,+5V*
G04 #@! TO.C,C2*
G36*
X-16241496Y-45607204D02*
X-16217227Y-45610804D01*
X-16193429Y-45616765D01*
X-16170329Y-45625030D01*
X-16148151Y-45635520D01*
X-16127107Y-45648133D01*
X-16107402Y-45662747D01*
X-16089223Y-45679223D01*
X-16072747Y-45697402D01*
X-16058133Y-45717107D01*
X-16045520Y-45738151D01*
X-16035030Y-45760329D01*
X-16026765Y-45783429D01*
X-16020804Y-45807227D01*
X-16017204Y-45831496D01*
X-16016000Y-45856000D01*
X-16016000Y-46781000D01*
X-16017204Y-46805504D01*
X-16020804Y-46829773D01*
X-16026765Y-46853571D01*
X-16035030Y-46876671D01*
X-16045520Y-46898849D01*
X-16058133Y-46919893D01*
X-16072747Y-46939598D01*
X-16089223Y-46957777D01*
X-16107402Y-46974253D01*
X-16127107Y-46988867D01*
X-16148151Y-47001480D01*
X-16170329Y-47011970D01*
X-16193429Y-47020235D01*
X-16217227Y-47026196D01*
X-16241496Y-47029796D01*
X-16266000Y-47031000D01*
X-17516000Y-47031000D01*
X-17540504Y-47029796D01*
X-17564773Y-47026196D01*
X-17588571Y-47020235D01*
X-17611671Y-47011970D01*
X-17633849Y-47001480D01*
X-17654893Y-46988867D01*
X-17674598Y-46974253D01*
X-17692777Y-46957777D01*
X-17709253Y-46939598D01*
X-17723867Y-46919893D01*
X-17736480Y-46898849D01*
X-17746970Y-46876671D01*
X-17755235Y-46853571D01*
X-17761196Y-46829773D01*
X-17764796Y-46805504D01*
X-17766000Y-46781000D01*
X-17766000Y-45856000D01*
X-17764796Y-45831496D01*
X-17761196Y-45807227D01*
X-17755235Y-45783429D01*
X-17746970Y-45760329D01*
X-17736480Y-45738151D01*
X-17723867Y-45717107D01*
X-17709253Y-45697402D01*
X-17692777Y-45679223D01*
X-17674598Y-45662747D01*
X-17654893Y-45648133D01*
X-17633849Y-45635520D01*
X-17611671Y-45625030D01*
X-17588571Y-45616765D01*
X-17564773Y-45610804D01*
X-17540504Y-45607204D01*
X-17516000Y-45606000D01*
X-16266000Y-45606000D01*
X-16241496Y-45607204D01*
X-16241496Y-45607204D01*
G37*
D16*
G04 #@! TD*
G04 #@! TO.P,C2,1*
G04 #@! TO.N,+5V*
X-16891000Y-46318500D03*
D15*
G04 #@! TO.N,GND*
G04 #@! TO.C,C2*
G36*
X-16241496Y-42632204D02*
X-16217227Y-42635804D01*
X-16193429Y-42641765D01*
X-16170329Y-42650030D01*
X-16148151Y-42660520D01*
X-16127107Y-42673133D01*
X-16107402Y-42687747D01*
X-16089223Y-42704223D01*
X-16072747Y-42722402D01*
X-16058133Y-42742107D01*
X-16045520Y-42763151D01*
X-16035030Y-42785329D01*
X-16026765Y-42808429D01*
X-16020804Y-42832227D01*
X-16017204Y-42856496D01*
X-16016000Y-42881000D01*
X-16016000Y-43806000D01*
X-16017204Y-43830504D01*
X-16020804Y-43854773D01*
X-16026765Y-43878571D01*
X-16035030Y-43901671D01*
X-16045520Y-43923849D01*
X-16058133Y-43944893D01*
X-16072747Y-43964598D01*
X-16089223Y-43982777D01*
X-16107402Y-43999253D01*
X-16127107Y-44013867D01*
X-16148151Y-44026480D01*
X-16170329Y-44036970D01*
X-16193429Y-44045235D01*
X-16217227Y-44051196D01*
X-16241496Y-44054796D01*
X-16266000Y-44056000D01*
X-17516000Y-44056000D01*
X-17540504Y-44054796D01*
X-17564773Y-44051196D01*
X-17588571Y-44045235D01*
X-17611671Y-44036970D01*
X-17633849Y-44026480D01*
X-17654893Y-44013867D01*
X-17674598Y-43999253D01*
X-17692777Y-43982777D01*
X-17709253Y-43964598D01*
X-17723867Y-43944893D01*
X-17736480Y-43923849D01*
X-17746970Y-43901671D01*
X-17755235Y-43878571D01*
X-17761196Y-43854773D01*
X-17764796Y-43830504D01*
X-17766000Y-43806000D01*
X-17766000Y-42881000D01*
X-17764796Y-42856496D01*
X-17761196Y-42832227D01*
X-17755235Y-42808429D01*
X-17746970Y-42785329D01*
X-17736480Y-42763151D01*
X-17723867Y-42742107D01*
X-17709253Y-42722402D01*
X-17692777Y-42704223D01*
X-17674598Y-42687747D01*
X-17654893Y-42673133D01*
X-17633849Y-42660520D01*
X-17611671Y-42650030D01*
X-17588571Y-42641765D01*
X-17564773Y-42635804D01*
X-17540504Y-42632204D01*
X-17516000Y-42631000D01*
X-16266000Y-42631000D01*
X-16241496Y-42632204D01*
X-16241496Y-42632204D01*
G37*
D16*
G04 #@! TD*
G04 #@! TO.P,C2,2*
G04 #@! TO.N,GND*
X-16891000Y-43343500D03*
D15*
G04 #@! TO.N,GND*
G04 #@! TO.C,C3*
G36*
X-19651996Y-29479204D02*
X-19627727Y-29482804D01*
X-19603929Y-29488765D01*
X-19580829Y-29497030D01*
X-19558651Y-29507520D01*
X-19537607Y-29520133D01*
X-19517902Y-29534747D01*
X-19499723Y-29551223D01*
X-19483247Y-29569402D01*
X-19468633Y-29589107D01*
X-19456020Y-29610151D01*
X-19445530Y-29632329D01*
X-19437265Y-29655429D01*
X-19431304Y-29679227D01*
X-19427704Y-29703496D01*
X-19426500Y-29728000D01*
X-19426500Y-30978000D01*
X-19427704Y-31002504D01*
X-19431304Y-31026773D01*
X-19437265Y-31050571D01*
X-19445530Y-31073671D01*
X-19456020Y-31095849D01*
X-19468633Y-31116893D01*
X-19483247Y-31136598D01*
X-19499723Y-31154777D01*
X-19517902Y-31171253D01*
X-19537607Y-31185867D01*
X-19558651Y-31198480D01*
X-19580829Y-31208970D01*
X-19603929Y-31217235D01*
X-19627727Y-31223196D01*
X-19651996Y-31226796D01*
X-19676500Y-31228000D01*
X-20601500Y-31228000D01*
X-20626004Y-31226796D01*
X-20650273Y-31223196D01*
X-20674071Y-31217235D01*
X-20697171Y-31208970D01*
X-20719349Y-31198480D01*
X-20740393Y-31185867D01*
X-20760098Y-31171253D01*
X-20778277Y-31154777D01*
X-20794753Y-31136598D01*
X-20809367Y-31116893D01*
X-20821980Y-31095849D01*
X-20832470Y-31073671D01*
X-20840735Y-31050571D01*
X-20846696Y-31026773D01*
X-20850296Y-31002504D01*
X-20851500Y-30978000D01*
X-20851500Y-29728000D01*
X-20850296Y-29703496D01*
X-20846696Y-29679227D01*
X-20840735Y-29655429D01*
X-20832470Y-29632329D01*
X-20821980Y-29610151D01*
X-20809367Y-29589107D01*
X-20794753Y-29569402D01*
X-20778277Y-29551223D01*
X-20760098Y-29534747D01*
X-20740393Y-29520133D01*
X-20719349Y-29507520D01*
X-20697171Y-29497030D01*
X-20674071Y-29488765D01*
X-20650273Y-29482804D01*
X-20626004Y-29479204D01*
X-20601500Y-29478000D01*
X-19676500Y-29478000D01*
X-19651996Y-29479204D01*
X-19651996Y-29479204D01*
G37*
D16*
G04 #@! TD*
G04 #@! TO.P,C3,2*
G04 #@! TO.N,GND*
X-20139000Y-30353000D03*
D15*
G04 #@! TO.N,+5V*
G04 #@! TO.C,C3*
G36*
X-22626996Y-29479204D02*
X-22602727Y-29482804D01*
X-22578929Y-29488765D01*
X-22555829Y-29497030D01*
X-22533651Y-29507520D01*
X-22512607Y-29520133D01*
X-22492902Y-29534747D01*
X-22474723Y-29551223D01*
X-22458247Y-29569402D01*
X-22443633Y-29589107D01*
X-22431020Y-29610151D01*
X-22420530Y-29632329D01*
X-22412265Y-29655429D01*
X-22406304Y-29679227D01*
X-22402704Y-29703496D01*
X-22401500Y-29728000D01*
X-22401500Y-30978000D01*
X-22402704Y-31002504D01*
X-22406304Y-31026773D01*
X-22412265Y-31050571D01*
X-22420530Y-31073671D01*
X-22431020Y-31095849D01*
X-22443633Y-31116893D01*
X-22458247Y-31136598D01*
X-22474723Y-31154777D01*
X-22492902Y-31171253D01*
X-22512607Y-31185867D01*
X-22533651Y-31198480D01*
X-22555829Y-31208970D01*
X-22578929Y-31217235D01*
X-22602727Y-31223196D01*
X-22626996Y-31226796D01*
X-22651500Y-31228000D01*
X-23576500Y-31228000D01*
X-23601004Y-31226796D01*
X-23625273Y-31223196D01*
X-23649071Y-31217235D01*
X-23672171Y-31208970D01*
X-23694349Y-31198480D01*
X-23715393Y-31185867D01*
X-23735098Y-31171253D01*
X-23753277Y-31154777D01*
X-23769753Y-31136598D01*
X-23784367Y-31116893D01*
X-23796980Y-31095849D01*
X-23807470Y-31073671D01*
X-23815735Y-31050571D01*
X-23821696Y-31026773D01*
X-23825296Y-31002504D01*
X-23826500Y-30978000D01*
X-23826500Y-29728000D01*
X-23825296Y-29703496D01*
X-23821696Y-29679227D01*
X-23815735Y-29655429D01*
X-23807470Y-29632329D01*
X-23796980Y-29610151D01*
X-23784367Y-29589107D01*
X-23769753Y-29569402D01*
X-23753277Y-29551223D01*
X-23735098Y-29534747D01*
X-23715393Y-29520133D01*
X-23694349Y-29507520D01*
X-23672171Y-29497030D01*
X-23649071Y-29488765D01*
X-23625273Y-29482804D01*
X-23601004Y-29479204D01*
X-23576500Y-29478000D01*
X-22651500Y-29478000D01*
X-22626996Y-29479204D01*
X-22626996Y-29479204D01*
G37*
D16*
G04 #@! TD*
G04 #@! TO.P,C3,1*
G04 #@! TO.N,+5V*
X-23114000Y-30353000D03*
D15*
G04 #@! TO.N,+5V*
G04 #@! TO.C,C4*
G36*
X-20812496Y-15001204D02*
X-20788227Y-15004804D01*
X-20764429Y-15010765D01*
X-20741329Y-15019030D01*
X-20719151Y-15029520D01*
X-20698107Y-15042133D01*
X-20678402Y-15056747D01*
X-20660223Y-15073223D01*
X-20643747Y-15091402D01*
X-20629133Y-15111107D01*
X-20616520Y-15132151D01*
X-20606030Y-15154329D01*
X-20597765Y-15177429D01*
X-20591804Y-15201227D01*
X-20588204Y-15225496D01*
X-20587000Y-15250000D01*
X-20587000Y-16500000D01*
X-20588204Y-16524504D01*
X-20591804Y-16548773D01*
X-20597765Y-16572571D01*
X-20606030Y-16595671D01*
X-20616520Y-16617849D01*
X-20629133Y-16638893D01*
X-20643747Y-16658598D01*
X-20660223Y-16676777D01*
X-20678402Y-16693253D01*
X-20698107Y-16707867D01*
X-20719151Y-16720480D01*
X-20741329Y-16730970D01*
X-20764429Y-16739235D01*
X-20788227Y-16745196D01*
X-20812496Y-16748796D01*
X-20837000Y-16750000D01*
X-21762000Y-16750000D01*
X-21786504Y-16748796D01*
X-21810773Y-16745196D01*
X-21834571Y-16739235D01*
X-21857671Y-16730970D01*
X-21879849Y-16720480D01*
X-21900893Y-16707867D01*
X-21920598Y-16693253D01*
X-21938777Y-16676777D01*
X-21955253Y-16658598D01*
X-21969867Y-16638893D01*
X-21982480Y-16617849D01*
X-21992970Y-16595671D01*
X-22001235Y-16572571D01*
X-22007196Y-16548773D01*
X-22010796Y-16524504D01*
X-22012000Y-16500000D01*
X-22012000Y-15250000D01*
X-22010796Y-15225496D01*
X-22007196Y-15201227D01*
X-22001235Y-15177429D01*
X-21992970Y-15154329D01*
X-21982480Y-15132151D01*
X-21969867Y-15111107D01*
X-21955253Y-15091402D01*
X-21938777Y-15073223D01*
X-21920598Y-15056747D01*
X-21900893Y-15042133D01*
X-21879849Y-15029520D01*
X-21857671Y-15019030D01*
X-21834571Y-15010765D01*
X-21810773Y-15004804D01*
X-21786504Y-15001204D01*
X-21762000Y-15000000D01*
X-20837000Y-15000000D01*
X-20812496Y-15001204D01*
X-20812496Y-15001204D01*
G37*
D16*
G04 #@! TD*
G04 #@! TO.P,C4,1*
G04 #@! TO.N,+5V*
X-21299500Y-15875000D03*
D15*
G04 #@! TO.N,GND*
G04 #@! TO.C,C4*
G36*
X-17837496Y-15001204D02*
X-17813227Y-15004804D01*
X-17789429Y-15010765D01*
X-17766329Y-15019030D01*
X-17744151Y-15029520D01*
X-17723107Y-15042133D01*
X-17703402Y-15056747D01*
X-17685223Y-15073223D01*
X-17668747Y-15091402D01*
X-17654133Y-15111107D01*
X-17641520Y-15132151D01*
X-17631030Y-15154329D01*
X-17622765Y-15177429D01*
X-17616804Y-15201227D01*
X-17613204Y-15225496D01*
X-17612000Y-15250000D01*
X-17612000Y-16500000D01*
X-17613204Y-16524504D01*
X-17616804Y-16548773D01*
X-17622765Y-16572571D01*
X-17631030Y-16595671D01*
X-17641520Y-16617849D01*
X-17654133Y-16638893D01*
X-17668747Y-16658598D01*
X-17685223Y-16676777D01*
X-17703402Y-16693253D01*
X-17723107Y-16707867D01*
X-17744151Y-16720480D01*
X-17766329Y-16730970D01*
X-17789429Y-16739235D01*
X-17813227Y-16745196D01*
X-17837496Y-16748796D01*
X-17862000Y-16750000D01*
X-18787000Y-16750000D01*
X-18811504Y-16748796D01*
X-18835773Y-16745196D01*
X-18859571Y-16739235D01*
X-18882671Y-16730970D01*
X-18904849Y-16720480D01*
X-18925893Y-16707867D01*
X-18945598Y-16693253D01*
X-18963777Y-16676777D01*
X-18980253Y-16658598D01*
X-18994867Y-16638893D01*
X-19007480Y-16617849D01*
X-19017970Y-16595671D01*
X-19026235Y-16572571D01*
X-19032196Y-16548773D01*
X-19035796Y-16524504D01*
X-19037000Y-16500000D01*
X-19037000Y-15250000D01*
X-19035796Y-15225496D01*
X-19032196Y-15201227D01*
X-19026235Y-15177429D01*
X-19017970Y-15154329D01*
X-19007480Y-15132151D01*
X-18994867Y-15111107D01*
X-18980253Y-15091402D01*
X-18963777Y-15073223D01*
X-18945598Y-15056747D01*
X-18925893Y-15042133D01*
X-18904849Y-15029520D01*
X-18882671Y-15019030D01*
X-18859571Y-15010765D01*
X-18835773Y-15004804D01*
X-18811504Y-15001204D01*
X-18787000Y-15000000D01*
X-17862000Y-15000000D01*
X-17837496Y-15001204D01*
X-17837496Y-15001204D01*
G37*
D16*
G04 #@! TD*
G04 #@! TO.P,C4,2*
G04 #@! TO.N,GND*
X-18324500Y-15875000D03*
D15*
G04 #@! TO.N,GND*
G04 #@! TO.C,C5*
G36*
X-35850496Y-58268204D02*
X-35826227Y-58271804D01*
X-35802429Y-58277765D01*
X-35779329Y-58286030D01*
X-35757151Y-58296520D01*
X-35736107Y-58309133D01*
X-35716402Y-58323747D01*
X-35698223Y-58340223D01*
X-35681747Y-58358402D01*
X-35667133Y-58378107D01*
X-35654520Y-58399151D01*
X-35644030Y-58421329D01*
X-35635765Y-58444429D01*
X-35629804Y-58468227D01*
X-35626204Y-58492496D01*
X-35625000Y-58517000D01*
X-35625000Y-59442000D01*
X-35626204Y-59466504D01*
X-35629804Y-59490773D01*
X-35635765Y-59514571D01*
X-35644030Y-59537671D01*
X-35654520Y-59559849D01*
X-35667133Y-59580893D01*
X-35681747Y-59600598D01*
X-35698223Y-59618777D01*
X-35716402Y-59635253D01*
X-35736107Y-59649867D01*
X-35757151Y-59662480D01*
X-35779329Y-59672970D01*
X-35802429Y-59681235D01*
X-35826227Y-59687196D01*
X-35850496Y-59690796D01*
X-35875000Y-59692000D01*
X-37125000Y-59692000D01*
X-37149504Y-59690796D01*
X-37173773Y-59687196D01*
X-37197571Y-59681235D01*
X-37220671Y-59672970D01*
X-37242849Y-59662480D01*
X-37263893Y-59649867D01*
X-37283598Y-59635253D01*
X-37301777Y-59618777D01*
X-37318253Y-59600598D01*
X-37332867Y-59580893D01*
X-37345480Y-59559849D01*
X-37355970Y-59537671D01*
X-37364235Y-59514571D01*
X-37370196Y-59490773D01*
X-37373796Y-59466504D01*
X-37375000Y-59442000D01*
X-37375000Y-58517000D01*
X-37373796Y-58492496D01*
X-37370196Y-58468227D01*
X-37364235Y-58444429D01*
X-37355970Y-58421329D01*
X-37345480Y-58399151D01*
X-37332867Y-58378107D01*
X-37318253Y-58358402D01*
X-37301777Y-58340223D01*
X-37283598Y-58323747D01*
X-37263893Y-58309133D01*
X-37242849Y-58296520D01*
X-37220671Y-58286030D01*
X-37197571Y-58277765D01*
X-37173773Y-58271804D01*
X-37149504Y-58268204D01*
X-37125000Y-58267000D01*
X-35875000Y-58267000D01*
X-35850496Y-58268204D01*
X-35850496Y-58268204D01*
G37*
D16*
G04 #@! TD*
G04 #@! TO.P,C5,2*
G04 #@! TO.N,GND*
X-36500000Y-58979500D03*
D15*
G04 #@! TO.N,Net-(C5-Pad1)*
G04 #@! TO.C,C5*
G36*
X-35850496Y-55293204D02*
X-35826227Y-55296804D01*
X-35802429Y-55302765D01*
X-35779329Y-55311030D01*
X-35757151Y-55321520D01*
X-35736107Y-55334133D01*
X-35716402Y-55348747D01*
X-35698223Y-55365223D01*
X-35681747Y-55383402D01*
X-35667133Y-55403107D01*
X-35654520Y-55424151D01*
X-35644030Y-55446329D01*
X-35635765Y-55469429D01*
X-35629804Y-55493227D01*
X-35626204Y-55517496D01*
X-35625000Y-55542000D01*
X-35625000Y-56467000D01*
X-35626204Y-56491504D01*
X-35629804Y-56515773D01*
X-35635765Y-56539571D01*
X-35644030Y-56562671D01*
X-35654520Y-56584849D01*
X-35667133Y-56605893D01*
X-35681747Y-56625598D01*
X-35698223Y-56643777D01*
X-35716402Y-56660253D01*
X-35736107Y-56674867D01*
X-35757151Y-56687480D01*
X-35779329Y-56697970D01*
X-35802429Y-56706235D01*
X-35826227Y-56712196D01*
X-35850496Y-56715796D01*
X-35875000Y-56717000D01*
X-37125000Y-56717000D01*
X-37149504Y-56715796D01*
X-37173773Y-56712196D01*
X-37197571Y-56706235D01*
X-37220671Y-56697970D01*
X-37242849Y-56687480D01*
X-37263893Y-56674867D01*
X-37283598Y-56660253D01*
X-37301777Y-56643777D01*
X-37318253Y-56625598D01*
X-37332867Y-56605893D01*
X-37345480Y-56584849D01*
X-37355970Y-56562671D01*
X-37364235Y-56539571D01*
X-37370196Y-56515773D01*
X-37373796Y-56491504D01*
X-37375000Y-56467000D01*
X-37375000Y-55542000D01*
X-37373796Y-55517496D01*
X-37370196Y-55493227D01*
X-37364235Y-55469429D01*
X-37355970Y-55446329D01*
X-37345480Y-55424151D01*
X-37332867Y-55403107D01*
X-37318253Y-55383402D01*
X-37301777Y-55365223D01*
X-37283598Y-55348747D01*
X-37263893Y-55334133D01*
X-37242849Y-55321520D01*
X-37220671Y-55311030D01*
X-37197571Y-55302765D01*
X-37173773Y-55296804D01*
X-37149504Y-55293204D01*
X-37125000Y-55292000D01*
X-35875000Y-55292000D01*
X-35850496Y-55293204D01*
X-35850496Y-55293204D01*
G37*
D16*
G04 #@! TD*
G04 #@! TO.P,C5,1*
G04 #@! TO.N,Net-(C5-Pad1)*
X-36500000Y-56004500D03*
D15*
G04 #@! TO.N,Net-(C6-Pad1)*
G04 #@! TO.C,C6*
G36*
X-38212496Y-48655204D02*
X-38188227Y-48658804D01*
X-38164429Y-48664765D01*
X-38141329Y-48673030D01*
X-38119151Y-48683520D01*
X-38098107Y-48696133D01*
X-38078402Y-48710747D01*
X-38060223Y-48727223D01*
X-38043747Y-48745402D01*
X-38029133Y-48765107D01*
X-38016520Y-48786151D01*
X-38006030Y-48808329D01*
X-37997765Y-48831429D01*
X-37991804Y-48855227D01*
X-37988204Y-48879496D01*
X-37987000Y-48904000D01*
X-37987000Y-49829000D01*
X-37988204Y-49853504D01*
X-37991804Y-49877773D01*
X-37997765Y-49901571D01*
X-38006030Y-49924671D01*
X-38016520Y-49946849D01*
X-38029133Y-49967893D01*
X-38043747Y-49987598D01*
X-38060223Y-50005777D01*
X-38078402Y-50022253D01*
X-38098107Y-50036867D01*
X-38119151Y-50049480D01*
X-38141329Y-50059970D01*
X-38164429Y-50068235D01*
X-38188227Y-50074196D01*
X-38212496Y-50077796D01*
X-38237000Y-50079000D01*
X-39487000Y-50079000D01*
X-39511504Y-50077796D01*
X-39535773Y-50074196D01*
X-39559571Y-50068235D01*
X-39582671Y-50059970D01*
X-39604849Y-50049480D01*
X-39625893Y-50036867D01*
X-39645598Y-50022253D01*
X-39663777Y-50005777D01*
X-39680253Y-49987598D01*
X-39694867Y-49967893D01*
X-39707480Y-49946849D01*
X-39717970Y-49924671D01*
X-39726235Y-49901571D01*
X-39732196Y-49877773D01*
X-39735796Y-49853504D01*
X-39737000Y-49829000D01*
X-39737000Y-48904000D01*
X-39735796Y-48879496D01*
X-39732196Y-48855227D01*
X-39726235Y-48831429D01*
X-39717970Y-48808329D01*
X-39707480Y-48786151D01*
X-39694867Y-48765107D01*
X-39680253Y-48745402D01*
X-39663777Y-48727223D01*
X-39645598Y-48710747D01*
X-39625893Y-48696133D01*
X-39604849Y-48683520D01*
X-39582671Y-48673030D01*
X-39559571Y-48664765D01*
X-39535773Y-48658804D01*
X-39511504Y-48655204D01*
X-39487000Y-48654000D01*
X-38237000Y-48654000D01*
X-38212496Y-48655204D01*
X-38212496Y-48655204D01*
G37*
D16*
G04 #@! TD*
G04 #@! TO.P,C6,1*
G04 #@! TO.N,Net-(C6-Pad1)*
X-38862000Y-49366500D03*
D15*
G04 #@! TO.N,GND*
G04 #@! TO.C,C6*
G36*
X-38212496Y-45680204D02*
X-38188227Y-45683804D01*
X-38164429Y-45689765D01*
X-38141329Y-45698030D01*
X-38119151Y-45708520D01*
X-38098107Y-45721133D01*
X-38078402Y-45735747D01*
X-38060223Y-45752223D01*
X-38043747Y-45770402D01*
X-38029133Y-45790107D01*
X-38016520Y-45811151D01*
X-38006030Y-45833329D01*
X-37997765Y-45856429D01*
X-37991804Y-45880227D01*
X-37988204Y-45904496D01*
X-37987000Y-45929000D01*
X-37987000Y-46854000D01*
X-37988204Y-46878504D01*
X-37991804Y-46902773D01*
X-37997765Y-46926571D01*
X-38006030Y-46949671D01*
X-38016520Y-46971849D01*
X-38029133Y-46992893D01*
X-38043747Y-47012598D01*
X-38060223Y-47030777D01*
X-38078402Y-47047253D01*
X-38098107Y-47061867D01*
X-38119151Y-47074480D01*
X-38141329Y-47084970D01*
X-38164429Y-47093235D01*
X-38188227Y-47099196D01*
X-38212496Y-47102796D01*
X-38237000Y-47104000D01*
X-39487000Y-47104000D01*
X-39511504Y-47102796D01*
X-39535773Y-47099196D01*
X-39559571Y-47093235D01*
X-39582671Y-47084970D01*
X-39604849Y-47074480D01*
X-39625893Y-47061867D01*
X-39645598Y-47047253D01*
X-39663777Y-47030777D01*
X-39680253Y-47012598D01*
X-39694867Y-46992893D01*
X-39707480Y-46971849D01*
X-39717970Y-46949671D01*
X-39726235Y-46926571D01*
X-39732196Y-46902773D01*
X-39735796Y-46878504D01*
X-39737000Y-46854000D01*
X-39737000Y-45929000D01*
X-39735796Y-45904496D01*
X-39732196Y-45880227D01*
X-39726235Y-45856429D01*
X-39717970Y-45833329D01*
X-39707480Y-45811151D01*
X-39694867Y-45790107D01*
X-39680253Y-45770402D01*
X-39663777Y-45752223D01*
X-39645598Y-45735747D01*
X-39625893Y-45721133D01*
X-39604849Y-45708520D01*
X-39582671Y-45698030D01*
X-39559571Y-45689765D01*
X-39535773Y-45683804D01*
X-39511504Y-45680204D01*
X-39487000Y-45679000D01*
X-38237000Y-45679000D01*
X-38212496Y-45680204D01*
X-38212496Y-45680204D01*
G37*
D16*
G04 #@! TD*
G04 #@! TO.P,C6,2*
G04 #@! TO.N,GND*
X-38862000Y-46391500D03*
D15*
G04 #@! TO.N,GND*
G04 #@! TO.C,C7*
G36*
X-35850496Y-42051204D02*
X-35826227Y-42054804D01*
X-35802429Y-42060765D01*
X-35779329Y-42069030D01*
X-35757151Y-42079520D01*
X-35736107Y-42092133D01*
X-35716402Y-42106747D01*
X-35698223Y-42123223D01*
X-35681747Y-42141402D01*
X-35667133Y-42161107D01*
X-35654520Y-42182151D01*
X-35644030Y-42204329D01*
X-35635765Y-42227429D01*
X-35629804Y-42251227D01*
X-35626204Y-42275496D01*
X-35625000Y-42300000D01*
X-35625000Y-43225000D01*
X-35626204Y-43249504D01*
X-35629804Y-43273773D01*
X-35635765Y-43297571D01*
X-35644030Y-43320671D01*
X-35654520Y-43342849D01*
X-35667133Y-43363893D01*
X-35681747Y-43383598D01*
X-35698223Y-43401777D01*
X-35716402Y-43418253D01*
X-35736107Y-43432867D01*
X-35757151Y-43445480D01*
X-35779329Y-43455970D01*
X-35802429Y-43464235D01*
X-35826227Y-43470196D01*
X-35850496Y-43473796D01*
X-35875000Y-43475000D01*
X-37125000Y-43475000D01*
X-37149504Y-43473796D01*
X-37173773Y-43470196D01*
X-37197571Y-43464235D01*
X-37220671Y-43455970D01*
X-37242849Y-43445480D01*
X-37263893Y-43432867D01*
X-37283598Y-43418253D01*
X-37301777Y-43401777D01*
X-37318253Y-43383598D01*
X-37332867Y-43363893D01*
X-37345480Y-43342849D01*
X-37355970Y-43320671D01*
X-37364235Y-43297571D01*
X-37370196Y-43273773D01*
X-37373796Y-43249504D01*
X-37375000Y-43225000D01*
X-37375000Y-42300000D01*
X-37373796Y-42275496D01*
X-37370196Y-42251227D01*
X-37364235Y-42227429D01*
X-37355970Y-42204329D01*
X-37345480Y-42182151D01*
X-37332867Y-42161107D01*
X-37318253Y-42141402D01*
X-37301777Y-42123223D01*
X-37283598Y-42106747D01*
X-37263893Y-42092133D01*
X-37242849Y-42079520D01*
X-37220671Y-42069030D01*
X-37197571Y-42060765D01*
X-37173773Y-42054804D01*
X-37149504Y-42051204D01*
X-37125000Y-42050000D01*
X-35875000Y-42050000D01*
X-35850496Y-42051204D01*
X-35850496Y-42051204D01*
G37*
D16*
G04 #@! TD*
G04 #@! TO.P,C7,2*
G04 #@! TO.N,GND*
X-36500000Y-42762500D03*
D15*
G04 #@! TO.N,Net-(C7-Pad1)*
G04 #@! TO.C,C7*
G36*
X-35850496Y-39076204D02*
X-35826227Y-39079804D01*
X-35802429Y-39085765D01*
X-35779329Y-39094030D01*
X-35757151Y-39104520D01*
X-35736107Y-39117133D01*
X-35716402Y-39131747D01*
X-35698223Y-39148223D01*
X-35681747Y-39166402D01*
X-35667133Y-39186107D01*
X-35654520Y-39207151D01*
X-35644030Y-39229329D01*
X-35635765Y-39252429D01*
X-35629804Y-39276227D01*
X-35626204Y-39300496D01*
X-35625000Y-39325000D01*
X-35625000Y-40250000D01*
X-35626204Y-40274504D01*
X-35629804Y-40298773D01*
X-35635765Y-40322571D01*
X-35644030Y-40345671D01*
X-35654520Y-40367849D01*
X-35667133Y-40388893D01*
X-35681747Y-40408598D01*
X-35698223Y-40426777D01*
X-35716402Y-40443253D01*
X-35736107Y-40457867D01*
X-35757151Y-40470480D01*
X-35779329Y-40480970D01*
X-35802429Y-40489235D01*
X-35826227Y-40495196D01*
X-35850496Y-40498796D01*
X-35875000Y-40500000D01*
X-37125000Y-40500000D01*
X-37149504Y-40498796D01*
X-37173773Y-40495196D01*
X-37197571Y-40489235D01*
X-37220671Y-40480970D01*
X-37242849Y-40470480D01*
X-37263893Y-40457867D01*
X-37283598Y-40443253D01*
X-37301777Y-40426777D01*
X-37318253Y-40408598D01*
X-37332867Y-40388893D01*
X-37345480Y-40367849D01*
X-37355970Y-40345671D01*
X-37364235Y-40322571D01*
X-37370196Y-40298773D01*
X-37373796Y-40274504D01*
X-37375000Y-40250000D01*
X-37375000Y-39325000D01*
X-37373796Y-39300496D01*
X-37370196Y-39276227D01*
X-37364235Y-39252429D01*
X-37355970Y-39229329D01*
X-37345480Y-39207151D01*
X-37332867Y-39186107D01*
X-37318253Y-39166402D01*
X-37301777Y-39148223D01*
X-37283598Y-39131747D01*
X-37263893Y-39117133D01*
X-37242849Y-39104520D01*
X-37220671Y-39094030D01*
X-37197571Y-39085765D01*
X-37173773Y-39079804D01*
X-37149504Y-39076204D01*
X-37125000Y-39075000D01*
X-35875000Y-39075000D01*
X-35850496Y-39076204D01*
X-35850496Y-39076204D01*
G37*
D16*
G04 #@! TD*
G04 #@! TO.P,C7,1*
G04 #@! TO.N,Net-(C7-Pad1)*
X-36500000Y-39787500D03*
D15*
G04 #@! TO.N,Net-(C8-Pad1)*
G04 #@! TO.C,C8*
G36*
X-37958496Y-34050204D02*
X-37934227Y-34053804D01*
X-37910429Y-34059765D01*
X-37887329Y-34068030D01*
X-37865151Y-34078520D01*
X-37844107Y-34091133D01*
X-37824402Y-34105747D01*
X-37806223Y-34122223D01*
X-37789747Y-34140402D01*
X-37775133Y-34160107D01*
X-37762520Y-34181151D01*
X-37752030Y-34203329D01*
X-37743765Y-34226429D01*
X-37737804Y-34250227D01*
X-37734204Y-34274496D01*
X-37733000Y-34299000D01*
X-37733000Y-35224000D01*
X-37734204Y-35248504D01*
X-37737804Y-35272773D01*
X-37743765Y-35296571D01*
X-37752030Y-35319671D01*
X-37762520Y-35341849D01*
X-37775133Y-35362893D01*
X-37789747Y-35382598D01*
X-37806223Y-35400777D01*
X-37824402Y-35417253D01*
X-37844107Y-35431867D01*
X-37865151Y-35444480D01*
X-37887329Y-35454970D01*
X-37910429Y-35463235D01*
X-37934227Y-35469196D01*
X-37958496Y-35472796D01*
X-37983000Y-35474000D01*
X-39233000Y-35474000D01*
X-39257504Y-35472796D01*
X-39281773Y-35469196D01*
X-39305571Y-35463235D01*
X-39328671Y-35454970D01*
X-39350849Y-35444480D01*
X-39371893Y-35431867D01*
X-39391598Y-35417253D01*
X-39409777Y-35400777D01*
X-39426253Y-35382598D01*
X-39440867Y-35362893D01*
X-39453480Y-35341849D01*
X-39463970Y-35319671D01*
X-39472235Y-35296571D01*
X-39478196Y-35272773D01*
X-39481796Y-35248504D01*
X-39483000Y-35224000D01*
X-39483000Y-34299000D01*
X-39481796Y-34274496D01*
X-39478196Y-34250227D01*
X-39472235Y-34226429D01*
X-39463970Y-34203329D01*
X-39453480Y-34181151D01*
X-39440867Y-34160107D01*
X-39426253Y-34140402D01*
X-39409777Y-34122223D01*
X-39391598Y-34105747D01*
X-39371893Y-34091133D01*
X-39350849Y-34078520D01*
X-39328671Y-34068030D01*
X-39305571Y-34059765D01*
X-39281773Y-34053804D01*
X-39257504Y-34050204D01*
X-39233000Y-34049000D01*
X-37983000Y-34049000D01*
X-37958496Y-34050204D01*
X-37958496Y-34050204D01*
G37*
D16*
G04 #@! TD*
G04 #@! TO.P,C8,1*
G04 #@! TO.N,Net-(C8-Pad1)*
X-38608000Y-34761500D03*
D15*
G04 #@! TO.N,GND*
G04 #@! TO.C,C8*
G36*
X-37958496Y-31075204D02*
X-37934227Y-31078804D01*
X-37910429Y-31084765D01*
X-37887329Y-31093030D01*
X-37865151Y-31103520D01*
X-37844107Y-31116133D01*
X-37824402Y-31130747D01*
X-37806223Y-31147223D01*
X-37789747Y-31165402D01*
X-37775133Y-31185107D01*
X-37762520Y-31206151D01*
X-37752030Y-31228329D01*
X-37743765Y-31251429D01*
X-37737804Y-31275227D01*
X-37734204Y-31299496D01*
X-37733000Y-31324000D01*
X-37733000Y-32249000D01*
X-37734204Y-32273504D01*
X-37737804Y-32297773D01*
X-37743765Y-32321571D01*
X-37752030Y-32344671D01*
X-37762520Y-32366849D01*
X-37775133Y-32387893D01*
X-37789747Y-32407598D01*
X-37806223Y-32425777D01*
X-37824402Y-32442253D01*
X-37844107Y-32456867D01*
X-37865151Y-32469480D01*
X-37887329Y-32479970D01*
X-37910429Y-32488235D01*
X-37934227Y-32494196D01*
X-37958496Y-32497796D01*
X-37983000Y-32499000D01*
X-39233000Y-32499000D01*
X-39257504Y-32497796D01*
X-39281773Y-32494196D01*
X-39305571Y-32488235D01*
X-39328671Y-32479970D01*
X-39350849Y-32469480D01*
X-39371893Y-32456867D01*
X-39391598Y-32442253D01*
X-39409777Y-32425777D01*
X-39426253Y-32407598D01*
X-39440867Y-32387893D01*
X-39453480Y-32366849D01*
X-39463970Y-32344671D01*
X-39472235Y-32321571D01*
X-39478196Y-32297773D01*
X-39481796Y-32273504D01*
X-39483000Y-32249000D01*
X-39483000Y-31324000D01*
X-39481796Y-31299496D01*
X-39478196Y-31275227D01*
X-39472235Y-31251429D01*
X-39463970Y-31228329D01*
X-39453480Y-31206151D01*
X-39440867Y-31185107D01*
X-39426253Y-31165402D01*
X-39409777Y-31147223D01*
X-39391598Y-31130747D01*
X-39371893Y-31116133D01*
X-39350849Y-31103520D01*
X-39328671Y-31093030D01*
X-39305571Y-31084765D01*
X-39281773Y-31078804D01*
X-39257504Y-31075204D01*
X-39233000Y-31074000D01*
X-37983000Y-31074000D01*
X-37958496Y-31075204D01*
X-37958496Y-31075204D01*
G37*
D16*
G04 #@! TD*
G04 #@! TO.P,C8,2*
G04 #@! TO.N,GND*
X-38608000Y-31786500D03*
D15*
G04 #@! TO.N,GND*
G04 #@! TO.C,C9*
G36*
X-36561496Y-27192204D02*
X-36537227Y-27195804D01*
X-36513429Y-27201765D01*
X-36490329Y-27210030D01*
X-36468151Y-27220520D01*
X-36447107Y-27233133D01*
X-36427402Y-27247747D01*
X-36409223Y-27264223D01*
X-36392747Y-27282402D01*
X-36378133Y-27302107D01*
X-36365520Y-27323151D01*
X-36355030Y-27345329D01*
X-36346765Y-27368429D01*
X-36340804Y-27392227D01*
X-36337204Y-27416496D01*
X-36336000Y-27441000D01*
X-36336000Y-28366000D01*
X-36337204Y-28390504D01*
X-36340804Y-28414773D01*
X-36346765Y-28438571D01*
X-36355030Y-28461671D01*
X-36365520Y-28483849D01*
X-36378133Y-28504893D01*
X-36392747Y-28524598D01*
X-36409223Y-28542777D01*
X-36427402Y-28559253D01*
X-36447107Y-28573867D01*
X-36468151Y-28586480D01*
X-36490329Y-28596970D01*
X-36513429Y-28605235D01*
X-36537227Y-28611196D01*
X-36561496Y-28614796D01*
X-36586000Y-28616000D01*
X-37836000Y-28616000D01*
X-37860504Y-28614796D01*
X-37884773Y-28611196D01*
X-37908571Y-28605235D01*
X-37931671Y-28596970D01*
X-37953849Y-28586480D01*
X-37974893Y-28573867D01*
X-37994598Y-28559253D01*
X-38012777Y-28542777D01*
X-38029253Y-28524598D01*
X-38043867Y-28504893D01*
X-38056480Y-28483849D01*
X-38066970Y-28461671D01*
X-38075235Y-28438571D01*
X-38081196Y-28414773D01*
X-38084796Y-28390504D01*
X-38086000Y-28366000D01*
X-38086000Y-27441000D01*
X-38084796Y-27416496D01*
X-38081196Y-27392227D01*
X-38075235Y-27368429D01*
X-38066970Y-27345329D01*
X-38056480Y-27323151D01*
X-38043867Y-27302107D01*
X-38029253Y-27282402D01*
X-38012777Y-27264223D01*
X-37994598Y-27247747D01*
X-37974893Y-27233133D01*
X-37953849Y-27220520D01*
X-37931671Y-27210030D01*
X-37908571Y-27201765D01*
X-37884773Y-27195804D01*
X-37860504Y-27192204D01*
X-37836000Y-27191000D01*
X-36586000Y-27191000D01*
X-36561496Y-27192204D01*
X-36561496Y-27192204D01*
G37*
D16*
G04 #@! TD*
G04 #@! TO.P,C9,2*
G04 #@! TO.N,GND*
X-37211000Y-27903500D03*
D15*
G04 #@! TO.N,Net-(C9-Pad1)*
G04 #@! TO.C,C9*
G36*
X-36561496Y-24217204D02*
X-36537227Y-24220804D01*
X-36513429Y-24226765D01*
X-36490329Y-24235030D01*
X-36468151Y-24245520D01*
X-36447107Y-24258133D01*
X-36427402Y-24272747D01*
X-36409223Y-24289223D01*
X-36392747Y-24307402D01*
X-36378133Y-24327107D01*
X-36365520Y-24348151D01*
X-36355030Y-24370329D01*
X-36346765Y-24393429D01*
X-36340804Y-24417227D01*
X-36337204Y-24441496D01*
X-36336000Y-24466000D01*
X-36336000Y-25391000D01*
X-36337204Y-25415504D01*
X-36340804Y-25439773D01*
X-36346765Y-25463571D01*
X-36355030Y-25486671D01*
X-36365520Y-25508849D01*
X-36378133Y-25529893D01*
X-36392747Y-25549598D01*
X-36409223Y-25567777D01*
X-36427402Y-25584253D01*
X-36447107Y-25598867D01*
X-36468151Y-25611480D01*
X-36490329Y-25621970D01*
X-36513429Y-25630235D01*
X-36537227Y-25636196D01*
X-36561496Y-25639796D01*
X-36586000Y-25641000D01*
X-37836000Y-25641000D01*
X-37860504Y-25639796D01*
X-37884773Y-25636196D01*
X-37908571Y-25630235D01*
X-37931671Y-25621970D01*
X-37953849Y-25611480D01*
X-37974893Y-25598867D01*
X-37994598Y-25584253D01*
X-38012777Y-25567777D01*
X-38029253Y-25549598D01*
X-38043867Y-25529893D01*
X-38056480Y-25508849D01*
X-38066970Y-25486671D01*
X-38075235Y-25463571D01*
X-38081196Y-25439773D01*
X-38084796Y-25415504D01*
X-38086000Y-25391000D01*
X-38086000Y-24466000D01*
X-38084796Y-24441496D01*
X-38081196Y-24417227D01*
X-38075235Y-24393429D01*
X-38066970Y-24370329D01*
X-38056480Y-24348151D01*
X-38043867Y-24327107D01*
X-38029253Y-24307402D01*
X-38012777Y-24289223D01*
X-37994598Y-24272747D01*
X-37974893Y-24258133D01*
X-37953849Y-24245520D01*
X-37931671Y-24235030D01*
X-37908571Y-24226765D01*
X-37884773Y-24220804D01*
X-37860504Y-24217204D01*
X-37836000Y-24216000D01*
X-36586000Y-24216000D01*
X-36561496Y-24217204D01*
X-36561496Y-24217204D01*
G37*
D16*
G04 #@! TD*
G04 #@! TO.P,C9,1*
G04 #@! TO.N,Net-(C9-Pad1)*
X-37211000Y-24928500D03*
D15*
G04 #@! TO.N,Net-(C10-Pad1)*
G04 #@! TO.C,C10*
G36*
X-37831496Y-19826204D02*
X-37807227Y-19829804D01*
X-37783429Y-19835765D01*
X-37760329Y-19844030D01*
X-37738151Y-19854520D01*
X-37717107Y-19867133D01*
X-37697402Y-19881747D01*
X-37679223Y-19898223D01*
X-37662747Y-19916402D01*
X-37648133Y-19936107D01*
X-37635520Y-19957151D01*
X-37625030Y-19979329D01*
X-37616765Y-20002429D01*
X-37610804Y-20026227D01*
X-37607204Y-20050496D01*
X-37606000Y-20075000D01*
X-37606000Y-21000000D01*
X-37607204Y-21024504D01*
X-37610804Y-21048773D01*
X-37616765Y-21072571D01*
X-37625030Y-21095671D01*
X-37635520Y-21117849D01*
X-37648133Y-21138893D01*
X-37662747Y-21158598D01*
X-37679223Y-21176777D01*
X-37697402Y-21193253D01*
X-37717107Y-21207867D01*
X-37738151Y-21220480D01*
X-37760329Y-21230970D01*
X-37783429Y-21239235D01*
X-37807227Y-21245196D01*
X-37831496Y-21248796D01*
X-37856000Y-21250000D01*
X-39106000Y-21250000D01*
X-39130504Y-21248796D01*
X-39154773Y-21245196D01*
X-39178571Y-21239235D01*
X-39201671Y-21230970D01*
X-39223849Y-21220480D01*
X-39244893Y-21207867D01*
X-39264598Y-21193253D01*
X-39282777Y-21176777D01*
X-39299253Y-21158598D01*
X-39313867Y-21138893D01*
X-39326480Y-21117849D01*
X-39336970Y-21095671D01*
X-39345235Y-21072571D01*
X-39351196Y-21048773D01*
X-39354796Y-21024504D01*
X-39356000Y-21000000D01*
X-39356000Y-20075000D01*
X-39354796Y-20050496D01*
X-39351196Y-20026227D01*
X-39345235Y-20002429D01*
X-39336970Y-19979329D01*
X-39326480Y-19957151D01*
X-39313867Y-19936107D01*
X-39299253Y-19916402D01*
X-39282777Y-19898223D01*
X-39264598Y-19881747D01*
X-39244893Y-19867133D01*
X-39223849Y-19854520D01*
X-39201671Y-19844030D01*
X-39178571Y-19835765D01*
X-39154773Y-19829804D01*
X-39130504Y-19826204D01*
X-39106000Y-19825000D01*
X-37856000Y-19825000D01*
X-37831496Y-19826204D01*
X-37831496Y-19826204D01*
G37*
D16*
G04 #@! TD*
G04 #@! TO.P,C10,1*
G04 #@! TO.N,Net-(C10-Pad1)*
X-38481000Y-20537500D03*
D15*
G04 #@! TO.N,GND*
G04 #@! TO.C,C10*
G36*
X-37831496Y-16851204D02*
X-37807227Y-16854804D01*
X-37783429Y-16860765D01*
X-37760329Y-16869030D01*
X-37738151Y-16879520D01*
X-37717107Y-16892133D01*
X-37697402Y-16906747D01*
X-37679223Y-16923223D01*
X-37662747Y-16941402D01*
X-37648133Y-16961107D01*
X-37635520Y-16982151D01*
X-37625030Y-17004329D01*
X-37616765Y-17027429D01*
X-37610804Y-17051227D01*
X-37607204Y-17075496D01*
X-37606000Y-17100000D01*
X-37606000Y-18025000D01*
X-37607204Y-18049504D01*
X-37610804Y-18073773D01*
X-37616765Y-18097571D01*
X-37625030Y-18120671D01*
X-37635520Y-18142849D01*
X-37648133Y-18163893D01*
X-37662747Y-18183598D01*
X-37679223Y-18201777D01*
X-37697402Y-18218253D01*
X-37717107Y-18232867D01*
X-37738151Y-18245480D01*
X-37760329Y-18255970D01*
X-37783429Y-18264235D01*
X-37807227Y-18270196D01*
X-37831496Y-18273796D01*
X-37856000Y-18275000D01*
X-39106000Y-18275000D01*
X-39130504Y-18273796D01*
X-39154773Y-18270196D01*
X-39178571Y-18264235D01*
X-39201671Y-18255970D01*
X-39223849Y-18245480D01*
X-39244893Y-18232867D01*
X-39264598Y-18218253D01*
X-39282777Y-18201777D01*
X-39299253Y-18183598D01*
X-39313867Y-18163893D01*
X-39326480Y-18142849D01*
X-39336970Y-18120671D01*
X-39345235Y-18097571D01*
X-39351196Y-18073773D01*
X-39354796Y-18049504D01*
X-39356000Y-18025000D01*
X-39356000Y-17100000D01*
X-39354796Y-17075496D01*
X-39351196Y-17051227D01*
X-39345235Y-17027429D01*
X-39336970Y-17004329D01*
X-39326480Y-16982151D01*
X-39313867Y-16961107D01*
X-39299253Y-16941402D01*
X-39282777Y-16923223D01*
X-39264598Y-16906747D01*
X-39244893Y-16892133D01*
X-39223849Y-16879520D01*
X-39201671Y-16869030D01*
X-39178571Y-16860765D01*
X-39154773Y-16854804D01*
X-39130504Y-16851204D01*
X-39106000Y-16850000D01*
X-37856000Y-16850000D01*
X-37831496Y-16851204D01*
X-37831496Y-16851204D01*
G37*
D16*
G04 #@! TD*
G04 #@! TO.P,C10,2*
G04 #@! TO.N,GND*
X-38481000Y-17562500D03*
D15*
G04 #@! TO.N,GND*
G04 #@! TO.C,C11*
G36*
X-35164496Y-12587204D02*
X-35140227Y-12590804D01*
X-35116429Y-12596765D01*
X-35093329Y-12605030D01*
X-35071151Y-12615520D01*
X-35050107Y-12628133D01*
X-35030402Y-12642747D01*
X-35012223Y-12659223D01*
X-34995747Y-12677402D01*
X-34981133Y-12697107D01*
X-34968520Y-12718151D01*
X-34958030Y-12740329D01*
X-34949765Y-12763429D01*
X-34943804Y-12787227D01*
X-34940204Y-12811496D01*
X-34939000Y-12836000D01*
X-34939000Y-13761000D01*
X-34940204Y-13785504D01*
X-34943804Y-13809773D01*
X-34949765Y-13833571D01*
X-34958030Y-13856671D01*
X-34968520Y-13878849D01*
X-34981133Y-13899893D01*
X-34995747Y-13919598D01*
X-35012223Y-13937777D01*
X-35030402Y-13954253D01*
X-35050107Y-13968867D01*
X-35071151Y-13981480D01*
X-35093329Y-13991970D01*
X-35116429Y-14000235D01*
X-35140227Y-14006196D01*
X-35164496Y-14009796D01*
X-35189000Y-14011000D01*
X-36439000Y-14011000D01*
X-36463504Y-14009796D01*
X-36487773Y-14006196D01*
X-36511571Y-14000235D01*
X-36534671Y-13991970D01*
X-36556849Y-13981480D01*
X-36577893Y-13968867D01*
X-36597598Y-13954253D01*
X-36615777Y-13937777D01*
X-36632253Y-13919598D01*
X-36646867Y-13899893D01*
X-36659480Y-13878849D01*
X-36669970Y-13856671D01*
X-36678235Y-13833571D01*
X-36684196Y-13809773D01*
X-36687796Y-13785504D01*
X-36689000Y-13761000D01*
X-36689000Y-12836000D01*
X-36687796Y-12811496D01*
X-36684196Y-12787227D01*
X-36678235Y-12763429D01*
X-36669970Y-12740329D01*
X-36659480Y-12718151D01*
X-36646867Y-12697107D01*
X-36632253Y-12677402D01*
X-36615777Y-12659223D01*
X-36597598Y-12642747D01*
X-36577893Y-12628133D01*
X-36556849Y-12615520D01*
X-36534671Y-12605030D01*
X-36511571Y-12596765D01*
X-36487773Y-12590804D01*
X-36463504Y-12587204D01*
X-36439000Y-12586000D01*
X-35189000Y-12586000D01*
X-35164496Y-12587204D01*
X-35164496Y-12587204D01*
G37*
D16*
G04 #@! TD*
G04 #@! TO.P,C11,2*
G04 #@! TO.N,GND*
X-35814000Y-13298500D03*
D15*
G04 #@! TO.N,Net-(C11-Pad1)*
G04 #@! TO.C,C11*
G36*
X-35164496Y-9612204D02*
X-35140227Y-9615804D01*
X-35116429Y-9621765D01*
X-35093329Y-9630030D01*
X-35071151Y-9640520D01*
X-35050107Y-9653133D01*
X-35030402Y-9667747D01*
X-35012223Y-9684223D01*
X-34995747Y-9702402D01*
X-34981133Y-9722107D01*
X-34968520Y-9743151D01*
X-34958030Y-9765329D01*
X-34949765Y-9788429D01*
X-34943804Y-9812227D01*
X-34940204Y-9836496D01*
X-34939000Y-9861000D01*
X-34939000Y-10786000D01*
X-34940204Y-10810504D01*
X-34943804Y-10834773D01*
X-34949765Y-10858571D01*
X-34958030Y-10881671D01*
X-34968520Y-10903849D01*
X-34981133Y-10924893D01*
X-34995747Y-10944598D01*
X-35012223Y-10962777D01*
X-35030402Y-10979253D01*
X-35050107Y-10993867D01*
X-35071151Y-11006480D01*
X-35093329Y-11016970D01*
X-35116429Y-11025235D01*
X-35140227Y-11031196D01*
X-35164496Y-11034796D01*
X-35189000Y-11036000D01*
X-36439000Y-11036000D01*
X-36463504Y-11034796D01*
X-36487773Y-11031196D01*
X-36511571Y-11025235D01*
X-36534671Y-11016970D01*
X-36556849Y-11006480D01*
X-36577893Y-10993867D01*
X-36597598Y-10979253D01*
X-36615777Y-10962777D01*
X-36632253Y-10944598D01*
X-36646867Y-10924893D01*
X-36659480Y-10903849D01*
X-36669970Y-10881671D01*
X-36678235Y-10858571D01*
X-36684196Y-10834773D01*
X-36687796Y-10810504D01*
X-36689000Y-10786000D01*
X-36689000Y-9861000D01*
X-36687796Y-9836496D01*
X-36684196Y-9812227D01*
X-36678235Y-9788429D01*
X-36669970Y-9765329D01*
X-36659480Y-9743151D01*
X-36646867Y-9722107D01*
X-36632253Y-9702402D01*
X-36615777Y-9684223D01*
X-36597598Y-9667747D01*
X-36577893Y-9653133D01*
X-36556849Y-9640520D01*
X-36534671Y-9630030D01*
X-36511571Y-9621765D01*
X-36487773Y-9615804D01*
X-36463504Y-9612204D01*
X-36439000Y-9611000D01*
X-35189000Y-9611000D01*
X-35164496Y-9612204D01*
X-35164496Y-9612204D01*
G37*
D16*
G04 #@! TD*
G04 #@! TO.P,C11,1*
G04 #@! TO.N,Net-(C11-Pad1)*
X-35814000Y-10323500D03*
D15*
G04 #@! TO.N,Net-(C12-Pad1)*
G04 #@! TO.C,C12*
G36*
X-38212496Y-3951204D02*
X-38188227Y-3954804D01*
X-38164429Y-3960765D01*
X-38141329Y-3969030D01*
X-38119151Y-3979520D01*
X-38098107Y-3992133D01*
X-38078402Y-4006747D01*
X-38060223Y-4023223D01*
X-38043747Y-4041402D01*
X-38029133Y-4061107D01*
X-38016520Y-4082151D01*
X-38006030Y-4104329D01*
X-37997765Y-4127429D01*
X-37991804Y-4151227D01*
X-37988204Y-4175496D01*
X-37987000Y-4200000D01*
X-37987000Y-5125000D01*
X-37988204Y-5149504D01*
X-37991804Y-5173773D01*
X-37997765Y-5197571D01*
X-38006030Y-5220671D01*
X-38016520Y-5242849D01*
X-38029133Y-5263893D01*
X-38043747Y-5283598D01*
X-38060223Y-5301777D01*
X-38078402Y-5318253D01*
X-38098107Y-5332867D01*
X-38119151Y-5345480D01*
X-38141329Y-5355970D01*
X-38164429Y-5364235D01*
X-38188227Y-5370196D01*
X-38212496Y-5373796D01*
X-38237000Y-5375000D01*
X-39487000Y-5375000D01*
X-39511504Y-5373796D01*
X-39535773Y-5370196D01*
X-39559571Y-5364235D01*
X-39582671Y-5355970D01*
X-39604849Y-5345480D01*
X-39625893Y-5332867D01*
X-39645598Y-5318253D01*
X-39663777Y-5301777D01*
X-39680253Y-5283598D01*
X-39694867Y-5263893D01*
X-39707480Y-5242849D01*
X-39717970Y-5220671D01*
X-39726235Y-5197571D01*
X-39732196Y-5173773D01*
X-39735796Y-5149504D01*
X-39737000Y-5125000D01*
X-39737000Y-4200000D01*
X-39735796Y-4175496D01*
X-39732196Y-4151227D01*
X-39726235Y-4127429D01*
X-39717970Y-4104329D01*
X-39707480Y-4082151D01*
X-39694867Y-4061107D01*
X-39680253Y-4041402D01*
X-39663777Y-4023223D01*
X-39645598Y-4006747D01*
X-39625893Y-3992133D01*
X-39604849Y-3979520D01*
X-39582671Y-3969030D01*
X-39559571Y-3960765D01*
X-39535773Y-3954804D01*
X-39511504Y-3951204D01*
X-39487000Y-3950000D01*
X-38237000Y-3950000D01*
X-38212496Y-3951204D01*
X-38212496Y-3951204D01*
G37*
D16*
G04 #@! TD*
G04 #@! TO.P,C12,1*
G04 #@! TO.N,Net-(C12-Pad1)*
X-38862000Y-4662500D03*
D15*
G04 #@! TO.N,GND*
G04 #@! TO.C,C12*
G36*
X-38212496Y-976204D02*
X-38188227Y-979804D01*
X-38164429Y-985765D01*
X-38141329Y-994030D01*
X-38119151Y-1004520D01*
X-38098107Y-1017133D01*
X-38078402Y-1031747D01*
X-38060223Y-1048223D01*
X-38043747Y-1066402D01*
X-38029133Y-1086107D01*
X-38016520Y-1107151D01*
X-38006030Y-1129329D01*
X-37997765Y-1152429D01*
X-37991804Y-1176227D01*
X-37988204Y-1200496D01*
X-37987000Y-1225000D01*
X-37987000Y-2150000D01*
X-37988204Y-2174504D01*
X-37991804Y-2198773D01*
X-37997765Y-2222571D01*
X-38006030Y-2245671D01*
X-38016520Y-2267849D01*
X-38029133Y-2288893D01*
X-38043747Y-2308598D01*
X-38060223Y-2326777D01*
X-38078402Y-2343253D01*
X-38098107Y-2357867D01*
X-38119151Y-2370480D01*
X-38141329Y-2380970D01*
X-38164429Y-2389235D01*
X-38188227Y-2395196D01*
X-38212496Y-2398796D01*
X-38237000Y-2400000D01*
X-39487000Y-2400000D01*
X-39511504Y-2398796D01*
X-39535773Y-2395196D01*
X-39559571Y-2389235D01*
X-39582671Y-2380970D01*
X-39604849Y-2370480D01*
X-39625893Y-2357867D01*
X-39645598Y-2343253D01*
X-39663777Y-2326777D01*
X-39680253Y-2308598D01*
X-39694867Y-2288893D01*
X-39707480Y-2267849D01*
X-39717970Y-2245671D01*
X-39726235Y-2222571D01*
X-39732196Y-2198773D01*
X-39735796Y-2174504D01*
X-39737000Y-2150000D01*
X-39737000Y-1225000D01*
X-39735796Y-1200496D01*
X-39732196Y-1176227D01*
X-39726235Y-1152429D01*
X-39717970Y-1129329D01*
X-39707480Y-1107151D01*
X-39694867Y-1086107D01*
X-39680253Y-1066402D01*
X-39663777Y-1048223D01*
X-39645598Y-1031747D01*
X-39625893Y-1017133D01*
X-39604849Y-1004520D01*
X-39582671Y-994030D01*
X-39559571Y-985765D01*
X-39535773Y-979804D01*
X-39511504Y-976204D01*
X-39487000Y-975000D01*
X-38237000Y-975000D01*
X-38212496Y-976204D01*
X-38212496Y-976204D01*
G37*
D16*
G04 #@! TD*
G04 #@! TO.P,C12,2*
G04 #@! TO.N,GND*
X-38862000Y-1687500D03*
D17*
G04 #@! TO.P,R3,1*
G04 #@! TO.N,/J1_DATA*
X-29000000Y-52312000D03*
G04 #@! TO.P,R3,2*
G04 #@! TO.N,Net-(J1-Pad2)*
X-33000000Y-52312000D03*
G04 #@! TD*
G04 #@! TO.P,R6,1*
G04 #@! TO.N,/J2_DATA*
X-28500000Y-36750000D03*
G04 #@! TO.P,R6,2*
G04 #@! TO.N,Net-(J2-Pad2)*
X-32500000Y-36750000D03*
G04 #@! TD*
G04 #@! TO.P,R9,1*
G04 #@! TO.N,/J3_DATA*
X-28480000Y-22750000D03*
G04 #@! TO.P,R9,2*
G04 #@! TO.N,Net-(J3-Pad2)*
X-32480000Y-22750000D03*
G04 #@! TD*
G04 #@! TO.P,R12,1*
G04 #@! TO.N,/C_DATA*
X-27500000Y-8250000D03*
G04 #@! TO.P,R12,2*
G04 #@! TO.N,Net-(J4-Pad2)*
X-31500000Y-8250000D03*
G04 #@! TD*
G04 #@! TO.P,R2,1*
G04 #@! TO.N,/J1_LOAD*
X-29000000Y-56000000D03*
G04 #@! TO.P,R2,2*
G04 #@! TO.N,Net-(C5-Pad1)*
X-33000000Y-56000000D03*
G04 #@! TD*
G04 #@! TO.P,R5,1*
G04 #@! TO.N,/J2_LOAD*
X-28500000Y-40500000D03*
G04 #@! TO.P,R5,2*
G04 #@! TO.N,Net-(C7-Pad1)*
X-32500000Y-40500000D03*
G04 #@! TD*
G04 #@! TO.P,R8,1*
G04 #@! TO.N,/J3_LOAD*
X-28500000Y-26500000D03*
G04 #@! TO.P,R8,2*
G04 #@! TO.N,Net-(C9-Pad1)*
X-32500000Y-26500000D03*
G04 #@! TD*
G04 #@! TO.P,R11,1*
G04 #@! TO.N,/C_LOAD*
X-27500000Y-12000000D03*
G04 #@! TO.P,R11,2*
G04 #@! TO.N,Net-(C11-Pad1)*
X-31500000Y-12000000D03*
G04 #@! TD*
G04 #@! TO.P,R1,1*
G04 #@! TO.N,Net-(R1-Pad1)*
X-31000000Y-49250000D03*
G04 #@! TO.P,R1,2*
G04 #@! TO.N,Net-(C6-Pad1)*
X-35000000Y-49250000D03*
G04 #@! TD*
G04 #@! TO.P,R4,1*
G04 #@! TO.N,Net-(R4-Pad1)*
X-30500000Y-33655000D03*
G04 #@! TO.P,R4,2*
G04 #@! TO.N,Net-(C8-Pad1)*
X-34500000Y-33655000D03*
G04 #@! TD*
G04 #@! TO.P,R7,1*
G04 #@! TO.N,Net-(R7-Pad1)*
X-30500000Y-20000000D03*
G04 #@! TO.P,R7,2*
G04 #@! TO.N,Net-(C10-Pad1)*
X-34500000Y-20000000D03*
G04 #@! TD*
G04 #@! TO.P,R10,1*
G04 #@! TO.N,Net-(R10-Pad1)*
X-29750000Y-4064000D03*
G04 #@! TO.P,R10,2*
G04 #@! TO.N,Net-(C12-Pad1)*
X-33750000Y-4064000D03*
G04 #@! TD*
D18*
G04 #@! TO.P,U1,1*
G04 #@! TO.N,Net-(U1-Pad1)*
X-17656000Y-57338000D03*
G04 #@! TO.P,U1,2*
G04 #@! TO.N,/J1_CLK*
X-17656000Y-56388000D03*
G04 #@! TO.P,U1,3*
G04 #@! TO.N,GND*
X-17656000Y-55438000D03*
G04 #@! TO.P,U1,4*
G04 #@! TO.N,Net-(R1-Pad1)*
X-20356000Y-55438000D03*
G04 #@! TO.P,U1,5*
G04 #@! TO.N,+5V*
X-20356000Y-57338000D03*
G04 #@! TD*
G04 #@! TO.P,U4,1*
G04 #@! TO.N,Net-(U4-Pad1)*
X-16938000Y-13142000D03*
G04 #@! TO.P,U4,2*
G04 #@! TO.N,/C_CLK*
X-16938000Y-12192000D03*
G04 #@! TO.P,U4,3*
G04 #@! TO.N,GND*
X-16938000Y-11242000D03*
G04 #@! TO.P,U4,4*
G04 #@! TO.N,Net-(R10-Pad1)*
X-19638000Y-11242000D03*
G04 #@! TO.P,U4,5*
G04 #@! TO.N,+5V*
X-19638000Y-13142000D03*
G04 #@! TD*
G04 #@! TO.P,U3,1*
G04 #@! TO.N,Net-(U3-Pad1)*
X-18164000Y-27874000D03*
G04 #@! TO.P,U3,2*
G04 #@! TO.N,/J3_CLK*
X-18164000Y-26924000D03*
G04 #@! TO.P,U3,3*
G04 #@! TO.N,GND*
X-18164000Y-25974000D03*
G04 #@! TO.P,U3,4*
G04 #@! TO.N,Net-(R7-Pad1)*
X-20864000Y-25974000D03*
G04 #@! TO.P,U3,5*
G04 #@! TO.N,+5V*
X-20864000Y-27874000D03*
G04 #@! TD*
G04 #@! TO.P,U2,1*
G04 #@! TO.N,Net-(U2-Pad1)*
X-18418000Y-41590000D03*
G04 #@! TO.P,U2,2*
G04 #@! TO.N,/J2_CLK*
X-18418000Y-40640000D03*
G04 #@! TO.P,U2,3*
G04 #@! TO.N,GND*
X-18418000Y-39690000D03*
G04 #@! TO.P,U2,4*
G04 #@! TO.N,Net-(R4-Pad1)*
X-21118000Y-39690000D03*
G04 #@! TO.P,U2,5*
G04 #@! TO.N,+5V*
X-21118000Y-41590000D03*
G04 #@! TD*
D19*
G04 #@! TO.P,D1,1*
G04 #@! TO.N,+5V*
X-14331000Y-46355000D03*
G04 #@! TO.P,D1,2*
G04 #@! TO.N,GND*
X-11831000Y-46355000D03*
G04 #@! TD*
D20*
G04 #@! TO.N,GND*
X-36500000Y-13442000D02*
X-36200000Y-13742000D01*
X-21800000Y-56388000D02*
X-24340000Y-58928000D01*
X-19006000Y-56388000D02*
X-21800000Y-56388000D01*
X-4390000Y-49492000D02*
X-4290000Y-49592000D01*
X-19514000Y-26670000D02*
X-19514000Y-26924000D01*
X-19514000Y-26670000D02*
X-19514000Y-26162000D01*
X-19514000Y-26162000D02*
X-19326000Y-25974000D01*
X-19326000Y-25974000D02*
X-18164000Y-25974000D01*
X-42909000Y-24318000D02*
X-42732000Y-24495000D01*
X-19768000Y-40640000D02*
X-22308000Y-40640000D01*
X-22308000Y-40640000D02*
X-25356000Y-43688000D01*
X-18418000Y-39690000D02*
X-19326000Y-39690000D01*
X-19768000Y-40132000D02*
X-19768000Y-40640000D01*
X-19326000Y-39690000D02*
X-19768000Y-40132000D01*
X-17656000Y-55438000D02*
X-18564000Y-55438000D01*
X-18564000Y-55438000D02*
X-19006000Y-55880000D01*
X-19006000Y-55880000D02*
X-19006000Y-56388000D01*
X-4720000Y-49592000D02*
X-4290000Y-49592000D01*
D21*
X-26118000Y-48438000D02*
X-19768000Y-48438000D01*
D20*
X-17722000Y-55372000D02*
X-17656000Y-55438000D01*
D21*
X-25356000Y-19228000D02*
X-24257000Y-19228000D01*
X-24257000Y-19228000D02*
X-19768000Y-19228000D01*
X-24816351Y-59436000D02*
X-24646361Y-59266010D01*
X-24646361Y-59266010D02*
X-24324175Y-58943824D01*
D20*
X-24324175Y-58943824D02*
X-24404000Y-58992000D01*
X-24340000Y-58928000D02*
X-24324175Y-58943824D01*
D21*
X-26118000Y-48177000D02*
X-26118000Y-48388000D01*
X-27178000Y-47117000D02*
X-26118000Y-48177000D01*
X-30226000Y-47117000D02*
X-27178000Y-47117000D01*
X-30951500Y-46391500D02*
X-30226000Y-47117000D01*
X-38862000Y-46391500D02*
X-30951500Y-46391500D01*
X-35068500Y-59436000D02*
X-24816351Y-59436000D01*
X-35525000Y-58979500D02*
X-35068500Y-59436000D01*
X-36500000Y-58979500D02*
X-35525000Y-58979500D01*
X-10032000Y-48388000D02*
X-19768000Y-48388000D01*
D20*
X-19096500Y-43343500D02*
X-16891000Y-43343500D01*
X-19768000Y-42672000D02*
X-19096500Y-43343500D01*
X-19768000Y-40640000D02*
X-19768000Y-42672000D01*
D21*
X-11831000Y-44855000D02*
X-13379000Y-43307000D01*
X-11831000Y-46355000D02*
X-11831000Y-44855000D01*
X-13415500Y-43343500D02*
X-16891000Y-43343500D01*
X-13379000Y-43307000D02*
X-13415500Y-43343500D01*
X-10032000Y-48388000D02*
X-11831000Y-46355000D01*
X-26555500Y-31786500D02*
X-25250000Y-33092000D01*
X-38608000Y-31786500D02*
X-26555500Y-31786500D01*
X-25250000Y-33092000D02*
X-20250000Y-33092000D01*
D20*
X-19514000Y-29166000D02*
X-20139000Y-30353000D01*
X-19514000Y-26924000D02*
X-19514000Y-29166000D01*
D21*
X-20250000Y-30464000D02*
X-20139000Y-30353000D01*
X-20250000Y-33092000D02*
X-20250000Y-30464000D01*
X-18324500Y-17734500D02*
X-19768000Y-19178000D01*
X-18324500Y-15875000D02*
X-18324500Y-17734500D01*
X-22352000Y-4954000D02*
X-24003000Y-3303000D01*
X-17736000Y-4954000D02*
X-22352000Y-4954000D01*
X-24153000Y-3303000D02*
X-24003000Y-3303000D01*
X-25664000Y-1792000D02*
X-24153000Y-3303000D01*
X-39624000Y-1792000D02*
X-25664000Y-1792000D01*
D20*
X-18324500Y-14900000D02*
X-18324500Y-15875000D01*
X-18324500Y-11448500D02*
X-18324500Y-14900000D01*
X-18118000Y-11242000D02*
X-18324500Y-11448500D01*
X-16938000Y-11242000D02*
X-18118000Y-11242000D01*
D21*
X-25506000Y-19178000D02*
X-25356000Y-19178000D01*
X-27121500Y-17562500D02*
X-25506000Y-19178000D01*
X-38481000Y-17562500D02*
X-27121500Y-17562500D01*
D20*
X-17656000Y-55438000D02*
X-17656000Y-55248000D01*
D22*
X-17308500Y-54900500D02*
X-13716000Y-54900500D01*
D20*
X-17656000Y-55248000D02*
X-17308500Y-54900500D01*
D23*
X-42219999Y-6780001D02*
X-43250000Y-5750000D01*
X-42219999Y-8043601D02*
X-42219999Y-6780001D01*
X-43540000Y-9363602D02*
X-42219999Y-8043601D01*
X-43540000Y-9980000D02*
X-43540000Y-9363602D01*
X-43250000Y-5750000D02*
X-43250000Y-2000000D01*
X-42937500Y-1687500D02*
X-38862000Y-1687500D01*
X-43250000Y-2000000D02*
X-42937500Y-1687500D01*
X-42320001Y-36553601D02*
X-42320001Y-33070001D01*
X-42219999Y-37793601D02*
X-42219999Y-36653603D01*
X-43540000Y-39113602D02*
X-42219999Y-37793601D01*
X-42219999Y-36653603D02*
X-42320001Y-36553601D01*
X-43540000Y-39730000D02*
X-43540000Y-39113602D01*
X-41036500Y-31786500D02*
X-38608000Y-31786500D01*
X-42320001Y-33070001D02*
X-41036500Y-31786500D01*
X-39633347Y-47162847D02*
X-38862000Y-46391500D01*
X-42320001Y-49849501D02*
X-39633347Y-47162847D01*
X-42320001Y-51553601D02*
X-42320001Y-49849501D01*
X-42219999Y-51653603D02*
X-42320001Y-51553601D01*
X-42219999Y-52793601D02*
X-42219999Y-51653603D01*
X-43540000Y-54113602D02*
X-42219999Y-52793601D01*
X-43540000Y-54730000D02*
X-43540000Y-54113602D01*
X-38543500Y-17500000D02*
X-38481000Y-17562500D01*
X-40250000Y-17500000D02*
X-38543500Y-17500000D01*
X-42320001Y-19570001D02*
X-40250000Y-17500000D01*
X-42320001Y-21553601D02*
X-42320001Y-19570001D01*
X-43540000Y-24730000D02*
X-43540000Y-24113602D01*
X-42219999Y-21653603D02*
X-42320001Y-21553601D01*
X-42219999Y-22793601D02*
X-42219999Y-21653603D01*
X-43540000Y-24113602D02*
X-42219999Y-22793601D01*
D21*
X-9906000Y-48514000D02*
X-10032000Y-48388000D01*
X-6477000Y-49530000D02*
X-8220000Y-49530000D01*
X-9236000Y-48514000D02*
X-9906000Y-48514000D01*
X-8220000Y-49530000D02*
X-9236000Y-48514000D01*
X-4390000Y-49492000D02*
X-6477000Y-49530000D01*
X-16072000Y-19178000D02*
X-19768000Y-19178000D01*
X-5978000Y-29272000D02*
X-16072000Y-19178000D01*
X-4290000Y-29272000D02*
X-5978000Y-29272000D01*
X-12046000Y-4954000D02*
X-17736000Y-4954000D01*
X-5508000Y-11492000D02*
X-12046000Y-4954000D01*
X-4290000Y-11492000D02*
X-5508000Y-11492000D01*
D24*
G04 #@! TO.N,Net-(C5-Pad1)*
X-33073500Y-56004500D02*
X-32944000Y-56134000D01*
D21*
X-36500000Y-56004500D02*
X-33073500Y-56004500D01*
D23*
X-44299999Y-52919999D02*
X-43540000Y-52160000D01*
X-45250000Y-53870000D02*
X-44299999Y-52919999D01*
X-45250000Y-55548002D02*
X-45250000Y-53870000D01*
X-44298002Y-56500000D02*
X-45250000Y-55548002D01*
X-37970500Y-56500000D02*
X-44298002Y-56500000D01*
X-37475000Y-56004500D02*
X-37970500Y-56500000D01*
X-36500000Y-56004500D02*
X-37475000Y-56004500D01*
D21*
G04 #@! TO.N,Net-(C6-Pad1)*
X-39678500Y-49366500D02*
X-41000000Y-50688000D01*
X-38862000Y-49366500D02*
X-39678500Y-49366500D01*
X-35616500Y-49366500D02*
X-35250000Y-49000000D01*
X-38862000Y-49366500D02*
X-35616500Y-49366500D01*
D24*
G04 #@! TO.N,Net-(C7-Pad1)*
X-35647500Y-40640000D02*
X-36500000Y-39787500D01*
X-32182000Y-40640000D02*
X-35647500Y-40640000D01*
D20*
X-36500000Y-39787500D02*
X-37475000Y-39787500D01*
D23*
X-44614802Y-37160000D02*
X-43540000Y-37160000D01*
X-38937500Y-41250000D02*
X-45000000Y-41250000D01*
X-45637640Y-40612360D02*
X-45637640Y-38182838D01*
X-45000000Y-41250000D02*
X-45637640Y-40612360D01*
X-45637640Y-38182838D02*
X-44614802Y-37160000D01*
X-37475000Y-39787500D02*
X-38937500Y-41250000D01*
D21*
G04 #@! TO.N,Net-(C8-Pad1)*
X-37501500Y-33655000D02*
X-38608000Y-34761500D01*
X-35655000Y-33655000D02*
X-37501500Y-33655000D01*
X-40313500Y-34761500D02*
X-41000000Y-35448000D01*
X-38608000Y-34761500D02*
X-40313500Y-34761500D01*
D24*
G04 #@! TO.N,+5V*
X-21118000Y-41590000D02*
X-21118000Y-42874000D01*
D20*
X-20864000Y-27874000D02*
X-20864000Y-28114000D01*
D21*
X-1750000Y-59752000D02*
X-1750000Y-57212000D01*
X-53250000Y-23492000D02*
X-53250000Y-29992000D01*
D24*
X-21118000Y-44105000D02*
X-21118000Y-42874000D01*
D20*
X-20356000Y-57338000D02*
X-20356000Y-57832000D01*
D21*
X-20356000Y-57832000D02*
X-20447000Y-60833000D01*
X-22001010Y-44988010D02*
X-21971000Y-44958000D01*
D22*
X-14367500Y-46318500D02*
X-14331000Y-46355000D01*
X-16891000Y-46318500D02*
X-14367500Y-46318500D01*
D24*
X-23114000Y-30124000D02*
X-20864000Y-27874000D01*
D20*
X-23114000Y-30353000D02*
X-23114000Y-30124000D01*
D24*
X-21299500Y-14803500D02*
X-19638000Y-13142000D01*
D21*
X-21299500Y-15875000D02*
X-21299500Y-14803500D01*
X-22001010Y-44988010D02*
X-21118000Y-44105000D01*
X-19558000Y-46355000D02*
X-16891000Y-46318500D01*
X-21118000Y-44105000D02*
X-19558000Y-46355000D01*
X-30102707Y-44988010D02*
X-22001010Y-44988010D01*
X-30211727Y-44878990D02*
X-30102707Y-44988010D01*
X-45005990Y-44878990D02*
X-30211727Y-44878990D01*
X-1750000Y-60742000D02*
X-1750000Y-59752000D01*
X-3000000Y-61992000D02*
X-1750000Y-60742000D01*
X-13155500Y-61992000D02*
X-3000000Y-61992000D01*
X-14314500Y-60833000D02*
X-13155500Y-61992000D01*
X-20447000Y-60833000D02*
X-14314500Y-60833000D01*
X-13716000Y-60234500D02*
X-13716000Y-57875500D01*
X-14314500Y-60833000D02*
X-13716000Y-60234500D01*
X-43375000Y-15875000D02*
X-32372648Y-15875000D01*
X-49000000Y-10250000D02*
X-43375000Y-15875000D01*
X-51508000Y-10250000D02*
X-49000000Y-10250000D01*
X-53250000Y-11992000D02*
X-51508000Y-10250000D01*
X-32372648Y-15875000D02*
X-21299500Y-15875000D01*
X-53250000Y-23492000D02*
X-53250000Y-11992000D01*
X-44508000Y-29242000D02*
X-50258000Y-23492000D01*
X-50258000Y-23492000D02*
X-53250000Y-23492000D01*
X-53250000Y-50500000D02*
X-53250000Y-46742000D01*
X-20447000Y-60833000D02*
X-42917000Y-60833000D01*
X-50946198Y-38250000D02*
X-53250000Y-38250000D01*
X-45005990Y-44190208D02*
X-50946198Y-38250000D01*
X-45005990Y-44878990D02*
X-45005990Y-44190208D01*
X-53250000Y-38250000D02*
X-53250000Y-46742000D01*
X-53250000Y-29992000D02*
X-53250000Y-38250000D01*
X-51036198Y-52500000D02*
X-51250000Y-52500000D01*
X-45005990Y-46469792D02*
X-51036198Y-52500000D01*
X-51250000Y-52500000D02*
X-53250000Y-50500000D01*
X-45005990Y-44878990D02*
X-45005990Y-46469792D01*
X-42917000Y-60833000D02*
X-51250000Y-52500000D01*
X-44508000Y-31811802D02*
X-44508000Y-29242000D01*
X-50946198Y-38250000D02*
X-44508000Y-31811802D01*
X-44074990Y-29675010D02*
X-44508000Y-29242000D01*
X-23769010Y-29675010D02*
X-44074990Y-29675010D01*
X-50992000Y-23492000D02*
X-43375000Y-15875000D01*
X-51250000Y-23492000D02*
X-50992000Y-23492000D01*
G04 #@! TO.N,/J1_LOAD*
X-8828000Y-54672000D02*
X-4290000Y-54672000D01*
X-21114000Y-51638000D02*
X-11862000Y-51638000D01*
X-11862000Y-51638000D02*
X-8828000Y-54672000D01*
X-25610000Y-56134000D02*
X-21114000Y-51638000D01*
X-28944000Y-56134000D02*
X-25610000Y-56134000D01*
G04 #@! TO.N,/J2_LOAD*
X-7488000Y-44512000D02*
X-4290000Y-44512000D01*
X-21876000Y-36398000D02*
X-20276000Y-36398000D01*
X-17653000Y-36421588D02*
X-15578412Y-36421588D01*
X-15578412Y-36421588D02*
X-7488000Y-44512000D01*
X-20276000Y-36398000D02*
X-17653000Y-36421588D01*
X-26118000Y-40640000D02*
X-21876000Y-36398000D01*
X-28182000Y-40640000D02*
X-26118000Y-40640000D01*
G04 #@! TO.N,/J3_LOAD*
X-21986000Y-22478000D02*
X-19768000Y-22478000D01*
X-25670000Y-26162000D02*
X-21986000Y-22478000D01*
X-28500000Y-26162000D02*
X-25670000Y-26162000D01*
X-6898000Y-34352000D02*
X-4290000Y-34352000D01*
X-18772000Y-22478000D02*
X-6898000Y-34352000D01*
X-19768000Y-22478000D02*
X-18772000Y-22478000D01*
D20*
G04 #@! TO.N,/C_LOAD*
X-4290000Y-16572000D02*
X-4974000Y-16572000D01*
X-4290000Y-16572000D02*
X-4420000Y-16572000D01*
D21*
X-25356000Y-12192000D02*
X-21368000Y-8204000D01*
X-27166000Y-12192000D02*
X-25356000Y-12192000D01*
X-21368000Y-8204000D02*
X-18415000Y-8204000D01*
X-18415000Y-8204000D02*
X-17736000Y-8204000D01*
X-7428000Y-16572000D02*
X-4290000Y-16572000D01*
X-15796000Y-8204000D02*
X-7428000Y-16572000D01*
X-18415000Y-8204000D02*
X-15796000Y-8204000D01*
D23*
G04 #@! TO.N,Net-(C9-Pad1)*
X-45750000Y-25250000D02*
X-45750000Y-21821920D01*
X-44750000Y-26250000D02*
X-45750000Y-25250000D01*
X-37211000Y-24928500D02*
X-38186000Y-24928500D01*
X-38186000Y-24928500D02*
X-39507500Y-26250000D01*
X-44299999Y-21400001D02*
X-43540000Y-22160000D01*
X-45328081Y-21400001D02*
X-44299999Y-21400001D01*
X-45750000Y-21821920D02*
X-45328081Y-21400001D01*
X-39507500Y-26250000D02*
X-44750000Y-26250000D01*
D21*
X-35977500Y-26162000D02*
X-37211000Y-24928500D01*
X-32500000Y-26162000D02*
X-35977500Y-26162000D01*
D20*
G04 #@! TO.N,Net-(C10-Pad1)*
X-40408000Y-20540000D02*
X-40232000Y-20716000D01*
X-40821500Y-20537500D02*
X-41000000Y-20716000D01*
D22*
X-38481000Y-20537500D02*
X-40821500Y-20537500D01*
D23*
X-35037500Y-20537500D02*
X-34500000Y-20000000D01*
X-38481000Y-20537500D02*
X-35037500Y-20537500D01*
G04 #@! TO.N,Net-(C11-Pad1)*
X-44299999Y-8169999D02*
X-43540000Y-7410000D01*
X-45250000Y-9120000D02*
X-44299999Y-8169999D01*
X-45250000Y-10798002D02*
X-45250000Y-9120000D01*
X-44298002Y-11750000D02*
X-45250000Y-10798002D01*
X-35814000Y-10323500D02*
X-37682500Y-10323500D01*
X-37719000Y-10287000D02*
X-39182000Y-11750000D01*
X-37682500Y-10323500D02*
X-37719000Y-10287000D01*
X-39182000Y-11750000D02*
X-44298002Y-11750000D01*
D21*
X-33184500Y-10323500D02*
X-35814000Y-10323500D01*
X-31500000Y-12192000D02*
X-33184500Y-10323500D01*
X-31166000Y-12192000D02*
X-31500000Y-12192000D01*
G04 #@! TO.N,Net-(C12-Pad1)*
X-39678500Y-4662500D02*
X-41000000Y-5984000D01*
X-38862000Y-4662500D02*
X-39678500Y-4662500D01*
X-38263500Y-4064000D02*
X-38862000Y-4662500D01*
X-33750000Y-4064000D02*
X-38263500Y-4064000D01*
D20*
G04 #@! TO.N,/J1_DATA*
X-4482000Y-52324000D02*
X-4290000Y-52132000D01*
X-26244000Y-51562000D02*
X-26118000Y-51688000D01*
X-28376000Y-51688000D02*
X-29000000Y-52312000D01*
X-26118000Y-51688000D02*
X-28376000Y-51688000D01*
D21*
X-24518000Y-51688000D02*
X-26118000Y-51688000D01*
X-22644010Y-50038000D02*
X-24518000Y-51688000D01*
X-10712000Y-50038000D02*
X-22644010Y-50038000D01*
X-8618000Y-52132000D02*
X-10712000Y-50038000D01*
X-4290000Y-52132000D02*
X-8618000Y-52132000D01*
D20*
G04 #@! TO.N,/J2_DATA*
X-25434000Y-36576000D02*
X-25250000Y-36392000D01*
D21*
X-28607000Y-36576000D02*
X-25434000Y-36576000D01*
X-6770000Y-41980000D02*
X-4290000Y-41980000D01*
X-13952000Y-34798000D02*
X-6770000Y-41980000D01*
X-24638000Y-36576000D02*
X-22860000Y-34798000D01*
X-22860000Y-34798000D02*
X-13952000Y-34798000D01*
X-25434000Y-36576000D02*
X-24638000Y-36576000D01*
G04 #@! TO.N,/J3_DATA*
X-25738000Y-22860000D02*
X-25356000Y-22478000D01*
X-28480000Y-22860000D02*
X-25738000Y-22860000D01*
X-6688000Y-31812000D02*
X-4290000Y-31812000D01*
X-17672000Y-20828000D02*
X-6688000Y-31812000D01*
X-23556000Y-20828000D02*
X-17672000Y-20828000D01*
X-25206000Y-22478000D02*
X-23556000Y-20828000D01*
X-25356000Y-22478000D02*
X-25206000Y-22478000D01*
D23*
G04 #@! TO.N,/C_DATA*
X-25853000Y-6603000D02*
X-27500000Y-8250000D01*
X-24003000Y-6603000D02*
X-25853000Y-6603000D01*
D21*
X-14647000Y-6603000D02*
X-24003000Y-6603000D01*
X-7218000Y-14032000D02*
X-14647000Y-6603000D01*
X-4290000Y-14032000D02*
X-7218000Y-14032000D01*
D24*
G04 #@! TO.N,/C_CLK*
X-4388000Y-21750000D02*
X-4290000Y-21652000D01*
D21*
X-8000000Y-21750000D02*
X-4388000Y-21750000D01*
D24*
X-13750000Y-14126998D02*
X-13750000Y-16000000D01*
X-15669999Y-12206999D02*
X-13750000Y-14126998D01*
X-16938000Y-12206999D02*
X-15669999Y-12206999D01*
D21*
X-13750000Y-16000000D02*
X-8000000Y-21750000D01*
D24*
X-16938000Y-12192000D02*
X-16938000Y-12206999D01*
G04 #@! TO.N,/J3_CLK*
X-4398000Y-37000000D02*
X-4290000Y-36892000D01*
D21*
X-7750000Y-37000000D02*
X-4398000Y-37000000D01*
X-16000000Y-28750000D02*
X-7750000Y-37000000D01*
D24*
X-16000000Y-27834998D02*
X-16000000Y-28750000D01*
X-17826000Y-26924000D02*
X-17811001Y-26938999D01*
X-16895999Y-26938999D02*
X-16000000Y-27834998D01*
X-17811001Y-26938999D02*
X-16895999Y-26938999D01*
X-18164000Y-26924000D02*
X-17826000Y-26924000D01*
G04 #@! TO.N,/J2_CLK*
X-13860000Y-40640000D02*
X-7448000Y-47052000D01*
X-7448000Y-47052000D02*
X-4290000Y-47052000D01*
X-18418000Y-40640000D02*
X-13860000Y-40640000D01*
D21*
G04 #@! TO.N,/J1_CLK*
X-8530000Y-57212000D02*
X-4290000Y-57212000D01*
D20*
X-4606000Y-56896000D02*
X-4290000Y-57212000D01*
D21*
X-8530000Y-57212000D02*
X-10860000Y-57212000D01*
D24*
X-11684000Y-56388000D02*
X-10860000Y-57212000D01*
X-17656000Y-56388000D02*
X-11684000Y-56388000D01*
G04 #@! TO.N,Net-(R1-Pad1)*
X-22374000Y-55438000D02*
X-25102000Y-58166000D01*
X-30944000Y-57404000D02*
X-30944000Y-50806000D01*
X-30182000Y-58166000D02*
X-30944000Y-57404000D01*
X-25102000Y-58166000D02*
X-30182000Y-58166000D01*
X-20356000Y-55438000D02*
X-22374000Y-55438000D01*
X-31000000Y-50750000D02*
X-31000000Y-49250000D01*
X-30944000Y-50806000D02*
X-31000000Y-50750000D01*
G04 #@! TO.N,Net-(R4-Pad1)*
X-30500000Y-35105000D02*
X-30500000Y-33655000D01*
X-30500000Y-41448002D02*
X-30500000Y-35105000D01*
X-25672361Y-41750009D02*
X-26012353Y-42090001D01*
X-25658219Y-41750009D02*
X-25672361Y-41750009D01*
X-26012353Y-42090001D02*
X-29858001Y-42090001D01*
X-23598210Y-39690000D02*
X-25658219Y-41750009D01*
X-29858001Y-42090001D02*
X-30500000Y-41448002D01*
X-21118000Y-39690000D02*
X-23598210Y-39690000D01*
G04 #@! TO.N,Net-(R7-Pad1)*
X-30500000Y-24023000D02*
X-30500000Y-20000000D01*
X-29360002Y-28250000D02*
X-30500000Y-27110002D01*
X-24520000Y-28250000D02*
X-29360002Y-28250000D01*
X-30500000Y-27110002D02*
X-30500000Y-24023000D01*
X-22244000Y-25974000D02*
X-24520000Y-28250000D01*
X-20864000Y-25974000D02*
X-22244000Y-25974000D01*
D23*
G04 #@! TO.N,Net-(R10-Pad1)*
X-29750000Y-5414000D02*
X-29750000Y-4064000D01*
X-29664000Y-5500000D02*
X-29750000Y-5414000D01*
X-29500000Y-5500000D02*
X-29664000Y-5500000D01*
D24*
X-22037000Y-11242000D02*
X-19638000Y-11242000D01*
X-24545000Y-13750000D02*
X-22037000Y-11242000D01*
X-28878000Y-13750000D02*
X-24545000Y-13750000D01*
X-29500000Y-13128000D02*
X-28878000Y-13750000D01*
X-29500000Y-5500000D02*
X-29500000Y-13128000D01*
D23*
G04 #@! TO.N,Net-(J4-Pad2)*
X-40570000Y-8250000D02*
X-41000000Y-8680000D01*
X-31500000Y-8250000D02*
X-40570000Y-8250000D01*
D21*
G04 #@! TO.N,Net-(J3-Pad2)*
X-34722000Y-22860000D02*
X-32480000Y-22860000D01*
X-35098000Y-23236000D02*
X-34722000Y-22860000D01*
X-41000000Y-23236000D02*
X-35098000Y-23236000D01*
G04 #@! TO.N,Net-(J2-Pad2)*
X-35860000Y-37968000D02*
X-32607000Y-36576000D01*
X-41000000Y-37968000D02*
X-35860000Y-37968000D01*
G04 #@! TO.N,Net-(J1-Pad2)*
X-41000000Y-53208000D02*
X-36876000Y-53208000D01*
X-35980000Y-52312000D02*
X-33000000Y-52312000D01*
X-36876000Y-53208000D02*
X-35980000Y-52312000D01*
D23*
G04 #@! TO.N,Net-(J5-Pad3)*
X-1750000Y-14032000D02*
X-920000Y-14032000D01*
G04 #@! TO.N,Net-(J5-Pad5)*
X-1750000Y-16572000D02*
X-1750000Y-16742000D01*
D20*
G04 #@! TO.N,Net-(J5-Pad7)*
X-1750000Y-19112000D02*
X-1370000Y-19112000D01*
G04 #@! TO.N,Net-(J5-Pad11)*
X-1750000Y-24192000D02*
X-1050000Y-24192000D01*
D23*
X-1750000Y-24192000D02*
X-1700000Y-24192000D01*
D20*
G04 #@! TO.N,Net-(J5-Pad25)*
X-1730000Y-41992000D02*
X-1750000Y-41972000D01*
D23*
X-1750000Y-41972000D02*
X-980000Y-41972000D01*
G04 #@! TO.N,Net-(J5-Pad27)*
X-1750000Y-44512000D02*
X-1520000Y-44512000D01*
X-1750000Y-44512000D02*
X-1750000Y-44492000D01*
D20*
G04 #@! TO.N,Net-(J5-Pad29)*
X-1690000Y-46992000D02*
X-1750000Y-47052000D01*
G04 #@! TD*
D23*
G04 #@! TO.N,GND*
G36*
X-40495000Y-824224D02*
X-40495000Y-1494000D01*
X-40305500Y-1683500D01*
X-38866000Y-1683500D01*
X-38866000Y-1663500D01*
X-38858000Y-1663500D01*
X-38858000Y-1683500D01*
X-37418500Y-1683500D01*
X-37229000Y-1494000D01*
X-37229000Y-824224D01*
X-37303237Y-645000D01*
X-645000Y-645000D01*
X-645000Y-10134854D01*
X-677597Y-10113073D01*
X-900000Y-10068834D01*
X-2600000Y-10068834D01*
X-2822403Y-10113073D01*
X-3010946Y-10239054D01*
X-3133204Y-10422026D01*
X-3446414Y-10131049D01*
X-4034503Y-9912428D01*
X-4286000Y-10081505D01*
X-4286000Y-11496000D01*
X-4266000Y-11496000D01*
X-4266000Y-11504000D01*
X-4286000Y-11504000D01*
X-4286000Y-11524000D01*
X-4294000Y-11524000D01*
X-4294000Y-11504000D01*
X-5708494Y-11504000D01*
X-5877572Y-11755497D01*
X-5854500Y-11871489D01*
X-5593247Y-12441919D01*
X-5133586Y-12868951D01*
X-5107723Y-12878566D01*
X-5232591Y-12962000D01*
X-6774792Y-12962000D01*
X-8492289Y-11244503D01*
X-5877572Y-11244503D01*
X-5708494Y-11496000D01*
X-4294000Y-11496000D01*
X-4294000Y-10081505D01*
X-4545497Y-9912428D01*
X-5133586Y-10131049D01*
X-5593247Y-10558081D01*
X-5854500Y-11128511D01*
X-5877572Y-11244503D01*
X-8492289Y-11244503D01*
X-13815875Y-5920918D01*
X-13875573Y-5831573D01*
X-14229507Y-5595083D01*
X-14541618Y-5533000D01*
X-14647000Y-5512038D01*
X-14752382Y-5533000D01*
X-16378000Y-5533000D01*
X-16378000Y-5147500D01*
X-16567500Y-4958000D01*
X-17732000Y-4958000D01*
X-17732000Y-4978000D01*
X-17740000Y-4978000D01*
X-17740000Y-4958000D01*
X-18904500Y-4958000D01*
X-19094000Y-5147500D01*
X-19094000Y-5533000D01*
X-24108382Y-5533000D01*
X-24303613Y-5571834D01*
X-24603000Y-5571834D01*
X-24825403Y-5616073D01*
X-25013946Y-5742054D01*
X-25041305Y-5783000D01*
X-25772242Y-5783000D01*
X-25853000Y-5766936D01*
X-25933759Y-5783000D01*
X-26172948Y-5830578D01*
X-26444187Y-6011813D01*
X-26489935Y-6080280D01*
X-27228489Y-6818834D01*
X-28500000Y-6818834D01*
X-28630000Y-6844693D01*
X-28630000Y-5471296D01*
X-28527597Y-5450927D01*
X-28339054Y-5324946D01*
X-28213073Y-5136403D01*
X-28168834Y-4914000D01*
X-28168834Y-3496500D01*
X-25361000Y-3496500D01*
X-25361000Y-3903776D01*
X-25245601Y-4182373D01*
X-25032372Y-4395602D01*
X-24753775Y-4511000D01*
X-24196500Y-4511000D01*
X-24007000Y-4321500D01*
X-24007000Y-3307000D01*
X-23999000Y-3307000D01*
X-23999000Y-4321500D01*
X-23809500Y-4511000D01*
X-23252225Y-4511000D01*
X-22973628Y-4395602D01*
X-22931250Y-4353224D01*
X-19094000Y-4353224D01*
X-19094000Y-4760500D01*
X-18904500Y-4950000D01*
X-17740000Y-4950000D01*
X-17740000Y-3935500D01*
X-17732000Y-3935500D01*
X-17732000Y-4950000D01*
X-16567500Y-4950000D01*
X-16378000Y-4760500D01*
X-16378000Y-4353224D01*
X-16493399Y-4074627D01*
X-16706628Y-3861398D01*
X-16985225Y-3746000D01*
X-17542500Y-3746000D01*
X-17732000Y-3935500D01*
X-17740000Y-3935500D01*
X-17929500Y-3746000D01*
X-18486775Y-3746000D01*
X-18765372Y-3861398D01*
X-18978601Y-4074627D01*
X-19094000Y-4353224D01*
X-22931250Y-4353224D01*
X-22760399Y-4182373D01*
X-22645000Y-3903776D01*
X-22645000Y-3496500D01*
X-22834500Y-3307000D01*
X-23999000Y-3307000D01*
X-24007000Y-3307000D01*
X-25171500Y-3307000D01*
X-25361000Y-3496500D01*
X-28168834Y-3496500D01*
X-28168834Y-3214000D01*
X-28213073Y-2991597D01*
X-28339054Y-2803054D01*
X-28489956Y-2702224D01*
X-25361000Y-2702224D01*
X-25361000Y-3109500D01*
X-25171500Y-3299000D01*
X-24007000Y-3299000D01*
X-24007000Y-2284500D01*
X-23999000Y-2284500D01*
X-23999000Y-3299000D01*
X-22834500Y-3299000D01*
X-22645000Y-3109500D01*
X-22645000Y-2702224D01*
X-22760399Y-2423627D01*
X-22973628Y-2210398D01*
X-23252225Y-2095000D01*
X-23809500Y-2095000D01*
X-23999000Y-2284500D01*
X-24007000Y-2284500D01*
X-24196500Y-2095000D01*
X-24753775Y-2095000D01*
X-25032372Y-2210398D01*
X-25245601Y-2423627D01*
X-25361000Y-2702224D01*
X-28489956Y-2702224D01*
X-28527597Y-2677073D01*
X-28750000Y-2632834D01*
X-30750000Y-2632834D01*
X-30972403Y-2677073D01*
X-31160946Y-2803054D01*
X-31286927Y-2991597D01*
X-31331166Y-3214000D01*
X-31331166Y-4914000D01*
X-31286927Y-5136403D01*
X-31160946Y-5324946D01*
X-30972403Y-5450927D01*
X-30750000Y-5495166D01*
X-30569919Y-5495166D01*
X-30568957Y-5500000D01*
X-30522422Y-5733947D01*
X-30370000Y-5962065D01*
X-30370000Y-6844693D01*
X-30500000Y-6818834D01*
X-32500000Y-6818834D01*
X-32722403Y-6863073D01*
X-32910946Y-6989054D01*
X-33036927Y-7177597D01*
X-33081166Y-7400000D01*
X-33081166Y-7430000D01*
X-40489242Y-7430000D01*
X-40541403Y-7419624D01*
X-40246616Y-7297519D01*
X-39872481Y-6923384D01*
X-39670000Y-6434553D01*
X-39670000Y-6167208D01*
X-39458958Y-5956166D01*
X-38237000Y-5956166D01*
X-37918927Y-5892897D01*
X-37649277Y-5712723D01*
X-37469103Y-5443073D01*
X-37407624Y-5134000D01*
X-35287405Y-5134000D01*
X-35286927Y-5136403D01*
X-35160946Y-5324946D01*
X-34972403Y-5450927D01*
X-34750000Y-5495166D01*
X-32750000Y-5495166D01*
X-32527597Y-5450927D01*
X-32339054Y-5324946D01*
X-32213073Y-5136403D01*
X-32168834Y-4914000D01*
X-32168834Y-3214000D01*
X-32213073Y-2991597D01*
X-32339054Y-2803054D01*
X-32527597Y-2677073D01*
X-32750000Y-2632834D01*
X-34750000Y-2632834D01*
X-34972403Y-2677073D01*
X-35160946Y-2803054D01*
X-35286927Y-2991597D01*
X-35287405Y-2994000D01*
X-37509026Y-2994000D01*
X-37344399Y-2829373D01*
X-37229000Y-2550776D01*
X-37229000Y-1881000D01*
X-37418500Y-1691500D01*
X-38858000Y-1691500D01*
X-38858000Y-2968500D01*
X-38734599Y-3091901D01*
X-39034927Y-3292573D01*
X-39085883Y-3368834D01*
X-39487000Y-3368834D01*
X-39805073Y-3432103D01*
X-40074723Y-3612277D01*
X-40108635Y-3663030D01*
X-40449927Y-3891073D01*
X-40509622Y-3980413D01*
X-41443210Y-4914002D01*
X-41753384Y-5042481D01*
X-42127519Y-5416616D01*
X-42330000Y-5905447D01*
X-42330000Y-6434553D01*
X-42127519Y-6923384D01*
X-41753384Y-7297519D01*
X-41445619Y-7425000D01*
X-41753384Y-7552481D01*
X-42127519Y-7926616D01*
X-42330000Y-8415447D01*
X-42330000Y-8598026D01*
X-42350628Y-8577398D01*
X-42629225Y-8462000D01*
X-42711097Y-8462000D01*
X-42412481Y-8163384D01*
X-42210000Y-7674553D01*
X-42210000Y-7145447D01*
X-42412481Y-6656616D01*
X-42786616Y-6282481D01*
X-43275447Y-6080000D01*
X-43804553Y-6080000D01*
X-44293384Y-6282481D01*
X-44667519Y-6656616D01*
X-44870000Y-7145447D01*
X-44870000Y-7580345D01*
X-45772720Y-8483065D01*
X-45841186Y-8528813D01*
X-45903112Y-8621493D01*
X-46022422Y-8800053D01*
X-46086064Y-9120000D01*
X-46069999Y-9200763D01*
X-46070000Y-10717243D01*
X-46086064Y-10798002D01*
X-46070000Y-10878760D01*
X-46022422Y-11117949D01*
X-45841187Y-11389189D01*
X-45772718Y-11434939D01*
X-44934937Y-12272720D01*
X-44889189Y-12341187D01*
X-44617950Y-12522422D01*
X-44378761Y-12570000D01*
X-44378760Y-12570000D01*
X-44298003Y-12586064D01*
X-44217246Y-12570000D01*
X-39262758Y-12570000D01*
X-39182000Y-12586064D01*
X-39101242Y-12570000D01*
X-39101241Y-12570000D01*
X-38862052Y-12522422D01*
X-38731551Y-12435224D01*
X-37447000Y-12435224D01*
X-37447000Y-13105000D01*
X-37257500Y-13294500D01*
X-35818000Y-13294500D01*
X-35818000Y-12017500D01*
X-35810000Y-12017500D01*
X-35810000Y-13294500D01*
X-34370500Y-13294500D01*
X-34181000Y-13105000D01*
X-34181000Y-12435224D01*
X-34296399Y-12156627D01*
X-34509628Y-11943398D01*
X-34788225Y-11828000D01*
X-35620500Y-11828000D01*
X-35810000Y-12017500D01*
X-35818000Y-12017500D01*
X-36007500Y-11828000D01*
X-36839775Y-11828000D01*
X-37118372Y-11943398D01*
X-37331601Y-12156627D01*
X-37447000Y-12435224D01*
X-38731551Y-12435224D01*
X-38590813Y-12341187D01*
X-38545063Y-12272717D01*
X-37415845Y-11143500D01*
X-37180553Y-11143500D01*
X-37026723Y-11373723D01*
X-36757073Y-11553897D01*
X-36439000Y-11617166D01*
X-35189000Y-11617166D01*
X-34870927Y-11553897D01*
X-34630875Y-11393500D01*
X-33660498Y-11393500D01*
X-33081166Y-12036113D01*
X-33081166Y-12850000D01*
X-33036927Y-13072403D01*
X-32910946Y-13260946D01*
X-32722403Y-13386927D01*
X-32500000Y-13431166D01*
X-30500000Y-13431166D01*
X-30333334Y-13398014D01*
X-30319521Y-13467457D01*
X-30221265Y-13614507D01*
X-30127234Y-13755235D01*
X-30054593Y-13803772D01*
X-29553773Y-14304593D01*
X-29505235Y-14377235D01*
X-29410742Y-14440373D01*
X-29217458Y-14569522D01*
X-28878000Y-14637044D01*
X-28792314Y-14620000D01*
X-24630685Y-14620000D01*
X-24545000Y-14637044D01*
X-24459315Y-14620000D01*
X-24459314Y-14620000D01*
X-24205543Y-14569522D01*
X-23917765Y-14377235D01*
X-23869226Y-14304591D01*
X-21676634Y-12112000D01*
X-20599818Y-12112000D01*
X-20418000Y-12148166D01*
X-18858000Y-12148166D01*
X-18635597Y-12103927D01*
X-18447054Y-11977946D01*
X-18398397Y-11905126D01*
X-18360602Y-11996372D01*
X-18299166Y-12057808D01*
X-18299166Y-12517000D01*
X-18269329Y-12667000D01*
X-18288000Y-12760865D01*
X-18321073Y-12594597D01*
X-18447054Y-12406054D01*
X-18635597Y-12280073D01*
X-18858000Y-12235834D01*
X-20418000Y-12235834D01*
X-20640403Y-12280073D01*
X-20828946Y-12406054D01*
X-20954927Y-12594597D01*
X-20999166Y-12817000D01*
X-20999166Y-13272800D01*
X-21473518Y-13747153D01*
X-21716992Y-13795583D01*
X-22070926Y-14032073D01*
X-22307416Y-14386007D01*
X-22367732Y-14689229D01*
X-22445087Y-14805000D01*
X-42931791Y-14805000D01*
X-44244791Y-13492000D01*
X-37447000Y-13492000D01*
X-37447000Y-14161776D01*
X-37331601Y-14440373D01*
X-37118372Y-14653602D01*
X-36839775Y-14769000D01*
X-36007500Y-14769000D01*
X-35818000Y-14579500D01*
X-35818000Y-13302500D01*
X-35810000Y-13302500D01*
X-35810000Y-14579500D01*
X-35620500Y-14769000D01*
X-34788225Y-14769000D01*
X-34509628Y-14653602D01*
X-34296399Y-14440373D01*
X-34181000Y-14161776D01*
X-34181000Y-13492000D01*
X-34370500Y-13302500D01*
X-35810000Y-13302500D01*
X-35818000Y-13302500D01*
X-37257500Y-13302500D01*
X-37447000Y-13492000D01*
X-44244791Y-13492000D01*
X-48168875Y-9567918D01*
X-48228573Y-9478573D01*
X-48582507Y-9242083D01*
X-48894618Y-9180000D01*
X-49000000Y-9159038D01*
X-49105382Y-9180000D01*
X-51402619Y-9180000D01*
X-51508001Y-9159038D01*
X-51884847Y-9233998D01*
X-51925493Y-9242083D01*
X-52279427Y-9478573D01*
X-52339124Y-9567916D01*
X-53932084Y-11160877D01*
X-54021426Y-11220573D01*
X-54205460Y-11496000D01*
X-54257917Y-11574508D01*
X-54340962Y-11992000D01*
X-54319999Y-12097387D01*
X-54320000Y-23386617D01*
X-54340962Y-23492000D01*
X-54320000Y-23597381D01*
X-54319999Y-29886614D01*
X-54320000Y-29886619D01*
X-54319999Y-38144613D01*
X-54340962Y-38250000D01*
X-54320000Y-38355382D01*
X-54319999Y-46636618D01*
X-54320000Y-50394618D01*
X-54340962Y-50500000D01*
X-54268045Y-50866574D01*
X-54257917Y-50917492D01*
X-54021427Y-51271427D01*
X-53932082Y-51331125D01*
X-52081122Y-53182087D01*
X-52021427Y-53271427D01*
X-51932082Y-53331125D01*
X-49548207Y-55715000D01*
X-50326613Y-55715000D01*
X-51133368Y-56049169D01*
X-51750831Y-56666632D01*
X-52085000Y-57473387D01*
X-52085000Y-58346613D01*
X-51750831Y-59153368D01*
X-51133368Y-59770831D01*
X-50326613Y-60105000D01*
X-49453387Y-60105000D01*
X-48646632Y-59770831D01*
X-48029169Y-59153368D01*
X-47695000Y-58346613D01*
X-47695000Y-57568208D01*
X-43748123Y-61515085D01*
X-43688427Y-61604427D01*
X-43334493Y-61840917D01*
X-42917000Y-61923962D01*
X-42811618Y-61903000D01*
X-20568781Y-61903000D01*
X-20480066Y-61923460D01*
X-20357975Y-61903000D01*
X-14757707Y-61903000D01*
X-14313708Y-62347000D01*
X-54355000Y-62347000D01*
X-54355000Y-2563387D01*
X-52085000Y-2563387D01*
X-52085000Y-3436613D01*
X-51750831Y-4243368D01*
X-51133368Y-4860831D01*
X-50326613Y-5195000D01*
X-49453387Y-5195000D01*
X-48646632Y-4860831D01*
X-48029169Y-4243368D01*
X-47695000Y-3436613D01*
X-47695000Y-2563387D01*
X-47977654Y-1881000D01*
X-40495000Y-1881000D01*
X-40495000Y-2550776D01*
X-40379601Y-2829373D01*
X-40166372Y-3042602D01*
X-39887775Y-3158000D01*
X-39055500Y-3158000D01*
X-38866000Y-2968500D01*
X-38866000Y-1691500D01*
X-40305500Y-1691500D01*
X-40495000Y-1881000D01*
X-47977654Y-1881000D01*
X-48029169Y-1756632D01*
X-48646632Y-1139169D01*
X-49453387Y-805000D01*
X-50326613Y-805000D01*
X-51133368Y-1139169D01*
X-51750831Y-1756632D01*
X-52085000Y-2563387D01*
X-54355000Y-2563387D01*
X-54355000Y-645000D01*
X-40420763Y-645000D01*
X-40495000Y-824224D01*
X-40495000Y-824224D01*
G37*
X-40495000Y-824224D02*
X-40495000Y-1494000D01*
X-40305500Y-1683500D01*
X-38866000Y-1683500D01*
X-38866000Y-1663500D01*
X-38858000Y-1663500D01*
X-38858000Y-1683500D01*
X-37418500Y-1683500D01*
X-37229000Y-1494000D01*
X-37229000Y-824224D01*
X-37303237Y-645000D01*
X-645000Y-645000D01*
X-645000Y-10134854D01*
X-677597Y-10113073D01*
X-900000Y-10068834D01*
X-2600000Y-10068834D01*
X-2822403Y-10113073D01*
X-3010946Y-10239054D01*
X-3133204Y-10422026D01*
X-3446414Y-10131049D01*
X-4034503Y-9912428D01*
X-4286000Y-10081505D01*
X-4286000Y-11496000D01*
X-4266000Y-11496000D01*
X-4266000Y-11504000D01*
X-4286000Y-11504000D01*
X-4286000Y-11524000D01*
X-4294000Y-11524000D01*
X-4294000Y-11504000D01*
X-5708494Y-11504000D01*
X-5877572Y-11755497D01*
X-5854500Y-11871489D01*
X-5593247Y-12441919D01*
X-5133586Y-12868951D01*
X-5107723Y-12878566D01*
X-5232591Y-12962000D01*
X-6774792Y-12962000D01*
X-8492289Y-11244503D01*
X-5877572Y-11244503D01*
X-5708494Y-11496000D01*
X-4294000Y-11496000D01*
X-4294000Y-10081505D01*
X-4545497Y-9912428D01*
X-5133586Y-10131049D01*
X-5593247Y-10558081D01*
X-5854500Y-11128511D01*
X-5877572Y-11244503D01*
X-8492289Y-11244503D01*
X-13815875Y-5920918D01*
X-13875573Y-5831573D01*
X-14229507Y-5595083D01*
X-14541618Y-5533000D01*
X-14647000Y-5512038D01*
X-14752382Y-5533000D01*
X-16378000Y-5533000D01*
X-16378000Y-5147500D01*
X-16567500Y-4958000D01*
X-17732000Y-4958000D01*
X-17732000Y-4978000D01*
X-17740000Y-4978000D01*
X-17740000Y-4958000D01*
X-18904500Y-4958000D01*
X-19094000Y-5147500D01*
X-19094000Y-5533000D01*
X-24108382Y-5533000D01*
X-24303613Y-5571834D01*
X-24603000Y-5571834D01*
X-24825403Y-5616073D01*
X-25013946Y-5742054D01*
X-25041305Y-5783000D01*
X-25772242Y-5783000D01*
X-25853000Y-5766936D01*
X-25933759Y-5783000D01*
X-26172948Y-5830578D01*
X-26444187Y-6011813D01*
X-26489935Y-6080280D01*
X-27228489Y-6818834D01*
X-28500000Y-6818834D01*
X-28630000Y-6844693D01*
X-28630000Y-5471296D01*
X-28527597Y-5450927D01*
X-28339054Y-5324946D01*
X-28213073Y-5136403D01*
X-28168834Y-4914000D01*
X-28168834Y-3496500D01*
X-25361000Y-3496500D01*
X-25361000Y-3903776D01*
X-25245601Y-4182373D01*
X-25032372Y-4395602D01*
X-24753775Y-4511000D01*
X-24196500Y-4511000D01*
X-24007000Y-4321500D01*
X-24007000Y-3307000D01*
X-23999000Y-3307000D01*
X-23999000Y-4321500D01*
X-23809500Y-4511000D01*
X-23252225Y-4511000D01*
X-22973628Y-4395602D01*
X-22931250Y-4353224D01*
X-19094000Y-4353224D01*
X-19094000Y-4760500D01*
X-18904500Y-4950000D01*
X-17740000Y-4950000D01*
X-17740000Y-3935500D01*
X-17732000Y-3935500D01*
X-17732000Y-4950000D01*
X-16567500Y-4950000D01*
X-16378000Y-4760500D01*
X-16378000Y-4353224D01*
X-16493399Y-4074627D01*
X-16706628Y-3861398D01*
X-16985225Y-3746000D01*
X-17542500Y-3746000D01*
X-17732000Y-3935500D01*
X-17740000Y-3935500D01*
X-17929500Y-3746000D01*
X-18486775Y-3746000D01*
X-18765372Y-3861398D01*
X-18978601Y-4074627D01*
X-19094000Y-4353224D01*
X-22931250Y-4353224D01*
X-22760399Y-4182373D01*
X-22645000Y-3903776D01*
X-22645000Y-3496500D01*
X-22834500Y-3307000D01*
X-23999000Y-3307000D01*
X-24007000Y-3307000D01*
X-25171500Y-3307000D01*
X-25361000Y-3496500D01*
X-28168834Y-3496500D01*
X-28168834Y-3214000D01*
X-28213073Y-2991597D01*
X-28339054Y-2803054D01*
X-28489956Y-2702224D01*
X-25361000Y-2702224D01*
X-25361000Y-3109500D01*
X-25171500Y-3299000D01*
X-24007000Y-3299000D01*
X-24007000Y-2284500D01*
X-23999000Y-2284500D01*
X-23999000Y-3299000D01*
X-22834500Y-3299000D01*
X-22645000Y-3109500D01*
X-22645000Y-2702224D01*
X-22760399Y-2423627D01*
X-22973628Y-2210398D01*
X-23252225Y-2095000D01*
X-23809500Y-2095000D01*
X-23999000Y-2284500D01*
X-24007000Y-2284500D01*
X-24196500Y-2095000D01*
X-24753775Y-2095000D01*
X-25032372Y-2210398D01*
X-25245601Y-2423627D01*
X-25361000Y-2702224D01*
X-28489956Y-2702224D01*
X-28527597Y-2677073D01*
X-28750000Y-2632834D01*
X-30750000Y-2632834D01*
X-30972403Y-2677073D01*
X-31160946Y-2803054D01*
X-31286927Y-2991597D01*
X-31331166Y-3214000D01*
X-31331166Y-4914000D01*
X-31286927Y-5136403D01*
X-31160946Y-5324946D01*
X-30972403Y-5450927D01*
X-30750000Y-5495166D01*
X-30569919Y-5495166D01*
X-30568957Y-5500000D01*
X-30522422Y-5733947D01*
X-30370000Y-5962065D01*
X-30370000Y-6844693D01*
X-30500000Y-6818834D01*
X-32500000Y-6818834D01*
X-32722403Y-6863073D01*
X-32910946Y-6989054D01*
X-33036927Y-7177597D01*
X-33081166Y-7400000D01*
X-33081166Y-7430000D01*
X-40489242Y-7430000D01*
X-40541403Y-7419624D01*
X-40246616Y-7297519D01*
X-39872481Y-6923384D01*
X-39670000Y-6434553D01*
X-39670000Y-6167208D01*
X-39458958Y-5956166D01*
X-38237000Y-5956166D01*
X-37918927Y-5892897D01*
X-37649277Y-5712723D01*
X-37469103Y-5443073D01*
X-37407624Y-5134000D01*
X-35287405Y-5134000D01*
X-35286927Y-5136403D01*
X-35160946Y-5324946D01*
X-34972403Y-5450927D01*
X-34750000Y-5495166D01*
X-32750000Y-5495166D01*
X-32527597Y-5450927D01*
X-32339054Y-5324946D01*
X-32213073Y-5136403D01*
X-32168834Y-4914000D01*
X-32168834Y-3214000D01*
X-32213073Y-2991597D01*
X-32339054Y-2803054D01*
X-32527597Y-2677073D01*
X-32750000Y-2632834D01*
X-34750000Y-2632834D01*
X-34972403Y-2677073D01*
X-35160946Y-2803054D01*
X-35286927Y-2991597D01*
X-35287405Y-2994000D01*
X-37509026Y-2994000D01*
X-37344399Y-2829373D01*
X-37229000Y-2550776D01*
X-37229000Y-1881000D01*
X-37418500Y-1691500D01*
X-38858000Y-1691500D01*
X-38858000Y-2968500D01*
X-38734599Y-3091901D01*
X-39034927Y-3292573D01*
X-39085883Y-3368834D01*
X-39487000Y-3368834D01*
X-39805073Y-3432103D01*
X-40074723Y-3612277D01*
X-40108635Y-3663030D01*
X-40449927Y-3891073D01*
X-40509622Y-3980413D01*
X-41443210Y-4914002D01*
X-41753384Y-5042481D01*
X-42127519Y-5416616D01*
X-42330000Y-5905447D01*
X-42330000Y-6434553D01*
X-42127519Y-6923384D01*
X-41753384Y-7297519D01*
X-41445619Y-7425000D01*
X-41753384Y-7552481D01*
X-42127519Y-7926616D01*
X-42330000Y-8415447D01*
X-42330000Y-8598026D01*
X-42350628Y-8577398D01*
X-42629225Y-8462000D01*
X-42711097Y-8462000D01*
X-42412481Y-8163384D01*
X-42210000Y-7674553D01*
X-42210000Y-7145447D01*
X-42412481Y-6656616D01*
X-42786616Y-6282481D01*
X-43275447Y-6080000D01*
X-43804553Y-6080000D01*
X-44293384Y-6282481D01*
X-44667519Y-6656616D01*
X-44870000Y-7145447D01*
X-44870000Y-7580345D01*
X-45772720Y-8483065D01*
X-45841186Y-8528813D01*
X-45903112Y-8621493D01*
X-46022422Y-8800053D01*
X-46086064Y-9120000D01*
X-46069999Y-9200763D01*
X-46070000Y-10717243D01*
X-46086064Y-10798002D01*
X-46070000Y-10878760D01*
X-46022422Y-11117949D01*
X-45841187Y-11389189D01*
X-45772718Y-11434939D01*
X-44934937Y-12272720D01*
X-44889189Y-12341187D01*
X-44617950Y-12522422D01*
X-44378761Y-12570000D01*
X-44378760Y-12570000D01*
X-44298003Y-12586064D01*
X-44217246Y-12570000D01*
X-39262758Y-12570000D01*
X-39182000Y-12586064D01*
X-39101242Y-12570000D01*
X-39101241Y-12570000D01*
X-38862052Y-12522422D01*
X-38731551Y-12435224D01*
X-37447000Y-12435224D01*
X-37447000Y-13105000D01*
X-37257500Y-13294500D01*
X-35818000Y-13294500D01*
X-35818000Y-12017500D01*
X-35810000Y-12017500D01*
X-35810000Y-13294500D01*
X-34370500Y-13294500D01*
X-34181000Y-13105000D01*
X-34181000Y-12435224D01*
X-34296399Y-12156627D01*
X-34509628Y-11943398D01*
X-34788225Y-11828000D01*
X-35620500Y-11828000D01*
X-35810000Y-12017500D01*
X-35818000Y-12017500D01*
X-36007500Y-11828000D01*
X-36839775Y-11828000D01*
X-37118372Y-11943398D01*
X-37331601Y-12156627D01*
X-37447000Y-12435224D01*
X-38731551Y-12435224D01*
X-38590813Y-12341187D01*
X-38545063Y-12272717D01*
X-37415845Y-11143500D01*
X-37180553Y-11143500D01*
X-37026723Y-11373723D01*
X-36757073Y-11553897D01*
X-36439000Y-11617166D01*
X-35189000Y-11617166D01*
X-34870927Y-11553897D01*
X-34630875Y-11393500D01*
X-33660498Y-11393500D01*
X-33081166Y-12036113D01*
X-33081166Y-12850000D01*
X-33036927Y-13072403D01*
X-32910946Y-13260946D01*
X-32722403Y-13386927D01*
X-32500000Y-13431166D01*
X-30500000Y-13431166D01*
X-30333334Y-13398014D01*
X-30319521Y-13467457D01*
X-30221265Y-13614507D01*
X-30127234Y-13755235D01*
X-30054593Y-13803772D01*
X-29553773Y-14304593D01*
X-29505235Y-14377235D01*
X-29410742Y-14440373D01*
X-29217458Y-14569522D01*
X-28878000Y-14637044D01*
X-28792314Y-14620000D01*
X-24630685Y-14620000D01*
X-24545000Y-14637044D01*
X-24459315Y-14620000D01*
X-24459314Y-14620000D01*
X-24205543Y-14569522D01*
X-23917765Y-14377235D01*
X-23869226Y-14304591D01*
X-21676634Y-12112000D01*
X-20599818Y-12112000D01*
X-20418000Y-12148166D01*
X-18858000Y-12148166D01*
X-18635597Y-12103927D01*
X-18447054Y-11977946D01*
X-18398397Y-11905126D01*
X-18360602Y-11996372D01*
X-18299166Y-12057808D01*
X-18299166Y-12517000D01*
X-18269329Y-12667000D01*
X-18288000Y-12760865D01*
X-18321073Y-12594597D01*
X-18447054Y-12406054D01*
X-18635597Y-12280073D01*
X-18858000Y-12235834D01*
X-20418000Y-12235834D01*
X-20640403Y-12280073D01*
X-20828946Y-12406054D01*
X-20954927Y-12594597D01*
X-20999166Y-12817000D01*
X-20999166Y-13272800D01*
X-21473518Y-13747153D01*
X-21716992Y-13795583D01*
X-22070926Y-14032073D01*
X-22307416Y-14386007D01*
X-22367732Y-14689229D01*
X-22445087Y-14805000D01*
X-42931791Y-14805000D01*
X-44244791Y-13492000D01*
X-37447000Y-13492000D01*
X-37447000Y-14161776D01*
X-37331601Y-14440373D01*
X-37118372Y-14653602D01*
X-36839775Y-14769000D01*
X-36007500Y-14769000D01*
X-35818000Y-14579500D01*
X-35818000Y-13302500D01*
X-35810000Y-13302500D01*
X-35810000Y-14579500D01*
X-35620500Y-14769000D01*
X-34788225Y-14769000D01*
X-34509628Y-14653602D01*
X-34296399Y-14440373D01*
X-34181000Y-14161776D01*
X-34181000Y-13492000D01*
X-34370500Y-13302500D01*
X-35810000Y-13302500D01*
X-35818000Y-13302500D01*
X-37257500Y-13302500D01*
X-37447000Y-13492000D01*
X-44244791Y-13492000D01*
X-48168875Y-9567918D01*
X-48228573Y-9478573D01*
X-48582507Y-9242083D01*
X-48894618Y-9180000D01*
X-49000000Y-9159038D01*
X-49105382Y-9180000D01*
X-51402619Y-9180000D01*
X-51508001Y-9159038D01*
X-51884847Y-9233998D01*
X-51925493Y-9242083D01*
X-52279427Y-9478573D01*
X-52339124Y-9567916D01*
X-53932084Y-11160877D01*
X-54021426Y-11220573D01*
X-54205460Y-11496000D01*
X-54257917Y-11574508D01*
X-54340962Y-11992000D01*
X-54319999Y-12097387D01*
X-54320000Y-23386617D01*
X-54340962Y-23492000D01*
X-54320000Y-23597381D01*
X-54319999Y-29886614D01*
X-54320000Y-29886619D01*
X-54319999Y-38144613D01*
X-54340962Y-38250000D01*
X-54320000Y-38355382D01*
X-54319999Y-46636618D01*
X-54320000Y-50394618D01*
X-54340962Y-50500000D01*
X-54268045Y-50866574D01*
X-54257917Y-50917492D01*
X-54021427Y-51271427D01*
X-53932082Y-51331125D01*
X-52081122Y-53182087D01*
X-52021427Y-53271427D01*
X-51932082Y-53331125D01*
X-49548207Y-55715000D01*
X-50326613Y-55715000D01*
X-51133368Y-56049169D01*
X-51750831Y-56666632D01*
X-52085000Y-57473387D01*
X-52085000Y-58346613D01*
X-51750831Y-59153368D01*
X-51133368Y-59770831D01*
X-50326613Y-60105000D01*
X-49453387Y-60105000D01*
X-48646632Y-59770831D01*
X-48029169Y-59153368D01*
X-47695000Y-58346613D01*
X-47695000Y-57568208D01*
X-43748123Y-61515085D01*
X-43688427Y-61604427D01*
X-43334493Y-61840917D01*
X-42917000Y-61923962D01*
X-42811618Y-61903000D01*
X-20568781Y-61903000D01*
X-20480066Y-61923460D01*
X-20357975Y-61903000D01*
X-14757707Y-61903000D01*
X-14313708Y-62347000D01*
X-54355000Y-62347000D01*
X-54355000Y-2563387D01*
X-52085000Y-2563387D01*
X-52085000Y-3436613D01*
X-51750831Y-4243368D01*
X-51133368Y-4860831D01*
X-50326613Y-5195000D01*
X-49453387Y-5195000D01*
X-48646632Y-4860831D01*
X-48029169Y-4243368D01*
X-47695000Y-3436613D01*
X-47695000Y-2563387D01*
X-47977654Y-1881000D01*
X-40495000Y-1881000D01*
X-40495000Y-2550776D01*
X-40379601Y-2829373D01*
X-40166372Y-3042602D01*
X-39887775Y-3158000D01*
X-39055500Y-3158000D01*
X-38866000Y-2968500D01*
X-38866000Y-1691500D01*
X-40305500Y-1691500D01*
X-40495000Y-1881000D01*
X-47977654Y-1881000D01*
X-48029169Y-1756632D01*
X-48646632Y-1139169D01*
X-49453387Y-805000D01*
X-50326613Y-805000D01*
X-51133368Y-1139169D01*
X-51750831Y-1756632D01*
X-52085000Y-2563387D01*
X-54355000Y-2563387D01*
X-54355000Y-645000D01*
X-40420763Y-645000D01*
X-40495000Y-824224D01*
G36*
X-8123772Y-47606594D02*
X-8075235Y-47679235D01*
X-7787457Y-47871522D01*
X-7533686Y-47922000D01*
X-7533682Y-47922000D01*
X-7448001Y-47939043D01*
X-7362320Y-47922000D01*
X-5421849Y-47922000D01*
X-5313763Y-48083763D01*
X-5107723Y-48221434D01*
X-5133586Y-48231049D01*
X-5593247Y-48658081D01*
X-5854500Y-49228511D01*
X-5877572Y-49344503D01*
X-5708494Y-49596000D01*
X-4294000Y-49596000D01*
X-4294000Y-49576000D01*
X-4286000Y-49576000D01*
X-4286000Y-49596000D01*
X-4266000Y-49596000D01*
X-4266000Y-49604000D01*
X-4286000Y-49604000D01*
X-4286000Y-49624000D01*
X-4294000Y-49624000D01*
X-4294000Y-49604000D01*
X-5708494Y-49604000D01*
X-5877572Y-49855497D01*
X-5854500Y-49971489D01*
X-5593247Y-50541919D01*
X-5133586Y-50968951D01*
X-5107723Y-50978566D01*
X-5232591Y-51062000D01*
X-8174791Y-51062000D01*
X-9880875Y-49355918D01*
X-9940573Y-49266573D01*
X-10294507Y-49030083D01*
X-10606618Y-48968000D01*
X-10712000Y-48947038D01*
X-10817382Y-48968000D01*
X-18410000Y-48968000D01*
X-18410000Y-48581500D01*
X-18599500Y-48392000D01*
X-19764000Y-48392000D01*
X-19764000Y-48412000D01*
X-19772000Y-48412000D01*
X-19772000Y-48392000D01*
X-20936500Y-48392000D01*
X-21126000Y-48581500D01*
X-21126000Y-48968000D01*
X-22504219Y-48968000D01*
X-22574807Y-48949235D01*
X-22715198Y-48968000D01*
X-22749392Y-48968000D01*
X-22819438Y-48981933D01*
X-22996727Y-49005630D01*
X-23027084Y-49023237D01*
X-23061503Y-49030083D01*
X-23210223Y-49129454D01*
X-23272004Y-49165286D01*
X-23297669Y-49187883D01*
X-23415437Y-49266573D01*
X-23456016Y-49327304D01*
X-24921925Y-50618000D01*
X-26223382Y-50618000D01*
X-26418613Y-50656834D01*
X-26718000Y-50656834D01*
X-26940403Y-50701073D01*
X-27128946Y-50827054D01*
X-27189714Y-50918000D01*
X-27813155Y-50918000D01*
X-28000000Y-50880834D01*
X-30000000Y-50880834D01*
X-30074000Y-50895554D01*
X-30074000Y-50891685D01*
X-30056956Y-50806000D01*
X-30074045Y-50720087D01*
X-30081787Y-50681166D01*
X-30000000Y-50681166D01*
X-29777597Y-50636927D01*
X-29589054Y-50510946D01*
X-29463073Y-50322403D01*
X-29418834Y-50100000D01*
X-29418834Y-48581500D01*
X-27476000Y-48581500D01*
X-27476000Y-48988776D01*
X-27360601Y-49267373D01*
X-27147372Y-49480602D01*
X-26868775Y-49596000D01*
X-26311500Y-49596000D01*
X-26122000Y-49406500D01*
X-26122000Y-48392000D01*
X-26114000Y-48392000D01*
X-26114000Y-49406500D01*
X-25924500Y-49596000D01*
X-25367225Y-49596000D01*
X-25088628Y-49480602D01*
X-24875399Y-49267373D01*
X-24760000Y-48988776D01*
X-24760000Y-48581500D01*
X-24949500Y-48392000D01*
X-26114000Y-48392000D01*
X-26122000Y-48392000D01*
X-27286500Y-48392000D01*
X-27476000Y-48581500D01*
X-29418834Y-48581500D01*
X-29418834Y-48400000D01*
X-29463073Y-48177597D01*
X-29589054Y-47989054D01*
X-29777597Y-47863073D01*
X-30000000Y-47818834D01*
X-32000000Y-47818834D01*
X-32222403Y-47863073D01*
X-32410946Y-47989054D01*
X-32536927Y-48177597D01*
X-32581166Y-48400000D01*
X-32581166Y-50100000D01*
X-32536927Y-50322403D01*
X-32410946Y-50510946D01*
X-32222403Y-50636927D01*
X-32000000Y-50681166D01*
X-31873352Y-50681166D01*
X-31887044Y-50750000D01*
X-31870000Y-50835685D01*
X-31855294Y-50909618D01*
X-32000000Y-50880834D01*
X-34000000Y-50880834D01*
X-34222403Y-50925073D01*
X-34410946Y-51051054D01*
X-34536927Y-51239597D01*
X-34537405Y-51242000D01*
X-35874620Y-51242000D01*
X-35980001Y-51221038D01*
X-36085382Y-51242000D01*
X-36397493Y-51304083D01*
X-36751427Y-51540573D01*
X-36811122Y-51629913D01*
X-37319208Y-52138000D01*
X-40465056Y-52138000D01*
X-40246616Y-52047519D01*
X-39872481Y-51673384D01*
X-39670000Y-51184553D01*
X-39670000Y-50871208D01*
X-39458958Y-50660166D01*
X-38237000Y-50660166D01*
X-37918927Y-50596897D01*
X-37678875Y-50436500D01*
X-36460689Y-50436500D01*
X-36410946Y-50510946D01*
X-36222403Y-50636927D01*
X-36000000Y-50681166D01*
X-34000000Y-50681166D01*
X-33777597Y-50636927D01*
X-33589054Y-50510946D01*
X-33463073Y-50322403D01*
X-33418834Y-50100000D01*
X-33418834Y-48400000D01*
X-33463073Y-48177597D01*
X-33589054Y-47989054D01*
X-33777597Y-47863073D01*
X-34000000Y-47818834D01*
X-36000000Y-47818834D01*
X-36222403Y-47863073D01*
X-36410946Y-47989054D01*
X-36536927Y-48177597D01*
X-36560578Y-48296500D01*
X-37678875Y-48296500D01*
X-37918927Y-48136103D01*
X-38237000Y-48072834D01*
X-39487000Y-48072834D01*
X-39805073Y-48136103D01*
X-40074723Y-48316277D01*
X-40108635Y-48367030D01*
X-40449927Y-48595073D01*
X-40509622Y-48684413D01*
X-41521737Y-49696529D01*
X-41753384Y-49792481D01*
X-42127519Y-50166616D01*
X-42330000Y-50655447D01*
X-42330000Y-51184553D01*
X-42127519Y-51673384D01*
X-41753384Y-52047519D01*
X-41445619Y-52175000D01*
X-41753384Y-52302481D01*
X-42127519Y-52676616D01*
X-42330000Y-53165447D01*
X-42330000Y-53348026D01*
X-42350628Y-53327398D01*
X-42629225Y-53212000D01*
X-42711097Y-53212000D01*
X-42412481Y-52913384D01*
X-42210000Y-52424553D01*
X-42210000Y-51895447D01*
X-42412481Y-51406616D01*
X-42786616Y-51032481D01*
X-43275447Y-50830000D01*
X-43804553Y-50830000D01*
X-44293384Y-51032481D01*
X-44667519Y-51406616D01*
X-44870000Y-51895447D01*
X-44870000Y-52330345D01*
X-45772720Y-53233065D01*
X-45841186Y-53278813D01*
X-45923162Y-53401500D01*
X-46022422Y-53550053D01*
X-46086064Y-53870000D01*
X-46069999Y-53950763D01*
X-46070000Y-55467243D01*
X-46086064Y-55548002D01*
X-46070000Y-55628760D01*
X-46022422Y-55867949D01*
X-45841187Y-56139189D01*
X-45772718Y-56184939D01*
X-44934937Y-57022720D01*
X-44889189Y-57091187D01*
X-44617950Y-57272422D01*
X-44378761Y-57320000D01*
X-44378760Y-57320000D01*
X-44298003Y-57336064D01*
X-44217246Y-57320000D01*
X-38051258Y-57320000D01*
X-37970500Y-57336064D01*
X-37889742Y-57320000D01*
X-37889741Y-57320000D01*
X-37650552Y-57272422D01*
X-37518732Y-57184343D01*
X-37443073Y-57234897D01*
X-37125000Y-57298166D01*
X-35875000Y-57298166D01*
X-35556927Y-57234897D01*
X-35316875Y-57074500D01*
X-34535526Y-57074500D01*
X-34410946Y-57260946D01*
X-34222403Y-57386927D01*
X-34000000Y-57431166D01*
X-32000000Y-57431166D01*
X-31829710Y-57397293D01*
X-31831044Y-57404000D01*
X-31814000Y-57489685D01*
X-31763522Y-57743456D01*
X-31571235Y-58031235D01*
X-31498591Y-58079774D01*
X-30857773Y-58720593D01*
X-30809235Y-58793235D01*
X-30736594Y-58841772D01*
X-30521458Y-58985522D01*
X-30182000Y-59053044D01*
X-30096314Y-59036000D01*
X-25187685Y-59036000D01*
X-25102000Y-59053044D01*
X-25016315Y-59036000D01*
X-25016314Y-59036000D01*
X-24762543Y-58985522D01*
X-24474765Y-58793235D01*
X-24426226Y-58720591D01*
X-22013634Y-56308000D01*
X-21317818Y-56308000D01*
X-21136000Y-56344166D01*
X-19576000Y-56344166D01*
X-19353597Y-56299927D01*
X-19165054Y-56173946D01*
X-19116397Y-56101126D01*
X-19078602Y-56192372D01*
X-19017166Y-56253808D01*
X-19017166Y-56713000D01*
X-18987329Y-56863000D01*
X-19006000Y-56956865D01*
X-19039073Y-56790597D01*
X-19165054Y-56602054D01*
X-19353597Y-56476073D01*
X-19576000Y-56431834D01*
X-21136000Y-56431834D01*
X-21358403Y-56476073D01*
X-21546946Y-56602054D01*
X-21672927Y-56790597D01*
X-21717166Y-57013000D01*
X-21717166Y-57663000D01*
X-21672927Y-57885403D01*
X-21546946Y-58073946D01*
X-21436074Y-58148028D01*
X-21485046Y-59763000D01*
X-34867000Y-59763000D01*
X-34867000Y-59173000D01*
X-35056500Y-58983500D01*
X-36496000Y-58983500D01*
X-36496000Y-59003500D01*
X-36504000Y-59003500D01*
X-36504000Y-58983500D01*
X-37943500Y-58983500D01*
X-38133000Y-59173000D01*
X-38133000Y-59763000D01*
X-42473792Y-59763000D01*
X-44120568Y-58116224D01*
X-38133000Y-58116224D01*
X-38133000Y-58786000D01*
X-37943500Y-58975500D01*
X-36504000Y-58975500D01*
X-36504000Y-57698500D01*
X-36496000Y-57698500D01*
X-36496000Y-58975500D01*
X-35056500Y-58975500D01*
X-34867000Y-58786000D01*
X-34867000Y-58116224D01*
X-34982399Y-57837627D01*
X-35195628Y-57624398D01*
X-35474225Y-57509000D01*
X-36306500Y-57509000D01*
X-36496000Y-57698500D01*
X-36504000Y-57698500D01*
X-36693500Y-57509000D01*
X-37525775Y-57509000D01*
X-37804372Y-57624398D01*
X-38017601Y-57837627D01*
X-38133000Y-58116224D01*
X-44120568Y-58116224D01*
X-49629892Y-52606901D01*
X-44323905Y-47300915D01*
X-44234563Y-47241219D01*
X-43998073Y-46887285D01*
X-43977975Y-46786246D01*
X-43937945Y-46585000D01*
X-40495000Y-46585000D01*
X-40495000Y-47254776D01*
X-40379601Y-47533373D01*
X-40166372Y-47746602D01*
X-39887775Y-47862000D01*
X-39055500Y-47862000D01*
X-38866000Y-47672500D01*
X-38866000Y-46395500D01*
X-38858000Y-46395500D01*
X-38858000Y-47672500D01*
X-38668500Y-47862000D01*
X-37836225Y-47862000D01*
X-37655699Y-47787224D01*
X-27476000Y-47787224D01*
X-27476000Y-48194500D01*
X-27286500Y-48384000D01*
X-26122000Y-48384000D01*
X-26122000Y-47369500D01*
X-26114000Y-47369500D01*
X-26114000Y-48384000D01*
X-24949500Y-48384000D01*
X-24760000Y-48194500D01*
X-24760000Y-47787224D01*
X-24875399Y-47508627D01*
X-25088628Y-47295398D01*
X-25367225Y-47180000D01*
X-25924500Y-47180000D01*
X-26114000Y-47369500D01*
X-26122000Y-47369500D01*
X-26311500Y-47180000D01*
X-26868775Y-47180000D01*
X-27147372Y-47295398D01*
X-27360601Y-47508627D01*
X-27476000Y-47787224D01*
X-37655699Y-47787224D01*
X-37557628Y-47746602D01*
X-37344399Y-47533373D01*
X-37229000Y-47254776D01*
X-37229000Y-46585000D01*
X-37418500Y-46395500D01*
X-38858000Y-46395500D01*
X-38866000Y-46395500D01*
X-40305500Y-46395500D01*
X-40495000Y-46585000D01*
X-43937945Y-46585000D01*
X-43915028Y-46469792D01*
X-43935990Y-46364410D01*
X-43935990Y-45948990D01*
X-40495000Y-45948990D01*
X-40495000Y-46198000D01*
X-40305500Y-46387500D01*
X-38866000Y-46387500D01*
X-38866000Y-46367500D01*
X-38858000Y-46367500D01*
X-38858000Y-46387500D01*
X-37418500Y-46387500D01*
X-37229000Y-46198000D01*
X-37229000Y-45948990D01*
X-30590447Y-45948990D01*
X-30520200Y-45995927D01*
X-30208089Y-46058010D01*
X-30102707Y-46078972D01*
X-29997325Y-46058010D01*
X-22106392Y-46058010D01*
X-22001010Y-46078972D01*
X-21895628Y-46058010D01*
X-21583517Y-45995927D01*
X-21259218Y-45779238D01*
X-20438195Y-46963407D01*
X-20318798Y-47136911D01*
X-20252360Y-47180000D01*
X-20518775Y-47180000D01*
X-20797372Y-47295398D01*
X-21010601Y-47508627D01*
X-21126000Y-47787224D01*
X-21126000Y-48194500D01*
X-20936500Y-48384000D01*
X-19772000Y-48384000D01*
X-19772000Y-48364000D01*
X-19764000Y-48364000D01*
X-19764000Y-48384000D01*
X-18599500Y-48384000D01*
X-18410000Y-48194500D01*
X-18410000Y-47787224D01*
X-18525399Y-47508627D01*
X-18621740Y-47412286D01*
X-18050232Y-47404464D01*
X-17834073Y-47548897D01*
X-17516000Y-47612166D01*
X-16266000Y-47612166D01*
X-15947927Y-47548897D01*
X-15678277Y-47368723D01*
X-15624674Y-47288500D01*
X-15208192Y-47288500D01*
X-15053403Y-47391927D01*
X-14831000Y-47436166D01*
X-13831000Y-47436166D01*
X-13608597Y-47391927D01*
X-13420054Y-47265946D01*
X-13294073Y-47077403D01*
X-13249834Y-46855000D01*
X-13249834Y-46548500D01*
X-13089000Y-46548500D01*
X-13089000Y-47005775D01*
X-12973602Y-47284372D01*
X-12760373Y-47497601D01*
X-12481776Y-47613000D01*
X-12024500Y-47613000D01*
X-11835000Y-47423500D01*
X-11835000Y-46359000D01*
X-11827000Y-46359000D01*
X-11827000Y-47423500D01*
X-11637500Y-47613000D01*
X-11180224Y-47613000D01*
X-10901627Y-47497601D01*
X-10688398Y-47284372D01*
X-10573000Y-47005775D01*
X-10573000Y-46548500D01*
X-10762500Y-46359000D01*
X-11827000Y-46359000D01*
X-11835000Y-46359000D01*
X-12899500Y-46359000D01*
X-13089000Y-46548500D01*
X-13249834Y-46548500D01*
X-13249834Y-45855000D01*
X-13279825Y-45704225D01*
X-13089000Y-45704225D01*
X-13089000Y-46161500D01*
X-12899500Y-46351000D01*
X-11835000Y-46351000D01*
X-11835000Y-45286500D01*
X-11827000Y-45286500D01*
X-11827000Y-46351000D01*
X-10762500Y-46351000D01*
X-10573000Y-46161500D01*
X-10573000Y-45704225D01*
X-10688398Y-45425628D01*
X-10901627Y-45212399D01*
X-11180224Y-45097000D01*
X-11637500Y-45097000D01*
X-11827000Y-45286500D01*
X-11835000Y-45286500D01*
X-12024500Y-45097000D01*
X-12481776Y-45097000D01*
X-12760373Y-45212399D01*
X-12973602Y-45425628D01*
X-13089000Y-45704225D01*
X-13279825Y-45704225D01*
X-13294073Y-45632597D01*
X-13420054Y-45444054D01*
X-13608597Y-45318073D01*
X-13831000Y-45273834D01*
X-14831000Y-45273834D01*
X-15053403Y-45318073D01*
X-15098940Y-45348500D01*
X-15624674Y-45348500D01*
X-15678277Y-45268277D01*
X-15947927Y-45088103D01*
X-16266000Y-45024834D01*
X-17516000Y-45024834D01*
X-17834073Y-45088103D01*
X-18098713Y-45264929D01*
X-19003176Y-45277307D01*
X-20209791Y-43537000D01*
X-18524000Y-43537000D01*
X-18524000Y-44206776D01*
X-18408601Y-44485373D01*
X-18195372Y-44698602D01*
X-17916775Y-44814000D01*
X-17084500Y-44814000D01*
X-16895000Y-44624500D01*
X-16895000Y-43347500D01*
X-16887000Y-43347500D01*
X-16887000Y-44624500D01*
X-16697500Y-44814000D01*
X-15865225Y-44814000D01*
X-15586628Y-44698602D01*
X-15373399Y-44485373D01*
X-15258000Y-44206776D01*
X-15258000Y-43537000D01*
X-15447500Y-43347500D01*
X-16887000Y-43347500D01*
X-16895000Y-43347500D01*
X-18334500Y-43347500D01*
X-18524000Y-43537000D01*
X-20209791Y-43537000D01*
X-20233440Y-43502891D01*
X-20248000Y-43481100D01*
X-20248000Y-42478264D01*
X-20115597Y-42451927D01*
X-19927054Y-42325946D01*
X-19801073Y-42137403D01*
X-19768000Y-41971135D01*
X-19734927Y-42137403D01*
X-19608946Y-42325946D01*
X-19420403Y-42451927D01*
X-19198000Y-42496166D01*
X-18524000Y-42496166D01*
X-18524000Y-43150000D01*
X-18334500Y-43339500D01*
X-16895000Y-43339500D01*
X-16895000Y-42062500D01*
X-16887000Y-42062500D01*
X-16887000Y-43339500D01*
X-15447500Y-43339500D01*
X-15258000Y-43150000D01*
X-15258000Y-42480224D01*
X-15373399Y-42201627D01*
X-15586628Y-41988398D01*
X-15865225Y-41873000D01*
X-16697500Y-41873000D01*
X-16887000Y-42062500D01*
X-16895000Y-42062500D01*
X-17056834Y-41900666D01*
X-17056834Y-41510000D01*
X-14220365Y-41510000D01*
X-8123772Y-47606594D01*
X-8123772Y-47606594D01*
G37*
X-8123772Y-47606594D02*
X-8075235Y-47679235D01*
X-7787457Y-47871522D01*
X-7533686Y-47922000D01*
X-7533682Y-47922000D01*
X-7448001Y-47939043D01*
X-7362320Y-47922000D01*
X-5421849Y-47922000D01*
X-5313763Y-48083763D01*
X-5107723Y-48221434D01*
X-5133586Y-48231049D01*
X-5593247Y-48658081D01*
X-5854500Y-49228511D01*
X-5877572Y-49344503D01*
X-5708494Y-49596000D01*
X-4294000Y-49596000D01*
X-4294000Y-49576000D01*
X-4286000Y-49576000D01*
X-4286000Y-49596000D01*
X-4266000Y-49596000D01*
X-4266000Y-49604000D01*
X-4286000Y-49604000D01*
X-4286000Y-49624000D01*
X-4294000Y-49624000D01*
X-4294000Y-49604000D01*
X-5708494Y-49604000D01*
X-5877572Y-49855497D01*
X-5854500Y-49971489D01*
X-5593247Y-50541919D01*
X-5133586Y-50968951D01*
X-5107723Y-50978566D01*
X-5232591Y-51062000D01*
X-8174791Y-51062000D01*
X-9880875Y-49355918D01*
X-9940573Y-49266573D01*
X-10294507Y-49030083D01*
X-10606618Y-48968000D01*
X-10712000Y-48947038D01*
X-10817382Y-48968000D01*
X-18410000Y-48968000D01*
X-18410000Y-48581500D01*
X-18599500Y-48392000D01*
X-19764000Y-48392000D01*
X-19764000Y-48412000D01*
X-19772000Y-48412000D01*
X-19772000Y-48392000D01*
X-20936500Y-48392000D01*
X-21126000Y-48581500D01*
X-21126000Y-48968000D01*
X-22504219Y-48968000D01*
X-22574807Y-48949235D01*
X-22715198Y-48968000D01*
X-22749392Y-48968000D01*
X-22819438Y-48981933D01*
X-22996727Y-49005630D01*
X-23027084Y-49023237D01*
X-23061503Y-49030083D01*
X-23210223Y-49129454D01*
X-23272004Y-49165286D01*
X-23297669Y-49187883D01*
X-23415437Y-49266573D01*
X-23456016Y-49327304D01*
X-24921925Y-50618000D01*
X-26223382Y-50618000D01*
X-26418613Y-50656834D01*
X-26718000Y-50656834D01*
X-26940403Y-50701073D01*
X-27128946Y-50827054D01*
X-27189714Y-50918000D01*
X-27813155Y-50918000D01*
X-28000000Y-50880834D01*
X-30000000Y-50880834D01*
X-30074000Y-50895554D01*
X-30074000Y-50891685D01*
X-30056956Y-50806000D01*
X-30074045Y-50720087D01*
X-30081787Y-50681166D01*
X-30000000Y-50681166D01*
X-29777597Y-50636927D01*
X-29589054Y-50510946D01*
X-29463073Y-50322403D01*
X-29418834Y-50100000D01*
X-29418834Y-48581500D01*
X-27476000Y-48581500D01*
X-27476000Y-48988776D01*
X-27360601Y-49267373D01*
X-27147372Y-49480602D01*
X-26868775Y-49596000D01*
X-26311500Y-49596000D01*
X-26122000Y-49406500D01*
X-26122000Y-48392000D01*
X-26114000Y-48392000D01*
X-26114000Y-49406500D01*
X-25924500Y-49596000D01*
X-25367225Y-49596000D01*
X-25088628Y-49480602D01*
X-24875399Y-49267373D01*
X-24760000Y-48988776D01*
X-24760000Y-48581500D01*
X-24949500Y-48392000D01*
X-26114000Y-48392000D01*
X-26122000Y-48392000D01*
X-27286500Y-48392000D01*
X-27476000Y-48581500D01*
X-29418834Y-48581500D01*
X-29418834Y-48400000D01*
X-29463073Y-48177597D01*
X-29589054Y-47989054D01*
X-29777597Y-47863073D01*
X-30000000Y-47818834D01*
X-32000000Y-47818834D01*
X-32222403Y-47863073D01*
X-32410946Y-47989054D01*
X-32536927Y-48177597D01*
X-32581166Y-48400000D01*
X-32581166Y-50100000D01*
X-32536927Y-50322403D01*
X-32410946Y-50510946D01*
X-32222403Y-50636927D01*
X-32000000Y-50681166D01*
X-31873352Y-50681166D01*
X-31887044Y-50750000D01*
X-31870000Y-50835685D01*
X-31855294Y-50909618D01*
X-32000000Y-50880834D01*
X-34000000Y-50880834D01*
X-34222403Y-50925073D01*
X-34410946Y-51051054D01*
X-34536927Y-51239597D01*
X-34537405Y-51242000D01*
X-35874620Y-51242000D01*
X-35980001Y-51221038D01*
X-36085382Y-51242000D01*
X-36397493Y-51304083D01*
X-36751427Y-51540573D01*
X-36811122Y-51629913D01*
X-37319208Y-52138000D01*
X-40465056Y-52138000D01*
X-40246616Y-52047519D01*
X-39872481Y-51673384D01*
X-39670000Y-51184553D01*
X-39670000Y-50871208D01*
X-39458958Y-50660166D01*
X-38237000Y-50660166D01*
X-37918927Y-50596897D01*
X-37678875Y-50436500D01*
X-36460689Y-50436500D01*
X-36410946Y-50510946D01*
X-36222403Y-50636927D01*
X-36000000Y-50681166D01*
X-34000000Y-50681166D01*
X-33777597Y-50636927D01*
X-33589054Y-50510946D01*
X-33463073Y-50322403D01*
X-33418834Y-50100000D01*
X-33418834Y-48400000D01*
X-33463073Y-48177597D01*
X-33589054Y-47989054D01*
X-33777597Y-47863073D01*
X-34000000Y-47818834D01*
X-36000000Y-47818834D01*
X-36222403Y-47863073D01*
X-36410946Y-47989054D01*
X-36536927Y-48177597D01*
X-36560578Y-48296500D01*
X-37678875Y-48296500D01*
X-37918927Y-48136103D01*
X-38237000Y-48072834D01*
X-39487000Y-48072834D01*
X-39805073Y-48136103D01*
X-40074723Y-48316277D01*
X-40108635Y-48367030D01*
X-40449927Y-48595073D01*
X-40509622Y-48684413D01*
X-41521737Y-49696529D01*
X-41753384Y-49792481D01*
X-42127519Y-50166616D01*
X-42330000Y-50655447D01*
X-42330000Y-51184553D01*
X-42127519Y-51673384D01*
X-41753384Y-52047519D01*
X-41445619Y-52175000D01*
X-41753384Y-52302481D01*
X-42127519Y-52676616D01*
X-42330000Y-53165447D01*
X-42330000Y-53348026D01*
X-42350628Y-53327398D01*
X-42629225Y-53212000D01*
X-42711097Y-53212000D01*
X-42412481Y-52913384D01*
X-42210000Y-52424553D01*
X-42210000Y-51895447D01*
X-42412481Y-51406616D01*
X-42786616Y-51032481D01*
X-43275447Y-50830000D01*
X-43804553Y-50830000D01*
X-44293384Y-51032481D01*
X-44667519Y-51406616D01*
X-44870000Y-51895447D01*
X-44870000Y-52330345D01*
X-45772720Y-53233065D01*
X-45841186Y-53278813D01*
X-45923162Y-53401500D01*
X-46022422Y-53550053D01*
X-46086064Y-53870000D01*
X-46069999Y-53950763D01*
X-46070000Y-55467243D01*
X-46086064Y-55548002D01*
X-46070000Y-55628760D01*
X-46022422Y-55867949D01*
X-45841187Y-56139189D01*
X-45772718Y-56184939D01*
X-44934937Y-57022720D01*
X-44889189Y-57091187D01*
X-44617950Y-57272422D01*
X-44378761Y-57320000D01*
X-44378760Y-57320000D01*
X-44298003Y-57336064D01*
X-44217246Y-57320000D01*
X-38051258Y-57320000D01*
X-37970500Y-57336064D01*
X-37889742Y-57320000D01*
X-37889741Y-57320000D01*
X-37650552Y-57272422D01*
X-37518732Y-57184343D01*
X-37443073Y-57234897D01*
X-37125000Y-57298166D01*
X-35875000Y-57298166D01*
X-35556927Y-57234897D01*
X-35316875Y-57074500D01*
X-34535526Y-57074500D01*
X-34410946Y-57260946D01*
X-34222403Y-57386927D01*
X-34000000Y-57431166D01*
X-32000000Y-57431166D01*
X-31829710Y-57397293D01*
X-31831044Y-57404000D01*
X-31814000Y-57489685D01*
X-31763522Y-57743456D01*
X-31571235Y-58031235D01*
X-31498591Y-58079774D01*
X-30857773Y-58720593D01*
X-30809235Y-58793235D01*
X-30736594Y-58841772D01*
X-30521458Y-58985522D01*
X-30182000Y-59053044D01*
X-30096314Y-59036000D01*
X-25187685Y-59036000D01*
X-25102000Y-59053044D01*
X-25016315Y-59036000D01*
X-25016314Y-59036000D01*
X-24762543Y-58985522D01*
X-24474765Y-58793235D01*
X-24426226Y-58720591D01*
X-22013634Y-56308000D01*
X-21317818Y-56308000D01*
X-21136000Y-56344166D01*
X-19576000Y-56344166D01*
X-19353597Y-56299927D01*
X-19165054Y-56173946D01*
X-19116397Y-56101126D01*
X-19078602Y-56192372D01*
X-19017166Y-56253808D01*
X-19017166Y-56713000D01*
X-18987329Y-56863000D01*
X-19006000Y-56956865D01*
X-19039073Y-56790597D01*
X-19165054Y-56602054D01*
X-19353597Y-56476073D01*
X-19576000Y-56431834D01*
X-21136000Y-56431834D01*
X-21358403Y-56476073D01*
X-21546946Y-56602054D01*
X-21672927Y-56790597D01*
X-21717166Y-57013000D01*
X-21717166Y-57663000D01*
X-21672927Y-57885403D01*
X-21546946Y-58073946D01*
X-21436074Y-58148028D01*
X-21485046Y-59763000D01*
X-34867000Y-59763000D01*
X-34867000Y-59173000D01*
X-35056500Y-58983500D01*
X-36496000Y-58983500D01*
X-36496000Y-59003500D01*
X-36504000Y-59003500D01*
X-36504000Y-58983500D01*
X-37943500Y-58983500D01*
X-38133000Y-59173000D01*
X-38133000Y-59763000D01*
X-42473792Y-59763000D01*
X-44120568Y-58116224D01*
X-38133000Y-58116224D01*
X-38133000Y-58786000D01*
X-37943500Y-58975500D01*
X-36504000Y-58975500D01*
X-36504000Y-57698500D01*
X-36496000Y-57698500D01*
X-36496000Y-58975500D01*
X-35056500Y-58975500D01*
X-34867000Y-58786000D01*
X-34867000Y-58116224D01*
X-34982399Y-57837627D01*
X-35195628Y-57624398D01*
X-35474225Y-57509000D01*
X-36306500Y-57509000D01*
X-36496000Y-57698500D01*
X-36504000Y-57698500D01*
X-36693500Y-57509000D01*
X-37525775Y-57509000D01*
X-37804372Y-57624398D01*
X-38017601Y-57837627D01*
X-38133000Y-58116224D01*
X-44120568Y-58116224D01*
X-49629892Y-52606901D01*
X-44323905Y-47300915D01*
X-44234563Y-47241219D01*
X-43998073Y-46887285D01*
X-43977975Y-46786246D01*
X-43937945Y-46585000D01*
X-40495000Y-46585000D01*
X-40495000Y-47254776D01*
X-40379601Y-47533373D01*
X-40166372Y-47746602D01*
X-39887775Y-47862000D01*
X-39055500Y-47862000D01*
X-38866000Y-47672500D01*
X-38866000Y-46395500D01*
X-38858000Y-46395500D01*
X-38858000Y-47672500D01*
X-38668500Y-47862000D01*
X-37836225Y-47862000D01*
X-37655699Y-47787224D01*
X-27476000Y-47787224D01*
X-27476000Y-48194500D01*
X-27286500Y-48384000D01*
X-26122000Y-48384000D01*
X-26122000Y-47369500D01*
X-26114000Y-47369500D01*
X-26114000Y-48384000D01*
X-24949500Y-48384000D01*
X-24760000Y-48194500D01*
X-24760000Y-47787224D01*
X-24875399Y-47508627D01*
X-25088628Y-47295398D01*
X-25367225Y-47180000D01*
X-25924500Y-47180000D01*
X-26114000Y-47369500D01*
X-26122000Y-47369500D01*
X-26311500Y-47180000D01*
X-26868775Y-47180000D01*
X-27147372Y-47295398D01*
X-27360601Y-47508627D01*
X-27476000Y-47787224D01*
X-37655699Y-47787224D01*
X-37557628Y-47746602D01*
X-37344399Y-47533373D01*
X-37229000Y-47254776D01*
X-37229000Y-46585000D01*
X-37418500Y-46395500D01*
X-38858000Y-46395500D01*
X-38866000Y-46395500D01*
X-40305500Y-46395500D01*
X-40495000Y-46585000D01*
X-43937945Y-46585000D01*
X-43915028Y-46469792D01*
X-43935990Y-46364410D01*
X-43935990Y-45948990D01*
X-40495000Y-45948990D01*
X-40495000Y-46198000D01*
X-40305500Y-46387500D01*
X-38866000Y-46387500D01*
X-38866000Y-46367500D01*
X-38858000Y-46367500D01*
X-38858000Y-46387500D01*
X-37418500Y-46387500D01*
X-37229000Y-46198000D01*
X-37229000Y-45948990D01*
X-30590447Y-45948990D01*
X-30520200Y-45995927D01*
X-30208089Y-46058010D01*
X-30102707Y-46078972D01*
X-29997325Y-46058010D01*
X-22106392Y-46058010D01*
X-22001010Y-46078972D01*
X-21895628Y-46058010D01*
X-21583517Y-45995927D01*
X-21259218Y-45779238D01*
X-20438195Y-46963407D01*
X-20318798Y-47136911D01*
X-20252360Y-47180000D01*
X-20518775Y-47180000D01*
X-20797372Y-47295398D01*
X-21010601Y-47508627D01*
X-21126000Y-47787224D01*
X-21126000Y-48194500D01*
X-20936500Y-48384000D01*
X-19772000Y-48384000D01*
X-19772000Y-48364000D01*
X-19764000Y-48364000D01*
X-19764000Y-48384000D01*
X-18599500Y-48384000D01*
X-18410000Y-48194500D01*
X-18410000Y-47787224D01*
X-18525399Y-47508627D01*
X-18621740Y-47412286D01*
X-18050232Y-47404464D01*
X-17834073Y-47548897D01*
X-17516000Y-47612166D01*
X-16266000Y-47612166D01*
X-15947927Y-47548897D01*
X-15678277Y-47368723D01*
X-15624674Y-47288500D01*
X-15208192Y-47288500D01*
X-15053403Y-47391927D01*
X-14831000Y-47436166D01*
X-13831000Y-47436166D01*
X-13608597Y-47391927D01*
X-13420054Y-47265946D01*
X-13294073Y-47077403D01*
X-13249834Y-46855000D01*
X-13249834Y-46548500D01*
X-13089000Y-46548500D01*
X-13089000Y-47005775D01*
X-12973602Y-47284372D01*
X-12760373Y-47497601D01*
X-12481776Y-47613000D01*
X-12024500Y-47613000D01*
X-11835000Y-47423500D01*
X-11835000Y-46359000D01*
X-11827000Y-46359000D01*
X-11827000Y-47423500D01*
X-11637500Y-47613000D01*
X-11180224Y-47613000D01*
X-10901627Y-47497601D01*
X-10688398Y-47284372D01*
X-10573000Y-47005775D01*
X-10573000Y-46548500D01*
X-10762500Y-46359000D01*
X-11827000Y-46359000D01*
X-11835000Y-46359000D01*
X-12899500Y-46359000D01*
X-13089000Y-46548500D01*
X-13249834Y-46548500D01*
X-13249834Y-45855000D01*
X-13279825Y-45704225D01*
X-13089000Y-45704225D01*
X-13089000Y-46161500D01*
X-12899500Y-46351000D01*
X-11835000Y-46351000D01*
X-11835000Y-45286500D01*
X-11827000Y-45286500D01*
X-11827000Y-46351000D01*
X-10762500Y-46351000D01*
X-10573000Y-46161500D01*
X-10573000Y-45704225D01*
X-10688398Y-45425628D01*
X-10901627Y-45212399D01*
X-11180224Y-45097000D01*
X-11637500Y-45097000D01*
X-11827000Y-45286500D01*
X-11835000Y-45286500D01*
X-12024500Y-45097000D01*
X-12481776Y-45097000D01*
X-12760373Y-45212399D01*
X-12973602Y-45425628D01*
X-13089000Y-45704225D01*
X-13279825Y-45704225D01*
X-13294073Y-45632597D01*
X-13420054Y-45444054D01*
X-13608597Y-45318073D01*
X-13831000Y-45273834D01*
X-14831000Y-45273834D01*
X-15053403Y-45318073D01*
X-15098940Y-45348500D01*
X-15624674Y-45348500D01*
X-15678277Y-45268277D01*
X-15947927Y-45088103D01*
X-16266000Y-45024834D01*
X-17516000Y-45024834D01*
X-17834073Y-45088103D01*
X-18098713Y-45264929D01*
X-19003176Y-45277307D01*
X-20209791Y-43537000D01*
X-18524000Y-43537000D01*
X-18524000Y-44206776D01*
X-18408601Y-44485373D01*
X-18195372Y-44698602D01*
X-17916775Y-44814000D01*
X-17084500Y-44814000D01*
X-16895000Y-44624500D01*
X-16895000Y-43347500D01*
X-16887000Y-43347500D01*
X-16887000Y-44624500D01*
X-16697500Y-44814000D01*
X-15865225Y-44814000D01*
X-15586628Y-44698602D01*
X-15373399Y-44485373D01*
X-15258000Y-44206776D01*
X-15258000Y-43537000D01*
X-15447500Y-43347500D01*
X-16887000Y-43347500D01*
X-16895000Y-43347500D01*
X-18334500Y-43347500D01*
X-18524000Y-43537000D01*
X-20209791Y-43537000D01*
X-20233440Y-43502891D01*
X-20248000Y-43481100D01*
X-20248000Y-42478264D01*
X-20115597Y-42451927D01*
X-19927054Y-42325946D01*
X-19801073Y-42137403D01*
X-19768000Y-41971135D01*
X-19734927Y-42137403D01*
X-19608946Y-42325946D01*
X-19420403Y-42451927D01*
X-19198000Y-42496166D01*
X-18524000Y-42496166D01*
X-18524000Y-43150000D01*
X-18334500Y-43339500D01*
X-16895000Y-43339500D01*
X-16895000Y-42062500D01*
X-16887000Y-42062500D01*
X-16887000Y-43339500D01*
X-15447500Y-43339500D01*
X-15258000Y-43150000D01*
X-15258000Y-42480224D01*
X-15373399Y-42201627D01*
X-15586628Y-41988398D01*
X-15865225Y-41873000D01*
X-16697500Y-41873000D01*
X-16887000Y-42062500D01*
X-16895000Y-42062500D01*
X-17056834Y-41900666D01*
X-17056834Y-41510000D01*
X-14220365Y-41510000D01*
X-8123772Y-47606594D01*
G36*
X-20368000Y-52719166D02*
X-19168000Y-52719166D01*
X-19111865Y-52708000D01*
X-12305207Y-52708000D01*
X-9659123Y-55354084D01*
X-9599427Y-55443427D01*
X-9245493Y-55679917D01*
X-8828000Y-55762962D01*
X-8722618Y-55742000D01*
X-5256537Y-55742000D01*
X-4945242Y-55950000D01*
X-5232591Y-56142000D01*
X-10699635Y-56142000D01*
X-11008226Y-55833409D01*
X-11056765Y-55760765D01*
X-11344543Y-55568478D01*
X-11598314Y-55518000D01*
X-11598315Y-55518000D01*
X-11684000Y-55500956D01*
X-11769685Y-55518000D01*
X-12083000Y-55518000D01*
X-12083000Y-55094000D01*
X-12272500Y-54904500D01*
X-13712000Y-54904500D01*
X-13712000Y-54924500D01*
X-13720000Y-54924500D01*
X-13720000Y-54904500D01*
X-15159500Y-54904500D01*
X-15349000Y-55094000D01*
X-15349000Y-55518000D01*
X-16231500Y-55518000D01*
X-16307500Y-55442000D01*
X-17652000Y-55442000D01*
X-17652000Y-55462000D01*
X-17660000Y-55462000D01*
X-17660000Y-55442000D01*
X-17680000Y-55442000D01*
X-17680000Y-55434000D01*
X-17660000Y-55434000D01*
X-17660000Y-54544500D01*
X-17652000Y-54544500D01*
X-17652000Y-55434000D01*
X-16307500Y-55434000D01*
X-16118000Y-55244500D01*
X-16118000Y-54962225D01*
X-16233398Y-54683628D01*
X-16446627Y-54470399D01*
X-16725224Y-54355000D01*
X-17462500Y-54355000D01*
X-17652000Y-54544500D01*
X-17660000Y-54544500D01*
X-17849500Y-54355000D01*
X-18586776Y-54355000D01*
X-18865373Y-54470399D01*
X-19078602Y-54683628D01*
X-19116397Y-54774874D01*
X-19165054Y-54702054D01*
X-19353597Y-54576073D01*
X-19576000Y-54531834D01*
X-21136000Y-54531834D01*
X-21317818Y-54568000D01*
X-22288314Y-54568000D01*
X-22374000Y-54550956D01*
X-22459686Y-54568000D01*
X-22548448Y-54585656D01*
X-22000016Y-54037224D01*
X-15349000Y-54037224D01*
X-15349000Y-54707000D01*
X-15159500Y-54896500D01*
X-13720000Y-54896500D01*
X-13720000Y-53619500D01*
X-13712000Y-53619500D01*
X-13712000Y-54896500D01*
X-12272500Y-54896500D01*
X-12083000Y-54707000D01*
X-12083000Y-54037224D01*
X-12198399Y-53758627D01*
X-12411628Y-53545398D01*
X-12690225Y-53430000D01*
X-13522500Y-53430000D01*
X-13712000Y-53619500D01*
X-13720000Y-53619500D01*
X-13909500Y-53430000D01*
X-14741775Y-53430000D01*
X-15020372Y-53545398D01*
X-15233601Y-53758627D01*
X-15349000Y-54037224D01*
X-22000016Y-54037224D01*
X-20670791Y-52708000D01*
X-20424135Y-52708000D01*
X-20368000Y-52719166D01*
X-20368000Y-52719166D01*
G37*
X-20368000Y-52719166D02*
X-19168000Y-52719166D01*
X-19111865Y-52708000D01*
X-12305207Y-52708000D01*
X-9659123Y-55354084D01*
X-9599427Y-55443427D01*
X-9245493Y-55679917D01*
X-8828000Y-55762962D01*
X-8722618Y-55742000D01*
X-5256537Y-55742000D01*
X-4945242Y-55950000D01*
X-5232591Y-56142000D01*
X-10699635Y-56142000D01*
X-11008226Y-55833409D01*
X-11056765Y-55760765D01*
X-11344543Y-55568478D01*
X-11598314Y-55518000D01*
X-11598315Y-55518000D01*
X-11684000Y-55500956D01*
X-11769685Y-55518000D01*
X-12083000Y-55518000D01*
X-12083000Y-55094000D01*
X-12272500Y-54904500D01*
X-13712000Y-54904500D01*
X-13712000Y-54924500D01*
X-13720000Y-54924500D01*
X-13720000Y-54904500D01*
X-15159500Y-54904500D01*
X-15349000Y-55094000D01*
X-15349000Y-55518000D01*
X-16231500Y-55518000D01*
X-16307500Y-55442000D01*
X-17652000Y-55442000D01*
X-17652000Y-55462000D01*
X-17660000Y-55462000D01*
X-17660000Y-55442000D01*
X-17680000Y-55442000D01*
X-17680000Y-55434000D01*
X-17660000Y-55434000D01*
X-17660000Y-54544500D01*
X-17652000Y-54544500D01*
X-17652000Y-55434000D01*
X-16307500Y-55434000D01*
X-16118000Y-55244500D01*
X-16118000Y-54962225D01*
X-16233398Y-54683628D01*
X-16446627Y-54470399D01*
X-16725224Y-54355000D01*
X-17462500Y-54355000D01*
X-17652000Y-54544500D01*
X-17660000Y-54544500D01*
X-17849500Y-54355000D01*
X-18586776Y-54355000D01*
X-18865373Y-54470399D01*
X-19078602Y-54683628D01*
X-19116397Y-54774874D01*
X-19165054Y-54702054D01*
X-19353597Y-54576073D01*
X-19576000Y-54531834D01*
X-21136000Y-54531834D01*
X-21317818Y-54568000D01*
X-22288314Y-54568000D01*
X-22374000Y-54550956D01*
X-22459686Y-54568000D01*
X-22548448Y-54585656D01*
X-22000016Y-54037224D01*
X-15349000Y-54037224D01*
X-15349000Y-54707000D01*
X-15159500Y-54896500D01*
X-13720000Y-54896500D01*
X-13720000Y-53619500D01*
X-13712000Y-53619500D01*
X-13712000Y-54896500D01*
X-12272500Y-54896500D01*
X-12083000Y-54707000D01*
X-12083000Y-54037224D01*
X-12198399Y-53758627D01*
X-12411628Y-53545398D01*
X-12690225Y-53430000D01*
X-13522500Y-53430000D01*
X-13712000Y-53619500D01*
X-13720000Y-53619500D01*
X-13909500Y-53430000D01*
X-14741775Y-53430000D01*
X-15020372Y-53545398D01*
X-15233601Y-53758627D01*
X-15349000Y-54037224D01*
X-22000016Y-54037224D01*
X-20670791Y-52708000D01*
X-20424135Y-52708000D01*
X-20368000Y-52719166D01*
G36*
X-34536927Y-53384403D02*
X-34410946Y-53572946D01*
X-34222403Y-53698927D01*
X-34000000Y-53743166D01*
X-32000000Y-53743166D01*
X-31813999Y-53706168D01*
X-31814000Y-54605832D01*
X-32000000Y-54568834D01*
X-34000000Y-54568834D01*
X-34222403Y-54613073D01*
X-34410946Y-54739054D01*
X-34536927Y-54927597D01*
X-34538300Y-54934500D01*
X-35316875Y-54934500D01*
X-35556927Y-54774103D01*
X-35875000Y-54710834D01*
X-37125000Y-54710834D01*
X-37443073Y-54774103D01*
X-37712723Y-54954277D01*
X-37892897Y-55223927D01*
X-37909781Y-55308806D01*
X-38066187Y-55413313D01*
X-38111937Y-55481783D01*
X-38310154Y-55680000D01*
X-42038247Y-55680000D01*
X-42022000Y-55640776D01*
X-42022000Y-54923500D01*
X-42211500Y-54734000D01*
X-43536000Y-54734000D01*
X-43536000Y-54754000D01*
X-43544000Y-54754000D01*
X-43544000Y-54734000D01*
X-43564000Y-54734000D01*
X-43564000Y-54726000D01*
X-43544000Y-54726000D01*
X-43544000Y-54706000D01*
X-43536000Y-54706000D01*
X-43536000Y-54726000D01*
X-42211500Y-54726000D01*
X-42022000Y-54536500D01*
X-42022000Y-54288903D01*
X-41753384Y-54557519D01*
X-41264553Y-54760000D01*
X-40735447Y-54760000D01*
X-40246616Y-54557519D01*
X-39967097Y-54278000D01*
X-36981382Y-54278000D01*
X-36876000Y-54298962D01*
X-36770618Y-54278000D01*
X-36458507Y-54215917D01*
X-36104573Y-53979427D01*
X-36044875Y-53890082D01*
X-35536792Y-53382000D01*
X-34537405Y-53382000D01*
X-34536927Y-53384403D01*
X-34536927Y-53384403D01*
G37*
X-34536927Y-53384403D02*
X-34410946Y-53572946D01*
X-34222403Y-53698927D01*
X-34000000Y-53743166D01*
X-32000000Y-53743166D01*
X-31813999Y-53706168D01*
X-31814000Y-54605832D01*
X-32000000Y-54568834D01*
X-34000000Y-54568834D01*
X-34222403Y-54613073D01*
X-34410946Y-54739054D01*
X-34536927Y-54927597D01*
X-34538300Y-54934500D01*
X-35316875Y-54934500D01*
X-35556927Y-54774103D01*
X-35875000Y-54710834D01*
X-37125000Y-54710834D01*
X-37443073Y-54774103D01*
X-37712723Y-54954277D01*
X-37892897Y-55223927D01*
X-37909781Y-55308806D01*
X-38066187Y-55413313D01*
X-38111937Y-55481783D01*
X-38310154Y-55680000D01*
X-42038247Y-55680000D01*
X-42022000Y-55640776D01*
X-42022000Y-54923500D01*
X-42211500Y-54734000D01*
X-43536000Y-54734000D01*
X-43536000Y-54754000D01*
X-43544000Y-54754000D01*
X-43544000Y-54734000D01*
X-43564000Y-54734000D01*
X-43564000Y-54726000D01*
X-43544000Y-54726000D01*
X-43544000Y-54706000D01*
X-43536000Y-54706000D01*
X-43536000Y-54726000D01*
X-42211500Y-54726000D01*
X-42022000Y-54536500D01*
X-42022000Y-54288903D01*
X-41753384Y-54557519D01*
X-41264553Y-54760000D01*
X-40735447Y-54760000D01*
X-40246616Y-54557519D01*
X-39967097Y-54278000D01*
X-36981382Y-54278000D01*
X-36876000Y-54298962D01*
X-36770618Y-54278000D01*
X-36458507Y-54215917D01*
X-36104573Y-53979427D01*
X-36044875Y-53890082D01*
X-35536792Y-53382000D01*
X-34537405Y-53382000D01*
X-34536927Y-53384403D01*
G36*
X-19480927Y-28421403D02*
X-19354946Y-28609946D01*
X-19166403Y-28735927D01*
X-18944000Y-28780166D01*
X-17384000Y-28780166D01*
X-17161597Y-28735927D01*
X-17076906Y-28679338D01*
X-17090962Y-28750000D01*
X-17007917Y-29167492D01*
X-16831120Y-29432087D01*
X-8581123Y-37682085D01*
X-8521427Y-37771427D01*
X-8227233Y-37968000D01*
X-8167493Y-38007917D01*
X-7750000Y-38090962D01*
X-7644618Y-38070000D01*
X-5094903Y-38070000D01*
X-4945242Y-38170000D01*
X-5313763Y-38416237D01*
X-5627610Y-38885944D01*
X-5737819Y-39440000D01*
X-5627610Y-39994056D01*
X-5313763Y-40463763D01*
X-4945242Y-40710000D01*
X-5244564Y-40910000D01*
X-6326792Y-40910000D01*
X-13120875Y-34115918D01*
X-13180573Y-34026573D01*
X-13534507Y-33790083D01*
X-13846618Y-33728000D01*
X-13952000Y-33707038D01*
X-14057382Y-33728000D01*
X-18906590Y-33728000D01*
X-18892000Y-33692776D01*
X-18892000Y-33285500D01*
X-19081500Y-33096000D01*
X-20246000Y-33096000D01*
X-20246000Y-33116000D01*
X-20254000Y-33116000D01*
X-20254000Y-33096000D01*
X-21418500Y-33096000D01*
X-21608000Y-33285500D01*
X-21608000Y-33692776D01*
X-21593410Y-33728000D01*
X-22754618Y-33728000D01*
X-22860000Y-33707038D01*
X-22965382Y-33728000D01*
X-23277493Y-33790083D01*
X-23631427Y-34026573D01*
X-23691124Y-34115916D01*
X-24936041Y-35360834D01*
X-25850000Y-35360834D01*
X-26072403Y-35405073D01*
X-26223450Y-35506000D01*
X-27077731Y-35506000D01*
X-27089054Y-35489054D01*
X-27277597Y-35363073D01*
X-27500000Y-35318834D01*
X-29500000Y-35318834D01*
X-29630000Y-35344693D01*
X-29630000Y-35086166D01*
X-29500000Y-35086166D01*
X-29277597Y-35041927D01*
X-29089054Y-34915946D01*
X-28963073Y-34727403D01*
X-28918834Y-34505000D01*
X-28918834Y-33285500D01*
X-26608000Y-33285500D01*
X-26608000Y-33692776D01*
X-26492601Y-33971373D01*
X-26279372Y-34184602D01*
X-26000775Y-34300000D01*
X-25443500Y-34300000D01*
X-25254000Y-34110500D01*
X-25254000Y-33096000D01*
X-25246000Y-33096000D01*
X-25246000Y-34110500D01*
X-25056500Y-34300000D01*
X-24499225Y-34300000D01*
X-24220628Y-34184602D01*
X-24007399Y-33971373D01*
X-23892000Y-33692776D01*
X-23892000Y-33285500D01*
X-24081500Y-33096000D01*
X-25246000Y-33096000D01*
X-25254000Y-33096000D01*
X-26418500Y-33096000D01*
X-26608000Y-33285500D01*
X-28918834Y-33285500D01*
X-28918834Y-32805000D01*
X-28963073Y-32582597D01*
X-29024126Y-32491224D01*
X-26608000Y-32491224D01*
X-26608000Y-32898500D01*
X-26418500Y-33088000D01*
X-25254000Y-33088000D01*
X-25254000Y-32073500D01*
X-25246000Y-32073500D01*
X-25246000Y-33088000D01*
X-24081500Y-33088000D01*
X-23892000Y-32898500D01*
X-23892000Y-32491224D01*
X-24007399Y-32212627D01*
X-24220628Y-31999398D01*
X-24499225Y-31884000D01*
X-25056500Y-31884000D01*
X-25246000Y-32073500D01*
X-25254000Y-32073500D01*
X-25443500Y-31884000D01*
X-26000775Y-31884000D01*
X-26279372Y-31999398D01*
X-26492601Y-32212627D01*
X-26608000Y-32491224D01*
X-29024126Y-32491224D01*
X-29089054Y-32394054D01*
X-29277597Y-32268073D01*
X-29500000Y-32223834D01*
X-31500000Y-32223834D01*
X-31722403Y-32268073D01*
X-31910946Y-32394054D01*
X-32036927Y-32582597D01*
X-32081166Y-32805000D01*
X-32081166Y-34505000D01*
X-32036927Y-34727403D01*
X-31910946Y-34915946D01*
X-31722403Y-35041927D01*
X-31500000Y-35086166D01*
X-31370000Y-35086166D01*
X-31370000Y-35190685D01*
X-31369999Y-35190690D01*
X-31369999Y-35344693D01*
X-31500000Y-35318834D01*
X-33500000Y-35318834D01*
X-33722403Y-35363073D01*
X-33910946Y-35489054D01*
X-34036927Y-35677597D01*
X-34081166Y-35900000D01*
X-34081166Y-36042967D01*
X-36079314Y-36898000D01*
X-40097097Y-36898000D01*
X-39872481Y-36673384D01*
X-39670000Y-36184553D01*
X-39670000Y-35912433D01*
X-39551073Y-35991897D01*
X-39233000Y-36055166D01*
X-37983000Y-36055166D01*
X-37664927Y-35991897D01*
X-37395277Y-35811723D01*
X-37215103Y-35542073D01*
X-37151834Y-35224000D01*
X-37151834Y-34818542D01*
X-37058292Y-34725000D01*
X-36037405Y-34725000D01*
X-36036927Y-34727403D01*
X-35910946Y-34915946D01*
X-35722403Y-35041927D01*
X-35500000Y-35086166D01*
X-33500000Y-35086166D01*
X-33277597Y-35041927D01*
X-33089054Y-34915946D01*
X-32963073Y-34727403D01*
X-32918834Y-34505000D01*
X-32918834Y-32805000D01*
X-32963073Y-32582597D01*
X-33089054Y-32394054D01*
X-33277597Y-32268073D01*
X-33500000Y-32223834D01*
X-35500000Y-32223834D01*
X-35722403Y-32268073D01*
X-35910946Y-32394054D01*
X-36036927Y-32582597D01*
X-36037405Y-32585000D01*
X-36975000Y-32585000D01*
X-36975000Y-31980000D01*
X-37164500Y-31790500D01*
X-38604000Y-31790500D01*
X-38604000Y-31810500D01*
X-38612000Y-31810500D01*
X-38612000Y-31790500D01*
X-40051500Y-31790500D01*
X-40241000Y-31980000D01*
X-40241000Y-32649776D01*
X-40125601Y-32928373D01*
X-39912372Y-33141602D01*
X-39633775Y-33257000D01*
X-38801500Y-33257000D01*
X-38612002Y-33067502D01*
X-38612002Y-33252294D01*
X-38827542Y-33467834D01*
X-39233000Y-33467834D01*
X-39551073Y-33531103D01*
X-39791125Y-33691500D01*
X-40208118Y-33691500D01*
X-40313500Y-33670538D01*
X-40602379Y-33728000D01*
X-40730993Y-33753583D01*
X-41084927Y-33990073D01*
X-41144624Y-34079416D01*
X-41831120Y-34765913D01*
X-42007917Y-35030508D01*
X-42012016Y-35051113D01*
X-42127519Y-35166616D01*
X-42330000Y-35655447D01*
X-42330000Y-36184553D01*
X-42127519Y-36673384D01*
X-41753384Y-37047519D01*
X-41626814Y-37099946D01*
X-41771427Y-37196573D01*
X-42007917Y-37550507D01*
X-42009533Y-37558630D01*
X-42127519Y-37676616D01*
X-42330000Y-38165447D01*
X-42330000Y-38348026D01*
X-42350628Y-38327398D01*
X-42629225Y-38212000D01*
X-42711097Y-38212000D01*
X-42412481Y-37913384D01*
X-42210000Y-37424553D01*
X-42210000Y-36895447D01*
X-42412481Y-36406616D01*
X-42786616Y-36032481D01*
X-43275447Y-35830000D01*
X-43804553Y-35830000D01*
X-44293384Y-36032481D01*
X-44589810Y-36328907D01*
X-44614803Y-36323936D01*
X-44695560Y-36340000D01*
X-44695561Y-36340000D01*
X-44934750Y-36387578D01*
X-45205989Y-36568813D01*
X-45251737Y-36637280D01*
X-46160360Y-37545903D01*
X-46228826Y-37591651D01*
X-46285597Y-37676616D01*
X-46410062Y-37862891D01*
X-46473704Y-38182838D01*
X-46457639Y-38263601D01*
X-46457640Y-40531601D01*
X-46473704Y-40612360D01*
X-46457640Y-40693118D01*
X-46410062Y-40932307D01*
X-46228827Y-41203547D01*
X-46160358Y-41249296D01*
X-45636935Y-41772720D01*
X-45591187Y-41841187D01*
X-45349621Y-42002595D01*
X-45319948Y-42022422D01*
X-45000001Y-42086064D01*
X-44919242Y-42070000D01*
X-39018258Y-42070000D01*
X-38937500Y-42086064D01*
X-38856742Y-42070000D01*
X-38856741Y-42070000D01*
X-38617552Y-42022422D01*
X-38433173Y-41899224D01*
X-38133000Y-41899224D01*
X-38133000Y-42569000D01*
X-37943500Y-42758500D01*
X-36504000Y-42758500D01*
X-36504000Y-41481500D01*
X-36693500Y-41292000D01*
X-37525775Y-41292000D01*
X-37804372Y-41407398D01*
X-38017601Y-41620627D01*
X-38133000Y-41899224D01*
X-38433173Y-41899224D01*
X-38346313Y-41841187D01*
X-38300563Y-41772717D01*
X-37504619Y-40976773D01*
X-37443073Y-41017897D01*
X-37125000Y-41081166D01*
X-36436700Y-41081166D01*
X-36323273Y-41194593D01*
X-36274735Y-41267235D01*
X-36237672Y-41292000D01*
X-36306500Y-41292000D01*
X-36496000Y-41481500D01*
X-36496000Y-42758500D01*
X-35056500Y-42758500D01*
X-34867000Y-42569000D01*
X-34867000Y-41899224D01*
X-34982399Y-41620627D01*
X-35093026Y-41510000D01*
X-34049340Y-41510000D01*
X-34036927Y-41572403D01*
X-33910946Y-41760946D01*
X-33722403Y-41886927D01*
X-33500000Y-41931166D01*
X-31500000Y-41931166D01*
X-31277597Y-41886927D01*
X-31260633Y-41875592D01*
X-31127235Y-42075237D01*
X-31054591Y-42123776D01*
X-30533774Y-42644594D01*
X-30485236Y-42717236D01*
X-30197459Y-42909522D01*
X-30197458Y-42909523D01*
X-29858001Y-42977045D01*
X-29772315Y-42960001D01*
X-26098038Y-42960001D01*
X-26012353Y-42977045D01*
X-25926668Y-42960001D01*
X-25926667Y-42960001D01*
X-25672896Y-42909523D01*
X-25385118Y-42717236D01*
X-25336578Y-42644591D01*
X-25146250Y-42454262D01*
X-25030984Y-42377244D01*
X-24982445Y-42304600D01*
X-23237844Y-40560000D01*
X-22079818Y-40560000D01*
X-21898000Y-40596166D01*
X-20338000Y-40596166D01*
X-20115597Y-40551927D01*
X-19927054Y-40425946D01*
X-19878397Y-40353126D01*
X-19840602Y-40444372D01*
X-19779166Y-40505808D01*
X-19779166Y-40965000D01*
X-19749329Y-41115000D01*
X-19768000Y-41208865D01*
X-19801073Y-41042597D01*
X-19927054Y-40854054D01*
X-20115597Y-40728073D01*
X-20338000Y-40683834D01*
X-21898000Y-40683834D01*
X-22120403Y-40728073D01*
X-22308946Y-40854054D01*
X-22434927Y-41042597D01*
X-22479166Y-41265000D01*
X-22479166Y-41915000D01*
X-22434927Y-42137403D01*
X-22308946Y-42325946D01*
X-22120403Y-42451927D01*
X-21987999Y-42478264D01*
X-21987999Y-43461792D01*
X-22444217Y-43918010D01*
X-29723987Y-43918010D01*
X-29794234Y-43871073D01*
X-30106345Y-43808990D01*
X-30211727Y-43788028D01*
X-30317109Y-43808990D01*
X-34942890Y-43808990D01*
X-34867000Y-43625776D01*
X-34867000Y-42956000D01*
X-35056500Y-42766500D01*
X-36496000Y-42766500D01*
X-36496000Y-42786500D01*
X-36504000Y-42786500D01*
X-36504000Y-42766500D01*
X-37943500Y-42766500D01*
X-38133000Y-42956000D01*
X-38133000Y-43625776D01*
X-38057110Y-43808990D01*
X-43990857Y-43808990D01*
X-43998073Y-43772715D01*
X-44005871Y-43761044D01*
X-44234563Y-43418781D01*
X-44323905Y-43359085D01*
X-49432991Y-38250000D01*
X-43825915Y-32642925D01*
X-43736573Y-32583229D01*
X-43500083Y-32229295D01*
X-43438000Y-31917184D01*
X-43438000Y-31917183D01*
X-43417038Y-31811802D01*
X-43438000Y-31706420D01*
X-43438000Y-30745010D01*
X-40167181Y-30745010D01*
X-40241000Y-30923224D01*
X-40241000Y-31593000D01*
X-40051500Y-31782500D01*
X-38612000Y-31782500D01*
X-38612000Y-31762500D01*
X-38604000Y-31762500D01*
X-38604000Y-31782500D01*
X-37164500Y-31782500D01*
X-36975000Y-31593000D01*
X-36975000Y-30923224D01*
X-37048819Y-30745010D01*
X-24407666Y-30745010D01*
X-24407666Y-30978000D01*
X-24344397Y-31296073D01*
X-24164223Y-31565723D01*
X-23894573Y-31745897D01*
X-23576500Y-31809166D01*
X-22651500Y-31809166D01*
X-22333427Y-31745897D01*
X-22063777Y-31565723D01*
X-21883603Y-31296073D01*
X-21820334Y-30978000D01*
X-21820334Y-30546500D01*
X-21609500Y-30546500D01*
X-21609500Y-31378775D01*
X-21494102Y-31657372D01*
X-21280873Y-31870601D01*
X-21124651Y-31935311D01*
X-21279372Y-31999398D01*
X-21492601Y-32212627D01*
X-21608000Y-32491224D01*
X-21608000Y-32898500D01*
X-21418500Y-33088000D01*
X-20254000Y-33088000D01*
X-20254000Y-33068000D01*
X-20246000Y-33068000D01*
X-20246000Y-33088000D01*
X-19081500Y-33088000D01*
X-18892000Y-32898500D01*
X-18892000Y-32491224D01*
X-19007399Y-32212627D01*
X-19220628Y-31999398D01*
X-19264349Y-31981288D01*
X-18997127Y-31870601D01*
X-18783898Y-31657372D01*
X-18668500Y-31378775D01*
X-18668500Y-30546500D01*
X-18858000Y-30357000D01*
X-20135000Y-30357000D01*
X-20135000Y-30377000D01*
X-20143000Y-30377000D01*
X-20143000Y-30357000D01*
X-21420000Y-30357000D01*
X-21609500Y-30546500D01*
X-21820334Y-30546500D01*
X-21820334Y-30060699D01*
X-21609500Y-29849865D01*
X-21609500Y-30159500D01*
X-21420000Y-30349000D01*
X-20143000Y-30349000D01*
X-20143000Y-30329000D01*
X-20135000Y-30329000D01*
X-20135000Y-30349000D01*
X-18858000Y-30349000D01*
X-18668500Y-30159500D01*
X-18668500Y-29327225D01*
X-18783898Y-29048628D01*
X-18997127Y-28835399D01*
X-19275724Y-28720000D01*
X-19837761Y-28720000D01*
X-19673054Y-28609946D01*
X-19547073Y-28421403D01*
X-19514000Y-28255135D01*
X-19480927Y-28421403D01*
X-19480927Y-28421403D01*
G37*
X-19480927Y-28421403D02*
X-19354946Y-28609946D01*
X-19166403Y-28735927D01*
X-18944000Y-28780166D01*
X-17384000Y-28780166D01*
X-17161597Y-28735927D01*
X-17076906Y-28679338D01*
X-17090962Y-28750000D01*
X-17007917Y-29167492D01*
X-16831120Y-29432087D01*
X-8581123Y-37682085D01*
X-8521427Y-37771427D01*
X-8227233Y-37968000D01*
X-8167493Y-38007917D01*
X-7750000Y-38090962D01*
X-7644618Y-38070000D01*
X-5094903Y-38070000D01*
X-4945242Y-38170000D01*
X-5313763Y-38416237D01*
X-5627610Y-38885944D01*
X-5737819Y-39440000D01*
X-5627610Y-39994056D01*
X-5313763Y-40463763D01*
X-4945242Y-40710000D01*
X-5244564Y-40910000D01*
X-6326792Y-40910000D01*
X-13120875Y-34115918D01*
X-13180573Y-34026573D01*
X-13534507Y-33790083D01*
X-13846618Y-33728000D01*
X-13952000Y-33707038D01*
X-14057382Y-33728000D01*
X-18906590Y-33728000D01*
X-18892000Y-33692776D01*
X-18892000Y-33285500D01*
X-19081500Y-33096000D01*
X-20246000Y-33096000D01*
X-20246000Y-33116000D01*
X-20254000Y-33116000D01*
X-20254000Y-33096000D01*
X-21418500Y-33096000D01*
X-21608000Y-33285500D01*
X-21608000Y-33692776D01*
X-21593410Y-33728000D01*
X-22754618Y-33728000D01*
X-22860000Y-33707038D01*
X-22965382Y-33728000D01*
X-23277493Y-33790083D01*
X-23631427Y-34026573D01*
X-23691124Y-34115916D01*
X-24936041Y-35360834D01*
X-25850000Y-35360834D01*
X-26072403Y-35405073D01*
X-26223450Y-35506000D01*
X-27077731Y-35506000D01*
X-27089054Y-35489054D01*
X-27277597Y-35363073D01*
X-27500000Y-35318834D01*
X-29500000Y-35318834D01*
X-29630000Y-35344693D01*
X-29630000Y-35086166D01*
X-29500000Y-35086166D01*
X-29277597Y-35041927D01*
X-29089054Y-34915946D01*
X-28963073Y-34727403D01*
X-28918834Y-34505000D01*
X-28918834Y-33285500D01*
X-26608000Y-33285500D01*
X-26608000Y-33692776D01*
X-26492601Y-33971373D01*
X-26279372Y-34184602D01*
X-26000775Y-34300000D01*
X-25443500Y-34300000D01*
X-25254000Y-34110500D01*
X-25254000Y-33096000D01*
X-25246000Y-33096000D01*
X-25246000Y-34110500D01*
X-25056500Y-34300000D01*
X-24499225Y-34300000D01*
X-24220628Y-34184602D01*
X-24007399Y-33971373D01*
X-23892000Y-33692776D01*
X-23892000Y-33285500D01*
X-24081500Y-33096000D01*
X-25246000Y-33096000D01*
X-25254000Y-33096000D01*
X-26418500Y-33096000D01*
X-26608000Y-33285500D01*
X-28918834Y-33285500D01*
X-28918834Y-32805000D01*
X-28963073Y-32582597D01*
X-29024126Y-32491224D01*
X-26608000Y-32491224D01*
X-26608000Y-32898500D01*
X-26418500Y-33088000D01*
X-25254000Y-33088000D01*
X-25254000Y-32073500D01*
X-25246000Y-32073500D01*
X-25246000Y-33088000D01*
X-24081500Y-33088000D01*
X-23892000Y-32898500D01*
X-23892000Y-32491224D01*
X-24007399Y-32212627D01*
X-24220628Y-31999398D01*
X-24499225Y-31884000D01*
X-25056500Y-31884000D01*
X-25246000Y-32073500D01*
X-25254000Y-32073500D01*
X-25443500Y-31884000D01*
X-26000775Y-31884000D01*
X-26279372Y-31999398D01*
X-26492601Y-32212627D01*
X-26608000Y-32491224D01*
X-29024126Y-32491224D01*
X-29089054Y-32394054D01*
X-29277597Y-32268073D01*
X-29500000Y-32223834D01*
X-31500000Y-32223834D01*
X-31722403Y-32268073D01*
X-31910946Y-32394054D01*
X-32036927Y-32582597D01*
X-32081166Y-32805000D01*
X-32081166Y-34505000D01*
X-32036927Y-34727403D01*
X-31910946Y-34915946D01*
X-31722403Y-35041927D01*
X-31500000Y-35086166D01*
X-31370000Y-35086166D01*
X-31370000Y-35190685D01*
X-31369999Y-35190690D01*
X-31369999Y-35344693D01*
X-31500000Y-35318834D01*
X-33500000Y-35318834D01*
X-33722403Y-35363073D01*
X-33910946Y-35489054D01*
X-34036927Y-35677597D01*
X-34081166Y-35900000D01*
X-34081166Y-36042967D01*
X-36079314Y-36898000D01*
X-40097097Y-36898000D01*
X-39872481Y-36673384D01*
X-39670000Y-36184553D01*
X-39670000Y-35912433D01*
X-39551073Y-35991897D01*
X-39233000Y-36055166D01*
X-37983000Y-36055166D01*
X-37664927Y-35991897D01*
X-37395277Y-35811723D01*
X-37215103Y-35542073D01*
X-37151834Y-35224000D01*
X-37151834Y-34818542D01*
X-37058292Y-34725000D01*
X-36037405Y-34725000D01*
X-36036927Y-34727403D01*
X-35910946Y-34915946D01*
X-35722403Y-35041927D01*
X-35500000Y-35086166D01*
X-33500000Y-35086166D01*
X-33277597Y-35041927D01*
X-33089054Y-34915946D01*
X-32963073Y-34727403D01*
X-32918834Y-34505000D01*
X-32918834Y-32805000D01*
X-32963073Y-32582597D01*
X-33089054Y-32394054D01*
X-33277597Y-32268073D01*
X-33500000Y-32223834D01*
X-35500000Y-32223834D01*
X-35722403Y-32268073D01*
X-35910946Y-32394054D01*
X-36036927Y-32582597D01*
X-36037405Y-32585000D01*
X-36975000Y-32585000D01*
X-36975000Y-31980000D01*
X-37164500Y-31790500D01*
X-38604000Y-31790500D01*
X-38604000Y-31810500D01*
X-38612000Y-31810500D01*
X-38612000Y-31790500D01*
X-40051500Y-31790500D01*
X-40241000Y-31980000D01*
X-40241000Y-32649776D01*
X-40125601Y-32928373D01*
X-39912372Y-33141602D01*
X-39633775Y-33257000D01*
X-38801500Y-33257000D01*
X-38612002Y-33067502D01*
X-38612002Y-33252294D01*
X-38827542Y-33467834D01*
X-39233000Y-33467834D01*
X-39551073Y-33531103D01*
X-39791125Y-33691500D01*
X-40208118Y-33691500D01*
X-40313500Y-33670538D01*
X-40602379Y-33728000D01*
X-40730993Y-33753583D01*
X-41084927Y-33990073D01*
X-41144624Y-34079416D01*
X-41831120Y-34765913D01*
X-42007917Y-35030508D01*
X-42012016Y-35051113D01*
X-42127519Y-35166616D01*
X-42330000Y-35655447D01*
X-42330000Y-36184553D01*
X-42127519Y-36673384D01*
X-41753384Y-37047519D01*
X-41626814Y-37099946D01*
X-41771427Y-37196573D01*
X-42007917Y-37550507D01*
X-42009533Y-37558630D01*
X-42127519Y-37676616D01*
X-42330000Y-38165447D01*
X-42330000Y-38348026D01*
X-42350628Y-38327398D01*
X-42629225Y-38212000D01*
X-42711097Y-38212000D01*
X-42412481Y-37913384D01*
X-42210000Y-37424553D01*
X-42210000Y-36895447D01*
X-42412481Y-36406616D01*
X-42786616Y-36032481D01*
X-43275447Y-35830000D01*
X-43804553Y-35830000D01*
X-44293384Y-36032481D01*
X-44589810Y-36328907D01*
X-44614803Y-36323936D01*
X-44695560Y-36340000D01*
X-44695561Y-36340000D01*
X-44934750Y-36387578D01*
X-45205989Y-36568813D01*
X-45251737Y-36637280D01*
X-46160360Y-37545903D01*
X-46228826Y-37591651D01*
X-46285597Y-37676616D01*
X-46410062Y-37862891D01*
X-46473704Y-38182838D01*
X-46457639Y-38263601D01*
X-46457640Y-40531601D01*
X-46473704Y-40612360D01*
X-46457640Y-40693118D01*
X-46410062Y-40932307D01*
X-46228827Y-41203547D01*
X-46160358Y-41249296D01*
X-45636935Y-41772720D01*
X-45591187Y-41841187D01*
X-45349621Y-42002595D01*
X-45319948Y-42022422D01*
X-45000001Y-42086064D01*
X-44919242Y-42070000D01*
X-39018258Y-42070000D01*
X-38937500Y-42086064D01*
X-38856742Y-42070000D01*
X-38856741Y-42070000D01*
X-38617552Y-42022422D01*
X-38433173Y-41899224D01*
X-38133000Y-41899224D01*
X-38133000Y-42569000D01*
X-37943500Y-42758500D01*
X-36504000Y-42758500D01*
X-36504000Y-41481500D01*
X-36693500Y-41292000D01*
X-37525775Y-41292000D01*
X-37804372Y-41407398D01*
X-38017601Y-41620627D01*
X-38133000Y-41899224D01*
X-38433173Y-41899224D01*
X-38346313Y-41841187D01*
X-38300563Y-41772717D01*
X-37504619Y-40976773D01*
X-37443073Y-41017897D01*
X-37125000Y-41081166D01*
X-36436700Y-41081166D01*
X-36323273Y-41194593D01*
X-36274735Y-41267235D01*
X-36237672Y-41292000D01*
X-36306500Y-41292000D01*
X-36496000Y-41481500D01*
X-36496000Y-42758500D01*
X-35056500Y-42758500D01*
X-34867000Y-42569000D01*
X-34867000Y-41899224D01*
X-34982399Y-41620627D01*
X-35093026Y-41510000D01*
X-34049340Y-41510000D01*
X-34036927Y-41572403D01*
X-33910946Y-41760946D01*
X-33722403Y-41886927D01*
X-33500000Y-41931166D01*
X-31500000Y-41931166D01*
X-31277597Y-41886927D01*
X-31260633Y-41875592D01*
X-31127235Y-42075237D01*
X-31054591Y-42123776D01*
X-30533774Y-42644594D01*
X-30485236Y-42717236D01*
X-30197459Y-42909522D01*
X-30197458Y-42909523D01*
X-29858001Y-42977045D01*
X-29772315Y-42960001D01*
X-26098038Y-42960001D01*
X-26012353Y-42977045D01*
X-25926668Y-42960001D01*
X-25926667Y-42960001D01*
X-25672896Y-42909523D01*
X-25385118Y-42717236D01*
X-25336578Y-42644591D01*
X-25146250Y-42454262D01*
X-25030984Y-42377244D01*
X-24982445Y-42304600D01*
X-23237844Y-40560000D01*
X-22079818Y-40560000D01*
X-21898000Y-40596166D01*
X-20338000Y-40596166D01*
X-20115597Y-40551927D01*
X-19927054Y-40425946D01*
X-19878397Y-40353126D01*
X-19840602Y-40444372D01*
X-19779166Y-40505808D01*
X-19779166Y-40965000D01*
X-19749329Y-41115000D01*
X-19768000Y-41208865D01*
X-19801073Y-41042597D01*
X-19927054Y-40854054D01*
X-20115597Y-40728073D01*
X-20338000Y-40683834D01*
X-21898000Y-40683834D01*
X-22120403Y-40728073D01*
X-22308946Y-40854054D01*
X-22434927Y-41042597D01*
X-22479166Y-41265000D01*
X-22479166Y-41915000D01*
X-22434927Y-42137403D01*
X-22308946Y-42325946D01*
X-22120403Y-42451927D01*
X-21987999Y-42478264D01*
X-21987999Y-43461792D01*
X-22444217Y-43918010D01*
X-29723987Y-43918010D01*
X-29794234Y-43871073D01*
X-30106345Y-43808990D01*
X-30211727Y-43788028D01*
X-30317109Y-43808990D01*
X-34942890Y-43808990D01*
X-34867000Y-43625776D01*
X-34867000Y-42956000D01*
X-35056500Y-42766500D01*
X-36496000Y-42766500D01*
X-36496000Y-42786500D01*
X-36504000Y-42786500D01*
X-36504000Y-42766500D01*
X-37943500Y-42766500D01*
X-38133000Y-42956000D01*
X-38133000Y-43625776D01*
X-38057110Y-43808990D01*
X-43990857Y-43808990D01*
X-43998073Y-43772715D01*
X-44005871Y-43761044D01*
X-44234563Y-43418781D01*
X-44323905Y-43359085D01*
X-49432991Y-38250000D01*
X-43825915Y-32642925D01*
X-43736573Y-32583229D01*
X-43500083Y-32229295D01*
X-43438000Y-31917184D01*
X-43438000Y-31917183D01*
X-43417038Y-31811802D01*
X-43438000Y-31706420D01*
X-43438000Y-30745010D01*
X-40167181Y-30745010D01*
X-40241000Y-30923224D01*
X-40241000Y-31593000D01*
X-40051500Y-31782500D01*
X-38612000Y-31782500D01*
X-38612000Y-31762500D01*
X-38604000Y-31762500D01*
X-38604000Y-31782500D01*
X-37164500Y-31782500D01*
X-36975000Y-31593000D01*
X-36975000Y-30923224D01*
X-37048819Y-30745010D01*
X-24407666Y-30745010D01*
X-24407666Y-30978000D01*
X-24344397Y-31296073D01*
X-24164223Y-31565723D01*
X-23894573Y-31745897D01*
X-23576500Y-31809166D01*
X-22651500Y-31809166D01*
X-22333427Y-31745897D01*
X-22063777Y-31565723D01*
X-21883603Y-31296073D01*
X-21820334Y-30978000D01*
X-21820334Y-30546500D01*
X-21609500Y-30546500D01*
X-21609500Y-31378775D01*
X-21494102Y-31657372D01*
X-21280873Y-31870601D01*
X-21124651Y-31935311D01*
X-21279372Y-31999398D01*
X-21492601Y-32212627D01*
X-21608000Y-32491224D01*
X-21608000Y-32898500D01*
X-21418500Y-33088000D01*
X-20254000Y-33088000D01*
X-20254000Y-33068000D01*
X-20246000Y-33068000D01*
X-20246000Y-33088000D01*
X-19081500Y-33088000D01*
X-18892000Y-32898500D01*
X-18892000Y-32491224D01*
X-19007399Y-32212627D01*
X-19220628Y-31999398D01*
X-19264349Y-31981288D01*
X-18997127Y-31870601D01*
X-18783898Y-31657372D01*
X-18668500Y-31378775D01*
X-18668500Y-30546500D01*
X-18858000Y-30357000D01*
X-20135000Y-30357000D01*
X-20135000Y-30377000D01*
X-20143000Y-30377000D01*
X-20143000Y-30357000D01*
X-21420000Y-30357000D01*
X-21609500Y-30546500D01*
X-21820334Y-30546500D01*
X-21820334Y-30060699D01*
X-21609500Y-29849865D01*
X-21609500Y-30159500D01*
X-21420000Y-30349000D01*
X-20143000Y-30349000D01*
X-20143000Y-30329000D01*
X-20135000Y-30329000D01*
X-20135000Y-30349000D01*
X-18858000Y-30349000D01*
X-18668500Y-30159500D01*
X-18668500Y-29327225D01*
X-18783898Y-29048628D01*
X-18997127Y-28835399D01*
X-19275724Y-28720000D01*
X-19837761Y-28720000D01*
X-19673054Y-28609946D01*
X-19547073Y-28421403D01*
X-19514000Y-28255135D01*
X-19480927Y-28421403D01*
G36*
X-37909781Y-39091807D02*
X-37997723Y-39150568D01*
X-39277154Y-40430000D01*
X-42022000Y-40430000D01*
X-42022000Y-39923500D01*
X-42211500Y-39734000D01*
X-43536000Y-39734000D01*
X-43536000Y-39754000D01*
X-43544000Y-39754000D01*
X-43544000Y-39734000D01*
X-43564000Y-39734000D01*
X-43564000Y-39726000D01*
X-43544000Y-39726000D01*
X-43544000Y-39706000D01*
X-43536000Y-39706000D01*
X-43536000Y-39726000D01*
X-42211500Y-39726000D01*
X-42022000Y-39536500D01*
X-42022000Y-39288903D01*
X-41753384Y-39557519D01*
X-41264553Y-39760000D01*
X-40735447Y-39760000D01*
X-40246616Y-39557519D01*
X-39872481Y-39183384D01*
X-39812261Y-39038000D01*
X-37899078Y-39038000D01*
X-37909781Y-39091807D01*
X-37909781Y-39091807D01*
G37*
X-37909781Y-39091807D02*
X-37997723Y-39150568D01*
X-39277154Y-40430000D01*
X-42022000Y-40430000D01*
X-42022000Y-39923500D01*
X-42211500Y-39734000D01*
X-43536000Y-39734000D01*
X-43536000Y-39754000D01*
X-43544000Y-39754000D01*
X-43544000Y-39734000D01*
X-43564000Y-39734000D01*
X-43564000Y-39726000D01*
X-43544000Y-39726000D01*
X-43544000Y-39706000D01*
X-43536000Y-39706000D01*
X-43536000Y-39726000D01*
X-42211500Y-39726000D01*
X-42022000Y-39536500D01*
X-42022000Y-39288903D01*
X-41753384Y-39557519D01*
X-41264553Y-39760000D01*
X-40735447Y-39760000D01*
X-40246616Y-39557519D01*
X-39872481Y-39183384D01*
X-39812261Y-39038000D01*
X-37899078Y-39038000D01*
X-37909781Y-39091807D01*
G36*
X-17763146Y-37490640D02*
X-17758382Y-37491588D01*
X-17657771Y-37491588D01*
X-17557245Y-37492492D01*
X-17552477Y-37491588D01*
X-16021619Y-37491588D01*
X-13735484Y-39777724D01*
X-13774314Y-39770000D01*
X-13774315Y-39770000D01*
X-13860000Y-39752956D01*
X-13945685Y-39770000D01*
X-16993500Y-39770000D01*
X-17069500Y-39694000D01*
X-18414000Y-39694000D01*
X-18414000Y-39714000D01*
X-18422000Y-39714000D01*
X-18422000Y-39694000D01*
X-18442000Y-39694000D01*
X-18442000Y-39686000D01*
X-18422000Y-39686000D01*
X-18422000Y-38796500D01*
X-18414000Y-38796500D01*
X-18414000Y-39686000D01*
X-17069500Y-39686000D01*
X-16880000Y-39496500D01*
X-16880000Y-39214225D01*
X-16995398Y-38935628D01*
X-17208627Y-38722399D01*
X-17487224Y-38607000D01*
X-18224500Y-38607000D01*
X-18414000Y-38796500D01*
X-18422000Y-38796500D01*
X-18611500Y-38607000D01*
X-19348776Y-38607000D01*
X-19627373Y-38722399D01*
X-19840602Y-38935628D01*
X-19878397Y-39026874D01*
X-19927054Y-38954054D01*
X-20115597Y-38828073D01*
X-20338000Y-38783834D01*
X-21898000Y-38783834D01*
X-22079818Y-38820000D01*
X-22784792Y-38820000D01*
X-21432792Y-37468000D01*
X-20280798Y-37468000D01*
X-17763146Y-37490640D01*
X-17763146Y-37490640D01*
G37*
X-17763146Y-37490640D02*
X-17758382Y-37491588D01*
X-17657771Y-37491588D01*
X-17557245Y-37492492D01*
X-17552477Y-37491588D01*
X-16021619Y-37491588D01*
X-13735484Y-39777724D01*
X-13774314Y-39770000D01*
X-13774315Y-39770000D01*
X-13860000Y-39752956D01*
X-13945685Y-39770000D01*
X-16993500Y-39770000D01*
X-17069500Y-39694000D01*
X-18414000Y-39694000D01*
X-18414000Y-39714000D01*
X-18422000Y-39714000D01*
X-18422000Y-39694000D01*
X-18442000Y-39694000D01*
X-18442000Y-39686000D01*
X-18422000Y-39686000D01*
X-18422000Y-38796500D01*
X-18414000Y-38796500D01*
X-18414000Y-39686000D01*
X-17069500Y-39686000D01*
X-16880000Y-39496500D01*
X-16880000Y-39214225D01*
X-16995398Y-38935628D01*
X-17208627Y-38722399D01*
X-17487224Y-38607000D01*
X-18224500Y-38607000D01*
X-18414000Y-38796500D01*
X-18422000Y-38796500D01*
X-18611500Y-38607000D01*
X-19348776Y-38607000D01*
X-19627373Y-38722399D01*
X-19840602Y-38935628D01*
X-19878397Y-39026874D01*
X-19927054Y-38954054D01*
X-20115597Y-38828073D01*
X-20338000Y-38783834D01*
X-21898000Y-38783834D01*
X-22079818Y-38820000D01*
X-22784792Y-38820000D01*
X-21432792Y-37468000D01*
X-20280798Y-37468000D01*
X-17763146Y-37490640D01*
G36*
X-14620000Y-14487364D02*
X-14619999Y-15376100D01*
X-14757917Y-15582508D01*
X-14840962Y-16000000D01*
X-14757917Y-16417492D01*
X-14581120Y-16682087D01*
X-8831123Y-22432085D01*
X-8771427Y-22521427D01*
X-8473381Y-22720574D01*
X-8417493Y-22757917D01*
X-8000000Y-22840962D01*
X-7894618Y-22820000D01*
X-5109869Y-22820000D01*
X-4945242Y-22930000D01*
X-5313763Y-23176237D01*
X-5627610Y-23645944D01*
X-5737819Y-24200000D01*
X-5627610Y-24754056D01*
X-5313763Y-25223763D01*
X-4945242Y-25470000D01*
X-5313763Y-25716237D01*
X-5627610Y-26185944D01*
X-5737819Y-26740000D01*
X-5627610Y-27294056D01*
X-5313763Y-27763763D01*
X-5107723Y-27901434D01*
X-5133586Y-27911049D01*
X-5593247Y-28338081D01*
X-5854500Y-28908511D01*
X-5877572Y-29024503D01*
X-5708494Y-29276000D01*
X-4294000Y-29276000D01*
X-4294000Y-29256000D01*
X-4286000Y-29256000D01*
X-4286000Y-29276000D01*
X-4266000Y-29276000D01*
X-4266000Y-29284000D01*
X-4286000Y-29284000D01*
X-4286000Y-29304000D01*
X-4294000Y-29304000D01*
X-4294000Y-29284000D01*
X-5708494Y-29284000D01*
X-5877572Y-29535497D01*
X-5854500Y-29651489D01*
X-5593247Y-30221919D01*
X-5133586Y-30648951D01*
X-5107723Y-30658566D01*
X-5232591Y-30742000D01*
X-6244792Y-30742000D01*
X-16840875Y-20145918D01*
X-16900573Y-20056573D01*
X-17254507Y-19820083D01*
X-17566618Y-19758000D01*
X-17672000Y-19737038D01*
X-17777382Y-19758000D01*
X-18410000Y-19758000D01*
X-18410000Y-19371500D01*
X-18599500Y-19182000D01*
X-19764000Y-19182000D01*
X-19764000Y-19202000D01*
X-19772000Y-19202000D01*
X-19772000Y-19182000D01*
X-20936500Y-19182000D01*
X-21126000Y-19371500D01*
X-21126000Y-19758000D01*
X-23450620Y-19758000D01*
X-23556001Y-19737038D01*
X-23661382Y-19758000D01*
X-23973493Y-19820083D01*
X-24031036Y-19858532D01*
X-23998000Y-19778776D01*
X-23998000Y-19371500D01*
X-24187500Y-19182000D01*
X-25352000Y-19182000D01*
X-25352000Y-20196500D01*
X-25162500Y-20386000D01*
X-24627209Y-20386000D01*
X-25688041Y-21446834D01*
X-25956000Y-21446834D01*
X-26178403Y-21491073D01*
X-26366946Y-21617054D01*
X-26482505Y-21790000D01*
X-26920715Y-21790000D01*
X-26943073Y-21677597D01*
X-27069054Y-21489054D01*
X-27257597Y-21363073D01*
X-27480000Y-21318834D01*
X-29175689Y-21318834D01*
X-29089054Y-21260946D01*
X-28963073Y-21072403D01*
X-28918834Y-20850000D01*
X-28918834Y-19371500D01*
X-26714000Y-19371500D01*
X-26714000Y-19778776D01*
X-26598601Y-20057373D01*
X-26385372Y-20270602D01*
X-26106775Y-20386000D01*
X-25549500Y-20386000D01*
X-25360000Y-20196500D01*
X-25360000Y-19182000D01*
X-26524500Y-19182000D01*
X-26714000Y-19371500D01*
X-28918834Y-19371500D01*
X-28918834Y-19150000D01*
X-28963073Y-18927597D01*
X-29089054Y-18739054D01*
X-29277597Y-18613073D01*
X-29457820Y-18577224D01*
X-26714000Y-18577224D01*
X-26714000Y-18984500D01*
X-26524500Y-19174000D01*
X-25360000Y-19174000D01*
X-25360000Y-18159500D01*
X-25352000Y-18159500D01*
X-25352000Y-19174000D01*
X-24187500Y-19174000D01*
X-23998000Y-18984500D01*
X-23998000Y-18577224D01*
X-21126000Y-18577224D01*
X-21126000Y-18984500D01*
X-20936500Y-19174000D01*
X-19772000Y-19174000D01*
X-19772000Y-18159500D01*
X-19764000Y-18159500D01*
X-19764000Y-19174000D01*
X-18599500Y-19174000D01*
X-18410000Y-18984500D01*
X-18410000Y-18577224D01*
X-18525399Y-18298627D01*
X-18738628Y-18085398D01*
X-19017225Y-17970000D01*
X-19574500Y-17970000D01*
X-19764000Y-18159500D01*
X-19772000Y-18159500D01*
X-19961500Y-17970000D01*
X-20518775Y-17970000D01*
X-20797372Y-18085398D01*
X-21010601Y-18298627D01*
X-21126000Y-18577224D01*
X-23998000Y-18577224D01*
X-24113399Y-18298627D01*
X-24326628Y-18085398D01*
X-24605225Y-17970000D01*
X-25162500Y-17970000D01*
X-25352000Y-18159500D01*
X-25360000Y-18159500D01*
X-25549500Y-17970000D01*
X-26106775Y-17970000D01*
X-26385372Y-18085398D01*
X-26598601Y-18298627D01*
X-26714000Y-18577224D01*
X-29457820Y-18577224D01*
X-29500000Y-18568834D01*
X-31500000Y-18568834D01*
X-31722403Y-18613073D01*
X-31910946Y-18739054D01*
X-32036927Y-18927597D01*
X-32081166Y-19150000D01*
X-32081166Y-20850000D01*
X-32036927Y-21072403D01*
X-31910946Y-21260946D01*
X-31824311Y-21318834D01*
X-33175689Y-21318834D01*
X-33089054Y-21260946D01*
X-32963073Y-21072403D01*
X-32918834Y-20850000D01*
X-32918834Y-19150000D01*
X-32963073Y-18927597D01*
X-33089054Y-18739054D01*
X-33277597Y-18613073D01*
X-33500000Y-18568834D01*
X-35500000Y-18568834D01*
X-35722403Y-18613073D01*
X-35910946Y-18739054D01*
X-36036927Y-18927597D01*
X-36081166Y-19150000D01*
X-36081166Y-19717500D01*
X-37114447Y-19717500D01*
X-37268277Y-19487277D01*
X-37537927Y-19307103D01*
X-37856000Y-19243834D01*
X-39106000Y-19243834D01*
X-39424073Y-19307103D01*
X-39693723Y-19487277D01*
X-39747326Y-19567500D01*
X-40917035Y-19567500D01*
X-41030151Y-19590000D01*
X-41264553Y-19590000D01*
X-41753384Y-19792481D01*
X-42127519Y-20166616D01*
X-42330000Y-20655447D01*
X-42330000Y-21184553D01*
X-42127519Y-21673384D01*
X-41753384Y-22047519D01*
X-41445619Y-22175000D01*
X-41753384Y-22302481D01*
X-42127519Y-22676616D01*
X-42330000Y-23165447D01*
X-42330000Y-23348026D01*
X-42350628Y-23327398D01*
X-42629225Y-23212000D01*
X-42711097Y-23212000D01*
X-42412481Y-22913384D01*
X-42210000Y-22424553D01*
X-42210000Y-21895447D01*
X-42412481Y-21406616D01*
X-42786616Y-21032481D01*
X-43275447Y-20830000D01*
X-43694656Y-20830000D01*
X-43708812Y-20808814D01*
X-43980051Y-20627579D01*
X-44219240Y-20580001D01*
X-44219241Y-20580001D01*
X-44299999Y-20563937D01*
X-44380757Y-20580001D01*
X-45247323Y-20580001D01*
X-45328081Y-20563937D01*
X-45408840Y-20580001D01*
X-45648029Y-20627579D01*
X-45919268Y-20808814D01*
X-45965016Y-20877281D01*
X-46272720Y-21184986D01*
X-46341186Y-21230733D01*
X-46459631Y-21408000D01*
X-46522422Y-21501973D01*
X-46586064Y-21821920D01*
X-46569999Y-21902683D01*
X-46570000Y-25169241D01*
X-46586064Y-25250000D01*
X-46532419Y-25519687D01*
X-46522422Y-25569947D01*
X-46341187Y-25841187D01*
X-46272718Y-25886936D01*
X-45386933Y-26772723D01*
X-45341187Y-26841187D01*
X-45272724Y-26886932D01*
X-45272723Y-26886933D01*
X-45069948Y-27022422D01*
X-44750000Y-27086064D01*
X-44669242Y-27070000D01*
X-39588258Y-27070000D01*
X-39507500Y-27086064D01*
X-39426742Y-27070000D01*
X-39426741Y-27070000D01*
X-39187552Y-27022422D01*
X-38916313Y-26841187D01*
X-38870563Y-26772718D01*
X-38215619Y-26117773D01*
X-38154073Y-26158897D01*
X-37836000Y-26222166D01*
X-37430542Y-26222166D01*
X-37215002Y-26437706D01*
X-37215002Y-26622498D01*
X-37404500Y-26433000D01*
X-38236775Y-26433000D01*
X-38515372Y-26548398D01*
X-38728601Y-26761627D01*
X-38844000Y-27040224D01*
X-38844000Y-27710000D01*
X-38654500Y-27899500D01*
X-37215000Y-27899500D01*
X-37215000Y-27879500D01*
X-37207000Y-27879500D01*
X-37207000Y-27899500D01*
X-35767500Y-27899500D01*
X-35578000Y-27710000D01*
X-35578000Y-27232000D01*
X-34081166Y-27232000D01*
X-34081166Y-27350000D01*
X-34036927Y-27572403D01*
X-33910946Y-27760946D01*
X-33722403Y-27886927D01*
X-33500000Y-27931166D01*
X-31500000Y-27931166D01*
X-31277597Y-27886927D01*
X-31090403Y-27761847D01*
X-31054591Y-27785776D01*
X-30235358Y-28605010D01*
X-35578000Y-28605010D01*
X-35578000Y-28097000D01*
X-35767500Y-27907500D01*
X-37207000Y-27907500D01*
X-37207000Y-27927500D01*
X-37215000Y-27927500D01*
X-37215000Y-27907500D01*
X-38654500Y-27907500D01*
X-38844000Y-28097000D01*
X-38844000Y-28605010D01*
X-43631783Y-28605010D01*
X-43676875Y-28559918D01*
X-43736573Y-28470573D01*
X-43825915Y-28410877D01*
X-49111793Y-23125000D01*
X-43742793Y-17756000D01*
X-40114000Y-17756000D01*
X-40114000Y-18425776D01*
X-39998601Y-18704373D01*
X-39785372Y-18917602D01*
X-39506775Y-19033000D01*
X-38674500Y-19033000D01*
X-38485000Y-18843500D01*
X-38485000Y-17566500D01*
X-38477000Y-17566500D01*
X-38477000Y-18843500D01*
X-38287500Y-19033000D01*
X-37455225Y-19033000D01*
X-37176628Y-18917602D01*
X-36963399Y-18704373D01*
X-36848000Y-18425776D01*
X-36848000Y-17756000D01*
X-37037500Y-17566500D01*
X-38477000Y-17566500D01*
X-38485000Y-17566500D01*
X-39924500Y-17566500D01*
X-40114000Y-17756000D01*
X-43742793Y-17756000D01*
X-42931792Y-16945000D01*
X-40114000Y-16945000D01*
X-40114000Y-17369000D01*
X-39924500Y-17558500D01*
X-38485000Y-17558500D01*
X-38485000Y-17538500D01*
X-38477000Y-17538500D01*
X-38477000Y-17558500D01*
X-37037500Y-17558500D01*
X-36848000Y-17369000D01*
X-36848000Y-16945000D01*
X-22445087Y-16945000D01*
X-22349723Y-17087723D01*
X-22080073Y-17267897D01*
X-21762000Y-17331166D01*
X-20837000Y-17331166D01*
X-20518927Y-17267897D01*
X-20249277Y-17087723D01*
X-20069103Y-16818073D01*
X-20005834Y-16500000D01*
X-20005834Y-16068500D01*
X-19795000Y-16068500D01*
X-19795000Y-16900775D01*
X-19679602Y-17179372D01*
X-19466373Y-17392601D01*
X-19187776Y-17508000D01*
X-18518000Y-17508000D01*
X-18328500Y-17318500D01*
X-18328500Y-15879000D01*
X-18320500Y-15879000D01*
X-18320500Y-17318500D01*
X-18131000Y-17508000D01*
X-17461224Y-17508000D01*
X-17182627Y-17392601D01*
X-16969398Y-17179372D01*
X-16854000Y-16900775D01*
X-16854000Y-16068500D01*
X-17043500Y-15879000D01*
X-18320500Y-15879000D01*
X-18328500Y-15879000D01*
X-19605500Y-15879000D01*
X-19795000Y-16068500D01*
X-20005834Y-16068500D01*
X-20005834Y-15250000D01*
X-20069103Y-14931927D01*
X-20120556Y-14854922D01*
X-20114859Y-14849225D01*
X-19795000Y-14849225D01*
X-19795000Y-15681500D01*
X-19605500Y-15871000D01*
X-18328500Y-15871000D01*
X-18328500Y-14431500D01*
X-18320500Y-14431500D01*
X-18320500Y-15871000D01*
X-17043500Y-15871000D01*
X-16854000Y-15681500D01*
X-16854000Y-14849225D01*
X-16969398Y-14570628D01*
X-17182627Y-14357399D01*
X-17461224Y-14242000D01*
X-18131000Y-14242000D01*
X-18320500Y-14431500D01*
X-18328500Y-14431500D01*
X-18518000Y-14242000D01*
X-19187776Y-14242000D01*
X-19466373Y-14357399D01*
X-19679602Y-14570628D01*
X-19795000Y-14849225D01*
X-20114859Y-14849225D01*
X-19313800Y-14048166D01*
X-18858000Y-14048166D01*
X-18635597Y-14003927D01*
X-18447054Y-13877946D01*
X-18321073Y-13689403D01*
X-18288000Y-13523135D01*
X-18254927Y-13689403D01*
X-18128946Y-13877946D01*
X-17940403Y-14003927D01*
X-17718000Y-14048166D01*
X-16158000Y-14048166D01*
X-15935597Y-14003927D01*
X-15747054Y-13877946D01*
X-15621073Y-13689403D01*
X-15587374Y-13519989D01*
X-14620000Y-14487364D01*
X-14620000Y-14487364D01*
G37*
X-14620000Y-14487364D02*
X-14619999Y-15376100D01*
X-14757917Y-15582508D01*
X-14840962Y-16000000D01*
X-14757917Y-16417492D01*
X-14581120Y-16682087D01*
X-8831123Y-22432085D01*
X-8771427Y-22521427D01*
X-8473381Y-22720574D01*
X-8417493Y-22757917D01*
X-8000000Y-22840962D01*
X-7894618Y-22820000D01*
X-5109869Y-22820000D01*
X-4945242Y-22930000D01*
X-5313763Y-23176237D01*
X-5627610Y-23645944D01*
X-5737819Y-24200000D01*
X-5627610Y-24754056D01*
X-5313763Y-25223763D01*
X-4945242Y-25470000D01*
X-5313763Y-25716237D01*
X-5627610Y-26185944D01*
X-5737819Y-26740000D01*
X-5627610Y-27294056D01*
X-5313763Y-27763763D01*
X-5107723Y-27901434D01*
X-5133586Y-27911049D01*
X-5593247Y-28338081D01*
X-5854500Y-28908511D01*
X-5877572Y-29024503D01*
X-5708494Y-29276000D01*
X-4294000Y-29276000D01*
X-4294000Y-29256000D01*
X-4286000Y-29256000D01*
X-4286000Y-29276000D01*
X-4266000Y-29276000D01*
X-4266000Y-29284000D01*
X-4286000Y-29284000D01*
X-4286000Y-29304000D01*
X-4294000Y-29304000D01*
X-4294000Y-29284000D01*
X-5708494Y-29284000D01*
X-5877572Y-29535497D01*
X-5854500Y-29651489D01*
X-5593247Y-30221919D01*
X-5133586Y-30648951D01*
X-5107723Y-30658566D01*
X-5232591Y-30742000D01*
X-6244792Y-30742000D01*
X-16840875Y-20145918D01*
X-16900573Y-20056573D01*
X-17254507Y-19820083D01*
X-17566618Y-19758000D01*
X-17672000Y-19737038D01*
X-17777382Y-19758000D01*
X-18410000Y-19758000D01*
X-18410000Y-19371500D01*
X-18599500Y-19182000D01*
X-19764000Y-19182000D01*
X-19764000Y-19202000D01*
X-19772000Y-19202000D01*
X-19772000Y-19182000D01*
X-20936500Y-19182000D01*
X-21126000Y-19371500D01*
X-21126000Y-19758000D01*
X-23450620Y-19758000D01*
X-23556001Y-19737038D01*
X-23661382Y-19758000D01*
X-23973493Y-19820083D01*
X-24031036Y-19858532D01*
X-23998000Y-19778776D01*
X-23998000Y-19371500D01*
X-24187500Y-19182000D01*
X-25352000Y-19182000D01*
X-25352000Y-20196500D01*
X-25162500Y-20386000D01*
X-24627209Y-20386000D01*
X-25688041Y-21446834D01*
X-25956000Y-21446834D01*
X-26178403Y-21491073D01*
X-26366946Y-21617054D01*
X-26482505Y-21790000D01*
X-26920715Y-21790000D01*
X-26943073Y-21677597D01*
X-27069054Y-21489054D01*
X-27257597Y-21363073D01*
X-27480000Y-21318834D01*
X-29175689Y-21318834D01*
X-29089054Y-21260946D01*
X-28963073Y-21072403D01*
X-28918834Y-20850000D01*
X-28918834Y-19371500D01*
X-26714000Y-19371500D01*
X-26714000Y-19778776D01*
X-26598601Y-20057373D01*
X-26385372Y-20270602D01*
X-26106775Y-20386000D01*
X-25549500Y-20386000D01*
X-25360000Y-20196500D01*
X-25360000Y-19182000D01*
X-26524500Y-19182000D01*
X-26714000Y-19371500D01*
X-28918834Y-19371500D01*
X-28918834Y-19150000D01*
X-28963073Y-18927597D01*
X-29089054Y-18739054D01*
X-29277597Y-18613073D01*
X-29457820Y-18577224D01*
X-26714000Y-18577224D01*
X-26714000Y-18984500D01*
X-26524500Y-19174000D01*
X-25360000Y-19174000D01*
X-25360000Y-18159500D01*
X-25352000Y-18159500D01*
X-25352000Y-19174000D01*
X-24187500Y-19174000D01*
X-23998000Y-18984500D01*
X-23998000Y-18577224D01*
X-21126000Y-18577224D01*
X-21126000Y-18984500D01*
X-20936500Y-19174000D01*
X-19772000Y-19174000D01*
X-19772000Y-18159500D01*
X-19764000Y-18159500D01*
X-19764000Y-19174000D01*
X-18599500Y-19174000D01*
X-18410000Y-18984500D01*
X-18410000Y-18577224D01*
X-18525399Y-18298627D01*
X-18738628Y-18085398D01*
X-19017225Y-17970000D01*
X-19574500Y-17970000D01*
X-19764000Y-18159500D01*
X-19772000Y-18159500D01*
X-19961500Y-17970000D01*
X-20518775Y-17970000D01*
X-20797372Y-18085398D01*
X-21010601Y-18298627D01*
X-21126000Y-18577224D01*
X-23998000Y-18577224D01*
X-24113399Y-18298627D01*
X-24326628Y-18085398D01*
X-24605225Y-17970000D01*
X-25162500Y-17970000D01*
X-25352000Y-18159500D01*
X-25360000Y-18159500D01*
X-25549500Y-17970000D01*
X-26106775Y-17970000D01*
X-26385372Y-18085398D01*
X-26598601Y-18298627D01*
X-26714000Y-18577224D01*
X-29457820Y-18577224D01*
X-29500000Y-18568834D01*
X-31500000Y-18568834D01*
X-31722403Y-18613073D01*
X-31910946Y-18739054D01*
X-32036927Y-18927597D01*
X-32081166Y-19150000D01*
X-32081166Y-20850000D01*
X-32036927Y-21072403D01*
X-31910946Y-21260946D01*
X-31824311Y-21318834D01*
X-33175689Y-21318834D01*
X-33089054Y-21260946D01*
X-32963073Y-21072403D01*
X-32918834Y-20850000D01*
X-32918834Y-19150000D01*
X-32963073Y-18927597D01*
X-33089054Y-18739054D01*
X-33277597Y-18613073D01*
X-33500000Y-18568834D01*
X-35500000Y-18568834D01*
X-35722403Y-18613073D01*
X-35910946Y-18739054D01*
X-36036927Y-18927597D01*
X-36081166Y-19150000D01*
X-36081166Y-19717500D01*
X-37114447Y-19717500D01*
X-37268277Y-19487277D01*
X-37537927Y-19307103D01*
X-37856000Y-19243834D01*
X-39106000Y-19243834D01*
X-39424073Y-19307103D01*
X-39693723Y-19487277D01*
X-39747326Y-19567500D01*
X-40917035Y-19567500D01*
X-41030151Y-19590000D01*
X-41264553Y-19590000D01*
X-41753384Y-19792481D01*
X-42127519Y-20166616D01*
X-42330000Y-20655447D01*
X-42330000Y-21184553D01*
X-42127519Y-21673384D01*
X-41753384Y-22047519D01*
X-41445619Y-22175000D01*
X-41753384Y-22302481D01*
X-42127519Y-22676616D01*
X-42330000Y-23165447D01*
X-42330000Y-23348026D01*
X-42350628Y-23327398D01*
X-42629225Y-23212000D01*
X-42711097Y-23212000D01*
X-42412481Y-22913384D01*
X-42210000Y-22424553D01*
X-42210000Y-21895447D01*
X-42412481Y-21406616D01*
X-42786616Y-21032481D01*
X-43275447Y-20830000D01*
X-43694656Y-20830000D01*
X-43708812Y-20808814D01*
X-43980051Y-20627579D01*
X-44219240Y-20580001D01*
X-44219241Y-20580001D01*
X-44299999Y-20563937D01*
X-44380757Y-20580001D01*
X-45247323Y-20580001D01*
X-45328081Y-20563937D01*
X-45408840Y-20580001D01*
X-45648029Y-20627579D01*
X-45919268Y-20808814D01*
X-45965016Y-20877281D01*
X-46272720Y-21184986D01*
X-46341186Y-21230733D01*
X-46459631Y-21408000D01*
X-46522422Y-21501973D01*
X-46586064Y-21821920D01*
X-46569999Y-21902683D01*
X-46570000Y-25169241D01*
X-46586064Y-25250000D01*
X-46532419Y-25519687D01*
X-46522422Y-25569947D01*
X-46341187Y-25841187D01*
X-46272718Y-25886936D01*
X-45386933Y-26772723D01*
X-45341187Y-26841187D01*
X-45272724Y-26886932D01*
X-45272723Y-26886933D01*
X-45069948Y-27022422D01*
X-44750000Y-27086064D01*
X-44669242Y-27070000D01*
X-39588258Y-27070000D01*
X-39507500Y-27086064D01*
X-39426742Y-27070000D01*
X-39426741Y-27070000D01*
X-39187552Y-27022422D01*
X-38916313Y-26841187D01*
X-38870563Y-26772718D01*
X-38215619Y-26117773D01*
X-38154073Y-26158897D01*
X-37836000Y-26222166D01*
X-37430542Y-26222166D01*
X-37215002Y-26437706D01*
X-37215002Y-26622498D01*
X-37404500Y-26433000D01*
X-38236775Y-26433000D01*
X-38515372Y-26548398D01*
X-38728601Y-26761627D01*
X-38844000Y-27040224D01*
X-38844000Y-27710000D01*
X-38654500Y-27899500D01*
X-37215000Y-27899500D01*
X-37215000Y-27879500D01*
X-37207000Y-27879500D01*
X-37207000Y-27899500D01*
X-35767500Y-27899500D01*
X-35578000Y-27710000D01*
X-35578000Y-27232000D01*
X-34081166Y-27232000D01*
X-34081166Y-27350000D01*
X-34036927Y-27572403D01*
X-33910946Y-27760946D01*
X-33722403Y-27886927D01*
X-33500000Y-27931166D01*
X-31500000Y-27931166D01*
X-31277597Y-27886927D01*
X-31090403Y-27761847D01*
X-31054591Y-27785776D01*
X-30235358Y-28605010D01*
X-35578000Y-28605010D01*
X-35578000Y-28097000D01*
X-35767500Y-27907500D01*
X-37207000Y-27907500D01*
X-37207000Y-27927500D01*
X-37215000Y-27927500D01*
X-37215000Y-27907500D01*
X-38654500Y-27907500D01*
X-38844000Y-28097000D01*
X-38844000Y-28605010D01*
X-43631783Y-28605010D01*
X-43676875Y-28559918D01*
X-43736573Y-28470573D01*
X-43825915Y-28410877D01*
X-49111793Y-23125000D01*
X-43742793Y-17756000D01*
X-40114000Y-17756000D01*
X-40114000Y-18425776D01*
X-39998601Y-18704373D01*
X-39785372Y-18917602D01*
X-39506775Y-19033000D01*
X-38674500Y-19033000D01*
X-38485000Y-18843500D01*
X-38485000Y-17566500D01*
X-38477000Y-17566500D01*
X-38477000Y-18843500D01*
X-38287500Y-19033000D01*
X-37455225Y-19033000D01*
X-37176628Y-18917602D01*
X-36963399Y-18704373D01*
X-36848000Y-18425776D01*
X-36848000Y-17756000D01*
X-37037500Y-17566500D01*
X-38477000Y-17566500D01*
X-38485000Y-17566500D01*
X-39924500Y-17566500D01*
X-40114000Y-17756000D01*
X-43742793Y-17756000D01*
X-42931792Y-16945000D01*
X-40114000Y-16945000D01*
X-40114000Y-17369000D01*
X-39924500Y-17558500D01*
X-38485000Y-17558500D01*
X-38485000Y-17538500D01*
X-38477000Y-17538500D01*
X-38477000Y-17558500D01*
X-37037500Y-17558500D01*
X-36848000Y-17369000D01*
X-36848000Y-16945000D01*
X-22445087Y-16945000D01*
X-22349723Y-17087723D01*
X-22080073Y-17267897D01*
X-21762000Y-17331166D01*
X-20837000Y-17331166D01*
X-20518927Y-17267897D01*
X-20249277Y-17087723D01*
X-20069103Y-16818073D01*
X-20005834Y-16500000D01*
X-20005834Y-16068500D01*
X-19795000Y-16068500D01*
X-19795000Y-16900775D01*
X-19679602Y-17179372D01*
X-19466373Y-17392601D01*
X-19187776Y-17508000D01*
X-18518000Y-17508000D01*
X-18328500Y-17318500D01*
X-18328500Y-15879000D01*
X-18320500Y-15879000D01*
X-18320500Y-17318500D01*
X-18131000Y-17508000D01*
X-17461224Y-17508000D01*
X-17182627Y-17392601D01*
X-16969398Y-17179372D01*
X-16854000Y-16900775D01*
X-16854000Y-16068500D01*
X-17043500Y-15879000D01*
X-18320500Y-15879000D01*
X-18328500Y-15879000D01*
X-19605500Y-15879000D01*
X-19795000Y-16068500D01*
X-20005834Y-16068500D01*
X-20005834Y-15250000D01*
X-20069103Y-14931927D01*
X-20120556Y-14854922D01*
X-20114859Y-14849225D01*
X-19795000Y-14849225D01*
X-19795000Y-15681500D01*
X-19605500Y-15871000D01*
X-18328500Y-15871000D01*
X-18328500Y-14431500D01*
X-18320500Y-14431500D01*
X-18320500Y-15871000D01*
X-17043500Y-15871000D01*
X-16854000Y-15681500D01*
X-16854000Y-14849225D01*
X-16969398Y-14570628D01*
X-17182627Y-14357399D01*
X-17461224Y-14242000D01*
X-18131000Y-14242000D01*
X-18320500Y-14431500D01*
X-18328500Y-14431500D01*
X-18518000Y-14242000D01*
X-19187776Y-14242000D01*
X-19466373Y-14357399D01*
X-19679602Y-14570628D01*
X-19795000Y-14849225D01*
X-20114859Y-14849225D01*
X-19313800Y-14048166D01*
X-18858000Y-14048166D01*
X-18635597Y-14003927D01*
X-18447054Y-13877946D01*
X-18321073Y-13689403D01*
X-18288000Y-13523135D01*
X-18254927Y-13689403D01*
X-18128946Y-13877946D01*
X-17940403Y-14003927D01*
X-17718000Y-14048166D01*
X-16158000Y-14048166D01*
X-15935597Y-14003927D01*
X-15747054Y-13877946D01*
X-15621073Y-13689403D01*
X-15587374Y-13519989D01*
X-14620000Y-14487364D01*
G36*
X-19586602Y-26728372D02*
X-19525166Y-26789808D01*
X-19525166Y-27249000D01*
X-19495329Y-27399000D01*
X-19514000Y-27492865D01*
X-19547073Y-27326597D01*
X-19673054Y-27138054D01*
X-19861597Y-27012073D01*
X-20084000Y-26967834D01*
X-21644000Y-26967834D01*
X-21866403Y-27012073D01*
X-22054946Y-27138054D01*
X-22180927Y-27326597D01*
X-22225166Y-27549000D01*
X-22225166Y-28004800D01*
X-23073334Y-28852968D01*
X-23351517Y-28667093D01*
X-23647794Y-28608160D01*
X-21883634Y-26844000D01*
X-21825818Y-26844000D01*
X-21644000Y-26880166D01*
X-20084000Y-26880166D01*
X-19861597Y-26835927D01*
X-19673054Y-26709946D01*
X-19624397Y-26637126D01*
X-19586602Y-26728372D01*
X-19586602Y-26728372D01*
G37*
X-19586602Y-26728372D02*
X-19525166Y-26789808D01*
X-19525166Y-27249000D01*
X-19495329Y-27399000D01*
X-19514000Y-27492865D01*
X-19547073Y-27326597D01*
X-19673054Y-27138054D01*
X-19861597Y-27012073D01*
X-20084000Y-26967834D01*
X-21644000Y-26967834D01*
X-21866403Y-27012073D01*
X-22054946Y-27138054D01*
X-22180927Y-27326597D01*
X-22225166Y-27549000D01*
X-22225166Y-28004800D01*
X-23073334Y-28852968D01*
X-23351517Y-28667093D01*
X-23647794Y-28608160D01*
X-21883634Y-26844000D01*
X-21825818Y-26844000D01*
X-21644000Y-26880166D01*
X-20084000Y-26880166D01*
X-19861597Y-26835927D01*
X-19673054Y-26709946D01*
X-19624397Y-26637126D01*
X-19586602Y-26728372D01*
G36*
X-17872207Y-24891000D02*
X-17970500Y-24891000D01*
X-18160000Y-25080500D01*
X-18160000Y-25970000D01*
X-18140000Y-25970000D01*
X-18140000Y-25978000D01*
X-18160000Y-25978000D01*
X-18160000Y-25998000D01*
X-18168000Y-25998000D01*
X-18168000Y-25978000D01*
X-18188000Y-25978000D01*
X-18188000Y-25970000D01*
X-18168000Y-25970000D01*
X-18168000Y-25080500D01*
X-18357500Y-24891000D01*
X-19094776Y-24891000D01*
X-19373373Y-25006399D01*
X-19586602Y-25219628D01*
X-19624397Y-25310874D01*
X-19673054Y-25238054D01*
X-19861597Y-25112073D01*
X-20084000Y-25067834D01*
X-21644000Y-25067834D01*
X-21825818Y-25104000D01*
X-22158316Y-25104000D01*
X-22244001Y-25086956D01*
X-22329686Y-25104000D01*
X-22583457Y-25154478D01*
X-22871235Y-25346765D01*
X-22919773Y-25419407D01*
X-24880365Y-27380000D01*
X-26924801Y-27380000D01*
X-26918834Y-27350000D01*
X-26918834Y-27232000D01*
X-25775382Y-27232000D01*
X-25670000Y-27252962D01*
X-25564618Y-27232000D01*
X-25252507Y-27169917D01*
X-24898573Y-26933427D01*
X-24838875Y-26844082D01*
X-21542792Y-23548000D01*
X-19215207Y-23548000D01*
X-17872207Y-24891000D01*
X-17872207Y-24891000D01*
G37*
X-17872207Y-24891000D02*
X-17970500Y-24891000D01*
X-18160000Y-25080500D01*
X-18160000Y-25970000D01*
X-18140000Y-25970000D01*
X-18140000Y-25978000D01*
X-18160000Y-25978000D01*
X-18160000Y-25998000D01*
X-18168000Y-25998000D01*
X-18168000Y-25978000D01*
X-18188000Y-25978000D01*
X-18188000Y-25970000D01*
X-18168000Y-25970000D01*
X-18168000Y-25080500D01*
X-18357500Y-24891000D01*
X-19094776Y-24891000D01*
X-19373373Y-25006399D01*
X-19586602Y-25219628D01*
X-19624397Y-25310874D01*
X-19673054Y-25238054D01*
X-19861597Y-25112073D01*
X-20084000Y-25067834D01*
X-21644000Y-25067834D01*
X-21825818Y-25104000D01*
X-22158316Y-25104000D01*
X-22244001Y-25086956D01*
X-22329686Y-25104000D01*
X-22583457Y-25154478D01*
X-22871235Y-25346765D01*
X-22919773Y-25419407D01*
X-24880365Y-27380000D01*
X-26924801Y-27380000D01*
X-26918834Y-27350000D01*
X-26918834Y-27232000D01*
X-25775382Y-27232000D01*
X-25670000Y-27252962D01*
X-25564618Y-27232000D01*
X-25252507Y-27169917D01*
X-24898573Y-26933427D01*
X-24838875Y-26844082D01*
X-21542792Y-23548000D01*
X-19215207Y-23548000D01*
X-17872207Y-24891000D01*
G36*
X-41753384Y-24557519D02*
X-41264553Y-24760000D01*
X-40735447Y-24760000D01*
X-40246616Y-24557519D01*
X-39995097Y-24306000D01*
X-38730323Y-24306000D01*
X-38777187Y-24337313D01*
X-38822935Y-24405780D01*
X-39847154Y-25430000D01*
X-42022000Y-25430000D01*
X-42022000Y-24923500D01*
X-42211500Y-24734000D01*
X-43536000Y-24734000D01*
X-43536000Y-24754000D01*
X-43544000Y-24754000D01*
X-43544000Y-24734000D01*
X-43564000Y-24734000D01*
X-43564000Y-24726000D01*
X-43544000Y-24726000D01*
X-43544000Y-24706000D01*
X-43536000Y-24706000D01*
X-43536000Y-24726000D01*
X-42211500Y-24726000D01*
X-42022000Y-24536500D01*
X-42022000Y-24288903D01*
X-41753384Y-24557519D01*
X-41753384Y-24557519D01*
G37*
X-41753384Y-24557519D02*
X-41264553Y-24760000D01*
X-40735447Y-24760000D01*
X-40246616Y-24557519D01*
X-39995097Y-24306000D01*
X-38730323Y-24306000D01*
X-38777187Y-24337313D01*
X-38822935Y-24405780D01*
X-39847154Y-25430000D01*
X-42022000Y-25430000D01*
X-42022000Y-24923500D01*
X-42211500Y-24734000D01*
X-43536000Y-24734000D01*
X-43536000Y-24754000D01*
X-43544000Y-24754000D01*
X-43544000Y-24734000D01*
X-43564000Y-24734000D01*
X-43564000Y-24726000D01*
X-43544000Y-24726000D01*
X-43544000Y-24706000D01*
X-43536000Y-24706000D01*
X-43536000Y-24726000D01*
X-42211500Y-24726000D01*
X-42022000Y-24536500D01*
X-42022000Y-24288903D01*
X-41753384Y-24557519D01*
G36*
X-18336000Y-9285166D02*
X-17136000Y-9285166D01*
X-17079865Y-9274000D01*
X-16239207Y-9274000D01*
X-8259123Y-17254085D01*
X-8199427Y-17343427D01*
X-7877546Y-17558500D01*
X-7845493Y-17579917D01*
X-7428001Y-17662962D01*
X-7322619Y-17642000D01*
X-5256537Y-17642000D01*
X-4945242Y-17850000D01*
X-5313763Y-18096237D01*
X-5627610Y-18565944D01*
X-5737819Y-19120000D01*
X-5627610Y-19674056D01*
X-5313763Y-20143763D01*
X-4945242Y-20390000D01*
X-5313763Y-20636237D01*
X-5343004Y-20680000D01*
X-7556792Y-20680000D01*
X-12880000Y-15356793D01*
X-12880000Y-14212684D01*
X-12862956Y-14126998D01*
X-12930478Y-13787541D01*
X-13074228Y-13572404D01*
X-13122765Y-13499763D01*
X-13195406Y-13451226D01*
X-14994225Y-11652408D01*
X-15042764Y-11579764D01*
X-15330542Y-11387477D01*
X-15477194Y-11358306D01*
X-15589500Y-11246000D01*
X-16934000Y-11246000D01*
X-16934000Y-11266000D01*
X-16942000Y-11266000D01*
X-16942000Y-11246000D01*
X-16962000Y-11246000D01*
X-16962000Y-11238000D01*
X-16942000Y-11238000D01*
X-16942000Y-10348500D01*
X-16934000Y-10348500D01*
X-16934000Y-11238000D01*
X-15589500Y-11238000D01*
X-15400000Y-11048500D01*
X-15400000Y-10766225D01*
X-15515398Y-10487628D01*
X-15728627Y-10274399D01*
X-16007224Y-10159000D01*
X-16744500Y-10159000D01*
X-16934000Y-10348500D01*
X-16942000Y-10348500D01*
X-17131500Y-10159000D01*
X-17868776Y-10159000D01*
X-18147373Y-10274399D01*
X-18360602Y-10487628D01*
X-18398397Y-10578874D01*
X-18447054Y-10506054D01*
X-18635597Y-10380073D01*
X-18858000Y-10335834D01*
X-20418000Y-10335834D01*
X-20599818Y-10372000D01*
X-21951314Y-10372000D01*
X-22010933Y-10360141D01*
X-20924792Y-9274000D01*
X-18392135Y-9274000D01*
X-18336000Y-9285166D01*
X-18336000Y-9285166D01*
G37*
X-18336000Y-9285166D02*
X-17136000Y-9285166D01*
X-17079865Y-9274000D01*
X-16239207Y-9274000D01*
X-8259123Y-17254085D01*
X-8199427Y-17343427D01*
X-7877546Y-17558500D01*
X-7845493Y-17579917D01*
X-7428001Y-17662962D01*
X-7322619Y-17642000D01*
X-5256537Y-17642000D01*
X-4945242Y-17850000D01*
X-5313763Y-18096237D01*
X-5627610Y-18565944D01*
X-5737819Y-19120000D01*
X-5627610Y-19674056D01*
X-5313763Y-20143763D01*
X-4945242Y-20390000D01*
X-5313763Y-20636237D01*
X-5343004Y-20680000D01*
X-7556792Y-20680000D01*
X-12880000Y-15356793D01*
X-12880000Y-14212684D01*
X-12862956Y-14126998D01*
X-12930478Y-13787541D01*
X-13074228Y-13572404D01*
X-13122765Y-13499763D01*
X-13195406Y-13451226D01*
X-14994225Y-11652408D01*
X-15042764Y-11579764D01*
X-15330542Y-11387477D01*
X-15477194Y-11358306D01*
X-15589500Y-11246000D01*
X-16934000Y-11246000D01*
X-16934000Y-11266000D01*
X-16942000Y-11266000D01*
X-16942000Y-11246000D01*
X-16962000Y-11246000D01*
X-16962000Y-11238000D01*
X-16942000Y-11238000D01*
X-16942000Y-10348500D01*
X-16934000Y-10348500D01*
X-16934000Y-11238000D01*
X-15589500Y-11238000D01*
X-15400000Y-11048500D01*
X-15400000Y-10766225D01*
X-15515398Y-10487628D01*
X-15728627Y-10274399D01*
X-16007224Y-10159000D01*
X-16744500Y-10159000D01*
X-16934000Y-10348500D01*
X-16942000Y-10348500D01*
X-17131500Y-10159000D01*
X-17868776Y-10159000D01*
X-18147373Y-10274399D01*
X-18360602Y-10487628D01*
X-18398397Y-10578874D01*
X-18447054Y-10506054D01*
X-18635597Y-10380073D01*
X-18858000Y-10335834D01*
X-20418000Y-10335834D01*
X-20599818Y-10372000D01*
X-21951314Y-10372000D01*
X-22010933Y-10360141D01*
X-20924792Y-9274000D01*
X-18392135Y-9274000D01*
X-18336000Y-9285166D01*
G36*
X-36757073Y-9093103D02*
X-37026723Y-9273277D01*
X-37180553Y-9503500D01*
X-37454745Y-9503500D01*
X-37719000Y-9450936D01*
X-37719001Y-9450936D01*
X-37726471Y-9452422D01*
X-38038947Y-9514578D01*
X-38081374Y-9542927D01*
X-38241723Y-9650068D01*
X-38241725Y-9650070D01*
X-38310186Y-9695814D01*
X-38355931Y-9764276D01*
X-39521654Y-10930000D01*
X-42038247Y-10930000D01*
X-42022000Y-10890776D01*
X-42022000Y-10173500D01*
X-42211500Y-9984000D01*
X-43536000Y-9984000D01*
X-43536000Y-10004000D01*
X-43544000Y-10004000D01*
X-43544000Y-9984000D01*
X-43564000Y-9984000D01*
X-43564000Y-9976000D01*
X-43544000Y-9976000D01*
X-43544000Y-9956000D01*
X-43536000Y-9956000D01*
X-43536000Y-9976000D01*
X-42211500Y-9976000D01*
X-42022000Y-9786500D01*
X-42022000Y-9538903D01*
X-41753384Y-9807519D01*
X-41264553Y-10010000D01*
X-40735447Y-10010000D01*
X-40246616Y-9807519D01*
X-39872481Y-9433384D01*
X-39721962Y-9070000D01*
X-36640927Y-9070000D01*
X-36757073Y-9093103D01*
X-36757073Y-9093103D01*
G37*
X-36757073Y-9093103D02*
X-37026723Y-9273277D01*
X-37180553Y-9503500D01*
X-37454745Y-9503500D01*
X-37719000Y-9450936D01*
X-37719001Y-9450936D01*
X-37726471Y-9452422D01*
X-38038947Y-9514578D01*
X-38081374Y-9542927D01*
X-38241723Y-9650068D01*
X-38241725Y-9650070D01*
X-38310186Y-9695814D01*
X-38355931Y-9764276D01*
X-39521654Y-10930000D01*
X-42038247Y-10930000D01*
X-42022000Y-10890776D01*
X-42022000Y-10173500D01*
X-42211500Y-9984000D01*
X-43536000Y-9984000D01*
X-43536000Y-10004000D01*
X-43544000Y-10004000D01*
X-43544000Y-9984000D01*
X-43564000Y-9984000D01*
X-43564000Y-9976000D01*
X-43544000Y-9976000D01*
X-43544000Y-9956000D01*
X-43536000Y-9956000D01*
X-43536000Y-9976000D01*
X-42211500Y-9976000D01*
X-42022000Y-9786500D01*
X-42022000Y-9538903D01*
X-41753384Y-9807519D01*
X-41264553Y-10010000D01*
X-40735447Y-10010000D01*
X-40246616Y-9807519D01*
X-39872481Y-9433384D01*
X-39721962Y-9070000D01*
X-36640927Y-9070000D01*
X-36757073Y-9093103D01*
G04 #@! TD*
M02*
