M48
;DRILL file {KiCad (5.0.1-3-g963ef8bb5)} date Monday, October 22, 2018 at 04:54:50 PM
;FORMAT={-:-/ absolute / metric / decimal}
FMAT,2
METRIC,TZ
T1C0.762
T2C1.000
T3C3.100
%
G90
G05
M71
T1
X-43.5Y-4.724
X-43.5Y-7.244
X-43.5Y-9.763
X-41.Y-5.984
X-41.Y-8.504
X-41.Y-11.024
X-43.5Y-34.188
X-43.5Y-36.708
X-43.5Y-39.227
X-41.Y-35.448
X-41.Y-37.968
X-41.Y-40.488
X-43.5Y-49.428
X-43.5Y-51.948
X-43.5Y-54.467
X-41.Y-50.688
X-41.Y-53.208
X-41.Y-55.728
X-43.5Y-19.456
X-43.5Y-21.976
X-43.5Y-24.495
X-41.Y-20.716
X-41.Y-23.236
X-41.Y-25.756
T2
X-4.29Y-11.492
X-4.29Y-14.032
X-4.29Y-16.572
X-4.29Y-19.112
X-4.29Y-21.652
X-4.29Y-24.192
X-4.29Y-26.732
X-4.29Y-29.272
X-4.29Y-31.812
X-4.29Y-34.352
X-4.29Y-36.892
X-4.29Y-39.432
X-4.29Y-41.972
X-4.29Y-44.512
X-4.29Y-47.052
X-4.29Y-49.592
X-4.29Y-52.132
X-4.29Y-54.672
X-4.29Y-57.212
X-4.29Y-59.752
X-1.75Y-11.492
X-1.75Y-14.032
X-1.75Y-16.572
X-1.75Y-19.112
X-1.75Y-21.652
X-1.75Y-24.192
X-1.75Y-26.732
X-1.75Y-29.272
X-1.75Y-31.812
X-1.75Y-34.352
X-1.75Y-36.892
X-1.75Y-39.432
X-1.75Y-41.972
X-1.75Y-44.512
X-1.75Y-47.052
X-1.75Y-49.592
X-1.75Y-52.132
X-1.75Y-54.672
X-1.75Y-57.212
X-1.75Y-59.752
T3
X-50.Y-32.338
X-50.Y-42.338
X-50.Y-47.578
X-50.Y-57.578
X-50.Y-17.606
X-50.Y-27.606
X-50.Y-2.874
X-50.Y-12.874
T0
M30
