G04 #@! TF.GenerationSoftware,KiCad,Pcbnew,5.1.5-52549c5~84~ubuntu19.10.1*
G04 #@! TF.CreationDate,2020-01-22T18:54:25-06:00*
G04 #@! TF.ProjectId,PiKwonDoHAT,50694b77-6f6e-4446-9f48-41542e6b6963,rev?*
G04 #@! TF.SameCoordinates,PX6bc3e40PY7b85d38*
G04 #@! TF.FileFunction,Soldermask,Top*
G04 #@! TF.FilePolarity,Negative*
%FSLAX46Y46*%
G04 Gerber Fmt 4.6, Leading zero omitted, Abs format (unit mm)*
G04 Created by KiCad (PCBNEW 5.1.5-52549c5~84~ubuntu19.10.1) date 2020-01-22 18:54:25*
%MOMM*%
%LPD*%
G04 APERTURE LIST*
%ADD10C,0.100000*%
G04 APERTURE END LIST*
D10*
G36*
X-37533960Y4902933D02*
G01*
X-37357667Y4867866D01*
X-37286984Y4838588D01*
X-37025540Y4730295D01*
X-36726631Y4530570D01*
X-36472430Y4276369D01*
X-36272705Y3977460D01*
X-36248732Y3919583D01*
X-36135134Y3645333D01*
X-36065000Y3292747D01*
X-36065000Y2933253D01*
X-36126713Y2623000D01*
X-36135134Y2580668D01*
X-36272705Y2248540D01*
X-36472430Y1949631D01*
X-36726631Y1695430D01*
X-37025540Y1495705D01*
X-37220096Y1415118D01*
X-37357667Y1358134D01*
X-37533960Y1323067D01*
X-37710252Y1288000D01*
X-38069748Y1288000D01*
X-38246040Y1323067D01*
X-38422333Y1358134D01*
X-38559904Y1415118D01*
X-38754460Y1495705D01*
X-39053369Y1695430D01*
X-39307570Y1949631D01*
X-39507295Y2248540D01*
X-39644866Y2580668D01*
X-39653286Y2623000D01*
X-39715000Y2933253D01*
X-39715000Y3292747D01*
X-39644866Y3645333D01*
X-39531268Y3919583D01*
X-39507295Y3977460D01*
X-39307570Y4276369D01*
X-39053369Y4530570D01*
X-38754460Y4730295D01*
X-38493016Y4838588D01*
X-38422333Y4867866D01*
X-38246040Y4902933D01*
X-38069748Y4938000D01*
X-37710252Y4938000D01*
X-37533960Y4902933D01*
G37*
G36*
X-28550000Y1323000D02*
G01*
X-29950000Y1323000D01*
X-29950000Y2723000D01*
X-28550000Y2723000D01*
X-28550000Y1323000D01*
G37*
G36*
X-31050000Y1323000D02*
G01*
X-32450000Y1323000D01*
X-32450000Y2723000D01*
X-31050000Y2723000D01*
X-31050000Y1323000D01*
G37*
G36*
X-25117519Y4442814D02*
G01*
X-25072795Y4429246D01*
X-25031570Y4407211D01*
X-24995439Y4377561D01*
X-24965789Y4341430D01*
X-24943754Y4300205D01*
X-24930186Y4255481D01*
X-24925000Y4202824D01*
X-24925000Y2868176D01*
X-24930186Y2815519D01*
X-24943754Y2770795D01*
X-24965789Y2729570D01*
X-24995439Y2693439D01*
X-25031570Y2663789D01*
X-25072795Y2641754D01*
X-25117519Y2628186D01*
X-25170176Y2623000D01*
X-26829824Y2623000D01*
X-26882481Y2628186D01*
X-26927205Y2641754D01*
X-26968430Y2663789D01*
X-27004561Y2693439D01*
X-27034211Y2729570D01*
X-27056246Y2770795D01*
X-27069814Y2815519D01*
X-27075000Y2868176D01*
X-27075000Y4202824D01*
X-27069814Y4255481D01*
X-27056246Y4300205D01*
X-27034211Y4341430D01*
X-27004561Y4377561D01*
X-26968430Y4407211D01*
X-26927205Y4429246D01*
X-26882481Y4442814D01*
X-26829824Y4448000D01*
X-25170176Y4448000D01*
X-25117519Y4442814D01*
G37*
G36*
X-21800000Y2973000D02*
G01*
X-24200000Y2973000D01*
X-24200000Y5073000D01*
X-21800000Y5073000D01*
X-21800000Y2973000D01*
G37*
G36*
X-17800000Y2973000D02*
G01*
X-20200000Y2973000D01*
X-20200000Y5073000D01*
X-17800000Y5073000D01*
X-17800000Y2973000D01*
G37*
G36*
X-3450000Y2973000D02*
G01*
X-5550000Y2973000D01*
X-5550000Y5073000D01*
X-3450000Y5073000D01*
X-3450000Y2973000D01*
G37*
G36*
X-1831313Y5067973D02*
G01*
X-1653726Y5032650D01*
X-1462638Y4953498D01*
X-1290664Y4838589D01*
X-1144411Y4692336D01*
X-1029502Y4520362D01*
X-950350Y4329274D01*
X-910000Y4126416D01*
X-910000Y3919584D01*
X-950350Y3716726D01*
X-1029502Y3525638D01*
X-1144411Y3353664D01*
X-1290664Y3207411D01*
X-1462638Y3092502D01*
X-1653726Y3013350D01*
X-1831313Y2978027D01*
X-1856583Y2973000D01*
X-2063417Y2973000D01*
X-2088687Y2978027D01*
X-2266274Y3013350D01*
X-2457362Y3092502D01*
X-2629336Y3207411D01*
X-2775589Y3353664D01*
X-2890498Y3525638D01*
X-2969650Y3716726D01*
X-3010000Y3919584D01*
X-3010000Y4126416D01*
X-2969650Y4329274D01*
X-2890498Y4520362D01*
X-2775589Y4692336D01*
X-2629336Y4838589D01*
X-2457362Y4953498D01*
X-2266274Y5032650D01*
X-2088687Y5067973D01*
X-2063417Y5073000D01*
X-1856583Y5073000D01*
X-1831313Y5067973D01*
G37*
G36*
X-15500000Y3223000D02*
G01*
X-16800000Y3223000D01*
X-16800000Y4823000D01*
X-15500000Y4823000D01*
X-15500000Y3223000D01*
G37*
G36*
X-12200000Y3223000D02*
G01*
X-13500000Y3223000D01*
X-13500000Y4823000D01*
X-12200000Y4823000D01*
X-12200000Y3223000D01*
G37*
G36*
X-30580000Y5333000D02*
G01*
X-32500000Y5333000D01*
X-32500000Y7253000D01*
X-30580000Y7253000D01*
X-30580000Y5333000D01*
G37*
G36*
X-1831313Y7607973D02*
G01*
X-1653726Y7572650D01*
X-1462638Y7493498D01*
X-1290664Y7378589D01*
X-1144411Y7232336D01*
X-1029502Y7060362D01*
X-950350Y6869274D01*
X-910000Y6666416D01*
X-910000Y6459584D01*
X-950350Y6256726D01*
X-1029502Y6065638D01*
X-1144411Y5893664D01*
X-1290664Y5747411D01*
X-1462638Y5632502D01*
X-1653726Y5553350D01*
X-1831313Y5518027D01*
X-1856583Y5513000D01*
X-2063417Y5513000D01*
X-2088687Y5518027D01*
X-2266274Y5553350D01*
X-2457362Y5632502D01*
X-2629336Y5747411D01*
X-2775589Y5893664D01*
X-2890498Y6065638D01*
X-2969650Y6256726D01*
X-3010000Y6459584D01*
X-3010000Y6666416D01*
X-2969650Y6869274D01*
X-2890498Y7060362D01*
X-2775589Y7232336D01*
X-2629336Y7378589D01*
X-2457362Y7493498D01*
X-2266274Y7572650D01*
X-2088687Y7607973D01*
X-2063417Y7613000D01*
X-1856583Y7613000D01*
X-1831313Y7607973D01*
G37*
G36*
X-4371313Y7607973D02*
G01*
X-4193726Y7572650D01*
X-4002638Y7493498D01*
X-3830664Y7378589D01*
X-3684411Y7232336D01*
X-3569502Y7060362D01*
X-3490350Y6869274D01*
X-3450000Y6666416D01*
X-3450000Y6459584D01*
X-3490350Y6256726D01*
X-3569502Y6065638D01*
X-3684411Y5893664D01*
X-3830664Y5747411D01*
X-4002638Y5632502D01*
X-4193726Y5553350D01*
X-4371313Y5518027D01*
X-4396583Y5513000D01*
X-4603417Y5513000D01*
X-4628687Y5518027D01*
X-4806274Y5553350D01*
X-4997362Y5632502D01*
X-5169336Y5747411D01*
X-5315589Y5893664D01*
X-5430498Y6065638D01*
X-5509650Y6256726D01*
X-5550000Y6459584D01*
X-5550000Y6666416D01*
X-5509650Y6869274D01*
X-5430498Y7060362D01*
X-5315589Y7232336D01*
X-5169336Y7378589D01*
X-4997362Y7493498D01*
X-4806274Y7572650D01*
X-4628687Y7607973D01*
X-4603417Y7613000D01*
X-4396583Y7613000D01*
X-4371313Y7607973D01*
G37*
G36*
X-25117519Y7417814D02*
G01*
X-25072795Y7404246D01*
X-25031570Y7382211D01*
X-24995439Y7352561D01*
X-24965789Y7316430D01*
X-24943754Y7275205D01*
X-24930186Y7230481D01*
X-24925000Y7177824D01*
X-24925000Y5843176D01*
X-24930186Y5790519D01*
X-24943754Y5745795D01*
X-24965789Y5704570D01*
X-24995439Y5668439D01*
X-25031570Y5638789D01*
X-25072795Y5616754D01*
X-25117519Y5603186D01*
X-25170176Y5598000D01*
X-26829824Y5598000D01*
X-26882481Y5603186D01*
X-26927205Y5616754D01*
X-26968430Y5638789D01*
X-27004561Y5668439D01*
X-27034211Y5704570D01*
X-27056246Y5745795D01*
X-27069814Y5790519D01*
X-27075000Y5843176D01*
X-27075000Y7177824D01*
X-27069814Y7230481D01*
X-27056246Y7275205D01*
X-27034211Y7316430D01*
X-27004561Y7352561D01*
X-26968430Y7382211D01*
X-26927205Y7404246D01*
X-26882481Y7417814D01*
X-26829824Y7423000D01*
X-25170176Y7423000D01*
X-25117519Y7417814D01*
G37*
G36*
X-15500000Y6223000D02*
G01*
X-16800000Y6223000D01*
X-16800000Y7823000D01*
X-15500000Y7823000D01*
X-15500000Y6223000D01*
G37*
G36*
X-12200000Y6223000D02*
G01*
X-13500000Y6223000D01*
X-13500000Y7823000D01*
X-12200000Y7823000D01*
X-12200000Y6223000D01*
G37*
G36*
X-28812713Y8534554D02*
G01*
X-28719978Y8516108D01*
X-28545269Y8443741D01*
X-28388036Y8338681D01*
X-28254319Y8204964D01*
X-28149259Y8047731D01*
X-28089309Y7903000D01*
X-28076892Y7873021D01*
X-28040000Y7687553D01*
X-28040000Y7498447D01*
X-28055007Y7423000D01*
X-28076892Y7312978D01*
X-28149259Y7138269D01*
X-28254319Y6981036D01*
X-28388036Y6847319D01*
X-28545269Y6742259D01*
X-28719978Y6669892D01*
X-28812713Y6651446D01*
X-28905447Y6633000D01*
X-29094553Y6633000D01*
X-29187287Y6651446D01*
X-29280022Y6669892D01*
X-29454731Y6742259D01*
X-29611964Y6847319D01*
X-29745681Y6981036D01*
X-29850741Y7138269D01*
X-29923108Y7312978D01*
X-29944993Y7423000D01*
X-29960000Y7498447D01*
X-29960000Y7687553D01*
X-29923108Y7873021D01*
X-29910690Y7903000D01*
X-29850741Y8047731D01*
X-29745681Y8204964D01*
X-29611964Y8338681D01*
X-29454731Y8443741D01*
X-29280022Y8516108D01*
X-29187287Y8534554D01*
X-29094553Y8553000D01*
X-28905447Y8553000D01*
X-28812713Y8534554D01*
G37*
G36*
X-17800000Y6973000D02*
G01*
X-20200000Y6973000D01*
X-20200000Y9073000D01*
X-17800000Y9073000D01*
X-17800000Y6973000D01*
G37*
G36*
X-21800000Y6973000D02*
G01*
X-24200000Y6973000D01*
X-24200000Y9073000D01*
X-21800000Y9073000D01*
X-21800000Y6973000D01*
G37*
G36*
X-31352713Y9804554D02*
G01*
X-31259978Y9786108D01*
X-31085269Y9713741D01*
X-30928036Y9608681D01*
X-30794319Y9474964D01*
X-30689259Y9317731D01*
X-30616892Y9143022D01*
X-30580000Y8957552D01*
X-30580000Y8768448D01*
X-30616892Y8582978D01*
X-30689259Y8408269D01*
X-30794319Y8251036D01*
X-30928036Y8117319D01*
X-31085269Y8012259D01*
X-31259978Y7939892D01*
X-31352713Y7921446D01*
X-31445447Y7903000D01*
X-31634553Y7903000D01*
X-31727287Y7921446D01*
X-31820022Y7939892D01*
X-31994731Y8012259D01*
X-32151964Y8117319D01*
X-32285681Y8251036D01*
X-32390741Y8408269D01*
X-32463108Y8582978D01*
X-32500000Y8768448D01*
X-32500000Y8957552D01*
X-32463108Y9143022D01*
X-32390741Y9317731D01*
X-32285681Y9474964D01*
X-32151964Y9608681D01*
X-31994731Y9713741D01*
X-31820022Y9786108D01*
X-31727287Y9804554D01*
X-31634553Y9823000D01*
X-31445447Y9823000D01*
X-31352713Y9804554D01*
G37*
G36*
X-1831313Y10147973D02*
G01*
X-1653726Y10112650D01*
X-1462638Y10033498D01*
X-1290664Y9918589D01*
X-1144411Y9772336D01*
X-1029502Y9600362D01*
X-950350Y9409274D01*
X-918507Y9249186D01*
X-914605Y9229570D01*
X-910000Y9206416D01*
X-910000Y8999584D01*
X-950350Y8796726D01*
X-1029502Y8605638D01*
X-1144411Y8433664D01*
X-1290664Y8287411D01*
X-1462638Y8172502D01*
X-1653726Y8093350D01*
X-1831313Y8058027D01*
X-1856583Y8053000D01*
X-2063417Y8053000D01*
X-2088687Y8058027D01*
X-2266274Y8093350D01*
X-2457362Y8172502D01*
X-2629336Y8287411D01*
X-2775589Y8433664D01*
X-2890498Y8605638D01*
X-2969650Y8796726D01*
X-3010000Y8999584D01*
X-3010000Y9206416D01*
X-3005394Y9229570D01*
X-3001493Y9249186D01*
X-2969650Y9409274D01*
X-2890498Y9600362D01*
X-2775589Y9772336D01*
X-2629336Y9918589D01*
X-2457362Y10033498D01*
X-2266274Y10112650D01*
X-2088687Y10147973D01*
X-2063417Y10153000D01*
X-1856583Y10153000D01*
X-1831313Y10147973D01*
G37*
G36*
X-4371313Y10147973D02*
G01*
X-4193726Y10112650D01*
X-4002638Y10033498D01*
X-3830664Y9918589D01*
X-3684411Y9772336D01*
X-3569502Y9600362D01*
X-3490350Y9409274D01*
X-3458507Y9249186D01*
X-3454605Y9229570D01*
X-3450000Y9206416D01*
X-3450000Y8999584D01*
X-3490350Y8796726D01*
X-3569502Y8605638D01*
X-3684411Y8433664D01*
X-3830664Y8287411D01*
X-4002638Y8172502D01*
X-4193726Y8093350D01*
X-4371313Y8058027D01*
X-4396583Y8053000D01*
X-4603417Y8053000D01*
X-4628687Y8058027D01*
X-4806274Y8093350D01*
X-4997362Y8172502D01*
X-5169336Y8287411D01*
X-5315589Y8433664D01*
X-5430498Y8605638D01*
X-5509650Y8796726D01*
X-5550000Y8999584D01*
X-5550000Y9206416D01*
X-5545394Y9229570D01*
X-5541493Y9249186D01*
X-5509650Y9409274D01*
X-5430498Y9600362D01*
X-5315589Y9772336D01*
X-5169336Y9918589D01*
X-4997362Y10033498D01*
X-4806274Y10112650D01*
X-4628687Y10147973D01*
X-4603417Y10153000D01*
X-4396583Y10153000D01*
X-4371313Y10147973D01*
G37*
G36*
X-9117519Y10942814D02*
G01*
X-9072795Y10929246D01*
X-9031570Y10907211D01*
X-8995439Y10877561D01*
X-8965789Y10841430D01*
X-8943754Y10800205D01*
X-8930186Y10755481D01*
X-8925000Y10702824D01*
X-8925000Y9368176D01*
X-8930186Y9315519D01*
X-8943754Y9270795D01*
X-8965789Y9229570D01*
X-8995439Y9193439D01*
X-9031570Y9163789D01*
X-9072795Y9141754D01*
X-9117519Y9128186D01*
X-9170176Y9123000D01*
X-10829824Y9123000D01*
X-10882481Y9128186D01*
X-10927205Y9141754D01*
X-10968430Y9163789D01*
X-11004561Y9193439D01*
X-11034211Y9229570D01*
X-11056246Y9270795D01*
X-11069814Y9315519D01*
X-11075000Y9368176D01*
X-11075000Y10702824D01*
X-11069814Y10755481D01*
X-11056246Y10800205D01*
X-11034211Y10841430D01*
X-11004561Y10877561D01*
X-10968430Y10907211D01*
X-10927205Y10929246D01*
X-10882481Y10942814D01*
X-10829824Y10948000D01*
X-9170176Y10948000D01*
X-9117519Y10942814D01*
G37*
G36*
X-28841329Y11050246D02*
G01*
X-28719978Y11026108D01*
X-28545269Y10953741D01*
X-28388036Y10848681D01*
X-28254319Y10714964D01*
X-28149259Y10557731D01*
X-28076892Y10383022D01*
X-28040000Y10197552D01*
X-28040000Y10008448D01*
X-28076892Y9822978D01*
X-28149259Y9648269D01*
X-28254319Y9491036D01*
X-28388036Y9357319D01*
X-28545269Y9252259D01*
X-28545270Y9252258D01*
X-28545271Y9252258D01*
X-28552688Y9249186D01*
X-28719978Y9179892D01*
X-28800934Y9163789D01*
X-28905447Y9143000D01*
X-29094553Y9143000D01*
X-29199066Y9163789D01*
X-29280022Y9179892D01*
X-29447312Y9249186D01*
X-29454729Y9252258D01*
X-29454730Y9252258D01*
X-29454731Y9252259D01*
X-29611964Y9357319D01*
X-29745681Y9491036D01*
X-29850741Y9648269D01*
X-29923108Y9822978D01*
X-29960000Y10008448D01*
X-29960000Y10197552D01*
X-29923108Y10383022D01*
X-29850741Y10557731D01*
X-29745681Y10714964D01*
X-29611964Y10848681D01*
X-29454731Y10953741D01*
X-29280022Y11026108D01*
X-29158671Y11050246D01*
X-29094553Y11063000D01*
X-28905447Y11063000D01*
X-28841329Y11050246D01*
G37*
G36*
X-25117519Y11063814D02*
G01*
X-25072795Y11050246D01*
X-25031570Y11028211D01*
X-24995439Y10998561D01*
X-24965789Y10962430D01*
X-24943754Y10921205D01*
X-24930186Y10876481D01*
X-24925000Y10823824D01*
X-24925000Y9489176D01*
X-24930186Y9436519D01*
X-24943754Y9391795D01*
X-24965789Y9350570D01*
X-24995439Y9314439D01*
X-25031570Y9284789D01*
X-25072795Y9262754D01*
X-25117519Y9249186D01*
X-25170176Y9244000D01*
X-26829824Y9244000D01*
X-26882481Y9249186D01*
X-26927205Y9262754D01*
X-26968430Y9284789D01*
X-27004561Y9314439D01*
X-27034211Y9350570D01*
X-27056246Y9391795D01*
X-27069814Y9436519D01*
X-27075000Y9489176D01*
X-27075000Y10823824D01*
X-27069814Y10876481D01*
X-27056246Y10921205D01*
X-27034211Y10962430D01*
X-27004561Y10998561D01*
X-26968430Y11028211D01*
X-26927205Y11050246D01*
X-26882481Y11063814D01*
X-26829824Y11069000D01*
X-25170176Y11069000D01*
X-25117519Y11063814D01*
G37*
G36*
X-4371313Y12687973D02*
G01*
X-4193726Y12652650D01*
X-4002638Y12573498D01*
X-3830664Y12458589D01*
X-3684411Y12312336D01*
X-3569502Y12140362D01*
X-3490350Y11949274D01*
X-3450000Y11746416D01*
X-3450000Y11539584D01*
X-3490350Y11336726D01*
X-3569502Y11145638D01*
X-3684411Y10973664D01*
X-3830664Y10827411D01*
X-4002638Y10712502D01*
X-4193726Y10633350D01*
X-4371313Y10598027D01*
X-4396583Y10593000D01*
X-4603417Y10593000D01*
X-4628687Y10598027D01*
X-4806274Y10633350D01*
X-4997362Y10712502D01*
X-5169336Y10827411D01*
X-5315589Y10973664D01*
X-5430498Y11145638D01*
X-5509650Y11336726D01*
X-5550000Y11539584D01*
X-5550000Y11746416D01*
X-5509650Y11949274D01*
X-5430498Y12140362D01*
X-5315589Y12312336D01*
X-5169336Y12458589D01*
X-4997362Y12573498D01*
X-4806274Y12652650D01*
X-4628687Y12687973D01*
X-4603417Y12693000D01*
X-4396583Y12693000D01*
X-4371313Y12687973D01*
G37*
G36*
X-1831313Y12687973D02*
G01*
X-1653726Y12652650D01*
X-1462638Y12573498D01*
X-1290664Y12458589D01*
X-1144411Y12312336D01*
X-1029502Y12140362D01*
X-950350Y11949274D01*
X-910000Y11746416D01*
X-910000Y11539584D01*
X-950350Y11336726D01*
X-1029502Y11145638D01*
X-1144411Y10973664D01*
X-1290664Y10827411D01*
X-1462638Y10712502D01*
X-1653726Y10633350D01*
X-1831313Y10598027D01*
X-1856583Y10593000D01*
X-2063417Y10593000D01*
X-2088687Y10598027D01*
X-2266274Y10633350D01*
X-2457362Y10712502D01*
X-2629336Y10827411D01*
X-2775589Y10973664D01*
X-2890498Y11145638D01*
X-2969650Y11336726D01*
X-3010000Y11539584D01*
X-3010000Y11746416D01*
X-2969650Y11949274D01*
X-2890498Y12140362D01*
X-2775589Y12312336D01*
X-2629336Y12458589D01*
X-2457362Y12573498D01*
X-2266274Y12652650D01*
X-2088687Y12687973D01*
X-2063417Y12693000D01*
X-1856583Y12693000D01*
X-1831313Y12687973D01*
G37*
G36*
X-12170000Y11048000D02*
G01*
X-14130000Y11048000D01*
X-14130000Y13998000D01*
X-12170000Y13998000D01*
X-12170000Y11048000D01*
G37*
G36*
X-14870000Y11048000D02*
G01*
X-16830000Y11048000D01*
X-16830000Y12098000D01*
X-14870000Y12098000D01*
X-14870000Y11048000D01*
G37*
G36*
X-37533960Y18402933D02*
G01*
X-37357667Y18367866D01*
X-37272291Y18332502D01*
X-37025540Y18230295D01*
X-36726631Y18030570D01*
X-36472430Y17776369D01*
X-36272705Y17477460D01*
X-36135134Y17145332D01*
X-36065000Y16792748D01*
X-36065000Y16433252D01*
X-36135134Y16080668D01*
X-36272705Y15748540D01*
X-36472430Y15449631D01*
X-36726631Y15195430D01*
X-36948872Y15046933D01*
X-36967814Y15031388D01*
X-36983359Y15012446D01*
X-36994910Y14990835D01*
X-37002023Y14967386D01*
X-37004425Y14943000D01*
X-37002023Y14918614D01*
X-36994910Y14895165D01*
X-36983359Y14873554D01*
X-36967814Y14854612D01*
X-36948872Y14839067D01*
X-36726631Y14690570D01*
X-36472430Y14436369D01*
X-36272705Y14137460D01*
X-36204816Y13973561D01*
X-36135134Y13805333D01*
X-36065000Y13452747D01*
X-36065000Y13093253D01*
X-36135134Y12740667D01*
X-36171592Y12652650D01*
X-36272705Y12408540D01*
X-36472430Y12109631D01*
X-36726631Y11855430D01*
X-37025540Y11655705D01*
X-37220096Y11575118D01*
X-37357667Y11518134D01*
X-37533960Y11483067D01*
X-37710252Y11448000D01*
X-38069748Y11448000D01*
X-38246040Y11483067D01*
X-38422333Y11518134D01*
X-38559904Y11575118D01*
X-38754460Y11655705D01*
X-39053369Y11855430D01*
X-39307570Y12109631D01*
X-39507295Y12408540D01*
X-39608408Y12652650D01*
X-39644866Y12740667D01*
X-39715000Y13093253D01*
X-39715000Y13452747D01*
X-39644866Y13805333D01*
X-39575184Y13973561D01*
X-39507295Y14137460D01*
X-39307570Y14436369D01*
X-39053369Y14690570D01*
X-38831128Y14839067D01*
X-38812186Y14854612D01*
X-38796641Y14873554D01*
X-38785090Y14895165D01*
X-38777977Y14918614D01*
X-38775575Y14943000D01*
X-38777977Y14967386D01*
X-38785090Y14990835D01*
X-38796641Y15012446D01*
X-38812186Y15031388D01*
X-38831128Y15046933D01*
X-39053369Y15195430D01*
X-39307570Y15449631D01*
X-39507295Y15748540D01*
X-39644866Y16080668D01*
X-39715000Y16433252D01*
X-39715000Y16792748D01*
X-39644866Y17145332D01*
X-39507295Y17477460D01*
X-39307570Y17776369D01*
X-39053369Y18030570D01*
X-38754460Y18230295D01*
X-38507709Y18332502D01*
X-38422333Y18367866D01*
X-38246040Y18402933D01*
X-38069748Y18438000D01*
X-37710252Y18438000D01*
X-37533960Y18402933D01*
G37*
G36*
X-17800000Y11473000D02*
G01*
X-20200000Y11473000D01*
X-20200000Y13573000D01*
X-17800000Y13573000D01*
X-17800000Y11473000D01*
G37*
G36*
X-21800000Y11473000D02*
G01*
X-24200000Y11473000D01*
X-24200000Y13573000D01*
X-21800000Y13573000D01*
X-21800000Y11473000D01*
G37*
G36*
X-9117519Y13917814D02*
G01*
X-9072795Y13904246D01*
X-9031570Y13882211D01*
X-8995439Y13852561D01*
X-8965789Y13816430D01*
X-8943754Y13775205D01*
X-8930186Y13730481D01*
X-8925000Y13677824D01*
X-8925000Y12343176D01*
X-8930186Y12290519D01*
X-8943754Y12245795D01*
X-8965789Y12204570D01*
X-8995439Y12168439D01*
X-9031570Y12138789D01*
X-9072795Y12116754D01*
X-9117519Y12103186D01*
X-9170176Y12098000D01*
X-10829824Y12098000D01*
X-10882481Y12103186D01*
X-10927205Y12116754D01*
X-10968430Y12138789D01*
X-11004561Y12168439D01*
X-11034211Y12204570D01*
X-11056246Y12245795D01*
X-11069814Y12290519D01*
X-11075000Y12343176D01*
X-11075000Y13677824D01*
X-11069814Y13730481D01*
X-11056246Y13775205D01*
X-11034211Y13816430D01*
X-11004561Y13852561D01*
X-10968430Y13882211D01*
X-10927205Y13904246D01*
X-10882481Y13917814D01*
X-10829824Y13923000D01*
X-9170176Y13923000D01*
X-9117519Y13917814D01*
G37*
G36*
X-25117519Y14038814D02*
G01*
X-25072795Y14025246D01*
X-25031570Y14003211D01*
X-24995439Y13973561D01*
X-24965789Y13937430D01*
X-24943754Y13896205D01*
X-24930186Y13851481D01*
X-24925000Y13798824D01*
X-24925000Y12464176D01*
X-24930186Y12411519D01*
X-24943754Y12366795D01*
X-24965789Y12325570D01*
X-24995439Y12289439D01*
X-25031570Y12259789D01*
X-25072795Y12237754D01*
X-25117519Y12224186D01*
X-25170176Y12219000D01*
X-26829824Y12219000D01*
X-26882481Y12224186D01*
X-26927205Y12237754D01*
X-26968430Y12259789D01*
X-27004561Y12289439D01*
X-27034211Y12325570D01*
X-27056246Y12366795D01*
X-27069814Y12411519D01*
X-27075000Y12464176D01*
X-27075000Y13798824D01*
X-27069814Y13851481D01*
X-27056246Y13896205D01*
X-27034211Y13937430D01*
X-27004561Y13973561D01*
X-26968430Y14003211D01*
X-26927205Y14025246D01*
X-26882481Y14038814D01*
X-26829824Y14044000D01*
X-25170176Y14044000D01*
X-25117519Y14038814D01*
G37*
G36*
X-14870000Y12948000D02*
G01*
X-16830000Y12948000D01*
X-16830000Y13998000D01*
X-14870000Y13998000D01*
X-14870000Y12948000D01*
G37*
G36*
X-4371313Y15227973D02*
G01*
X-4193726Y15192650D01*
X-4002638Y15113498D01*
X-3830664Y14998589D01*
X-3684411Y14852336D01*
X-3569502Y14680362D01*
X-3490350Y14489274D01*
X-3450000Y14286416D01*
X-3450000Y14079584D01*
X-3490350Y13876726D01*
X-3569502Y13685638D01*
X-3684411Y13513664D01*
X-3830664Y13367411D01*
X-4002638Y13252502D01*
X-4193726Y13173350D01*
X-4371313Y13138027D01*
X-4396583Y13133000D01*
X-4603417Y13133000D01*
X-4628687Y13138027D01*
X-4806274Y13173350D01*
X-4997362Y13252502D01*
X-5169336Y13367411D01*
X-5315589Y13513664D01*
X-5430498Y13685638D01*
X-5509650Y13876726D01*
X-5550000Y14079584D01*
X-5550000Y14286416D01*
X-5509650Y14489274D01*
X-5430498Y14680362D01*
X-5315589Y14852336D01*
X-5169336Y14998589D01*
X-4997362Y15113498D01*
X-4806274Y15192650D01*
X-4628687Y15227973D01*
X-4603417Y15233000D01*
X-4396583Y15233000D01*
X-4371313Y15227973D01*
G37*
G36*
X-1831313Y15227973D02*
G01*
X-1653726Y15192650D01*
X-1462638Y15113498D01*
X-1290664Y14998589D01*
X-1144411Y14852336D01*
X-1029502Y14680362D01*
X-950350Y14489274D01*
X-910000Y14286416D01*
X-910000Y14079584D01*
X-950350Y13876726D01*
X-1029502Y13685638D01*
X-1144411Y13513664D01*
X-1290664Y13367411D01*
X-1462638Y13252502D01*
X-1653726Y13173350D01*
X-1831313Y13138027D01*
X-1856583Y13133000D01*
X-2063417Y13133000D01*
X-2088687Y13138027D01*
X-2266274Y13173350D01*
X-2457362Y13252502D01*
X-2629336Y13367411D01*
X-2775589Y13513664D01*
X-2890498Y13685638D01*
X-2969650Y13876726D01*
X-3010000Y14079584D01*
X-3010000Y14286416D01*
X-2969650Y14489274D01*
X-2890498Y14680362D01*
X-2775589Y14852336D01*
X-2629336Y14998589D01*
X-2457362Y15113498D01*
X-2266274Y15192650D01*
X-2088687Y15227973D01*
X-2063417Y15233000D01*
X-1856583Y15233000D01*
X-1831313Y15227973D01*
G37*
G36*
X-1831313Y17767973D02*
G01*
X-1653726Y17732650D01*
X-1462638Y17653498D01*
X-1290664Y17538589D01*
X-1144411Y17392336D01*
X-1029502Y17220362D01*
X-950350Y17029274D01*
X-910000Y16826416D01*
X-910000Y16619584D01*
X-950350Y16416726D01*
X-1029502Y16225638D01*
X-1144411Y16053664D01*
X-1290664Y15907411D01*
X-1462638Y15792502D01*
X-1653726Y15713350D01*
X-1831313Y15678027D01*
X-1856583Y15673000D01*
X-2063417Y15673000D01*
X-2088687Y15678027D01*
X-2266274Y15713350D01*
X-2457362Y15792502D01*
X-2629336Y15907411D01*
X-2775589Y16053664D01*
X-2890498Y16225638D01*
X-2969650Y16416726D01*
X-3010000Y16619584D01*
X-3010000Y16826416D01*
X-2969650Y17029274D01*
X-2890498Y17220362D01*
X-2775589Y17392336D01*
X-2629336Y17538589D01*
X-2457362Y17653498D01*
X-2266274Y17732650D01*
X-2088687Y17767973D01*
X-2063417Y17773000D01*
X-1856583Y17773000D01*
X-1831313Y17767973D01*
G37*
G36*
X-4371313Y17767973D02*
G01*
X-4193726Y17732650D01*
X-4002638Y17653498D01*
X-3830664Y17538589D01*
X-3684411Y17392336D01*
X-3569502Y17220362D01*
X-3490350Y17029274D01*
X-3450000Y16826416D01*
X-3450000Y16619584D01*
X-3490350Y16416726D01*
X-3569502Y16225638D01*
X-3684411Y16053664D01*
X-3830664Y15907411D01*
X-4002638Y15792502D01*
X-4193726Y15713350D01*
X-4371313Y15678027D01*
X-4396583Y15673000D01*
X-4603417Y15673000D01*
X-4628687Y15678027D01*
X-4806274Y15713350D01*
X-4997362Y15792502D01*
X-5169336Y15907411D01*
X-5315589Y16053664D01*
X-5430498Y16225638D01*
X-5509650Y16416726D01*
X-5550000Y16619584D01*
X-5550000Y16826416D01*
X-5509650Y17029274D01*
X-5430498Y17220362D01*
X-5315589Y17392336D01*
X-5169336Y17538589D01*
X-4997362Y17653498D01*
X-4806274Y17732650D01*
X-4628687Y17767973D01*
X-4603417Y17773000D01*
X-4396583Y17773000D01*
X-4371313Y17767973D01*
G37*
G36*
X-25117519Y17667814D02*
G01*
X-25072795Y17654246D01*
X-25031570Y17632211D01*
X-24995439Y17602561D01*
X-24965789Y17566430D01*
X-24943754Y17525205D01*
X-24930186Y17480481D01*
X-24925000Y17427824D01*
X-24925000Y16093176D01*
X-24930186Y16040519D01*
X-24943754Y15995795D01*
X-24965789Y15954570D01*
X-24995439Y15918439D01*
X-25031570Y15888789D01*
X-25072795Y15866754D01*
X-25117519Y15853186D01*
X-25170176Y15848000D01*
X-26829824Y15848000D01*
X-26882481Y15853186D01*
X-26927205Y15866754D01*
X-26968430Y15888789D01*
X-27004561Y15918439D01*
X-27034211Y15954570D01*
X-27056246Y15995795D01*
X-27069814Y16040519D01*
X-27075000Y16093176D01*
X-27075000Y17427824D01*
X-27069814Y17480481D01*
X-27056246Y17525205D01*
X-27034211Y17566430D01*
X-27004561Y17602561D01*
X-26968430Y17632211D01*
X-26927205Y17654246D01*
X-26882481Y17667814D01*
X-26829824Y17673000D01*
X-25170176Y17673000D01*
X-25117519Y17667814D01*
G37*
G36*
X-21800000Y16473000D02*
G01*
X-24200000Y16473000D01*
X-24200000Y18573000D01*
X-21800000Y18573000D01*
X-21800000Y16473000D01*
G37*
G36*
X-17800000Y16473000D02*
G01*
X-20200000Y16473000D01*
X-20200000Y18573000D01*
X-17800000Y18573000D01*
X-17800000Y16473000D01*
G37*
G36*
X-15500000Y16723000D02*
G01*
X-16800000Y16723000D01*
X-16800000Y18323000D01*
X-15500000Y18323000D01*
X-15500000Y16723000D01*
G37*
G36*
X-12200000Y16723000D02*
G01*
X-13500000Y16723000D01*
X-13500000Y18323000D01*
X-12200000Y18323000D01*
X-12200000Y16723000D01*
G37*
G36*
X-4371313Y20307973D02*
G01*
X-4193726Y20272650D01*
X-4002638Y20193498D01*
X-3830664Y20078589D01*
X-3684411Y19932336D01*
X-3569502Y19760362D01*
X-3490350Y19569274D01*
X-3450000Y19366416D01*
X-3450000Y19159584D01*
X-3490350Y18956726D01*
X-3569502Y18765638D01*
X-3684411Y18593664D01*
X-3830664Y18447411D01*
X-4002638Y18332502D01*
X-4193726Y18253350D01*
X-4371313Y18218027D01*
X-4396583Y18213000D01*
X-4603417Y18213000D01*
X-4628687Y18218027D01*
X-4806274Y18253350D01*
X-4997362Y18332502D01*
X-5169336Y18447411D01*
X-5315589Y18593664D01*
X-5430498Y18765638D01*
X-5509650Y18956726D01*
X-5550000Y19159584D01*
X-5550000Y19366416D01*
X-5509650Y19569274D01*
X-5430498Y19760362D01*
X-5315589Y19932336D01*
X-5169336Y20078589D01*
X-4997362Y20193498D01*
X-4806274Y20272650D01*
X-4628687Y20307973D01*
X-4603417Y20313000D01*
X-4396583Y20313000D01*
X-4371313Y20307973D01*
G37*
G36*
X-1831313Y20307973D02*
G01*
X-1653726Y20272650D01*
X-1462638Y20193498D01*
X-1290664Y20078589D01*
X-1144411Y19932336D01*
X-1029502Y19760362D01*
X-950350Y19569274D01*
X-910000Y19366416D01*
X-910000Y19159584D01*
X-950350Y18956726D01*
X-1029502Y18765638D01*
X-1144411Y18593664D01*
X-1290664Y18447411D01*
X-1462638Y18332502D01*
X-1653726Y18253350D01*
X-1831313Y18218027D01*
X-1856583Y18213000D01*
X-2063417Y18213000D01*
X-2088687Y18218027D01*
X-2266274Y18253350D01*
X-2457362Y18332502D01*
X-2629336Y18447411D01*
X-2775589Y18593664D01*
X-2890498Y18765638D01*
X-2969650Y18956726D01*
X-3010000Y19159584D01*
X-3010000Y19366416D01*
X-2969650Y19569274D01*
X-2890498Y19760362D01*
X-2775589Y19932336D01*
X-2629336Y20078589D01*
X-2457362Y20193498D01*
X-2266274Y20272650D01*
X-2088687Y20307973D01*
X-2063417Y20313000D01*
X-1856583Y20313000D01*
X-1831313Y20307973D01*
G37*
G36*
X-25117519Y20642814D02*
G01*
X-25072795Y20629246D01*
X-25031570Y20607211D01*
X-24995439Y20577561D01*
X-24965789Y20541430D01*
X-24943754Y20500205D01*
X-24930186Y20455481D01*
X-24925000Y20402824D01*
X-24925000Y19068176D01*
X-24930186Y19015519D01*
X-24943754Y18970795D01*
X-24965789Y18929570D01*
X-24995439Y18893439D01*
X-25031570Y18863789D01*
X-25072795Y18841754D01*
X-25117519Y18828186D01*
X-25170176Y18823000D01*
X-26829824Y18823000D01*
X-26882481Y18828186D01*
X-26927205Y18841754D01*
X-26968430Y18863789D01*
X-27004561Y18893439D01*
X-27034211Y18929570D01*
X-27056246Y18970795D01*
X-27069814Y19015519D01*
X-27075000Y19068176D01*
X-27075000Y20402824D01*
X-27069814Y20455481D01*
X-27056246Y20500205D01*
X-27034211Y20541430D01*
X-27004561Y20577561D01*
X-26968430Y20607211D01*
X-26927205Y20629246D01*
X-26882481Y20642814D01*
X-26829824Y20648000D01*
X-25170176Y20648000D01*
X-25117519Y20642814D01*
G37*
G36*
X-30580000Y18833000D02*
G01*
X-32500000Y18833000D01*
X-32500000Y20753000D01*
X-30580000Y20753000D01*
X-30580000Y18833000D01*
G37*
G36*
X-12200000Y19723000D02*
G01*
X-13500000Y19723000D01*
X-13500000Y21323000D01*
X-12200000Y21323000D01*
X-12200000Y19723000D01*
G37*
G36*
X-15500000Y19723000D02*
G01*
X-16800000Y19723000D01*
X-16800000Y21323000D01*
X-15500000Y21323000D01*
X-15500000Y19723000D01*
G37*
G36*
X-28812713Y22034554D02*
G01*
X-28719978Y22016108D01*
X-28545269Y21943741D01*
X-28388036Y21838681D01*
X-28254319Y21704964D01*
X-28149259Y21547731D01*
X-28076892Y21373022D01*
X-28040000Y21187552D01*
X-28040000Y20998448D01*
X-28076892Y20812978D01*
X-28101736Y20753000D01*
X-28147776Y20641848D01*
X-28149259Y20638269D01*
X-28254319Y20481036D01*
X-28388036Y20347319D01*
X-28545269Y20242259D01*
X-28719978Y20169892D01*
X-28812713Y20151446D01*
X-28905447Y20133000D01*
X-29094553Y20133000D01*
X-29187287Y20151446D01*
X-29280022Y20169892D01*
X-29454731Y20242259D01*
X-29611964Y20347319D01*
X-29745681Y20481036D01*
X-29850741Y20638269D01*
X-29852223Y20641848D01*
X-29898264Y20753000D01*
X-29923108Y20812978D01*
X-29960000Y20998448D01*
X-29960000Y21187552D01*
X-29923108Y21373022D01*
X-29850741Y21547731D01*
X-29745681Y21704964D01*
X-29611964Y21838681D01*
X-29454731Y21943741D01*
X-29280022Y22016108D01*
X-29187287Y22034554D01*
X-29094553Y22053000D01*
X-28905447Y22053000D01*
X-28812713Y22034554D01*
G37*
G36*
X-17800000Y20473000D02*
G01*
X-20200000Y20473000D01*
X-20200000Y22573000D01*
X-17800000Y22573000D01*
X-17800000Y20473000D01*
G37*
G36*
X-21800000Y20473000D02*
G01*
X-24200000Y20473000D01*
X-24200000Y22573000D01*
X-21800000Y22573000D01*
X-21800000Y20473000D01*
G37*
G36*
X-1831313Y22847973D02*
G01*
X-1653726Y22812650D01*
X-1462638Y22733498D01*
X-1290664Y22618589D01*
X-1144411Y22472336D01*
X-1029502Y22300362D01*
X-950350Y22109274D01*
X-917424Y21943741D01*
X-910368Y21908269D01*
X-910000Y21906416D01*
X-910000Y21699584D01*
X-950350Y21496726D01*
X-1029502Y21305638D01*
X-1144411Y21133664D01*
X-1290664Y20987411D01*
X-1462638Y20872502D01*
X-1653726Y20793350D01*
X-1831313Y20758027D01*
X-1856583Y20753000D01*
X-2063417Y20753000D01*
X-2088687Y20758027D01*
X-2266274Y20793350D01*
X-2457362Y20872502D01*
X-2629336Y20987411D01*
X-2775589Y21133664D01*
X-2890498Y21305638D01*
X-2969650Y21496726D01*
X-3010000Y21699584D01*
X-3010000Y21906416D01*
X-3009631Y21908269D01*
X-3002576Y21943741D01*
X-2969650Y22109274D01*
X-2890498Y22300362D01*
X-2775589Y22472336D01*
X-2629336Y22618589D01*
X-2457362Y22733498D01*
X-2266274Y22812650D01*
X-2088687Y22847973D01*
X-2063417Y22853000D01*
X-1856583Y22853000D01*
X-1831313Y22847973D01*
G37*
G36*
X-4371313Y22847973D02*
G01*
X-4193726Y22812650D01*
X-4002638Y22733498D01*
X-3830664Y22618589D01*
X-3684411Y22472336D01*
X-3569502Y22300362D01*
X-3490350Y22109274D01*
X-3457424Y21943741D01*
X-3450368Y21908269D01*
X-3450000Y21906416D01*
X-3450000Y21699584D01*
X-3490350Y21496726D01*
X-3569502Y21305638D01*
X-3684411Y21133664D01*
X-3830664Y20987411D01*
X-4002638Y20872502D01*
X-4193726Y20793350D01*
X-4371313Y20758027D01*
X-4396583Y20753000D01*
X-4603417Y20753000D01*
X-4628687Y20758027D01*
X-4806274Y20793350D01*
X-4997362Y20872502D01*
X-5169336Y20987411D01*
X-5315589Y21133664D01*
X-5430498Y21305638D01*
X-5509650Y21496726D01*
X-5550000Y21699584D01*
X-5550000Y21906416D01*
X-5549631Y21908269D01*
X-5542576Y21943741D01*
X-5509650Y22109274D01*
X-5430498Y22300362D01*
X-5315589Y22472336D01*
X-5169336Y22618589D01*
X-4997362Y22733498D01*
X-4806274Y22812650D01*
X-4628687Y22847973D01*
X-4603417Y22853000D01*
X-4396583Y22853000D01*
X-4371313Y22847973D01*
G37*
G36*
X-31352713Y23304554D02*
G01*
X-31259978Y23286108D01*
X-31085269Y23213741D01*
X-30928036Y23108681D01*
X-30794319Y22974964D01*
X-30689259Y22817731D01*
X-30616892Y22643022D01*
X-30580000Y22457552D01*
X-30580000Y22268448D01*
X-30616892Y22082978D01*
X-30689259Y21908269D01*
X-30794319Y21751036D01*
X-30928036Y21617319D01*
X-31085269Y21512259D01*
X-31259978Y21439892D01*
X-31352713Y21421446D01*
X-31445447Y21403000D01*
X-31634553Y21403000D01*
X-31727287Y21421446D01*
X-31820022Y21439892D01*
X-31994731Y21512259D01*
X-32151964Y21617319D01*
X-32285681Y21751036D01*
X-32390741Y21908269D01*
X-32463108Y22082978D01*
X-32500000Y22268448D01*
X-32500000Y22457552D01*
X-32463108Y22643022D01*
X-32390741Y22817731D01*
X-32285681Y22974964D01*
X-32151964Y23108681D01*
X-31994731Y23213741D01*
X-31820022Y23286108D01*
X-31727287Y23304554D01*
X-31634553Y23323000D01*
X-31445447Y23323000D01*
X-31352713Y23304554D01*
G37*
G36*
X-9117519Y24442814D02*
G01*
X-9072795Y24429246D01*
X-9031570Y24407211D01*
X-8995439Y24377561D01*
X-8965789Y24341430D01*
X-8943754Y24300205D01*
X-8930186Y24255481D01*
X-8925000Y24202824D01*
X-8925000Y22868176D01*
X-8930186Y22815519D01*
X-8943754Y22770795D01*
X-8965789Y22729570D01*
X-8995439Y22693439D01*
X-9031570Y22663789D01*
X-9072795Y22641754D01*
X-9117519Y22628186D01*
X-9170176Y22623000D01*
X-10829824Y22623000D01*
X-10882481Y22628186D01*
X-10927205Y22641754D01*
X-10968430Y22663789D01*
X-11004561Y22693439D01*
X-11034211Y22729570D01*
X-11056246Y22770795D01*
X-11069814Y22815519D01*
X-11075000Y22868176D01*
X-11075000Y24202824D01*
X-11069814Y24255481D01*
X-11056246Y24300205D01*
X-11034211Y24341430D01*
X-11004561Y24377561D01*
X-10968430Y24407211D01*
X-10927205Y24429246D01*
X-10882481Y24442814D01*
X-10829824Y24448000D01*
X-9170176Y24448000D01*
X-9117519Y24442814D01*
G37*
G36*
X-25117519Y24442814D02*
G01*
X-25072795Y24429246D01*
X-25031570Y24407211D01*
X-24995439Y24377561D01*
X-24965789Y24341430D01*
X-24943754Y24300205D01*
X-24930186Y24255481D01*
X-24925000Y24202824D01*
X-24925000Y22868176D01*
X-24930186Y22815519D01*
X-24943754Y22770795D01*
X-24965789Y22729570D01*
X-24995439Y22693439D01*
X-25031570Y22663789D01*
X-25072795Y22641754D01*
X-25117519Y22628186D01*
X-25170176Y22623000D01*
X-26829824Y22623000D01*
X-26882481Y22628186D01*
X-26927205Y22641754D01*
X-26968430Y22663789D01*
X-27004561Y22693439D01*
X-27034211Y22729570D01*
X-27056246Y22770795D01*
X-27069814Y22815519D01*
X-27075000Y22868176D01*
X-27075000Y24202824D01*
X-27069814Y24255481D01*
X-27056246Y24300205D01*
X-27034211Y24341430D01*
X-27004561Y24377561D01*
X-26968430Y24407211D01*
X-26927205Y24429246D01*
X-26882481Y24442814D01*
X-26829824Y24448000D01*
X-25170176Y24448000D01*
X-25117519Y24442814D01*
G37*
G36*
X-28830037Y24548000D02*
G01*
X-28719978Y24526108D01*
X-28545269Y24453741D01*
X-28388036Y24348681D01*
X-28254319Y24214964D01*
X-28149259Y24057731D01*
X-28076892Y23883022D01*
X-28040000Y23697552D01*
X-28040000Y23508448D01*
X-28076892Y23322978D01*
X-28149259Y23148269D01*
X-28254319Y22991036D01*
X-28388036Y22857319D01*
X-28545269Y22752259D01*
X-28719978Y22679892D01*
X-28800934Y22663789D01*
X-28905447Y22643000D01*
X-29094553Y22643000D01*
X-29199066Y22663789D01*
X-29280022Y22679892D01*
X-29454731Y22752259D01*
X-29611964Y22857319D01*
X-29745681Y22991036D01*
X-29850741Y23148269D01*
X-29923108Y23322978D01*
X-29960000Y23508448D01*
X-29960000Y23697552D01*
X-29923108Y23883022D01*
X-29850741Y24057731D01*
X-29745681Y24214964D01*
X-29611964Y24348681D01*
X-29454731Y24453741D01*
X-29280022Y24526108D01*
X-29169963Y24548000D01*
X-29094553Y24563000D01*
X-28905447Y24563000D01*
X-28830037Y24548000D01*
G37*
G36*
X-4371313Y25387973D02*
G01*
X-4193726Y25352650D01*
X-4002638Y25273498D01*
X-3830664Y25158589D01*
X-3684411Y25012336D01*
X-3569502Y24840362D01*
X-3490350Y24649274D01*
X-3450000Y24446416D01*
X-3450000Y24239584D01*
X-3490350Y24036726D01*
X-3569502Y23845638D01*
X-3684411Y23673664D01*
X-3830664Y23527411D01*
X-4002638Y23412502D01*
X-4193726Y23333350D01*
X-4371313Y23298027D01*
X-4396583Y23293000D01*
X-4603417Y23293000D01*
X-4628687Y23298027D01*
X-4806274Y23333350D01*
X-4997362Y23412502D01*
X-5169336Y23527411D01*
X-5315589Y23673664D01*
X-5430498Y23845638D01*
X-5509650Y24036726D01*
X-5550000Y24239584D01*
X-5550000Y24446416D01*
X-5509650Y24649274D01*
X-5430498Y24840362D01*
X-5315589Y25012336D01*
X-5169336Y25158589D01*
X-4997362Y25273498D01*
X-4806274Y25352650D01*
X-4628687Y25387973D01*
X-4603417Y25393000D01*
X-4396583Y25393000D01*
X-4371313Y25387973D01*
G37*
G36*
X-1831313Y25387973D02*
G01*
X-1653726Y25352650D01*
X-1462638Y25273498D01*
X-1290664Y25158589D01*
X-1144411Y25012336D01*
X-1029502Y24840362D01*
X-950350Y24649274D01*
X-910000Y24446416D01*
X-910000Y24239584D01*
X-950350Y24036726D01*
X-1029502Y23845638D01*
X-1144411Y23673664D01*
X-1290664Y23527411D01*
X-1462638Y23412502D01*
X-1653726Y23333350D01*
X-1831313Y23298027D01*
X-1856583Y23293000D01*
X-2063417Y23293000D01*
X-2088687Y23298027D01*
X-2266274Y23333350D01*
X-2457362Y23412502D01*
X-2629336Y23527411D01*
X-2775589Y23673664D01*
X-2890498Y23845638D01*
X-2969650Y24036726D01*
X-3010000Y24239584D01*
X-3010000Y24446416D01*
X-2969650Y24649274D01*
X-2890498Y24840362D01*
X-2775589Y25012336D01*
X-2629336Y25158589D01*
X-2457362Y25273498D01*
X-2266274Y25352650D01*
X-2088687Y25387973D01*
X-2063417Y25393000D01*
X-1856583Y25393000D01*
X-1831313Y25387973D01*
G37*
G36*
X-12170000Y24548000D02*
G01*
X-14130000Y24548000D01*
X-14130000Y27498000D01*
X-12170000Y27498000D01*
X-12170000Y24548000D01*
G37*
G36*
X-14870000Y24548000D02*
G01*
X-16830000Y24548000D01*
X-16830000Y25598000D01*
X-14870000Y25598000D01*
X-14870000Y24548000D01*
G37*
G36*
X-37533960Y31902933D02*
G01*
X-37357667Y31867866D01*
X-37220096Y31810882D01*
X-37025540Y31730295D01*
X-36726631Y31530570D01*
X-36472430Y31276369D01*
X-36272705Y30977460D01*
X-36135134Y30645332D01*
X-36065000Y30292748D01*
X-36065000Y29933252D01*
X-36075451Y29880713D01*
X-36126713Y29623000D01*
X-36135134Y29580668D01*
X-36272705Y29248540D01*
X-36472430Y28949631D01*
X-36726631Y28695430D01*
X-36948872Y28546933D01*
X-36967814Y28531388D01*
X-36983359Y28512446D01*
X-36994910Y28490835D01*
X-37002023Y28467386D01*
X-37004425Y28443000D01*
X-37002023Y28418614D01*
X-36994910Y28395165D01*
X-36983359Y28373554D01*
X-36967814Y28354612D01*
X-36948872Y28339067D01*
X-36726631Y28190570D01*
X-36472430Y27936369D01*
X-36272705Y27637460D01*
X-36214939Y27498000D01*
X-36154696Y27352561D01*
X-36135134Y27305332D01*
X-36065000Y26952748D01*
X-36065000Y26593252D01*
X-36135134Y26240668D01*
X-36272705Y25908540D01*
X-36472430Y25609631D01*
X-36726631Y25355430D01*
X-37025540Y25155705D01*
X-37220096Y25075118D01*
X-37357667Y25018134D01*
X-37533960Y24983067D01*
X-37710252Y24948000D01*
X-38069748Y24948000D01*
X-38246040Y24983067D01*
X-38422333Y25018134D01*
X-38559904Y25075118D01*
X-38754460Y25155705D01*
X-39053369Y25355430D01*
X-39307570Y25609631D01*
X-39507295Y25908540D01*
X-39644866Y26240668D01*
X-39715000Y26593252D01*
X-39715000Y26952748D01*
X-39644866Y27305332D01*
X-39625303Y27352561D01*
X-39565061Y27498000D01*
X-39507295Y27637460D01*
X-39307570Y27936369D01*
X-39053369Y28190570D01*
X-38831128Y28339067D01*
X-38812186Y28354612D01*
X-38796641Y28373554D01*
X-38785090Y28395165D01*
X-38777977Y28418614D01*
X-38775575Y28443000D01*
X-38777977Y28467386D01*
X-38785090Y28490835D01*
X-38796641Y28512446D01*
X-38812186Y28531388D01*
X-38831128Y28546933D01*
X-39053369Y28695430D01*
X-39307570Y28949631D01*
X-39507295Y29248540D01*
X-39644866Y29580668D01*
X-39653286Y29623000D01*
X-39704549Y29880713D01*
X-39715000Y29933252D01*
X-39715000Y30292748D01*
X-39644866Y30645332D01*
X-39507295Y30977460D01*
X-39307570Y31276369D01*
X-39053369Y31530570D01*
X-38754460Y31730295D01*
X-38559904Y31810882D01*
X-38422333Y31867866D01*
X-38246040Y31902933D01*
X-38069748Y31938000D01*
X-37710252Y31938000D01*
X-37533960Y31902933D01*
G37*
G36*
X-21800000Y24973000D02*
G01*
X-24200000Y24973000D01*
X-24200000Y27073000D01*
X-21800000Y27073000D01*
X-21800000Y24973000D01*
G37*
G36*
X-17800000Y24973000D02*
G01*
X-20200000Y24973000D01*
X-20200000Y27073000D01*
X-17800000Y27073000D01*
X-17800000Y24973000D01*
G37*
G36*
X-25117519Y27417814D02*
G01*
X-25072795Y27404246D01*
X-25031570Y27382211D01*
X-24995439Y27352561D01*
X-24965789Y27316430D01*
X-24943754Y27275205D01*
X-24930186Y27230481D01*
X-24925000Y27177824D01*
X-24925000Y25843176D01*
X-24930186Y25790519D01*
X-24943754Y25745795D01*
X-24965789Y25704570D01*
X-24995439Y25668439D01*
X-25031570Y25638789D01*
X-25072795Y25616754D01*
X-25117519Y25603186D01*
X-25170176Y25598000D01*
X-26829824Y25598000D01*
X-26882481Y25603186D01*
X-26927205Y25616754D01*
X-26968430Y25638789D01*
X-27004561Y25668439D01*
X-27034211Y25704570D01*
X-27056246Y25745795D01*
X-27069814Y25790519D01*
X-27075000Y25843176D01*
X-27075000Y27177824D01*
X-27069814Y27230481D01*
X-27056246Y27275205D01*
X-27034211Y27316430D01*
X-27004561Y27352561D01*
X-26968430Y27382211D01*
X-26927205Y27404246D01*
X-26882481Y27417814D01*
X-26829824Y27423000D01*
X-25170176Y27423000D01*
X-25117519Y27417814D01*
G37*
G36*
X-9117519Y27417814D02*
G01*
X-9072795Y27404246D01*
X-9031570Y27382211D01*
X-8995439Y27352561D01*
X-8965789Y27316430D01*
X-8943754Y27275205D01*
X-8930186Y27230481D01*
X-8925000Y27177824D01*
X-8925000Y25843176D01*
X-8930186Y25790519D01*
X-8943754Y25745795D01*
X-8965789Y25704570D01*
X-8995439Y25668439D01*
X-9031570Y25638789D01*
X-9072795Y25616754D01*
X-9117519Y25603186D01*
X-9170176Y25598000D01*
X-10829824Y25598000D01*
X-10882481Y25603186D01*
X-10927205Y25616754D01*
X-10968430Y25638789D01*
X-11004561Y25668439D01*
X-11034211Y25704570D01*
X-11056246Y25745795D01*
X-11069814Y25790519D01*
X-11075000Y25843176D01*
X-11075000Y27177824D01*
X-11069814Y27230481D01*
X-11056246Y27275205D01*
X-11034211Y27316430D01*
X-11004561Y27352561D01*
X-10968430Y27382211D01*
X-10927205Y27404246D01*
X-10882481Y27417814D01*
X-10829824Y27423000D01*
X-9170176Y27423000D01*
X-9117519Y27417814D01*
G37*
G36*
X-1831313Y27927973D02*
G01*
X-1653726Y27892650D01*
X-1462638Y27813498D01*
X-1290664Y27698589D01*
X-1144411Y27552336D01*
X-1029502Y27380362D01*
X-950350Y27189274D01*
X-910000Y26986416D01*
X-910000Y26779584D01*
X-950350Y26576726D01*
X-1029502Y26385638D01*
X-1144411Y26213664D01*
X-1290664Y26067411D01*
X-1462638Y25952502D01*
X-1653726Y25873350D01*
X-1831313Y25838027D01*
X-1856583Y25833000D01*
X-2063417Y25833000D01*
X-2088687Y25838027D01*
X-2266274Y25873350D01*
X-2457362Y25952502D01*
X-2629336Y26067411D01*
X-2775589Y26213664D01*
X-2890498Y26385638D01*
X-2969650Y26576726D01*
X-3010000Y26779584D01*
X-3010000Y26986416D01*
X-2969650Y27189274D01*
X-2890498Y27380362D01*
X-2775589Y27552336D01*
X-2629336Y27698589D01*
X-2457362Y27813498D01*
X-2266274Y27892650D01*
X-2088687Y27927973D01*
X-2063417Y27933000D01*
X-1856583Y27933000D01*
X-1831313Y27927973D01*
G37*
G36*
X-4371313Y27927973D02*
G01*
X-4193726Y27892650D01*
X-4002638Y27813498D01*
X-3830664Y27698589D01*
X-3684411Y27552336D01*
X-3569502Y27380362D01*
X-3490350Y27189274D01*
X-3450000Y26986416D01*
X-3450000Y26779584D01*
X-3490350Y26576726D01*
X-3569502Y26385638D01*
X-3684411Y26213664D01*
X-3830664Y26067411D01*
X-4002638Y25952502D01*
X-4193726Y25873350D01*
X-4371313Y25838027D01*
X-4396583Y25833000D01*
X-4603417Y25833000D01*
X-4628687Y25838027D01*
X-4806274Y25873350D01*
X-4997362Y25952502D01*
X-5169336Y26067411D01*
X-5315589Y26213664D01*
X-5430498Y26385638D01*
X-5509650Y26576726D01*
X-5550000Y26779584D01*
X-5550000Y26986416D01*
X-5509650Y27189274D01*
X-5430498Y27380362D01*
X-5315589Y27552336D01*
X-5169336Y27698589D01*
X-4997362Y27813498D01*
X-4806274Y27892650D01*
X-4628687Y27927973D01*
X-4603417Y27933000D01*
X-4396583Y27933000D01*
X-4371313Y27927973D01*
G37*
G36*
X-14870000Y26448000D02*
G01*
X-16830000Y26448000D01*
X-16830000Y27498000D01*
X-14870000Y27498000D01*
X-14870000Y26448000D01*
G37*
G36*
X-4371313Y30467973D02*
G01*
X-4193726Y30432650D01*
X-4002638Y30353498D01*
X-3830664Y30238589D01*
X-3684411Y30092336D01*
X-3569502Y29920362D01*
X-3490350Y29729274D01*
X-3450000Y29526416D01*
X-3450000Y29319584D01*
X-3490350Y29116726D01*
X-3569502Y28925638D01*
X-3684411Y28753664D01*
X-3830664Y28607411D01*
X-4002638Y28492502D01*
X-4193726Y28413350D01*
X-4371313Y28378027D01*
X-4396583Y28373000D01*
X-4603417Y28373000D01*
X-4628687Y28378027D01*
X-4806274Y28413350D01*
X-4997362Y28492502D01*
X-5169336Y28607411D01*
X-5315589Y28753664D01*
X-5430498Y28925638D01*
X-5509650Y29116726D01*
X-5550000Y29319584D01*
X-5550000Y29526416D01*
X-5509650Y29729274D01*
X-5430498Y29920362D01*
X-5315589Y30092336D01*
X-5169336Y30238589D01*
X-4997362Y30353498D01*
X-4806274Y30432650D01*
X-4628687Y30467973D01*
X-4603417Y30473000D01*
X-4396583Y30473000D01*
X-4371313Y30467973D01*
G37*
G36*
X-1831313Y30467973D02*
G01*
X-1653726Y30432650D01*
X-1462638Y30353498D01*
X-1290664Y30238589D01*
X-1144411Y30092336D01*
X-1029502Y29920362D01*
X-950350Y29729274D01*
X-910000Y29526416D01*
X-910000Y29319584D01*
X-950350Y29116726D01*
X-1029502Y28925638D01*
X-1144411Y28753664D01*
X-1290664Y28607411D01*
X-1462638Y28492502D01*
X-1653726Y28413350D01*
X-1831313Y28378027D01*
X-1856583Y28373000D01*
X-2063417Y28373000D01*
X-2088687Y28378027D01*
X-2266274Y28413350D01*
X-2457362Y28492502D01*
X-2629336Y28607411D01*
X-2775589Y28753664D01*
X-2890498Y28925638D01*
X-2969650Y29116726D01*
X-3010000Y29319584D01*
X-3010000Y29526416D01*
X-2969650Y29729274D01*
X-2890498Y29920362D01*
X-2775589Y30092336D01*
X-2629336Y30238589D01*
X-2457362Y30353498D01*
X-2266274Y30432650D01*
X-2088687Y30467973D01*
X-2063417Y30473000D01*
X-1856583Y30473000D01*
X-1831313Y30467973D01*
G37*
G36*
X-25117519Y31442814D02*
G01*
X-25072795Y31429246D01*
X-25031570Y31407211D01*
X-24995439Y31377561D01*
X-24965789Y31341430D01*
X-24943754Y31300205D01*
X-24930186Y31255481D01*
X-24925000Y31202824D01*
X-24925000Y29868176D01*
X-24930186Y29815519D01*
X-24943754Y29770795D01*
X-24965789Y29729570D01*
X-24995439Y29693439D01*
X-25031570Y29663789D01*
X-25072795Y29641754D01*
X-25117519Y29628186D01*
X-25170176Y29623000D01*
X-26829824Y29623000D01*
X-26882481Y29628186D01*
X-26927205Y29641754D01*
X-26968430Y29663789D01*
X-27004561Y29693439D01*
X-27034211Y29729570D01*
X-27056246Y29770795D01*
X-27069814Y29815519D01*
X-27075000Y29868176D01*
X-27075000Y31202824D01*
X-27069814Y31255481D01*
X-27056246Y31300205D01*
X-27034211Y31341430D01*
X-27004561Y31377561D01*
X-26968430Y31407211D01*
X-26927205Y31429246D01*
X-26882481Y31442814D01*
X-26829824Y31448000D01*
X-25170176Y31448000D01*
X-25117519Y31442814D01*
G37*
G36*
X-21800000Y30473000D02*
G01*
X-24200000Y30473000D01*
X-24200000Y32573000D01*
X-21800000Y32573000D01*
X-21800000Y30473000D01*
G37*
G36*
X-17800000Y30473000D02*
G01*
X-20200000Y30473000D01*
X-20200000Y32573000D01*
X-17800000Y32573000D01*
X-17800000Y30473000D01*
G37*
G36*
X-12200000Y30723000D02*
G01*
X-13500000Y30723000D01*
X-13500000Y32323000D01*
X-12200000Y32323000D01*
X-12200000Y30723000D01*
G37*
G36*
X-15500000Y30723000D02*
G01*
X-16800000Y30723000D01*
X-16800000Y32323000D01*
X-15500000Y32323000D01*
X-15500000Y30723000D01*
G37*
G36*
X-1831313Y33007973D02*
G01*
X-1653726Y32972650D01*
X-1462638Y32893498D01*
X-1290664Y32778589D01*
X-1144411Y32632336D01*
X-1029502Y32460362D01*
X-950350Y32269274D01*
X-910000Y32066416D01*
X-910000Y31859584D01*
X-950350Y31656726D01*
X-1029502Y31465638D01*
X-1144411Y31293664D01*
X-1290664Y31147411D01*
X-1462638Y31032502D01*
X-1653726Y30953350D01*
X-1831313Y30918027D01*
X-1856583Y30913000D01*
X-2063417Y30913000D01*
X-2088687Y30918027D01*
X-2266274Y30953350D01*
X-2457362Y31032502D01*
X-2629336Y31147411D01*
X-2775589Y31293664D01*
X-2890498Y31465638D01*
X-2969650Y31656726D01*
X-3010000Y31859584D01*
X-3010000Y32066416D01*
X-2969650Y32269274D01*
X-2890498Y32460362D01*
X-2775589Y32632336D01*
X-2629336Y32778589D01*
X-2457362Y32893498D01*
X-2266274Y32972650D01*
X-2088687Y33007973D01*
X-2063417Y33013000D01*
X-1856583Y33013000D01*
X-1831313Y33007973D01*
G37*
G36*
X-4371313Y33007973D02*
G01*
X-4193726Y32972650D01*
X-4002638Y32893498D01*
X-3830664Y32778589D01*
X-3684411Y32632336D01*
X-3569502Y32460362D01*
X-3490350Y32269274D01*
X-3450000Y32066416D01*
X-3450000Y31859584D01*
X-3490350Y31656726D01*
X-3569502Y31465638D01*
X-3684411Y31293664D01*
X-3830664Y31147411D01*
X-4002638Y31032502D01*
X-4193726Y30953350D01*
X-4371313Y30918027D01*
X-4396583Y30913000D01*
X-4603417Y30913000D01*
X-4628687Y30918027D01*
X-4806274Y30953350D01*
X-4997362Y31032502D01*
X-5169336Y31147411D01*
X-5315589Y31293664D01*
X-5430498Y31465638D01*
X-5509650Y31656726D01*
X-5550000Y31859584D01*
X-5550000Y32066416D01*
X-5509650Y32269274D01*
X-5430498Y32460362D01*
X-5315589Y32632336D01*
X-5169336Y32778589D01*
X-4997362Y32893498D01*
X-4806274Y32972650D01*
X-4628687Y33007973D01*
X-4603417Y33013000D01*
X-4396583Y33013000D01*
X-4371313Y33007973D01*
G37*
G36*
X-30580000Y32333000D02*
G01*
X-32500000Y32333000D01*
X-32500000Y34253000D01*
X-30580000Y34253000D01*
X-30580000Y32333000D01*
G37*
G36*
X-25117519Y34417814D02*
G01*
X-25072795Y34404246D01*
X-25031570Y34382211D01*
X-24995439Y34352561D01*
X-24965789Y34316430D01*
X-24943754Y34275205D01*
X-24930186Y34230481D01*
X-24925000Y34177824D01*
X-24925000Y32843176D01*
X-24930186Y32790519D01*
X-24943754Y32745795D01*
X-24965789Y32704570D01*
X-24995439Y32668439D01*
X-25031570Y32638789D01*
X-25072795Y32616754D01*
X-25117519Y32603186D01*
X-25170176Y32598000D01*
X-26829824Y32598000D01*
X-26882481Y32603186D01*
X-26927205Y32616754D01*
X-26968430Y32638789D01*
X-27004561Y32668439D01*
X-27034211Y32704570D01*
X-27056246Y32745795D01*
X-27069814Y32790519D01*
X-27075000Y32843176D01*
X-27075000Y34177824D01*
X-27069814Y34230481D01*
X-27056246Y34275205D01*
X-27034211Y34316430D01*
X-27004561Y34352561D01*
X-26968430Y34382211D01*
X-26927205Y34404246D01*
X-26882481Y34417814D01*
X-26829824Y34423000D01*
X-25170176Y34423000D01*
X-25117519Y34417814D01*
G37*
G36*
X-4371313Y35547973D02*
G01*
X-4193726Y35512650D01*
X-4002638Y35433498D01*
X-3830664Y35318589D01*
X-3684411Y35172336D01*
X-3569502Y35000362D01*
X-3490350Y34809274D01*
X-3450000Y34606416D01*
X-3450000Y34399584D01*
X-3490350Y34196726D01*
X-3569502Y34005638D01*
X-3684411Y33833664D01*
X-3830664Y33687411D01*
X-4002638Y33572502D01*
X-4193726Y33493350D01*
X-4371313Y33458027D01*
X-4396583Y33453000D01*
X-4603417Y33453000D01*
X-4628687Y33458027D01*
X-4806274Y33493350D01*
X-4997362Y33572502D01*
X-5169336Y33687411D01*
X-5315589Y33833664D01*
X-5430498Y34005638D01*
X-5509650Y34196726D01*
X-5550000Y34399584D01*
X-5550000Y34606416D01*
X-5509650Y34809274D01*
X-5430498Y35000362D01*
X-5315589Y35172336D01*
X-5169336Y35318589D01*
X-4997362Y35433498D01*
X-4806274Y35512650D01*
X-4628687Y35547973D01*
X-4603417Y35553000D01*
X-4396583Y35553000D01*
X-4371313Y35547973D01*
G37*
G36*
X-1831313Y35547973D02*
G01*
X-1653726Y35512650D01*
X-1462638Y35433498D01*
X-1290664Y35318589D01*
X-1144411Y35172336D01*
X-1029502Y35000362D01*
X-950350Y34809274D01*
X-910000Y34606416D01*
X-910000Y34399584D01*
X-950350Y34196726D01*
X-1029502Y34005638D01*
X-1144411Y33833664D01*
X-1290664Y33687411D01*
X-1462638Y33572502D01*
X-1653726Y33493350D01*
X-1831313Y33458027D01*
X-1856583Y33453000D01*
X-2063417Y33453000D01*
X-2088687Y33458027D01*
X-2266274Y33493350D01*
X-2457362Y33572502D01*
X-2629336Y33687411D01*
X-2775589Y33833664D01*
X-2890498Y34005638D01*
X-2969650Y34196726D01*
X-3010000Y34399584D01*
X-3010000Y34606416D01*
X-2969650Y34809274D01*
X-2890498Y35000362D01*
X-2775589Y35172336D01*
X-2629336Y35318589D01*
X-2457362Y35433498D01*
X-2266274Y35512650D01*
X-2088687Y35547973D01*
X-2063417Y35553000D01*
X-1856583Y35553000D01*
X-1831313Y35547973D01*
G37*
G36*
X-28812713Y35534554D02*
G01*
X-28719978Y35516108D01*
X-28545269Y35443741D01*
X-28388036Y35338681D01*
X-28254319Y35204964D01*
X-28149259Y35047731D01*
X-28076892Y34873022D01*
X-28040000Y34687552D01*
X-28040000Y34498448D01*
X-28076892Y34312978D01*
X-28149259Y34138269D01*
X-28254319Y33981036D01*
X-28388036Y33847319D01*
X-28545269Y33742259D01*
X-28719978Y33669892D01*
X-28812713Y33651446D01*
X-28905447Y33633000D01*
X-29094553Y33633000D01*
X-29187287Y33651446D01*
X-29280022Y33669892D01*
X-29454731Y33742259D01*
X-29611964Y33847319D01*
X-29745681Y33981036D01*
X-29850741Y34138269D01*
X-29923108Y34312978D01*
X-29960000Y34498448D01*
X-29960000Y34687552D01*
X-29923108Y34873022D01*
X-29850741Y35047731D01*
X-29745681Y35204964D01*
X-29611964Y35338681D01*
X-29454731Y35443741D01*
X-29280022Y35516108D01*
X-29187287Y35534554D01*
X-29094553Y35553000D01*
X-28905447Y35553000D01*
X-28812713Y35534554D01*
G37*
G36*
X-15500000Y33723000D02*
G01*
X-16800000Y33723000D01*
X-16800000Y35323000D01*
X-15500000Y35323000D01*
X-15500000Y33723000D01*
G37*
G36*
X-12200000Y33723000D02*
G01*
X-13500000Y33723000D01*
X-13500000Y35323000D01*
X-12200000Y35323000D01*
X-12200000Y33723000D01*
G37*
G36*
X-17800000Y33973000D02*
G01*
X-20200000Y33973000D01*
X-20200000Y36073000D01*
X-17800000Y36073000D01*
X-17800000Y33973000D01*
G37*
G36*
X-21800000Y33973000D02*
G01*
X-24200000Y33973000D01*
X-24200000Y36073000D01*
X-21800000Y36073000D01*
X-21800000Y33973000D01*
G37*
G36*
X-31352713Y36804554D02*
G01*
X-31259978Y36786108D01*
X-31085269Y36713741D01*
X-30928036Y36608681D01*
X-30794319Y36474964D01*
X-30689259Y36317731D01*
X-30616892Y36143022D01*
X-30580000Y35957552D01*
X-30580000Y35768448D01*
X-30616892Y35582978D01*
X-30689259Y35408269D01*
X-30794319Y35251036D01*
X-30928036Y35117319D01*
X-31085269Y35012259D01*
X-31085270Y35012258D01*
X-31085271Y35012258D01*
X-31136441Y34991063D01*
X-31259978Y34939892D01*
X-31352713Y34921446D01*
X-31445447Y34903000D01*
X-31634553Y34903000D01*
X-31727287Y34921446D01*
X-31820022Y34939892D01*
X-31943559Y34991063D01*
X-31994729Y35012258D01*
X-31994730Y35012258D01*
X-31994731Y35012259D01*
X-32151964Y35117319D01*
X-32285681Y35251036D01*
X-32390741Y35408269D01*
X-32463108Y35582978D01*
X-32500000Y35768448D01*
X-32500000Y35957552D01*
X-32463108Y36143022D01*
X-32390741Y36317731D01*
X-32285681Y36474964D01*
X-32151964Y36608681D01*
X-31994731Y36713741D01*
X-31820022Y36786108D01*
X-31727287Y36804554D01*
X-31634553Y36823000D01*
X-31445447Y36823000D01*
X-31352713Y36804554D01*
G37*
G36*
X-1831313Y38087973D02*
G01*
X-1653726Y38052650D01*
X-1462638Y37973498D01*
X-1290664Y37858589D01*
X-1144411Y37712336D01*
X-1029502Y37540362D01*
X-950350Y37349274D01*
X-910000Y37146416D01*
X-910000Y36939584D01*
X-950350Y36736726D01*
X-1029502Y36545638D01*
X-1144411Y36373664D01*
X-1290664Y36227411D01*
X-1462638Y36112502D01*
X-1653726Y36033350D01*
X-1831313Y35998027D01*
X-1856583Y35993000D01*
X-2063417Y35993000D01*
X-2088687Y35998027D01*
X-2266274Y36033350D01*
X-2457362Y36112502D01*
X-2629336Y36227411D01*
X-2775589Y36373664D01*
X-2890498Y36545638D01*
X-2969650Y36736726D01*
X-3010000Y36939584D01*
X-3010000Y37146416D01*
X-2969650Y37349274D01*
X-2890498Y37540362D01*
X-2775589Y37712336D01*
X-2629336Y37858589D01*
X-2457362Y37973498D01*
X-2266274Y38052650D01*
X-2088687Y38087973D01*
X-2063417Y38093000D01*
X-1856583Y38093000D01*
X-1831313Y38087973D01*
G37*
G36*
X-4371313Y38087973D02*
G01*
X-4193726Y38052650D01*
X-4002638Y37973498D01*
X-3830664Y37858589D01*
X-3684411Y37712336D01*
X-3569502Y37540362D01*
X-3490350Y37349274D01*
X-3450000Y37146416D01*
X-3450000Y36939584D01*
X-3490350Y36736726D01*
X-3569502Y36545638D01*
X-3684411Y36373664D01*
X-3830664Y36227411D01*
X-4002638Y36112502D01*
X-4193726Y36033350D01*
X-4371313Y35998027D01*
X-4396583Y35993000D01*
X-4603417Y35993000D01*
X-4628687Y35998027D01*
X-4806274Y36033350D01*
X-4997362Y36112502D01*
X-5169336Y36227411D01*
X-5315589Y36373664D01*
X-5430498Y36545638D01*
X-5509650Y36736726D01*
X-5550000Y36939584D01*
X-5550000Y37146416D01*
X-5509650Y37349274D01*
X-5430498Y37540362D01*
X-5315589Y37712336D01*
X-5169336Y37858589D01*
X-4997362Y37973498D01*
X-4806274Y38052650D01*
X-4628687Y38087973D01*
X-4603417Y38093000D01*
X-4396583Y38093000D01*
X-4371313Y38087973D01*
G37*
G36*
X-9117519Y37942814D02*
G01*
X-9072795Y37929246D01*
X-9031570Y37907211D01*
X-8995439Y37877561D01*
X-8965789Y37841430D01*
X-8943754Y37800205D01*
X-8930186Y37755481D01*
X-8925000Y37702824D01*
X-8925000Y36368176D01*
X-8930186Y36315519D01*
X-8943754Y36270795D01*
X-8965789Y36229570D01*
X-8995439Y36193439D01*
X-9031570Y36163789D01*
X-9072795Y36141754D01*
X-9117519Y36128186D01*
X-9170176Y36123000D01*
X-10829824Y36123000D01*
X-10882481Y36128186D01*
X-10927205Y36141754D01*
X-10968430Y36163789D01*
X-11004561Y36193439D01*
X-11034211Y36229570D01*
X-11056246Y36270795D01*
X-11069814Y36315519D01*
X-11075000Y36368176D01*
X-11075000Y37702824D01*
X-11069814Y37755481D01*
X-11056246Y37800205D01*
X-11034211Y37841430D01*
X-11004561Y37877561D01*
X-10968430Y37907211D01*
X-10927205Y37929246D01*
X-10882481Y37942814D01*
X-10829824Y37948000D01*
X-9170176Y37948000D01*
X-9117519Y37942814D01*
G37*
G36*
X-28830037Y38048000D02*
G01*
X-28719978Y38026108D01*
X-28674357Y38007211D01*
X-28546432Y37954223D01*
X-28545269Y37953741D01*
X-28508610Y37929246D01*
X-28388036Y37848681D01*
X-28254319Y37714964D01*
X-28149258Y37557729D01*
X-28142064Y37540360D01*
X-28076892Y37383022D01*
X-28040000Y37197552D01*
X-28040000Y37008448D01*
X-28076892Y36822978D01*
X-28149259Y36648269D01*
X-28254319Y36491036D01*
X-28388036Y36357319D01*
X-28545269Y36252259D01*
X-28719978Y36179892D01*
X-28800934Y36163789D01*
X-28905447Y36143000D01*
X-29094553Y36143000D01*
X-29199066Y36163789D01*
X-29280022Y36179892D01*
X-29454731Y36252259D01*
X-29611964Y36357319D01*
X-29745681Y36491036D01*
X-29850741Y36648269D01*
X-29923108Y36822978D01*
X-29960000Y37008448D01*
X-29960000Y37197552D01*
X-29923108Y37383022D01*
X-29857936Y37540360D01*
X-29850742Y37557729D01*
X-29745681Y37714964D01*
X-29611964Y37848681D01*
X-29491390Y37929246D01*
X-29454731Y37953741D01*
X-29453567Y37954223D01*
X-29325643Y38007211D01*
X-29280022Y38026108D01*
X-29169963Y38048000D01*
X-29094553Y38063000D01*
X-28905447Y38063000D01*
X-28830037Y38048000D01*
G37*
G36*
X-25117519Y38042814D02*
G01*
X-25072795Y38029246D01*
X-25031570Y38007211D01*
X-24995439Y37977561D01*
X-24965789Y37941430D01*
X-24943754Y37900205D01*
X-24930186Y37855481D01*
X-24925000Y37802824D01*
X-24925000Y36468176D01*
X-24930186Y36415519D01*
X-24943754Y36370795D01*
X-24965789Y36329570D01*
X-24995439Y36293439D01*
X-25031570Y36263789D01*
X-25072795Y36241754D01*
X-25117519Y36228186D01*
X-25170176Y36223000D01*
X-26829824Y36223000D01*
X-26882481Y36228186D01*
X-26927205Y36241754D01*
X-26968430Y36263789D01*
X-27004561Y36293439D01*
X-27034211Y36329570D01*
X-27056246Y36370795D01*
X-27069814Y36415519D01*
X-27075000Y36468176D01*
X-27075000Y37802824D01*
X-27069814Y37855481D01*
X-27056246Y37900205D01*
X-27034211Y37941430D01*
X-27004561Y37977561D01*
X-26968430Y38007211D01*
X-26927205Y38029246D01*
X-26882481Y38042814D01*
X-26829824Y38048000D01*
X-25170176Y38048000D01*
X-25117519Y38042814D01*
G37*
G36*
X-12170000Y38048000D02*
G01*
X-14130000Y38048000D01*
X-14130000Y40998000D01*
X-12170000Y40998000D01*
X-12170000Y38048000D01*
G37*
G36*
X-14870000Y38048000D02*
G01*
X-16830000Y38048000D01*
X-16830000Y39098000D01*
X-14870000Y39098000D01*
X-14870000Y38048000D01*
G37*
G36*
X-37533960Y45402933D02*
G01*
X-37357667Y45367866D01*
X-37271890Y45332336D01*
X-37025540Y45230295D01*
X-36726631Y45030570D01*
X-36472430Y44776369D01*
X-36272705Y44477460D01*
X-36222697Y44356728D01*
X-36143545Y44165640D01*
X-36135134Y44145332D01*
X-36065000Y43792748D01*
X-36065000Y43433252D01*
X-36135134Y43080668D01*
X-36272705Y42748540D01*
X-36472430Y42449631D01*
X-36726631Y42195430D01*
X-36948872Y42046933D01*
X-36967814Y42031388D01*
X-36983359Y42012446D01*
X-36994910Y41990835D01*
X-37002023Y41967386D01*
X-37004425Y41943000D01*
X-37002023Y41918614D01*
X-36994910Y41895165D01*
X-36983359Y41873554D01*
X-36967814Y41854612D01*
X-36948872Y41839067D01*
X-36726631Y41690570D01*
X-36472430Y41436369D01*
X-36272705Y41137460D01*
X-36215199Y40998628D01*
X-36143425Y40825350D01*
X-36135134Y40805332D01*
X-36065000Y40452748D01*
X-36065000Y40093252D01*
X-36135134Y39740668D01*
X-36272705Y39408540D01*
X-36472430Y39109631D01*
X-36726631Y38855430D01*
X-37025540Y38655705D01*
X-37220096Y38575118D01*
X-37357667Y38518134D01*
X-37533960Y38483067D01*
X-37710252Y38448000D01*
X-38069748Y38448000D01*
X-38246040Y38483067D01*
X-38422333Y38518134D01*
X-38559904Y38575118D01*
X-38754460Y38655705D01*
X-39053369Y38855430D01*
X-39307570Y39109631D01*
X-39507295Y39408540D01*
X-39644866Y39740668D01*
X-39715000Y40093252D01*
X-39715000Y40452748D01*
X-39644866Y40805332D01*
X-39636574Y40825350D01*
X-39564801Y40998628D01*
X-39507295Y41137460D01*
X-39307570Y41436369D01*
X-39053369Y41690570D01*
X-38831128Y41839067D01*
X-38812186Y41854612D01*
X-38796641Y41873554D01*
X-38785090Y41895165D01*
X-38777977Y41918614D01*
X-38775575Y41943000D01*
X-38777977Y41967386D01*
X-38785090Y41990835D01*
X-38796641Y42012446D01*
X-38812186Y42031388D01*
X-38831128Y42046933D01*
X-39053369Y42195430D01*
X-39307570Y42449631D01*
X-39507295Y42748540D01*
X-39644866Y43080668D01*
X-39715000Y43433252D01*
X-39715000Y43792748D01*
X-39644866Y44145332D01*
X-39636454Y44165640D01*
X-39557303Y44356728D01*
X-39507295Y44477460D01*
X-39307570Y44776369D01*
X-39053369Y45030570D01*
X-38754460Y45230295D01*
X-38508110Y45332336D01*
X-38422333Y45367866D01*
X-38246040Y45402933D01*
X-38069748Y45438000D01*
X-37710252Y45438000D01*
X-37533960Y45402933D01*
G37*
G36*
X-21800000Y38473000D02*
G01*
X-24200000Y38473000D01*
X-24200000Y40573000D01*
X-21800000Y40573000D01*
X-21800000Y38473000D01*
G37*
G36*
X-17800000Y38473000D02*
G01*
X-20200000Y38473000D01*
X-20200000Y40573000D01*
X-17800000Y40573000D01*
X-17800000Y38473000D01*
G37*
G36*
X-1831313Y40627973D02*
G01*
X-1653726Y40592650D01*
X-1462638Y40513498D01*
X-1290664Y40398589D01*
X-1144411Y40252336D01*
X-1029502Y40080362D01*
X-950350Y39889274D01*
X-910000Y39686416D01*
X-910000Y39479584D01*
X-950350Y39276726D01*
X-1029502Y39085638D01*
X-1144411Y38913664D01*
X-1290664Y38767411D01*
X-1462638Y38652502D01*
X-1653726Y38573350D01*
X-1831313Y38538027D01*
X-1856583Y38533000D01*
X-2063417Y38533000D01*
X-2088687Y38538027D01*
X-2266274Y38573350D01*
X-2457362Y38652502D01*
X-2629336Y38767411D01*
X-2775589Y38913664D01*
X-2890498Y39085638D01*
X-2969650Y39276726D01*
X-3010000Y39479584D01*
X-3010000Y39686416D01*
X-2969650Y39889274D01*
X-2890498Y40080362D01*
X-2775589Y40252336D01*
X-2629336Y40398589D01*
X-2457362Y40513498D01*
X-2266274Y40592650D01*
X-2088687Y40627973D01*
X-2063417Y40633000D01*
X-1856583Y40633000D01*
X-1831313Y40627973D01*
G37*
G36*
X-4371313Y40627973D02*
G01*
X-4193726Y40592650D01*
X-4002638Y40513498D01*
X-3830664Y40398589D01*
X-3684411Y40252336D01*
X-3569502Y40080362D01*
X-3490350Y39889274D01*
X-3450000Y39686416D01*
X-3450000Y39479584D01*
X-3490350Y39276726D01*
X-3569502Y39085638D01*
X-3684411Y38913664D01*
X-3830664Y38767411D01*
X-4002638Y38652502D01*
X-4193726Y38573350D01*
X-4371313Y38538027D01*
X-4396583Y38533000D01*
X-4603417Y38533000D01*
X-4628687Y38538027D01*
X-4806274Y38573350D01*
X-4997362Y38652502D01*
X-5169336Y38767411D01*
X-5315589Y38913664D01*
X-5430498Y39085638D01*
X-5509650Y39276726D01*
X-5550000Y39479584D01*
X-5550000Y39686416D01*
X-5509650Y39889274D01*
X-5430498Y40080362D01*
X-5315589Y40252336D01*
X-5169336Y40398589D01*
X-4997362Y40513498D01*
X-4806274Y40592650D01*
X-4628687Y40627973D01*
X-4603417Y40633000D01*
X-4396583Y40633000D01*
X-4371313Y40627973D01*
G37*
G36*
X-9117519Y40917814D02*
G01*
X-9072795Y40904246D01*
X-9031570Y40882211D01*
X-8995439Y40852561D01*
X-8965789Y40816430D01*
X-8943754Y40775205D01*
X-8930186Y40730481D01*
X-8925000Y40677824D01*
X-8925000Y39343176D01*
X-8930186Y39290519D01*
X-8943754Y39245795D01*
X-8965789Y39204570D01*
X-8995439Y39168439D01*
X-9031570Y39138789D01*
X-9072795Y39116754D01*
X-9117519Y39103186D01*
X-9170176Y39098000D01*
X-10829824Y39098000D01*
X-10882481Y39103186D01*
X-10927205Y39116754D01*
X-10968430Y39138789D01*
X-11004561Y39168439D01*
X-11034211Y39204570D01*
X-11056246Y39245795D01*
X-11069814Y39290519D01*
X-11075000Y39343176D01*
X-11075000Y40677824D01*
X-11069814Y40730481D01*
X-11056246Y40775205D01*
X-11034211Y40816430D01*
X-11004561Y40852561D01*
X-10968430Y40882211D01*
X-10927205Y40904246D01*
X-10882481Y40917814D01*
X-10829824Y40923000D01*
X-9170176Y40923000D01*
X-9117519Y40917814D01*
G37*
G36*
X-25117519Y41017814D02*
G01*
X-25072795Y41004246D01*
X-25031570Y40982211D01*
X-24995439Y40952561D01*
X-24965789Y40916430D01*
X-24943754Y40875205D01*
X-24930186Y40830481D01*
X-24925000Y40777824D01*
X-24925000Y39443176D01*
X-24930186Y39390519D01*
X-24943754Y39345795D01*
X-24965789Y39304570D01*
X-24995439Y39268439D01*
X-25031570Y39238789D01*
X-25072795Y39216754D01*
X-25117519Y39203186D01*
X-25170176Y39198000D01*
X-26829824Y39198000D01*
X-26882481Y39203186D01*
X-26927205Y39216754D01*
X-26968430Y39238789D01*
X-27004561Y39268439D01*
X-27034211Y39304570D01*
X-27056246Y39345795D01*
X-27069814Y39390519D01*
X-27075000Y39443176D01*
X-27075000Y40777824D01*
X-27069814Y40830481D01*
X-27056246Y40875205D01*
X-27034211Y40916430D01*
X-27004561Y40952561D01*
X-26968430Y40982211D01*
X-26927205Y41004246D01*
X-26882481Y41017814D01*
X-26829824Y41023000D01*
X-25170176Y41023000D01*
X-25117519Y41017814D01*
G37*
G36*
X-14870000Y39948000D02*
G01*
X-16830000Y39948000D01*
X-16830000Y40998000D01*
X-14870000Y40998000D01*
X-14870000Y39948000D01*
G37*
G36*
X-1831313Y43167973D02*
G01*
X-1653726Y43132650D01*
X-1462638Y43053498D01*
X-1290664Y42938589D01*
X-1144411Y42792336D01*
X-1029502Y42620362D01*
X-950350Y42429274D01*
X-910000Y42226416D01*
X-910000Y42019584D01*
X-950350Y41816726D01*
X-1029502Y41625638D01*
X-1144411Y41453664D01*
X-1290664Y41307411D01*
X-1462638Y41192502D01*
X-1653726Y41113350D01*
X-1831313Y41078027D01*
X-1856583Y41073000D01*
X-2063417Y41073000D01*
X-2088687Y41078027D01*
X-2266274Y41113350D01*
X-2457362Y41192502D01*
X-2629336Y41307411D01*
X-2775589Y41453664D01*
X-2890498Y41625638D01*
X-2969650Y41816726D01*
X-3010000Y42019584D01*
X-3010000Y42226416D01*
X-2969650Y42429274D01*
X-2890498Y42620362D01*
X-2775589Y42792336D01*
X-2629336Y42938589D01*
X-2457362Y43053498D01*
X-2266274Y43132650D01*
X-2088687Y43167973D01*
X-2063417Y43173000D01*
X-1856583Y43173000D01*
X-1831313Y43167973D01*
G37*
G36*
X-4371313Y43167973D02*
G01*
X-4193726Y43132650D01*
X-4002638Y43053498D01*
X-3830664Y42938589D01*
X-3684411Y42792336D01*
X-3569502Y42620362D01*
X-3490350Y42429274D01*
X-3450000Y42226416D01*
X-3450000Y42019584D01*
X-3490350Y41816726D01*
X-3569502Y41625638D01*
X-3684411Y41453664D01*
X-3830664Y41307411D01*
X-4002638Y41192502D01*
X-4193726Y41113350D01*
X-4371313Y41078027D01*
X-4396583Y41073000D01*
X-4603417Y41073000D01*
X-4628687Y41078027D01*
X-4806274Y41113350D01*
X-4997362Y41192502D01*
X-5169336Y41307411D01*
X-5315589Y41453664D01*
X-5430498Y41625638D01*
X-5509650Y41816726D01*
X-5550000Y42019584D01*
X-5550000Y42226416D01*
X-5509650Y42429274D01*
X-5430498Y42620362D01*
X-5315589Y42792336D01*
X-5169336Y42938589D01*
X-4997362Y43053498D01*
X-4806274Y43132650D01*
X-4628687Y43167973D01*
X-4603417Y43173000D01*
X-4396583Y43173000D01*
X-4371313Y43167973D01*
G37*
G36*
X-25117519Y45242814D02*
G01*
X-25072795Y45229246D01*
X-25031570Y45207211D01*
X-24995439Y45177561D01*
X-24965789Y45141430D01*
X-24943754Y45100205D01*
X-24930186Y45055481D01*
X-24925000Y45002824D01*
X-24925000Y43668176D01*
X-24930186Y43615519D01*
X-24943754Y43570795D01*
X-24965789Y43529570D01*
X-24995439Y43493439D01*
X-25031570Y43463789D01*
X-25072795Y43441754D01*
X-25117519Y43428186D01*
X-25170176Y43423000D01*
X-26829824Y43423000D01*
X-26882481Y43428186D01*
X-26927205Y43441754D01*
X-26968430Y43463789D01*
X-27004561Y43493439D01*
X-27034211Y43529570D01*
X-27056246Y43570795D01*
X-27069814Y43615519D01*
X-27075000Y43668176D01*
X-27075000Y45002824D01*
X-27069814Y45055481D01*
X-27056246Y45100205D01*
X-27034211Y45141430D01*
X-27004561Y45177561D01*
X-26968430Y45207211D01*
X-26927205Y45229246D01*
X-26882481Y45242814D01*
X-26829824Y45248000D01*
X-25170176Y45248000D01*
X-25117519Y45242814D01*
G37*
G36*
X-1831313Y45707973D02*
G01*
X-1653726Y45672650D01*
X-1462638Y45593498D01*
X-1290664Y45478589D01*
X-1144411Y45332336D01*
X-1029502Y45160362D01*
X-950350Y44969274D01*
X-910000Y44766416D01*
X-910000Y44559584D01*
X-950350Y44356726D01*
X-1029502Y44165638D01*
X-1144411Y43993664D01*
X-1290664Y43847411D01*
X-1462638Y43732502D01*
X-1653726Y43653350D01*
X-1818124Y43620650D01*
X-1856583Y43613000D01*
X-2063417Y43613000D01*
X-2101876Y43620650D01*
X-2266274Y43653350D01*
X-2457362Y43732502D01*
X-2629336Y43847411D01*
X-2775589Y43993664D01*
X-2890498Y44165638D01*
X-2969650Y44356726D01*
X-3010000Y44559584D01*
X-3010000Y44766416D01*
X-2969650Y44969274D01*
X-2890498Y45160362D01*
X-2775589Y45332336D01*
X-2629336Y45478589D01*
X-2457362Y45593498D01*
X-2266274Y45672650D01*
X-2088687Y45707973D01*
X-2063417Y45713000D01*
X-1856583Y45713000D01*
X-1831313Y45707973D01*
G37*
G36*
X-4371313Y45707973D02*
G01*
X-4193726Y45672650D01*
X-4002638Y45593498D01*
X-3830664Y45478589D01*
X-3684411Y45332336D01*
X-3569502Y45160362D01*
X-3490350Y44969274D01*
X-3450000Y44766416D01*
X-3450000Y44559584D01*
X-3490350Y44356726D01*
X-3569502Y44165638D01*
X-3684411Y43993664D01*
X-3830664Y43847411D01*
X-4002638Y43732502D01*
X-4193726Y43653350D01*
X-4358124Y43620650D01*
X-4396583Y43613000D01*
X-4603417Y43613000D01*
X-4641876Y43620650D01*
X-4806274Y43653350D01*
X-4997362Y43732502D01*
X-5169336Y43847411D01*
X-5315589Y43993664D01*
X-5430498Y44165638D01*
X-5509650Y44356726D01*
X-5550000Y44559584D01*
X-5550000Y44766416D01*
X-5509650Y44969274D01*
X-5430498Y45160362D01*
X-5315589Y45332336D01*
X-5169336Y45478589D01*
X-4997362Y45593498D01*
X-4806274Y45672650D01*
X-4628687Y45707973D01*
X-4603417Y45713000D01*
X-4396583Y45713000D01*
X-4371313Y45707973D01*
G37*
G36*
X-17800000Y44273000D02*
G01*
X-20200000Y44273000D01*
X-20200000Y46373000D01*
X-17800000Y46373000D01*
X-17800000Y44273000D01*
G37*
G36*
X-21800000Y44273000D02*
G01*
X-24200000Y44273000D01*
X-24200000Y46373000D01*
X-21800000Y46373000D01*
X-21800000Y44273000D01*
G37*
G36*
X-12200000Y44523000D02*
G01*
X-13500000Y44523000D01*
X-13500000Y46123000D01*
X-12200000Y46123000D01*
X-12200000Y44523000D01*
G37*
G36*
X-15500000Y44523000D02*
G01*
X-16800000Y44523000D01*
X-16800000Y46123000D01*
X-15500000Y46123000D01*
X-15500000Y44523000D01*
G37*
G36*
X-30580000Y45833000D02*
G01*
X-32500000Y45833000D01*
X-32500000Y47753000D01*
X-30580000Y47753000D01*
X-30580000Y45833000D01*
G37*
G36*
X-1831313Y48247973D02*
G01*
X-1653726Y48212650D01*
X-1462638Y48133498D01*
X-1290664Y48018589D01*
X-1144411Y47872336D01*
X-1029502Y47700362D01*
X-950350Y47509274D01*
X-910000Y47306416D01*
X-910000Y47099584D01*
X-950350Y46896726D01*
X-1029502Y46705638D01*
X-1144411Y46533664D01*
X-1290664Y46387411D01*
X-1462638Y46272502D01*
X-1653726Y46193350D01*
X-1831313Y46158027D01*
X-1856583Y46153000D01*
X-2063417Y46153000D01*
X-2088687Y46158027D01*
X-2266274Y46193350D01*
X-2457362Y46272502D01*
X-2629336Y46387411D01*
X-2775589Y46533664D01*
X-2890498Y46705638D01*
X-2969650Y46896726D01*
X-3010000Y47099584D01*
X-3010000Y47306416D01*
X-2969650Y47509274D01*
X-2890498Y47700362D01*
X-2775589Y47872336D01*
X-2629336Y48018589D01*
X-2457362Y48133498D01*
X-2266274Y48212650D01*
X-2088687Y48247973D01*
X-2063417Y48253000D01*
X-1856583Y48253000D01*
X-1831313Y48247973D01*
G37*
G36*
X-4371313Y48247973D02*
G01*
X-4193726Y48212650D01*
X-4002638Y48133498D01*
X-3830664Y48018589D01*
X-3684411Y47872336D01*
X-3569502Y47700362D01*
X-3490350Y47509274D01*
X-3450000Y47306416D01*
X-3450000Y47099584D01*
X-3490350Y46896726D01*
X-3569502Y46705638D01*
X-3684411Y46533664D01*
X-3830664Y46387411D01*
X-4002638Y46272502D01*
X-4193726Y46193350D01*
X-4371313Y46158027D01*
X-4396583Y46153000D01*
X-4603417Y46153000D01*
X-4628687Y46158027D01*
X-4806274Y46193350D01*
X-4997362Y46272502D01*
X-5169336Y46387411D01*
X-5315589Y46533664D01*
X-5430498Y46705638D01*
X-5509650Y46896726D01*
X-5550000Y47099584D01*
X-5550000Y47306416D01*
X-5509650Y47509274D01*
X-5430498Y47700362D01*
X-5315589Y47872336D01*
X-5169336Y48018589D01*
X-4997362Y48133498D01*
X-4806274Y48212650D01*
X-4628687Y48247973D01*
X-4603417Y48253000D01*
X-4396583Y48253000D01*
X-4371313Y48247973D01*
G37*
G36*
X-25117519Y48217814D02*
G01*
X-25072795Y48204246D01*
X-25031570Y48182211D01*
X-24995439Y48152561D01*
X-24965789Y48116430D01*
X-24943754Y48075205D01*
X-24930186Y48030481D01*
X-24925000Y47977824D01*
X-24925000Y46643176D01*
X-24930186Y46590519D01*
X-24943754Y46545795D01*
X-24965789Y46504570D01*
X-24995439Y46468439D01*
X-25031570Y46438789D01*
X-25072795Y46416754D01*
X-25117519Y46403186D01*
X-25170176Y46398000D01*
X-26829824Y46398000D01*
X-26882481Y46403186D01*
X-26927205Y46416754D01*
X-26968430Y46438789D01*
X-27004561Y46468439D01*
X-27034211Y46504570D01*
X-27056246Y46545795D01*
X-27069814Y46590519D01*
X-27075000Y46643176D01*
X-27075000Y47977824D01*
X-27069814Y48030481D01*
X-27056246Y48075205D01*
X-27034211Y48116430D01*
X-27004561Y48152561D01*
X-26968430Y48182211D01*
X-26927205Y48204246D01*
X-26882481Y48217814D01*
X-26829824Y48223000D01*
X-25170176Y48223000D01*
X-25117519Y48217814D01*
G37*
G36*
X-28812713Y49034554D02*
G01*
X-28719978Y49016108D01*
X-28545269Y48943741D01*
X-28388036Y48838681D01*
X-28254319Y48704964D01*
X-28149259Y48547731D01*
X-28089309Y48403000D01*
X-28076892Y48373021D01*
X-28043320Y48204246D01*
X-28040000Y48187552D01*
X-28040000Y47998448D01*
X-28076892Y47812978D01*
X-28149259Y47638269D01*
X-28254319Y47481036D01*
X-28388036Y47347319D01*
X-28545269Y47242259D01*
X-28719978Y47169892D01*
X-28812713Y47151446D01*
X-28905447Y47133000D01*
X-29094553Y47133000D01*
X-29187287Y47151446D01*
X-29280022Y47169892D01*
X-29454731Y47242259D01*
X-29611964Y47347319D01*
X-29745681Y47481036D01*
X-29850741Y47638269D01*
X-29923108Y47812978D01*
X-29960000Y47998448D01*
X-29960000Y48187552D01*
X-29956679Y48204246D01*
X-29923108Y48373021D01*
X-29910690Y48403000D01*
X-29850741Y48547731D01*
X-29745681Y48704964D01*
X-29611964Y48838681D01*
X-29454731Y48943741D01*
X-29280022Y49016108D01*
X-29187287Y49034554D01*
X-29094553Y49053000D01*
X-28905447Y49053000D01*
X-28812713Y49034554D01*
G37*
G36*
X-12200000Y47523000D02*
G01*
X-13500000Y47523000D01*
X-13500000Y49123000D01*
X-12200000Y49123000D01*
X-12200000Y47523000D01*
G37*
G36*
X-15500000Y47523000D02*
G01*
X-16800000Y47523000D01*
X-16800000Y49123000D01*
X-15500000Y49123000D01*
X-15500000Y47523000D01*
G37*
G36*
X-21800000Y47773000D02*
G01*
X-24200000Y47773000D01*
X-24200000Y49873000D01*
X-21800000Y49873000D01*
X-21800000Y47773000D01*
G37*
G36*
X-17800000Y47773000D02*
G01*
X-20200000Y47773000D01*
X-20200000Y49873000D01*
X-17800000Y49873000D01*
X-17800000Y47773000D01*
G37*
G36*
X-31352713Y50304554D02*
G01*
X-31259978Y50286108D01*
X-31085269Y50213741D01*
X-30928036Y50108681D01*
X-30794319Y49974964D01*
X-30708426Y49846417D01*
X-30689258Y49817729D01*
X-30616892Y49643021D01*
X-30581240Y49463789D01*
X-30580000Y49457552D01*
X-30580000Y49268448D01*
X-30616892Y49082978D01*
X-30689259Y48908269D01*
X-30794319Y48751036D01*
X-30928036Y48617319D01*
X-31085269Y48512259D01*
X-31259978Y48439892D01*
X-31352713Y48421446D01*
X-31445447Y48403000D01*
X-31634553Y48403000D01*
X-31727287Y48421446D01*
X-31820022Y48439892D01*
X-31994731Y48512259D01*
X-32151964Y48617319D01*
X-32285681Y48751036D01*
X-32390741Y48908269D01*
X-32463108Y49082978D01*
X-32500000Y49268448D01*
X-32500000Y49457552D01*
X-32498759Y49463789D01*
X-32463108Y49643021D01*
X-32390742Y49817729D01*
X-32371573Y49846417D01*
X-32285681Y49974964D01*
X-32151964Y50108681D01*
X-31994731Y50213741D01*
X-31820022Y50286108D01*
X-31727287Y50304554D01*
X-31634553Y50323000D01*
X-31445447Y50323000D01*
X-31352713Y50304554D01*
G37*
G36*
X-4371313Y50787973D02*
G01*
X-4193726Y50752650D01*
X-4002638Y50673498D01*
X-3830664Y50558589D01*
X-3684411Y50412336D01*
X-3569502Y50240362D01*
X-3490350Y50049274D01*
X-3450000Y49846416D01*
X-3450000Y49639584D01*
X-3490350Y49436726D01*
X-3569502Y49245638D01*
X-3684411Y49073664D01*
X-3830664Y48927411D01*
X-4002638Y48812502D01*
X-4193726Y48733350D01*
X-4371313Y48698027D01*
X-4396583Y48693000D01*
X-4603417Y48693000D01*
X-4628687Y48698027D01*
X-4806274Y48733350D01*
X-4997362Y48812502D01*
X-5169336Y48927411D01*
X-5315589Y49073664D01*
X-5430498Y49245638D01*
X-5509650Y49436726D01*
X-5550000Y49639584D01*
X-5550000Y49846416D01*
X-5509650Y50049274D01*
X-5430498Y50240362D01*
X-5315589Y50412336D01*
X-5169336Y50558589D01*
X-4997362Y50673498D01*
X-4806274Y50752650D01*
X-4628687Y50787973D01*
X-4603417Y50793000D01*
X-4396583Y50793000D01*
X-4371313Y50787973D01*
G37*
G36*
X-1831313Y50787973D02*
G01*
X-1653726Y50752650D01*
X-1462638Y50673498D01*
X-1290664Y50558589D01*
X-1144411Y50412336D01*
X-1029502Y50240362D01*
X-950350Y50049274D01*
X-910000Y49846416D01*
X-910000Y49639584D01*
X-950350Y49436726D01*
X-1029502Y49245638D01*
X-1144411Y49073664D01*
X-1290664Y48927411D01*
X-1462638Y48812502D01*
X-1653726Y48733350D01*
X-1831313Y48698027D01*
X-1856583Y48693000D01*
X-2063417Y48693000D01*
X-2088687Y48698027D01*
X-2266274Y48733350D01*
X-2457362Y48812502D01*
X-2629336Y48927411D01*
X-2775589Y49073664D01*
X-2890498Y49245638D01*
X-2969650Y49436726D01*
X-3010000Y49639584D01*
X-3010000Y49846416D01*
X-2969650Y50049274D01*
X-2890498Y50240362D01*
X-2775589Y50412336D01*
X-2629336Y50558589D01*
X-2457362Y50673498D01*
X-2266274Y50752650D01*
X-2088687Y50787973D01*
X-2063417Y50793000D01*
X-1856583Y50793000D01*
X-1831313Y50787973D01*
G37*
G36*
X-9117519Y50942814D02*
G01*
X-9072795Y50929246D01*
X-9031570Y50907211D01*
X-8995439Y50877561D01*
X-8965789Y50841430D01*
X-8943754Y50800205D01*
X-8930186Y50755481D01*
X-8925000Y50702824D01*
X-8925000Y49368176D01*
X-8930186Y49315519D01*
X-8943754Y49270795D01*
X-8965789Y49229570D01*
X-8995439Y49193439D01*
X-9031570Y49163789D01*
X-9072795Y49141754D01*
X-9117519Y49128186D01*
X-9170176Y49123000D01*
X-10829824Y49123000D01*
X-10882481Y49128186D01*
X-10927205Y49141754D01*
X-10968430Y49163789D01*
X-11004561Y49193439D01*
X-11034211Y49229570D01*
X-11056246Y49270795D01*
X-11069814Y49315519D01*
X-11075000Y49368176D01*
X-11075000Y50702824D01*
X-11069814Y50755481D01*
X-11056246Y50800205D01*
X-11034211Y50841430D01*
X-11004561Y50877561D01*
X-10968430Y50907211D01*
X-10927205Y50929246D01*
X-10882481Y50942814D01*
X-10829824Y50948000D01*
X-9170176Y50948000D01*
X-9117519Y50942814D01*
G37*
G36*
X-25117519Y51242814D02*
G01*
X-25072795Y51229246D01*
X-25031570Y51207211D01*
X-24995439Y51177561D01*
X-24965789Y51141430D01*
X-24943754Y51100205D01*
X-24930186Y51055481D01*
X-24925000Y51002824D01*
X-24925000Y49668176D01*
X-24930186Y49615519D01*
X-24943754Y49570795D01*
X-24965789Y49529570D01*
X-24995439Y49493439D01*
X-25031570Y49463789D01*
X-25072795Y49441754D01*
X-25117519Y49428186D01*
X-25170176Y49423000D01*
X-26829824Y49423000D01*
X-26882481Y49428186D01*
X-26927205Y49441754D01*
X-26968430Y49463789D01*
X-27004561Y49493439D01*
X-27034211Y49529570D01*
X-27056246Y49570795D01*
X-27069814Y49615519D01*
X-27075000Y49668176D01*
X-27075000Y51002824D01*
X-27069814Y51055481D01*
X-27056246Y51100205D01*
X-27034211Y51141430D01*
X-27004561Y51177561D01*
X-26968430Y51207211D01*
X-26927205Y51229246D01*
X-26882481Y51242814D01*
X-26829824Y51248000D01*
X-25170176Y51248000D01*
X-25117519Y51242814D01*
G37*
G36*
X-28812713Y51544554D02*
G01*
X-28719978Y51526108D01*
X-28596441Y51474937D01*
X-28578273Y51467412D01*
X-28545269Y51453741D01*
X-28388036Y51348681D01*
X-28254319Y51214964D01*
X-28149259Y51057731D01*
X-28081456Y50894041D01*
X-28076892Y50883021D01*
X-28041048Y50702824D01*
X-28040000Y50697552D01*
X-28040000Y50508448D01*
X-28076892Y50322978D01*
X-28149259Y50148269D01*
X-28254319Y49991036D01*
X-28388036Y49857319D01*
X-28545269Y49752259D01*
X-28719978Y49679892D01*
X-28778879Y49668176D01*
X-28905447Y49643000D01*
X-29094553Y49643000D01*
X-29221121Y49668176D01*
X-29280022Y49679892D01*
X-29454731Y49752259D01*
X-29611964Y49857319D01*
X-29745681Y49991036D01*
X-29850741Y50148269D01*
X-29923108Y50322978D01*
X-29960000Y50508448D01*
X-29960000Y50697552D01*
X-29958951Y50702824D01*
X-29923108Y50883021D01*
X-29918543Y50894041D01*
X-29850741Y51057731D01*
X-29745681Y51214964D01*
X-29611964Y51348681D01*
X-29454731Y51453741D01*
X-29421726Y51467412D01*
X-29403559Y51474937D01*
X-29280022Y51526108D01*
X-29187287Y51544554D01*
X-29094553Y51563000D01*
X-28905447Y51563000D01*
X-28812713Y51544554D01*
G37*
G36*
X-14870000Y51048000D02*
G01*
X-16830000Y51048000D01*
X-16830000Y52098000D01*
X-14870000Y52098000D01*
X-14870000Y51048000D01*
G37*
G36*
X-12170000Y51048000D02*
G01*
X-14130000Y51048000D01*
X-14130000Y53998000D01*
X-12170000Y53998000D01*
X-12170000Y51048000D01*
G37*
G36*
X-1831313Y53327973D02*
G01*
X-1653726Y53292650D01*
X-1462638Y53213498D01*
X-1290664Y53098589D01*
X-1144411Y52952336D01*
X-1029502Y52780362D01*
X-950350Y52589274D01*
X-910000Y52386416D01*
X-910000Y52179584D01*
X-950350Y51976726D01*
X-1029502Y51785638D01*
X-1144411Y51613664D01*
X-1290664Y51467411D01*
X-1462638Y51352502D01*
X-1653726Y51273350D01*
X-1831313Y51238027D01*
X-1856583Y51233000D01*
X-2063417Y51233000D01*
X-2088687Y51238027D01*
X-2266274Y51273350D01*
X-2457362Y51352502D01*
X-2629336Y51467411D01*
X-2775589Y51613664D01*
X-2890498Y51785638D01*
X-2969650Y51976726D01*
X-3010000Y52179584D01*
X-3010000Y52386416D01*
X-2969650Y52589274D01*
X-2890498Y52780362D01*
X-2775589Y52952336D01*
X-2629336Y53098589D01*
X-2457362Y53213498D01*
X-2266274Y53292650D01*
X-2088687Y53327973D01*
X-2063417Y53333000D01*
X-1856583Y53333000D01*
X-1831313Y53327973D01*
G37*
G36*
X-4371313Y53327973D02*
G01*
X-4193726Y53292650D01*
X-4002638Y53213498D01*
X-3830664Y53098589D01*
X-3684411Y52952336D01*
X-3569502Y52780362D01*
X-3490350Y52589274D01*
X-3450000Y52386416D01*
X-3450000Y52179584D01*
X-3490350Y51976726D01*
X-3569502Y51785638D01*
X-3684411Y51613664D01*
X-3830664Y51467411D01*
X-4002638Y51352502D01*
X-4193726Y51273350D01*
X-4371313Y51238027D01*
X-4396583Y51233000D01*
X-4603417Y51233000D01*
X-4628687Y51238027D01*
X-4806274Y51273350D01*
X-4997362Y51352502D01*
X-5169336Y51467411D01*
X-5315589Y51613664D01*
X-5430498Y51785638D01*
X-5509650Y51976726D01*
X-5550000Y52179584D01*
X-5550000Y52386416D01*
X-5509650Y52589274D01*
X-5430498Y52780362D01*
X-5315589Y52952336D01*
X-5169336Y53098589D01*
X-4997362Y53213498D01*
X-4806274Y53292650D01*
X-4628687Y53327973D01*
X-4603417Y53333000D01*
X-4396583Y53333000D01*
X-4371313Y53327973D01*
G37*
G36*
X-21800000Y51473000D02*
G01*
X-24200000Y51473000D01*
X-24200000Y53573000D01*
X-21800000Y53573000D01*
X-21800000Y51473000D01*
G37*
G36*
X-17800000Y51473000D02*
G01*
X-20200000Y51473000D01*
X-20200000Y53573000D01*
X-17800000Y53573000D01*
X-17800000Y51473000D01*
G37*
G36*
X-37533960Y55562933D02*
G01*
X-37357667Y55527866D01*
X-37220096Y55470882D01*
X-37025540Y55390295D01*
X-36726631Y55190570D01*
X-36472430Y54936369D01*
X-36272705Y54637460D01*
X-36192118Y54442904D01*
X-36135134Y54305333D01*
X-36113909Y54198628D01*
X-36065000Y53952748D01*
X-36065000Y53593252D01*
X-36135134Y53240668D01*
X-36272705Y52908540D01*
X-36472430Y52609631D01*
X-36726631Y52355430D01*
X-37025540Y52155705D01*
X-37220096Y52075118D01*
X-37357667Y52018134D01*
X-37458887Y51998000D01*
X-37710252Y51948000D01*
X-38069748Y51948000D01*
X-38321113Y51998000D01*
X-38422333Y52018134D01*
X-38559904Y52075118D01*
X-38754460Y52155705D01*
X-39053369Y52355430D01*
X-39307570Y52609631D01*
X-39507295Y52908540D01*
X-39644866Y53240668D01*
X-39715000Y53593252D01*
X-39715000Y53952748D01*
X-39666091Y54198628D01*
X-39644866Y54305333D01*
X-39587882Y54442904D01*
X-39507295Y54637460D01*
X-39307570Y54936369D01*
X-39053369Y55190570D01*
X-38754460Y55390295D01*
X-38559904Y55470882D01*
X-38422333Y55527866D01*
X-38246040Y55562933D01*
X-38069748Y55598000D01*
X-37710252Y55598000D01*
X-37533960Y55562933D01*
G37*
G36*
X-9117519Y53917814D02*
G01*
X-9072795Y53904246D01*
X-9031570Y53882211D01*
X-8995439Y53852561D01*
X-8965789Y53816430D01*
X-8943754Y53775205D01*
X-8930186Y53730481D01*
X-8925000Y53677824D01*
X-8925000Y52343176D01*
X-8930186Y52290519D01*
X-8943754Y52245795D01*
X-8965789Y52204570D01*
X-8995439Y52168439D01*
X-9031570Y52138789D01*
X-9072795Y52116754D01*
X-9117519Y52103186D01*
X-9170176Y52098000D01*
X-10829824Y52098000D01*
X-10882481Y52103186D01*
X-10927205Y52116754D01*
X-10968430Y52138789D01*
X-11004561Y52168439D01*
X-11034211Y52204570D01*
X-11056246Y52245795D01*
X-11069814Y52290519D01*
X-11075000Y52343176D01*
X-11075000Y53677824D01*
X-11069814Y53730481D01*
X-11056246Y53775205D01*
X-11034211Y53816430D01*
X-11004561Y53852561D01*
X-10968430Y53882211D01*
X-10927205Y53904246D01*
X-10882481Y53917814D01*
X-10829824Y53923000D01*
X-9170176Y53923000D01*
X-9117519Y53917814D01*
G37*
G36*
X-25117519Y54217814D02*
G01*
X-25072795Y54204246D01*
X-25031570Y54182211D01*
X-24995439Y54152561D01*
X-24965789Y54116430D01*
X-24943754Y54075205D01*
X-24930186Y54030481D01*
X-24925000Y53977824D01*
X-24925000Y52643176D01*
X-24930186Y52590519D01*
X-24943754Y52545795D01*
X-24965789Y52504570D01*
X-24995439Y52468439D01*
X-25031570Y52438789D01*
X-25072795Y52416754D01*
X-25117519Y52403186D01*
X-25170176Y52398000D01*
X-26829824Y52398000D01*
X-26882481Y52403186D01*
X-26927205Y52416754D01*
X-26968430Y52438789D01*
X-27004561Y52468439D01*
X-27034211Y52504570D01*
X-27056246Y52545795D01*
X-27069814Y52590519D01*
X-27075000Y52643176D01*
X-27075000Y53977824D01*
X-27069814Y54030481D01*
X-27056246Y54075205D01*
X-27034211Y54116430D01*
X-27004561Y54152561D01*
X-26968430Y54182211D01*
X-26927205Y54204246D01*
X-26882481Y54217814D01*
X-26829824Y54223000D01*
X-25170176Y54223000D01*
X-25117519Y54217814D01*
G37*
G36*
X-14870000Y52948000D02*
G01*
X-16830000Y52948000D01*
X-16830000Y53998000D01*
X-14870000Y53998000D01*
X-14870000Y52948000D01*
G37*
M02*
